<svg width="1374" height="1360" viewBox="0 0 1374 1360" fill="none" xmlns="http://www.w3.org/2000/svg">
<path d="M694 0C766.809 8.68234e-07 839.145 11.6931 908.245 34.6327L822.547 292.78C781.087 279.016 737.685 272 694 272L694 0Z" fill="#5F52F1"/>
<path d="M566.582 12.0444C608.582 4.03259 651.244 -8.20618e-05 694.001 1.2524e-09L694.001 272C668.346 272 642.749 274.42 617.549 279.227L566.582 12.0444Z" fill="#01D3EC"/>
<path d="M143.868 280.306C245.53 140.382 396.689 44.4531 566.581 12.0446L617.549 279.227C515.613 298.672 424.918 356.229 363.921 440.184L143.868 280.306Z" fill="#8CC0B9"/>
<path d="M907.729 34.4616C1044.05 79.5968 1162.59 166.731 1246.35 283.375C1330.11 400.02 1374.79 540.187 1373.99 683.786L1101.99 682.272C1102.47 596.112 1075.66 512.012 1025.41 442.025C975.154 372.039 904.032 319.758 822.238 292.677L907.729 34.4616Z" fill="#FFE657"/>
<path d="M1374 680C1374 823.602 1328.54 963.518 1244.13 1079.69L1024.08 919.816C1074.72 850.111 1102 766.161 1102 680H1374Z" fill="#525775"/>
<path d="M1244.13 1079.69C1181.06 1166.51 1098.33 1237.17 1002.71 1285.88C907.099 1334.6 801.311 1360 694 1360C586.689 1360 480.901 1334.6 385.286 1285.88C289.671 1237.17 206.944 1166.51 143.868 1079.69L363.921 919.816C401.766 971.906 451.403 1014.3 508.772 1043.53C566.141 1072.76 629.613 1088 694 1088C758.387 1088 821.859 1072.76 879.228 1043.53C936.597 1014.3 986.233 971.906 1024.08 919.816L1244.13 1079.69Z" fill="#9F8CC0"/>
<mask id="path-7-outside-1_661_101" maskUnits="userSpaceOnUse" x="0" y="266" width="378" height="828" fill="black">
<rect fill="white" y="266" width="378" height="828"/>
<path d="M143.868 1079.69C59.4613 963.518 14 823.602 14 680C14 536.398 59.4614 396.482 143.869 280.306L363.921 440.183C313.277 509.889 286 593.839 286 680C286 766.161 313.277 850.111 363.921 919.816L143.868 1079.69Z"/>
</mask>
<path d="M143.868 1079.69C59.4613 963.518 14 823.602 14 680C14 536.398 59.4614 396.482 143.869 280.306L363.921 440.183C313.277 509.889 286 593.839 286 680C286 766.161 313.277 850.111 363.921 919.816L143.868 1079.69Z" fill="#FF4059"/>
<path d="M143.868 1079.69C59.4613 963.518 14 823.602 14 680C14 536.398 59.4614 396.482 143.869 280.306L363.921 440.183C313.277 509.889 286 593.839 286 680C286 766.161 313.277 850.111 363.921 919.816L143.868 1079.69Z" stroke="#30324F" stroke-width="28" stroke-linejoin="round" mask="url(#path-7-outside-1_661_101)"/>
<mask id="path-8-outside-2_661_101" maskUnits="userSpaceOnUse" x="424" y="65" width="390" height="35" fill="black">
<rect fill="white" x="424" y="65" width="390" height="35"/>
<path d="M438.366 67.816C440.067 67.816 441.607 68.1973 442.986 68.96C444.364 69.7227 445.435 70.7787 446.198 72.128C446.99 73.448 447.386 74.944 447.386 76.616C447.386 78.288 446.99 79.7987 446.198 81.148C445.435 82.468 444.364 83.5093 442.986 84.272C441.607 85.0347 440.067 85.416 438.366 85.416H429.654V98H425.342V67.816H438.366ZM429.654 71.732V81.5H437.97C439.348 81.5 440.536 81.0307 441.534 80.092C442.56 79.124 443.074 77.9653 443.074 76.616C443.074 75.2373 442.56 74.0787 441.534 73.14C440.536 72.2013 439.348 71.732 437.97 71.732H429.654ZM457.947 66.32V70.148H453.635V66.32H457.947ZM457.859 75.516V98H453.723V75.516H457.859ZM477.56 75.076C480.024 75.076 481.96 75.736 483.368 77.056C484.776 78.376 485.48 80.312 485.48 82.864V98H481.344V83.612C481.344 80.1213 479.76 78.376 476.592 78.376C475.536 78.376 474.554 78.6547 473.644 79.212C472.735 79.7693 472.002 80.532 471.444 81.5C470.887 82.4387 470.608 83.48 470.608 84.624V98H466.472V75.516H469.464L470.036 78.816C471.914 76.3227 474.422 75.076 477.56 75.076ZM498.01 66.32V88.056L508.042 75.516H512.574L503.906 86.428L513.146 98H508.13L501.398 89.64L498.01 93.16V98H493.874V66.32H498.01ZM527.321 75.076C528.993 75.076 530.474 75.34 531.765 75.868C533.085 76.396 534.097 77.1293 534.801 78.068C535.534 79.0067 535.901 80.048 535.901 81.192L535.857 81.984H531.765V81.588C531.765 79.4467 530.108 78.376 526.793 78.376C523.508 78.376 521.865 79.3587 521.865 81.324C521.865 82.2333 522.334 82.908 523.273 83.348C524.212 83.7587 525.649 84.1547 527.585 84.536C529.433 84.9173 530.944 85.3133 532.117 85.724C533.32 86.1347 534.332 86.78 535.153 87.66C536.004 88.54 536.429 89.728 536.429 91.224C536.429 93.6293 535.608 95.4333 533.965 96.636C532.322 97.8387 529.961 98.44 526.881 98.44H526.221C524.373 98.44 522.76 98.1613 521.381 97.604C520.002 97.0173 518.932 96.24 518.169 95.272C517.436 94.2747 517.084 93.16 517.113 91.928V90.96H521.205V91.4C521.205 93.8933 523.302 95.14 527.497 95.14C528.729 95.14 529.829 94.8613 530.797 94.304C531.794 93.7467 532.293 92.984 532.293 92.016C532.293 91.1947 532.014 90.5493 531.457 90.08C530.929 89.6107 530.269 89.2587 529.477 89.024C528.685 88.7893 527.585 88.5547 526.177 88.32C524.358 87.968 522.892 87.616 521.777 87.264C520.662 86.8827 519.709 86.252 518.917 85.372C518.125 84.492 517.729 83.2893 517.729 81.764C517.729 79.6813 518.55 78.0533 520.193 76.88C521.836 75.6773 524.08 75.076 526.925 75.076H527.321ZM552.409 75.076C555.372 75.076 557.572 75.6627 559.009 76.836C560.476 78.0093 561.209 79.7107 561.209 81.94V93.6C561.209 94.128 561.326 94.524 561.561 94.788C561.796 95.0227 562.089 95.14 562.441 95.14C563.116 95.14 563.79 94.9347 564.465 94.524V97.56C563.468 98.1467 562.338 98.44 561.077 98.44C559.816 98.44 558.877 98.088 558.261 97.384C557.645 96.6507 557.308 95.6533 557.249 94.392C555.43 97.0907 552.805 98.44 549.373 98.44C546.909 98.44 545.061 97.912 543.829 96.856C542.626 95.7707 542.025 94.0693 542.025 91.752C542.025 89.9333 542.494 88.5107 543.433 87.484C544.372 86.428 545.926 85.6653 548.097 85.196C550.268 84.7267 553.26 84.492 557.073 84.492V82.424C557.073 80.928 556.633 79.8867 555.753 79.3C554.873 78.684 553.597 78.376 551.925 78.376C550.341 78.376 549.109 78.684 548.229 79.3C547.349 79.916 546.909 80.7813 546.909 81.896V82.424H542.861C542.802 82.0133 542.773 81.5293 542.773 80.972C542.773 79.9453 543.184 78.9773 544.005 78.068C544.826 77.1587 545.941 76.44 547.349 75.912C548.757 75.3547 550.312 75.076 552.013 75.076H552.409ZM557.073 87.704C553.993 87.704 551.661 87.8653 550.077 88.188C548.522 88.4813 547.481 88.936 546.953 89.552C546.425 90.168 546.161 91.0187 546.161 92.104C546.161 94.128 547.701 95.14 550.781 95.14C551.866 95.14 552.893 94.876 553.861 94.348C554.829 93.7907 555.606 93.0133 556.193 92.016C556.78 91.0187 557.073 89.8747 557.073 88.584V87.704ZM574.935 66.32V98H570.799V66.32H574.935ZM592.737 75.076C594.585 75.076 596.213 75.472 597.621 76.264C599.058 77.0267 600.173 78.1267 600.965 79.564C601.757 81.0013 602.153 82.6733 602.153 84.58V87.704H586.445C586.503 90.08 587.061 91.9133 588.117 93.204C589.173 94.4947 590.742 95.14 592.825 95.14C594.673 95.14 596.037 94.5973 596.917 93.512C597.797 92.4267 598.237 91.136 598.237 89.64H602.153C602.153 91.4 601.742 92.94 600.921 94.26C600.129 95.58 599.014 96.6067 597.577 97.34C596.169 98.0733 594.555 98.44 592.737 98.44H592.561C589.393 98.44 586.885 97.428 585.037 95.404C583.218 93.3507 582.309 90.6227 582.309 87.22V86.34C582.309 84.1107 582.719 82.1453 583.541 80.444C584.362 78.7427 585.535 77.4227 587.061 76.484C588.586 75.5453 590.375 75.076 592.429 75.076H592.737ZM592.517 78.376C590.845 78.376 589.481 78.8893 588.425 79.916C587.398 80.9427 586.767 82.468 586.533 84.492H598.061V83.964C598.061 82.292 597.547 80.9427 596.521 79.916C595.523 78.8893 594.189 78.376 592.517 78.376ZM630.7 67.376C631.844 67.376 632.871 67.4787 633.78 67.684V71.688C632.959 71.424 632.138 71.292 631.316 71.292C629.527 71.292 628.09 71.7027 627.004 72.524C625.948 73.316 625.42 74.4307 625.42 75.868C625.42 77.2467 625.978 78.3907 627.092 79.3C628.236 80.18 629.659 80.62 631.36 80.62H636.772L638.004 74.328H640.996V80.62H645.748V84.536H640.996V98H631.096C627.899 98 625.318 97.2667 623.352 95.8C621.416 94.304 620.448 92.2067 620.448 89.508C620.448 85.8707 622.296 83.5093 625.992 82.424L626.124 82.336C624.599 81.6613 623.382 80.796 622.472 79.74C621.592 78.684 621.152 77.4227 621.152 75.956C621.152 74.02 621.622 72.4067 622.56 71.116C623.499 69.8253 624.687 68.8867 626.124 68.3C627.591 67.684 629.116 67.376 630.7 67.376ZM631.668 84.536C629.439 84.536 627.723 84.9467 626.52 85.768C625.347 86.56 624.76 87.7333 624.76 89.288C624.76 90.8427 625.362 92.0307 626.564 92.852C627.796 93.6733 629.512 94.084 631.712 94.084H636.684V84.536H631.668ZM668.771 67.816V94.084H682.631L683.247 98H664.459V67.816H668.771ZM702.393 67.816C704.094 67.816 705.634 68.1973 707.013 68.96C708.392 69.7227 709.462 70.7787 710.225 72.128C711.017 73.448 711.413 74.944 711.413 76.616C711.413 78.288 711.017 79.7987 710.225 81.148C709.462 82.468 708.392 83.5093 707.013 84.272C705.634 85.0347 704.094 85.416 702.393 85.416H693.681V98H689.369V67.816H702.393ZM693.681 71.732V81.5H701.997C703.376 81.5 704.564 81.0307 705.561 80.092C706.588 79.124 707.101 77.9653 707.101 76.616C707.101 75.2373 706.588 74.0787 705.561 73.14C704.564 72.2013 703.376 71.732 701.997 71.732H693.681ZM740.064 67.376C742.176 67.376 743.966 67.8013 745.432 68.652C746.899 69.5027 747.999 70.6027 748.732 71.952C749.466 73.3013 749.832 74.724 749.832 76.22C749.832 78.332 749.407 80.0627 748.556 81.412C747.706 82.7613 746.342 84.1547 744.464 85.592L736.06 92.016C735.386 92.4853 734.858 92.9107 734.476 93.292C734.124 93.644 733.948 93.908 733.948 94.084H749.964V98H729.24V96.944C729.24 95.448 729.592 94.0253 730.296 92.676C731.03 91.2973 732.042 90.124 733.332 89.156L742.088 82.556C743.32 81.5587 744.2 80.576 744.728 79.608C745.256 78.64 745.52 77.5693 745.52 76.396C745.52 75.516 745.3 74.6947 744.86 73.932C744.42 73.14 743.775 72.5093 742.924 72.04C742.074 71.5413 741.047 71.292 739.844 71.292C738.612 71.292 737.512 71.556 736.544 72.084C735.606 72.612 734.872 73.316 734.344 74.196C733.816 75.076 733.552 76.044 733.552 77.1V77.716C733.552 77.9507 733.567 78.1267 733.596 78.244H729.284L729.24 77.804V77.452C729.24 75.7507 729.622 74.1373 730.384 72.612C731.147 71.0573 732.335 69.796 733.948 68.828C735.562 67.86 737.6 67.376 740.064 67.376ZM768.323 67.376C770.171 67.376 771.857 67.816 773.383 68.696C774.937 69.576 776.169 70.7933 777.079 72.348C777.988 73.9027 778.443 75.648 778.443 77.584V88.276C778.443 90.1827 778.003 91.9133 777.123 93.468C776.243 94.9933 775.025 96.2107 773.471 97.12C771.945 98 770.229 98.44 768.323 98.44H767.751C765.815 98.44 764.069 98 762.515 97.12C760.989 96.2107 759.801 94.9787 758.951 93.424C758.1 91.8693 757.675 90.1533 757.675 88.276V77.584C757.675 75.6187 758.115 73.8587 758.995 72.304C759.904 70.7493 761.121 69.5467 762.647 68.696C764.172 67.816 765.873 67.376 767.751 67.376H768.323ZM768.059 71.292C766.357 71.292 764.92 71.864 763.747 73.008C762.573 74.1227 761.987 75.5307 761.987 77.232V88.584C761.987 90.2853 762.573 91.708 763.747 92.852C764.92 93.9667 766.357 94.524 768.059 94.524C769.819 94.524 771.271 93.952 772.415 92.808C773.559 91.664 774.131 90.256 774.131 88.584V77.232C774.131 75.56 773.559 74.152 772.415 73.008C771.271 71.864 769.819 71.292 768.059 71.292ZM809.033 67.816L790.729 98H787.649L806.041 67.816H809.033ZM789.893 67.86C791.448 67.86 792.724 68.3733 793.721 69.4C794.718 70.3973 795.217 71.6587 795.217 73.184V77.892C795.217 79.4173 794.704 80.6933 793.677 81.72C792.68 82.7173 791.418 83.216 789.893 83.216H789.585C788.06 83.216 786.784 82.7173 785.757 81.72C784.76 80.6933 784.261 79.4173 784.261 77.892V73.184C784.261 71.6587 784.76 70.3973 785.757 69.4C786.754 68.3733 788.03 67.86 789.585 67.86H789.893ZM789.761 70.28C788.94 70.28 788.28 70.5293 787.781 71.028C787.312 71.4973 787.077 72.1133 787.077 72.876V78.2C787.077 78.9627 787.312 79.5933 787.781 80.092C788.28 80.5613 788.94 80.796 789.761 80.796C790.582 80.796 791.228 80.5613 791.697 80.092C792.166 79.5933 792.401 78.9627 792.401 78.2V72.876C792.401 72.1133 792.166 71.4973 791.697 71.028C791.228 70.5293 790.582 70.28 789.761 70.28ZM807.053 82.688C808.578 82.688 809.84 83.2013 810.837 84.228C811.864 85.2253 812.377 86.4867 812.377 88.012V92.72C812.377 94.2453 811.878 95.5213 810.881 96.548C809.884 97.5453 808.608 98.044 807.053 98.044H806.745C805.19 98.044 803.914 97.5453 802.917 96.548C801.92 95.5213 801.421 94.2453 801.421 92.72V88.012C801.421 86.4867 801.92 85.2253 802.917 84.228C803.944 83.2013 805.22 82.688 806.745 82.688H807.053ZM806.921 85.108C806.1 85.108 805.44 85.3573 804.941 85.856C804.472 86.3253 804.237 86.9413 804.237 87.704V93.028C804.237 93.7907 804.472 94.4213 804.941 94.92C805.44 95.3893 806.1 95.624 806.921 95.624C807.742 95.624 808.388 95.3893 808.857 94.92C809.326 94.4213 809.561 93.7907 809.561 93.028V87.704C809.561 86.9413 809.326 86.3253 808.857 85.856C808.388 85.3573 807.742 85.108 806.921 85.108Z"/>
</mask>
<path d="M438.366 67.816C440.067 67.816 441.607 68.1973 442.986 68.96C444.364 69.7227 445.435 70.7787 446.198 72.128C446.99 73.448 447.386 74.944 447.386 76.616C447.386 78.288 446.99 79.7987 446.198 81.148C445.435 82.468 444.364 83.5093 442.986 84.272C441.607 85.0347 440.067 85.416 438.366 85.416H429.654V98H425.342V67.816H438.366ZM429.654 71.732V81.5H437.97C439.348 81.5 440.536 81.0307 441.534 80.092C442.56 79.124 443.074 77.9653 443.074 76.616C443.074 75.2373 442.56 74.0787 441.534 73.14C440.536 72.2013 439.348 71.732 437.97 71.732H429.654ZM457.947 66.32V70.148H453.635V66.32H457.947ZM457.859 75.516V98H453.723V75.516H457.859ZM477.56 75.076C480.024 75.076 481.96 75.736 483.368 77.056C484.776 78.376 485.48 80.312 485.48 82.864V98H481.344V83.612C481.344 80.1213 479.76 78.376 476.592 78.376C475.536 78.376 474.554 78.6547 473.644 79.212C472.735 79.7693 472.002 80.532 471.444 81.5C470.887 82.4387 470.608 83.48 470.608 84.624V98H466.472V75.516H469.464L470.036 78.816C471.914 76.3227 474.422 75.076 477.56 75.076ZM498.01 66.32V88.056L508.042 75.516H512.574L503.906 86.428L513.146 98H508.13L501.398 89.64L498.01 93.16V98H493.874V66.32H498.01ZM527.321 75.076C528.993 75.076 530.474 75.34 531.765 75.868C533.085 76.396 534.097 77.1293 534.801 78.068C535.534 79.0067 535.901 80.048 535.901 81.192L535.857 81.984H531.765V81.588C531.765 79.4467 530.108 78.376 526.793 78.376C523.508 78.376 521.865 79.3587 521.865 81.324C521.865 82.2333 522.334 82.908 523.273 83.348C524.212 83.7587 525.649 84.1547 527.585 84.536C529.433 84.9173 530.944 85.3133 532.117 85.724C533.32 86.1347 534.332 86.78 535.153 87.66C536.004 88.54 536.429 89.728 536.429 91.224C536.429 93.6293 535.608 95.4333 533.965 96.636C532.322 97.8387 529.961 98.44 526.881 98.44H526.221C524.373 98.44 522.76 98.1613 521.381 97.604C520.002 97.0173 518.932 96.24 518.169 95.272C517.436 94.2747 517.084 93.16 517.113 91.928V90.96H521.205V91.4C521.205 93.8933 523.302 95.14 527.497 95.14C528.729 95.14 529.829 94.8613 530.797 94.304C531.794 93.7467 532.293 92.984 532.293 92.016C532.293 91.1947 532.014 90.5493 531.457 90.08C530.929 89.6107 530.269 89.2587 529.477 89.024C528.685 88.7893 527.585 88.5547 526.177 88.32C524.358 87.968 522.892 87.616 521.777 87.264C520.662 86.8827 519.709 86.252 518.917 85.372C518.125 84.492 517.729 83.2893 517.729 81.764C517.729 79.6813 518.55 78.0533 520.193 76.88C521.836 75.6773 524.08 75.076 526.925 75.076H527.321ZM552.409 75.076C555.372 75.076 557.572 75.6627 559.009 76.836C560.476 78.0093 561.209 79.7107 561.209 81.94V93.6C561.209 94.128 561.326 94.524 561.561 94.788C561.796 95.0227 562.089 95.14 562.441 95.14C563.116 95.14 563.79 94.9347 564.465 94.524V97.56C563.468 98.1467 562.338 98.44 561.077 98.44C559.816 98.44 558.877 98.088 558.261 97.384C557.645 96.6507 557.308 95.6533 557.249 94.392C555.43 97.0907 552.805 98.44 549.373 98.44C546.909 98.44 545.061 97.912 543.829 96.856C542.626 95.7707 542.025 94.0693 542.025 91.752C542.025 89.9333 542.494 88.5107 543.433 87.484C544.372 86.428 545.926 85.6653 548.097 85.196C550.268 84.7267 553.26 84.492 557.073 84.492V82.424C557.073 80.928 556.633 79.8867 555.753 79.3C554.873 78.684 553.597 78.376 551.925 78.376C550.341 78.376 549.109 78.684 548.229 79.3C547.349 79.916 546.909 80.7813 546.909 81.896V82.424H542.861C542.802 82.0133 542.773 81.5293 542.773 80.972C542.773 79.9453 543.184 78.9773 544.005 78.068C544.826 77.1587 545.941 76.44 547.349 75.912C548.757 75.3547 550.312 75.076 552.013 75.076H552.409ZM557.073 87.704C553.993 87.704 551.661 87.8653 550.077 88.188C548.522 88.4813 547.481 88.936 546.953 89.552C546.425 90.168 546.161 91.0187 546.161 92.104C546.161 94.128 547.701 95.14 550.781 95.14C551.866 95.14 552.893 94.876 553.861 94.348C554.829 93.7907 555.606 93.0133 556.193 92.016C556.78 91.0187 557.073 89.8747 557.073 88.584V87.704ZM574.935 66.32V98H570.799V66.32H574.935ZM592.737 75.076C594.585 75.076 596.213 75.472 597.621 76.264C599.058 77.0267 600.173 78.1267 600.965 79.564C601.757 81.0013 602.153 82.6733 602.153 84.58V87.704H586.445C586.503 90.08 587.061 91.9133 588.117 93.204C589.173 94.4947 590.742 95.14 592.825 95.14C594.673 95.14 596.037 94.5973 596.917 93.512C597.797 92.4267 598.237 91.136 598.237 89.64H602.153C602.153 91.4 601.742 92.94 600.921 94.26C600.129 95.58 599.014 96.6067 597.577 97.34C596.169 98.0733 594.555 98.44 592.737 98.44H592.561C589.393 98.44 586.885 97.428 585.037 95.404C583.218 93.3507 582.309 90.6227 582.309 87.22V86.34C582.309 84.1107 582.719 82.1453 583.541 80.444C584.362 78.7427 585.535 77.4227 587.061 76.484C588.586 75.5453 590.375 75.076 592.429 75.076H592.737ZM592.517 78.376C590.845 78.376 589.481 78.8893 588.425 79.916C587.398 80.9427 586.767 82.468 586.533 84.492H598.061V83.964C598.061 82.292 597.547 80.9427 596.521 79.916C595.523 78.8893 594.189 78.376 592.517 78.376ZM630.7 67.376C631.844 67.376 632.871 67.4787 633.78 67.684V71.688C632.959 71.424 632.138 71.292 631.316 71.292C629.527 71.292 628.09 71.7027 627.004 72.524C625.948 73.316 625.42 74.4307 625.42 75.868C625.42 77.2467 625.978 78.3907 627.092 79.3C628.236 80.18 629.659 80.62 631.36 80.62H636.772L638.004 74.328H640.996V80.62H645.748V84.536H640.996V98H631.096C627.899 98 625.318 97.2667 623.352 95.8C621.416 94.304 620.448 92.2067 620.448 89.508C620.448 85.8707 622.296 83.5093 625.992 82.424L626.124 82.336C624.599 81.6613 623.382 80.796 622.472 79.74C621.592 78.684 621.152 77.4227 621.152 75.956C621.152 74.02 621.622 72.4067 622.56 71.116C623.499 69.8253 624.687 68.8867 626.124 68.3C627.591 67.684 629.116 67.376 630.7 67.376ZM631.668 84.536C629.439 84.536 627.723 84.9467 626.52 85.768C625.347 86.56 624.76 87.7333 624.76 89.288C624.76 90.8427 625.362 92.0307 626.564 92.852C627.796 93.6733 629.512 94.084 631.712 94.084H636.684V84.536H631.668ZM668.771 67.816V94.084H682.631L683.247 98H664.459V67.816H668.771ZM702.393 67.816C704.094 67.816 705.634 68.1973 707.013 68.96C708.392 69.7227 709.462 70.7787 710.225 72.128C711.017 73.448 711.413 74.944 711.413 76.616C711.413 78.288 711.017 79.7987 710.225 81.148C709.462 82.468 708.392 83.5093 707.013 84.272C705.634 85.0347 704.094 85.416 702.393 85.416H693.681V98H689.369V67.816H702.393ZM693.681 71.732V81.5H701.997C703.376 81.5 704.564 81.0307 705.561 80.092C706.588 79.124 707.101 77.9653 707.101 76.616C707.101 75.2373 706.588 74.0787 705.561 73.14C704.564 72.2013 703.376 71.732 701.997 71.732H693.681ZM740.064 67.376C742.176 67.376 743.966 67.8013 745.432 68.652C746.899 69.5027 747.999 70.6027 748.732 71.952C749.466 73.3013 749.832 74.724 749.832 76.22C749.832 78.332 749.407 80.0627 748.556 81.412C747.706 82.7613 746.342 84.1547 744.464 85.592L736.06 92.016C735.386 92.4853 734.858 92.9107 734.476 93.292C734.124 93.644 733.948 93.908 733.948 94.084H749.964V98H729.24V96.944C729.24 95.448 729.592 94.0253 730.296 92.676C731.03 91.2973 732.042 90.124 733.332 89.156L742.088 82.556C743.32 81.5587 744.2 80.576 744.728 79.608C745.256 78.64 745.52 77.5693 745.52 76.396C745.52 75.516 745.3 74.6947 744.86 73.932C744.42 73.14 743.775 72.5093 742.924 72.04C742.074 71.5413 741.047 71.292 739.844 71.292C738.612 71.292 737.512 71.556 736.544 72.084C735.606 72.612 734.872 73.316 734.344 74.196C733.816 75.076 733.552 76.044 733.552 77.1V77.716C733.552 77.9507 733.567 78.1267 733.596 78.244H729.284L729.24 77.804V77.452C729.24 75.7507 729.622 74.1373 730.384 72.612C731.147 71.0573 732.335 69.796 733.948 68.828C735.562 67.86 737.6 67.376 740.064 67.376ZM768.323 67.376C770.171 67.376 771.857 67.816 773.383 68.696C774.937 69.576 776.169 70.7933 777.079 72.348C777.988 73.9027 778.443 75.648 778.443 77.584V88.276C778.443 90.1827 778.003 91.9133 777.123 93.468C776.243 94.9933 775.025 96.2107 773.471 97.12C771.945 98 770.229 98.44 768.323 98.44H767.751C765.815 98.44 764.069 98 762.515 97.12C760.989 96.2107 759.801 94.9787 758.951 93.424C758.1 91.8693 757.675 90.1533 757.675 88.276V77.584C757.675 75.6187 758.115 73.8587 758.995 72.304C759.904 70.7493 761.121 69.5467 762.647 68.696C764.172 67.816 765.873 67.376 767.751 67.376H768.323ZM768.059 71.292C766.357 71.292 764.92 71.864 763.747 73.008C762.573 74.1227 761.987 75.5307 761.987 77.232V88.584C761.987 90.2853 762.573 91.708 763.747 92.852C764.92 93.9667 766.357 94.524 768.059 94.524C769.819 94.524 771.271 93.952 772.415 92.808C773.559 91.664 774.131 90.256 774.131 88.584V77.232C774.131 75.56 773.559 74.152 772.415 73.008C771.271 71.864 769.819 71.292 768.059 71.292ZM809.033 67.816L790.729 98H787.649L806.041 67.816H809.033ZM789.893 67.86C791.448 67.86 792.724 68.3733 793.721 69.4C794.718 70.3973 795.217 71.6587 795.217 73.184V77.892C795.217 79.4173 794.704 80.6933 793.677 81.72C792.68 82.7173 791.418 83.216 789.893 83.216H789.585C788.06 83.216 786.784 82.7173 785.757 81.72C784.76 80.6933 784.261 79.4173 784.261 77.892V73.184C784.261 71.6587 784.76 70.3973 785.757 69.4C786.754 68.3733 788.03 67.86 789.585 67.86H789.893ZM789.761 70.28C788.94 70.28 788.28 70.5293 787.781 71.028C787.312 71.4973 787.077 72.1133 787.077 72.876V78.2C787.077 78.9627 787.312 79.5933 787.781 80.092C788.28 80.5613 788.94 80.796 789.761 80.796C790.582 80.796 791.228 80.5613 791.697 80.092C792.166 79.5933 792.401 78.9627 792.401 78.2V72.876C792.401 72.1133 792.166 71.4973 791.697 71.028C791.228 70.5293 790.582 70.28 789.761 70.28ZM807.053 82.688C808.578 82.688 809.84 83.2013 810.837 84.228C811.864 85.2253 812.377 86.4867 812.377 88.012V92.72C812.377 94.2453 811.878 95.5213 810.881 96.548C809.884 97.5453 808.608 98.044 807.053 98.044H806.745C805.19 98.044 803.914 97.5453 802.917 96.548C801.92 95.5213 801.421 94.2453 801.421 92.72V88.012C801.421 86.4867 801.92 85.2253 802.917 84.228C803.944 83.2013 805.22 82.688 806.745 82.688H807.053ZM806.921 85.108C806.1 85.108 805.44 85.3573 804.941 85.856C804.472 86.3253 804.237 86.9413 804.237 87.704V93.028C804.237 93.7907 804.472 94.4213 804.941 94.92C805.44 95.3893 806.1 95.624 806.921 95.624C807.742 95.624 808.388 95.3893 808.857 94.92C809.326 94.4213 809.561 93.7907 809.561 93.028V87.704C809.561 86.9413 809.326 86.3253 808.857 85.856C808.388 85.3573 807.742 85.108 806.921 85.108Z" fill="white"/>
<path d="M442.986 68.96L443.47 68.085L443.47 68.085L442.986 68.96ZM446.198 72.128L445.327 72.6201L445.333 72.6314L445.34 72.6425L446.198 72.128ZM446.198 81.148L445.335 80.6418L445.332 80.6477L446.198 81.148ZM442.986 84.272L443.47 85.147L443.47 85.147L442.986 84.272ZM429.654 85.416V84.416H428.654V85.416H429.654ZM429.654 98V99H430.654V98H429.654ZM425.342 98H424.342V99H425.342V98ZM425.342 67.816V66.816H424.342V67.816H425.342ZM429.654 71.732V70.732H428.654V71.732H429.654ZM429.654 81.5H428.654V82.5H429.654V81.5ZM441.534 80.092L442.219 80.8202L442.22 80.8196L441.534 80.092ZM441.534 73.14L440.848 73.8682L440.853 73.8732L440.859 73.878L441.534 73.14ZM438.366 68.816C439.911 68.816 441.283 69.1608 442.501 69.835L443.47 68.085C441.931 67.2339 440.222 66.816 438.366 66.816V68.816ZM442.501 69.835C443.721 70.5098 444.657 71.4344 445.327 72.6201L447.068 71.6359C446.213 70.1229 445.007 68.9356 443.47 68.085L442.501 69.835ZM445.34 72.6425C446.031 73.7938 446.386 75.1091 446.386 76.616H448.386C448.386 74.7789 447.948 73.1022 447.055 71.6135L445.34 72.6425ZM446.386 76.616C446.386 78.1227 446.031 79.4565 445.335 80.6418L447.06 81.6542C447.948 80.1408 448.386 78.4533 448.386 76.616H446.386ZM445.332 80.6477C444.663 81.805 443.727 82.7191 442.501 83.397L443.47 85.147C445.002 84.2995 446.207 83.131 447.063 81.6483L445.332 80.6477ZM442.501 83.397C441.283 84.0712 439.911 84.416 438.366 84.416V86.416C440.222 86.416 441.931 85.9981 443.47 85.147L442.501 83.397ZM438.366 84.416H429.654V86.416H438.366V84.416ZM428.654 85.416V98H430.654V85.416H428.654ZM429.654 97H425.342V99H429.654V97ZM426.342 98V67.816H424.342V98H426.342ZM425.342 68.816H438.366V66.816H425.342V68.816ZM428.654 71.732V81.5H430.654V71.732H428.654ZM429.654 82.5H437.97V80.5H429.654V82.5ZM437.97 82.5C439.601 82.5 441.035 81.9347 442.219 80.8202L440.848 79.3638C440.038 80.1266 439.095 80.5 437.97 80.5V82.5ZM442.22 80.8196C443.436 79.6724 444.074 78.2546 444.074 76.616H442.074C442.074 77.6761 441.684 78.5756 440.848 79.3644L442.22 80.8196ZM444.074 76.616C444.074 74.9537 443.44 73.5281 442.208 72.402L440.859 73.878C441.68 74.6292 442.074 75.521 442.074 76.616H444.074ZM442.219 72.4118C441.035 71.2973 439.601 70.732 437.97 70.732V72.732C439.095 72.732 440.038 73.1054 440.848 73.8682L442.219 72.4118ZM437.97 70.732H429.654V72.732H437.97V70.732ZM457.947 66.32H458.947V65.32H457.947V66.32ZM457.947 70.148V71.148H458.947V70.148H457.947ZM453.635 70.148H452.635V71.148H453.635V70.148ZM453.635 66.32V65.32H452.635V66.32H453.635ZM457.859 75.516H458.859V74.516H457.859V75.516ZM457.859 98V99H458.859V98H457.859ZM453.723 98H452.723V99H453.723V98ZM453.723 75.516V74.516H452.723V75.516H453.723ZM456.947 66.32V70.148H458.947V66.32H456.947ZM457.947 69.148H453.635V71.148H457.947V69.148ZM454.635 70.148V66.32H452.635V70.148H454.635ZM453.635 67.32H457.947V65.32H453.635V67.32ZM456.859 75.516V98H458.859V75.516H456.859ZM457.859 97H453.723V99H457.859V97ZM454.723 98V75.516H452.723V98H454.723ZM453.723 76.516H457.859V74.516H453.723V76.516ZM483.368 77.056L482.684 77.7855L482.684 77.7855L483.368 77.056ZM485.48 98V99H486.48V98H485.48ZM481.344 98H480.344V99H481.344V98ZM473.644 79.212L473.122 78.3594L473.644 79.212ZM471.444 81.5L472.304 82.0106L472.311 81.999L471.444 81.5ZM470.608 98V99H471.608V98H470.608ZM466.472 98H465.472V99H466.472V98ZM466.472 75.516V74.516H465.472V75.516H466.472ZM469.464 75.516L470.45 75.3452L470.306 74.516H469.464V75.516ZM470.036 78.816L469.051 78.9868L469.445 81.2631L470.835 79.4175L470.036 78.816ZM477.56 76.076C479.843 76.076 481.509 76.6835 482.684 77.7855L484.052 76.3265C482.412 74.7885 480.205 74.076 477.56 74.076V76.076ZM482.684 77.7855C483.831 78.861 484.48 80.4952 484.48 82.864H486.48C486.48 80.1288 485.721 77.891 484.052 76.3265L482.684 77.7855ZM484.48 82.864V98H486.48V82.864H484.48ZM485.48 97H481.344V99H485.48V97ZM482.344 98V83.612H480.344V98H482.344ZM482.344 83.612C482.344 81.7352 481.92 80.141 480.897 79.0129C479.856 77.8665 478.357 77.376 476.592 77.376V79.376C477.996 79.376 478.872 79.7582 479.416 80.3571C479.976 80.9744 480.344 81.9981 480.344 83.612H482.344ZM476.592 77.376C475.35 77.376 474.187 77.7067 473.122 78.3594L474.167 80.0646C474.921 79.6026 475.723 79.376 476.592 79.376V77.376ZM473.122 78.3594C472.063 79.0082 471.214 79.8954 470.578 81.001L472.311 81.999C472.789 81.1686 473.407 80.5305 474.167 80.0646L473.122 78.3594ZM470.584 80.9895C469.931 82.0902 469.608 83.3093 469.608 84.624H471.608C471.608 83.6507 471.843 82.7872 472.304 82.0105L470.584 80.9895ZM469.608 84.624V98H471.608V84.624H469.608ZM470.608 97H466.472V99H470.608V97ZM467.472 98V75.516H465.472V98H467.472ZM466.472 76.516H469.464V74.516H466.472V76.516ZM468.479 75.6868L469.051 78.9868L471.022 78.6452L470.45 75.3452L468.479 75.6868ZM470.835 79.4175C472.522 77.1768 474.734 76.076 477.56 76.076V74.076C474.11 74.076 471.305 75.4686 469.237 78.2145L470.835 79.4175ZM498.01 66.32H499.01V65.32H498.01V66.32ZM498.01 88.056H497.01V90.9068L498.791 88.6807L498.01 88.056ZM508.042 75.516V74.516H507.562L507.261 74.8913L508.042 75.516ZM512.574 75.516L513.357 76.138L514.646 74.516H512.574V75.516ZM503.906 86.428L503.123 85.806L502.628 86.4296L503.125 87.052L503.906 86.428ZM513.146 98V99H515.224L513.928 97.376L513.146 98ZM508.13 98L507.351 98.6272L507.652 99H508.13V98ZM501.398 89.64L502.177 89.0128L501.465 88.1286L500.678 88.9465L501.398 89.64ZM498.01 93.16L497.29 92.4665L497.01 92.7569V93.16H498.01ZM498.01 98V99H499.01V98H498.01ZM493.874 98H492.874V99H493.874V98ZM493.874 66.32V65.32H492.874V66.32H493.874ZM497.01 66.32V88.056H499.01V66.32H497.01ZM498.791 88.6807L508.823 76.1407L507.261 74.8913L497.229 87.4313L498.791 88.6807ZM508.042 76.516H512.574V74.516H508.042V76.516ZM511.791 74.894L503.123 85.806L504.689 87.05L513.357 76.138L511.791 74.894ZM503.125 87.052L512.365 98.624L513.928 97.376L504.688 85.804L503.125 87.052ZM513.146 97H508.13V99H513.146V97ZM508.909 97.3728L502.177 89.0128L500.619 90.2672L507.351 98.6272L508.909 97.3728ZM500.678 88.9465L497.29 92.4665L498.731 93.8535L502.119 90.3335L500.678 88.9465ZM497.01 93.16V98H499.01V93.16H497.01ZM498.01 97H493.874V99H498.01V97ZM494.874 98V66.32H492.874V98H494.874ZM493.874 67.32H498.01V65.32H493.874V67.32ZM531.765 75.868L531.386 76.7936L531.394 76.7965L531.765 75.868ZM534.801 78.068L534.001 78.668L534.007 78.6759L534.013 78.6836L534.801 78.068ZM535.901 81.192L536.9 81.2475L536.901 81.2198V81.192H535.901ZM535.857 81.984V82.984H536.803L536.856 82.0395L535.857 81.984ZM531.765 81.984H530.765V82.984H531.765V81.984ZM523.273 83.348L522.849 84.2535L522.86 84.259L522.872 84.2642L523.273 83.348ZM527.585 84.536L527.787 83.5566L527.778 83.5549L527.585 84.536ZM532.117 85.724L531.787 86.6679L531.794 86.6703L532.117 85.724ZM535.153 87.66L534.422 88.3423L534.428 88.3487L534.434 88.355L535.153 87.66ZM533.965 96.636L534.556 97.4429L533.965 96.636ZM521.381 97.604L520.99 98.5242L520.998 98.5277L521.006 98.5311L521.381 97.604ZM518.169 95.272L517.363 95.8644L517.373 95.8778L517.384 95.8909L518.169 95.272ZM517.113 91.928L518.113 91.9518L518.113 91.9399V91.928H517.113ZM517.113 90.96V89.96H516.113V90.96H517.113ZM521.205 90.96H522.205V89.96H521.205V90.96ZM530.797 94.304L530.309 93.431L530.298 93.4374L530.797 94.304ZM531.457 90.08L530.793 90.8274L530.803 90.8363L530.813 90.8449L531.457 90.08ZM529.477 89.024L529.761 88.0652L529.761 88.0652L529.477 89.024ZM526.177 88.32L525.987 89.3018L526 89.3043L526.013 89.3064L526.177 88.32ZM521.777 87.264L521.453 88.2102L521.465 88.214L521.476 88.2176L521.777 87.264ZM518.917 85.372L518.174 86.041L518.917 85.372ZM520.193 76.88L520.774 77.6938L520.784 77.6869L520.193 76.88ZM527.321 76.076C528.889 76.076 530.237 76.3235 531.387 76.7935L532.144 74.9425C530.712 74.3565 529.098 74.076 527.321 74.076V76.076ZM531.394 76.7965C532.58 77.2708 533.428 77.9044 534.001 78.668L535.601 77.468C534.766 76.3543 533.591 75.5212 532.137 74.9395L531.394 76.7965ZM534.013 78.6836C534.615 79.4543 534.901 80.2808 534.901 81.192H536.901C536.901 79.8152 536.454 78.559 535.589 77.4524L534.013 78.6836ZM534.903 81.1365L534.859 81.9285L536.856 82.0395L536.9 81.2475L534.903 81.1365ZM535.857 80.984H531.765V82.984H535.857V80.984ZM532.765 81.984V81.588H530.765V81.984H532.765ZM532.765 81.588C532.765 80.2123 532.206 79.0765 531.065 78.339C529.998 77.6501 528.526 77.376 526.793 77.376V79.376C528.375 79.376 529.389 79.6373 529.98 80.019C530.495 80.3521 530.765 80.8223 530.765 81.588H532.765ZM526.793 77.376C525.083 77.376 523.635 77.6259 522.584 78.2548C521.451 78.9326 520.865 80.0011 520.865 81.324H522.865C522.865 80.6815 523.101 80.2761 523.611 79.9712C524.202 79.6175 525.218 79.376 526.793 79.376V77.376ZM520.865 81.324C520.865 81.9601 521.033 82.5604 521.396 83.0831C521.754 83.5979 522.261 83.978 522.849 84.2535L523.698 82.4425C523.346 82.278 523.149 82.1007 523.038 81.9409C522.932 81.7889 522.865 81.5972 522.865 81.324H520.865ZM522.872 84.2642C523.913 84.7196 525.437 85.1321 527.392 85.5171L527.778 83.5549C525.861 83.1772 524.51 82.7977 523.674 82.4318L522.872 84.2642ZM527.383 85.5154C529.207 85.8918 530.671 86.2773 531.787 86.6679L532.447 84.7801C531.217 84.3494 529.659 83.9429 527.787 83.5566L527.383 85.5154ZM531.794 86.6703C532.85 87.0309 533.719 87.5893 534.422 88.3423L535.884 86.9777C534.944 85.9707 533.79 85.2384 532.44 84.7776L531.794 86.6703ZM534.434 88.355C535.066 89.0089 535.429 89.9263 535.429 91.224H537.429C537.429 89.5297 536.941 88.0711 535.872 86.965L534.434 88.355ZM535.429 91.224C535.429 93.3762 534.711 94.8505 533.374 95.8291L534.556 97.4429C536.505 96.0162 537.429 93.8825 537.429 91.224H535.429ZM533.374 95.8291C531.971 96.8568 529.852 97.44 526.881 97.44V99.44C530.071 99.44 532.674 98.8206 534.556 97.4429L533.374 95.8291ZM526.881 97.44H526.221V99.44H526.881V97.44ZM526.221 97.44C524.471 97.44 522.99 97.1759 521.756 96.6769L521.006 98.5311C522.529 99.1467 524.275 99.44 526.221 99.44V97.44ZM521.773 96.6838C520.515 96.1489 519.593 95.4636 518.955 94.6531L517.384 95.8909C518.27 97.0164 519.489 97.8858 520.99 98.5242L521.773 96.6838ZM518.975 94.6796C518.372 93.8597 518.089 92.9615 518.113 91.9518L516.113 91.9042C516.079 93.3585 516.5 94.6897 517.363 95.8644L518.975 94.6796ZM518.113 91.928V90.96H516.113V91.928H518.113ZM517.113 91.96H521.205V89.96H517.113V91.96ZM520.205 90.96V91.4H522.205V90.96H520.205ZM520.205 91.4C520.205 92.9899 520.907 94.2562 522.267 95.0646C523.545 95.8243 525.333 96.14 527.497 96.14V94.14C525.466 94.14 524.108 93.8324 523.289 93.3454C522.552 92.9071 522.205 92.3034 522.205 91.4H520.205ZM527.497 96.14C528.886 96.14 530.161 95.8241 531.296 95.1706L530.298 93.4374C529.497 93.8985 528.573 94.14 527.497 94.14V96.14ZM531.285 95.1769C532.53 94.4809 533.293 93.4181 533.293 92.016H531.293C531.293 92.5499 531.058 93.0124 530.309 93.4311L531.285 95.1769ZM533.293 92.016C533.293 90.9418 532.915 90 532.101 89.3151L530.813 90.8449C531.114 91.0987 531.293 91.4475 531.293 92.016H533.293ZM532.122 89.3326C531.467 88.7506 530.67 88.3346 529.761 88.0652L529.193 89.9828C529.868 90.1828 530.392 90.4708 530.793 90.8274L532.122 89.3326ZM529.761 88.0652C528.912 87.8135 527.765 87.5709 526.342 87.3336L526.013 89.3064C527.405 89.5384 528.459 89.7652 529.193 89.9828L529.761 88.0652ZM526.367 87.3382C524.567 86.9898 523.142 86.6463 522.078 86.3104L521.476 88.2176C522.642 88.5857 524.15 88.9462 525.987 89.3018L526.367 87.3382ZM522.101 86.3178C521.148 85.9919 520.339 85.4571 519.66 84.703L518.174 86.041C519.079 87.0469 520.177 87.7734 521.453 88.2102L522.101 86.3178ZM519.66 84.703C519.077 84.0547 518.729 83.1156 518.729 81.764H516.729C516.729 83.4631 517.173 84.9293 518.174 86.041L519.66 84.703ZM518.729 81.764C518.729 79.9922 519.404 78.6724 520.774 77.6937L519.612 76.0663C517.697 77.4343 516.729 79.3705 516.729 81.764H518.729ZM520.784 77.6869C522.199 76.6508 524.21 76.076 526.925 76.076V74.076C523.95 74.076 521.473 74.7038 519.602 76.0731L520.784 77.6869ZM526.925 76.076H527.321V74.076H526.925V76.076ZM559.009 76.836L558.377 77.6107L558.384 77.6169L559.009 76.836ZM561.561 94.788L560.814 95.4524L560.833 95.4743L560.854 95.4951L561.561 94.788ZM564.465 94.524H565.465V92.7446L563.945 93.6698L564.465 94.524ZM564.465 97.56L564.972 98.4219L565.465 98.1319V97.56H564.465ZM558.261 97.384L557.495 98.0272L557.502 98.0349L557.508 98.0425L558.261 97.384ZM557.249 94.392L558.248 94.3455L558.108 91.3286L556.42 93.8331L557.249 94.392ZM543.829 96.856L543.159 97.5984L543.169 97.6069L543.178 97.6153L543.829 96.856ZM543.433 87.484L544.171 88.1588L544.18 88.1484L543.433 87.484ZM548.097 85.196L547.886 84.2186L547.886 84.2186L548.097 85.196ZM557.073 84.492V85.492H558.073V84.492H557.073ZM555.753 79.3L555.18 80.1192L555.189 80.1257L555.198 80.1321L555.753 79.3ZM548.229 79.3L547.656 78.4808L548.229 79.3ZM546.909 82.424V83.424H547.909V82.424H546.909ZM542.861 82.424L541.871 82.5654L541.994 83.424H542.861V82.424ZM544.005 78.068L544.747 78.7383L544.747 78.7383L544.005 78.068ZM547.349 75.912L547.7 76.8483L547.709 76.8451L547.717 76.8418L547.349 75.912ZM557.073 87.704H558.073V86.704H557.073V87.704ZM550.077 88.188L550.262 89.1707L550.27 89.1693L550.277 89.1679L550.077 88.188ZM546.953 89.552L547.712 90.2028L547.712 90.2028L546.953 89.552ZM553.861 94.348L554.34 95.2259L554.35 95.2204L554.36 95.2146L553.861 94.348ZM556.193 92.016L555.331 91.509L555.331 91.509L556.193 92.016ZM552.409 76.076C555.27 76.076 557.197 76.6477 558.377 77.6107L559.641 76.0613C557.946 74.6776 555.473 74.076 552.409 74.076V76.076ZM558.384 77.6169C559.568 78.5641 560.209 79.9511 560.209 81.94H562.209C562.209 79.4702 561.383 77.4545 559.634 76.0551L558.384 77.6169ZM560.209 81.94V93.6H562.209V81.94H560.209ZM560.209 93.6C560.209 94.255 560.352 94.9331 560.814 95.4524L562.308 94.1236C562.301 94.1149 562.209 94.001 562.209 93.6H560.209ZM560.854 95.4951C561.288 95.9296 561.842 96.14 562.441 96.14V94.14C562.336 94.14 562.303 94.1158 562.268 94.0809L560.854 95.4951ZM562.441 96.14C563.328 96.14 564.181 95.8677 564.985 95.3782L563.945 93.6698C563.4 94.0016 562.903 94.14 562.441 94.14V96.14ZM563.465 94.524V97.56H565.465V94.524H563.465ZM563.958 96.6981C563.128 97.1863 562.177 97.44 561.077 97.44V99.44C562.5 99.44 563.807 99.107 564.972 98.4219L563.958 96.6981ZM561.077 97.44C559.998 97.44 559.38 97.144 559.014 96.7255L557.508 98.0425C558.374 99.032 559.633 99.44 561.077 99.44V97.44ZM559.027 96.7408C558.591 96.222 558.3 95.4575 558.248 94.3455L556.25 94.4385C556.316 95.8492 556.699 97.0793 557.495 98.0272L559.027 96.7408ZM556.42 93.8331C554.799 96.2385 552.494 97.44 549.373 97.44V99.44C553.116 99.44 556.062 97.9428 558.078 94.9509L556.42 93.8331ZM549.373 97.44C547.029 97.44 545.457 96.9344 544.48 96.0967L543.178 97.6153C544.665 98.8896 546.789 99.44 549.373 99.44V97.44ZM544.499 96.1136C543.584 95.2878 543.025 93.911 543.025 91.752H541.025C541.025 94.2277 541.669 96.2535 543.159 97.5984L544.499 96.1136ZM543.025 91.752C543.025 90.1043 543.447 88.9502 544.171 88.1588L542.695 86.8092C541.541 88.0711 541.025 89.7624 541.025 91.752H543.025ZM544.18 88.1484C544.918 87.3184 546.235 86.6218 548.308 86.1734L547.886 84.2186C545.618 84.7089 543.825 85.5376 542.686 86.8196L544.18 88.1484ZM548.308 86.1734C550.378 85.726 553.288 85.492 557.073 85.492V83.492C553.231 83.492 550.158 83.7273 547.886 84.2186L548.308 86.1734ZM558.073 84.492V82.424H556.073V84.492H558.073ZM558.073 82.424C558.073 80.7439 557.571 79.3103 556.308 78.4679L555.198 80.1321C555.695 80.4631 556.073 81.1121 556.073 82.424H558.073ZM556.327 78.4808C555.209 77.6982 553.696 77.376 551.925 77.376V79.376C553.498 79.376 554.538 79.6698 555.18 80.1192L556.327 78.4808ZM551.925 77.376C550.228 77.376 548.766 77.7034 547.656 78.4808L548.803 80.1192C549.452 79.6646 550.454 79.376 551.925 79.376V77.376ZM547.656 78.4808C546.497 79.2921 545.909 80.4696 545.909 81.896H547.909C547.909 81.093 548.202 80.5399 548.803 80.1192L547.656 78.4808ZM545.909 81.896V82.424H547.909V81.896H545.909ZM546.909 81.424H542.861V83.424H546.909V81.424ZM543.851 82.2826C543.801 81.9315 543.773 81.497 543.773 80.972H541.773C541.773 81.5617 541.804 82.0951 541.871 82.5654L543.851 82.2826ZM543.773 80.972C543.773 80.2393 544.058 79.5014 544.747 78.7383L543.263 77.3977C542.31 78.4533 541.773 79.6513 541.773 80.972H543.773ZM544.747 78.7383C545.44 77.9716 546.408 77.3327 547.7 76.8483L546.998 74.9757C545.474 75.5472 544.213 76.3457 543.263 77.3977L544.747 78.7383ZM547.717 76.8418C548.994 76.3362 550.422 76.076 552.013 76.076V74.076C550.201 74.076 548.52 74.3731 546.981 74.9822L547.717 76.8418ZM552.013 76.076H552.409V74.076H552.013V76.076ZM557.073 86.704C553.975 86.704 551.562 86.865 549.877 87.2081L550.277 89.1679C551.76 88.8657 554.011 88.704 557.073 88.704V86.704ZM549.892 87.2053C548.295 87.5066 546.957 88.0113 546.194 88.9012L547.712 90.2028C548.006 89.8607 548.75 89.456 550.262 89.1707L549.892 87.2053ZM546.194 88.9012C545.465 89.7519 545.161 90.8613 545.161 92.104H547.161C547.161 91.176 547.385 90.5841 547.712 90.2028L546.194 88.9012ZM545.161 92.104C545.161 93.4135 545.684 94.5053 546.767 95.2167C547.776 95.88 549.163 96.14 550.781 96.14V94.14C549.319 94.14 548.396 93.894 547.865 93.5453C547.408 93.2447 547.161 92.8185 547.161 92.104H545.161ZM550.781 96.14C552.036 96.14 553.227 95.8327 554.34 95.2259L553.382 93.4701C552.559 93.9193 551.696 94.14 550.781 94.14V96.14ZM554.36 95.2146C555.484 94.5677 556.384 93.664 557.055 92.523L555.331 91.509C554.829 92.3626 554.174 93.0136 553.362 93.4814L554.36 95.2146ZM557.055 92.523C557.742 91.3548 558.073 90.0319 558.073 88.584H556.073C556.073 89.7175 555.817 90.6825 555.331 91.509L557.055 92.523ZM558.073 88.584V87.704H556.073V88.584H558.073ZM574.935 66.32H575.935V65.32H574.935V66.32ZM574.935 98V99H575.935V98H574.935ZM570.799 98H569.799V99H570.799V98ZM570.799 66.32V65.32H569.799V66.32H570.799ZM573.935 66.32V98H575.935V66.32H573.935ZM574.935 97H570.799V99H574.935V97ZM571.799 98V66.32H569.799V98H571.799ZM570.799 67.32H574.935V65.32H570.799V67.32ZM597.621 76.264L597.131 77.1356L597.141 77.1416L597.152 77.1473L597.621 76.264ZM600.965 79.564L601.841 79.0814L601.841 79.0814L600.965 79.564ZM602.153 87.704V88.704H603.153V87.704H602.153ZM586.445 87.704V86.704H585.42L585.445 87.7287L586.445 87.704ZM588.117 93.204L588.891 92.5708L588.891 92.5708L588.117 93.204ZM596.917 93.512L597.694 94.1418L597.694 94.1418L596.917 93.512ZM598.237 89.64V88.64H597.237V89.64H598.237ZM602.153 89.64H603.153V88.64H602.153V89.64ZM600.921 94.26L600.072 93.7317L600.067 93.7386L600.063 93.7455L600.921 94.26ZM597.577 97.34L597.122 96.4492L597.115 96.4531L597.577 97.34ZM585.037 95.404L584.288 96.067L584.293 96.0727L584.298 96.0783L585.037 95.404ZM583.541 80.444L582.64 80.0093L582.64 80.0093L583.541 80.444ZM588.425 79.916L587.728 79.1989L587.718 79.2089L588.425 79.916ZM586.533 84.492L585.539 84.3768L585.41 85.492H586.533V84.492ZM598.061 84.492V85.492H599.061V84.492H598.061ZM596.521 79.916L595.803 80.6128L595.809 80.618L595.814 80.6231L596.521 79.916ZM592.737 76.076C594.438 76.076 595.893 76.4393 597.131 77.1356L598.111 75.3924C596.533 74.5047 594.731 74.076 592.737 74.076V76.076ZM597.152 77.1473C598.416 77.818 599.39 78.778 600.089 80.0466L601.841 79.0814C600.956 77.4753 599.7 76.2353 598.089 75.3807L597.152 77.1473ZM600.089 80.0466C600.787 81.3138 601.153 82.8146 601.153 84.58H603.153C603.153 82.5321 602.726 80.6889 601.841 79.0814L600.089 80.0466ZM601.153 84.58V87.704H603.153V84.58H601.153ZM602.153 86.704H586.445V88.704H602.153V86.704ZM585.445 87.7287C585.507 90.235 586.097 92.3147 587.343 93.8372L588.891 92.5708C588.024 91.512 587.5 89.925 587.444 87.6793L585.445 87.7287ZM587.343 93.8372C588.635 95.4165 590.524 96.14 592.825 96.14V94.14C590.96 94.14 589.711 93.5728 588.891 92.5708L587.343 93.8372ZM592.825 96.14C594.87 96.14 596.566 95.5318 597.694 94.1418L596.14 92.8822C595.507 93.6628 594.476 94.14 592.825 94.14V96.14ZM597.694 94.1418C598.729 92.8653 599.237 91.3479 599.237 89.64H597.237C597.237 90.9241 596.865 91.9881 596.14 92.8822L597.694 94.1418ZM598.237 90.64H602.153V88.64H598.237V90.64ZM601.153 89.64C601.153 91.2386 600.782 92.5904 600.072 93.7317L601.77 94.7883C602.702 93.2896 603.153 91.5614 603.153 89.64H601.153ZM600.063 93.7455C599.372 94.8969 598.401 95.7968 597.122 96.4492L598.031 98.2308C599.627 97.4166 600.885 96.2631 601.778 94.7745L600.063 93.7455ZM597.115 96.4531C595.869 97.102 594.418 97.44 592.737 97.44V99.44C594.693 99.44 596.469 99.0447 598.039 98.2269L597.115 96.4531ZM592.737 97.44H592.561V99.44H592.737V97.44ZM592.561 97.44C589.626 97.44 587.404 96.5132 585.775 94.7297L584.298 96.0783C586.366 98.3428 589.16 99.44 592.561 99.44V97.44ZM585.785 94.741C584.165 92.9116 583.309 90.4395 583.309 87.22H581.309C581.309 90.8059 582.271 93.7897 584.288 96.067L585.785 94.741ZM583.309 87.22V86.34H581.309V87.22H583.309ZM583.309 86.34C583.309 84.2343 583.696 82.4222 584.441 80.8787L582.64 80.0093C581.743 81.8685 581.309 83.987 581.309 86.34H583.309ZM584.441 80.8787C585.184 79.3396 586.231 78.1686 587.585 77.3357L586.537 75.6323C584.839 76.6768 583.54 78.1457 582.64 80.0093L584.441 80.8787ZM587.585 77.3357C588.931 76.5075 590.533 76.076 592.429 76.076V74.076C590.218 74.076 588.242 74.5831 586.537 75.6323L587.585 77.3357ZM592.429 76.076H592.737V74.076H592.429V76.076ZM592.517 77.376C590.623 77.376 588.996 77.9659 587.728 79.199L589.122 80.633C589.966 79.8128 591.067 79.376 592.517 79.376V77.376ZM587.718 79.2089C586.478 80.4483 585.79 82.2175 585.539 84.3768L587.526 84.6072C587.745 82.7185 588.318 81.437 589.132 80.6231L587.718 79.2089ZM586.533 85.492H598.061V83.492H586.533V85.492ZM599.061 84.492V83.964H597.061V84.492H599.061ZM599.061 83.964C599.061 82.0704 598.471 80.4518 597.228 79.2089L595.814 80.6231C596.624 81.4335 597.061 82.5136 597.061 83.964H599.061ZM597.238 79.2192C596.021 77.966 594.41 77.376 592.517 77.376V79.376C593.968 79.376 595.026 79.8127 595.803 80.6128L597.238 79.2192ZM633.78 67.684H634.78V66.8846L634 66.7086L633.78 67.684ZM633.78 71.688L633.474 72.64L634.78 73.0598V71.688H633.78ZM627.004 72.524L627.604 73.324L627.608 73.3214L627.004 72.524ZM627.092 79.3L626.46 80.0749L626.471 80.0839L626.482 80.0926L627.092 79.3ZM636.772 80.62V81.62H637.595L637.754 80.8122L636.772 80.62ZM638.004 74.328V73.328H637.181L637.023 74.1358L638.004 74.328ZM640.996 74.328H641.996V73.328H640.996V74.328ZM640.996 80.62H639.996V81.62H640.996V80.62ZM645.748 80.62H646.748V79.62H645.748V80.62ZM645.748 84.536V85.536H646.748V84.536H645.748ZM640.996 84.536V83.536H639.996V84.536H640.996ZM640.996 98V99H641.996V98H640.996ZM623.352 95.8L622.741 96.5913L622.747 96.5964L622.754 96.6014L623.352 95.8ZM625.992 82.424L626.274 83.3835L626.42 83.3406L626.547 83.256L625.992 82.424ZM626.124 82.336L626.679 83.168L628.194 82.158L626.529 81.4215L626.124 82.336ZM622.472 79.74L621.704 80.3802L621.709 80.3864L621.714 80.3925L622.472 79.74ZM622.56 71.116L623.369 71.7042L623.369 71.7042L622.56 71.116ZM626.124 68.3L626.502 69.2259L626.511 69.222L626.124 68.3ZM626.52 85.768L627.08 86.5969L627.084 86.5938L626.52 85.768ZM626.564 92.852L626 93.6779L626.009 93.684L626.564 92.852ZM636.684 94.084V95.084H637.684V94.084H636.684ZM636.684 84.536H637.684V83.536H636.684V84.536ZM630.7 68.376C631.786 68.376 632.737 68.4736 633.56 68.6594L634 66.7086C633.005 66.4837 631.902 66.376 630.7 66.376V68.376ZM632.78 67.684V71.688H634.78V67.684H632.78ZM634.086 70.736C633.171 70.4418 632.247 70.292 631.316 70.292V72.292C632.029 72.292 632.747 72.4062 633.474 72.64L634.086 70.736ZM631.316 70.292C629.377 70.292 627.707 70.7377 626.401 71.7266L627.608 73.3214C628.472 72.6676 629.676 72.292 631.316 72.292V70.292ZM626.404 71.724C625.072 72.7235 624.42 74.1483 624.42 75.868H626.42C626.42 74.713 626.825 73.9085 627.604 73.324L626.404 71.724ZM624.42 75.868C624.42 77.5618 625.124 78.9851 626.46 80.0749L627.724 78.5251C626.831 77.7962 626.42 76.9315 626.42 75.868H624.42ZM626.482 80.0926C627.831 81.1301 629.479 81.62 631.36 81.62V79.62C629.838 79.62 628.641 79.2299 627.702 78.5074L626.482 80.0926ZM631.36 81.62H636.772V79.62H631.36V81.62ZM637.754 80.8122L638.986 74.5202L637.023 74.1358L635.791 80.4278L637.754 80.8122ZM638.004 75.328H640.996V73.328H638.004V75.328ZM639.996 74.328V80.62H641.996V74.328H639.996ZM640.996 81.62H645.748V79.62H640.996V81.62ZM644.748 80.62V84.536H646.748V80.62H644.748ZM645.748 83.536H640.996V85.536H645.748V83.536ZM639.996 84.536V98H641.996V84.536H639.996ZM640.996 97H631.096V99H640.996V97ZM631.096 97C628.049 97 625.697 96.302 623.95 94.9986L622.754 96.6014C624.938 98.2313 627.749 99 631.096 99V97ZM623.964 95.0087C622.3 93.7234 621.448 91.9336 621.448 89.508H619.448C619.448 92.4798 620.532 94.8846 622.741 96.5913L623.964 95.0087ZM621.448 89.508C621.448 87.8637 621.863 86.595 622.622 85.6253C623.385 84.6503 624.569 83.8841 626.274 83.3835L625.71 81.4645C623.719 82.0492 622.132 83.0063 621.047 84.3927C619.958 85.7844 619.448 87.515 619.448 89.508H621.448ZM626.547 83.256L626.679 83.168L625.569 81.504L625.437 81.592L626.547 83.256ZM626.529 81.4215C625.113 80.7952 624.025 80.011 623.23 79.0875L621.714 80.3925C622.738 81.581 624.085 82.5275 625.72 83.2505L626.529 81.4215ZM623.24 79.0998C622.521 78.2361 622.152 77.2056 622.152 75.956H620.152C620.152 77.6397 620.664 79.1319 621.704 80.3802L623.24 79.0998ZM622.152 75.956C622.152 74.1853 622.579 72.7901 623.369 71.7042L621.751 70.5278C620.664 72.0232 620.152 73.8546 620.152 75.956H622.152ZM623.369 71.7042C624.201 70.5595 625.242 69.7402 626.502 69.2258L625.746 67.3742C624.132 68.0332 622.796 69.0912 621.751 70.5278L623.369 71.7042ZM626.511 69.222C627.856 68.6572 629.25 68.376 630.7 68.376V66.376C628.983 66.376 627.326 66.7107 625.737 67.378L626.511 69.222ZM631.668 83.536C629.337 83.536 627.392 83.9618 625.956 84.9422L627.084 86.5938C628.054 85.9315 629.54 85.536 631.668 85.536V83.536ZM625.961 84.9392C624.482 85.9376 623.76 87.4395 623.76 89.288H625.76C625.76 88.0272 626.212 87.1824 627.08 86.5968L625.961 84.9392ZM623.76 89.288C623.76 91.1467 624.504 92.6557 626 93.6778L627.128 92.0262C626.219 91.4056 625.76 90.5387 625.76 89.288H623.76ZM626.009 93.684C627.468 94.6561 629.405 95.084 631.712 95.084V93.084C629.619 93.084 628.125 92.6906 627.119 92.0199L626.009 93.684ZM631.712 95.084H636.684V93.084H631.712V95.084ZM637.684 94.084V84.536H635.684V94.084H637.684ZM636.684 83.536H631.668V85.536H636.684V83.536ZM668.771 67.816H669.771V66.816H668.771V67.816ZM668.771 94.084H667.771V95.084H668.771V94.084ZM682.631 94.084L683.619 93.9286L683.486 93.084H682.631V94.084ZM683.247 98V99H684.417L684.235 97.8446L683.247 98ZM664.459 98H663.459V99H664.459V98ZM664.459 67.816V66.816H663.459V67.816H664.459ZM667.771 67.816V94.084H669.771V67.816H667.771ZM668.771 95.084H682.631V93.084H668.771V95.084ZM681.643 94.2394L682.259 98.1554L684.235 97.8446L683.619 93.9286L681.643 94.2394ZM683.247 97H664.459V99H683.247V97ZM665.459 98V67.816H663.459V98H665.459ZM664.459 68.816H668.771V66.816H664.459V68.816ZM707.013 68.96L707.497 68.085L707.497 68.085L707.013 68.96ZM710.225 72.128L709.354 72.6201L709.361 72.6314L709.368 72.6425L710.225 72.128ZM710.225 81.148L709.363 80.6418L709.359 80.6477L710.225 81.148ZM707.013 84.272L707.497 85.147L707.497 85.147L707.013 84.272ZM693.681 85.416V84.416H692.681V85.416H693.681ZM693.681 98V99H694.681V98H693.681ZM689.369 98H688.369V99H689.369V98ZM689.369 67.816V66.816H688.369V67.816H689.369ZM693.681 71.732V70.732H692.681V71.732H693.681ZM693.681 81.5H692.681V82.5H693.681V81.5ZM705.561 80.092L706.246 80.8202L706.247 80.8196L705.561 80.092ZM705.561 73.14L704.876 73.8682L704.881 73.8732L704.886 73.878L705.561 73.14ZM702.393 68.816C703.939 68.816 705.31 69.1608 706.529 69.835L707.497 68.085C705.959 67.2339 704.25 66.816 702.393 66.816V68.816ZM706.529 69.835C707.749 70.5098 708.684 71.4344 709.354 72.6201L711.096 71.6359C710.24 70.1229 709.035 68.9356 707.497 68.085L706.529 69.835ZM709.368 72.6425C710.058 73.7938 710.413 75.1091 710.413 76.616H712.413C712.413 74.7789 711.976 73.1022 711.083 71.6135L709.368 72.6425ZM710.413 76.616C710.413 78.1227 710.058 79.4565 709.363 80.6418L711.087 81.6542C711.976 80.1408 712.413 78.4533 712.413 76.616H710.413ZM709.359 80.6477C708.69 81.805 707.754 82.7191 706.529 83.397L707.497 85.147C709.029 84.2995 710.234 83.131 711.091 81.6483L709.359 80.6477ZM706.529 83.397C705.31 84.0712 703.939 84.416 702.393 84.416V86.416C704.25 86.416 705.959 85.9981 707.497 85.147L706.529 83.397ZM702.393 84.416H693.681V86.416H702.393V84.416ZM692.681 85.416V98H694.681V85.416H692.681ZM693.681 97H689.369V99H693.681V97ZM690.369 98V67.816H688.369V98H690.369ZM689.369 68.816H702.393V66.816H689.369V68.816ZM692.681 71.732V81.5H694.681V71.732H692.681ZM693.681 82.5H701.997V80.5H693.681V82.5ZM701.997 82.5C703.629 82.5 705.062 81.9347 706.246 80.8202L704.876 79.3638C704.065 80.1266 703.123 80.5 701.997 80.5V82.5ZM706.247 80.8196C707.464 79.6724 708.101 78.2546 708.101 76.616H706.101C706.101 77.6761 705.712 78.5756 704.875 79.3644L706.247 80.8196ZM708.101 76.616C708.101 74.9537 707.468 73.5281 706.236 72.402L704.886 73.878C705.708 74.6292 706.101 75.521 706.101 76.616H708.101ZM706.246 72.4118C705.062 71.2973 703.629 70.732 701.997 70.732V72.732C703.123 72.732 704.065 73.1054 704.876 73.8682L706.246 72.4118ZM701.997 70.732H693.681V72.732H701.997V70.732ZM745.432 68.652L745.934 67.787L745.934 67.787L745.432 68.652ZM748.732 71.952L747.854 72.4295L747.854 72.4295L748.732 71.952ZM748.556 81.412L747.71 80.8787L747.71 80.8787L748.556 81.412ZM744.464 85.592L745.072 86.3865L745.072 86.386L744.464 85.592ZM736.06 92.016L736.631 92.8369L736.65 92.8241L736.668 92.8105L736.06 92.016ZM734.476 93.292L735.183 93.9991L735.183 93.9991L734.476 93.292ZM733.948 94.084H732.948V95.084H733.948V94.084ZM749.964 94.084H750.964V93.084H749.964V94.084ZM749.964 98V99H750.964V98H749.964ZM729.24 98H728.24V99H729.24V98ZM730.296 92.676L729.413 92.2064L729.41 92.2134L730.296 92.676ZM733.332 89.156L733.932 89.956L733.934 89.9546L733.332 89.156ZM742.088 82.556L742.69 83.3546L742.704 83.3441L742.717 83.3332L742.088 82.556ZM744.728 79.608L745.606 80.0869L745.606 80.0869L744.728 79.608ZM744.86 73.932L743.986 74.4176L743.99 74.4247L743.994 74.4317L744.86 73.932ZM742.924 72.04L742.419 72.9027L742.43 72.9093L742.441 72.9156L742.924 72.04ZM736.544 72.084L736.065 71.206L736.054 71.2124L736.544 72.084ZM734.344 74.196L735.202 74.7105L735.202 74.7105L734.344 74.196ZM733.596 78.244V79.244H734.877L734.566 78.0015L733.596 78.244ZM729.284 78.244L728.289 78.3435L728.379 79.244H729.284V78.244ZM729.24 77.804H728.24V77.8539L728.245 77.9035L729.24 77.804ZM730.384 72.612L731.279 73.0592L731.282 73.0524L730.384 72.612ZM733.948 68.828L733.434 67.9705L733.434 67.9705L733.948 68.828ZM740.064 68.376C742.043 68.376 743.65 68.774 744.931 69.517L745.934 67.787C744.282 66.8286 742.31 66.376 740.064 66.376V68.376ZM744.931 69.517C746.255 70.2855 747.217 71.258 747.854 72.4295L749.611 71.4745C748.781 69.9474 747.542 68.7199 745.934 67.787L744.931 69.517ZM747.854 72.4295C748.51 73.6363 748.832 74.8954 748.832 76.22H750.832C750.832 74.5526 750.422 72.9663 749.611 71.4745L747.854 72.4295ZM748.832 76.22C748.832 78.203 748.433 79.733 747.71 80.8787L749.402 81.9453C750.381 80.3923 750.832 78.461 750.832 76.22H748.832ZM747.71 80.8787C746.946 82.0917 745.681 83.4013 743.856 84.798L745.072 86.386C747.003 84.908 748.466 83.431 749.402 81.9453L747.71 80.8787ZM743.857 84.7975L735.453 91.2215L736.668 92.8105L745.072 86.3865L743.857 84.7975ZM735.489 91.1951C734.788 91.6827 734.208 92.146 733.769 92.5849L735.183 93.9991C735.507 93.6753 735.983 93.288 736.631 92.8369L735.489 91.1951ZM733.769 92.5849C733.57 92.7844 733.387 92.9908 733.248 93.1993C733.127 93.3811 732.948 93.6954 732.948 94.084H734.948C734.948 94.203 734.92 94.2822 734.91 94.3069C734.899 94.3336 734.895 94.3352 734.912 94.3087C734.949 94.2532 735.031 94.1516 735.183 93.9991L733.769 92.5849ZM733.948 95.084H749.964V93.084H733.948V95.084ZM748.964 94.084V98H750.964V94.084H748.964ZM749.964 97H729.24V99H749.964V97ZM730.24 98V96.944H728.24V98H730.24ZM730.24 96.944C730.24 95.612 730.552 94.3477 731.183 93.1386L729.41 92.2134C728.633 93.703 728.24 95.284 728.24 96.944H730.24ZM731.179 93.1456C731.841 91.9008 732.755 90.839 733.932 89.956L732.732 88.356C731.328 89.409 730.218 90.6938 729.413 92.2064L731.179 93.1456ZM733.934 89.9546L742.69 83.3546L741.486 81.7574L732.73 88.3574L733.934 89.9546ZM742.717 83.3332C744.01 82.2868 744.995 81.2082 745.606 80.0869L743.85 79.1291C743.406 79.9438 742.63 80.8306 741.459 81.7788L742.717 83.3332ZM745.606 80.0869C746.219 78.9625 746.52 77.7256 746.52 76.396H744.52C744.52 77.4131 744.293 78.3175 743.85 79.1291L745.606 80.0869ZM746.52 76.396C746.52 75.3405 746.254 74.3468 745.726 73.4323L743.994 74.4317C744.346 75.0425 744.52 75.6915 744.52 76.396H746.52ZM745.734 73.4464C745.197 72.4783 744.41 71.7176 743.407 71.1644L742.441 72.9156C743.14 73.3011 743.644 73.8017 743.986 74.4176L745.734 73.4464ZM743.43 71.1773C742.396 70.5709 741.186 70.292 739.844 70.292V72.292C740.908 72.292 741.752 72.5118 742.419 72.9027L743.43 71.1773ZM739.844 70.292C738.465 70.292 737.197 70.5889 736.065 71.2061L737.023 72.9619C737.828 72.5231 738.76 72.292 739.844 72.292V70.292ZM736.054 71.2124C734.972 71.8212 734.109 72.6451 733.487 73.6815L735.202 74.7105C735.636 73.9869 736.239 73.4028 737.035 72.9556L736.054 71.2124ZM733.487 73.6815C732.863 74.7216 732.552 75.8683 732.552 77.1H734.552C734.552 76.2197 734.77 75.4304 735.202 74.7105L733.487 73.6815ZM732.552 77.1V77.716H734.552V77.1H732.552ZM732.552 77.716C732.552 77.9711 732.566 78.2468 732.626 78.4865L734.566 78.0015C734.569 78.013 734.564 77.9973 734.56 77.941C734.555 77.8878 734.552 77.814 734.552 77.716H732.552ZM733.596 77.244H729.284V79.244H733.596V77.244ZM730.279 78.1445L730.235 77.7045L728.245 77.9035L728.289 78.3435L730.279 78.1445ZM730.24 77.804V77.452H728.24V77.804H730.24ZM730.24 77.452C730.24 75.9063 730.585 74.446 731.279 73.0592L729.49 72.1648C728.658 73.8286 728.24 75.595 728.24 77.452H730.24ZM731.282 73.0524C731.952 71.6858 733 70.5633 734.463 69.6855L733.434 67.9705C731.67 69.0287 730.341 70.4289 729.486 72.1716L731.282 73.0524ZM734.463 69.6855C735.88 68.8354 737.727 68.376 740.064 68.376V66.376C737.474 66.376 735.244 66.8846 733.434 67.9705L734.463 69.6855ZM773.383 68.696L772.883 69.5622L772.89 69.5663L773.383 68.696ZM777.079 72.348L776.215 72.8529L776.215 72.8529L777.079 72.348ZM777.123 93.468L777.989 93.9677L777.993 93.9606L777.123 93.468ZM773.471 97.12L773.97 97.9862L773.975 97.9832L773.471 97.12ZM762.515 97.12L762.002 97.9789L762.012 97.9847L762.022 97.9903L762.515 97.12ZM758.951 93.424L758.073 93.904L758.073 93.904L758.951 93.424ZM758.995 72.304L758.131 71.7991L758.128 71.8052L758.124 71.8114L758.995 72.304ZM762.647 68.696L763.134 69.5694L763.14 69.5658L763.146 69.5622L762.647 68.696ZM763.747 73.008L764.435 73.7331L764.445 73.724L763.747 73.008ZM763.747 92.852L763.048 93.5681L763.058 93.577L763.747 92.852ZM772.415 92.808L771.707 92.1009L771.707 92.1009L772.415 92.808ZM772.415 73.008L771.707 73.7151L771.707 73.7151L772.415 73.008ZM768.323 68.376C770.004 68.376 771.517 68.7742 772.883 69.5622L773.882 67.8298C772.197 66.8577 770.337 66.376 768.323 66.376V68.376ZM772.89 69.5663C774.29 70.3586 775.394 71.4493 776.215 72.8529L777.942 71.8431C776.944 70.1374 775.585 68.7934 773.875 67.8257L772.89 69.5663ZM776.215 72.8529C777.028 74.2429 777.443 75.8117 777.443 77.584H779.443C779.443 75.4843 778.947 73.5624 777.942 71.8431L776.215 72.8529ZM777.443 77.584V88.276H779.443V77.584H777.443ZM777.443 88.276C777.443 90.022 777.042 91.5811 776.252 92.9754L777.993 93.9606C778.964 92.2456 779.443 90.3433 779.443 88.276H777.443ZM776.256 92.9683C775.465 94.3396 774.374 95.4331 772.966 96.2568L773.975 97.9832C775.676 96.9882 777.02 95.6471 777.989 93.9677L776.256 92.9683ZM772.971 96.2538C771.61 97.039 770.069 97.44 768.323 97.44V99.44C770.39 99.44 772.281 98.961 773.97 97.9862L772.971 96.2538ZM768.323 97.44H767.751V99.44H768.323V97.44ZM767.751 97.44C765.972 97.44 764.399 97.0377 763.007 96.2497L762.022 97.9903C763.739 98.9623 765.657 99.44 767.751 99.44V97.44ZM763.027 96.2611C761.654 95.443 760.593 94.3417 759.828 92.944L758.073 93.904C759.01 95.6157 760.324 96.9784 762.002 97.9789L763.027 96.2611ZM759.828 92.944C759.062 91.5453 758.675 89.9959 758.675 88.276H756.675C756.675 90.3108 757.137 92.1934 758.073 93.904L759.828 92.944ZM758.675 88.276V77.584H756.675V88.276H758.675ZM758.675 77.584C758.675 75.7736 759.078 74.1863 759.865 72.7966L758.124 71.8114C757.151 73.531 756.675 75.4637 756.675 77.584H758.675ZM759.858 72.8089C760.68 71.4034 761.769 70.3302 763.134 69.5694L762.159 67.8226C760.473 68.7631 759.128 70.0953 758.131 71.7991L759.858 72.8089ZM763.146 69.5622C764.51 68.7757 766.037 68.376 767.751 68.376V66.376C765.71 66.376 763.834 66.8563 762.147 67.8298L763.146 69.5622ZM767.751 68.376H768.323V66.376H767.751V68.376ZM768.059 70.292C766.107 70.292 764.416 70.9583 763.048 72.292L764.445 73.724C765.423 72.7697 766.607 72.292 768.059 72.292V70.292ZM763.058 72.283C761.675 73.597 760.987 75.2723 760.987 77.232H762.987C762.987 75.789 763.472 74.6483 764.435 73.733L763.058 72.283ZM760.987 77.232V88.584H762.987V77.232H760.987ZM760.987 88.584C760.987 90.5434 761.674 92.2279 763.048 93.568L764.445 92.136C763.472 91.1881 762.987 90.0273 762.987 88.584H760.987ZM763.058 93.577C764.427 94.878 766.115 95.524 768.059 95.524V93.524C766.599 93.524 765.413 93.0554 764.435 92.127L763.058 93.577ZM768.059 95.524C770.058 95.524 771.773 94.8641 773.122 93.5151L771.707 92.1009C770.768 93.0399 769.579 93.524 768.059 93.524V95.524ZM773.122 93.5151C774.46 92.1767 775.131 90.5113 775.131 88.584H773.131C773.131 90.0007 772.657 91.1513 771.707 92.1009L773.122 93.5151ZM775.131 88.584V77.232H773.131V88.584H775.131ZM775.131 77.232C775.131 75.3047 774.46 73.6393 773.122 72.3009L771.707 73.7151C772.657 74.6647 773.131 75.8153 773.131 77.232H775.131ZM773.122 72.3009C771.773 70.9519 770.058 70.292 768.059 70.292V72.292C769.579 72.292 770.768 72.7761 771.707 73.7151L773.122 72.3009ZM809.033 67.816L809.888 68.3345L810.809 66.816H809.033V67.816ZM790.729 98V99H791.292L791.584 98.5185L790.729 98ZM787.649 98L786.795 97.4797L785.869 99H787.649V98ZM806.041 67.816V66.816H805.479L805.187 67.2957L806.041 67.816ZM793.721 69.4L793.004 70.0968L793.009 70.102L793.014 70.1071L793.721 69.4ZM793.677 81.72L794.384 82.4271L794.384 82.4271L793.677 81.72ZM785.757 81.72L785.04 82.4168L785.05 82.4272L785.06 82.4373L785.757 81.72ZM785.757 69.4L786.464 70.1071L786.469 70.102L786.474 70.0968L785.757 69.4ZM787.781 71.028L787.074 70.3209L787.074 70.3209L787.781 71.028ZM787.781 80.092L787.053 80.7774L787.073 80.7994L787.095 80.8202L787.781 80.092ZM791.697 80.092L792.404 80.7991L792.415 80.7884L792.425 80.7774L791.697 80.092ZM791.697 71.028L790.969 71.7134L790.979 71.7244L790.99 71.7351L791.697 71.028ZM810.837 84.228L810.12 84.9248L810.13 84.9352L810.14 84.9453L810.837 84.228ZM810.881 96.548L811.588 97.2551L811.593 97.25L811.598 97.2448L810.881 96.548ZM802.917 96.548L802.2 97.2448L802.205 97.25L802.21 97.2551L802.917 96.548ZM802.917 84.228L803.624 84.9351L802.917 84.228ZM804.941 85.856L804.234 85.1489L804.234 85.1489L804.941 85.856ZM804.941 94.92L804.213 95.6054L804.233 95.6274L804.255 95.6482L804.941 94.92ZM808.857 94.92L809.564 95.6271L809.575 95.6164L809.585 95.6054L808.857 94.92ZM808.857 85.856L808.129 86.5414L808.139 86.5524L808.15 86.5631L808.857 85.856ZM808.178 67.2975L789.874 97.4815L791.584 98.5185L809.888 68.3345L808.178 67.2975ZM790.729 97H787.649V99H790.729V97ZM788.503 98.5203L806.895 68.3363L805.187 67.2957L786.795 97.4797L788.503 98.5203ZM806.041 68.816H809.033V66.816H806.041V68.816ZM789.893 68.86C791.203 68.86 792.212 69.2817 793.004 70.0968L794.438 68.7032C793.235 67.465 791.692 66.86 789.893 66.86V68.86ZM793.014 70.1071C793.807 70.9007 794.217 71.9 794.217 73.184H796.217C796.217 71.4173 795.629 69.894 794.428 68.6929L793.014 70.1071ZM794.217 73.184V77.892H796.217V73.184H794.217ZM794.217 77.892C794.217 79.167 793.799 80.1841 792.97 81.0129L794.384 82.4271C795.608 81.2026 796.217 79.6676 796.217 77.892H794.217ZM792.97 81.0129C792.176 81.8065 791.177 82.216 789.893 82.216V84.216C791.66 84.216 793.183 83.6282 794.384 82.4271L792.97 81.0129ZM789.893 82.216H789.585V84.216H789.893V82.216ZM789.585 82.216C788.301 82.216 787.281 81.806 786.454 81.0027L785.06 82.4373C786.286 83.6286 787.818 84.216 789.585 84.216V82.216ZM786.474 81.0232C785.671 80.1963 785.261 79.176 785.261 77.892H783.261C783.261 79.6587 783.848 81.1904 785.04 82.4168L786.474 81.0232ZM785.261 77.892V73.184H783.261V77.892H785.261ZM785.261 73.184C785.261 71.9 785.67 70.9007 786.464 70.1071L785.05 68.6929C783.849 69.894 783.261 71.4173 783.261 73.184H785.261ZM786.474 70.0968C787.266 69.2817 788.275 68.86 789.585 68.86V66.86C787.786 66.86 786.242 67.465 785.04 68.7032L786.474 70.0968ZM789.585 68.86H789.893V66.86H789.585V68.86ZM789.761 69.28C788.721 69.28 787.791 69.6038 787.074 70.3209L788.488 71.7351C788.768 71.4549 789.158 71.28 789.761 71.28V69.28ZM787.074 70.3209C786.389 71.0061 786.077 71.891 786.077 72.876H788.077C788.077 72.3357 788.234 71.9886 788.488 71.7351L787.074 70.3209ZM786.077 72.876V78.2H788.077V72.876H786.077ZM786.077 78.2C786.077 79.186 786.388 80.0715 787.053 80.7774L788.509 79.4066C788.235 79.1151 788.077 78.7393 788.077 78.2H786.077ZM787.095 80.8202C787.815 81.4978 788.739 81.796 789.761 81.796V79.796C789.14 79.796 788.744 79.6248 788.466 79.3638L787.095 80.8202ZM789.761 81.796C790.781 81.796 791.705 81.4984 792.404 80.7991L790.99 79.3849C790.75 79.6243 790.384 79.796 789.761 79.796V81.796ZM792.425 80.7774C793.089 80.0715 793.401 79.186 793.401 78.2H791.401C791.401 78.7394 791.243 79.1151 790.969 79.4066L792.425 80.7774ZM793.401 78.2V72.876H791.401V78.2H793.401ZM793.401 72.876C793.401 71.891 793.089 71.0061 792.404 70.3209L790.99 71.7351C791.243 71.9886 791.401 72.3357 791.401 72.876H793.401ZM792.425 70.3426C791.73 69.6037 790.798 69.28 789.761 69.28V71.28C790.366 71.28 790.725 71.455 790.969 71.7134L792.425 70.3426ZM807.053 83.688C808.328 83.688 809.324 84.1057 810.12 84.9248L811.554 83.5312C810.355 82.297 808.829 81.688 807.053 81.688V83.688ZM810.14 84.9453C810.959 85.741 811.377 86.7371 811.377 88.012H813.377C813.377 86.2362 812.768 84.7097 811.534 83.5107L810.14 84.9453ZM811.377 88.012V92.72H813.377V88.012H811.377ZM811.377 92.72C811.377 94.004 810.967 95.0243 810.164 95.8512L811.598 97.2448C812.79 96.0184 813.377 94.4867 813.377 92.72H811.377ZM810.174 95.8409C809.384 96.6306 808.372 97.044 807.053 97.044V99.044C808.843 99.044 810.383 98.46 811.588 97.2551L810.174 95.8409ZM807.053 97.044H806.745V99.044H807.053V97.044ZM806.745 97.044C805.426 97.044 804.414 96.6306 803.624 95.8409L802.21 97.2551C803.415 98.46 804.955 99.044 806.745 99.044V97.044ZM803.634 95.8512C802.831 95.0243 802.421 94.004 802.421 92.72H800.421C800.421 94.4867 801.008 96.0184 802.2 97.2448L803.634 95.8512ZM802.421 92.72V88.012H800.421V92.72H802.421ZM802.421 88.012C802.421 86.728 802.83 85.7287 803.624 84.9351L802.21 83.5209C801.009 84.722 800.421 86.2453 800.421 88.012H802.421ZM803.624 84.9351C804.453 84.1063 805.47 83.688 806.745 83.688V81.688C804.969 81.688 803.434 82.2964 802.21 83.5209L803.624 84.9351ZM806.745 83.688H807.053V81.688H806.745V83.688ZM806.921 84.108C805.881 84.108 804.951 84.4318 804.234 85.1489L805.648 86.5631C805.928 86.2829 806.318 86.108 806.921 86.108V84.108ZM804.234 85.1489C803.549 85.8341 803.237 86.719 803.237 87.704H805.237C805.237 87.1637 805.394 86.8166 805.648 86.5631L804.234 85.1489ZM803.237 87.704V93.028H805.237V87.704H803.237ZM803.237 93.028C803.237 94.014 803.548 94.8995 804.213 95.6054L805.669 94.2346C805.395 93.9431 805.237 93.5674 805.237 93.028H803.237ZM804.255 95.6482C804.975 96.3258 805.899 96.624 806.921 96.624V94.624C806.3 94.624 805.904 94.4528 805.626 94.1918L804.255 95.6482ZM806.921 96.624C807.941 96.624 808.865 96.3264 809.564 95.6271L808.15 94.2129C807.91 94.4523 807.544 94.624 806.921 94.624V96.624ZM809.585 95.6054C810.249 94.8995 810.561 94.014 810.561 93.028H808.561C808.561 93.5674 808.403 93.9431 808.129 94.2346L809.585 95.6054ZM810.561 93.028V87.704H808.561V93.028H810.561ZM810.561 87.704C810.561 86.719 810.249 85.8341 809.564 85.1489L808.15 86.5631C808.403 86.8166 808.561 87.1637 808.561 87.704H810.561ZM809.585 85.1706C808.89 84.4317 807.958 84.108 806.921 84.108V86.108C807.526 86.108 807.885 86.283 808.129 86.5414L809.585 85.1706Z" fill="black" mask="url(#path-8-outside-2_661_101)"/>
<path d="M197.667 581C197.667 588.364 203.636 594.333 211 594.333C218.364 594.333 224.333 588.364 224.333 581C224.333 573.636 218.364 567.667 211 567.667C203.636 567.667 197.667 573.636 197.667 581ZM433.38 133V130.5H431.83L431.141 131.888L433.38 133ZM821 135.5C822.381 135.5 823.5 134.381 823.5 133C823.5 131.619 822.381 130.5 821 130.5V135.5ZM213.239 582.112L435.62 134.112L431.141 131.888L208.761 579.888L213.239 582.112ZM433.38 135.5L821 135.5V130.5L433.38 130.5V135.5Z" fill="white"/>
</svg>
