<svg width="1360" height="1360" viewBox="0 0 1360 1360" fill="none" xmlns="http://www.w3.org/2000/svg">
<path d="M680 0C752.809 8.68234e-07 825.145 11.6931 894.245 34.6326L808.547 292.78C767.087 279.016 723.685 272 680 272V0Z" fill="#5F52F1"/>
<path d="M552.582 12.0444C594.582 4.03259 637.244 -8.20618e-05 680.001 1.2524e-09L680.001 272C654.346 272 628.749 274.42 603.549 279.227L552.582 12.0444Z" fill="#01D3EC"/>
<path d="M129.868 280.306C231.53 140.382 382.689 44.4531 552.581 12.0446L603.549 279.227C501.613 298.672 410.918 356.229 349.921 440.184L129.868 280.306Z" fill="#8CC0B9"/>
<mask id="path-4-inside-1_670_146" fill="white">
<path d="M893.729 34.4616C1030.05 79.5968 1148.59 166.731 1232.35 283.375C1316.11 400.02 1360.79 540.187 1359.99 683.786L1087.99 682.272C1088.47 596.112 1061.66 512.012 1011.41 442.025C961.154 372.039 890.032 319.758 808.238 292.677L893.729 34.4616Z"/>
</mask>
<path d="M893.729 34.4616C1030.05 79.5968 1148.59 166.731 1232.35 283.375C1316.11 400.02 1360.79 540.187 1359.99 683.786L1087.99 682.272C1088.47 596.112 1061.66 512.012 1011.41 442.025C961.154 372.039 890.032 319.758 808.238 292.677L893.729 34.4616Z" fill="#FFE657" stroke="#30324F" stroke-width="28" mask="url(#path-4-inside-1_670_146)"/>
<path d="M1360 680C1360 823.602 1314.54 963.518 1230.13 1079.69L1010.08 919.816C1060.72 850.111 1088 766.161 1088 680H1360Z" fill="#525775"/>
<path d="M1230.13 1079.69C1167.06 1166.51 1084.33 1237.17 988.714 1285.88C893.099 1334.6 787.311 1360 680 1360C572.689 1360 466.901 1334.6 371.286 1285.88C275.671 1237.17 192.944 1166.51 129.868 1079.69L349.921 919.816C387.766 971.906 437.403 1014.3 494.772 1043.53C552.141 1072.76 615.613 1088 680 1088C744.387 1088 807.859 1072.76 865.228 1043.53C922.597 1014.3 972.233 971.906 1010.08 919.816L1230.13 1079.69Z" fill="#9F8CC0"/>
<path d="M129.868 1079.69C45.4613 963.518 -2.96727e-05 823.602 0 680C2.96728e-05 536.398 45.4614 396.482 129.869 280.306L349.921 440.183C299.277 509.889 272 593.839 272 680C272 766.161 299.277 850.111 349.921 919.816L129.868 1079.69Z" fill="#FF4059"/>
<mask id="path-8-outside-2_670_146" maskUnits="userSpaceOnUse" x="468" y="1151" width="373" height="58" fill="black">
<rect fill="white" x="468" y="1151" width="373" height="58"/>
<path d="M487.821 1154.24C492.701 1154.24 496.701 1155.3 499.821 1157.42C502.981 1159.54 504.561 1162.68 504.561 1166.84V1167.56H493.041V1167.32C493.041 1166.16 492.621 1165.22 491.781 1164.5C490.981 1163.74 489.741 1163.36 488.061 1163.36C486.421 1163.36 485.181 1163.6 484.341 1164.08C483.501 1164.52 483.081 1165.12 483.081 1165.88C483.081 1166.8 483.561 1167.54 484.521 1168.1C485.521 1168.62 486.961 1169.08 488.841 1169.48L494.181 1170.68C501.621 1172.36 505.341 1176.22 505.341 1182.26C505.341 1187.18 503.721 1190.8 500.481 1193.12C497.241 1195.44 492.761 1196.6 487.041 1196.6C483.881 1196.6 480.961 1196.12 478.281 1195.16C475.641 1194.2 473.501 1192.74 471.861 1190.78C470.261 1188.78 469.461 1186.32 469.461 1183.4V1182.68C469.461 1182.36 469.481 1182.12 469.521 1181.96H481.161C481.121 1182.08 481.101 1182.32 481.101 1182.68C481.101 1183.92 481.521 1184.94 482.361 1185.74C483.241 1186.54 484.681 1186.94 486.681 1186.94C488.881 1186.94 490.381 1186.72 491.181 1186.28C491.981 1185.8 492.381 1185.16 492.381 1184.36C492.381 1183.4 491.821 1182.68 490.701 1182.2C489.581 1181.68 487.821 1181.16 485.421 1180.64C482.381 1180 479.841 1179.3 477.801 1178.54C475.801 1177.74 474.061 1176.46 472.581 1174.7C471.101 1172.9 470.361 1170.44 470.361 1167.32C470.361 1164.52 471.121 1162.14 472.641 1160.18C474.201 1158.22 476.301 1156.74 478.941 1155.74C481.581 1154.74 484.541 1154.24 487.821 1154.24ZM525.463 1165.34H532.663V1173.86H525.463V1185.2C525.463 1186.8 525.763 1187.9 526.363 1188.5C527.003 1189.06 527.843 1189.34 528.883 1189.34C529.363 1189.34 529.983 1189.28 530.743 1189.16C531.543 1189 532.163 1188.82 532.603 1188.62V1195.34C531.683 1195.74 530.403 1196.06 528.763 1196.3C527.123 1196.54 525.723 1196.66 524.563 1196.66C521.043 1196.66 518.323 1196.02 516.403 1194.74C514.523 1193.46 513.583 1191.28 513.583 1188.2V1173.86H510.223V1165.34H514.063L518.203 1155.56H525.463V1165.34ZM554.5 1164.74C559.14 1164.74 562.68 1165.64 565.12 1167.44C567.6 1169.24 568.84 1171.58 568.84 1174.46V1187.12C568.84 1187.88 569.02 1188.44 569.38 1188.8C569.74 1189.16 570.18 1189.34 570.7 1189.34C571.46 1189.34 572.16 1189.16 572.8 1188.8V1195.22C571.52 1196.14 569.5 1196.6 566.74 1196.6C564.18 1196.6 562.16 1196.18 560.68 1195.34C559.2 1194.46 558.28 1193.26 557.92 1191.74C556.64 1193.22 555.22 1194.4 553.66 1195.28C552.14 1196.16 550.26 1196.6 548.02 1196.6C544.82 1196.6 542.22 1195.98 540.22 1194.74C538.22 1193.5 537.22 1191.06 537.22 1187.42C537.22 1184.66 538 1182.54 539.56 1181.06C541.12 1179.54 543.34 1178.5 546.22 1177.94C549.14 1177.34 552.84 1177.04 557.32 1177.04V1175.3C557.32 1174.18 556.94 1173.3 556.18 1172.66C555.46 1172.02 554.54 1171.7 553.42 1171.7C552.5 1171.7 551.62 1171.98 550.78 1172.54C549.98 1173.06 549.58 1173.72 549.58 1174.52V1174.76H538.18C538.14 1174.64 538.12 1174.36 538.12 1173.92C538.12 1172.2 538.7 1170.66 539.86 1169.3C541.06 1167.9 542.74 1166.8 544.9 1166C547.1 1165.16 549.64 1164.74 552.52 1164.74H554.5ZM557.32 1182.5C554.68 1182.5 552.74 1182.86 551.5 1183.58C550.26 1184.26 549.64 1185.22 549.64 1186.46C549.64 1188.38 550.84 1189.34 553.24 1189.34C554.36 1189.34 555.32 1188.96 556.12 1188.2C556.92 1187.4 557.32 1186.38 557.32 1185.14V1182.5ZM589.901 1152.8V1176.74L597.701 1165.34H611.261L600.521 1179.2L611.441 1196H597.461L592.061 1187.3L589.901 1189.16V1196H578.021V1152.8H589.901ZM627.793 1161.38H615.973V1152.8H627.793V1161.38ZM627.793 1196H615.973V1165.4H627.793V1196ZM656.706 1164.74C658.346 1164.74 659.846 1165.14 661.206 1165.94C662.606 1166.74 663.706 1167.84 664.506 1169.24C665.306 1170.6 665.706 1172.1 665.706 1173.74V1196H653.826V1176.8C653.826 1175.8 653.506 1174.96 652.866 1174.28C652.266 1173.56 651.526 1173.2 650.646 1173.2C649.766 1173.2 649.006 1173.56 648.366 1174.28C647.766 1174.96 647.466 1175.8 647.466 1176.8V1196H635.586V1165.34H644.526L645.726 1169.78C647.926 1166.42 651.026 1164.74 655.026 1164.74H656.706ZM705.644 1159.82C705.644 1162.14 705.084 1163.92 703.964 1165.16C702.884 1166.4 701.244 1167.32 699.044 1167.92C700.124 1168.76 700.944 1169.74 701.504 1170.86C702.104 1171.98 702.404 1173.14 702.404 1174.34C702.404 1176.1 701.864 1177.72 700.784 1179.2C699.704 1180.68 698.244 1181.86 696.404 1182.74C694.564 1183.58 692.564 1184 690.404 1184H686.264C685.104 1184 684.244 1184.18 683.684 1184.54C683.124 1184.86 682.844 1185.28 682.844 1185.8C682.844 1186.4 683.084 1186.86 683.564 1187.18C684.044 1187.5 684.944 1187.66 686.264 1187.66H696.044C699.244 1187.66 701.644 1188.52 703.244 1190.24C704.844 1191.92 705.644 1194.18 705.644 1197.02C705.644 1198.82 705.084 1200.5 703.964 1202.06C702.884 1203.66 701.424 1204.92 699.584 1205.84C697.744 1206.8 695.764 1207.28 693.644 1207.28H677.744C675.784 1207.28 674.084 1206.58 672.644 1205.18C671.244 1203.78 670.544 1202.08 670.544 1200.08V1199.78C670.544 1198.38 670.984 1197.1 671.864 1195.94C672.744 1194.74 673.824 1193.84 675.104 1193.24C674.224 1192.64 673.524 1191.88 673.004 1190.96C672.484 1190.04 672.224 1189.06 672.224 1188.02C672.224 1186.54 672.744 1185.2 673.784 1184C674.864 1182.8 676.184 1182 677.744 1181.6C676.344 1180.68 675.224 1179.6 674.384 1178.36C673.544 1177.12 673.124 1175.8 673.124 1174.4C673.124 1171.56 674.304 1169.24 676.664 1167.44C679.024 1165.64 682.444 1164.74 686.924 1164.74H688.604C690.044 1164.74 691.364 1164.86 692.564 1165.1C694.084 1164.1 695.164 1163.14 695.804 1162.22C696.444 1161.26 696.764 1160.46 696.764 1159.82H705.644ZM688.004 1170.62C686.964 1170.62 686.084 1171 685.364 1171.76C684.684 1172.48 684.344 1173.36 684.344 1174.4C684.344 1175.44 684.684 1176.34 685.364 1177.1C686.084 1177.82 686.964 1178.18 688.004 1178.18C689.044 1178.18 689.904 1177.82 690.584 1177.1C691.304 1176.34 691.664 1175.44 691.664 1174.4C691.664 1173.36 691.304 1172.48 690.584 1171.76C689.904 1171 689.044 1170.62 688.004 1170.62ZM683.384 1196C682.544 1196 681.824 1196.24 681.224 1196.72C680.664 1197.2 680.384 1197.78 680.384 1198.46C680.384 1199.14 680.664 1199.72 681.224 1200.2C681.824 1200.72 682.544 1200.98 683.384 1200.98H691.964C692.804 1200.98 693.504 1200.74 694.064 1200.26C694.664 1199.78 694.964 1199.2 694.964 1198.52C694.964 1197.84 694.664 1197.24 694.064 1196.72C693.504 1196.24 692.804 1196 691.964 1196H683.384ZM740.277 1154.24C743.197 1154.24 745.757 1154.82 747.957 1155.98C750.197 1157.1 751.917 1158.66 753.117 1160.66C754.357 1162.66 754.977 1164.96 754.977 1167.56C754.977 1170.44 754.237 1172.92 752.757 1175C751.277 1177.04 748.957 1179.16 745.797 1181.36L739.257 1185.92H755.037V1196H722.937V1193.84C722.937 1191.52 723.297 1189.56 724.017 1187.96C724.737 1186.36 725.977 1184.86 727.737 1183.46L739.617 1174.1C741.777 1172.38 742.857 1170.28 742.857 1167.8C742.857 1166.64 742.437 1165.66 741.597 1164.86C740.797 1164.02 739.817 1163.6 738.657 1163.6H737.877C736.717 1163.6 735.717 1164 734.877 1164.8C734.077 1165.6 733.677 1166.6 733.677 1167.8V1169.48H723.117V1168.34C723.117 1165.7 723.717 1163.32 724.917 1161.2C726.117 1159.04 727.877 1157.34 730.197 1156.1C732.517 1154.86 735.257 1154.24 738.417 1154.24H740.277ZM779.352 1154.24C782.072 1154.24 784.572 1154.92 786.852 1156.28C789.172 1157.6 790.992 1159.42 792.312 1161.74C793.672 1164.02 794.352 1166.52 794.352 1169.24V1181.6C794.352 1184.32 793.672 1186.84 792.312 1189.16C790.992 1191.44 789.172 1193.26 786.852 1194.62C784.572 1195.94 782.072 1196.6 779.352 1196.6H776.652C773.932 1196.6 771.412 1195.94 769.092 1194.62C766.812 1193.26 764.992 1191.44 763.632 1189.16C762.312 1186.84 761.652 1184.32 761.652 1181.6V1169.24C761.652 1166.52 762.312 1164.02 763.632 1161.74C764.992 1159.42 766.812 1157.6 769.092 1156.28C771.412 1154.92 773.932 1154.24 776.652 1154.24H779.352ZM778.032 1162.88C776.752 1162.88 775.672 1163.36 774.792 1164.32C773.952 1165.24 773.532 1166.36 773.532 1167.68V1183.1C773.532 1184.42 773.952 1185.56 774.792 1186.52C775.672 1187.44 776.732 1187.9 777.972 1187.9C779.252 1187.9 780.312 1187.44 781.152 1186.52C782.032 1185.56 782.472 1184.42 782.472 1183.1V1167.68C782.472 1166.36 782.032 1165.24 781.152 1164.32C780.312 1163.36 779.272 1162.88 778.032 1162.88ZM834.986 1154.84L809.966 1196H804.266L829.406 1154.84H834.986ZM808.586 1154.9C810.626 1154.9 812.366 1155.62 813.806 1157.06C815.286 1158.5 816.026 1160.24 816.026 1162.28V1168.4C816.026 1170.44 815.286 1172.18 813.806 1173.62C812.366 1175.06 810.626 1175.78 808.586 1175.78H807.266C805.226 1175.78 803.486 1175.06 802.046 1173.62C800.606 1172.18 799.886 1170.44 799.886 1168.4V1162.28C799.886 1160.24 800.606 1158.5 802.046 1157.06C803.486 1155.62 805.226 1154.9 807.266 1154.9H808.586ZM807.926 1159.16C807.326 1159.16 806.806 1159.38 806.366 1159.82C805.926 1160.26 805.706 1160.82 805.706 1161.5V1169.12C805.706 1169.8 805.926 1170.36 806.366 1170.8C806.806 1171.24 807.326 1171.46 807.926 1171.46C808.566 1171.46 809.086 1171.24 809.486 1170.8C809.926 1170.36 810.146 1169.8 810.146 1169.12V1161.5C810.146 1160.82 809.926 1160.26 809.486 1159.82C809.086 1159.38 808.566 1159.16 807.926 1159.16ZM831.986 1175.12C834.026 1175.12 835.766 1175.84 837.206 1177.28C838.686 1178.72 839.426 1180.46 839.426 1182.5V1188.62C839.426 1189.94 839.086 1191.18 838.406 1192.34C837.726 1193.46 836.806 1194.36 835.646 1195.04C834.526 1195.72 833.306 1196.06 831.986 1196.06H830.666C828.626 1196.06 826.886 1195.34 825.446 1193.9C824.006 1192.42 823.286 1190.66 823.286 1188.62V1182.5C823.286 1180.46 824.006 1178.72 825.446 1177.28C826.886 1175.84 828.626 1175.12 830.666 1175.12H831.986ZM831.326 1179.38C830.726 1179.38 830.206 1179.62 829.766 1180.1C829.326 1180.54 829.106 1181.1 829.106 1181.78V1189.4C829.106 1190.04 829.326 1190.6 829.766 1191.08C830.206 1191.52 830.726 1191.74 831.326 1191.74C831.966 1191.74 832.486 1191.52 832.886 1191.08C833.326 1190.6 833.546 1190.04 833.546 1189.4V1181.78C833.546 1181.1 833.326 1180.54 832.886 1180.1C832.486 1179.62 831.966 1179.38 831.326 1179.38Z"/>
</mask>
<path d="M487.821 1154.24C492.701 1154.24 496.701 1155.3 499.821 1157.42C502.981 1159.54 504.561 1162.68 504.561 1166.84V1167.56H493.041V1167.32C493.041 1166.16 492.621 1165.22 491.781 1164.5C490.981 1163.74 489.741 1163.36 488.061 1163.36C486.421 1163.36 485.181 1163.6 484.341 1164.08C483.501 1164.52 483.081 1165.12 483.081 1165.88C483.081 1166.8 483.561 1167.54 484.521 1168.1C485.521 1168.62 486.961 1169.08 488.841 1169.48L494.181 1170.68C501.621 1172.36 505.341 1176.22 505.341 1182.26C505.341 1187.18 503.721 1190.8 500.481 1193.12C497.241 1195.44 492.761 1196.6 487.041 1196.6C483.881 1196.6 480.961 1196.12 478.281 1195.16C475.641 1194.2 473.501 1192.74 471.861 1190.78C470.261 1188.78 469.461 1186.32 469.461 1183.4V1182.68C469.461 1182.36 469.481 1182.12 469.521 1181.96H481.161C481.121 1182.08 481.101 1182.32 481.101 1182.68C481.101 1183.92 481.521 1184.94 482.361 1185.74C483.241 1186.54 484.681 1186.94 486.681 1186.94C488.881 1186.94 490.381 1186.72 491.181 1186.28C491.981 1185.8 492.381 1185.16 492.381 1184.36C492.381 1183.4 491.821 1182.68 490.701 1182.2C489.581 1181.68 487.821 1181.16 485.421 1180.64C482.381 1180 479.841 1179.3 477.801 1178.54C475.801 1177.74 474.061 1176.46 472.581 1174.7C471.101 1172.9 470.361 1170.44 470.361 1167.32C470.361 1164.52 471.121 1162.14 472.641 1160.18C474.201 1158.22 476.301 1156.74 478.941 1155.74C481.581 1154.74 484.541 1154.24 487.821 1154.24ZM525.463 1165.34H532.663V1173.86H525.463V1185.2C525.463 1186.8 525.763 1187.9 526.363 1188.5C527.003 1189.06 527.843 1189.34 528.883 1189.34C529.363 1189.34 529.983 1189.28 530.743 1189.16C531.543 1189 532.163 1188.82 532.603 1188.62V1195.34C531.683 1195.74 530.403 1196.06 528.763 1196.3C527.123 1196.54 525.723 1196.66 524.563 1196.66C521.043 1196.66 518.323 1196.02 516.403 1194.74C514.523 1193.46 513.583 1191.28 513.583 1188.2V1173.86H510.223V1165.34H514.063L518.203 1155.56H525.463V1165.34ZM554.5 1164.74C559.14 1164.74 562.68 1165.64 565.12 1167.44C567.6 1169.24 568.84 1171.58 568.84 1174.46V1187.12C568.84 1187.88 569.02 1188.44 569.38 1188.8C569.74 1189.16 570.18 1189.34 570.7 1189.34C571.46 1189.34 572.16 1189.16 572.8 1188.8V1195.22C571.52 1196.14 569.5 1196.6 566.74 1196.6C564.18 1196.6 562.16 1196.18 560.68 1195.34C559.2 1194.46 558.28 1193.26 557.92 1191.74C556.64 1193.22 555.22 1194.4 553.66 1195.28C552.14 1196.16 550.26 1196.6 548.02 1196.6C544.82 1196.6 542.22 1195.98 540.22 1194.74C538.22 1193.5 537.22 1191.06 537.22 1187.42C537.22 1184.66 538 1182.54 539.56 1181.06C541.12 1179.54 543.34 1178.5 546.22 1177.94C549.14 1177.34 552.84 1177.04 557.32 1177.04V1175.3C557.32 1174.18 556.94 1173.3 556.18 1172.66C555.46 1172.02 554.54 1171.7 553.42 1171.7C552.5 1171.7 551.62 1171.98 550.78 1172.54C549.98 1173.06 549.58 1173.72 549.58 1174.52V1174.76H538.18C538.14 1174.64 538.12 1174.36 538.12 1173.92C538.12 1172.2 538.7 1170.66 539.86 1169.3C541.06 1167.9 542.74 1166.8 544.9 1166C547.1 1165.16 549.64 1164.74 552.52 1164.74H554.5ZM557.32 1182.5C554.68 1182.5 552.74 1182.86 551.5 1183.58C550.26 1184.26 549.64 1185.22 549.64 1186.46C549.64 1188.38 550.84 1189.34 553.24 1189.34C554.36 1189.34 555.32 1188.96 556.12 1188.2C556.92 1187.4 557.32 1186.38 557.32 1185.14V1182.5ZM589.901 1152.8V1176.74L597.701 1165.34H611.261L600.521 1179.2L611.441 1196H597.461L592.061 1187.3L589.901 1189.16V1196H578.021V1152.8H589.901ZM627.793 1161.38H615.973V1152.8H627.793V1161.38ZM627.793 1196H615.973V1165.4H627.793V1196ZM656.706 1164.74C658.346 1164.74 659.846 1165.14 661.206 1165.94C662.606 1166.74 663.706 1167.84 664.506 1169.24C665.306 1170.6 665.706 1172.1 665.706 1173.74V1196H653.826V1176.8C653.826 1175.8 653.506 1174.96 652.866 1174.28C652.266 1173.56 651.526 1173.2 650.646 1173.2C649.766 1173.2 649.006 1173.56 648.366 1174.28C647.766 1174.96 647.466 1175.8 647.466 1176.8V1196H635.586V1165.34H644.526L645.726 1169.78C647.926 1166.42 651.026 1164.74 655.026 1164.74H656.706ZM705.644 1159.82C705.644 1162.14 705.084 1163.92 703.964 1165.16C702.884 1166.4 701.244 1167.32 699.044 1167.92C700.124 1168.76 700.944 1169.74 701.504 1170.86C702.104 1171.98 702.404 1173.14 702.404 1174.34C702.404 1176.1 701.864 1177.72 700.784 1179.2C699.704 1180.68 698.244 1181.86 696.404 1182.74C694.564 1183.58 692.564 1184 690.404 1184H686.264C685.104 1184 684.244 1184.18 683.684 1184.54C683.124 1184.86 682.844 1185.28 682.844 1185.8C682.844 1186.4 683.084 1186.86 683.564 1187.18C684.044 1187.5 684.944 1187.66 686.264 1187.66H696.044C699.244 1187.66 701.644 1188.52 703.244 1190.24C704.844 1191.92 705.644 1194.18 705.644 1197.02C705.644 1198.82 705.084 1200.5 703.964 1202.06C702.884 1203.66 701.424 1204.92 699.584 1205.84C697.744 1206.8 695.764 1207.28 693.644 1207.28H677.744C675.784 1207.28 674.084 1206.58 672.644 1205.18C671.244 1203.78 670.544 1202.08 670.544 1200.08V1199.78C670.544 1198.38 670.984 1197.1 671.864 1195.94C672.744 1194.74 673.824 1193.84 675.104 1193.24C674.224 1192.64 673.524 1191.88 673.004 1190.96C672.484 1190.04 672.224 1189.06 672.224 1188.02C672.224 1186.54 672.744 1185.2 673.784 1184C674.864 1182.8 676.184 1182 677.744 1181.6C676.344 1180.68 675.224 1179.6 674.384 1178.36C673.544 1177.12 673.124 1175.8 673.124 1174.4C673.124 1171.56 674.304 1169.24 676.664 1167.44C679.024 1165.64 682.444 1164.74 686.924 1164.74H688.604C690.044 1164.74 691.364 1164.86 692.564 1165.1C694.084 1164.1 695.164 1163.14 695.804 1162.22C696.444 1161.26 696.764 1160.46 696.764 1159.82H705.644ZM688.004 1170.62C686.964 1170.62 686.084 1171 685.364 1171.76C684.684 1172.48 684.344 1173.36 684.344 1174.4C684.344 1175.44 684.684 1176.34 685.364 1177.1C686.084 1177.82 686.964 1178.18 688.004 1178.18C689.044 1178.18 689.904 1177.82 690.584 1177.1C691.304 1176.34 691.664 1175.44 691.664 1174.4C691.664 1173.36 691.304 1172.48 690.584 1171.76C689.904 1171 689.044 1170.62 688.004 1170.62ZM683.384 1196C682.544 1196 681.824 1196.24 681.224 1196.72C680.664 1197.2 680.384 1197.78 680.384 1198.46C680.384 1199.14 680.664 1199.72 681.224 1200.2C681.824 1200.72 682.544 1200.98 683.384 1200.98H691.964C692.804 1200.98 693.504 1200.74 694.064 1200.26C694.664 1199.78 694.964 1199.2 694.964 1198.52C694.964 1197.84 694.664 1197.24 694.064 1196.72C693.504 1196.24 692.804 1196 691.964 1196H683.384ZM740.277 1154.24C743.197 1154.24 745.757 1154.82 747.957 1155.98C750.197 1157.1 751.917 1158.66 753.117 1160.66C754.357 1162.66 754.977 1164.96 754.977 1167.56C754.977 1170.44 754.237 1172.92 752.757 1175C751.277 1177.04 748.957 1179.16 745.797 1181.36L739.257 1185.92H755.037V1196H722.937V1193.84C722.937 1191.52 723.297 1189.56 724.017 1187.96C724.737 1186.36 725.977 1184.86 727.737 1183.46L739.617 1174.1C741.777 1172.38 742.857 1170.28 742.857 1167.8C742.857 1166.64 742.437 1165.66 741.597 1164.86C740.797 1164.02 739.817 1163.6 738.657 1163.6H737.877C736.717 1163.6 735.717 1164 734.877 1164.8C734.077 1165.6 733.677 1166.6 733.677 1167.8V1169.48H723.117V1168.34C723.117 1165.7 723.717 1163.32 724.917 1161.2C726.117 1159.04 727.877 1157.34 730.197 1156.1C732.517 1154.86 735.257 1154.24 738.417 1154.24H740.277ZM779.352 1154.24C782.072 1154.24 784.572 1154.92 786.852 1156.28C789.172 1157.6 790.992 1159.42 792.312 1161.74C793.672 1164.02 794.352 1166.52 794.352 1169.24V1181.6C794.352 1184.32 793.672 1186.84 792.312 1189.16C790.992 1191.44 789.172 1193.26 786.852 1194.62C784.572 1195.94 782.072 1196.6 779.352 1196.6H776.652C773.932 1196.6 771.412 1195.94 769.092 1194.62C766.812 1193.26 764.992 1191.44 763.632 1189.16C762.312 1186.84 761.652 1184.32 761.652 1181.6V1169.24C761.652 1166.52 762.312 1164.02 763.632 1161.74C764.992 1159.42 766.812 1157.6 769.092 1156.28C771.412 1154.92 773.932 1154.24 776.652 1154.24H779.352ZM778.032 1162.88C776.752 1162.88 775.672 1163.36 774.792 1164.32C773.952 1165.24 773.532 1166.36 773.532 1167.68V1183.1C773.532 1184.42 773.952 1185.56 774.792 1186.52C775.672 1187.44 776.732 1187.9 777.972 1187.9C779.252 1187.9 780.312 1187.44 781.152 1186.52C782.032 1185.56 782.472 1184.42 782.472 1183.1V1167.68C782.472 1166.36 782.032 1165.24 781.152 1164.32C780.312 1163.36 779.272 1162.88 778.032 1162.88ZM834.986 1154.84L809.966 1196H804.266L829.406 1154.84H834.986ZM808.586 1154.9C810.626 1154.9 812.366 1155.62 813.806 1157.06C815.286 1158.5 816.026 1160.24 816.026 1162.28V1168.4C816.026 1170.44 815.286 1172.18 813.806 1173.62C812.366 1175.06 810.626 1175.78 808.586 1175.78H807.266C805.226 1175.78 803.486 1175.06 802.046 1173.62C800.606 1172.18 799.886 1170.44 799.886 1168.4V1162.28C799.886 1160.24 800.606 1158.5 802.046 1157.06C803.486 1155.62 805.226 1154.9 807.266 1154.9H808.586ZM807.926 1159.16C807.326 1159.16 806.806 1159.38 806.366 1159.82C805.926 1160.26 805.706 1160.82 805.706 1161.5V1169.12C805.706 1169.8 805.926 1170.36 806.366 1170.8C806.806 1171.24 807.326 1171.46 807.926 1171.46C808.566 1171.46 809.086 1171.24 809.486 1170.8C809.926 1170.36 810.146 1169.8 810.146 1169.12V1161.5C810.146 1160.82 809.926 1160.26 809.486 1159.82C809.086 1159.38 808.566 1159.16 807.926 1159.16ZM831.986 1175.12C834.026 1175.12 835.766 1175.84 837.206 1177.28C838.686 1178.72 839.426 1180.46 839.426 1182.5V1188.62C839.426 1189.94 839.086 1191.18 838.406 1192.34C837.726 1193.46 836.806 1194.36 835.646 1195.04C834.526 1195.72 833.306 1196.06 831.986 1196.06H830.666C828.626 1196.06 826.886 1195.34 825.446 1193.9C824.006 1192.42 823.286 1190.66 823.286 1188.62V1182.5C823.286 1180.46 824.006 1178.72 825.446 1177.28C826.886 1175.84 828.626 1175.12 830.666 1175.12H831.986ZM831.326 1179.38C830.726 1179.38 830.206 1179.62 829.766 1180.1C829.326 1180.54 829.106 1181.1 829.106 1181.78V1189.4C829.106 1190.04 829.326 1190.6 829.766 1191.08C830.206 1191.52 830.726 1191.74 831.326 1191.74C831.966 1191.74 832.486 1191.52 832.886 1191.08C833.326 1190.6 833.546 1190.04 833.546 1189.4V1181.78C833.546 1181.1 833.326 1180.54 832.886 1180.1C832.486 1179.62 831.966 1179.38 831.326 1179.38Z" fill="white"/>
<path d="M499.821 1157.42L499.259 1158.25L499.264 1158.25L499.821 1157.42ZM504.561 1167.56V1168.56H505.561V1167.56H504.561ZM493.041 1167.56H492.041V1168.56H493.041V1167.56ZM491.781 1164.5L491.092 1165.22L491.111 1165.24L491.13 1165.26L491.781 1164.5ZM484.341 1164.08L484.805 1164.97L484.821 1164.96L484.837 1164.95L484.341 1164.08ZM484.521 1168.1L484.017 1168.96L484.038 1168.98L484.06 1168.99L484.521 1168.1ZM488.841 1169.48L489.06 1168.5L489.049 1168.5L488.841 1169.48ZM494.181 1170.68L494.401 1169.7L494.4 1169.7L494.181 1170.68ZM500.481 1193.12L501.063 1193.93L501.063 1193.93L500.481 1193.12ZM478.281 1195.16L477.939 1196.1L477.944 1196.1L478.281 1195.16ZM471.861 1190.78L471.08 1191.4L471.087 1191.41L471.094 1191.42L471.861 1190.78ZM469.521 1181.96V1180.96H468.74L468.551 1181.72L469.521 1181.96ZM481.161 1181.96L482.11 1182.28L482.548 1180.96H481.161V1181.96ZM482.361 1185.74L481.671 1186.46L481.68 1186.47L481.688 1186.48L482.361 1185.74ZM491.181 1186.28L491.663 1187.16L491.679 1187.15L491.695 1187.14L491.181 1186.28ZM490.701 1182.2L490.28 1183.11L490.293 1183.11L490.307 1183.12L490.701 1182.2ZM485.421 1180.64L485.633 1179.66L485.627 1179.66L485.421 1180.64ZM477.801 1178.54L477.43 1179.47L477.441 1179.47L477.452 1179.48L477.801 1178.54ZM472.581 1174.7L471.808 1175.34L471.816 1175.34L472.581 1174.7ZM472.641 1160.18L471.858 1159.56L471.851 1159.57L472.641 1160.18ZM478.941 1155.74L479.295 1156.68L479.295 1156.68L478.941 1155.74ZM487.821 1155.24C492.559 1155.24 496.347 1156.27 499.259 1158.25L500.383 1156.59C497.055 1154.33 492.843 1153.24 487.821 1153.24V1155.24ZM499.264 1158.25C502.118 1160.17 503.561 1162.98 503.561 1166.84H505.561C505.561 1162.38 503.844 1158.91 500.378 1156.59L499.264 1158.25ZM503.561 1166.84V1167.56H505.561V1166.84H503.561ZM504.561 1166.56H493.041V1168.56H504.561V1166.56ZM494.041 1167.56V1167.32H492.041V1167.56H494.041ZM494.041 1167.32C494.041 1165.88 493.505 1164.66 492.432 1163.74L491.13 1165.26C491.737 1165.78 492.041 1166.44 492.041 1167.32H494.041ZM492.47 1163.77C491.407 1162.77 489.867 1162.36 488.061 1162.36V1164.36C489.615 1164.36 490.555 1164.71 491.092 1165.22L492.47 1163.77ZM488.061 1162.36C486.353 1162.36 484.907 1162.6 483.845 1163.21L484.837 1164.95C485.455 1164.6 486.489 1164.36 488.061 1164.36V1162.36ZM483.877 1163.19C482.804 1163.76 482.081 1164.65 482.081 1165.88H484.081C484.081 1165.59 484.198 1165.28 484.805 1164.97L483.877 1163.19ZM482.081 1165.88C482.081 1167.23 482.825 1168.27 484.017 1168.96L485.025 1167.24C484.297 1166.81 484.081 1166.37 484.081 1165.88H482.081ZM484.06 1168.99C485.176 1169.57 486.717 1170.05 488.633 1170.46L489.049 1168.5C487.205 1168.11 485.866 1167.67 484.982 1167.21L484.06 1168.99ZM488.622 1170.46L493.962 1171.66L494.4 1169.7L489.06 1168.5L488.622 1170.46ZM493.961 1171.66C497.567 1172.47 500.152 1173.79 501.831 1175.53C503.488 1177.25 504.341 1179.46 504.341 1182.26H506.341C506.341 1179.02 505.334 1176.28 503.271 1174.14C501.229 1172.02 498.235 1170.57 494.401 1169.7L493.961 1171.66ZM504.341 1182.26C504.341 1186.94 502.814 1190.22 499.899 1192.31L501.063 1193.93C504.628 1191.38 506.341 1187.42 506.341 1182.26H504.341ZM499.899 1192.31C496.888 1194.46 492.64 1195.6 487.041 1195.6V1197.6C492.882 1197.6 497.594 1196.42 501.063 1193.93L499.899 1192.31ZM487.041 1195.6C483.983 1195.6 481.179 1195.14 478.618 1194.22L477.944 1196.1C480.743 1197.1 483.779 1197.6 487.041 1197.6V1195.6ZM478.623 1194.22C476.131 1193.31 474.144 1191.95 472.628 1190.14L471.094 1191.42C472.858 1193.53 475.151 1195.09 477.939 1196.1L478.623 1194.22ZM472.642 1190.16C471.203 1188.36 470.461 1186.13 470.461 1183.4H468.461C468.461 1186.51 469.319 1189.2 471.08 1191.4L472.642 1190.16ZM470.461 1183.4V1182.68H468.461V1183.4H470.461ZM470.461 1182.68C470.461 1182.38 470.482 1182.24 470.491 1182.2L468.551 1181.72C468.48 1182 468.461 1182.34 468.461 1182.68H470.461ZM469.521 1182.96H481.161V1180.96H469.521V1182.96ZM480.212 1181.64C480.113 1181.94 480.101 1182.34 480.101 1182.68H482.101C482.101 1182.52 482.106 1182.4 482.112 1182.31C482.116 1182.27 482.119 1182.25 482.121 1182.24C482.123 1182.22 482.122 1182.24 482.11 1182.28L480.212 1181.64ZM480.101 1182.68C480.101 1184.17 480.618 1185.46 481.671 1186.46L483.051 1185.02C482.424 1184.42 482.101 1183.67 482.101 1182.68H480.101ZM481.688 1186.48C482.843 1187.53 484.59 1187.94 486.681 1187.94V1185.94C484.772 1185.94 483.639 1185.55 483.034 1185L481.688 1186.48ZM486.681 1187.94C487.81 1187.94 488.787 1187.88 489.601 1187.76C490.402 1187.65 491.112 1187.46 491.663 1187.16L490.699 1185.4C490.45 1185.54 490.01 1185.68 489.311 1185.79C488.625 1185.89 487.752 1185.94 486.681 1185.94V1187.94ZM491.695 1187.14C492.737 1186.51 493.381 1185.58 493.381 1184.36H491.381C491.381 1184.74 491.224 1185.09 490.666 1185.42L491.695 1187.14ZM493.381 1184.36C493.381 1183.67 493.174 1183.03 492.75 1182.49C492.337 1181.96 491.76 1181.57 491.095 1181.28L490.307 1183.12C490.762 1183.31 491.025 1183.52 491.172 1183.71C491.308 1183.89 491.381 1184.09 491.381 1184.36H493.381ZM491.122 1181.29C489.898 1180.72 488.049 1180.19 485.633 1179.66L485.209 1181.62C487.593 1182.13 489.264 1182.64 490.28 1183.11L491.122 1181.29ZM485.627 1179.66C482.617 1179.03 480.128 1178.34 478.15 1177.6L477.452 1179.48C479.553 1180.26 482.145 1180.97 485.215 1181.62L485.627 1179.66ZM478.172 1177.61C476.335 1176.88 474.728 1175.7 473.346 1174.06L471.816 1175.34C473.394 1177.22 475.267 1178.6 477.43 1179.47L478.172 1177.61ZM473.353 1174.06C472.064 1172.5 471.361 1170.29 471.361 1167.32H469.361C469.361 1170.59 470.138 1173.3 471.809 1175.34L473.353 1174.06ZM471.361 1167.32C471.361 1164.71 472.064 1162.56 473.431 1160.79L471.851 1159.57C470.177 1161.72 469.361 1164.33 469.361 1167.32H471.361ZM473.423 1160.8C474.858 1159 476.802 1157.62 479.295 1156.68L478.587 1154.8C475.8 1155.86 473.544 1157.44 471.859 1159.56L473.423 1160.8ZM479.295 1156.68C481.805 1155.72 484.643 1155.24 487.821 1155.24V1153.24C484.439 1153.24 481.357 1153.76 478.587 1154.8L479.295 1156.68ZM525.463 1165.34H524.463V1166.34H525.463V1165.34ZM532.663 1165.34H533.663V1164.34H532.663V1165.34ZM532.663 1173.86V1174.86H533.663V1173.86H532.663ZM525.463 1173.86V1172.86H524.463V1173.86H525.463ZM526.363 1188.5L525.656 1189.21L525.679 1189.23L525.704 1189.25L526.363 1188.5ZM530.743 1189.16L530.899 1190.15L530.919 1190.14L530.939 1190.14L530.743 1189.16ZM532.603 1188.62H533.603V1187.07L532.189 1187.71L532.603 1188.62ZM532.603 1195.34L533.002 1196.26L533.603 1196V1195.34H532.603ZM528.763 1196.3L528.618 1195.31L528.763 1196.3ZM516.403 1194.74L515.84 1195.57L515.848 1195.57L516.403 1194.74ZM513.583 1173.86H514.583V1172.86H513.583V1173.86ZM510.223 1173.86H509.223V1174.86H510.223V1173.86ZM510.223 1165.34V1164.34H509.223V1165.34H510.223ZM514.063 1165.34V1166.34H514.726L514.984 1165.73L514.063 1165.34ZM518.203 1155.56V1154.56H517.54L517.282 1155.17L518.203 1155.56ZM525.463 1155.56H526.463V1154.56H525.463V1155.56ZM525.463 1166.34H532.663V1164.34H525.463V1166.34ZM531.663 1165.34V1173.86H533.663V1165.34H531.663ZM532.663 1172.86H525.463V1174.86H532.663V1172.86ZM524.463 1173.86V1185.2H526.463V1173.86H524.463ZM524.463 1185.2C524.463 1186.86 524.759 1188.31 525.656 1189.21L527.07 1187.79C526.767 1187.49 526.463 1186.74 526.463 1185.2H524.463ZM525.704 1189.25C526.565 1190.01 527.657 1190.34 528.883 1190.34V1188.34C528.029 1188.34 527.441 1188.11 527.021 1187.75L525.704 1189.25ZM528.883 1190.34C529.437 1190.34 530.114 1190.27 530.899 1190.15L530.587 1188.17C529.852 1188.29 529.289 1188.34 528.883 1188.34V1190.34ZM530.939 1190.14C531.77 1189.97 532.476 1189.78 533.017 1189.53L532.189 1187.71C531.85 1187.86 531.316 1188.03 530.547 1188.18L530.939 1190.14ZM531.603 1188.62V1195.34H533.603V1188.62H531.603ZM532.204 1194.42C531.401 1194.77 530.22 1195.08 528.618 1195.31L528.908 1197.29C530.586 1197.04 531.965 1196.71 533.002 1196.26L532.204 1194.42ZM528.618 1195.31C527.008 1195.55 525.659 1195.66 524.563 1195.66V1197.66C525.787 1197.66 527.238 1197.53 528.908 1197.29L528.618 1195.31ZM524.563 1195.66C521.144 1195.66 518.648 1195.03 516.958 1193.91L515.848 1195.57C517.998 1197.01 520.942 1197.66 524.563 1197.66V1195.66ZM516.966 1193.91C515.451 1192.88 514.583 1191.08 514.583 1188.2H512.583C512.583 1191.48 513.595 1194.04 515.84 1195.57L516.966 1193.91ZM514.583 1188.2V1173.86H512.583V1188.2H514.583ZM513.583 1172.86H510.223V1174.86H513.583V1172.86ZM511.223 1173.86V1165.34H509.223V1173.86H511.223ZM510.223 1166.34H514.063V1164.34H510.223V1166.34ZM514.984 1165.73L519.124 1155.95L517.282 1155.17L513.142 1164.95L514.984 1165.73ZM518.203 1156.56H525.463V1154.56H518.203V1156.56ZM524.463 1155.56V1165.34H526.463V1155.56H524.463ZM565.12 1167.44L564.526 1168.24L564.532 1168.25L565.12 1167.44ZM569.38 1188.8L568.673 1189.51L568.673 1189.51L569.38 1188.8ZM572.8 1188.8H573.8V1187.09L572.309 1187.93L572.8 1188.8ZM572.8 1195.22L573.383 1196.03L573.8 1195.73V1195.22H572.8ZM560.68 1195.34L560.169 1196.2L560.177 1196.2L560.186 1196.21L560.68 1195.34ZM557.92 1191.74L558.893 1191.51L558.442 1189.61L557.163 1191.09L557.92 1191.74ZM553.66 1195.28L553.168 1194.41L553.159 1194.41L553.66 1195.28ZM540.22 1194.74L540.747 1193.89L540.22 1194.74ZM539.56 1181.06L540.248 1181.79L540.258 1181.78L539.56 1181.06ZM546.22 1177.94L546.411 1178.92L546.421 1178.92L546.22 1177.94ZM557.32 1177.04V1178.04H558.32V1177.04H557.32ZM556.18 1172.66L555.515 1173.41L555.525 1173.42L555.536 1173.42L556.18 1172.66ZM550.78 1172.54L551.325 1173.38L551.334 1173.37L550.78 1172.54ZM549.58 1174.76V1175.76H550.58V1174.76H549.58ZM538.18 1174.76L537.231 1175.08L537.459 1175.76H538.18V1174.76ZM539.86 1169.3L539.1 1168.65L539.099 1168.65L539.86 1169.3ZM544.9 1166L545.247 1166.94L545.256 1166.93L544.9 1166ZM557.32 1182.5H558.32V1181.5H557.32V1182.5ZM551.5 1183.58L551.981 1184.46L551.991 1184.45L552.002 1184.44L551.5 1183.58ZM556.12 1188.2L556.808 1188.92L556.818 1188.92L556.827 1188.91L556.12 1188.2ZM554.5 1165.74C559.033 1165.74 562.328 1166.62 564.526 1168.24L565.713 1166.64C563.032 1164.66 559.247 1163.74 554.5 1163.74V1165.74ZM564.532 1168.25C566.773 1169.88 567.84 1171.92 567.84 1174.46H569.84C569.84 1171.24 568.427 1168.6 565.707 1166.63L564.532 1168.25ZM567.84 1174.46V1187.12H569.84V1174.46H567.84ZM567.84 1187.12C567.84 1188.02 568.05 1188.88 568.673 1189.51L570.087 1188.09C569.989 1188 569.84 1187.74 569.84 1187.12H567.84ZM568.673 1189.51C569.225 1190.06 569.921 1190.34 570.7 1190.34V1188.34C570.439 1188.34 570.255 1188.26 570.087 1188.09L568.673 1189.51ZM570.7 1190.34C571.625 1190.34 572.495 1190.12 573.29 1189.67L572.309 1187.93C571.824 1188.2 571.294 1188.34 570.7 1188.34V1190.34ZM571.8 1188.8V1195.22H573.8V1188.8H571.8ZM572.216 1194.41C571.192 1195.14 569.43 1195.6 566.74 1195.6V1197.6C569.57 1197.6 571.847 1197.14 573.383 1196.03L572.216 1194.41ZM566.74 1195.6C564.272 1195.6 562.446 1195.19 561.173 1194.47L560.186 1196.21C561.874 1197.17 564.087 1197.6 566.74 1197.6V1195.6ZM561.191 1194.48C559.917 1193.72 559.184 1192.74 558.893 1191.51L556.947 1191.97C557.376 1193.78 558.482 1195.2 560.169 1196.2L561.191 1194.48ZM557.163 1191.09C555.952 1192.49 554.619 1193.59 553.168 1194.41L554.151 1196.15C555.82 1195.21 557.328 1193.95 558.676 1192.39L557.163 1191.09ZM553.159 1194.41C551.827 1195.19 550.131 1195.6 548.02 1195.6V1197.6C550.388 1197.6 552.452 1197.13 554.161 1196.15L553.159 1194.41ZM548.02 1195.6C544.941 1195.6 542.541 1195 540.747 1193.89L539.693 1195.59C541.898 1196.96 544.698 1197.6 548.02 1197.6V1195.6ZM540.747 1193.89C539.178 1192.92 538.22 1190.91 538.22 1187.42H536.22C536.22 1191.21 537.261 1194.08 539.693 1195.59L540.747 1193.89ZM538.22 1187.42C538.22 1184.85 538.94 1183.03 540.248 1181.79L538.871 1180.33C537.06 1182.05 536.22 1184.47 536.22 1187.42H538.22ZM540.258 1181.78C541.637 1180.43 543.657 1179.46 546.411 1178.92L546.029 1176.96C543.022 1177.54 540.602 1178.65 538.862 1180.34L540.258 1181.78ZM546.421 1178.92C549.251 1178.34 552.877 1178.04 557.32 1178.04V1176.04C552.802 1176.04 549.029 1176.34 546.018 1176.96L546.421 1178.92ZM558.32 1177.04V1175.3H556.32V1177.04H558.32ZM558.32 1175.3C558.32 1173.93 557.84 1172.75 556.824 1171.9L555.536 1173.42C556.04 1173.85 556.32 1174.43 556.32 1175.3H558.32ZM556.844 1171.91C555.912 1171.08 554.742 1170.7 553.42 1170.7V1172.7C554.337 1172.7 555.008 1172.96 555.515 1173.41L556.844 1171.91ZM553.42 1170.7C552.283 1170.7 551.213 1171.05 550.225 1171.71L551.334 1173.37C552.027 1172.91 552.716 1172.7 553.42 1172.7V1170.7ZM550.235 1171.7C549.214 1172.36 548.58 1173.31 548.58 1174.52H550.58C550.58 1174.13 550.745 1173.76 551.325 1173.38L550.235 1171.7ZM548.58 1174.52V1174.76H550.58V1174.52H548.58ZM549.58 1173.76H538.18V1175.76H549.58V1173.76ZM539.128 1174.44C539.144 1174.49 539.146 1174.51 539.142 1174.49C539.14 1174.47 539.136 1174.44 539.132 1174.39C539.125 1174.28 539.12 1174.13 539.12 1173.92H537.12C537.12 1174.15 537.125 1174.36 537.137 1174.53C537.148 1174.68 537.168 1174.89 537.231 1175.08L539.128 1174.44ZM539.12 1173.92C539.12 1172.45 539.608 1171.14 540.621 1169.95L539.099 1168.65C537.791 1170.18 537.12 1171.95 537.12 1173.92H539.12ZM540.619 1169.95C541.684 1168.71 543.207 1167.69 545.247 1166.94L544.552 1165.06C542.272 1165.91 540.435 1167.09 539.1 1168.65L540.619 1169.95ZM545.256 1166.93C547.32 1166.15 549.735 1165.74 552.52 1165.74V1163.74C549.544 1163.74 546.879 1164.17 544.543 1165.07L545.256 1166.93ZM552.52 1165.74H554.5V1163.74H552.52V1165.74ZM557.32 1181.5C554.629 1181.5 552.471 1181.86 550.998 1182.72L552.002 1184.44C553.008 1183.86 554.73 1183.5 557.32 1183.5V1181.5ZM551.019 1182.7C549.513 1183.53 548.64 1184.8 548.64 1186.46H550.64C550.64 1185.64 551.006 1184.99 551.981 1184.46L551.019 1182.7ZM548.64 1186.46C548.64 1187.64 549.02 1188.68 549.915 1189.4C550.768 1190.08 551.933 1190.34 553.24 1190.34V1188.34C552.147 1188.34 551.512 1188.12 551.164 1187.84C550.86 1187.6 550.64 1187.2 550.64 1186.46H548.64ZM553.24 1190.34C554.612 1190.34 555.82 1189.86 556.808 1188.92L555.431 1187.47C554.82 1188.06 554.108 1188.34 553.24 1188.34V1190.34ZM556.827 1188.91C557.833 1187.9 558.32 1186.62 558.32 1185.14H556.32C556.32 1186.14 556.006 1186.9 555.413 1187.49L556.827 1188.91ZM558.32 1185.14V1182.5H556.32V1185.14H558.32ZM589.901 1152.8H590.901V1151.8H589.901V1152.8ZM589.901 1176.74H588.901V1179.97L590.726 1177.3L589.901 1176.74ZM597.701 1165.34V1164.34H597.174L596.876 1164.78L597.701 1165.34ZM611.261 1165.34L612.052 1165.95L613.301 1164.34H611.261V1165.34ZM600.521 1179.2L599.731 1178.59L599.295 1179.15L599.683 1179.74L600.521 1179.2ZM611.441 1196V1197H613.284L612.28 1195.46L611.441 1196ZM597.461 1196L596.611 1196.53L596.905 1197H597.461V1196ZM592.061 1187.3L592.911 1186.77L592.294 1185.78L591.409 1186.54L592.061 1187.3ZM589.901 1189.16L589.249 1188.4L588.901 1188.7V1189.16H589.901ZM589.901 1196V1197H590.901V1196H589.901ZM578.021 1196H577.021V1197H578.021V1196ZM578.021 1152.8V1151.8H577.021V1152.8H578.021ZM588.901 1152.8V1176.74H590.901V1152.8H588.901ZM590.726 1177.3L598.526 1165.9L596.876 1164.78L589.076 1176.18L590.726 1177.3ZM597.701 1166.34H611.261V1164.34H597.701V1166.34ZM610.471 1164.73L599.731 1178.59L601.312 1179.81L612.052 1165.95L610.471 1164.73ZM599.683 1179.74L610.603 1196.54L612.28 1195.46L601.36 1178.66L599.683 1179.74ZM611.441 1195H597.461V1197H611.441V1195ZM598.311 1195.47L592.911 1186.77L591.211 1187.83L596.611 1196.53L598.311 1195.47ZM591.409 1186.54L589.249 1188.4L590.554 1189.92L592.714 1188.06L591.409 1186.54ZM588.901 1189.16V1196H590.901V1189.16H588.901ZM589.901 1195H578.021V1197H589.901V1195ZM579.021 1196V1152.8H577.021V1196H579.021ZM578.021 1153.8H589.901V1151.8H578.021V1153.8ZM627.793 1161.38V1162.38H628.793V1161.38H627.793ZM615.973 1161.38H614.973V1162.38H615.973V1161.38ZM615.973 1152.8V1151.8H614.973V1152.8H615.973ZM627.793 1152.8H628.793V1151.8H627.793V1152.8ZM627.793 1196V1197H628.793V1196H627.793ZM615.973 1196H614.973V1197H615.973V1196ZM615.973 1165.4V1164.4H614.973V1165.4H615.973ZM627.793 1165.4H628.793V1164.4H627.793V1165.4ZM627.793 1160.38H615.973V1162.38H627.793V1160.38ZM616.973 1161.38V1152.8H614.973V1161.38H616.973ZM615.973 1153.8H627.793V1151.8H615.973V1153.8ZM626.793 1152.8V1161.38H628.793V1152.8H626.793ZM627.793 1195H615.973V1197H627.793V1195ZM616.973 1196V1165.4H614.973V1196H616.973ZM615.973 1166.4H627.793V1164.4H615.973V1166.4ZM626.793 1165.4V1196H628.793V1165.4H626.793ZM661.206 1165.94L660.699 1166.8L660.71 1166.81L661.206 1165.94ZM664.506 1169.24L663.638 1169.74L663.644 1169.75L664.506 1169.24ZM665.706 1196V1197H666.706V1196H665.706ZM653.826 1196H652.826V1197H653.826V1196ZM652.866 1174.28L652.098 1174.92L652.117 1174.94L652.138 1174.97L652.866 1174.28ZM648.366 1174.28L647.619 1173.62L647.616 1173.62L648.366 1174.28ZM647.466 1196V1197H648.466V1196H647.466ZM635.586 1196H634.586V1197H635.586V1196ZM635.586 1165.34V1164.34H634.586V1165.34H635.586ZM644.526 1165.34L645.491 1165.08L645.292 1164.34H644.526V1165.34ZM645.726 1169.78L644.761 1170.04L645.342 1172.19L646.563 1170.33L645.726 1169.78ZM656.706 1165.74C658.175 1165.74 659.499 1166.1 660.699 1166.8L661.713 1165.08C660.193 1164.18 658.517 1163.74 656.706 1163.74V1165.74ZM660.71 1166.81C661.955 1167.52 662.926 1168.49 663.638 1169.74L665.374 1168.74C664.486 1167.19 663.257 1165.96 661.702 1165.07L660.71 1166.81ZM663.644 1169.75C664.35 1170.95 664.706 1172.27 664.706 1173.74H666.706C666.706 1171.93 666.262 1170.25 665.368 1168.73L663.644 1169.75ZM664.706 1173.74V1196H666.706V1173.74H664.706ZM665.706 1195H653.826V1197H665.706V1195ZM654.826 1196V1176.8H652.826V1196H654.826ZM654.826 1176.8C654.826 1175.57 654.422 1174.47 653.594 1173.59L652.138 1174.97C652.59 1175.45 652.826 1176.03 652.826 1176.8H654.826ZM653.634 1173.64C652.858 1172.71 651.844 1172.2 650.646 1172.2V1174.2C651.208 1174.2 651.674 1174.41 652.098 1174.92L653.634 1173.64ZM650.646 1172.2C649.451 1172.2 648.428 1172.7 647.619 1173.62L649.113 1174.94C649.584 1174.42 650.081 1174.2 650.646 1174.2V1172.2ZM647.616 1173.62C646.838 1174.5 646.466 1175.58 646.466 1176.8H648.466C648.466 1176.02 648.694 1175.42 649.116 1174.94L647.616 1173.62ZM646.466 1176.8V1196H648.466V1176.8H646.466ZM647.466 1195H635.586V1197H647.466V1195ZM636.586 1196V1165.34H634.586V1196H636.586ZM635.586 1166.34H644.526V1164.34H635.586V1166.34ZM643.561 1165.6L644.761 1170.04L646.691 1169.52L645.491 1165.08L643.561 1165.6ZM646.563 1170.33C648.579 1167.25 651.365 1165.74 655.026 1165.74V1163.74C650.687 1163.74 647.273 1165.59 644.889 1169.23L646.563 1170.33ZM655.026 1165.74H656.706V1163.74H655.026V1165.74ZM705.644 1159.82H706.644V1158.82H705.644V1159.82ZM703.964 1165.16L703.222 1164.49L703.216 1164.5L703.21 1164.5L703.964 1165.16ZM699.044 1167.92L698.781 1166.96L696.851 1167.48L698.43 1168.71L699.044 1167.92ZM701.504 1170.86L700.609 1171.31L700.616 1171.32L700.622 1171.33L701.504 1170.86ZM700.784 1179.2L699.976 1178.61L699.976 1178.61L700.784 1179.2ZM696.404 1182.74L696.819 1183.65L696.827 1183.65L696.835 1183.64L696.404 1182.74ZM683.684 1184.54L684.18 1185.41L684.203 1185.4L684.225 1185.38L683.684 1184.54ZM683.564 1187.18L683.009 1188.01L683.009 1188.01L683.564 1187.18ZM703.244 1190.24L702.512 1190.92L702.52 1190.93L703.244 1190.24ZM703.964 1202.06L703.152 1201.48L703.143 1201.49L703.135 1201.5L703.964 1202.06ZM699.584 1205.84L699.137 1204.95L699.129 1204.95L699.121 1204.95L699.584 1205.84ZM672.644 1205.18L671.937 1205.89L671.947 1205.9L672.644 1205.18ZM671.864 1195.94L672.661 1196.54L672.666 1196.54L672.67 1196.53L671.864 1195.94ZM675.104 1193.24L675.528 1194.15L677.116 1193.4L675.667 1192.41L675.104 1193.24ZM673.784 1184L673.041 1183.33L673.034 1183.34L673.028 1183.35L673.784 1184ZM677.744 1181.6L677.992 1182.57L680.184 1182.01L678.293 1180.76L677.744 1181.6ZM674.384 1178.36L673.556 1178.92L673.556 1178.92L674.384 1178.36ZM676.664 1167.44L677.27 1168.24L677.27 1168.24L676.664 1167.44ZM692.564 1165.1L692.368 1166.08L692.77 1166.16L693.114 1165.94L692.564 1165.1ZM695.804 1162.22L696.625 1162.79L696.63 1162.78L696.636 1162.77L695.804 1162.22ZM696.764 1159.82V1158.82H695.764V1159.82H696.764ZM685.364 1171.76L684.638 1171.07L684.637 1171.07L685.364 1171.76ZM685.364 1177.1L684.619 1177.77L684.637 1177.79L684.657 1177.81L685.364 1177.1ZM690.584 1177.1L689.858 1176.41L689.857 1176.41L690.584 1177.1ZM690.584 1171.76L689.839 1172.43L689.857 1172.45L689.877 1172.47L690.584 1171.76ZM681.224 1196.72L680.599 1195.94L680.586 1195.95L680.573 1195.96L681.224 1196.72ZM681.224 1200.2L681.879 1199.44L681.875 1199.44L681.224 1200.2ZM694.064 1200.26L693.439 1199.48L693.426 1199.49L693.413 1199.5L694.064 1200.26ZM694.064 1196.72L694.719 1195.96L694.715 1195.96L694.064 1196.72ZM704.644 1159.82C704.644 1161.99 704.121 1163.49 703.222 1164.49L704.706 1165.83C706.047 1164.35 706.644 1162.29 706.644 1159.82H704.644ZM703.21 1164.5C702.301 1165.55 700.862 1166.39 698.781 1166.96L699.307 1168.88C701.626 1168.25 703.467 1167.25 704.718 1165.82L703.21 1164.5ZM698.43 1168.71C699.403 1169.47 700.122 1170.33 700.609 1171.31L702.398 1170.41C701.766 1169.15 700.845 1168.05 699.658 1167.13L698.43 1168.71ZM700.622 1171.33C701.149 1172.32 701.404 1173.31 701.404 1174.34H703.404C703.404 1172.97 703.058 1171.64 702.385 1170.39L700.622 1171.33ZM701.404 1174.34C701.404 1175.88 700.937 1177.29 699.976 1178.61L701.592 1179.79C702.791 1178.15 703.404 1176.32 703.404 1174.34H701.404ZM699.976 1178.61C699.004 1179.94 697.68 1181.02 695.972 1181.84L696.835 1183.64C698.808 1182.7 700.403 1181.42 701.592 1179.79L699.976 1178.61ZM695.989 1181.83C694.288 1182.61 692.431 1183 690.404 1183V1185C692.697 1185 694.84 1184.55 696.819 1183.65L695.989 1181.83ZM690.404 1183H686.264V1185H690.404V1183ZM686.264 1183C685.037 1183 683.945 1183.18 683.143 1183.7L684.225 1185.38C684.543 1185.18 685.171 1185 686.264 1185V1183ZM683.188 1183.67C682.404 1184.12 681.844 1184.83 681.844 1185.8H683.844C683.844 1185.73 683.844 1185.6 684.18 1185.41L683.188 1183.67ZM681.844 1185.8C681.844 1186.72 682.238 1187.5 683.009 1188.01L684.119 1186.35C683.93 1186.22 683.844 1186.08 683.844 1185.8H681.844ZM683.009 1188.01C683.411 1188.28 683.909 1188.43 684.424 1188.52C684.951 1188.62 685.569 1188.66 686.264 1188.66V1186.66C685.639 1186.66 685.147 1186.62 684.774 1186.56C684.389 1186.49 684.196 1186.4 684.119 1186.35L683.009 1188.01ZM686.264 1188.66H696.044V1186.66H686.264V1188.66ZM696.044 1188.66C699.07 1188.66 701.162 1189.47 702.512 1190.92L703.976 1189.56C702.126 1187.57 699.417 1186.66 696.044 1186.66V1188.66ZM702.52 1190.93C703.905 1192.38 704.644 1194.38 704.644 1197.02H706.644C706.644 1193.98 705.783 1191.46 703.968 1189.55L702.52 1190.93ZM704.644 1197.02C704.644 1198.6 704.158 1200.07 703.152 1201.48L704.776 1202.64C706.01 1200.93 706.644 1199.04 706.644 1197.02H704.644ZM703.135 1201.5C702.158 1202.95 700.833 1204.1 699.137 1204.95L700.031 1206.73C702.015 1205.74 703.61 1204.37 704.793 1202.62L703.135 1201.5ZM699.121 1204.95C697.427 1205.84 695.606 1206.28 693.644 1206.28V1208.28C695.921 1208.28 698.061 1207.76 700.046 1206.73L699.121 1204.95ZM693.644 1206.28H677.744V1208.28H693.644V1206.28ZM677.744 1206.28C676.051 1206.28 674.599 1205.69 673.341 1204.46L671.947 1205.9C673.568 1207.47 675.516 1208.28 677.744 1208.28V1206.28ZM673.351 1204.47C672.141 1203.26 671.544 1201.82 671.544 1200.08H669.544C669.544 1202.34 670.347 1204.3 671.937 1205.89L673.351 1204.47ZM671.544 1200.08V1199.78H669.544V1200.08H671.544ZM671.544 1199.78C671.544 1198.61 671.907 1197.54 672.661 1196.54L671.067 1195.34C670.061 1196.66 669.544 1198.15 669.544 1199.78H671.544ZM672.67 1196.53C673.457 1195.46 674.408 1194.67 675.528 1194.15L674.679 1192.33C673.24 1193.01 672.031 1194.02 671.058 1195.35L672.67 1196.53ZM675.667 1192.41C674.913 1191.9 674.318 1191.25 673.874 1190.47L672.133 1191.45C672.729 1192.51 673.535 1193.38 674.541 1194.07L675.667 1192.41ZM673.874 1190.47C673.438 1189.7 673.224 1188.88 673.224 1188.02H671.224C671.224 1189.24 671.53 1190.38 672.133 1191.45L673.874 1190.47ZM673.224 1188.02C673.224 1186.8 673.645 1185.69 674.54 1184.65L673.028 1183.35C671.843 1184.71 671.224 1186.28 671.224 1188.02H673.224ZM674.527 1184.67C675.476 1183.62 676.624 1182.92 677.992 1182.57L677.496 1180.63C675.744 1181.08 674.252 1181.98 673.041 1183.33L674.527 1184.67ZM678.293 1180.76C676.99 1179.91 675.97 1178.92 675.212 1177.8L673.556 1178.92C674.478 1180.28 675.698 1181.45 677.195 1182.44L678.293 1180.76ZM675.212 1177.8C674.476 1176.71 674.124 1175.59 674.124 1174.4H672.124C672.124 1176.01 672.612 1177.53 673.556 1178.92L675.212 1177.8ZM674.124 1174.4C674.124 1171.89 675.145 1169.86 677.27 1168.24L676.057 1166.64C673.463 1168.62 672.124 1171.23 672.124 1174.4H674.124ZM677.27 1168.24C679.387 1166.62 682.557 1165.74 686.924 1165.74V1163.74C682.331 1163.74 678.66 1164.66 676.057 1166.64L677.27 1168.24ZM686.924 1165.74H688.604V1163.74H686.924V1165.74ZM688.604 1165.74C689.989 1165.74 691.242 1165.86 692.368 1166.08L692.76 1164.12C691.485 1163.86 690.099 1163.74 688.604 1163.74V1165.74ZM693.114 1165.94C694.682 1164.9 695.881 1163.86 696.625 1162.79L694.983 1161.65C694.447 1162.42 693.486 1163.3 692.014 1164.26L693.114 1165.94ZM696.636 1162.77C697.309 1161.76 697.764 1160.76 697.764 1159.82H695.764C695.764 1160.16 695.579 1160.76 694.972 1161.67L696.636 1162.77ZM696.764 1160.82H705.644V1158.82H696.764V1160.82ZM688.004 1169.62C686.687 1169.62 685.545 1170.11 684.638 1171.07L686.09 1172.45C686.622 1171.89 687.241 1171.62 688.004 1171.62V1169.62ZM684.637 1171.07C683.772 1171.99 683.344 1173.12 683.344 1174.4H685.344C685.344 1173.6 685.596 1172.97 686.091 1172.45L684.637 1171.07ZM683.344 1174.4C683.344 1175.68 683.771 1176.82 684.619 1177.77L686.109 1176.43C685.597 1175.86 685.344 1175.2 685.344 1174.4H683.344ZM684.657 1177.81C685.569 1178.72 686.705 1179.18 688.004 1179.18V1177.18C687.223 1177.18 686.599 1176.92 686.071 1176.39L684.657 1177.81ZM688.004 1179.18C689.304 1179.18 690.432 1178.72 691.311 1177.79L689.857 1176.41C689.376 1176.92 688.784 1177.18 688.004 1177.18V1179.18ZM691.31 1177.79C692.205 1176.84 692.664 1175.7 692.664 1174.4H690.664C690.664 1175.18 690.403 1175.84 689.858 1176.41L691.31 1177.79ZM692.664 1174.4C692.664 1173.1 692.203 1171.96 691.291 1171.05L689.877 1172.47C690.405 1173 690.664 1173.62 690.664 1174.4H692.664ZM691.329 1171.09C690.455 1170.12 689.322 1169.62 688.004 1169.62V1171.62C688.766 1171.62 689.353 1171.88 689.839 1172.43L691.329 1171.09ZM683.384 1195C682.339 1195 681.393 1195.3 680.599 1195.94L681.849 1197.5C682.254 1197.18 682.748 1197 683.384 1197V1195ZM680.573 1195.96C679.813 1196.61 679.384 1197.46 679.384 1198.46H681.384C681.384 1198.1 681.515 1197.79 681.875 1197.48L680.573 1195.96ZM679.384 1198.46C679.384 1199.46 679.813 1200.31 680.573 1200.96L681.875 1199.44C681.515 1199.13 681.384 1198.82 681.384 1198.46H679.384ZM680.569 1200.96C681.362 1201.64 682.318 1201.98 683.384 1201.98V1199.98C682.769 1199.98 682.286 1199.8 681.879 1199.44L680.569 1200.96ZM683.384 1201.98H691.964V1199.98H683.384V1201.98ZM691.964 1201.98C693.007 1201.98 693.948 1201.68 694.715 1201.02L693.413 1199.5C693.059 1199.8 692.6 1199.98 691.964 1199.98V1201.98ZM694.689 1201.04C695.491 1200.4 695.964 1199.55 695.964 1198.52H693.964C693.964 1198.85 693.837 1199.16 693.439 1199.48L694.689 1201.04ZM695.964 1198.52C695.964 1197.5 695.497 1196.64 694.719 1195.96L693.409 1197.48C693.83 1197.84 693.964 1198.18 693.964 1198.52H695.964ZM694.715 1195.96C693.948 1195.3 693.007 1195 691.964 1195V1197C692.6 1197 693.059 1197.18 693.413 1197.48L694.715 1195.96ZM691.964 1195H683.384V1197H691.964V1195ZM747.957 1155.98L747.491 1156.86L747.501 1156.87L747.51 1156.87L747.957 1155.98ZM753.117 1160.66L752.26 1161.17L752.264 1161.18L752.268 1161.19L753.117 1160.66ZM752.757 1175L753.567 1175.59L753.572 1175.58L752.757 1175ZM745.797 1181.36L745.226 1180.54L745.226 1180.54L745.797 1181.36ZM739.257 1185.92L738.686 1185.1L736.075 1186.92H739.257V1185.92ZM755.037 1185.92H756.037V1184.92H755.037V1185.92ZM755.037 1196V1197H756.037V1196H755.037ZM722.937 1196H721.937V1197H722.937V1196ZM724.017 1187.96L724.929 1188.37L724.929 1188.37L724.017 1187.96ZM727.737 1183.46L727.119 1182.67L727.115 1182.68L727.737 1183.46ZM739.617 1174.1L740.236 1174.89L740.24 1174.88L739.617 1174.1ZM741.597 1164.86L740.873 1165.55L740.89 1165.57L740.908 1165.58L741.597 1164.86ZM734.877 1164.8L734.188 1164.08L734.179 1164.08L734.17 1164.09L734.877 1164.8ZM733.677 1169.48V1170.48H734.677V1169.48H733.677ZM723.117 1169.48H722.117V1170.48H723.117V1169.48ZM724.917 1161.2L725.788 1161.69L725.792 1161.69L724.917 1161.2ZM730.197 1156.1L729.726 1155.22L729.726 1155.22L730.197 1156.1ZM740.277 1155.24C743.063 1155.24 745.458 1155.79 747.491 1156.86L748.424 1155.1C746.057 1153.85 743.332 1153.24 740.277 1153.24V1155.24ZM747.51 1156.87C749.593 1157.92 751.165 1159.35 752.26 1161.17L753.975 1160.15C752.67 1157.97 750.802 1156.28 748.405 1155.09L747.51 1156.87ZM752.268 1161.19C753.399 1163.01 753.977 1165.13 753.977 1167.56H755.977C755.977 1164.79 755.316 1162.31 753.967 1160.13L752.268 1161.19ZM753.977 1167.56C753.977 1170.26 753.287 1172.53 751.943 1174.42L753.572 1175.58C755.188 1173.31 755.977 1170.62 755.977 1167.56H753.977ZM751.948 1174.41C750.559 1176.33 748.338 1178.37 745.226 1180.54L746.369 1182.18C749.577 1179.95 751.996 1177.75 753.567 1175.59L751.948 1174.41ZM745.226 1180.54L738.686 1185.1L739.829 1186.74L746.369 1182.18L745.226 1180.54ZM739.257 1186.92H755.037V1184.92H739.257V1186.92ZM754.037 1185.92V1196H756.037V1185.92H754.037ZM755.037 1195H722.937V1197H755.037V1195ZM723.937 1196V1193.84H721.937V1196H723.937ZM723.937 1193.84C723.937 1191.62 724.283 1189.81 724.929 1188.37L723.106 1187.55C722.312 1189.31 721.937 1191.42 721.937 1193.84H723.937ZM724.929 1188.37C725.568 1186.95 726.691 1185.57 728.36 1184.24L727.115 1182.68C725.264 1184.15 723.907 1185.77 723.106 1187.55L724.929 1188.37ZM728.356 1184.25L740.236 1174.89L738.999 1173.31L727.119 1182.67L728.356 1184.25ZM740.24 1174.88C742.608 1173 743.857 1170.62 743.857 1167.8H741.857C741.857 1169.94 740.947 1171.76 738.995 1173.32L740.24 1174.88ZM743.857 1167.8C743.857 1166.37 743.325 1165.12 742.287 1164.14L740.908 1165.58C741.55 1166.2 741.857 1166.91 741.857 1167.8H743.857ZM742.322 1164.17C741.333 1163.13 740.091 1162.6 738.657 1162.6V1164.6C739.544 1164.6 740.262 1164.91 740.873 1165.55L742.322 1164.17ZM738.657 1162.6H737.877V1164.6H738.657V1162.6ZM737.877 1162.6C736.461 1162.6 735.214 1163.1 734.188 1164.08L735.567 1165.52C736.221 1164.9 736.974 1164.6 737.877 1164.6V1162.6ZM734.17 1164.09C733.171 1165.09 732.677 1166.35 732.677 1167.8H734.677C734.677 1166.85 734.984 1166.11 735.585 1165.51L734.17 1164.09ZM732.677 1167.8V1169.48H734.677V1167.8H732.677ZM733.677 1168.48H723.117V1170.48H733.677V1168.48ZM724.117 1169.48V1168.34H722.117V1169.48H724.117ZM724.117 1168.34C724.117 1165.86 724.68 1163.65 725.788 1161.69L724.047 1160.71C722.755 1162.99 722.117 1165.54 722.117 1168.34H724.117ZM725.792 1161.69C726.892 1159.7 728.507 1158.14 730.669 1156.98L729.726 1155.22C727.248 1156.54 725.343 1158.38 724.043 1160.71L725.792 1161.69ZM730.669 1156.98C732.817 1155.83 735.389 1155.24 738.417 1155.24V1153.24C735.126 1153.24 732.218 1153.89 729.726 1155.22L730.669 1156.98ZM738.417 1155.24H740.277V1153.24H738.417V1155.24ZM786.852 1156.28L786.339 1157.14L786.348 1157.14L786.357 1157.15L786.852 1156.28ZM792.312 1161.74L791.442 1162.23L791.447 1162.24L791.453 1162.25L792.312 1161.74ZM792.312 1189.16L791.449 1188.65L791.446 1188.66L792.312 1189.16ZM786.852 1194.62L787.353 1195.49L787.357 1195.48L786.852 1194.62ZM769.092 1194.62L768.579 1195.48L768.588 1195.48L768.597 1195.49L769.092 1194.62ZM763.632 1189.16L762.762 1189.65L762.767 1189.66L762.773 1189.67L763.632 1189.16ZM763.632 1161.74L762.769 1161.23L762.766 1161.24L763.632 1161.74ZM769.092 1156.28L769.593 1157.15L769.597 1157.14L769.092 1156.28ZM774.792 1164.32L774.054 1163.64L774.053 1163.65L774.792 1164.32ZM774.792 1186.52L774.039 1187.18L774.054 1187.2L774.069 1187.21L774.792 1186.52ZM781.152 1186.52L780.414 1185.84L780.413 1185.85L781.152 1186.52ZM781.152 1164.32L780.399 1164.98L780.414 1165L780.429 1165.01L781.152 1164.32ZM779.352 1155.24C781.896 1155.24 784.218 1155.87 786.339 1157.14L787.364 1155.42C784.925 1153.97 782.247 1153.24 779.352 1153.24V1155.24ZM786.357 1157.15C788.521 1158.38 790.211 1160.07 791.442 1162.23L793.181 1161.25C791.772 1158.77 789.822 1156.82 787.346 1155.41L786.357 1157.15ZM791.453 1162.25C792.718 1164.37 793.352 1166.7 793.352 1169.24H795.352C795.352 1166.34 794.625 1163.67 793.17 1161.23L791.453 1162.25ZM793.352 1169.24V1181.6H795.352V1169.24H793.352ZM793.352 1181.6C793.352 1184.14 792.718 1186.49 791.449 1188.65L793.174 1189.67C794.625 1187.19 795.352 1184.5 795.352 1181.6H793.352ZM791.446 1188.66C790.215 1190.79 788.52 1192.48 786.346 1193.76L787.357 1195.48C789.823 1194.04 791.769 1192.09 793.177 1189.66L791.446 1188.66ZM786.351 1193.75C784.228 1194.98 781.902 1195.6 779.352 1195.6V1197.6C782.242 1197.6 784.915 1196.9 787.353 1195.49L786.351 1193.75ZM779.352 1195.6H776.652V1197.6H779.352V1195.6ZM776.652 1195.6C774.102 1195.6 771.752 1194.98 769.586 1193.75L768.597 1195.49C771.071 1196.9 773.762 1197.6 776.652 1197.6V1195.6ZM769.604 1193.76C767.466 1192.49 765.765 1190.79 764.49 1188.65L762.773 1189.67C764.218 1192.09 766.157 1194.03 768.579 1195.48L769.604 1193.76ZM764.501 1188.67C763.268 1186.5 762.652 1184.15 762.652 1181.6H760.652C760.652 1184.49 761.355 1187.18 762.762 1189.65L764.501 1188.67ZM762.652 1181.6V1169.24H760.652V1181.6H762.652ZM762.652 1169.24C762.652 1166.69 763.268 1164.36 764.497 1162.24L762.766 1161.24C761.355 1163.68 760.652 1166.35 760.652 1169.24H762.652ZM764.494 1162.25C765.769 1160.07 767.465 1158.38 769.593 1157.15L768.591 1155.41C766.158 1156.82 764.214 1158.77 762.769 1161.23L764.494 1162.25ZM769.597 1157.14C771.762 1155.87 774.107 1155.24 776.652 1155.24V1153.24C773.756 1153.24 771.061 1153.97 768.586 1155.42L769.597 1157.14ZM776.652 1155.24H779.352V1153.24H776.652V1155.24ZM778.032 1161.88C776.466 1161.88 775.12 1162.48 774.054 1163.64L775.529 1165C776.223 1164.24 777.037 1163.88 778.032 1163.88V1161.88ZM774.053 1163.65C773.034 1164.76 772.532 1166.13 772.532 1167.68H774.532C774.532 1166.59 774.869 1165.72 775.53 1164.99L774.053 1163.65ZM772.532 1167.68V1183.1H774.532V1167.68H772.532ZM772.532 1183.1C772.532 1184.65 773.034 1186.03 774.039 1187.18L775.544 1185.86C774.87 1185.09 774.532 1184.19 774.532 1183.1H772.532ZM774.069 1187.21C775.132 1188.32 776.451 1188.9 777.972 1188.9V1186.9C777.013 1186.9 776.211 1186.56 775.514 1185.83L774.069 1187.21ZM777.972 1188.9C779.524 1188.9 780.855 1188.33 781.89 1187.19L780.413 1185.85C779.768 1186.55 778.979 1186.9 777.972 1186.9V1188.9ZM781.889 1187.2C782.94 1186.05 783.472 1184.67 783.472 1183.1H781.472C781.472 1184.17 781.123 1185.07 780.414 1185.84L781.889 1187.2ZM783.472 1183.1V1167.68H781.472V1183.1H783.472ZM783.472 1167.68C783.472 1166.11 782.939 1164.74 781.874 1163.63L780.429 1165.01C781.124 1165.74 781.472 1166.61 781.472 1167.68H783.472ZM781.904 1163.66C780.881 1162.49 779.569 1161.88 778.032 1161.88V1163.88C778.974 1163.88 779.743 1164.23 780.399 1164.98L781.904 1163.66ZM834.986 1154.84L835.84 1155.36L836.764 1153.84H834.986V1154.84ZM809.966 1196V1197H810.528L810.82 1196.52L809.966 1196ZM804.266 1196L803.412 1195.48L802.483 1197H804.266V1196ZM829.406 1154.84V1153.84H828.845L828.552 1154.32L829.406 1154.84ZM813.806 1157.06L813.098 1157.77L813.108 1157.78L813.806 1157.06ZM813.806 1173.62L813.108 1172.9L813.099 1172.91L813.806 1173.62ZM802.046 1173.62L802.753 1172.91L802.753 1172.91L802.046 1173.62ZM802.046 1157.06L801.339 1156.35L801.339 1156.35L802.046 1157.06ZM806.366 1159.82L805.659 1159.11L805.659 1159.11L806.366 1159.82ZM806.366 1170.8L805.659 1171.51L805.659 1171.51L806.366 1170.8ZM809.486 1170.8L808.779 1170.09L808.762 1170.11L808.746 1170.13L809.486 1170.8ZM809.486 1159.82L808.746 1160.49L808.762 1160.51L808.779 1160.53L809.486 1159.82ZM837.206 1177.28L836.498 1177.99L836.508 1178L837.206 1177.28ZM838.406 1192.34L839.26 1192.86L839.264 1192.85L839.268 1192.85L838.406 1192.34ZM835.646 1195.04L835.14 1194.18L835.133 1194.18L835.127 1194.19L835.646 1195.04ZM825.446 1193.9L824.729 1194.6L824.739 1194.61L825.446 1193.9ZM829.766 1180.1L830.473 1180.81L830.488 1180.79L830.503 1180.78L829.766 1180.1ZM829.766 1191.08L829.028 1191.76L829.043 1191.77L829.059 1191.79L829.766 1191.08ZM832.886 1191.08L832.148 1190.4L832.146 1190.41L832.886 1191.08ZM832.886 1180.1L832.117 1180.74L832.146 1180.78L832.179 1180.81L832.886 1180.1ZM834.131 1154.32L809.111 1195.48L810.82 1196.52L835.84 1155.36L834.131 1154.32ZM809.966 1195H804.266V1197H809.966V1195ZM805.119 1196.52L830.259 1155.36L828.552 1154.32L803.412 1195.48L805.119 1196.52ZM829.406 1155.84H834.986V1153.84H829.406V1155.84ZM808.586 1155.9C810.361 1155.9 811.846 1156.52 813.099 1157.77L814.513 1156.35C812.885 1154.72 810.89 1153.9 808.586 1153.9V1155.9ZM813.108 1157.78C814.397 1159.03 815.026 1160.51 815.026 1162.28H817.026C817.026 1159.97 816.174 1157.97 814.503 1156.34L813.108 1157.78ZM815.026 1162.28V1168.4H817.026V1162.28H815.026ZM815.026 1168.4C815.026 1170.17 814.397 1171.65 813.108 1172.9L814.503 1174.34C816.174 1172.71 817.026 1170.71 817.026 1168.4H815.026ZM813.099 1172.91C811.846 1174.16 810.361 1174.78 808.586 1174.78V1176.78C810.89 1176.78 812.885 1175.96 814.513 1174.33L813.099 1172.91ZM808.586 1174.78H807.266V1176.78H808.586V1174.78ZM807.266 1174.78C805.49 1174.78 804.005 1174.16 802.753 1172.91L801.339 1174.33C802.966 1175.96 804.961 1176.78 807.266 1176.78V1174.78ZM802.753 1172.91C801.501 1171.66 800.886 1170.18 800.886 1168.4H798.886C798.886 1170.7 799.711 1172.7 801.339 1174.33L802.753 1172.91ZM800.886 1168.4V1162.28H798.886V1168.4H800.886ZM800.886 1162.28C800.886 1160.5 801.501 1159.02 802.753 1157.77L801.339 1156.35C799.711 1157.98 798.886 1159.98 798.886 1162.28H800.886ZM802.753 1157.77C804.005 1156.52 805.49 1155.9 807.266 1155.9V1153.9C804.961 1153.9 802.966 1154.72 801.339 1156.35L802.753 1157.77ZM807.266 1155.9H808.586V1153.9H807.266V1155.9ZM807.926 1158.16C807.05 1158.16 806.278 1158.49 805.659 1159.11L807.073 1160.53C807.333 1160.27 807.602 1160.16 807.926 1160.16V1158.16ZM805.659 1159.11C805.013 1159.76 804.706 1160.58 804.706 1161.5H806.706C806.706 1161.06 806.839 1160.76 807.073 1160.53L805.659 1159.11ZM804.706 1161.5V1169.12H806.706V1161.5H804.706ZM804.706 1169.12C804.706 1170.04 805.013 1170.86 805.659 1171.51L807.073 1170.09C806.839 1169.86 806.706 1169.56 806.706 1169.12H804.706ZM805.659 1171.51C806.278 1172.13 807.05 1172.46 807.926 1172.46V1170.46C807.602 1170.46 807.333 1170.35 807.073 1170.09L805.659 1171.51ZM807.926 1172.46C808.823 1172.46 809.62 1172.14 810.226 1171.47L808.746 1170.13C808.551 1170.34 808.308 1170.46 807.926 1170.46V1172.46ZM810.193 1171.51C810.839 1170.86 811.146 1170.04 811.146 1169.12H809.146C809.146 1169.56 809.013 1169.86 808.779 1170.09L810.193 1171.51ZM811.146 1169.12V1161.5H809.146V1169.12H811.146ZM811.146 1161.5C811.146 1160.58 810.839 1159.76 810.193 1159.11L808.779 1160.53C809.013 1160.76 809.146 1161.06 809.146 1161.5H811.146ZM810.226 1159.15C809.62 1158.48 808.823 1158.16 807.926 1158.16V1160.16C808.308 1160.16 808.551 1160.28 808.746 1160.49L810.226 1159.15ZM831.986 1176.12C833.761 1176.12 835.246 1176.74 836.499 1177.99L837.913 1176.57C836.285 1174.94 834.29 1174.12 831.986 1174.12V1176.12ZM836.508 1178C837.797 1179.25 838.426 1180.73 838.426 1182.5H840.426C840.426 1180.19 839.574 1178.19 837.903 1176.56L836.508 1178ZM838.426 1182.5V1188.62H840.426V1182.5H838.426ZM838.426 1188.62C838.426 1189.76 838.135 1190.82 837.543 1191.83L839.268 1192.85C840.036 1191.54 840.426 1190.12 840.426 1188.62H838.426ZM837.551 1191.82C836.959 1192.8 836.161 1193.58 835.14 1194.18L836.151 1195.9C837.45 1195.14 838.492 1194.12 839.26 1192.86L837.551 1191.82ZM835.127 1194.19C834.164 1194.77 833.124 1195.06 831.986 1195.06V1197.06C833.487 1197.06 834.887 1196.67 836.165 1195.89L835.127 1194.19ZM831.986 1195.06H830.666V1197.06H831.986V1195.06ZM830.666 1195.06C828.89 1195.06 827.405 1194.44 826.153 1193.19L824.739 1194.61C826.366 1196.24 828.361 1197.06 830.666 1197.06V1195.06ZM826.162 1193.2C824.902 1191.91 824.286 1190.4 824.286 1188.62H822.286C822.286 1190.92 823.11 1192.93 824.729 1194.6L826.162 1193.2ZM824.286 1188.62V1182.5H822.286V1188.62H824.286ZM824.286 1182.5C824.286 1180.72 824.901 1179.24 826.153 1177.99L824.739 1176.57C823.111 1178.2 822.286 1180.2 822.286 1182.5H824.286ZM826.153 1177.99C827.405 1176.74 828.89 1176.12 830.666 1176.12V1174.12C828.361 1174.12 826.366 1174.94 824.739 1176.57L826.153 1177.99ZM830.666 1176.12H831.986V1174.12H830.666V1176.12ZM831.326 1178.38C830.42 1178.38 829.64 1178.76 829.028 1179.42L830.503 1180.78C830.771 1180.48 831.032 1180.38 831.326 1180.38V1178.38ZM829.059 1179.39C828.413 1180.04 828.106 1180.86 828.106 1181.78H830.106C830.106 1181.34 830.239 1181.04 830.473 1180.81L829.059 1179.39ZM828.106 1181.78V1189.4H830.106V1181.78H828.106ZM828.106 1189.4C828.106 1190.29 828.423 1191.09 829.028 1191.76L830.503 1190.4C830.229 1190.11 830.106 1189.79 830.106 1189.4H828.106ZM829.059 1191.79C829.678 1192.41 830.45 1192.74 831.326 1192.74V1190.74C831.002 1190.74 830.733 1190.63 830.473 1190.37L829.059 1191.79ZM831.326 1192.74C832.223 1192.74 833.02 1192.42 833.626 1191.75L832.146 1190.41C831.951 1190.62 831.708 1190.74 831.326 1190.74V1192.74ZM833.623 1191.76C834.229 1191.09 834.546 1190.29 834.546 1189.4H832.546C832.546 1189.79 832.423 1190.11 832.148 1190.4L833.623 1191.76ZM834.546 1189.4V1181.78H832.546V1189.4H834.546ZM834.546 1181.78C834.546 1180.86 834.239 1180.04 833.593 1179.39L832.179 1180.81C832.413 1181.04 832.546 1181.34 832.546 1181.78H834.546ZM833.654 1179.46C833.059 1178.75 832.254 1178.38 831.326 1178.38V1180.38C831.677 1180.38 831.913 1180.49 832.117 1180.74L833.654 1179.46Z" fill="black" mask="url(#path-8-outside-2_670_146)"/>
<path d="M1131.33 391C1131.33 383.636 1125.36 377.667 1118 377.667C1110.64 377.667 1104.67 383.636 1104.67 391C1104.67 398.364 1110.64 404.333 1118 404.333C1125.36 404.333 1131.33 398.364 1131.33 391ZM869.371 1227V1229.5H871.236L871.768 1227.71L869.371 1227ZM436 1224.5C434.619 1224.5 433.5 1225.62 433.5 1227C433.5 1228.38 434.619 1229.5 436 1229.5V1224.5ZM1115.6 390.287L866.975 1226.29L871.768 1227.71L1120.4 391.713L1115.6 390.287ZM869.371 1224.5H436V1229.5H869.371V1224.5Z" fill="white"/>
</svg>
