<svg width="1374" height="1360" viewBox="0 0 1374 1360" fill="none" xmlns="http://www.w3.org/2000/svg">
<path d="M694 0C766.809 8.68234e-07 839.145 11.6931 908.245 34.6326L822.547 292.78C781.087 279.016 737.685 272 694 272V0Z" fill="#5F52F1"/>
<path d="M566.582 12.0444C608.582 4.03259 651.244 -8.20618e-05 694.001 1.2524e-09L694.001 272C668.346 272 642.749 274.42 617.549 279.227L566.582 12.0444Z" fill="#01D3EC"/>
<path d="M143.868 280.306C245.53 140.382 396.689 44.4531 566.581 12.0446L617.549 279.227C515.613 298.672 424.918 356.229 363.921 440.184L143.868 280.306Z" fill="#8CC0B9"/>
<path d="M907.729 34.4616C1044.05 79.5968 1162.59 166.731 1246.35 283.375C1330.11 400.02 1374.79 540.187 1373.99 683.786L1101.99 682.272C1102.47 596.112 1075.66 512.012 1025.41 442.025C975.154 372.039 904.032 319.758 822.238 292.677L907.729 34.4616Z" fill="#FFE657"/>
<path d="M1374 680C1374 823.602 1328.54 963.518 1244.13 1079.69L1024.08 919.816C1074.72 850.111 1102 766.161 1102 680H1374Z" fill="#525775"/>
<path d="M1244.13 1079.69C1181.06 1166.51 1098.33 1237.17 1002.71 1285.88C907.099 1334.6 801.311 1360 694 1360C586.689 1360 480.901 1334.6 385.286 1285.88C289.671 1237.17 206.944 1166.51 143.868 1079.69L363.921 919.816C401.766 971.906 451.403 1014.3 508.772 1043.53C566.141 1072.76 629.613 1088 694 1088C758.387 1088 821.859 1072.76 879.228 1043.53C936.597 1014.3 986.233 971.906 1024.08 919.816L1244.13 1079.69Z" fill="#9F8CC0"/>
<mask id="path-7-outside-1_661_101" maskUnits="userSpaceOnUse" x="0" y="266" width="378" height="828" fill="black">
<rect fill="white" y="266" width="378" height="828"/>
<path d="M143.868 1079.69C59.4613 963.518 14 823.602 14 680C14 536.398 59.4614 396.482 143.869 280.306L363.921 440.183C313.277 509.889 286 593.839 286 680C286 766.161 313.277 850.111 363.921 919.816L143.868 1079.69Z"/>
</mask>
<path d="M143.868 1079.69C59.4613 963.518 14 823.602 14 680C14 536.398 59.4614 396.482 143.869 280.306L363.921 440.183C313.277 509.889 286 593.839 286 680C286 766.161 313.277 850.111 363.921 919.816L143.868 1079.69Z" fill="#FF4059"/>
<path d="M143.868 1079.69C59.4613 963.518 14 823.602 14 680C14 536.398 59.4614 396.482 143.869 280.306L363.921 440.183C313.277 509.889 286 593.839 286 680C286 766.161 313.277 850.111 363.921 919.816L143.868 1079.69Z" stroke="#30324F" stroke-width="28" stroke-linejoin="round" mask="url(#path-7-outside-1_661_101)"/>
<mask id="path-8-outside-2_661_101" maskUnits="userSpaceOnUse" x="390" y="161" width="501" height="43" fill="black">
<rect fill="white" x="390" y="161" width="501" height="43"/>
<path d="M411.329 164.27C413.419 164.27 415.344 164.783 417.104 165.81C418.901 166.837 420.312 168.248 421.339 170.045C422.366 171.805 422.879 173.73 422.879 175.82V177.03C422.879 179.12 422.366 181.063 421.339 182.86C420.312 184.62 418.901 186.013 417.104 187.04C415.344 188.067 413.419 188.58 411.329 188.58H402.804V202H391.254V164.27H411.329ZM402.804 180.165H407.864C408.891 180.165 409.697 179.835 410.284 179.175C410.871 178.478 411.164 177.708 411.164 176.865V176.205C411.164 175.362 410.871 174.61 410.284 173.95C409.734 173.253 408.927 172.905 407.864 172.905H402.804V180.165ZM438.803 170.265H427.968V162.4H438.803V170.265ZM438.803 202H427.968V173.95H438.803V202ZM465.306 173.345C466.81 173.345 468.185 173.712 469.431 174.445C470.715 175.178 471.723 176.187 472.456 177.47C473.19 178.717 473.556 180.092 473.556 181.595V202H462.666V184.4C462.666 183.483 462.373 182.713 461.786 182.09C461.236 181.43 460.558 181.1 459.751 181.1C458.945 181.1 458.248 181.43 457.661 182.09C457.111 182.713 456.836 183.483 456.836 184.4V202H445.946V173.895H454.141L455.241 177.965C457.258 174.885 460.1 173.345 463.766 173.345H465.306ZM491.411 162.4V184.345L498.561 173.895H510.991L501.146 186.6L511.156 202H498.341L493.391 194.025L491.411 195.73V202H480.521V162.4H491.411ZM529.281 173.345C531.041 173.345 532.837 173.638 534.671 174.225C536.541 174.775 538.099 175.618 539.346 176.755C540.592 177.892 541.216 179.267 541.216 180.88C541.216 181.21 541.197 181.522 541.161 181.815C541.124 182.072 541.106 182.237 541.106 182.31H532.086C532.086 181.43 531.682 180.807 530.876 180.44C530.106 180.037 529.226 179.835 528.236 179.835C525.522 179.835 524.166 180.367 524.166 181.43C524.166 182.09 524.569 182.548 525.376 182.805C526.219 183.025 527.594 183.245 529.501 183.465C531.994 183.758 534.047 184.125 535.661 184.565C537.311 185.005 538.741 185.867 539.951 187.15C541.197 188.397 541.821 190.23 541.821 192.65C541.821 196.097 540.556 198.608 538.026 200.185C535.532 201.762 532.452 202.55 528.786 202.55H525.926C523.872 202.55 521.911 202.238 520.041 201.615C518.207 200.955 516.704 199.965 515.531 198.645C514.357 197.325 513.771 195.712 513.771 193.805V193.31C513.771 193.09 513.789 192.925 513.826 192.815H522.736V193.035C522.736 194.098 523.212 194.85 524.166 195.29C525.119 195.693 526.219 195.895 527.466 195.895C528.566 195.895 529.611 195.785 530.601 195.565C531.627 195.345 532.141 194.887 532.141 194.19C532.141 193.493 531.719 193.017 530.876 192.76C530.032 192.467 528.639 192.173 526.696 191.88C524.349 191.587 522.351 191.202 520.701 190.725C519.051 190.248 517.621 189.387 516.411 188.14C515.237 186.857 514.651 185.078 514.651 182.805C514.651 180.678 515.292 178.918 516.576 177.525C517.896 176.095 519.546 175.05 521.526 174.39C523.506 173.693 525.522 173.345 527.576 173.345H529.281ZM562.093 173.345C566.347 173.345 569.592 174.17 571.828 175.82C574.102 177.47 575.238 179.615 575.238 182.255V193.86C575.238 194.557 575.403 195.07 575.733 195.4C576.063 195.73 576.467 195.895 576.943 195.895C577.64 195.895 578.282 195.73 578.868 195.4V201.285C577.695 202.128 575.843 202.55 573.313 202.55C570.967 202.55 569.115 202.165 567.758 201.395C566.402 200.588 565.558 199.488 565.228 198.095C564.055 199.452 562.753 200.533 561.323 201.34C559.93 202.147 558.207 202.55 556.153 202.55C553.22 202.55 550.837 201.982 549.003 200.845C547.17 199.708 546.253 197.472 546.253 194.135C546.253 191.605 546.968 189.662 548.398 188.305C549.828 186.912 551.863 185.958 554.503 185.445C557.18 184.895 560.572 184.62 564.678 184.62V183.025C564.678 181.998 564.33 181.192 563.633 180.605C562.973 180.018 562.13 179.725 561.103 179.725C560.26 179.725 559.453 179.982 558.683 180.495C557.95 180.972 557.583 181.577 557.583 182.31V182.53H547.133C547.097 182.42 547.078 182.163 547.078 181.76C547.078 180.183 547.61 178.772 548.673 177.525C549.773 176.242 551.313 175.233 553.293 174.5C555.31 173.73 557.638 173.345 560.278 173.345H562.093ZM564.678 189.625C562.258 189.625 560.48 189.955 559.343 190.615C558.207 191.238 557.638 192.118 557.638 193.255C557.638 195.015 558.738 195.895 560.938 195.895C561.965 195.895 562.845 195.547 563.578 194.85C564.312 194.117 564.678 193.182 564.678 192.045V189.625ZM594.545 162.4V202H583.655V162.4H594.545ZM616.811 173.345C619.635 173.345 622.055 173.895 624.071 174.995C626.125 176.058 627.683 177.543 628.746 179.45C629.846 181.357 630.396 183.538 630.396 185.995V189.405H612.081V192.045C612.081 193.292 612.466 194.245 613.236 194.905C614.043 195.565 615.07 195.895 616.316 195.895C617.6 195.895 618.571 195.51 619.231 194.74C619.928 193.933 620.276 192.833 620.276 191.44H630.341C630.341 193.53 629.791 195.418 628.691 197.105C627.628 198.792 626.051 200.13 623.961 201.12C621.908 202.073 619.47 202.55 616.646 202.55H615.821C612.888 202.55 610.248 202.018 607.901 200.955C605.591 199.855 603.758 198.278 602.401 196.225C601.081 194.135 600.421 191.66 600.421 188.8V187.095C600.421 184.235 601.045 181.778 602.291 179.725C603.575 177.635 605.353 176.058 607.626 174.995C609.9 173.895 612.503 173.345 615.436 173.345H616.811ZM615.876 180C614.813 180 613.915 180.385 613.181 181.155C612.448 181.888 612.081 182.787 612.081 183.85V184.62H619.671V183.85C619.671 182.787 619.305 181.888 618.571 181.155C617.838 180.385 616.94 180 615.876 180ZM662.075 163.72C663.028 163.72 663.945 163.775 664.825 163.885V172.135C664.201 171.952 663.67 171.86 663.23 171.86C662.093 171.86 661.14 172.172 660.37 172.795C659.6 173.418 659.215 174.28 659.215 175.38C659.215 176.187 659.508 176.975 660.095 177.745C660.681 178.478 661.561 178.845 662.735 178.845H669.39L672.36 172.3H679.895V178.845H684.295V186.655H679.895V202H662.35C657.95 202 654.356 201.175 651.57 199.525C648.783 197.875 647.39 195.088 647.39 191.165C647.39 186.618 649.645 183.667 654.155 182.31C652.358 181.76 650.965 180.752 649.975 179.285C649.021 177.818 648.545 176.113 648.545 174.17C648.545 171.933 649.186 170.027 650.47 168.45C651.79 166.873 653.476 165.7 655.53 164.93C657.583 164.123 659.765 163.72 662.075 163.72ZM662.735 186.655C661.195 186.655 660.076 187.077 659.38 187.92C658.683 188.727 658.335 189.57 658.335 190.45C658.335 191.733 658.775 192.723 659.655 193.42C660.571 194.08 661.69 194.41 663.01 194.41H669.005V186.655H662.735ZM714.594 192.76H728.289L729.389 202H702.934V164.27H714.594V192.76ZM754.576 164.27C756.666 164.27 758.591 164.783 760.351 165.81C762.148 166.837 763.559 168.248 764.586 170.045C765.613 171.805 766.126 173.73 766.126 175.82V177.03C766.126 179.12 765.613 181.063 764.586 182.86C763.559 184.62 762.148 186.013 760.351 187.04C758.591 188.067 756.666 188.58 754.576 188.58H746.051V202H734.501V164.27H754.576ZM746.051 180.165H751.111C752.138 180.165 752.944 179.835 753.531 179.175C754.118 178.478 754.411 177.708 754.411 176.865V176.205C754.411 175.362 754.118 174.61 753.531 173.95C752.981 173.253 752.174 172.905 751.111 172.905H746.051V180.165ZM798.516 163.72C801.193 163.72 803.54 164.252 805.556 165.315C807.61 166.342 809.186 167.772 810.286 169.605C811.423 171.438 811.991 173.547 811.991 175.93C811.991 178.57 811.313 180.843 809.956 182.75C808.6 184.62 806.473 186.563 803.576 188.58L797.581 192.76H812.046V202H782.621V200.02C782.621 197.893 782.951 196.097 783.611 194.63C784.271 193.163 785.408 191.788 787.021 190.505L797.911 181.925C799.891 180.348 800.881 178.423 800.881 176.15C800.881 175.087 800.496 174.188 799.726 173.455C798.993 172.685 798.095 172.3 797.031 172.3H796.316C795.253 172.3 794.336 172.667 793.566 173.4C792.833 174.133 792.466 175.05 792.466 176.15V177.69H782.786V176.645C782.786 174.225 783.336 172.043 784.436 170.1C785.536 168.12 787.15 166.562 789.276 165.425C791.403 164.288 793.915 163.72 796.811 163.72H798.516ZM834.334 163.72C836.828 163.72 839.119 164.343 841.209 165.59C843.336 166.8 845.004 168.468 846.214 170.595C847.461 172.685 848.084 174.977 848.084 177.47V188.8C848.084 191.293 847.461 193.603 846.214 195.73C845.004 197.82 843.336 199.488 841.209 200.735C839.119 201.945 836.828 202.55 834.334 202.55H831.859C829.366 202.55 827.056 201.945 824.929 200.735C822.839 199.488 821.171 197.82 819.924 195.73C818.714 193.603 818.109 191.293 818.109 188.8V177.47C818.109 174.977 818.714 172.685 819.924 170.595C821.171 168.468 822.839 166.8 824.929 165.59C827.056 164.343 829.366 163.72 831.859 163.72H834.334ZM833.124 171.64C831.951 171.64 830.961 172.08 830.154 172.96C829.384 173.803 828.999 174.83 828.999 176.04V190.175C828.999 191.385 829.384 192.43 830.154 193.31C830.961 194.153 831.933 194.575 833.069 194.575C834.243 194.575 835.214 194.153 835.984 193.31C836.791 192.43 837.194 191.385 837.194 190.175V176.04C837.194 174.83 836.791 173.803 835.984 172.96C835.214 172.08 834.261 171.64 833.124 171.64ZM885.332 164.27L862.397 202H857.172L880.217 164.27H885.332ZM861.132 164.325C863.002 164.325 864.597 164.985 865.917 166.305C867.274 167.625 867.952 169.22 867.952 171.09V176.7C867.952 178.57 867.274 180.165 865.917 181.485C864.597 182.805 863.002 183.465 861.132 183.465H859.922C858.052 183.465 856.457 182.805 855.137 181.485C853.817 180.165 853.157 178.57 853.157 176.7V171.09C853.157 169.22 853.817 167.625 855.137 166.305C856.457 164.985 858.052 164.325 859.922 164.325H861.132ZM860.527 168.23C859.977 168.23 859.501 168.432 859.097 168.835C858.694 169.238 858.492 169.752 858.492 170.375V177.36C858.492 177.983 858.694 178.497 859.097 178.9C859.501 179.303 859.977 179.505 860.527 179.505C861.114 179.505 861.591 179.303 861.957 178.9C862.361 178.497 862.562 177.983 862.562 177.36V170.375C862.562 169.752 862.361 169.238 861.957 168.835C861.591 168.432 861.114 168.23 860.527 168.23ZM882.582 182.86C884.452 182.86 886.047 183.52 887.367 184.84C888.724 186.16 889.402 187.755 889.402 189.625V195.235C889.402 196.445 889.091 197.582 888.467 198.645C887.844 199.672 887.001 200.497 885.937 201.12C884.911 201.743 883.792 202.055 882.582 202.055H881.372C879.502 202.055 877.907 201.395 876.587 200.075C875.267 198.718 874.607 197.105 874.607 195.235V189.625C874.607 187.755 875.267 186.16 876.587 184.84C877.907 183.52 879.502 182.86 881.372 182.86H882.582ZM881.977 186.765C881.427 186.765 880.951 186.985 880.547 187.425C880.144 187.828 879.942 188.342 879.942 188.965V195.95C879.942 196.537 880.144 197.05 880.547 197.49C880.951 197.893 881.427 198.095 881.977 198.095C882.564 198.095 883.041 197.893 883.407 197.49C883.811 197.05 884.012 196.537 884.012 195.95V188.965C884.012 188.342 883.811 187.828 883.407 187.425C883.041 186.985 882.564 186.765 881.977 186.765Z"/>
</mask>
<path d="M411.329 164.27C413.419 164.27 415.344 164.783 417.104 165.81C418.901 166.837 420.312 168.248 421.339 170.045C422.366 171.805 422.879 173.73 422.879 175.82V177.03C422.879 179.12 422.366 181.063 421.339 182.86C420.312 184.62 418.901 186.013 417.104 187.04C415.344 188.067 413.419 188.58 411.329 188.58H402.804V202H391.254V164.27H411.329ZM402.804 180.165H407.864C408.891 180.165 409.697 179.835 410.284 179.175C410.871 178.478 411.164 177.708 411.164 176.865V176.205C411.164 175.362 410.871 174.61 410.284 173.95C409.734 173.253 408.927 172.905 407.864 172.905H402.804V180.165ZM438.803 170.265H427.968V162.4H438.803V170.265ZM438.803 202H427.968V173.95H438.803V202ZM465.306 173.345C466.81 173.345 468.185 173.712 469.431 174.445C470.715 175.178 471.723 176.187 472.456 177.47C473.19 178.717 473.556 180.092 473.556 181.595V202H462.666V184.4C462.666 183.483 462.373 182.713 461.786 182.09C461.236 181.43 460.558 181.1 459.751 181.1C458.945 181.1 458.248 181.43 457.661 182.09C457.111 182.713 456.836 183.483 456.836 184.4V202H445.946V173.895H454.141L455.241 177.965C457.258 174.885 460.1 173.345 463.766 173.345H465.306ZM491.411 162.4V184.345L498.561 173.895H510.991L501.146 186.6L511.156 202H498.341L493.391 194.025L491.411 195.73V202H480.521V162.4H491.411ZM529.281 173.345C531.041 173.345 532.837 173.638 534.671 174.225C536.541 174.775 538.099 175.618 539.346 176.755C540.592 177.892 541.216 179.267 541.216 180.88C541.216 181.21 541.197 181.522 541.161 181.815C541.124 182.072 541.106 182.237 541.106 182.31H532.086C532.086 181.43 531.682 180.807 530.876 180.44C530.106 180.037 529.226 179.835 528.236 179.835C525.522 179.835 524.166 180.367 524.166 181.43C524.166 182.09 524.569 182.548 525.376 182.805C526.219 183.025 527.594 183.245 529.501 183.465C531.994 183.758 534.047 184.125 535.661 184.565C537.311 185.005 538.741 185.867 539.951 187.15C541.197 188.397 541.821 190.23 541.821 192.65C541.821 196.097 540.556 198.608 538.026 200.185C535.532 201.762 532.452 202.55 528.786 202.55H525.926C523.872 202.55 521.911 202.238 520.041 201.615C518.207 200.955 516.704 199.965 515.531 198.645C514.357 197.325 513.771 195.712 513.771 193.805V193.31C513.771 193.09 513.789 192.925 513.826 192.815H522.736V193.035C522.736 194.098 523.212 194.85 524.166 195.29C525.119 195.693 526.219 195.895 527.466 195.895C528.566 195.895 529.611 195.785 530.601 195.565C531.627 195.345 532.141 194.887 532.141 194.19C532.141 193.493 531.719 193.017 530.876 192.76C530.032 192.467 528.639 192.173 526.696 191.88C524.349 191.587 522.351 191.202 520.701 190.725C519.051 190.248 517.621 189.387 516.411 188.14C515.237 186.857 514.651 185.078 514.651 182.805C514.651 180.678 515.292 178.918 516.576 177.525C517.896 176.095 519.546 175.05 521.526 174.39C523.506 173.693 525.522 173.345 527.576 173.345H529.281ZM562.093 173.345C566.347 173.345 569.592 174.17 571.828 175.82C574.102 177.47 575.238 179.615 575.238 182.255V193.86C575.238 194.557 575.403 195.07 575.733 195.4C576.063 195.73 576.467 195.895 576.943 195.895C577.64 195.895 578.282 195.73 578.868 195.4V201.285C577.695 202.128 575.843 202.55 573.313 202.55C570.967 202.55 569.115 202.165 567.758 201.395C566.402 200.588 565.558 199.488 565.228 198.095C564.055 199.452 562.753 200.533 561.323 201.34C559.93 202.147 558.207 202.55 556.153 202.55C553.22 202.55 550.837 201.982 549.003 200.845C547.17 199.708 546.253 197.472 546.253 194.135C546.253 191.605 546.968 189.662 548.398 188.305C549.828 186.912 551.863 185.958 554.503 185.445C557.18 184.895 560.572 184.62 564.678 184.62V183.025C564.678 181.998 564.33 181.192 563.633 180.605C562.973 180.018 562.13 179.725 561.103 179.725C560.26 179.725 559.453 179.982 558.683 180.495C557.95 180.972 557.583 181.577 557.583 182.31V182.53H547.133C547.097 182.42 547.078 182.163 547.078 181.76C547.078 180.183 547.61 178.772 548.673 177.525C549.773 176.242 551.313 175.233 553.293 174.5C555.31 173.73 557.638 173.345 560.278 173.345H562.093ZM564.678 189.625C562.258 189.625 560.48 189.955 559.343 190.615C558.207 191.238 557.638 192.118 557.638 193.255C557.638 195.015 558.738 195.895 560.938 195.895C561.965 195.895 562.845 195.547 563.578 194.85C564.312 194.117 564.678 193.182 564.678 192.045V189.625ZM594.545 162.4V202H583.655V162.4H594.545ZM616.811 173.345C619.635 173.345 622.055 173.895 624.071 174.995C626.125 176.058 627.683 177.543 628.746 179.45C629.846 181.357 630.396 183.538 630.396 185.995V189.405H612.081V192.045C612.081 193.292 612.466 194.245 613.236 194.905C614.043 195.565 615.07 195.895 616.316 195.895C617.6 195.895 618.571 195.51 619.231 194.74C619.928 193.933 620.276 192.833 620.276 191.44H630.341C630.341 193.53 629.791 195.418 628.691 197.105C627.628 198.792 626.051 200.13 623.961 201.12C621.908 202.073 619.47 202.55 616.646 202.55H615.821C612.888 202.55 610.248 202.018 607.901 200.955C605.591 199.855 603.758 198.278 602.401 196.225C601.081 194.135 600.421 191.66 600.421 188.8V187.095C600.421 184.235 601.045 181.778 602.291 179.725C603.575 177.635 605.353 176.058 607.626 174.995C609.9 173.895 612.503 173.345 615.436 173.345H616.811ZM615.876 180C614.813 180 613.915 180.385 613.181 181.155C612.448 181.888 612.081 182.787 612.081 183.85V184.62H619.671V183.85C619.671 182.787 619.305 181.888 618.571 181.155C617.838 180.385 616.94 180 615.876 180ZM662.075 163.72C663.028 163.72 663.945 163.775 664.825 163.885V172.135C664.201 171.952 663.67 171.86 663.23 171.86C662.093 171.86 661.14 172.172 660.37 172.795C659.6 173.418 659.215 174.28 659.215 175.38C659.215 176.187 659.508 176.975 660.095 177.745C660.681 178.478 661.561 178.845 662.735 178.845H669.39L672.36 172.3H679.895V178.845H684.295V186.655H679.895V202H662.35C657.95 202 654.356 201.175 651.57 199.525C648.783 197.875 647.39 195.088 647.39 191.165C647.39 186.618 649.645 183.667 654.155 182.31C652.358 181.76 650.965 180.752 649.975 179.285C649.021 177.818 648.545 176.113 648.545 174.17C648.545 171.933 649.186 170.027 650.47 168.45C651.79 166.873 653.476 165.7 655.53 164.93C657.583 164.123 659.765 163.72 662.075 163.72ZM662.735 186.655C661.195 186.655 660.076 187.077 659.38 187.92C658.683 188.727 658.335 189.57 658.335 190.45C658.335 191.733 658.775 192.723 659.655 193.42C660.571 194.08 661.69 194.41 663.01 194.41H669.005V186.655H662.735ZM714.594 192.76H728.289L729.389 202H702.934V164.27H714.594V192.76ZM754.576 164.27C756.666 164.27 758.591 164.783 760.351 165.81C762.148 166.837 763.559 168.248 764.586 170.045C765.613 171.805 766.126 173.73 766.126 175.82V177.03C766.126 179.12 765.613 181.063 764.586 182.86C763.559 184.62 762.148 186.013 760.351 187.04C758.591 188.067 756.666 188.58 754.576 188.58H746.051V202H734.501V164.27H754.576ZM746.051 180.165H751.111C752.138 180.165 752.944 179.835 753.531 179.175C754.118 178.478 754.411 177.708 754.411 176.865V176.205C754.411 175.362 754.118 174.61 753.531 173.95C752.981 173.253 752.174 172.905 751.111 172.905H746.051V180.165ZM798.516 163.72C801.193 163.72 803.54 164.252 805.556 165.315C807.61 166.342 809.186 167.772 810.286 169.605C811.423 171.438 811.991 173.547 811.991 175.93C811.991 178.57 811.313 180.843 809.956 182.75C808.6 184.62 806.473 186.563 803.576 188.58L797.581 192.76H812.046V202H782.621V200.02C782.621 197.893 782.951 196.097 783.611 194.63C784.271 193.163 785.408 191.788 787.021 190.505L797.911 181.925C799.891 180.348 800.881 178.423 800.881 176.15C800.881 175.087 800.496 174.188 799.726 173.455C798.993 172.685 798.095 172.3 797.031 172.3H796.316C795.253 172.3 794.336 172.667 793.566 173.4C792.833 174.133 792.466 175.05 792.466 176.15V177.69H782.786V176.645C782.786 174.225 783.336 172.043 784.436 170.1C785.536 168.12 787.15 166.562 789.276 165.425C791.403 164.288 793.915 163.72 796.811 163.72H798.516ZM834.334 163.72C836.828 163.72 839.119 164.343 841.209 165.59C843.336 166.8 845.004 168.468 846.214 170.595C847.461 172.685 848.084 174.977 848.084 177.47V188.8C848.084 191.293 847.461 193.603 846.214 195.73C845.004 197.82 843.336 199.488 841.209 200.735C839.119 201.945 836.828 202.55 834.334 202.55H831.859C829.366 202.55 827.056 201.945 824.929 200.735C822.839 199.488 821.171 197.82 819.924 195.73C818.714 193.603 818.109 191.293 818.109 188.8V177.47C818.109 174.977 818.714 172.685 819.924 170.595C821.171 168.468 822.839 166.8 824.929 165.59C827.056 164.343 829.366 163.72 831.859 163.72H834.334ZM833.124 171.64C831.951 171.64 830.961 172.08 830.154 172.96C829.384 173.803 828.999 174.83 828.999 176.04V190.175C828.999 191.385 829.384 192.43 830.154 193.31C830.961 194.153 831.933 194.575 833.069 194.575C834.243 194.575 835.214 194.153 835.984 193.31C836.791 192.43 837.194 191.385 837.194 190.175V176.04C837.194 174.83 836.791 173.803 835.984 172.96C835.214 172.08 834.261 171.64 833.124 171.64ZM885.332 164.27L862.397 202H857.172L880.217 164.27H885.332ZM861.132 164.325C863.002 164.325 864.597 164.985 865.917 166.305C867.274 167.625 867.952 169.22 867.952 171.09V176.7C867.952 178.57 867.274 180.165 865.917 181.485C864.597 182.805 863.002 183.465 861.132 183.465H859.922C858.052 183.465 856.457 182.805 855.137 181.485C853.817 180.165 853.157 178.57 853.157 176.7V171.09C853.157 169.22 853.817 167.625 855.137 166.305C856.457 164.985 858.052 164.325 859.922 164.325H861.132ZM860.527 168.23C859.977 168.23 859.501 168.432 859.097 168.835C858.694 169.238 858.492 169.752 858.492 170.375V177.36C858.492 177.983 858.694 178.497 859.097 178.9C859.501 179.303 859.977 179.505 860.527 179.505C861.114 179.505 861.591 179.303 861.957 178.9C862.361 178.497 862.562 177.983 862.562 177.36V170.375C862.562 169.752 862.361 169.238 861.957 168.835C861.591 168.432 861.114 168.23 860.527 168.23ZM882.582 182.86C884.452 182.86 886.047 183.52 887.367 184.84C888.724 186.16 889.402 187.755 889.402 189.625V195.235C889.402 196.445 889.091 197.582 888.467 198.645C887.844 199.672 887.001 200.497 885.937 201.12C884.911 201.743 883.792 202.055 882.582 202.055H881.372C879.502 202.055 877.907 201.395 876.587 200.075C875.267 198.718 874.607 197.105 874.607 195.235V189.625C874.607 187.755 875.267 186.16 876.587 184.84C877.907 183.52 879.502 182.86 881.372 182.86H882.582ZM881.977 186.765C881.427 186.765 880.951 186.985 880.547 187.425C880.144 187.828 879.942 188.342 879.942 188.965V195.95C879.942 196.537 880.144 197.05 880.547 197.49C880.951 197.893 881.427 198.095 881.977 198.095C882.564 198.095 883.041 197.893 883.407 197.49C883.811 197.05 884.012 196.537 884.012 195.95V188.965C884.012 188.342 883.811 187.828 883.407 187.425C883.041 186.985 882.564 186.765 881.977 186.765Z" fill="white"/>
<path d="M417.104 165.81L416.6 166.674L416.608 166.678L417.104 165.81ZM421.339 170.045L420.471 170.541L420.475 170.549L421.339 170.045ZM421.339 182.86L422.203 183.364L422.207 183.356L421.339 182.86ZM417.104 187.04L416.608 186.172L416.6 186.176L417.104 187.04ZM402.804 188.58V187.58H401.804V188.58H402.804ZM402.804 202V203H403.804V202H402.804ZM391.254 202H390.254V203H391.254V202ZM391.254 164.27V163.27H390.254V164.27H391.254ZM402.804 180.165H401.804V181.165H402.804V180.165ZM410.284 179.175L411.031 179.839L411.04 179.829L411.049 179.819L410.284 179.175ZM410.284 173.95L409.499 174.57L409.517 174.593L409.536 174.614L410.284 173.95ZM402.804 172.905V171.905H401.804V172.905H402.804ZM411.329 165.27C413.247 165.27 414.997 165.739 416.6 166.674L417.608 164.946C415.691 163.828 413.591 163.27 411.329 163.27V165.27ZM416.608 166.678C418.249 167.616 419.533 168.9 420.471 170.541L422.207 169.549C421.092 167.597 419.552 166.057 417.6 164.942L416.608 166.678ZM420.475 170.549C421.41 172.152 421.879 173.902 421.879 175.82H423.879C423.879 173.558 423.321 171.458 422.203 169.541L420.475 170.549ZM421.879 175.82V177.03H423.879V175.82H421.879ZM421.879 177.03C421.879 178.948 421.41 180.72 420.471 182.364L422.207 183.356C423.321 181.407 423.879 179.292 423.879 177.03H421.879ZM420.475 182.356C419.538 183.962 418.254 185.231 416.608 186.172L417.6 187.908C419.547 186.796 421.086 185.278 422.203 183.364L420.475 182.356ZM416.6 186.176C414.997 187.111 413.247 187.58 411.329 187.58V189.58C413.591 189.58 415.691 189.022 417.608 187.904L416.6 186.176ZM411.329 187.58H402.804V189.58H411.329V187.58ZM401.804 188.58V202H403.804V188.58H401.804ZM402.804 201H391.254V203H402.804V201ZM392.254 202V164.27H390.254V202H392.254ZM391.254 165.27H411.329V163.27H391.254V165.27ZM402.804 181.165H407.864V179.165H402.804V181.165ZM407.864 181.165C409.125 181.165 410.223 180.748 411.031 179.839L409.536 178.511C409.171 178.922 408.656 179.165 407.864 179.165V181.165ZM411.049 179.819C411.774 178.958 412.164 177.964 412.164 176.865H410.164C410.164 177.453 409.967 177.999 409.519 178.531L411.049 179.819ZM412.164 176.865V176.205H410.164V176.865H412.164ZM412.164 176.205C412.164 175.104 411.772 174.119 411.031 173.286L409.536 174.614C409.969 175.101 410.164 175.619 410.164 176.205H412.164ZM411.069 173.33C410.291 172.345 409.166 171.905 407.864 171.905V173.905C408.689 173.905 409.177 174.162 409.499 174.57L411.069 173.33ZM407.864 171.905H402.804V173.905H407.864V171.905ZM401.804 172.905V180.165H403.804V172.905H401.804ZM438.803 170.265V171.265H439.803V170.265H438.803ZM427.968 170.265H426.968V171.265H427.968V170.265ZM427.968 162.4V161.4H426.968V162.4H427.968ZM438.803 162.4H439.803V161.4H438.803V162.4ZM438.803 202V203H439.803V202H438.803ZM427.968 202H426.968V203H427.968V202ZM427.968 173.95V172.95H426.968V173.95H427.968ZM438.803 173.95H439.803V172.95H438.803V173.95ZM438.803 169.265H427.968V171.265H438.803V169.265ZM428.968 170.265V162.4H426.968V170.265H428.968ZM427.968 163.4H438.803V161.4H427.968V163.4ZM437.803 162.4V170.265H439.803V162.4H437.803ZM438.803 201H427.968V203H438.803V201ZM428.968 202V173.95H426.968V202H428.968ZM427.968 174.95H438.803V172.95H427.968V174.95ZM437.803 173.95V202H439.803V173.95H437.803ZM469.431 174.445L468.924 175.307L468.935 175.313L469.431 174.445ZM472.456 177.47L471.588 177.966L471.594 177.977L472.456 177.47ZM473.556 202V203H474.556V202H473.556ZM462.666 202H461.666V203H462.666V202ZM461.786 182.09L461.018 182.73L461.037 182.753L461.058 182.775L461.786 182.09ZM457.661 182.09L456.914 181.426L456.911 181.428L457.661 182.09ZM456.836 202V203H457.836V202H456.836ZM445.946 202H444.946V203H445.946V202ZM445.946 173.895V172.895H444.946V173.895H445.946ZM454.141 173.895L455.107 173.634L454.907 172.895H454.141V173.895ZM455.241 177.965L454.276 178.226L454.857 180.377L456.078 178.513L455.241 177.965ZM465.306 174.345C466.639 174.345 467.837 174.668 468.924 175.307L469.938 173.583C468.532 172.756 466.98 172.345 465.306 172.345V174.345ZM468.935 175.313C470.063 175.958 470.943 176.838 471.588 177.966L473.324 176.974C472.503 175.535 471.366 174.399 469.927 173.577L468.935 175.313ZM471.594 177.977C472.234 179.064 472.556 180.263 472.556 181.595H474.556C474.556 179.921 474.146 178.37 473.318 176.963L471.594 177.977ZM472.556 181.595V202H474.556V181.595H472.556ZM473.556 201H462.666V203H473.556V201ZM463.666 202V184.4H461.666V202H463.666ZM463.666 184.4C463.666 183.248 463.289 182.227 462.514 181.405L461.058 182.775C461.457 183.199 461.666 183.718 461.666 184.4H463.666ZM462.554 181.45C461.829 180.579 460.876 180.1 459.751 180.1V182.1C460.24 182.1 460.644 182.281 461.018 182.73L462.554 181.45ZM459.751 180.1C458.63 180.1 457.67 180.575 456.914 181.426L458.409 182.754C458.826 182.285 459.259 182.1 459.751 182.1V180.1ZM456.911 181.428C456.183 182.254 455.836 183.267 455.836 184.4H457.836C457.836 183.7 458.039 183.173 458.411 182.752L456.911 181.428ZM455.836 184.4V202H457.836V184.4H455.836ZM456.836 201H445.946V203H456.836V201ZM446.946 202V173.895H444.946V202H446.946ZM445.946 174.895H454.141V172.895H445.946V174.895ZM453.176 174.156L454.276 178.226L456.207 177.704L455.107 173.634L453.176 174.156ZM456.078 178.513C457.911 175.714 460.438 174.345 463.766 174.345V172.345C459.761 172.345 456.605 174.056 454.405 177.417L456.078 178.513ZM463.766 174.345H465.306V172.345H463.766V174.345ZM491.411 162.4H492.411V161.4H491.411V162.4ZM491.411 184.345H490.411V187.577L492.236 184.91L491.411 184.345ZM498.561 173.895V172.895H498.034L497.736 173.33L498.561 173.895ZM510.991 173.895L511.781 174.508L513.031 172.895H510.991V173.895ZM501.146 186.6L500.356 185.987L499.92 186.549L500.308 187.145L501.146 186.6ZM511.156 202V203H512.999L511.994 201.455L511.156 202ZM498.341 202L497.491 202.527L497.785 203H498.341V202ZM493.391 194.025L494.241 193.498L493.624 192.505L492.738 193.267L493.391 194.025ZM491.411 195.73L490.758 194.972L490.411 195.271V195.73H491.411ZM491.411 202V203H492.411V202H491.411ZM480.521 202H479.521V203H480.521V202ZM480.521 162.4V161.4H479.521V162.4H480.521ZM490.411 162.4V184.345H492.411V162.4H490.411ZM492.236 184.91L499.386 174.46L497.736 173.33L490.586 183.78L492.236 184.91ZM498.561 174.895H510.991V172.895H498.561V174.895ZM510.201 173.282L500.356 185.987L501.936 187.213L511.781 174.508L510.201 173.282ZM500.308 187.145L510.318 202.545L511.994 201.455L501.984 186.055L500.308 187.145ZM511.156 201H498.341V203H511.156V201ZM499.191 201.473L494.241 193.498L492.541 194.552L497.491 202.527L499.191 201.473ZM492.738 193.267L490.758 194.972L492.064 196.488L494.044 194.783L492.738 193.267ZM490.411 195.73V202H492.411V195.73H490.411ZM491.411 201H480.521V203H491.411V201ZM481.521 202V162.4H479.521V202H481.521ZM480.521 163.4H491.411V161.4H480.521V163.4ZM534.671 174.225L534.366 175.177L534.377 175.181L534.388 175.184L534.671 174.225ZM539.346 176.755L540.019 176.016L539.346 176.755ZM541.161 181.815L542.151 181.956L542.152 181.948L542.153 181.939L541.161 181.815ZM541.106 182.31V183.31H542.106V182.31H541.106ZM532.086 182.31H531.086V183.31H532.086V182.31ZM530.876 180.44L530.412 181.326L530.436 181.339L530.462 181.35L530.876 180.44ZM525.376 182.805L525.072 183.758L525.098 183.766L525.123 183.773L525.376 182.805ZM529.501 183.465L529.617 182.472L529.615 182.472L529.501 183.465ZM535.661 184.565L535.398 185.53L535.403 185.531L535.661 184.565ZM539.951 187.15L539.223 187.836L539.233 187.847L539.244 187.857L539.951 187.15ZM538.026 200.185L537.497 199.336L537.491 199.34L538.026 200.185ZM520.041 201.615L519.702 202.556L519.713 202.56L519.724 202.564L520.041 201.615ZM515.531 198.645L516.278 197.981L516.278 197.981L515.531 198.645ZM513.826 192.815V191.815H513.105L512.877 192.499L513.826 192.815ZM522.736 192.815H523.736V191.815H522.736V192.815ZM524.166 195.29L523.747 196.198L523.761 196.205L523.776 196.211L524.166 195.29ZM530.601 195.565L530.391 194.587L530.384 194.589L530.601 195.565ZM530.876 192.76L530.547 193.704L530.566 193.711L530.584 193.717L530.876 192.76ZM526.696 191.88L526.845 190.891L526.832 190.889L526.82 190.888L526.696 191.88ZM520.701 190.725L520.978 189.764L520.978 189.764L520.701 190.725ZM516.411 188.14L515.673 188.815L515.683 188.826L515.693 188.836L516.411 188.14ZM516.576 177.525L515.841 176.847L515.84 176.848L516.576 177.525ZM521.526 174.39L521.842 175.339L521.85 175.336L521.858 175.333L521.526 174.39ZM529.281 174.345C530.928 174.345 532.622 174.619 534.366 175.177L534.975 173.273C533.053 172.657 531.153 172.345 529.281 172.345V174.345ZM534.388 175.184C536.136 175.698 537.554 176.474 538.672 177.494L540.019 176.016C538.644 174.762 536.946 173.852 534.953 173.266L534.388 175.184ZM538.672 177.494C539.721 178.451 540.216 179.562 540.216 180.88H542.216C542.216 178.971 541.463 177.332 540.019 176.016L538.672 177.494ZM540.216 180.88C540.216 181.173 540.199 181.443 540.168 181.691L542.153 181.939C542.195 181.6 542.216 181.247 542.216 180.88H540.216ZM540.171 181.674C540.137 181.91 540.106 182.151 540.106 182.31H542.106C542.106 182.328 542.105 182.332 542.106 182.315C542.107 182.299 542.11 182.276 542.113 182.242C542.121 182.174 542.133 182.079 542.151 181.956L540.171 181.674ZM541.106 181.31H532.086V183.31H541.106V181.31ZM533.086 182.31C533.086 181.714 532.947 181.141 532.623 180.639C532.299 180.138 531.833 179.777 531.289 179.53L530.462 181.35C530.725 181.47 530.864 181.603 530.944 181.726C531.022 181.848 531.086 182.026 531.086 182.31H533.086ZM531.34 179.554C530.408 179.066 529.365 178.835 528.236 178.835V180.835C529.087 180.835 529.804 181.007 530.412 181.326L531.34 179.554ZM528.236 178.835C526.843 178.835 525.674 178.967 524.818 179.303C524.382 179.473 523.968 179.72 523.658 180.084C523.332 180.468 523.166 180.931 523.166 181.43H525.166C525.166 181.398 525.169 181.396 525.182 181.38C525.211 181.346 525.306 181.26 525.548 181.165C526.049 180.968 526.915 180.835 528.236 180.835V178.835ZM523.166 181.43C523.166 181.982 523.342 182.502 523.717 182.929C524.077 183.338 524.56 183.595 525.072 183.758L525.679 181.852C525.384 181.758 525.263 181.658 525.219 181.608C525.191 181.577 525.166 181.538 525.166 181.43H523.166ZM525.123 183.773C526.04 184.012 527.474 184.238 529.386 184.458L529.615 182.472C527.713 182.252 526.398 182.038 525.628 181.837L525.123 183.773ZM529.384 184.458C531.85 184.748 533.85 185.108 535.398 185.53L535.924 183.6C534.245 183.142 532.138 182.768 529.617 182.472L529.384 184.458ZM535.403 185.531C536.867 185.922 538.136 186.683 539.223 187.836L540.678 186.464C539.345 185.05 537.754 184.088 535.918 183.599L535.403 185.531ZM539.244 187.857C540.242 188.855 540.821 190.394 540.821 192.65H542.821C542.821 190.066 542.153 187.938 540.658 186.443L539.244 187.857ZM540.821 192.65C540.821 195.815 539.684 197.973 537.497 199.336L538.555 201.034C541.428 199.243 542.821 196.378 542.821 192.65H540.821ZM537.491 199.34C535.193 200.793 532.309 201.55 528.786 201.55V203.55C532.596 203.55 535.872 202.73 538.56 201.03L537.491 199.34ZM528.786 201.55H525.926V203.55H528.786V201.55ZM525.926 201.55C523.975 201.55 522.121 201.254 520.357 200.666L519.724 202.564C521.701 203.222 523.769 203.55 525.926 203.55V201.55ZM520.379 200.674C518.687 200.065 517.329 199.163 516.278 197.981L514.783 199.309C516.079 200.767 517.728 201.845 519.702 202.556L520.379 200.674ZM516.278 197.981C515.281 196.859 514.771 195.488 514.771 193.805H512.771C512.771 195.935 513.434 197.791 514.783 199.309L516.278 197.981ZM514.771 193.805V193.31H512.771V193.805H514.771ZM514.771 193.31C514.771 193.226 514.774 193.168 514.778 193.132C514.783 193.092 514.786 193.098 514.774 193.131L512.877 192.499C512.788 192.765 512.771 193.061 512.771 193.31H514.771ZM513.826 193.815H522.736V191.815H513.826V193.815ZM521.736 192.815V193.035H523.736V192.815H521.736ZM521.736 193.035C521.736 193.719 521.89 194.367 522.249 194.932C522.607 195.497 523.127 195.912 523.747 196.198L524.585 194.382C524.251 194.228 524.056 194.047 523.938 193.861C523.819 193.674 523.736 193.414 523.736 193.035H521.736ZM523.776 196.211C524.875 196.676 526.112 196.895 527.466 196.895V194.895C526.326 194.895 525.363 194.711 524.555 194.369L523.776 196.211ZM527.466 196.895C528.633 196.895 529.751 196.778 530.818 196.541L530.384 194.589C529.471 194.792 528.499 194.895 527.466 194.895V196.895ZM530.81 196.543C531.411 196.414 531.985 196.192 532.422 195.802C532.894 195.381 533.141 194.819 533.141 194.19H531.141C531.141 194.239 531.132 194.258 531.131 194.262C531.129 194.265 531.122 194.282 531.09 194.31C531.013 194.379 530.817 194.496 530.391 194.587L530.81 196.543ZM533.141 194.19C533.141 193.623 532.962 193.086 532.573 192.647C532.202 192.227 531.7 191.966 531.167 191.803L530.584 193.717C530.895 193.811 531.026 193.916 531.075 193.973C531.109 194.01 531.141 194.061 531.141 194.19H533.141ZM531.204 191.816C530.267 191.489 528.795 191.185 526.845 190.891L526.546 192.869C528.483 193.161 529.798 193.444 530.547 193.704L531.204 191.816ZM526.82 190.888C524.507 190.599 522.563 190.222 520.978 189.764L520.423 191.686C522.138 192.181 524.191 192.575 526.572 192.872L526.82 190.888ZM520.978 189.764C519.497 189.336 518.219 188.567 517.128 187.444L515.693 188.836C517.023 190.206 518.604 191.16 520.423 191.686L520.978 189.764ZM517.149 187.465C516.19 186.417 515.651 184.907 515.651 182.805H513.651C513.651 185.249 514.284 187.296 515.673 188.815L517.149 187.465ZM515.651 182.805C515.651 180.896 516.219 179.388 517.311 178.202L515.84 176.848C514.365 178.449 513.651 180.461 513.651 182.805H515.651ZM517.31 178.203C518.508 176.906 520.01 175.949 521.842 175.339L521.209 173.441C519.081 174.151 517.284 175.284 515.841 176.847L517.31 178.203ZM521.858 175.333C523.733 174.673 525.638 174.345 527.576 174.345V172.345C525.407 172.345 523.278 172.713 521.194 173.447L521.858 175.333ZM527.576 174.345H529.281V172.345H527.576V174.345ZM571.828 175.82L571.235 176.625L571.241 176.629L571.828 175.82ZM575.733 195.4L575.026 196.107L575.026 196.107L575.733 195.4ZM578.868 195.4H579.868V193.69L578.378 194.528L578.868 195.4ZM578.868 201.285L579.452 202.097L579.868 201.798V201.285H578.868ZM567.758 201.395L567.247 202.255L567.256 202.26L567.265 202.265L567.758 201.395ZM565.228 198.095L566.201 197.865L565.751 195.962L564.472 197.441L565.228 198.095ZM561.323 201.34L560.832 200.469L560.822 200.475L561.323 201.34ZM549.003 200.845L549.53 199.995L549.003 200.845ZM548.398 188.305L549.087 189.031L549.096 189.021L548.398 188.305ZM554.503 185.445L554.694 186.427L554.705 186.425L554.503 185.445ZM564.678 184.62V185.62H565.678V184.62H564.678ZM563.633 180.605L562.969 181.352L562.979 181.361L562.989 181.37L563.633 180.605ZM558.683 180.495L559.228 181.333L559.238 181.327L558.683 180.495ZM557.583 182.53V183.53H558.583V182.53H557.583ZM547.133 182.53L546.185 182.846L546.413 183.53H547.133V182.53ZM548.673 177.525L547.914 176.874L547.912 176.876L548.673 177.525ZM553.293 174.5L553.641 175.438L553.65 175.434L553.293 174.5ZM564.678 189.625H565.678V188.625H564.678V189.625ZM559.343 190.615L559.824 191.492L559.835 191.486L559.845 191.48L559.343 190.615ZM563.578 194.85L564.267 195.575L564.276 195.566L564.285 195.557L563.578 194.85ZM562.093 174.345C566.24 174.345 569.239 175.153 571.235 176.625L572.422 175.015C569.944 173.187 566.454 172.345 562.093 172.345V174.345ZM571.241 176.629C573.274 178.105 574.238 179.959 574.238 182.255H576.238C576.238 179.271 574.929 176.835 572.416 175.011L571.241 176.629ZM574.238 182.255V193.86H576.238V182.255H574.238ZM574.238 193.86C574.238 194.692 574.434 195.515 575.026 196.107L576.44 194.693C576.373 194.625 576.238 194.421 576.238 193.86H574.238ZM575.026 196.107C575.548 196.629 576.208 196.895 576.943 196.895V194.895C576.725 194.895 576.578 194.831 576.44 194.693L575.026 196.107ZM576.943 196.895C577.805 196.895 578.617 196.689 579.359 196.272L578.378 194.528C577.946 194.771 577.474 194.895 576.943 194.895V196.895ZM577.868 195.4V201.285H579.868V195.4H577.868ZM578.285 200.473C577.367 201.132 575.773 201.55 573.313 201.55V203.55C575.913 203.55 578.022 203.124 579.452 202.097L578.285 200.473ZM573.313 201.55C571.059 201.55 569.401 201.177 568.252 200.525L567.265 202.265C568.829 203.153 570.874 203.55 573.313 203.55V201.55ZM568.269 200.535C567.119 199.852 566.462 198.966 566.201 197.865L564.255 198.325C564.654 200.011 565.684 201.325 567.247 202.255L568.269 200.535ZM564.472 197.441C563.367 198.719 562.153 199.724 560.832 200.469L561.815 202.211C563.354 201.343 564.743 200.185 565.985 198.749L564.472 197.441ZM560.822 200.475C559.618 201.172 558.078 201.55 556.153 201.55V203.55C558.335 203.55 560.242 203.121 561.824 202.205L560.822 200.475ZM556.153 201.55C553.341 201.55 551.158 201.004 549.53 199.995L548.476 201.695C550.515 202.959 553.099 203.55 556.153 203.55V201.55ZM549.53 199.995C548.128 199.126 547.253 197.326 547.253 194.135H545.253C545.253 197.617 546.211 200.291 548.476 201.695L549.53 199.995ZM547.253 194.135C547.253 191.797 547.908 190.148 549.087 189.03L547.71 187.58C546.028 189.175 545.253 191.413 545.253 194.135H547.253ZM549.096 189.021C550.346 187.804 552.181 186.915 554.694 186.427L554.312 184.463C551.546 185.001 549.311 186.02 547.7 187.589L549.096 189.021ZM554.705 186.425C557.291 185.893 560.609 185.62 564.678 185.62V183.62C560.534 183.62 557.069 183.897 554.302 184.465L554.705 186.425ZM565.678 184.62V183.025H563.678V184.62H565.678ZM565.678 183.025C565.678 181.745 565.23 180.642 564.277 179.84L562.989 181.37C563.43 181.741 563.678 182.251 563.678 183.025H565.678ZM564.298 179.858C563.425 179.082 562.333 178.725 561.103 178.725V180.725C561.927 180.725 562.521 180.955 562.969 181.352L564.298 179.858ZM561.103 178.725C560.043 178.725 559.046 179.051 558.129 179.663L559.238 181.327C559.86 180.912 560.477 180.725 561.103 180.725V178.725ZM558.138 179.657C557.184 180.277 556.583 181.169 556.583 182.31H558.583C558.583 181.984 558.716 181.667 559.228 181.333L558.138 179.657ZM556.583 182.31V182.53H558.583V182.31H556.583ZM557.583 181.53H547.133V183.53H557.583V181.53ZM548.082 182.214C548.099 182.263 548.101 182.29 548.098 182.272C548.096 182.259 548.093 182.231 548.09 182.184C548.083 182.088 548.078 181.95 548.078 181.76H546.078C546.078 181.974 546.083 182.165 546.095 182.326C546.104 182.462 546.123 182.663 546.185 182.846L548.082 182.214ZM548.078 181.76C548.078 180.431 548.519 179.247 549.434 178.174L547.912 176.876C546.701 178.296 546.078 179.935 546.078 181.76H548.078ZM549.433 178.176C550.398 177.05 551.781 176.127 553.641 175.438L552.946 173.562C550.846 174.34 549.149 175.433 547.914 176.874L549.433 178.176ZM553.65 175.434C555.531 174.716 557.734 174.345 560.278 174.345V172.345C557.543 172.345 555.089 172.744 552.937 173.566L553.65 175.434ZM560.278 174.345H562.093V172.345H560.278V174.345ZM564.678 188.625C562.208 188.625 560.211 188.955 558.841 189.75L559.845 191.48C560.749 190.955 562.309 190.625 564.678 190.625V188.625ZM558.862 189.738C557.46 190.507 556.638 191.695 556.638 193.255H558.638C558.638 192.542 558.953 191.969 559.824 191.492L558.862 189.738ZM556.638 193.255C556.638 194.356 556.993 195.34 557.839 196.016C558.641 196.658 559.731 196.895 560.938 196.895V194.895C559.945 194.895 559.385 194.692 559.088 194.454C558.833 194.25 558.638 193.914 558.638 193.255H556.638ZM560.938 196.895C562.217 196.895 563.345 196.451 564.267 195.575L562.89 194.125C562.345 194.642 561.713 194.895 560.938 194.895V196.895ZM564.285 195.557C565.225 194.617 565.678 193.419 565.678 192.045H563.678C563.678 192.944 563.398 193.616 562.871 194.143L564.285 195.557ZM565.678 192.045V189.625H563.678V192.045H565.678ZM594.545 162.4H595.545V161.4H594.545V162.4ZM594.545 202V203H595.545V202H594.545ZM583.655 202H582.655V203H583.655V202ZM583.655 162.4V161.4H582.655V162.4H583.655ZM593.545 162.4V202H595.545V162.4H593.545ZM594.545 201H583.655V203H594.545V201ZM584.655 202V162.4H582.655V202H584.655ZM583.655 163.4H594.545V161.4H583.655V163.4ZM624.071 174.995L623.593 175.873L623.602 175.878L623.612 175.883L624.071 174.995ZM628.746 179.45L627.873 179.937L627.877 179.943L627.88 179.95L628.746 179.45ZM630.396 189.405V190.405H631.396V189.405H630.396ZM612.081 189.405V188.405H611.081V189.405H612.081ZM613.236 194.905L612.586 195.664L612.594 195.672L612.603 195.679L613.236 194.905ZM619.231 194.74L618.475 194.086L618.472 194.089L619.231 194.74ZM620.276 191.44V190.44H619.276V191.44H620.276ZM630.341 191.44H631.341V190.44H630.341V191.44ZM628.691 197.105L627.854 196.559L627.85 196.565L627.846 196.572L628.691 197.105ZM623.961 201.12L624.383 202.027L624.39 202.024L623.961 201.12ZM607.901 200.955L607.471 201.858L607.48 201.862L607.489 201.866L607.901 200.955ZM602.401 196.225L601.556 196.759L601.561 196.768L601.567 196.776L602.401 196.225ZM602.291 179.725L601.439 179.202L601.437 179.206L602.291 179.725ZM607.626 174.995L608.05 175.901L608.062 175.895L607.626 174.995ZM613.181 181.155L613.889 181.862L613.897 181.853L613.906 181.845L613.181 181.155ZM612.081 184.62H611.081V185.62H612.081V184.62ZM619.671 184.62V185.62H620.671V184.62H619.671ZM618.571 181.155L617.847 181.845L617.856 181.853L617.864 181.862L618.571 181.155ZM616.811 174.345C619.505 174.345 621.753 174.869 623.593 175.873L624.55 174.117C622.357 172.921 619.764 172.345 616.811 172.345V174.345ZM623.612 175.883C625.502 176.862 626.911 178.212 627.873 179.937L629.62 178.963C628.455 176.875 626.748 175.255 624.531 174.107L623.612 175.883ZM627.88 179.95C628.883 181.687 629.396 183.693 629.396 185.995H631.396C631.396 183.384 630.81 181.026 629.613 178.95L627.88 179.95ZM629.396 185.995V189.405H631.396V185.995H629.396ZM630.396 188.405H612.081V190.405H630.396V188.405ZM611.081 189.405V192.045H613.081V189.405H611.081ZM611.081 192.045C611.081 193.511 611.544 194.771 612.586 195.664L613.887 194.146C613.389 193.719 613.081 193.073 613.081 192.045H611.081ZM612.603 195.679C613.622 196.512 614.886 196.895 616.316 196.895V194.895C615.253 194.895 614.464 194.618 613.87 194.131L612.603 195.679ZM616.316 196.895C617.808 196.895 619.092 196.439 619.991 195.391L618.472 194.089C618.051 194.581 617.391 194.895 616.316 194.895V196.895ZM619.988 195.394C620.885 194.356 621.276 192.998 621.276 191.44H619.276C619.276 192.668 618.971 193.511 618.475 194.086L619.988 195.394ZM620.276 192.44H630.341V190.44H620.276V192.44ZM629.341 191.44C629.341 193.344 628.844 195.041 627.854 196.559L629.529 197.651C630.739 195.796 631.341 193.716 631.341 191.44H629.341ZM627.846 196.572C626.899 198.073 625.48 199.294 623.533 200.216L624.39 202.024C626.623 200.966 628.357 199.51 629.537 197.638L627.846 196.572ZM623.54 200.213C621.647 201.092 619.359 201.55 616.646 201.55V203.55C619.58 203.55 622.169 203.055 624.383 202.027L623.54 200.213ZM616.646 201.55H615.821V203.55H616.646V201.55ZM615.821 201.55C613.011 201.55 610.514 201.041 608.314 200.044L607.489 201.866C609.982 202.996 612.765 203.55 615.821 203.55V201.55ZM608.331 200.052C606.179 199.027 604.488 197.569 603.236 195.674L601.567 196.776C603.028 198.988 605.004 200.683 607.471 201.858L608.331 200.052ZM603.247 195.691C602.043 193.785 601.421 191.501 601.421 188.8H599.421C599.421 191.819 600.12 194.485 601.556 196.759L603.247 195.691ZM601.421 188.8V187.095H599.421V188.8H601.421ZM601.421 187.095C601.421 184.383 602.011 182.113 603.146 180.244L601.437 179.206C600.078 181.443 599.421 184.087 599.421 187.095H601.421ZM603.144 180.248C604.322 178.329 605.95 176.883 608.05 175.901L607.203 174.089C604.757 175.233 602.827 176.941 601.439 179.202L603.144 180.248ZM608.062 175.895C610.179 174.871 612.63 174.345 615.436 174.345V172.345C612.377 172.345 609.62 172.919 607.191 174.095L608.062 175.895ZM615.436 174.345H616.811V172.345H615.436V174.345ZM615.876 179C614.539 179 613.379 179.497 612.457 180.465L613.906 181.845C614.45 181.273 615.087 181 615.876 181V179ZM612.474 180.448C611.548 181.374 611.081 182.529 611.081 183.85H613.081C613.081 183.044 613.348 182.403 613.889 181.862L612.474 180.448ZM611.081 183.85V184.62H613.081V183.85H611.081ZM612.081 185.62H619.671V183.62H612.081V185.62ZM620.671 184.62V183.85H618.671V184.62H620.671ZM620.671 183.85C620.671 182.529 620.205 181.374 619.279 180.448L617.864 181.862C618.405 182.403 618.671 183.044 618.671 183.85H620.671ZM619.296 180.465C618.373 179.497 617.213 179 615.876 179V181C616.666 181 617.303 181.273 617.847 181.845L619.296 180.465ZM664.825 163.885H665.825V163.002L664.949 162.893L664.825 163.885ZM664.825 172.135L664.543 173.094L665.825 173.471V172.135H664.825ZM660.37 172.795L659.741 172.018L659.741 172.018L660.37 172.795ZM660.095 177.745L659.299 178.351L659.306 178.36L659.314 178.37L660.095 177.745ZM669.39 178.845V179.845H670.034L670.3 179.258L669.39 178.845ZM672.36 172.3V171.3H671.715L671.449 171.887L672.36 172.3ZM679.895 172.3H680.895V171.3H679.895V172.3ZM679.895 178.845H678.895V179.845H679.895V178.845ZM684.295 178.845H685.295V177.845H684.295V178.845ZM684.295 186.655V187.655H685.295V186.655H684.295ZM679.895 186.655V185.655H678.895V186.655H679.895ZM679.895 202V203H680.895V202H679.895ZM651.57 199.525L651.06 200.385L651.06 200.385L651.57 199.525ZM654.155 182.31L654.443 183.268L657.598 182.318L654.447 181.354L654.155 182.31ZM649.975 179.285L649.136 179.83L649.141 179.837L649.146 179.844L649.975 179.285ZM650.47 168.45L649.703 167.808L649.694 167.819L650.47 168.45ZM655.53 164.93L655.881 165.866L655.888 165.864L655.895 165.861L655.53 164.93ZM659.38 187.92L660.137 188.574L660.144 188.565L660.151 188.557L659.38 187.92ZM659.655 193.42L659.034 194.204L659.052 194.218L659.07 194.232L659.655 193.42ZM669.005 194.41V195.41H670.005V194.41H669.005ZM669.005 186.655H670.005V185.655H669.005V186.655ZM662.075 164.72C662.99 164.72 663.865 164.773 664.701 164.877L664.949 162.893C664.025 162.777 663.066 162.72 662.075 162.72V164.72ZM663.825 163.885V172.135H665.825V163.885H663.825ZM665.107 171.176C664.431 170.977 663.799 170.86 663.23 170.86V172.86C663.54 172.86 663.972 172.926 664.543 173.094L665.107 171.176ZM663.23 170.86C661.9 170.86 660.714 171.229 659.741 172.018L660.999 173.572C661.565 173.114 662.287 172.86 663.23 172.86V170.86ZM659.741 172.018C658.708 172.854 658.215 174.016 658.215 175.38H660.215C660.215 174.544 660.491 173.983 660.999 173.572L659.741 172.018ZM658.215 175.38C658.215 176.447 658.607 177.443 659.299 178.351L660.89 177.139C660.409 176.507 660.215 175.926 660.215 175.38H658.215ZM659.314 178.37C660.137 179.398 661.341 179.845 662.735 179.845V177.845C661.782 177.845 661.226 177.558 660.876 177.12L659.314 178.37ZM662.735 179.845H669.39V177.845H662.735V179.845ZM670.3 179.258L673.27 172.713L671.449 171.887L668.479 178.432L670.3 179.258ZM672.36 173.3H679.895V171.3H672.36V173.3ZM678.895 172.3V178.845H680.895V172.3H678.895ZM679.895 179.845H684.295V177.845H679.895V179.845ZM683.295 178.845V186.655H685.295V178.845H683.295ZM684.295 185.655H679.895V187.655H684.295V185.655ZM678.895 186.655V202H680.895V186.655H678.895ZM679.895 201H662.35V203H679.895V201ZM662.35 201C658.067 201 654.666 200.196 652.079 198.665L651.06 200.385C654.047 202.154 657.832 203 662.35 203V201ZM652.079 198.665C649.665 197.235 648.39 194.823 648.39 191.165H646.39C646.39 195.354 647.901 198.515 651.06 200.385L652.079 198.665ZM648.39 191.165C648.39 189.061 648.909 187.414 649.876 186.148C650.845 184.88 652.335 183.902 654.443 183.268L653.867 181.352C651.464 182.075 649.572 183.251 648.286 184.934C646.998 186.621 646.39 188.723 646.39 191.165H648.39ZM654.447 181.354C652.855 180.866 651.657 179.99 650.804 178.726L649.146 179.844C650.272 181.513 651.861 182.654 653.862 183.266L654.447 181.354ZM650.813 178.74C649.977 177.453 649.545 175.942 649.545 174.17H647.545C647.545 176.285 648.066 178.183 649.136 179.83L650.813 178.74ZM649.545 174.17C649.545 172.139 650.122 170.461 651.245 169.081L649.694 167.819C648.251 169.592 647.545 171.728 647.545 174.17H649.545ZM651.236 169.092C652.438 167.656 653.978 166.58 655.881 165.866L655.179 163.994C652.975 164.82 651.141 166.09 649.703 167.808L651.236 169.092ZM655.895 165.861C657.827 165.102 659.884 164.72 662.075 164.72V162.72C659.646 162.72 657.339 163.145 655.164 163.999L655.895 165.861ZM662.735 185.655C661.024 185.655 659.564 186.127 658.609 187.283L660.151 188.557C660.589 188.026 661.366 187.655 662.735 187.655V185.655ZM658.623 187.266C657.804 188.215 657.335 189.282 657.335 190.45H659.335C659.335 189.858 659.562 189.239 660.137 188.574L658.623 187.266ZM657.335 190.45C657.335 191.989 657.878 193.289 659.034 194.204L660.275 192.636C659.671 192.158 659.335 191.477 659.335 190.45H657.335ZM659.07 194.232C660.185 195.034 661.517 195.41 663.01 195.41V193.41C661.863 193.41 660.958 193.126 660.239 192.608L659.07 194.232ZM663.01 195.41H669.005V193.41H663.01V195.41ZM670.005 194.41V186.655H668.005V194.41H670.005ZM669.005 185.655H662.735V187.655H669.005V185.655ZM714.594 192.76H713.594V193.76H714.594V192.76ZM728.289 192.76L729.282 192.642L729.177 191.76H728.289V192.76ZM729.389 202V203H730.515L730.382 201.882L729.389 202ZM702.934 202H701.934V203H702.934V202ZM702.934 164.27V163.27H701.934V164.27H702.934ZM714.594 164.27H715.594V163.27H714.594V164.27ZM714.594 193.76H728.289V191.76H714.594V193.76ZM727.296 192.878L728.396 202.118L730.382 201.882L729.282 192.642L727.296 192.878ZM729.389 201H702.934V203H729.389V201ZM703.934 202V164.27H701.934V202H703.934ZM702.934 165.27H714.594V163.27H702.934V165.27ZM713.594 164.27V192.76H715.594V164.27H713.594ZM760.351 165.81L759.847 166.674L759.855 166.678L760.351 165.81ZM764.586 170.045L763.718 170.541L763.722 170.549L764.586 170.045ZM764.586 182.86L765.45 183.364L765.454 183.356L764.586 182.86ZM760.351 187.04L759.855 186.172L759.847 186.176L760.351 187.04ZM746.051 188.58V187.58H745.051V188.58H746.051ZM746.051 202V203H747.051V202H746.051ZM734.501 202H733.501V203H734.501V202ZM734.501 164.27V163.27H733.501V164.27H734.501ZM746.051 180.165H745.051V181.165H746.051V180.165ZM753.531 179.175L754.278 179.839L754.287 179.829L754.296 179.819L753.531 179.175ZM753.531 173.95L752.746 174.57L752.764 174.593L752.784 174.614L753.531 173.95ZM746.051 172.905V171.905H745.051V172.905H746.051ZM754.576 165.27C756.494 165.27 758.244 165.739 759.847 166.674L760.855 164.946C758.938 163.828 756.838 163.27 754.576 163.27V165.27ZM759.855 166.678C761.497 167.616 762.78 168.9 763.718 170.541L765.454 169.549C764.339 167.597 762.799 166.057 760.847 164.942L759.855 166.678ZM763.722 170.549C764.657 172.152 765.126 173.902 765.126 175.82H767.126C767.126 173.558 766.568 171.458 765.45 169.541L763.722 170.549ZM765.126 175.82V177.03H767.126V175.82H765.126ZM765.126 177.03C765.126 178.948 764.657 180.72 763.718 182.364L765.454 183.356C766.568 181.407 767.126 179.292 767.126 177.03H765.126ZM763.722 182.356C762.786 183.962 761.502 185.231 759.855 186.172L760.847 187.908C762.794 186.796 764.333 185.278 765.45 183.364L763.722 182.356ZM759.847 186.176C758.244 187.111 756.494 187.58 754.576 187.58V189.58C756.838 189.58 758.938 189.022 760.855 187.904L759.847 186.176ZM754.576 187.58H746.051V189.58H754.576V187.58ZM745.051 188.58V202H747.051V188.58H745.051ZM746.051 201H734.501V203H746.051V201ZM735.501 202V164.27H733.501V202H735.501ZM734.501 165.27H754.576V163.27H734.501V165.27ZM746.051 181.165H751.111V179.165H746.051V181.165ZM751.111 181.165C752.372 181.165 753.471 180.748 754.278 179.839L752.784 178.511C752.418 178.922 751.903 179.165 751.111 179.165V181.165ZM754.296 179.819C755.021 178.958 755.411 177.964 755.411 176.865H753.411C753.411 177.453 753.214 177.999 752.766 178.531L754.296 179.819ZM755.411 176.865V176.205H753.411V176.865H755.411ZM755.411 176.205C755.411 175.104 755.019 174.119 754.279 173.286L752.784 174.614C753.216 175.101 753.411 175.619 753.411 176.205H755.411ZM754.316 173.33C753.538 172.345 752.413 171.905 751.111 171.905V173.905C751.936 173.905 752.424 174.162 752.746 174.57L754.316 173.33ZM751.111 171.905H746.051V173.905H751.111V171.905ZM745.051 172.905V180.165H747.051V172.905H745.051ZM805.556 165.315L805.09 166.2L805.1 166.205L805.109 166.209L805.556 165.315ZM810.286 169.605L809.429 170.119L809.433 170.126L809.437 170.132L810.286 169.605ZM809.956 182.75L810.766 183.337L810.771 183.33L809.956 182.75ZM803.576 188.58L803.005 187.759L803.004 187.76L803.576 188.58ZM797.581 192.76L797.009 191.94L794.399 193.76H797.581V192.76ZM812.046 192.76H813.046V191.76H812.046V192.76ZM812.046 202V203H813.046V202H812.046ZM782.621 202H781.621V203H782.621V202ZM783.611 194.63L784.523 195.04L784.523 195.04L783.611 194.63ZM787.021 190.505L786.403 189.719L786.399 189.722L787.021 190.505ZM797.911 181.925L798.53 182.711L798.534 182.707L797.911 181.925ZM799.726 173.455L799.002 174.145L799.019 174.162L799.037 174.179L799.726 173.455ZM793.566 173.4L792.877 172.676L792.868 172.684L792.859 172.693L793.566 173.4ZM792.466 177.69V178.69H793.466V177.69H792.466ZM782.786 177.69H781.786V178.69H782.786V177.69ZM784.436 170.1L785.307 170.593L785.311 170.586L784.436 170.1ZM789.276 165.425L788.805 164.543L788.805 164.543L789.276 165.425ZM798.516 164.72C801.059 164.72 803.24 165.224 805.09 166.2L806.023 164.43C803.839 163.279 801.327 162.72 798.516 162.72V164.72ZM805.109 166.209C807.006 167.158 808.434 168.461 809.429 170.119L811.144 169.091C809.939 167.082 808.214 165.526 806.004 164.421L805.109 166.209ZM809.437 170.132C810.465 171.791 810.991 173.713 810.991 175.93H812.991C812.991 173.381 812.381 171.086 811.136 169.078L809.437 170.132ZM810.991 175.93C810.991 178.39 810.363 180.454 809.142 182.17L810.771 183.33C812.263 181.232 812.991 178.75 812.991 175.93H810.991ZM809.147 182.163C807.881 183.908 805.853 185.776 803.005 187.759L804.148 189.401C807.093 187.35 809.318 185.332 810.766 183.337L809.147 182.163ZM803.004 187.76L797.009 191.94L798.153 193.58L804.148 189.4L803.004 187.76ZM797.581 193.76H812.046V191.76H797.581V193.76ZM811.046 192.76V202H813.046V192.76H811.046ZM812.046 201H782.621V203H812.046V201ZM783.621 202V200.02H781.621V202H783.621ZM783.621 200.02C783.621 197.991 783.937 196.344 784.523 195.04L782.699 194.22C781.966 195.85 781.621 197.795 781.621 200.02H783.621ZM784.523 195.04C785.102 193.754 786.121 192.499 787.644 191.288L786.399 189.722C784.695 191.078 783.441 192.572 782.699 194.22L784.523 195.04ZM787.64 191.29L798.53 182.71L797.293 181.14L786.403 189.72L787.64 191.29ZM798.534 182.707C800.722 180.965 801.881 178.765 801.881 176.15H799.881C799.881 178.082 799.061 179.731 797.288 181.143L798.534 182.707ZM801.881 176.15C801.881 174.813 801.384 173.653 800.416 172.731L799.037 174.179C799.609 174.724 799.881 175.36 799.881 176.15H801.881ZM800.451 172.765C799.528 171.797 798.368 171.3 797.031 171.3V173.3C797.821 173.3 798.458 173.573 799.002 174.145L800.451 172.765ZM797.031 171.3H796.316V173.3H797.031V171.3ZM796.316 171.3C794.996 171.3 793.833 171.765 792.877 172.676L794.256 174.124C794.84 173.568 795.51 173.3 796.316 173.3V171.3ZM792.859 172.693C791.926 173.626 791.466 174.803 791.466 176.15H793.466C793.466 175.297 793.74 174.641 794.274 174.107L792.859 172.693ZM791.466 176.15V177.69H793.466V176.15H791.466ZM792.466 176.69H782.786V178.69H792.466V176.69ZM783.786 177.69V176.645H781.786V177.69H783.786ZM783.786 176.645C783.786 174.383 784.299 172.373 785.307 170.593L783.566 169.607C782.374 171.713 781.786 174.067 781.786 176.645H783.786ZM785.311 170.586C786.311 168.785 787.779 167.359 789.748 166.307L788.805 164.543C786.52 165.764 784.762 167.455 783.562 169.614L785.311 170.586ZM789.748 166.307C791.703 165.262 794.046 164.72 796.811 164.72V162.72C793.783 162.72 791.103 163.315 788.805 164.543L789.748 166.307ZM796.811 164.72H798.516V162.72H796.811V164.72ZM841.209 165.59L840.697 166.449L840.706 166.454L840.715 166.459L841.209 165.59ZM846.214 170.595L845.345 171.09L845.35 171.098L845.355 171.107L846.214 170.595ZM846.214 195.73L845.352 195.224L845.349 195.229L846.214 195.73ZM841.209 200.735L841.71 201.6L841.715 201.598L841.209 200.735ZM824.929 200.735L824.417 201.594L824.426 201.599L824.435 201.604L824.929 200.735ZM819.924 195.73L819.055 196.225L819.06 196.233L819.065 196.242L819.924 195.73ZM819.924 170.595L819.062 170.089L819.059 170.094L819.924 170.595ZM824.929 165.59L825.43 166.455L825.435 166.453L824.929 165.59ZM830.154 172.96L829.417 172.284L829.416 172.286L830.154 172.96ZM830.154 193.31L829.402 193.969L829.416 193.985L829.432 194.001L830.154 193.31ZM835.984 193.31L835.247 192.634L835.246 192.636L835.984 193.31ZM835.984 172.96L835.232 173.619L835.246 173.635L835.262 173.651L835.984 172.96ZM834.334 164.72C836.652 164.72 838.766 165.297 840.697 166.449L841.722 164.731C839.473 163.39 837.003 162.72 834.334 162.72V164.72ZM840.715 166.459C842.685 167.58 844.224 169.119 845.345 171.09L847.083 170.1C845.785 167.818 843.987 166.02 841.704 164.721L840.715 166.459ZM845.355 171.107C846.507 173.038 847.084 175.152 847.084 177.47H849.084C849.084 174.801 848.415 172.332 847.073 170.083L845.355 171.107ZM847.084 177.47V188.8H849.084V177.47H847.084ZM847.084 188.8C847.084 191.118 846.507 193.253 845.352 195.224L847.077 196.236C848.415 193.954 849.084 191.469 849.084 188.8H847.084ZM845.349 195.229C844.227 197.166 842.684 198.711 840.704 199.872L841.715 201.598C843.988 200.265 845.781 198.474 847.08 196.231L845.349 195.229ZM840.708 199.87C838.776 200.988 836.658 201.55 834.334 201.55V203.55C836.998 203.55 839.463 202.902 841.71 201.6L840.708 199.87ZM834.334 201.55H831.859V203.55H834.334V201.55ZM831.859 201.55C829.536 201.55 827.397 200.988 825.424 199.866L824.435 201.604C826.715 202.902 829.196 203.55 831.859 203.55V201.55ZM825.442 199.876C823.494 198.714 821.945 197.165 820.783 195.218L819.065 196.242C820.397 198.475 822.185 200.262 824.417 201.594L825.442 199.876ZM820.793 195.235C819.671 193.262 819.109 191.123 819.109 188.8H817.109C817.109 191.463 817.758 193.944 819.055 196.225L820.793 195.235ZM819.109 188.8V177.47H817.109V188.8H819.109ZM819.109 177.47C819.109 175.147 819.671 173.029 820.79 171.096L819.059 170.094C817.758 172.341 817.109 174.807 817.109 177.47H819.109ZM820.787 171.101C821.948 169.12 823.493 167.577 825.43 166.455L824.428 164.725C822.185 166.023 820.394 167.817 819.062 170.089L820.787 171.101ZM825.435 166.453C827.406 165.297 829.542 164.72 831.859 164.72V162.72C829.19 162.72 826.705 163.39 824.424 164.727L825.435 166.453ZM831.859 164.72H834.334V162.72H831.859V164.72ZM833.124 170.64C831.665 170.64 830.409 171.202 829.417 172.284L830.891 173.636C831.512 172.958 832.237 172.64 833.124 172.64V170.64ZM829.416 172.286C828.467 173.325 827.999 174.597 827.999 176.04H829.999C829.999 175.063 830.302 174.282 830.893 173.634L829.416 172.286ZM827.999 176.04V190.175H829.999V176.04H827.999ZM827.999 190.175C827.999 191.618 828.466 192.899 829.402 193.969L830.907 192.651C830.302 191.961 829.999 191.152 829.999 190.175H827.999ZM829.432 194.001C830.421 195.036 831.652 195.575 833.069 195.575V193.575C832.214 193.575 831.501 193.271 830.877 192.619L829.432 194.001ZM833.069 195.575C834.515 195.575 835.757 195.041 836.723 193.984L835.246 192.636C834.671 193.265 833.97 193.575 833.069 193.575V195.575ZM836.721 193.986C837.7 192.919 838.194 191.631 838.194 190.175H836.194C836.194 191.139 835.882 191.941 835.247 192.634L836.721 193.986ZM838.194 190.175V176.04H836.194V190.175H838.194ZM838.194 176.04C838.194 174.583 837.699 173.306 836.707 172.269L835.262 173.651C835.883 174.301 836.194 175.077 836.194 176.04H838.194ZM836.737 172.301C835.783 171.212 834.559 170.64 833.124 170.64V172.64C833.963 172.64 834.645 172.948 835.232 173.619L836.737 172.301ZM885.332 164.27L886.187 164.789L887.11 163.27H885.332V164.27ZM862.397 202V203H862.96L863.252 202.519L862.397 202ZM857.172 202L856.319 201.479L855.39 203H857.172V202ZM880.217 164.27V163.27H879.656L879.364 163.749L880.217 164.27ZM865.917 166.305L865.21 167.012L865.22 167.022L865.917 166.305ZM865.917 181.485L865.22 180.768L865.21 180.778L865.917 181.485ZM855.137 181.485L855.844 180.778L855.844 180.778L855.137 181.485ZM855.137 166.305L854.43 165.598L854.43 165.598L855.137 166.305ZM859.097 168.835L858.39 168.128L858.39 168.128L859.097 168.835ZM859.097 178.9L858.39 179.607L858.39 179.607L859.097 178.9ZM861.957 178.9L861.25 178.193L861.233 178.21L861.217 178.227L861.957 178.9ZM861.957 168.835L861.217 169.508L861.233 169.525L861.25 169.542L861.957 168.835ZM887.367 184.84L886.66 185.547L886.67 185.557L887.367 184.84ZM888.467 198.645L889.322 199.164L889.326 199.157L889.33 199.151L888.467 198.645ZM885.937 201.12L885.431 200.257L885.425 200.261L885.418 200.265L885.937 201.12ZM876.587 200.075L875.87 200.772L875.88 200.782L876.587 200.075ZM880.547 187.425L881.254 188.132L881.27 188.117L881.284 188.101L880.547 187.425ZM880.547 197.49L879.81 198.166L879.825 198.182L879.84 198.197L880.547 197.49ZM883.407 197.49L882.67 196.814L882.667 196.817L883.407 197.49ZM883.407 187.425L882.639 188.065L882.668 188.1L882.7 188.132L883.407 187.425ZM884.478 163.751L861.543 201.481L863.252 202.519L886.187 164.789L884.478 163.751ZM862.397 201H857.172V203H862.397V201ZM858.026 202.521L881.071 164.791L879.364 163.749L856.319 201.479L858.026 202.521ZM880.217 165.27H885.332V163.27H880.217V165.27ZM861.132 165.325C862.737 165.325 864.078 165.88 865.21 167.012L866.624 165.598C865.116 164.09 863.267 163.325 861.132 163.325V165.325ZM865.22 167.022C866.386 168.156 866.952 169.494 866.952 171.09H868.952C868.952 168.946 868.162 167.094 866.615 165.588L865.22 167.022ZM866.952 171.09V176.7H868.952V171.09H866.952ZM866.952 176.7C866.952 178.296 866.386 179.634 865.22 180.768L866.615 182.202C868.162 180.696 868.952 178.844 868.952 176.7H866.952ZM865.21 180.778C864.078 181.91 862.737 182.465 861.132 182.465V184.465C863.267 184.465 865.116 183.7 866.624 182.192L865.21 180.778ZM861.132 182.465H859.922V184.465H861.132V182.465ZM859.922 182.465C858.317 182.465 856.976 181.91 855.844 180.778L854.43 182.192C855.938 183.7 857.787 184.465 859.922 184.465V182.465ZM855.844 180.778C854.712 179.646 854.157 178.305 854.157 176.7H852.157C852.157 178.835 852.922 180.684 854.43 182.192L855.844 180.778ZM854.157 176.7V171.09H852.157V176.7H854.157ZM854.157 171.09C854.157 169.485 854.712 168.144 855.844 167.012L854.43 165.598C852.922 167.106 852.157 168.955 852.157 171.09H854.157ZM855.844 167.012C856.976 165.88 858.317 165.325 859.922 165.325V163.325C857.787 163.325 855.938 164.09 854.43 165.598L855.844 167.012ZM859.922 165.325H861.132V163.325H859.922V165.325ZM860.527 167.23C859.701 167.23 858.973 167.545 858.39 168.128L859.804 169.542C860.028 169.319 860.253 169.23 860.527 169.23V167.23ZM858.39 168.128C857.781 168.737 857.492 169.514 857.492 170.375H859.492C859.492 169.99 859.607 169.74 859.804 169.542L858.39 168.128ZM857.492 170.375V177.36H859.492V170.375H857.492ZM857.492 177.36C857.492 178.221 857.781 178.998 858.39 179.607L859.804 178.193C859.607 177.995 859.492 177.745 859.492 177.36H857.492ZM858.39 179.607C858.973 180.19 859.701 180.505 860.527 180.505V178.505C860.253 178.505 860.028 178.416 859.804 178.193L858.39 179.607ZM860.527 180.505C861.371 180.505 862.125 180.202 862.697 179.573L861.217 178.227C861.056 178.405 860.856 178.505 860.527 178.505V180.505ZM862.664 179.607C863.273 178.998 863.562 178.221 863.562 177.36H861.562C861.562 177.745 861.448 177.995 861.25 178.193L862.664 179.607ZM863.562 177.36V170.375H861.562V177.36H863.562ZM863.562 170.375C863.562 169.514 863.273 168.737 862.664 168.128L861.25 169.542C861.448 169.74 861.562 169.99 861.562 170.375H863.562ZM862.697 168.162C862.125 167.533 861.371 167.23 860.527 167.23V169.23C860.856 169.23 861.056 169.33 861.217 169.508L862.697 168.162ZM882.582 183.86C884.187 183.86 885.528 184.415 886.66 185.547L888.074 184.133C886.566 182.625 884.717 181.86 882.582 181.86V183.86ZM886.67 185.557C887.836 186.691 888.402 188.029 888.402 189.625H890.402C890.402 187.481 889.612 185.629 888.065 184.123L886.67 185.557ZM888.402 189.625V195.235H890.402V189.625H888.402ZM888.402 195.235C888.402 196.264 888.14 197.226 887.604 198.139L889.33 199.151C890.041 197.937 890.402 196.626 890.402 195.235H888.402ZM887.612 198.126C887.077 199.007 886.356 199.716 885.431 200.257L886.443 201.983C887.645 201.278 888.61 200.336 889.322 199.164L887.612 198.126ZM885.418 200.265C884.549 200.793 883.611 201.055 882.582 201.055V203.055C883.974 203.055 885.272 202.694 886.456 201.975L885.418 200.265ZM882.582 201.055H881.372V203.055H882.582V201.055ZM881.372 201.055C879.767 201.055 878.426 200.5 877.294 199.368L875.88 200.782C877.388 202.29 879.237 203.055 881.372 203.055V201.055ZM877.304 199.378C876.163 198.205 875.607 196.841 875.607 195.235H873.607C873.607 197.369 874.371 199.232 875.87 200.772L877.304 199.378ZM875.607 195.235V189.625H873.607V195.235H875.607ZM875.607 189.625C875.607 188.02 876.162 186.679 877.294 185.547L875.88 184.133C874.372 185.641 873.607 187.49 873.607 189.625H875.607ZM877.294 185.547C878.426 184.415 879.767 183.86 881.372 183.86V181.86C879.237 181.86 877.388 182.625 875.88 184.133L877.294 185.547ZM881.372 183.86H882.582V181.86H881.372V183.86ZM881.977 185.765C881.121 185.765 880.385 186.122 879.81 186.749L881.284 188.101C881.516 187.848 881.733 187.765 881.977 187.765V185.765ZM879.84 186.718C879.231 187.327 878.942 188.104 878.942 188.965H880.942C880.942 188.58 881.057 188.33 881.254 188.132L879.84 186.718ZM878.942 188.965V195.95H880.942V188.965H878.942ZM878.942 195.95C878.942 196.792 879.241 197.545 879.81 198.166L881.284 196.814C881.047 196.555 880.942 196.282 880.942 195.95H878.942ZM879.84 198.197C880.423 198.78 881.151 199.095 881.977 199.095V197.095C881.703 197.095 881.478 197.006 881.254 196.783L879.84 198.197ZM881.977 199.095C882.821 199.095 883.575 198.792 884.147 198.163L882.667 196.817C882.506 196.995 882.306 197.095 881.977 197.095V199.095ZM884.144 198.166C884.713 197.545 885.012 196.792 885.012 195.95H883.012C883.012 196.282 882.908 196.555 882.67 196.814L884.144 198.166ZM885.012 195.95V188.965H883.012V195.95H885.012ZM885.012 188.965C885.012 188.104 884.723 187.327 884.114 186.718L882.7 188.132C882.898 188.33 883.012 188.58 883.012 188.965H885.012ZM884.175 186.785C883.613 186.111 882.852 185.765 881.977 185.765V187.765C882.275 187.765 882.468 187.859 882.639 188.065L884.175 186.785Z" fill="black" mask="url(#path-8-outside-2_661_101)"/>
<path d="M164.667 680C164.667 687.364 170.636 693.333 178 693.333C185.364 693.333 191.333 687.364 191.333 680C191.333 672.636 185.364 666.667 178 666.667C170.636 666.667 164.667 672.636 164.667 680ZM400.38 232V229.5H398.83L398.141 230.888L400.38 232ZM788 234.5C789.381 234.5 790.5 233.381 790.5 232C790.5 230.619 789.381 229.5 788 229.5V234.5ZM180.239 681.112L402.62 233.112L398.141 230.888L175.761 678.888L180.239 681.112ZM400.38 234.5H788V229.5H400.38V234.5Z" fill="white"/>
</svg>
