<svg width="1360" height="1360" viewBox="0 0 1360 1360" fill="none" xmlns="http://www.w3.org/2000/svg">
<path d="M680 0C752.809 8.68234e-07 825.145 11.6931 894.245 34.6326L808.547 292.78C767.087 279.016 723.685 272 680 272V0Z" fill="#5F52F1"/>
<mask id="path-2-inside-1_682_2" fill="white">
<path d="M552.582 12.0444C594.582 4.03259 637.244 -8.20618e-05 680.001 1.2524e-09L680.001 272C654.346 272 628.749 274.42 603.549 279.227L552.582 12.0444Z"/>
</mask>
<path d="M552.582 12.0444C594.582 4.03259 637.244 -8.20618e-05 680.001 1.2524e-09L680.001 272C654.346 272 628.749 274.42 603.549 279.227L552.582 12.0444Z" fill="#01D3EC" stroke="#30324F" stroke-width="28" mask="url(#path-2-inside-1_682_2)"/>
<path d="M129.868 280.306C231.53 140.382 382.689 44.4531 552.581 12.0446L603.549 279.227C501.613 298.672 410.918 356.229 349.921 440.184L129.868 280.306Z" fill="#8CC0B9"/>
<path d="M893.729 34.4616C1030.05 79.5968 1148.59 166.731 1232.35 283.375C1316.11 400.02 1360.79 540.187 1359.99 683.786L1087.99 682.272C1088.47 596.112 1061.66 512.012 1011.41 442.025C961.154 372.039 890.032 319.758 808.238 292.677L893.729 34.4616Z" fill="#FFE657"/>
<path d="M1360 680C1360 823.602 1314.54 963.518 1230.13 1079.69L1010.08 919.816C1060.72 850.111 1088 766.161 1088 680H1360Z" fill="#525775"/>
<path d="M1230.13 1079.69C1167.06 1166.51 1084.33 1237.17 988.714 1285.88C893.099 1334.6 787.311 1360 680 1360C572.689 1360 466.901 1334.6 371.286 1285.88C275.671 1237.17 192.944 1166.51 129.868 1079.69L349.921 919.816C387.766 971.906 437.403 1014.3 494.772 1043.53C552.141 1072.76 615.613 1088 680 1088C744.387 1088 807.859 1072.76 865.228 1043.53C922.597 1014.3 972.233 971.906 1010.08 919.816L1230.13 1079.69Z" fill="#9F8CC0"/>
<path d="M129.868 1079.69C45.4613 963.518 -2.96727e-05 823.602 0 680C2.96728e-05 536.398 45.4614 396.482 129.869 280.306L349.921 440.183C299.277 509.889 272 593.839 272 680C272 766.161 299.277 850.111 349.921 919.816L129.868 1079.69Z" fill="#FF4059"/>
<mask id="path-8-outside-2_682_2" maskUnits="userSpaceOnUse" x="917.572" y="1136" width="264" height="45" fill="black">
<rect fill="white" x="917.572" y="1136" width="264" height="45"/>
<path d="M952.581 1147.74H942.141V1179H929.661V1147.74H919.221V1137.84H952.581V1147.74ZM974.778 1147.74C977.858 1147.74 980.498 1148.34 982.698 1149.54C984.938 1150.7 986.638 1152.32 987.798 1154.4C988.998 1156.48 989.598 1158.86 989.598 1161.54V1165.26H969.618V1168.14C969.618 1169.5 970.038 1170.54 970.878 1171.26C971.758 1171.98 972.878 1172.34 974.238 1172.34C975.638 1172.34 976.698 1171.92 977.418 1171.08C978.178 1170.2 978.558 1169 978.558 1167.48H989.538C989.538 1169.76 988.938 1171.82 987.738 1173.66C986.578 1175.5 984.858 1176.96 982.578 1178.04C980.338 1179.08 977.678 1179.6 974.598 1179.6H973.698C970.498 1179.6 967.618 1179.02 965.058 1177.86C962.538 1176.66 960.538 1174.94 959.058 1172.7C957.618 1170.42 956.898 1167.72 956.898 1164.6V1162.74C956.898 1159.62 957.578 1156.94 958.938 1154.7C960.338 1152.42 962.278 1150.7 964.758 1149.54C967.238 1148.34 970.078 1147.74 973.278 1147.74H974.778ZM973.758 1155C972.598 1155 971.618 1155.42 970.818 1156.26C970.018 1157.06 969.618 1158.04 969.618 1159.2V1160.04H977.898V1159.2C977.898 1158.04 977.498 1157.06 976.698 1156.26C975.898 1155.42 974.918 1155 973.758 1155ZM1011.83 1147.74C1016.47 1147.74 1020.01 1148.64 1022.45 1150.44C1024.93 1152.24 1026.17 1154.58 1026.17 1157.46V1170.12C1026.17 1170.88 1026.35 1171.44 1026.71 1171.8C1027.07 1172.16 1027.51 1172.34 1028.03 1172.34C1028.79 1172.34 1029.49 1172.16 1030.13 1171.8V1178.22C1028.85 1179.14 1026.83 1179.6 1024.07 1179.6C1021.51 1179.6 1019.49 1179.18 1018.01 1178.34C1016.53 1177.46 1015.61 1176.26 1015.25 1174.74C1013.97 1176.22 1012.55 1177.4 1010.99 1178.28C1009.47 1179.16 1007.59 1179.6 1005.35 1179.6C1002.15 1179.6 999.553 1178.98 997.553 1177.74C995.553 1176.5 994.553 1174.06 994.553 1170.42C994.553 1167.66 995.333 1165.54 996.893 1164.06C998.453 1162.54 1000.67 1161.5 1003.55 1160.94C1006.47 1160.34 1010.17 1160.04 1014.65 1160.04V1158.3C1014.65 1157.18 1014.27 1156.3 1013.51 1155.66C1012.79 1155.02 1011.87 1154.7 1010.75 1154.7C1009.83 1154.7 1008.95 1154.98 1008.11 1155.54C1007.31 1156.06 1006.91 1156.72 1006.91 1157.52V1157.76H995.513C995.473 1157.64 995.453 1157.36 995.453 1156.92C995.453 1155.2 996.033 1153.66 997.193 1152.3C998.393 1150.9 1000.07 1149.8 1002.23 1149C1004.43 1148.16 1006.97 1147.74 1009.85 1147.74H1011.83ZM1014.65 1165.5C1012.01 1165.5 1010.07 1165.86 1008.83 1166.58C1007.59 1167.26 1006.97 1168.22 1006.97 1169.46C1006.97 1171.38 1008.17 1172.34 1010.57 1172.34C1011.69 1172.34 1012.65 1171.96 1013.45 1171.2C1014.25 1170.4 1014.65 1169.38 1014.65 1168.14V1165.5ZM1072.79 1147.74C1074.43 1147.74 1075.93 1148.14 1077.29 1148.94C1078.69 1149.74 1079.79 1150.84 1080.59 1152.24C1081.39 1153.6 1081.79 1155.1 1081.79 1156.74V1179H1070.15V1159.56C1070.15 1158.6 1069.87 1157.82 1069.31 1157.22C1068.79 1156.58 1068.11 1156.26 1067.27 1156.26C1066.43 1156.26 1065.73 1156.58 1065.17 1157.22C1064.65 1157.82 1064.39 1158.6 1064.39 1159.56V1179H1052.75V1159.56C1052.75 1158.6 1052.47 1157.82 1051.91 1157.22C1051.39 1156.58 1050.71 1156.26 1049.87 1156.26C1049.03 1156.26 1048.33 1156.58 1047.77 1157.22C1047.25 1157.82 1046.99 1158.6 1046.99 1159.56V1179H1035.35V1148.34H1044.23L1045.49 1152.78C1048.09 1149.42 1050.85 1147.74 1053.77 1147.74H1055.39C1057.07 1147.74 1058.61 1148.16 1060.01 1149C1061.41 1149.84 1062.49 1150.98 1063.25 1152.42C1064.09 1150.98 1065.19 1149.84 1066.55 1149C1067.95 1148.16 1069.49 1147.74 1071.17 1147.74H1072.79ZM1119.2 1137.24C1122 1137.24 1124.48 1137.74 1126.64 1138.74C1128.84 1139.74 1130.54 1141.1 1131.74 1142.82C1132.98 1144.5 1133.6 1146.36 1133.6 1148.4C1133.6 1150.48 1133.08 1152.34 1132.04 1153.98C1131.04 1155.58 1129.66 1156.74 1127.9 1157.46C1130.1 1158.22 1131.8 1159.48 1133 1161.24C1134.2 1163 1134.8 1165.14 1134.8 1167.66C1134.8 1169.9 1134.18 1171.92 1132.94 1173.72C1131.74 1175.52 1129.96 1176.96 1127.6 1178.04C1125.24 1179.08 1122.44 1179.6 1119.2 1179.6H1116.68C1113.44 1179.6 1110.64 1179.08 1108.28 1178.04C1105.92 1176.96 1104.12 1175.52 1102.88 1173.72C1101.68 1171.92 1101.08 1169.92 1101.08 1167.72V1166.46H1111.64C1111.64 1167.7 1112.04 1168.72 1112.84 1169.52C1113.64 1170.28 1114.84 1170.66 1116.44 1170.66H1118.06C1119.62 1170.66 1120.8 1170.24 1121.6 1169.4C1122.44 1168.56 1122.86 1167.42 1122.86 1165.98C1122.86 1164.58 1122.46 1163.52 1121.66 1162.8C1120.9 1162.04 1119.9 1161.66 1118.66 1161.66H1112.42V1154.28H1117.7C1118.94 1154.28 1119.94 1153.92 1120.7 1153.2C1121.5 1152.44 1121.9 1151.36 1121.9 1149.96C1121.9 1148.92 1121.48 1148.04 1120.64 1147.32C1119.84 1146.56 1118.86 1146.18 1117.7 1146.18H1116.62C1115.46 1146.18 1114.46 1146.56 1113.62 1147.32C1112.82 1148.04 1112.42 1148.92 1112.42 1149.96H1102.4V1148.46C1102.4 1146.38 1103.02 1144.5 1104.26 1142.82C1105.5 1141.1 1107.26 1139.74 1109.54 1138.74C1111.82 1137.74 1114.44 1137.24 1117.4 1137.24H1119.2ZM1175.2 1137.84L1150.18 1179H1144.48L1169.62 1137.84H1175.2ZM1148.8 1137.9C1150.84 1137.9 1152.58 1138.62 1154.02 1140.06C1155.5 1141.5 1156.24 1143.24 1156.24 1145.28V1151.4C1156.24 1153.44 1155.5 1155.18 1154.02 1156.62C1152.58 1158.06 1150.84 1158.78 1148.8 1158.78H1147.48C1145.44 1158.78 1143.7 1158.06 1142.26 1156.62C1140.82 1155.18 1140.1 1153.44 1140.1 1151.4V1145.28C1140.1 1143.24 1140.82 1141.5 1142.26 1140.06C1143.7 1138.62 1145.44 1137.9 1147.48 1137.9H1148.8ZM1148.14 1142.16C1147.54 1142.16 1147.02 1142.38 1146.58 1142.82C1146.14 1143.26 1145.92 1143.82 1145.92 1144.5V1152.12C1145.92 1152.8 1146.14 1153.36 1146.58 1153.8C1147.02 1154.24 1147.54 1154.46 1148.14 1154.46C1148.78 1154.46 1149.3 1154.24 1149.7 1153.8C1150.14 1153.36 1150.36 1152.8 1150.36 1152.12V1144.5C1150.36 1143.82 1150.14 1143.26 1149.7 1142.82C1149.3 1142.38 1148.78 1142.16 1148.14 1142.16ZM1172.2 1158.12C1174.24 1158.12 1175.98 1158.84 1177.42 1160.28C1178.9 1161.72 1179.64 1163.46 1179.64 1165.5V1171.62C1179.64 1172.94 1179.3 1174.18 1178.62 1175.34C1177.94 1176.46 1177.02 1177.36 1175.86 1178.04C1174.74 1178.72 1173.52 1179.06 1172.2 1179.06H1170.88C1168.84 1179.06 1167.1 1178.34 1165.66 1176.9C1164.22 1175.42 1163.5 1173.66 1163.5 1171.62V1165.5C1163.5 1163.46 1164.22 1161.72 1165.66 1160.28C1167.1 1158.84 1168.84 1158.12 1170.88 1158.12H1172.2ZM1171.54 1162.38C1170.94 1162.38 1170.42 1162.62 1169.98 1163.1C1169.54 1163.54 1169.32 1164.1 1169.32 1164.78V1172.4C1169.32 1173.04 1169.54 1173.6 1169.98 1174.08C1170.42 1174.52 1170.94 1174.74 1171.54 1174.74C1172.18 1174.74 1172.7 1174.52 1173.1 1174.08C1173.54 1173.6 1173.76 1173.04 1173.76 1172.4V1164.78C1173.76 1164.1 1173.54 1163.54 1173.1 1163.1C1172.7 1162.62 1172.18 1162.38 1171.54 1162.38Z"/>
</mask>
<path d="M952.581 1147.74H942.141V1179H929.661V1147.74H919.221V1137.84H952.581V1147.74ZM974.778 1147.74C977.858 1147.74 980.498 1148.34 982.698 1149.54C984.938 1150.7 986.638 1152.32 987.798 1154.4C988.998 1156.48 989.598 1158.86 989.598 1161.54V1165.26H969.618V1168.14C969.618 1169.5 970.038 1170.54 970.878 1171.26C971.758 1171.98 972.878 1172.34 974.238 1172.34C975.638 1172.34 976.698 1171.92 977.418 1171.08C978.178 1170.2 978.558 1169 978.558 1167.48H989.538C989.538 1169.76 988.938 1171.82 987.738 1173.66C986.578 1175.5 984.858 1176.96 982.578 1178.04C980.338 1179.08 977.678 1179.6 974.598 1179.6H973.698C970.498 1179.6 967.618 1179.02 965.058 1177.86C962.538 1176.66 960.538 1174.94 959.058 1172.7C957.618 1170.42 956.898 1167.72 956.898 1164.6V1162.74C956.898 1159.62 957.578 1156.94 958.938 1154.7C960.338 1152.42 962.278 1150.7 964.758 1149.54C967.238 1148.34 970.078 1147.74 973.278 1147.74H974.778ZM973.758 1155C972.598 1155 971.618 1155.42 970.818 1156.26C970.018 1157.06 969.618 1158.04 969.618 1159.2V1160.04H977.898V1159.2C977.898 1158.04 977.498 1157.06 976.698 1156.26C975.898 1155.42 974.918 1155 973.758 1155ZM1011.83 1147.74C1016.47 1147.74 1020.01 1148.64 1022.45 1150.44C1024.93 1152.24 1026.17 1154.58 1026.17 1157.46V1170.12C1026.17 1170.88 1026.35 1171.44 1026.71 1171.8C1027.07 1172.16 1027.51 1172.34 1028.03 1172.34C1028.79 1172.34 1029.49 1172.16 1030.13 1171.8V1178.22C1028.85 1179.14 1026.83 1179.6 1024.07 1179.6C1021.51 1179.6 1019.49 1179.18 1018.01 1178.34C1016.53 1177.46 1015.61 1176.26 1015.25 1174.74C1013.97 1176.22 1012.55 1177.4 1010.99 1178.28C1009.47 1179.16 1007.59 1179.6 1005.35 1179.6C1002.15 1179.6 999.553 1178.98 997.553 1177.74C995.553 1176.5 994.553 1174.06 994.553 1170.42C994.553 1167.66 995.333 1165.54 996.893 1164.06C998.453 1162.54 1000.67 1161.5 1003.55 1160.94C1006.47 1160.34 1010.17 1160.04 1014.65 1160.04V1158.3C1014.65 1157.18 1014.27 1156.3 1013.51 1155.66C1012.79 1155.02 1011.87 1154.7 1010.75 1154.7C1009.83 1154.7 1008.95 1154.98 1008.11 1155.54C1007.31 1156.06 1006.91 1156.72 1006.91 1157.52V1157.76H995.513C995.473 1157.64 995.453 1157.36 995.453 1156.92C995.453 1155.2 996.033 1153.66 997.193 1152.3C998.393 1150.9 1000.07 1149.8 1002.23 1149C1004.43 1148.16 1006.97 1147.74 1009.85 1147.74H1011.83ZM1014.65 1165.5C1012.01 1165.5 1010.07 1165.86 1008.83 1166.58C1007.59 1167.26 1006.97 1168.22 1006.97 1169.46C1006.97 1171.38 1008.17 1172.34 1010.57 1172.34C1011.69 1172.34 1012.65 1171.96 1013.45 1171.2C1014.25 1170.4 1014.65 1169.38 1014.65 1168.14V1165.5ZM1072.79 1147.74C1074.43 1147.74 1075.93 1148.14 1077.29 1148.94C1078.69 1149.74 1079.79 1150.84 1080.59 1152.24C1081.39 1153.6 1081.79 1155.1 1081.79 1156.74V1179H1070.15V1159.56C1070.15 1158.6 1069.87 1157.82 1069.31 1157.22C1068.79 1156.58 1068.11 1156.26 1067.27 1156.26C1066.43 1156.26 1065.73 1156.58 1065.17 1157.22C1064.65 1157.82 1064.39 1158.6 1064.39 1159.56V1179H1052.75V1159.56C1052.75 1158.6 1052.47 1157.82 1051.91 1157.22C1051.39 1156.58 1050.71 1156.26 1049.87 1156.26C1049.03 1156.26 1048.33 1156.58 1047.77 1157.22C1047.25 1157.82 1046.99 1158.6 1046.99 1159.56V1179H1035.35V1148.34H1044.23L1045.49 1152.78C1048.09 1149.42 1050.85 1147.74 1053.77 1147.74H1055.39C1057.07 1147.74 1058.61 1148.16 1060.01 1149C1061.41 1149.84 1062.49 1150.98 1063.25 1152.42C1064.09 1150.98 1065.19 1149.84 1066.55 1149C1067.95 1148.16 1069.49 1147.74 1071.17 1147.74H1072.79ZM1119.2 1137.24C1122 1137.24 1124.48 1137.74 1126.64 1138.74C1128.84 1139.74 1130.54 1141.1 1131.74 1142.82C1132.98 1144.5 1133.6 1146.36 1133.6 1148.4C1133.6 1150.48 1133.08 1152.34 1132.04 1153.98C1131.04 1155.58 1129.66 1156.74 1127.9 1157.46C1130.1 1158.22 1131.8 1159.48 1133 1161.24C1134.2 1163 1134.8 1165.14 1134.8 1167.66C1134.8 1169.9 1134.18 1171.92 1132.94 1173.72C1131.74 1175.52 1129.96 1176.96 1127.6 1178.04C1125.24 1179.08 1122.44 1179.6 1119.2 1179.6H1116.68C1113.44 1179.6 1110.64 1179.08 1108.28 1178.04C1105.92 1176.96 1104.12 1175.52 1102.88 1173.72C1101.68 1171.92 1101.08 1169.92 1101.08 1167.72V1166.46H1111.64C1111.64 1167.7 1112.04 1168.72 1112.84 1169.52C1113.64 1170.28 1114.84 1170.66 1116.44 1170.66H1118.06C1119.62 1170.66 1120.8 1170.24 1121.6 1169.4C1122.44 1168.56 1122.86 1167.42 1122.86 1165.98C1122.86 1164.58 1122.46 1163.52 1121.66 1162.8C1120.9 1162.04 1119.9 1161.66 1118.66 1161.66H1112.42V1154.28H1117.7C1118.94 1154.28 1119.94 1153.92 1120.7 1153.2C1121.5 1152.44 1121.9 1151.36 1121.9 1149.96C1121.9 1148.92 1121.48 1148.04 1120.64 1147.32C1119.84 1146.56 1118.86 1146.18 1117.7 1146.18H1116.62C1115.46 1146.18 1114.46 1146.56 1113.62 1147.32C1112.82 1148.04 1112.42 1148.92 1112.42 1149.96H1102.4V1148.46C1102.4 1146.38 1103.02 1144.5 1104.26 1142.82C1105.5 1141.1 1107.26 1139.74 1109.54 1138.74C1111.82 1137.74 1114.44 1137.24 1117.4 1137.24H1119.2ZM1175.2 1137.84L1150.18 1179H1144.48L1169.62 1137.84H1175.2ZM1148.8 1137.9C1150.84 1137.9 1152.58 1138.62 1154.02 1140.06C1155.5 1141.5 1156.24 1143.24 1156.24 1145.28V1151.4C1156.24 1153.44 1155.5 1155.18 1154.02 1156.62C1152.58 1158.06 1150.84 1158.78 1148.8 1158.78H1147.48C1145.44 1158.78 1143.7 1158.06 1142.26 1156.62C1140.82 1155.18 1140.1 1153.44 1140.1 1151.4V1145.28C1140.1 1143.24 1140.82 1141.5 1142.26 1140.06C1143.7 1138.62 1145.44 1137.9 1147.48 1137.9H1148.8ZM1148.14 1142.16C1147.54 1142.16 1147.02 1142.38 1146.58 1142.82C1146.14 1143.26 1145.92 1143.82 1145.92 1144.5V1152.12C1145.92 1152.8 1146.14 1153.36 1146.58 1153.8C1147.02 1154.24 1147.54 1154.46 1148.14 1154.46C1148.78 1154.46 1149.3 1154.24 1149.7 1153.8C1150.14 1153.36 1150.36 1152.8 1150.36 1152.12V1144.5C1150.36 1143.82 1150.14 1143.26 1149.7 1142.82C1149.3 1142.38 1148.78 1142.16 1148.14 1142.16ZM1172.2 1158.12C1174.24 1158.12 1175.98 1158.84 1177.42 1160.28C1178.9 1161.72 1179.64 1163.46 1179.64 1165.5V1171.62C1179.64 1172.94 1179.3 1174.18 1178.62 1175.34C1177.94 1176.46 1177.02 1177.36 1175.86 1178.04C1174.74 1178.72 1173.52 1179.06 1172.2 1179.06H1170.88C1168.84 1179.06 1167.1 1178.34 1165.66 1176.9C1164.22 1175.42 1163.5 1173.66 1163.5 1171.62V1165.5C1163.5 1163.46 1164.22 1161.72 1165.66 1160.28C1167.1 1158.84 1168.84 1158.12 1170.88 1158.12H1172.2ZM1171.54 1162.38C1170.94 1162.38 1170.42 1162.62 1169.98 1163.1C1169.54 1163.54 1169.32 1164.1 1169.32 1164.78V1172.4C1169.32 1173.04 1169.54 1173.6 1169.98 1174.08C1170.42 1174.52 1170.94 1174.74 1171.54 1174.74C1172.18 1174.74 1172.7 1174.52 1173.1 1174.08C1173.54 1173.6 1173.76 1173.04 1173.76 1172.4V1164.78C1173.76 1164.1 1173.54 1163.54 1173.1 1163.1C1172.7 1162.62 1172.18 1162.38 1171.54 1162.38Z" fill="white"/>
<path d="M952.581 1147.74V1148.74H953.581V1147.74H952.581ZM942.141 1147.74V1146.74H941.141V1147.74H942.141ZM942.141 1179V1180H943.141V1179H942.141ZM929.661 1179H928.661V1180H929.661V1179ZM929.661 1147.74H930.661V1146.74H929.661V1147.74ZM919.221 1147.74H918.221V1148.74H919.221V1147.74ZM919.221 1137.84V1136.84H918.221V1137.84H919.221ZM952.581 1137.84H953.581V1136.84H952.581V1137.84ZM952.581 1146.74H942.141V1148.74H952.581V1146.74ZM941.141 1147.74V1179H943.141V1147.74H941.141ZM942.141 1178H929.661V1180H942.141V1178ZM930.661 1179V1147.74H928.661V1179H930.661ZM929.661 1146.74H919.221V1148.74H929.661V1146.74ZM920.221 1147.74V1137.84H918.221V1147.74H920.221ZM919.221 1138.84H952.581V1136.84H919.221V1138.84ZM951.581 1137.84V1147.74H953.581V1137.84H951.581ZM982.698 1149.54L982.219 1150.42L982.228 1150.42L982.238 1150.43L982.698 1149.54ZM987.798 1154.4L986.924 1154.89L986.928 1154.89L986.932 1154.9L987.798 1154.4ZM989.598 1165.26V1166.26H990.598V1165.26H989.598ZM969.618 1165.26V1164.26H968.618V1165.26H969.618ZM970.878 1171.26L970.227 1172.02L970.236 1172.03L970.244 1172.03L970.878 1171.26ZM977.418 1171.08L976.661 1170.43L976.658 1170.43L977.418 1171.08ZM978.558 1167.48V1166.48H977.558V1167.48H978.558ZM989.538 1167.48H990.538V1166.48H989.538V1167.48ZM987.738 1173.66L986.9 1173.11L986.896 1173.12L986.892 1173.13L987.738 1173.66ZM982.578 1178.04L982.999 1178.95L983.006 1178.94L982.578 1178.04ZM965.058 1177.86L964.628 1178.76L964.636 1178.77L964.645 1178.77L965.058 1177.86ZM959.058 1172.7L958.212 1173.23L958.218 1173.24L958.223 1173.25L959.058 1172.7ZM958.938 1154.7L958.086 1154.18L958.083 1154.18L958.938 1154.7ZM964.758 1149.54L965.181 1150.45L965.193 1150.44L964.758 1149.54ZM970.818 1156.26L971.525 1156.97L971.533 1156.96L971.542 1156.95L970.818 1156.26ZM969.618 1160.04H968.618V1161.04H969.618V1160.04ZM977.898 1160.04V1161.04H978.898V1160.04H977.898ZM976.698 1156.26L975.974 1156.95L975.982 1156.96L975.991 1156.97L976.698 1156.26ZM974.778 1148.74C977.728 1148.74 980.196 1149.31 982.219 1150.42L983.177 1148.66C980.8 1147.37 977.987 1146.74 974.778 1146.74V1148.74ZM982.238 1150.43C984.315 1151.5 985.866 1152.99 986.924 1154.89L988.671 1153.91C987.41 1151.65 985.561 1149.9 983.158 1148.65L982.238 1150.43ZM986.932 1154.9C988.034 1156.81 988.598 1159.01 988.598 1161.54H990.598C990.598 1158.71 989.961 1156.15 988.664 1153.9L986.932 1154.9ZM988.598 1161.54V1165.26H990.598V1161.54H988.598ZM989.598 1164.26H969.618V1166.26H989.598V1164.26ZM968.618 1165.26V1168.14H970.618V1165.26H968.618ZM968.618 1168.14C968.618 1169.72 969.115 1171.07 970.227 1172.02L971.529 1170.5C970.96 1170.01 970.618 1169.28 970.618 1168.14H968.618ZM970.244 1172.03C971.336 1172.93 972.694 1173.34 974.238 1173.34V1171.34C973.061 1171.34 972.179 1171.03 971.511 1170.49L970.244 1172.03ZM974.238 1173.34C975.846 1173.34 977.219 1172.85 978.177 1171.73L976.658 1170.43C976.177 1170.99 975.429 1171.34 974.238 1171.34V1173.34ZM978.175 1171.73C979.134 1170.62 979.558 1169.16 979.558 1167.48H977.558C977.558 1168.84 977.221 1169.78 976.661 1170.43L978.175 1171.73ZM978.558 1168.48H989.538V1166.48H978.558V1168.48ZM988.538 1167.48C988.538 1169.57 987.99 1171.44 986.9 1173.11L988.575 1174.21C989.885 1172.2 990.538 1169.95 990.538 1167.48H988.538ZM986.892 1173.13C985.848 1174.78 984.286 1176.12 982.15 1177.14L983.006 1178.94C985.429 1177.8 987.307 1176.22 988.584 1174.19L986.892 1173.13ZM982.157 1177.13C980.077 1178.1 977.567 1178.6 974.598 1178.6V1180.6C977.788 1180.6 980.598 1180.06 982.999 1178.95L982.157 1177.13ZM974.598 1178.6H973.698V1180.6H974.598V1178.6ZM973.698 1178.6C970.62 1178.6 967.884 1178.04 965.47 1176.95L964.645 1178.77C967.351 1180 970.375 1180.6 973.698 1180.6V1178.6ZM965.488 1176.96C963.125 1175.83 961.268 1174.23 959.892 1172.15L958.223 1173.25C959.808 1175.65 961.95 1177.49 964.628 1178.76L965.488 1176.96ZM959.903 1172.17C958.579 1170.07 957.898 1167.56 957.898 1164.6H955.898C955.898 1167.88 956.656 1170.77 958.212 1173.23L959.903 1172.17ZM957.898 1164.6V1162.74H955.898V1164.6H957.898ZM957.898 1162.74C957.898 1159.77 958.544 1157.27 959.792 1155.22L958.083 1154.18C956.611 1156.61 955.898 1159.47 955.898 1162.74H957.898ZM959.79 1155.22C961.085 1153.11 962.874 1151.52 965.181 1150.45L964.334 1148.63C961.681 1149.88 959.59 1151.73 958.086 1154.18L959.79 1155.22ZM965.193 1150.44C967.517 1149.32 970.204 1148.74 973.278 1148.74V1146.74C969.951 1146.74 966.958 1147.36 964.322 1148.64L965.193 1150.44ZM973.278 1148.74H974.778V1146.74H973.278V1148.74ZM973.758 1154C972.324 1154 971.082 1154.53 970.094 1155.57L971.542 1156.95C972.153 1156.31 972.871 1156 973.758 1156V1154ZM970.111 1155.55C969.118 1156.55 968.618 1157.78 968.618 1159.2H970.618C970.618 1158.3 970.918 1157.57 971.525 1156.97L970.111 1155.55ZM968.618 1159.2V1160.04H970.618V1159.2H968.618ZM969.618 1161.04H977.898V1159.04H969.618V1161.04ZM978.898 1160.04V1159.2H976.898V1160.04H978.898ZM978.898 1159.2C978.898 1157.78 978.398 1156.55 977.405 1155.55L975.991 1156.97C976.598 1157.57 976.898 1158.3 976.898 1159.2H978.898ZM977.422 1155.57C976.433 1154.53 975.191 1154 973.758 1154V1156C974.644 1156 975.362 1156.31 975.974 1156.95L977.422 1155.57ZM1022.45 1150.44L1021.86 1151.24L1021.87 1151.25L1022.45 1150.44ZM1026.71 1171.8L1026.01 1172.51L1026.01 1172.51L1026.71 1171.8ZM1030.13 1171.8H1031.13V1170.09L1029.64 1170.93L1030.13 1171.8ZM1030.13 1178.22L1030.72 1179.03L1031.13 1178.73V1178.22H1030.13ZM1018.01 1178.34L1017.5 1179.2L1017.51 1179.2L1017.52 1179.21L1018.01 1178.34ZM1015.25 1174.74L1016.23 1174.51L1015.78 1172.61L1014.5 1174.09L1015.25 1174.74ZM1010.99 1178.28L1010.5 1177.41L1010.49 1177.41L1010.99 1178.28ZM997.553 1177.74L998.08 1176.89L997.553 1177.74ZM996.893 1164.06L997.581 1164.79L997.591 1164.78L996.893 1164.06ZM1003.55 1160.94L1003.74 1161.92L1003.75 1161.92L1003.55 1160.94ZM1014.65 1160.04V1161.04H1015.65V1160.04H1014.65ZM1013.51 1155.66L1012.85 1156.41L1012.86 1156.42L1012.87 1156.42L1013.51 1155.66ZM1008.11 1155.54L1008.66 1156.38L1008.67 1156.37L1008.11 1155.54ZM1006.91 1157.76V1158.76H1007.91V1157.76H1006.91ZM995.513 1157.76L994.564 1158.08L994.792 1158.76H995.513V1157.76ZM997.193 1152.3L996.434 1151.65L996.432 1151.65L997.193 1152.3ZM1002.23 1149L1002.58 1149.94L1002.59 1149.93L1002.23 1149ZM1014.65 1165.5H1015.65V1164.5H1014.65V1165.5ZM1008.83 1166.58L1009.31 1167.46L1009.32 1167.45L1009.33 1167.44L1008.83 1166.58ZM1013.45 1171.2L1014.14 1171.92L1014.15 1171.92L1014.16 1171.91L1013.45 1171.2ZM1011.83 1148.74C1016.37 1148.74 1019.66 1149.62 1021.86 1151.24L1023.05 1149.64C1020.37 1147.66 1016.58 1146.74 1011.83 1146.74V1148.74ZM1021.87 1151.25C1024.11 1152.88 1025.17 1154.92 1025.17 1157.46H1027.17C1027.17 1154.24 1025.76 1151.6 1023.04 1149.63L1021.87 1151.25ZM1025.17 1157.46V1170.12H1027.17V1157.46H1025.17ZM1025.17 1170.12C1025.17 1171.02 1025.38 1171.88 1026.01 1172.51L1027.42 1171.09C1027.32 1171 1027.17 1170.74 1027.17 1170.12H1025.17ZM1026.01 1172.51C1026.56 1173.06 1027.25 1173.34 1028.03 1173.34V1171.34C1027.77 1171.34 1027.59 1171.26 1027.42 1171.09L1026.01 1172.51ZM1028.03 1173.34C1028.96 1173.34 1029.83 1173.12 1030.62 1172.67L1029.64 1170.93C1029.16 1171.2 1028.63 1171.34 1028.03 1171.34V1173.34ZM1029.13 1171.8V1178.22H1031.13V1171.8H1029.13ZM1029.55 1177.41C1028.53 1178.14 1026.76 1178.6 1024.07 1178.6V1180.6C1026.9 1180.6 1029.18 1180.14 1030.72 1179.03L1029.55 1177.41ZM1024.07 1178.6C1021.61 1178.6 1019.78 1178.19 1018.51 1177.47L1017.52 1179.21C1019.21 1180.17 1021.42 1180.6 1024.07 1180.6V1178.6ZM1018.52 1177.48C1017.25 1176.72 1016.52 1175.74 1016.23 1174.51L1014.28 1174.97C1014.71 1176.78 1015.82 1178.2 1017.5 1179.2L1018.52 1177.48ZM1014.5 1174.09C1013.28 1175.49 1011.95 1176.59 1010.5 1177.41L1011.48 1179.15C1013.15 1178.21 1014.66 1176.95 1016.01 1175.39L1014.5 1174.09ZM1010.49 1177.41C1009.16 1178.19 1007.46 1178.6 1005.35 1178.6V1180.6C1007.72 1180.6 1009.79 1180.13 1011.49 1179.15L1010.49 1177.41ZM1005.35 1178.6C1002.27 1178.6 999.874 1178 998.08 1176.89L997.026 1178.59C999.231 1179.96 1002.03 1180.6 1005.35 1180.6V1178.6ZM998.08 1176.89C996.511 1175.92 995.553 1173.91 995.553 1170.42H993.553C993.553 1174.21 994.594 1177.08 997.026 1178.59L998.08 1176.89ZM995.553 1170.42C995.553 1167.85 996.273 1166.03 997.581 1164.79L996.205 1163.33C994.393 1165.05 993.553 1167.47 993.553 1170.42H995.553ZM997.591 1164.78C998.97 1163.43 1000.99 1162.46 1003.74 1161.92L1003.36 1159.96C1000.36 1160.54 997.935 1161.65 996.195 1163.34L997.591 1164.78ZM1003.75 1161.92C1006.58 1161.34 1010.21 1161.04 1014.65 1161.04V1159.04C1010.14 1159.04 1006.36 1159.34 1003.35 1159.96L1003.75 1161.92ZM1015.65 1160.04V1158.3H1013.65V1160.04H1015.65ZM1015.65 1158.3C1015.65 1156.93 1015.17 1155.75 1014.16 1154.9L1012.87 1156.42C1013.37 1156.85 1013.65 1157.43 1013.65 1158.3H1015.65ZM1014.18 1154.91C1013.24 1154.08 1012.08 1153.7 1010.75 1153.7V1155.7C1011.67 1155.7 1012.34 1155.96 1012.85 1156.41L1014.18 1154.91ZM1010.75 1153.7C1009.62 1153.7 1008.55 1154.05 1007.56 1154.71L1008.67 1156.37C1009.36 1155.91 1010.05 1155.7 1010.75 1155.7V1153.7ZM1007.57 1154.7C1006.55 1155.36 1005.91 1156.31 1005.91 1157.52H1007.91C1007.91 1157.13 1008.08 1156.76 1008.66 1156.38L1007.57 1154.7ZM1005.91 1157.52V1157.76H1007.91V1157.52H1005.91ZM1006.91 1156.76H995.513V1158.76H1006.91V1156.76ZM996.462 1157.44C996.477 1157.49 996.479 1157.51 996.476 1157.49C996.473 1157.47 996.469 1157.44 996.465 1157.39C996.458 1157.28 996.453 1157.13 996.453 1156.92H994.453C994.453 1157.15 994.458 1157.36 994.47 1157.53C994.481 1157.68 994.501 1157.89 994.564 1158.08L996.462 1157.44ZM996.453 1156.92C996.453 1155.45 996.941 1154.14 997.954 1152.95L996.432 1151.65C995.124 1153.18 994.453 1154.95 994.453 1156.92H996.453ZM997.952 1152.95C999.017 1151.71 1000.54 1150.69 1002.58 1149.94L1001.89 1148.06C999.605 1148.91 997.769 1150.09 996.434 1151.65L997.952 1152.95ZM1002.59 1149.93C1004.65 1149.15 1007.07 1148.74 1009.85 1148.74V1146.74C1006.88 1146.74 1004.21 1147.17 1001.88 1148.07L1002.59 1149.93ZM1009.85 1148.74H1011.83V1146.74H1009.85V1148.74ZM1014.65 1164.5C1011.96 1164.5 1009.8 1164.86 1008.33 1165.72L1009.33 1167.44C1010.34 1166.86 1012.06 1166.5 1014.65 1166.5V1164.5ZM1008.35 1165.7C1006.85 1166.53 1005.97 1167.8 1005.97 1169.46H1007.97C1007.97 1168.64 1008.34 1167.99 1009.31 1167.46L1008.35 1165.7ZM1005.97 1169.46C1005.97 1170.64 1006.35 1171.68 1007.25 1172.4C1008.1 1173.08 1009.27 1173.34 1010.57 1173.34V1171.34C1009.48 1171.34 1008.84 1171.12 1008.5 1170.84C1008.19 1170.6 1007.97 1170.2 1007.97 1169.46H1005.97ZM1010.57 1173.34C1011.94 1173.34 1013.15 1172.86 1014.14 1171.92L1012.76 1170.47C1012.15 1171.06 1011.44 1171.34 1010.57 1171.34V1173.34ZM1014.16 1171.91C1015.17 1170.9 1015.65 1169.62 1015.65 1168.14H1013.65C1013.65 1169.14 1013.34 1169.9 1012.75 1170.49L1014.16 1171.91ZM1015.65 1168.14V1165.5H1013.65V1168.14H1015.65ZM1077.29 1148.94L1076.79 1149.8L1076.8 1149.81L1077.29 1148.94ZM1080.59 1152.24L1079.73 1152.74L1079.73 1152.75L1080.59 1152.24ZM1081.79 1179V1180H1082.79V1179H1081.79ZM1070.15 1179H1069.15V1180H1070.15V1179ZM1069.31 1157.22L1068.54 1157.85L1068.56 1157.88L1068.58 1157.9L1069.31 1157.22ZM1065.17 1157.22L1064.42 1156.56L1064.42 1156.57L1065.17 1157.22ZM1064.39 1179V1180H1065.39V1179H1064.39ZM1052.75 1179H1051.75V1180H1052.75V1179ZM1051.91 1157.22L1051.14 1157.85L1051.16 1157.88L1051.18 1157.9L1051.91 1157.22ZM1047.77 1157.22L1047.02 1156.56L1047.02 1156.57L1047.77 1157.22ZM1046.99 1179V1180H1047.99V1179H1046.99ZM1035.35 1179H1034.35V1180H1035.35V1179ZM1035.35 1148.34V1147.34H1034.35V1148.34H1035.35ZM1044.23 1148.34L1045.2 1148.07L1044.99 1147.34H1044.23V1148.34ZM1045.49 1152.78L1044.53 1153.05L1045.07 1154.96L1046.29 1153.39L1045.49 1152.78ZM1060.01 1149L1059.5 1149.86L1059.5 1149.86L1060.01 1149ZM1063.25 1152.42L1062.37 1152.89L1063.21 1154.48L1064.12 1152.92L1063.25 1152.42ZM1066.55 1149L1066.04 1148.14L1066.03 1148.15L1066.55 1149ZM1072.79 1148.74C1074.26 1148.74 1075.59 1149.1 1076.79 1149.8L1077.8 1148.08C1076.28 1147.18 1074.61 1146.74 1072.79 1146.74V1148.74ZM1076.8 1149.81C1078.04 1150.52 1079.01 1151.49 1079.73 1152.74L1081.46 1151.74C1080.57 1150.19 1079.35 1148.96 1077.79 1148.07L1076.8 1149.81ZM1079.73 1152.75C1080.44 1153.95 1080.79 1155.27 1080.79 1156.74H1082.79C1082.79 1154.93 1082.35 1153.25 1081.46 1151.73L1079.73 1152.75ZM1080.79 1156.74V1179H1082.79V1156.74H1080.79ZM1081.79 1178H1070.15V1180H1081.79V1178ZM1071.15 1179V1159.56H1069.15V1179H1071.15ZM1071.15 1159.56C1071.15 1158.39 1070.81 1157.35 1070.05 1156.54L1068.58 1157.9C1068.94 1158.29 1069.15 1158.81 1069.15 1159.56H1071.15ZM1070.09 1156.59C1069.38 1155.71 1068.41 1155.26 1067.27 1155.26V1157.26C1067.82 1157.26 1068.21 1157.45 1068.54 1157.85L1070.09 1156.59ZM1067.27 1155.26C1066.14 1155.26 1065.17 1155.71 1064.42 1156.56L1065.93 1157.88C1066.3 1157.45 1066.73 1157.26 1067.27 1157.26V1155.26ZM1064.42 1156.57C1063.71 1157.38 1063.39 1158.41 1063.39 1159.56H1065.39C1065.39 1158.79 1065.6 1158.26 1065.93 1157.87L1064.42 1156.57ZM1063.39 1159.56V1179H1065.39V1159.56H1063.39ZM1064.39 1178H1052.75V1180H1064.39V1178ZM1053.75 1179V1159.56H1051.75V1179H1053.75ZM1053.75 1159.56C1053.75 1158.39 1053.41 1157.35 1052.65 1156.54L1051.18 1157.9C1051.54 1158.29 1051.75 1158.81 1051.75 1159.56H1053.75ZM1052.69 1156.59C1051.98 1155.71 1051.01 1155.26 1049.87 1155.26V1157.26C1050.42 1157.26 1050.81 1157.45 1051.14 1157.85L1052.69 1156.59ZM1049.87 1155.26C1048.74 1155.26 1047.77 1155.71 1047.02 1156.56L1048.53 1157.88C1048.9 1157.45 1049.33 1157.26 1049.87 1157.26V1155.26ZM1047.02 1156.57C1046.31 1157.38 1045.99 1158.41 1045.99 1159.56H1047.99C1047.99 1158.79 1048.2 1158.26 1048.53 1157.87L1047.02 1156.57ZM1045.99 1159.56V1179H1047.99V1159.56H1045.99ZM1046.99 1178H1035.35V1180H1046.99V1178ZM1036.35 1179V1148.34H1034.35V1179H1036.35ZM1035.35 1149.34H1044.23V1147.34H1035.35V1149.34ZM1043.27 1148.61L1044.53 1153.05L1046.46 1152.51L1045.2 1148.07L1043.27 1148.61ZM1046.29 1153.39C1048.79 1150.16 1051.29 1148.74 1053.77 1148.74V1146.74C1050.42 1146.74 1047.4 1148.68 1044.7 1152.17L1046.29 1153.39ZM1053.77 1148.74H1055.39V1146.74H1053.77V1148.74ZM1055.39 1148.74C1056.9 1148.74 1058.26 1149.11 1059.5 1149.86L1060.53 1148.14C1058.97 1147.21 1057.25 1146.74 1055.39 1146.74V1148.74ZM1059.5 1149.86C1060.74 1150.6 1061.7 1151.61 1062.37 1152.89L1064.14 1151.95C1063.29 1150.35 1062.09 1149.08 1060.53 1148.14L1059.5 1149.86ZM1064.12 1152.92C1064.88 1151.62 1065.87 1150.6 1067.08 1149.85L1066.03 1148.15C1064.52 1149.08 1063.31 1150.34 1062.39 1151.92L1064.12 1152.92ZM1067.07 1149.86C1068.31 1149.11 1069.67 1148.74 1071.17 1148.74V1146.74C1069.32 1146.74 1067.6 1147.21 1066.04 1148.14L1067.07 1149.86ZM1071.17 1148.74H1072.79V1146.74H1071.17V1148.74ZM1126.64 1138.74L1126.22 1139.65L1126.23 1139.65L1126.64 1138.74ZM1131.74 1142.82L1130.92 1143.39L1130.93 1143.4L1130.94 1143.41L1131.74 1142.82ZM1132.04 1153.98L1131.2 1153.44L1131.19 1153.45L1132.04 1153.98ZM1127.9 1157.46L1127.52 1156.53L1125.07 1157.54L1127.58 1158.41L1127.9 1157.46ZM1133 1161.24L1132.18 1161.8L1132.18 1161.8L1133 1161.24ZM1132.94 1173.72L1132.12 1173.15L1132.12 1173.16L1132.11 1173.17L1132.94 1173.72ZM1127.6 1178.04L1128.01 1178.96L1128.02 1178.95L1127.6 1178.04ZM1108.28 1178.04L1107.87 1178.95L1107.88 1178.96L1108.28 1178.04ZM1102.88 1173.72L1102.05 1174.27L1102.06 1174.28L1102.06 1174.29L1102.88 1173.72ZM1101.08 1166.46V1165.46H1100.08V1166.46H1101.08ZM1111.64 1166.46H1112.64V1165.46H1111.64V1166.46ZM1112.84 1169.52L1112.14 1170.23L1112.14 1170.24L1112.15 1170.24L1112.84 1169.52ZM1121.6 1169.4L1120.9 1168.69L1120.89 1168.7L1120.88 1168.71L1121.6 1169.4ZM1121.66 1162.8L1120.96 1163.51L1120.97 1163.53L1120.99 1163.54L1121.66 1162.8ZM1112.42 1161.66H1111.42V1162.66H1112.42V1161.66ZM1112.42 1154.28V1153.28H1111.42V1154.28H1112.42ZM1120.7 1153.2L1121.39 1153.93L1121.39 1153.92L1120.7 1153.2ZM1120.64 1147.32L1119.95 1148.04L1119.97 1148.06L1119.99 1148.08L1120.64 1147.32ZM1113.62 1147.32L1114.29 1148.06L1114.29 1148.06L1113.62 1147.32ZM1112.42 1149.96V1150.96H1113.42V1149.96H1112.42ZM1102.4 1149.96H1101.4V1150.96H1102.4V1149.96ZM1104.26 1142.82L1105.07 1143.41L1105.07 1143.4L1104.26 1142.82ZM1109.54 1138.74L1109.94 1139.66L1109.94 1139.66L1109.54 1138.74ZM1119.2 1138.24C1121.88 1138.24 1124.22 1138.72 1126.22 1139.65L1127.06 1137.83C1124.75 1136.76 1122.12 1136.24 1119.2 1136.24V1138.24ZM1126.23 1139.65C1128.29 1140.59 1129.84 1141.84 1130.92 1143.39L1132.56 1142.25C1131.25 1140.36 1129.39 1138.89 1127.06 1137.83L1126.23 1139.65ZM1130.94 1143.41C1132.05 1144.93 1132.6 1146.58 1132.6 1148.4H1134.6C1134.6 1146.14 1133.91 1144.07 1132.55 1142.23L1130.94 1143.41ZM1132.6 1148.4C1132.6 1150.3 1132.13 1151.98 1131.2 1153.44L1132.89 1154.52C1134.04 1152.7 1134.6 1150.66 1134.6 1148.4H1132.6ZM1131.19 1153.45C1130.31 1154.87 1129.09 1155.89 1127.52 1156.53L1128.28 1158.39C1130.23 1157.59 1131.78 1156.29 1132.89 1154.51L1131.19 1153.45ZM1127.58 1158.41C1129.59 1159.1 1131.11 1160.24 1132.18 1161.8L1133.83 1160.68C1132.5 1158.72 1130.61 1157.34 1128.23 1156.51L1127.58 1158.41ZM1132.18 1161.8C1133.24 1163.37 1133.8 1165.3 1133.8 1167.66H1135.8C1135.8 1164.98 1135.16 1162.63 1133.83 1160.68L1132.18 1161.8ZM1133.8 1167.66C1133.8 1169.7 1133.24 1171.52 1132.12 1173.15L1133.77 1174.29C1135.12 1172.32 1135.8 1170.1 1135.8 1167.66H1133.8ZM1132.11 1173.17C1131.03 1174.78 1129.41 1176.11 1127.19 1177.13L1128.02 1178.95C1130.51 1177.81 1132.45 1176.26 1133.77 1174.27L1132.11 1173.17ZM1127.2 1177.12C1124.99 1178.1 1122.34 1178.6 1119.2 1178.6V1180.6C1122.55 1180.6 1125.49 1180.06 1128.01 1178.96L1127.2 1177.12ZM1119.2 1178.6H1116.68V1180.6H1119.2V1178.6ZM1116.68 1178.6C1113.55 1178.6 1110.89 1178.1 1108.69 1177.12L1107.88 1178.96C1110.39 1180.06 1113.34 1180.6 1116.68 1180.6V1178.6ZM1108.7 1177.13C1106.47 1176.11 1104.83 1174.78 1103.71 1173.15L1102.06 1174.29C1103.42 1176.26 1105.37 1177.81 1107.87 1178.95L1108.7 1177.13ZM1103.71 1173.17C1102.63 1171.53 1102.08 1169.73 1102.08 1167.72H1100.08C1100.08 1170.11 1100.74 1172.31 1102.05 1174.27L1103.71 1173.17ZM1102.08 1167.72V1166.46H1100.08V1167.72H1102.08ZM1101.08 1167.46H1111.64V1165.46H1101.08V1167.46ZM1110.64 1166.46C1110.64 1167.94 1111.13 1169.22 1112.14 1170.23L1113.55 1168.81C1112.96 1168.22 1112.64 1167.46 1112.64 1166.46H1110.64ZM1112.15 1170.24C1113.21 1171.25 1114.7 1171.66 1116.44 1171.66V1169.66C1114.98 1169.66 1114.08 1169.31 1113.53 1168.8L1112.15 1170.24ZM1116.44 1171.66H1118.06V1169.66H1116.44V1171.66ZM1118.06 1171.66C1119.8 1171.66 1121.28 1171.19 1122.33 1170.09L1120.88 1168.71C1120.33 1169.29 1119.45 1169.66 1118.06 1169.66V1171.66ZM1122.31 1170.11C1123.38 1169.04 1123.86 1167.63 1123.86 1165.98H1121.86C1121.86 1167.21 1121.51 1168.08 1120.9 1168.69L1122.31 1170.11ZM1123.86 1165.98C1123.86 1164.39 1123.4 1163.02 1122.33 1162.06L1120.99 1163.54C1121.52 1164.02 1121.86 1164.77 1121.86 1165.98H1123.86ZM1122.37 1162.09C1121.39 1161.12 1120.12 1160.66 1118.66 1160.66V1162.66C1119.68 1162.66 1120.41 1162.96 1120.96 1163.51L1122.37 1162.09ZM1118.66 1160.66H1112.42V1162.66H1118.66V1160.66ZM1113.42 1161.66V1154.28H1111.42V1161.66H1113.42ZM1112.42 1155.28H1117.7V1153.28H1112.42V1155.28ZM1117.7 1155.28C1119.15 1155.28 1120.41 1154.85 1121.39 1153.93L1120.02 1152.47C1119.47 1152.99 1118.74 1153.28 1117.7 1153.28V1155.28ZM1121.39 1153.92C1122.44 1152.93 1122.9 1151.56 1122.9 1149.96H1120.9C1120.9 1151.16 1120.57 1151.95 1120.01 1152.48L1121.39 1153.92ZM1122.9 1149.96C1122.9 1148.61 1122.34 1147.46 1121.29 1146.56L1119.99 1148.08C1120.63 1148.62 1120.9 1149.23 1120.9 1149.96H1122.9ZM1121.33 1146.6C1120.34 1145.65 1119.1 1145.18 1117.7 1145.18V1147.18C1118.62 1147.18 1119.35 1147.47 1119.95 1148.04L1121.33 1146.6ZM1117.7 1145.18H1116.62V1147.18H1117.7V1145.18ZM1116.62 1145.18C1115.22 1145.18 1113.98 1145.65 1112.95 1146.58L1114.29 1148.06C1114.95 1147.47 1115.7 1147.18 1116.62 1147.18V1145.18ZM1112.95 1146.58C1111.95 1147.48 1111.42 1148.63 1111.42 1149.96H1113.42C1113.42 1149.21 1113.69 1148.6 1114.29 1148.06L1112.95 1146.58ZM1112.42 1148.96H1102.4V1150.96H1112.42V1148.96ZM1103.4 1149.96V1148.46H1101.4V1149.96H1103.4ZM1103.4 1148.46C1103.4 1146.59 1103.95 1144.92 1105.07 1143.41L1103.46 1142.23C1102.09 1144.08 1101.4 1146.17 1101.4 1148.46H1103.4ZM1105.07 1143.4C1106.19 1141.85 1107.8 1140.6 1109.94 1139.66L1109.14 1137.82C1106.73 1138.88 1104.81 1140.35 1103.45 1142.24L1105.07 1143.4ZM1109.94 1139.66C1112.08 1138.72 1114.56 1138.24 1117.4 1138.24V1136.24C1114.33 1136.24 1111.57 1136.76 1109.14 1137.82L1109.94 1139.66ZM1117.4 1138.24H1119.2V1136.24H1117.4V1138.24ZM1175.2 1137.84L1176.05 1138.36L1176.98 1136.84H1175.2V1137.84ZM1150.18 1179V1180H1150.74L1151.03 1179.52L1150.18 1179ZM1144.48 1179L1143.62 1178.48L1142.69 1180H1144.48V1179ZM1169.62 1137.84V1136.84H1169.06L1168.76 1137.32L1169.62 1137.84ZM1154.02 1140.06L1153.31 1140.77L1153.32 1140.78L1154.02 1140.06ZM1154.02 1156.62L1153.32 1155.9L1153.31 1155.91L1154.02 1156.62ZM1142.26 1156.62L1142.96 1155.91L1142.96 1155.91L1142.26 1156.62ZM1142.26 1140.06L1141.55 1139.35L1141.55 1139.35L1142.26 1140.06ZM1146.58 1142.82L1145.87 1142.11L1145.87 1142.11L1146.58 1142.82ZM1146.58 1153.8L1145.87 1154.51L1145.87 1154.51L1146.58 1153.8ZM1149.7 1153.8L1148.99 1153.09L1148.97 1153.11L1148.96 1153.13L1149.7 1153.8ZM1149.7 1142.82L1148.96 1143.49L1148.97 1143.51L1148.99 1143.53L1149.7 1142.82ZM1177.42 1160.28L1176.71 1160.99L1176.72 1161L1177.42 1160.28ZM1178.62 1175.34L1179.47 1175.86L1179.48 1175.85L1179.48 1175.85L1178.62 1175.34ZM1175.86 1178.04L1175.35 1177.18L1175.34 1177.18L1175.34 1177.19L1175.86 1178.04ZM1165.66 1176.9L1164.94 1177.6L1164.95 1177.61L1165.66 1176.9ZM1169.98 1163.1L1170.68 1163.81L1170.7 1163.79L1170.71 1163.78L1169.98 1163.1ZM1169.98 1174.08L1169.24 1174.76L1169.25 1174.77L1169.27 1174.79L1169.98 1174.08ZM1173.1 1174.08L1172.36 1173.4L1172.36 1173.41L1173.1 1174.08ZM1173.1 1163.1L1172.33 1163.74L1172.36 1163.78L1172.39 1163.81L1173.1 1163.1ZM1174.34 1137.32L1149.32 1178.48L1151.03 1179.52L1176.05 1138.36L1174.34 1137.32ZM1150.18 1178H1144.48V1180H1150.18V1178ZM1145.33 1179.52L1170.47 1138.36L1168.76 1137.32L1143.62 1178.48L1145.33 1179.52ZM1169.62 1138.84H1175.2V1136.84H1169.62V1138.84ZM1148.8 1138.9C1150.57 1138.9 1152.06 1139.52 1153.31 1140.77L1154.72 1139.35C1153.1 1137.72 1151.1 1136.9 1148.8 1136.9V1138.9ZM1153.32 1140.78C1154.61 1142.03 1155.24 1143.51 1155.24 1145.28H1157.24C1157.24 1142.97 1156.39 1140.97 1154.71 1139.34L1153.32 1140.78ZM1155.24 1145.28V1151.4H1157.24V1145.28H1155.24ZM1155.24 1151.4C1155.24 1153.17 1154.61 1154.65 1153.32 1155.9L1154.71 1157.34C1156.39 1155.71 1157.24 1153.71 1157.24 1151.4H1155.24ZM1153.31 1155.91C1152.06 1157.16 1150.57 1157.78 1148.8 1157.78V1159.78C1151.1 1159.78 1153.1 1158.96 1154.72 1157.33L1153.31 1155.91ZM1148.8 1157.78H1147.48V1159.78H1148.8V1157.78ZM1147.48 1157.78C1145.7 1157.78 1144.22 1157.16 1142.96 1155.91L1141.55 1157.33C1143.18 1158.96 1145.17 1159.78 1147.48 1159.78V1157.78ZM1142.96 1155.91C1141.71 1154.66 1141.1 1153.18 1141.1 1151.4H1139.1C1139.1 1153.7 1139.92 1155.7 1141.55 1157.33L1142.96 1155.91ZM1141.1 1151.4V1145.28H1139.1V1151.4H1141.1ZM1141.1 1145.28C1141.1 1143.5 1141.71 1142.02 1142.96 1140.77L1141.55 1139.35C1139.92 1140.98 1139.1 1142.98 1139.1 1145.28H1141.1ZM1142.96 1140.77C1144.22 1139.52 1145.7 1138.9 1147.48 1138.9V1136.9C1145.17 1136.9 1143.18 1137.72 1141.55 1139.35L1142.96 1140.77ZM1147.48 1138.9H1148.8V1136.9H1147.48V1138.9ZM1148.14 1141.16C1147.26 1141.16 1146.49 1141.49 1145.87 1142.11L1147.28 1143.53C1147.54 1143.27 1147.81 1143.16 1148.14 1143.16V1141.16ZM1145.87 1142.11C1145.22 1142.76 1144.92 1143.58 1144.92 1144.5H1146.92C1146.92 1144.06 1147.05 1143.76 1147.28 1143.53L1145.87 1142.11ZM1144.92 1144.5V1152.12H1146.92V1144.5H1144.92ZM1144.92 1152.12C1144.92 1153.04 1145.22 1153.86 1145.87 1154.51L1147.28 1153.09C1147.05 1152.86 1146.92 1152.56 1146.92 1152.12H1144.92ZM1145.87 1154.51C1146.49 1155.13 1147.26 1155.46 1148.14 1155.46V1153.46C1147.81 1153.46 1147.54 1153.35 1147.28 1153.09L1145.87 1154.51ZM1148.14 1155.46C1149.03 1155.46 1149.83 1155.14 1150.44 1154.47L1148.96 1153.13C1148.76 1153.34 1148.52 1153.46 1148.14 1153.46V1155.46ZM1150.4 1154.51C1151.05 1153.86 1151.36 1153.04 1151.36 1152.12H1149.36C1149.36 1152.56 1149.22 1152.86 1148.99 1153.09L1150.4 1154.51ZM1151.36 1152.12V1144.5H1149.36V1152.12H1151.36ZM1151.36 1144.5C1151.36 1143.58 1151.05 1142.76 1150.4 1142.11L1148.99 1143.53C1149.22 1143.76 1149.36 1144.06 1149.36 1144.5H1151.36ZM1150.44 1142.15C1149.83 1141.48 1149.03 1141.16 1148.14 1141.16V1143.16C1148.52 1143.16 1148.76 1143.28 1148.96 1143.49L1150.44 1142.15ZM1172.2 1159.12C1173.97 1159.12 1175.46 1159.74 1176.71 1160.99L1178.12 1159.57C1176.5 1157.94 1174.5 1157.12 1172.2 1157.12V1159.12ZM1176.72 1161C1178.01 1162.25 1178.64 1163.73 1178.64 1165.5H1180.64C1180.64 1163.19 1179.79 1161.19 1178.11 1159.56L1176.72 1161ZM1178.64 1165.5V1171.62H1180.64V1165.5H1178.64ZM1178.64 1171.62C1178.64 1172.76 1178.35 1173.82 1177.75 1174.83L1179.48 1175.85C1180.25 1174.54 1180.64 1173.12 1180.64 1171.62H1178.64ZM1177.76 1174.82C1177.17 1175.8 1176.37 1176.58 1175.35 1177.18L1176.36 1178.9C1177.66 1178.14 1178.7 1177.12 1179.47 1175.86L1177.76 1174.82ZM1175.34 1177.19C1174.38 1177.77 1173.34 1178.06 1172.2 1178.06V1180.06C1173.7 1180.06 1175.1 1179.67 1176.38 1178.89L1175.34 1177.19ZM1172.2 1178.06H1170.88V1180.06H1172.2V1178.06ZM1170.88 1178.06C1169.1 1178.06 1167.62 1177.44 1166.36 1176.19L1164.95 1177.61C1166.58 1179.24 1168.57 1180.06 1170.88 1180.06V1178.06ZM1166.37 1176.2C1165.11 1174.91 1164.5 1173.4 1164.5 1171.62H1162.5C1162.5 1173.92 1163.32 1175.93 1164.94 1177.6L1166.37 1176.2ZM1164.5 1171.62V1165.5H1162.5V1171.62H1164.5ZM1164.5 1165.5C1164.5 1163.72 1165.11 1162.24 1166.36 1160.99L1164.95 1159.57C1163.32 1161.2 1162.5 1163.2 1162.5 1165.5H1164.5ZM1166.36 1160.99C1167.62 1159.74 1169.1 1159.12 1170.88 1159.12V1157.12C1168.57 1157.12 1166.58 1157.94 1164.95 1159.57L1166.36 1160.99ZM1170.88 1159.12H1172.2V1157.12H1170.88V1159.12ZM1171.54 1161.38C1170.63 1161.38 1169.85 1161.76 1169.24 1162.42L1170.71 1163.78C1170.98 1163.48 1171.24 1163.38 1171.54 1163.38V1161.38ZM1169.27 1162.39C1168.62 1163.04 1168.32 1163.86 1168.32 1164.78H1170.32C1170.32 1164.34 1170.45 1164.04 1170.68 1163.81L1169.27 1162.39ZM1168.32 1164.78V1172.4H1170.32V1164.78H1168.32ZM1168.32 1172.4C1168.32 1173.29 1168.63 1174.09 1169.24 1174.76L1170.71 1173.4C1170.44 1173.11 1170.32 1172.79 1170.32 1172.4H1168.32ZM1169.27 1174.79C1169.89 1175.41 1170.66 1175.74 1171.54 1175.74V1173.74C1171.21 1173.74 1170.94 1173.63 1170.68 1173.37L1169.27 1174.79ZM1171.54 1175.74C1172.43 1175.74 1173.23 1175.42 1173.84 1174.75L1172.36 1173.41C1172.16 1173.62 1171.92 1173.74 1171.54 1173.74V1175.74ZM1173.83 1174.76C1174.44 1174.09 1174.76 1173.29 1174.76 1172.4H1172.76C1172.76 1172.79 1172.63 1173.11 1172.36 1173.4L1173.83 1174.76ZM1174.76 1172.4V1164.78H1172.76V1172.4H1174.76ZM1174.76 1164.78C1174.76 1163.86 1174.45 1163.04 1173.8 1162.39L1172.39 1163.81C1172.62 1164.04 1172.76 1164.34 1172.76 1164.78H1174.76ZM1173.87 1162.46C1173.27 1161.75 1172.47 1161.38 1171.54 1161.38V1163.38C1171.89 1163.38 1172.12 1163.49 1172.33 1163.74L1173.87 1162.46Z" fill="black" mask="url(#path-8-outside-2_682_2)"/>
<path d="M620.667 142C620.667 134.636 626.636 128.667 634 128.667C641.364 128.667 647.333 134.636 647.333 142C647.333 149.364 641.364 155.333 634 155.333C626.636 155.333 620.667 149.364 620.667 142ZM834.937 1214V1216.5H832.862L832.48 1214.46L834.937 1214ZM1185.18 1211.5C1186.56 1211.5 1187.68 1212.62 1187.68 1214C1187.68 1215.38 1186.56 1216.5 1185.18 1216.5V1211.5ZM636.457 141.539L837.394 1213.54L832.48 1214.46L631.543 142.461L636.457 141.539ZM834.937 1211.5H1185.18V1216.5H834.937V1211.5Z" fill="white"/>
</svg>
