<svg width="1374" height="1360" viewBox="0 0 1374 1360" fill="none" xmlns="http://www.w3.org/2000/svg">
<path d="M694 0C766.809 8.68234e-07 839.145 11.6931 908.245 34.6326L822.547 292.78C781.087 279.016 737.685 272 694 272V0Z" fill="#5F52F1"/>
<path d="M566.582 12.0444C608.582 4.03259 651.244 -8.20618e-05 694.001 1.2524e-09L694.001 272C668.346 272 642.749 274.42 617.549 279.227L566.582 12.0444Z" fill="#01D3EC"/>
<path d="M143.868 280.306C245.53 140.382 396.689 44.4531 566.581 12.0446L617.549 279.227C515.613 298.672 424.918 356.229 363.921 440.184L143.868 280.306Z" fill="#8CC0B9"/>
<path d="M907.729 34.4616C1044.05 79.5968 1162.59 166.731 1246.35 283.375C1330.11 400.02 1374.79 540.187 1373.99 683.786L1101.99 682.272C1102.47 596.112 1075.66 512.012 1025.41 442.025C975.154 372.039 904.032 319.758 822.238 292.677L907.729 34.4616Z" fill="#FFE657"/>
<path d="M1374 680C1374 823.602 1328.54 963.518 1244.13 1079.69L1024.08 919.816C1074.72 850.111 1102 766.161 1102 680H1374Z" fill="#525775"/>
<path d="M1244.13 1079.69C1181.06 1166.51 1098.33 1237.17 1002.71 1285.88C907.099 1334.6 801.311 1360 694 1360C586.689 1360 480.901 1334.6 385.286 1285.88C289.671 1237.17 206.944 1166.51 143.868 1079.69L363.921 919.816C401.766 971.906 451.403 1014.3 508.772 1043.53C566.141 1072.76 629.613 1088 694 1088C758.387 1088 821.859 1072.76 879.228 1043.53C936.597 1014.3 986.233 971.906 1024.08 919.816L1244.13 1079.69Z" fill="#9F8CC0"/>
<mask id="path-7-outside-1_661_101" maskUnits="userSpaceOnUse" x="0" y="266" width="378" height="828" fill="black">
<rect fill="white" y="266" width="378" height="828"/>
<path d="M143.868 1079.69C59.4613 963.518 14 823.602 14 680C14 536.398 59.4614 396.482 143.869 280.306L363.921 440.183C313.277 509.889 286 593.839 286 680C286 766.161 313.277 850.111 363.921 919.816L143.868 1079.69Z"/>
</mask>
<path d="M143.868 1079.69C59.4613 963.518 14 823.602 14 680C14 536.398 59.4614 396.482 143.869 280.306L363.921 440.183C313.277 509.889 286 593.839 286 680C286 766.161 313.277 850.111 363.921 919.816L143.868 1079.69Z" fill="#FF4059"/>
<path d="M143.868 1079.69C59.4613 963.518 14 823.602 14 680C14 536.398 59.4614 396.482 143.869 280.306L363.921 440.183C313.277 509.889 286 593.839 286 680C286 766.161 313.277 850.111 363.921 919.816L143.868 1079.69Z" stroke="#30324F" stroke-width="28" stroke-linejoin="round" mask="url(#path-7-outside-1_661_101)"/>
<mask id="path-8-outside-2_661_101" maskUnits="userSpaceOnUse" x="384" y="164" width="402" height="35" fill="black">
<rect fill="white" x="384" y="164" width="402" height="35"/>
<path d="M401.963 166.816C403.635 166.816 405.175 167.227 406.583 168.048C408.02 168.869 409.15 169.999 409.971 171.436C410.792 172.844 411.203 174.384 411.203 176.056V177.024C411.203 178.696 410.792 180.251 409.971 181.688C409.15 183.096 408.02 184.211 406.583 185.032C405.175 185.853 403.635 186.264 401.963 186.264H395.143V197H385.903V166.816H401.963ZM395.143 179.532H399.191C400.012 179.532 400.658 179.268 401.127 178.74C401.596 178.183 401.831 177.567 401.831 176.892V176.364C401.831 175.689 401.596 175.088 401.127 174.56C400.687 174.003 400.042 173.724 399.191 173.724H395.143V179.532ZM423.942 171.612H415.274V165.32H423.942V171.612ZM423.942 197H415.274V174.56H423.942V197ZM445.145 174.076C446.348 174.076 447.448 174.369 448.445 174.956C449.472 175.543 450.278 176.349 450.865 177.376C451.452 178.373 451.745 179.473 451.745 180.676V197H443.033V182.92C443.033 182.187 442.798 181.571 442.329 181.072C441.889 180.544 441.346 180.28 440.701 180.28C440.056 180.28 439.498 180.544 439.029 181.072C438.589 181.571 438.369 182.187 438.369 182.92V197H429.657V174.516H436.213L437.093 177.772C438.706 175.308 440.98 174.076 443.913 174.076H445.145ZM466.029 165.32V182.876L471.749 174.516H481.693L473.817 184.68L481.825 197H471.573L467.613 190.62L466.029 191.984V197H457.317V165.32H466.029ZM496.325 174.076C497.733 174.076 499.17 174.311 500.637 174.78C502.133 175.22 503.379 175.895 504.377 176.804C505.374 177.713 505.873 178.813 505.873 180.104C505.873 180.368 505.858 180.617 505.829 180.852C505.799 181.057 505.785 181.189 505.785 181.248H498.569C498.569 180.544 498.246 180.045 497.601 179.752C496.985 179.429 496.281 179.268 495.489 179.268C493.318 179.268 492.233 179.693 492.233 180.544C492.233 181.072 492.555 181.439 493.201 181.644C493.875 181.82 494.975 181.996 496.501 182.172C498.495 182.407 500.138 182.7 501.429 183.052C502.749 183.404 503.893 184.093 504.861 185.12C505.858 186.117 506.357 187.584 506.357 189.52C506.357 192.277 505.345 194.287 503.321 195.548C501.326 196.809 498.862 197.44 495.929 197.44H493.641C491.998 197.44 490.429 197.191 488.933 196.692C487.466 196.164 486.263 195.372 485.325 194.316C484.386 193.26 483.917 191.969 483.917 190.444V190.048C483.917 189.872 483.931 189.74 483.961 189.652H491.089V189.828C491.089 190.679 491.47 191.28 492.233 191.632C492.995 191.955 493.875 192.116 494.873 192.116C495.753 192.116 496.589 192.028 497.381 191.852C498.202 191.676 498.613 191.309 498.613 190.752C498.613 190.195 498.275 189.813 497.601 189.608C496.926 189.373 495.811 189.139 494.257 188.904C492.379 188.669 490.781 188.361 489.461 187.98C488.141 187.599 486.997 186.909 486.029 185.912C485.09 184.885 484.621 183.463 484.621 181.644C484.621 179.943 485.134 178.535 486.161 177.42C487.217 176.276 488.537 175.44 490.121 174.912C491.705 174.355 493.318 174.076 494.961 174.076H496.325ZM522.575 174.076C525.977 174.076 528.573 174.736 530.363 176.056C532.181 177.376 533.091 179.092 533.091 181.204V190.488C533.091 191.045 533.223 191.456 533.487 191.72C533.751 191.984 534.073 192.116 534.455 192.116C535.012 192.116 535.525 191.984 535.995 191.72V196.428C535.056 197.103 533.575 197.44 531.551 197.44C529.673 197.44 528.192 197.132 527.107 196.516C526.021 195.871 525.347 194.991 525.083 193.876C524.144 194.961 523.103 195.827 521.959 196.472C520.844 197.117 519.465 197.44 517.823 197.44C515.476 197.44 513.569 196.985 512.103 196.076C510.636 195.167 509.903 193.377 509.903 190.708C509.903 188.684 510.475 187.129 511.619 186.044C512.763 184.929 514.391 184.167 516.503 183.756C518.644 183.316 521.357 183.096 524.643 183.096V181.82C524.643 180.999 524.364 180.353 523.807 179.884C523.279 179.415 522.604 179.18 521.783 179.18C521.108 179.18 520.463 179.385 519.847 179.796C519.26 180.177 518.967 180.661 518.967 181.248V181.424H510.607C510.577 181.336 510.563 181.131 510.563 180.808C510.563 179.547 510.988 178.417 511.839 177.42C512.719 176.393 513.951 175.587 515.535 175C517.148 174.384 519.011 174.076 521.123 174.076H522.575ZM524.643 187.1C522.707 187.1 521.284 187.364 520.375 187.892C519.465 188.391 519.011 189.095 519.011 190.004C519.011 191.412 519.891 192.116 521.651 192.116C522.472 192.116 523.176 191.837 523.763 191.28C524.349 190.693 524.643 189.945 524.643 189.036V187.1ZM548.536 165.32V197H539.824V165.32H548.536ZM566.349 174.076C568.608 174.076 570.544 174.516 572.157 175.396C573.8 176.247 575.046 177.435 575.897 178.96C576.777 180.485 577.217 182.231 577.217 184.196V186.924H562.565V189.036C562.565 190.033 562.873 190.796 563.489 191.324C564.134 191.852 564.956 192.116 565.953 192.116C566.98 192.116 567.757 191.808 568.285 191.192C568.842 190.547 569.121 189.667 569.121 188.552H577.173C577.173 190.224 576.733 191.735 575.853 193.084C575.002 194.433 573.741 195.504 572.069 196.296C570.426 197.059 568.476 197.44 566.217 197.44H565.557C563.21 197.44 561.098 197.015 559.221 196.164C557.373 195.284 555.906 194.023 554.821 192.38C553.765 190.708 553.237 188.728 553.237 186.44V185.076C553.237 182.788 553.736 180.823 554.733 179.18C555.76 177.508 557.182 176.247 559.001 175.396C560.82 174.516 562.902 174.076 565.249 174.076H566.349ZM565.601 179.4C564.75 179.4 564.032 179.708 563.445 180.324C562.858 180.911 562.565 181.629 562.565 182.48V183.096H568.637V182.48C568.637 181.629 568.344 180.911 567.757 180.324C567.17 179.708 566.452 179.4 565.601 179.4ZM602.56 166.376C603.322 166.376 604.056 166.42 604.76 166.508V173.108C604.261 172.961 603.836 172.888 603.484 172.888C602.574 172.888 601.812 173.137 601.196 173.636C600.58 174.135 600.272 174.824 600.272 175.704C600.272 176.349 600.506 176.98 600.976 177.596C601.445 178.183 602.149 178.476 603.088 178.476H608.412L610.788 173.24H616.816V178.476H620.336V184.724H616.816V197H602.78C599.26 197 596.385 196.34 594.156 195.02C591.926 193.7 590.812 191.471 590.812 188.332C590.812 184.695 592.616 182.333 596.224 181.248C594.786 180.808 593.672 180.001 592.88 178.828C592.117 177.655 591.736 176.291 591.736 174.736C591.736 172.947 592.249 171.421 593.276 170.16C594.332 168.899 595.681 167.96 597.324 167.344C598.966 166.699 600.712 166.376 602.56 166.376ZM603.088 184.724C601.856 184.724 600.961 185.061 600.404 185.736C599.846 186.381 599.568 187.056 599.568 187.76C599.568 188.787 599.92 189.579 600.624 190.136C601.357 190.664 602.252 190.928 603.308 190.928H608.104V184.724H603.088ZM644.575 189.608H655.531L656.411 197H635.247V166.816H644.575V189.608ZM676.561 166.816C678.233 166.816 679.773 167.227 681.181 168.048C682.618 168.869 683.748 169.999 684.569 171.436C685.39 172.844 685.801 174.384 685.801 176.056V177.024C685.801 178.696 685.39 180.251 684.569 181.688C683.748 183.096 682.618 184.211 681.181 185.032C679.773 185.853 678.233 186.264 676.561 186.264H669.741V197H660.501V166.816H676.561ZM669.741 179.532H673.789C674.61 179.532 675.256 179.268 675.725 178.74C676.194 178.183 676.429 177.567 676.429 176.892V176.364C676.429 175.689 676.194 175.088 675.725 174.56C675.285 174.003 674.64 173.724 673.789 173.724H669.741V179.532ZM711.713 166.376C713.854 166.376 715.732 166.801 717.345 167.652C718.988 168.473 720.249 169.617 721.129 171.084C722.038 172.551 722.493 174.237 722.493 176.144C722.493 178.256 721.95 180.075 720.865 181.6C719.78 183.096 718.078 184.651 715.761 186.264L710.965 189.608H722.537V197H698.997V195.416C698.997 193.715 699.261 192.277 699.789 191.104C700.317 189.931 701.226 188.831 702.517 187.804L711.229 180.94C712.813 179.679 713.605 178.139 713.605 176.32C713.605 175.469 713.297 174.751 712.681 174.164C712.094 173.548 711.376 173.24 710.525 173.24H709.953C709.102 173.24 708.369 173.533 707.753 174.12C707.166 174.707 706.873 175.44 706.873 176.32V177.552H699.129V176.716C699.129 174.78 699.569 173.035 700.449 171.48C701.329 169.896 702.62 168.649 704.321 167.74C706.022 166.831 708.032 166.376 710.349 166.376H711.713ZM740.367 166.376C742.362 166.376 744.195 166.875 745.867 167.872C747.569 168.84 748.903 170.175 749.871 171.876C750.869 173.548 751.367 175.381 751.367 177.376V186.44C751.367 188.435 750.869 190.283 749.871 191.984C748.903 193.656 747.569 194.991 745.867 195.988C744.195 196.956 742.362 197.44 740.367 197.44H738.387C736.393 197.44 734.545 196.956 732.843 195.988C731.171 194.991 729.837 193.656 728.839 191.984C727.871 190.283 727.387 188.435 727.387 186.44V177.376C727.387 175.381 727.871 173.548 728.839 171.876C729.837 170.175 731.171 168.84 732.843 167.872C734.545 166.875 736.393 166.376 738.387 166.376H740.367ZM739.399 172.712C738.461 172.712 737.669 173.064 737.023 173.768C736.407 174.443 736.099 175.264 736.099 176.232V187.54C736.099 188.508 736.407 189.344 737.023 190.048C737.669 190.723 738.446 191.06 739.355 191.06C740.294 191.06 741.071 190.723 741.687 190.048C742.333 189.344 742.655 188.508 742.655 187.54V176.232C742.655 175.264 742.333 174.443 741.687 173.768C741.071 173.064 740.309 172.712 739.399 172.712ZM781.166 166.816L762.818 197H758.638L777.074 166.816H781.166ZM761.806 166.86C763.302 166.86 764.578 167.388 765.634 168.444C766.719 169.5 767.262 170.776 767.262 172.272V176.76C767.262 178.256 766.719 179.532 765.634 180.588C764.578 181.644 763.302 182.172 761.806 182.172H760.838C759.342 182.172 758.066 181.644 757.01 180.588C755.954 179.532 755.426 178.256 755.426 176.76V172.272C755.426 170.776 755.954 169.5 757.01 168.444C758.066 167.388 759.342 166.86 760.838 166.86H761.806ZM761.322 169.984C760.882 169.984 760.5 170.145 760.178 170.468C759.855 170.791 759.694 171.201 759.694 171.7V177.288C759.694 177.787 759.855 178.197 760.178 178.52C760.5 178.843 760.882 179.004 761.322 179.004C761.791 179.004 762.172 178.843 762.466 178.52C762.788 178.197 762.95 177.787 762.95 177.288V171.7C762.95 171.201 762.788 170.791 762.466 170.468C762.172 170.145 761.791 169.984 761.322 169.984ZM778.966 181.688C780.462 181.688 781.738 182.216 782.794 183.272C783.879 184.328 784.422 185.604 784.422 187.1V191.588C784.422 192.556 784.172 193.465 783.674 194.316C783.175 195.137 782.5 195.797 781.65 196.296C780.828 196.795 779.934 197.044 778.966 197.044H777.998C776.502 197.044 775.226 196.516 774.17 195.46C773.114 194.375 772.586 193.084 772.586 191.588V187.1C772.586 185.604 773.114 184.328 774.17 183.272C775.226 182.216 776.502 181.688 777.998 181.688H778.966ZM778.482 184.812C778.042 184.812 777.66 184.988 777.338 185.34C777.015 185.663 776.854 186.073 776.854 186.572V192.16C776.854 192.629 777.015 193.04 777.338 193.392C777.66 193.715 778.042 193.876 778.482 193.876C778.951 193.876 779.332 193.715 779.626 193.392C779.948 193.04 780.11 192.629 780.11 192.16V186.572C780.11 186.073 779.948 185.663 779.626 185.34C779.332 184.988 778.951 184.812 778.482 184.812Z"/>
</mask>
<path d="M401.963 166.816C403.635 166.816 405.175 167.227 406.583 168.048C408.02 168.869 409.15 169.999 409.971 171.436C410.792 172.844 411.203 174.384 411.203 176.056V177.024C411.203 178.696 410.792 180.251 409.971 181.688C409.15 183.096 408.02 184.211 406.583 185.032C405.175 185.853 403.635 186.264 401.963 186.264H395.143V197H385.903V166.816H401.963ZM395.143 179.532H399.191C400.012 179.532 400.658 179.268 401.127 178.74C401.596 178.183 401.831 177.567 401.831 176.892V176.364C401.831 175.689 401.596 175.088 401.127 174.56C400.687 174.003 400.042 173.724 399.191 173.724H395.143V179.532ZM423.942 171.612H415.274V165.32H423.942V171.612ZM423.942 197H415.274V174.56H423.942V197ZM445.145 174.076C446.348 174.076 447.448 174.369 448.445 174.956C449.472 175.543 450.278 176.349 450.865 177.376C451.452 178.373 451.745 179.473 451.745 180.676V197H443.033V182.92C443.033 182.187 442.798 181.571 442.329 181.072C441.889 180.544 441.346 180.28 440.701 180.28C440.056 180.28 439.498 180.544 439.029 181.072C438.589 181.571 438.369 182.187 438.369 182.92V197H429.657V174.516H436.213L437.093 177.772C438.706 175.308 440.98 174.076 443.913 174.076H445.145ZM466.029 165.32V182.876L471.749 174.516H481.693L473.817 184.68L481.825 197H471.573L467.613 190.62L466.029 191.984V197H457.317V165.32H466.029ZM496.325 174.076C497.733 174.076 499.17 174.311 500.637 174.78C502.133 175.22 503.379 175.895 504.377 176.804C505.374 177.713 505.873 178.813 505.873 180.104C505.873 180.368 505.858 180.617 505.829 180.852C505.799 181.057 505.785 181.189 505.785 181.248H498.569C498.569 180.544 498.246 180.045 497.601 179.752C496.985 179.429 496.281 179.268 495.489 179.268C493.318 179.268 492.233 179.693 492.233 180.544C492.233 181.072 492.555 181.439 493.201 181.644C493.875 181.82 494.975 181.996 496.501 182.172C498.495 182.407 500.138 182.7 501.429 183.052C502.749 183.404 503.893 184.093 504.861 185.12C505.858 186.117 506.357 187.584 506.357 189.52C506.357 192.277 505.345 194.287 503.321 195.548C501.326 196.809 498.862 197.44 495.929 197.44H493.641C491.998 197.44 490.429 197.191 488.933 196.692C487.466 196.164 486.263 195.372 485.325 194.316C484.386 193.26 483.917 191.969 483.917 190.444V190.048C483.917 189.872 483.931 189.74 483.961 189.652H491.089V189.828C491.089 190.679 491.47 191.28 492.233 191.632C492.995 191.955 493.875 192.116 494.873 192.116C495.753 192.116 496.589 192.028 497.381 191.852C498.202 191.676 498.613 191.309 498.613 190.752C498.613 190.195 498.275 189.813 497.601 189.608C496.926 189.373 495.811 189.139 494.257 188.904C492.379 188.669 490.781 188.361 489.461 187.98C488.141 187.599 486.997 186.909 486.029 185.912C485.09 184.885 484.621 183.463 484.621 181.644C484.621 179.943 485.134 178.535 486.161 177.42C487.217 176.276 488.537 175.44 490.121 174.912C491.705 174.355 493.318 174.076 494.961 174.076H496.325ZM522.575 174.076C525.977 174.076 528.573 174.736 530.363 176.056C532.181 177.376 533.091 179.092 533.091 181.204V190.488C533.091 191.045 533.223 191.456 533.487 191.72C533.751 191.984 534.073 192.116 534.455 192.116C535.012 192.116 535.525 191.984 535.995 191.72V196.428C535.056 197.103 533.575 197.44 531.551 197.44C529.673 197.44 528.192 197.132 527.107 196.516C526.021 195.871 525.347 194.991 525.083 193.876C524.144 194.961 523.103 195.827 521.959 196.472C520.844 197.117 519.465 197.44 517.823 197.44C515.476 197.44 513.569 196.985 512.103 196.076C510.636 195.167 509.903 193.377 509.903 190.708C509.903 188.684 510.475 187.129 511.619 186.044C512.763 184.929 514.391 184.167 516.503 183.756C518.644 183.316 521.357 183.096 524.643 183.096V181.82C524.643 180.999 524.364 180.353 523.807 179.884C523.279 179.415 522.604 179.18 521.783 179.18C521.108 179.18 520.463 179.385 519.847 179.796C519.26 180.177 518.967 180.661 518.967 181.248V181.424H510.607C510.577 181.336 510.563 181.131 510.563 180.808C510.563 179.547 510.988 178.417 511.839 177.42C512.719 176.393 513.951 175.587 515.535 175C517.148 174.384 519.011 174.076 521.123 174.076H522.575ZM524.643 187.1C522.707 187.1 521.284 187.364 520.375 187.892C519.465 188.391 519.011 189.095 519.011 190.004C519.011 191.412 519.891 192.116 521.651 192.116C522.472 192.116 523.176 191.837 523.763 191.28C524.349 190.693 524.643 189.945 524.643 189.036V187.1ZM548.536 165.32V197H539.824V165.32H548.536ZM566.349 174.076C568.608 174.076 570.544 174.516 572.157 175.396C573.8 176.247 575.046 177.435 575.897 178.96C576.777 180.485 577.217 182.231 577.217 184.196V186.924H562.565V189.036C562.565 190.033 562.873 190.796 563.489 191.324C564.134 191.852 564.956 192.116 565.953 192.116C566.98 192.116 567.757 191.808 568.285 191.192C568.842 190.547 569.121 189.667 569.121 188.552H577.173C577.173 190.224 576.733 191.735 575.853 193.084C575.002 194.433 573.741 195.504 572.069 196.296C570.426 197.059 568.476 197.44 566.217 197.44H565.557C563.21 197.44 561.098 197.015 559.221 196.164C557.373 195.284 555.906 194.023 554.821 192.38C553.765 190.708 553.237 188.728 553.237 186.44V185.076C553.237 182.788 553.736 180.823 554.733 179.18C555.76 177.508 557.182 176.247 559.001 175.396C560.82 174.516 562.902 174.076 565.249 174.076H566.349ZM565.601 179.4C564.75 179.4 564.032 179.708 563.445 180.324C562.858 180.911 562.565 181.629 562.565 182.48V183.096H568.637V182.48C568.637 181.629 568.344 180.911 567.757 180.324C567.17 179.708 566.452 179.4 565.601 179.4ZM602.56 166.376C603.322 166.376 604.056 166.42 604.76 166.508V173.108C604.261 172.961 603.836 172.888 603.484 172.888C602.574 172.888 601.812 173.137 601.196 173.636C600.58 174.135 600.272 174.824 600.272 175.704C600.272 176.349 600.506 176.98 600.976 177.596C601.445 178.183 602.149 178.476 603.088 178.476H608.412L610.788 173.24H616.816V178.476H620.336V184.724H616.816V197H602.78C599.26 197 596.385 196.34 594.156 195.02C591.926 193.7 590.812 191.471 590.812 188.332C590.812 184.695 592.616 182.333 596.224 181.248C594.786 180.808 593.672 180.001 592.88 178.828C592.117 177.655 591.736 176.291 591.736 174.736C591.736 172.947 592.249 171.421 593.276 170.16C594.332 168.899 595.681 167.96 597.324 167.344C598.966 166.699 600.712 166.376 602.56 166.376ZM603.088 184.724C601.856 184.724 600.961 185.061 600.404 185.736C599.846 186.381 599.568 187.056 599.568 187.76C599.568 188.787 599.92 189.579 600.624 190.136C601.357 190.664 602.252 190.928 603.308 190.928H608.104V184.724H603.088ZM644.575 189.608H655.531L656.411 197H635.247V166.816H644.575V189.608ZM676.561 166.816C678.233 166.816 679.773 167.227 681.181 168.048C682.618 168.869 683.748 169.999 684.569 171.436C685.39 172.844 685.801 174.384 685.801 176.056V177.024C685.801 178.696 685.39 180.251 684.569 181.688C683.748 183.096 682.618 184.211 681.181 185.032C679.773 185.853 678.233 186.264 676.561 186.264H669.741V197H660.501V166.816H676.561ZM669.741 179.532H673.789C674.61 179.532 675.256 179.268 675.725 178.74C676.194 178.183 676.429 177.567 676.429 176.892V176.364C676.429 175.689 676.194 175.088 675.725 174.56C675.285 174.003 674.64 173.724 673.789 173.724H669.741V179.532ZM711.713 166.376C713.854 166.376 715.732 166.801 717.345 167.652C718.988 168.473 720.249 169.617 721.129 171.084C722.038 172.551 722.493 174.237 722.493 176.144C722.493 178.256 721.95 180.075 720.865 181.6C719.78 183.096 718.078 184.651 715.761 186.264L710.965 189.608H722.537V197H698.997V195.416C698.997 193.715 699.261 192.277 699.789 191.104C700.317 189.931 701.226 188.831 702.517 187.804L711.229 180.94C712.813 179.679 713.605 178.139 713.605 176.32C713.605 175.469 713.297 174.751 712.681 174.164C712.094 173.548 711.376 173.24 710.525 173.24H709.953C709.102 173.24 708.369 173.533 707.753 174.12C707.166 174.707 706.873 175.44 706.873 176.32V177.552H699.129V176.716C699.129 174.78 699.569 173.035 700.449 171.48C701.329 169.896 702.62 168.649 704.321 167.74C706.022 166.831 708.032 166.376 710.349 166.376H711.713ZM740.367 166.376C742.362 166.376 744.195 166.875 745.867 167.872C747.569 168.84 748.903 170.175 749.871 171.876C750.869 173.548 751.367 175.381 751.367 177.376V186.44C751.367 188.435 750.869 190.283 749.871 191.984C748.903 193.656 747.569 194.991 745.867 195.988C744.195 196.956 742.362 197.44 740.367 197.44H738.387C736.393 197.44 734.545 196.956 732.843 195.988C731.171 194.991 729.837 193.656 728.839 191.984C727.871 190.283 727.387 188.435 727.387 186.44V177.376C727.387 175.381 727.871 173.548 728.839 171.876C729.837 170.175 731.171 168.84 732.843 167.872C734.545 166.875 736.393 166.376 738.387 166.376H740.367ZM739.399 172.712C738.461 172.712 737.669 173.064 737.023 173.768C736.407 174.443 736.099 175.264 736.099 176.232V187.54C736.099 188.508 736.407 189.344 737.023 190.048C737.669 190.723 738.446 191.06 739.355 191.06C740.294 191.06 741.071 190.723 741.687 190.048C742.333 189.344 742.655 188.508 742.655 187.54V176.232C742.655 175.264 742.333 174.443 741.687 173.768C741.071 173.064 740.309 172.712 739.399 172.712ZM781.166 166.816L762.818 197H758.638L777.074 166.816H781.166ZM761.806 166.86C763.302 166.86 764.578 167.388 765.634 168.444C766.719 169.5 767.262 170.776 767.262 172.272V176.76C767.262 178.256 766.719 179.532 765.634 180.588C764.578 181.644 763.302 182.172 761.806 182.172H760.838C759.342 182.172 758.066 181.644 757.01 180.588C755.954 179.532 755.426 178.256 755.426 176.76V172.272C755.426 170.776 755.954 169.5 757.01 168.444C758.066 167.388 759.342 166.86 760.838 166.86H761.806ZM761.322 169.984C760.882 169.984 760.5 170.145 760.178 170.468C759.855 170.791 759.694 171.201 759.694 171.7V177.288C759.694 177.787 759.855 178.197 760.178 178.52C760.5 178.843 760.882 179.004 761.322 179.004C761.791 179.004 762.172 178.843 762.466 178.52C762.788 178.197 762.95 177.787 762.95 177.288V171.7C762.95 171.201 762.788 170.791 762.466 170.468C762.172 170.145 761.791 169.984 761.322 169.984ZM778.966 181.688C780.462 181.688 781.738 182.216 782.794 183.272C783.879 184.328 784.422 185.604 784.422 187.1V191.588C784.422 192.556 784.172 193.465 783.674 194.316C783.175 195.137 782.5 195.797 781.65 196.296C780.828 196.795 779.934 197.044 778.966 197.044H777.998C776.502 197.044 775.226 196.516 774.17 195.46C773.114 194.375 772.586 193.084 772.586 191.588V187.1C772.586 185.604 773.114 184.328 774.17 183.272C775.226 182.216 776.502 181.688 777.998 181.688H778.966ZM778.482 184.812C778.042 184.812 777.66 184.988 777.338 185.34C777.015 185.663 776.854 186.073 776.854 186.572V192.16C776.854 192.629 777.015 193.04 777.338 193.392C777.66 193.715 778.042 193.876 778.482 193.876C778.951 193.876 779.332 193.715 779.626 193.392C779.948 193.04 780.11 192.629 780.11 192.16V186.572C780.11 186.073 779.948 185.663 779.626 185.34C779.332 184.988 778.951 184.812 778.482 184.812Z" fill="white"/>
<path d="M406.583 168.048L406.079 168.912L406.087 168.916L406.583 168.048ZM409.971 171.436L409.103 171.932L409.107 171.94L409.971 171.436ZM409.971 181.688L410.835 182.192L410.839 182.184L409.971 181.688ZM406.583 185.032L406.087 184.164L406.079 184.168L406.583 185.032ZM395.143 186.264V185.264H394.143V186.264H395.143ZM395.143 197V198H396.143V197H395.143ZM385.903 197H384.903V198H385.903V197ZM385.903 166.816V165.816H384.903V166.816H385.903ZM395.143 179.532H394.143V180.532H395.143V179.532ZM401.127 178.74L401.874 179.404L401.883 179.394L401.892 179.384L401.127 178.74ZM401.127 174.56L400.342 175.18L400.36 175.203L400.38 175.224L401.127 174.56ZM395.143 173.724V172.724H394.143V173.724H395.143ZM401.963 167.816C403.463 167.816 404.828 168.182 406.079 168.912L407.087 167.184C405.522 166.271 403.807 165.816 401.963 165.816V167.816ZM406.087 168.916C407.369 169.649 408.37 170.65 409.103 171.932L410.839 170.94C409.929 169.347 408.672 168.09 407.079 167.18L406.087 168.916ZM409.107 171.94C409.837 173.191 410.203 174.556 410.203 176.056H412.203C412.203 174.212 411.748 172.497 410.835 170.932L409.107 171.94ZM410.203 176.056V177.024H412.203V176.056H410.203ZM410.203 177.024C410.203 178.524 409.837 179.907 409.103 181.192L410.839 182.184C411.748 180.594 412.203 178.868 412.203 177.024H410.203ZM409.107 181.184C408.376 182.438 407.374 183.428 406.087 184.164L407.079 185.9C408.666 184.993 409.924 183.754 410.835 182.192L409.107 181.184ZM406.079 184.168C404.828 184.898 403.463 185.264 401.963 185.264V187.264C403.807 187.264 405.522 186.809 407.087 185.896L406.079 184.168ZM401.963 185.264H395.143V187.264H401.963V185.264ZM394.143 186.264V197H396.143V186.264H394.143ZM395.143 196H385.903V198H395.143V196ZM386.903 197V166.816H384.903V197H386.903ZM385.903 167.816H401.963V165.816H385.903V167.816ZM395.143 180.532H399.191V178.532H395.143V180.532ZM399.191 180.532C400.247 180.532 401.184 180.181 401.874 179.404L400.38 178.076C400.132 178.355 399.778 178.532 399.191 178.532V180.532ZM401.892 179.384C402.5 178.662 402.831 177.822 402.831 176.892H400.831C400.831 177.311 400.693 177.703 400.362 178.096L401.892 179.384ZM402.831 176.892V176.364H400.831V176.892H402.831ZM402.831 176.364C402.831 175.432 402.498 174.597 401.874 173.896L400.38 175.224C400.695 175.579 400.831 175.947 400.831 176.364H402.831ZM401.912 173.94C401.244 173.094 400.28 172.724 399.191 172.724V174.724C399.803 174.724 400.13 174.911 400.342 175.18L401.912 173.94ZM399.191 172.724H395.143V174.724H399.191V172.724ZM394.143 173.724V179.532H396.143V173.724H394.143ZM423.942 171.612V172.612H424.942V171.612H423.942ZM415.274 171.612H414.274V172.612H415.274V171.612ZM415.274 165.32V164.32H414.274V165.32H415.274ZM423.942 165.32H424.942V164.32H423.942V165.32ZM423.942 197V198H424.942V197H423.942ZM415.274 197H414.274V198H415.274V197ZM415.274 174.56V173.56H414.274V174.56H415.274ZM423.942 174.56H424.942V173.56H423.942V174.56ZM423.942 170.612H415.274V172.612H423.942V170.612ZM416.274 171.612V165.32H414.274V171.612H416.274ZM415.274 166.32H423.942V164.32H415.274V166.32ZM422.942 165.32V171.612H424.942V165.32H422.942ZM423.942 196H415.274V198H423.942V196ZM416.274 197V174.56H414.274V197H416.274ZM415.274 175.56H423.942V173.56H415.274V175.56ZM422.942 174.56V197H424.942V174.56H422.942ZM448.445 174.956L447.938 175.818L447.949 175.824L448.445 174.956ZM450.865 177.376L449.997 177.872L450.003 177.883L450.865 177.376ZM451.745 197V198H452.745V197H451.745ZM443.033 197H442.033V198H443.033V197ZM442.329 181.072L441.561 181.712L441.58 181.735L441.601 181.757L442.329 181.072ZM439.029 181.072L438.282 180.408L438.279 180.41L439.029 181.072ZM438.369 197V198H439.369V197H438.369ZM429.657 197H428.657V198H429.657V197ZM429.657 174.516V173.516H428.657V174.516H429.657ZM436.213 174.516L437.178 174.255L436.979 173.516H436.213V174.516ZM437.093 177.772L436.128 178.033L436.709 180.184L437.93 178.32L437.093 177.772ZM445.145 175.076C446.177 175.076 447.1 175.325 447.938 175.818L448.952 174.094C447.795 173.413 446.519 173.076 445.145 173.076V175.076ZM447.949 175.824C448.82 176.322 449.499 177.001 449.997 177.872L451.733 176.88C451.058 175.698 450.123 174.763 448.941 174.088L447.949 175.824ZM450.003 177.883C450.496 178.72 450.745 179.644 450.745 180.676H452.745C452.745 179.302 452.408 178.026 451.727 176.869L450.003 177.883ZM450.745 180.676V197H452.745V180.676H450.745ZM451.745 196H443.033V198H451.745V196ZM444.033 197V182.92H442.033V197H444.033ZM444.033 182.92C444.033 181.952 443.714 181.085 443.057 180.387L441.601 181.757C441.882 182.057 442.033 182.422 442.033 182.92H444.033ZM443.097 180.432C442.481 179.693 441.664 179.28 440.701 179.28V181.28C441.028 181.28 441.297 181.395 441.561 181.712L443.097 180.432ZM440.701 179.28C439.741 179.28 438.92 179.689 438.282 180.408L439.776 181.736C440.076 181.399 440.37 181.28 440.701 181.28V179.28ZM438.279 180.41C437.661 181.111 437.369 181.97 437.369 182.92H439.369C439.369 182.403 439.517 182.03 439.779 181.734L438.279 180.41ZM437.369 182.92V197H439.369V182.92H437.369ZM438.369 196H429.657V198H438.369V196ZM430.657 197V174.516H428.657V197H430.657ZM429.657 175.516H436.213V173.516H429.657V175.516ZM435.248 174.777L436.128 178.033L438.058 177.511L437.178 174.255L435.248 174.777ZM437.93 178.32C439.359 176.137 441.319 175.076 443.913 175.076V173.076C440.641 173.076 438.054 174.479 436.256 177.224L437.93 178.32ZM443.913 175.076H445.145V173.076H443.913V175.076ZM466.029 165.32H467.029V164.32H466.029V165.32ZM466.029 182.876H465.029V186.108L466.854 183.441L466.029 182.876ZM471.749 174.516V173.516H471.221L470.923 173.951L471.749 174.516ZM481.693 174.516L482.483 175.129L483.733 173.516H481.693V174.516ZM473.817 184.68L473.026 184.067L472.591 184.629L472.978 185.225L473.817 184.68ZM481.825 197V198H483.667L482.663 196.455L481.825 197ZM471.573 197L470.723 197.527L471.017 198H471.573V197ZM467.613 190.62L468.462 190.093L467.846 189.1L466.96 189.862L467.613 190.62ZM466.029 191.984L465.376 191.226L465.029 191.525V191.984H466.029ZM466.029 197V198H467.029V197H466.029ZM457.317 197H456.317V198H457.317V197ZM457.317 165.32V164.32H456.317V165.32H457.317ZM465.029 165.32V182.876H467.029V165.32H465.029ZM466.854 183.441L472.574 175.081L470.923 173.951L465.203 182.311L466.854 183.441ZM471.749 175.516H481.693V173.516H471.749V175.516ZM480.902 173.903L473.026 184.067L474.607 185.293L482.483 175.129L480.902 173.903ZM472.978 185.225L480.986 197.545L482.663 196.455L474.655 184.135L472.978 185.225ZM481.825 196H471.573V198H481.825V196ZM472.422 196.473L468.462 190.093L466.763 191.147L470.723 197.527L472.422 196.473ZM466.96 189.862L465.376 191.226L466.681 192.742L468.265 191.378L466.96 189.862ZM465.029 191.984V197H467.029V191.984H465.029ZM466.029 196H457.317V198H466.029V196ZM458.317 197V165.32H456.317V197H458.317ZM457.317 166.32H466.029V164.32H457.317V166.32ZM500.637 174.78L500.332 175.732L500.343 175.736L500.354 175.739L500.637 174.78ZM504.377 176.804L505.05 176.065L504.377 176.804ZM505.829 180.852L506.818 180.993L506.82 180.985L506.821 180.976L505.829 180.852ZM505.785 181.248V182.248H506.785V181.248H505.785ZM498.569 181.248H497.569V182.248H498.569V181.248ZM497.601 179.752L497.137 180.638L497.161 180.651L497.187 180.662L497.601 179.752ZM493.201 181.644L492.897 182.597L492.923 182.605L492.948 182.612L493.201 181.644ZM496.501 182.172L496.617 181.179L496.615 181.179L496.501 182.172ZM501.429 183.052L501.165 184.017L501.171 184.018L501.429 183.052ZM504.861 185.12L504.133 185.806L504.143 185.817L504.153 185.827L504.861 185.12ZM503.321 195.548L502.792 194.699L502.786 194.703L503.321 195.548ZM488.933 196.692L488.594 197.633L488.605 197.637L488.616 197.641L488.933 196.692ZM485.325 194.316L486.072 193.652L486.072 193.652L485.325 194.316ZM483.961 189.652V188.652H483.24L483.012 189.336L483.961 189.652ZM491.089 189.652H492.089V188.652H491.089V189.652ZM492.233 191.632L491.813 192.54L491.828 192.547L491.843 192.553L492.233 191.632ZM497.381 191.852L497.171 190.874L497.164 190.876L497.381 191.852ZM497.601 189.608L497.272 190.552L497.291 190.559L497.309 190.565L497.601 189.608ZM494.257 188.904L494.406 187.915L494.393 187.913L494.381 187.912L494.257 188.904ZM489.461 187.98L489.738 187.019L489.738 187.019L489.461 187.98ZM486.029 185.912L485.29 186.587L485.301 186.598L485.311 186.608L486.029 185.912ZM486.161 177.42L485.426 176.742L485.425 176.743L486.161 177.42ZM490.121 174.912L490.437 175.861L490.445 175.858L490.452 175.855L490.121 174.912ZM496.325 175.076C497.62 175.076 498.954 175.292 500.332 175.732L500.941 173.828C499.385 173.33 497.845 173.076 496.325 173.076V175.076ZM500.354 175.739C501.727 176.143 502.834 176.751 503.703 177.543L505.05 176.065C503.925 175.039 502.538 174.297 500.919 173.821L500.354 175.739ZM503.703 177.543C504.503 178.273 504.873 179.109 504.873 180.104H506.873C506.873 178.518 506.245 177.154 505.05 176.065L503.703 177.543ZM504.873 180.104C504.873 180.331 504.86 180.539 504.836 180.728L506.821 180.976C506.856 180.696 506.873 180.405 506.873 180.104H504.873ZM504.839 180.711C504.812 180.896 504.785 181.104 504.785 181.248H506.785C506.785 181.27 506.783 181.279 506.784 181.267C506.785 181.258 506.787 181.241 506.789 181.215C506.795 181.164 506.805 181.091 506.818 180.993L504.839 180.711ZM505.785 180.248H498.569V182.248H505.785V180.248ZM499.569 181.248C499.569 180.74 499.45 180.242 499.166 179.803C498.882 179.364 498.477 179.052 498.014 178.842L497.187 180.662C497.369 180.745 497.448 180.829 497.487 180.889C497.525 180.949 497.569 181.052 497.569 181.248H499.569ZM498.065 178.866C497.287 178.459 496.419 178.268 495.489 178.268V180.268C496.142 180.268 496.682 180.4 497.137 180.638L498.065 178.866ZM495.489 178.268C494.367 178.268 493.402 178.374 492.682 178.656C492.314 178.8 491.95 179.013 491.674 179.338C491.382 179.681 491.233 180.098 491.233 180.544H493.233C493.233 180.544 493.233 180.544 493.233 180.544C493.233 180.544 493.233 180.545 493.232 180.545C493.232 180.546 493.232 180.546 493.232 180.548C493.232 180.55 493.232 180.553 493.231 180.557C493.23 180.566 493.227 180.576 493.223 180.587C493.214 180.612 493.202 180.628 493.198 180.634C493.193 180.639 493.237 180.587 493.411 180.518C493.777 180.375 494.439 180.268 495.489 180.268V178.268ZM491.233 180.544C491.233 181.03 491.388 181.494 491.724 181.876C492.043 182.238 492.466 182.46 492.897 182.597L493.504 180.691C493.29 180.623 493.229 180.559 493.225 180.554C493.225 180.554 493.23 180.561 493.234 180.57C493.237 180.579 493.233 180.573 493.233 180.544H491.233ZM492.948 182.612C493.696 182.807 494.856 182.989 496.386 183.165L496.615 181.179C495.095 181.003 494.055 180.833 493.453 180.676L492.948 182.612ZM496.384 183.165C498.351 183.397 499.94 183.683 501.165 184.017L501.692 182.087C500.336 181.717 498.64 181.417 496.617 181.179L496.384 183.165ZM501.171 184.018C502.305 184.321 503.288 184.91 504.133 185.806L505.588 184.434C504.497 183.277 503.192 182.487 501.686 182.086L501.171 184.018ZM504.153 185.827C504.902 186.576 505.357 187.748 505.357 189.52H507.357C507.357 187.42 506.814 185.659 505.568 184.413L504.153 185.827ZM505.357 189.52C505.357 191.996 504.472 193.652 502.792 194.699L503.849 196.397C506.217 194.922 507.357 192.559 507.357 189.52H505.357ZM502.786 194.703C500.986 195.841 498.719 196.44 495.929 196.44V198.44C499.005 198.44 501.666 197.778 503.855 196.393L502.786 194.703ZM495.929 196.44H493.641V198.44H495.929V196.44ZM493.641 196.44C492.101 196.44 490.639 196.207 489.249 195.743L488.616 197.641C490.218 198.175 491.895 198.44 493.641 198.44V196.44ZM489.271 195.751C487.945 195.274 486.888 194.57 486.072 193.652L484.577 194.98C485.638 196.174 486.987 197.054 488.594 197.633L489.271 195.751ZM486.072 193.652C485.309 192.794 484.917 191.746 484.917 190.444H482.917C482.917 192.193 483.462 193.726 484.577 194.98L486.072 193.652ZM484.917 190.444V190.048H482.917V190.444H484.917ZM484.917 190.048C484.917 189.986 484.919 189.947 484.921 189.927C484.922 189.918 484.923 189.917 484.922 189.922C484.921 189.927 484.917 189.944 484.909 189.968L483.012 189.336C482.93 189.58 482.917 189.843 482.917 190.048H484.917ZM483.961 190.652H491.089V188.652H483.961V190.652ZM490.089 189.652V189.828H492.089V189.652H490.089ZM490.089 189.828C490.089 190.406 490.219 190.963 490.53 191.453C490.841 191.943 491.289 192.298 491.813 192.54L492.652 190.724C492.413 190.614 492.289 190.492 492.219 190.381C492.148 190.27 492.089 190.101 492.089 189.828H490.089ZM491.843 192.553C492.751 192.937 493.768 193.116 494.873 193.116V191.116C493.982 191.116 493.239 190.972 492.622 190.711L491.843 192.553ZM494.873 193.116C495.819 193.116 496.729 193.021 497.597 192.828L497.164 190.876C496.449 191.035 495.686 191.116 494.873 191.116V193.116ZM497.59 192.83C498.088 192.723 498.585 192.535 498.971 192.191C499.391 191.815 499.613 191.312 499.613 190.752H497.613C497.613 190.766 497.611 190.753 497.622 190.728C497.633 190.703 497.645 190.693 497.639 190.699C497.613 190.721 497.494 190.805 497.171 190.874L497.59 192.83ZM499.613 190.752C499.613 190.254 499.455 189.777 499.109 189.385C498.779 189.013 498.341 188.788 497.892 188.651L497.309 190.565C497.535 190.633 497.603 190.702 497.611 190.711C497.613 190.713 497.61 190.71 497.608 190.705C497.607 190.702 497.613 190.715 497.613 190.752H499.613ZM497.929 188.664C497.16 188.396 495.967 188.151 494.406 187.915L494.107 189.893C495.656 190.127 496.691 190.351 497.272 190.552L497.929 188.664ZM494.381 187.912C492.537 187.681 490.993 187.382 489.738 187.019L489.183 188.941C490.568 189.341 492.221 189.657 494.132 189.896L494.381 187.912ZM489.738 187.019C488.587 186.687 487.594 186.09 486.746 185.216L485.311 186.608C486.399 187.729 487.694 188.511 489.183 188.941L489.738 187.019ZM486.767 185.237C486.043 184.446 485.621 183.292 485.621 181.644H483.621C483.621 183.634 484.137 185.325 485.29 186.587L486.767 185.237ZM485.621 181.644C485.621 180.16 486.061 179.004 486.896 178.097L485.425 176.743C484.207 178.065 483.621 179.725 483.621 181.644H485.621ZM486.895 178.098C487.829 177.087 489.001 176.339 490.437 175.861L489.804 173.963C488.072 174.541 486.604 175.465 485.426 176.742L486.895 178.098ZM490.452 175.855C491.932 175.335 493.433 175.076 494.961 175.076V173.076C493.202 173.076 491.477 173.375 489.789 173.969L490.452 175.855ZM494.961 175.076H496.325V173.076H494.961V175.076ZM530.363 176.056L529.769 176.861L529.775 176.865L530.363 176.056ZM533.487 191.72L532.78 192.427L532.78 192.427L533.487 191.72ZM535.995 191.72H536.995V190.01L535.504 190.848L535.995 191.72ZM535.995 196.428L536.578 197.24L536.995 196.941V196.428H535.995ZM527.107 196.516L526.596 197.376L526.604 197.381L526.613 197.386L527.107 196.516ZM525.083 193.876L526.056 193.646L525.605 191.743L524.326 193.222L525.083 193.876ZM521.959 196.472L521.467 195.601L521.458 195.607L521.959 196.472ZM512.103 196.076L512.63 195.226L512.103 196.076ZM511.619 186.044L512.307 186.77L512.317 186.76L511.619 186.044ZM516.503 183.756L516.694 184.738L516.704 184.736L516.503 183.756ZM524.643 183.096V184.096H525.643V183.096H524.643ZM523.807 179.884L523.142 180.631L523.152 180.64L523.163 180.649L523.807 179.884ZM519.847 179.796L520.392 180.634L520.401 180.628L519.847 179.796ZM518.967 181.424V182.424H519.967V181.424H518.967ZM510.607 181.424L509.658 181.74L509.886 182.424H510.607V181.424ZM511.839 177.42L511.079 176.769L511.078 176.771L511.839 177.42ZM515.535 175L515.882 175.938L515.891 175.934L515.535 175ZM524.643 187.1H525.643V186.1H524.643V187.1ZM520.375 187.892L520.855 188.769L520.866 188.763L520.877 188.757L520.375 187.892ZM523.763 191.28L524.451 192.005L524.461 191.996L524.47 191.987L523.763 191.28ZM522.575 175.076C525.87 175.076 528.221 175.719 529.769 176.861L530.956 175.251C528.925 173.753 526.084 173.076 522.575 173.076V175.076ZM529.775 176.865C531.354 178.011 532.091 179.436 532.091 181.204H534.091C534.091 178.748 533.008 176.741 530.95 175.247L529.775 176.865ZM532.091 181.204V190.488H534.091V181.204H532.091ZM532.091 190.488C532.091 191.181 532.253 191.901 532.78 192.427L534.194 191.013C534.192 191.011 534.091 190.91 534.091 190.488H532.091ZM532.78 192.427C533.236 192.883 533.814 193.116 534.455 193.116V191.116C534.332 191.116 534.266 191.085 534.194 191.013L532.78 192.427ZM534.455 193.116C535.177 193.116 535.861 192.943 536.485 192.592L535.504 190.848C535.19 191.025 534.847 191.116 534.455 191.116V193.116ZM534.995 191.72V196.428H536.995V191.72H534.995ZM535.411 195.616C534.728 196.107 533.505 196.44 531.551 196.44V198.44C533.645 198.44 535.384 198.099 536.578 197.24L535.411 195.616ZM531.551 196.44C529.766 196.44 528.478 196.144 527.6 195.646L526.613 197.386C527.906 198.12 529.581 198.44 531.551 198.44V196.44ZM527.618 195.656C526.739 195.134 526.251 194.468 526.056 193.646L524.11 194.106C524.443 195.513 525.304 196.607 526.596 197.376L527.618 195.656ZM524.326 193.222C523.456 194.228 522.502 195.017 521.467 195.601L522.45 197.343C523.703 196.636 524.832 195.694 525.839 194.53L524.326 193.222ZM521.458 195.607C520.532 196.143 519.337 196.44 517.823 196.44V198.44C519.594 198.44 521.156 198.092 522.46 197.337L521.458 195.607ZM517.823 196.44C515.597 196.44 513.891 196.008 512.63 195.226L511.576 196.926C513.248 197.963 515.355 198.44 517.823 198.44V196.44ZM512.63 195.226C511.594 194.584 510.903 193.232 510.903 190.708H508.903C508.903 193.523 509.677 195.749 511.576 196.926L512.63 195.226ZM510.903 190.708C510.903 188.876 511.415 187.616 512.307 186.769L510.93 185.319C509.535 186.643 508.903 188.492 508.903 190.708H510.903ZM512.317 186.76C513.28 185.821 514.708 185.124 516.694 184.738L516.312 182.774C514.073 183.21 512.245 184.037 510.921 185.328L512.317 186.76ZM516.704 184.736C518.755 184.314 521.395 184.096 524.643 184.096V182.096C521.32 182.096 518.533 182.318 516.301 182.776L516.704 184.736ZM525.643 183.096V181.82H523.643V183.096H525.643ZM525.643 181.82C525.643 180.746 525.264 179.804 524.451 179.119L523.163 180.649C523.464 180.903 523.643 181.252 523.643 181.82H525.643ZM524.471 179.137C523.731 178.478 522.807 178.18 521.783 178.18V180.18C522.401 180.18 522.827 180.351 523.142 180.631L524.471 179.137ZM521.783 178.18C520.891 178.18 520.056 178.455 519.292 178.964L520.401 180.628C520.87 180.316 521.325 180.18 521.783 180.18V178.18ZM519.302 178.958C518.494 179.482 517.967 180.254 517.967 181.248H519.967C519.967 181.069 520.026 180.872 520.392 180.634L519.302 178.958ZM517.967 181.248V181.424H519.967V181.248H517.967ZM518.967 180.424H510.607V182.424H518.967V180.424ZM511.555 181.108C511.574 181.163 511.578 181.197 511.576 181.188C511.576 181.184 511.574 181.167 511.571 181.133C511.566 181.063 511.563 180.957 511.563 180.808H509.563C509.563 180.981 509.566 181.14 509.576 181.275C509.584 181.385 509.6 181.568 509.658 181.74L511.555 181.108ZM511.563 180.808C511.563 179.795 511.897 178.893 512.599 178.069L511.078 176.771C510.079 177.942 509.563 179.299 509.563 180.808H511.563ZM512.598 178.071C513.343 177.202 514.418 176.48 515.882 175.938L515.187 174.062C513.483 174.693 512.094 175.585 511.079 176.769L512.598 178.071ZM515.891 175.934C517.369 175.37 519.106 175.076 521.123 175.076V173.076C518.915 173.076 516.927 173.398 515.178 174.066L515.891 175.934ZM521.123 175.076H522.575V173.076H521.123V175.076ZM524.643 186.1C522.656 186.1 521.015 186.364 519.873 187.027L520.877 188.757C521.553 188.364 522.757 188.1 524.643 188.1V186.1ZM519.894 187.015C518.719 187.66 518.011 188.671 518.011 190.004H520.011C520.011 189.518 520.212 189.122 520.855 188.769L519.894 187.015ZM518.011 190.004C518.011 190.929 518.311 191.781 519.046 192.369C519.739 192.923 520.664 193.116 521.651 193.116V191.116C520.877 191.116 520.483 190.957 520.295 190.807C520.151 190.691 520.011 190.487 520.011 190.004H518.011ZM521.651 193.116C522.724 193.116 523.676 192.742 524.451 192.005L523.074 190.555C522.676 190.933 522.22 191.116 521.651 191.116V193.116ZM524.47 191.987C525.263 191.194 525.643 190.183 525.643 189.036H523.643C523.643 189.708 523.436 190.193 523.056 190.573L524.47 191.987ZM525.643 189.036V187.1H523.643V189.036H525.643ZM548.536 165.32H549.536V164.32H548.536V165.32ZM548.536 197V198H549.536V197H548.536ZM539.824 197H538.824V198H539.824V197ZM539.824 165.32V164.32H538.824V165.32H539.824ZM547.536 165.32V197H549.536V165.32H547.536ZM548.536 196H539.824V198H548.536V196ZM540.824 197V165.32H538.824V197H540.824ZM539.824 166.32H548.536V164.32H539.824V166.32ZM572.157 175.396L571.678 176.274L571.688 176.279L571.697 176.284L572.157 175.396ZM575.897 178.96L575.024 179.447L575.027 179.453L575.031 179.46L575.897 178.96ZM577.217 186.924V187.924H578.217V186.924H577.217ZM562.565 186.924V185.924H561.565V186.924H562.565ZM563.489 191.324L562.838 192.083L562.847 192.091L562.856 192.098L563.489 191.324ZM568.285 191.192L567.528 190.538L567.526 190.541L568.285 191.192ZM569.121 188.552V187.552H568.121V188.552H569.121ZM577.173 188.552H578.173V187.552H577.173V188.552ZM575.853 193.084L575.016 192.538L575.011 192.544L575.007 192.551L575.853 193.084ZM572.069 196.296L572.49 197.203L572.497 197.2L572.069 196.296ZM559.221 196.164L558.791 197.067L558.8 197.071L558.808 197.075L559.221 196.164ZM554.821 192.38L553.976 192.914L553.981 192.923L553.987 192.931L554.821 192.38ZM554.733 179.18L553.881 178.657L553.878 178.661L554.733 179.18ZM559.001 175.396L559.425 176.302L559.437 176.296L559.001 175.396ZM563.445 180.324L564.152 181.031L564.161 181.022L564.169 181.014L563.445 180.324ZM562.565 183.096H561.565V184.096H562.565V183.096ZM568.637 183.096V184.096H569.637V183.096H568.637ZM567.757 180.324L567.033 181.014L567.041 181.022L567.05 181.031L567.757 180.324ZM566.349 175.076C568.478 175.076 570.242 175.49 571.678 176.274L572.636 174.518C570.846 173.542 568.737 173.076 566.349 173.076V175.076ZM571.697 176.284C573.177 177.05 574.274 178.103 575.024 179.447L576.771 178.473C575.819 176.766 574.423 175.443 572.617 174.508L571.697 176.284ZM575.031 179.46C575.813 180.816 576.217 182.385 576.217 184.196H578.217C578.217 182.076 577.741 180.155 576.763 178.46L575.031 179.46ZM576.217 184.196V186.924H578.217V184.196H576.217ZM577.217 185.924H562.565V187.924H577.217V185.924ZM561.565 186.924V189.036H563.565V186.924H561.565ZM561.565 189.036C561.565 190.252 561.951 191.322 562.838 192.083L564.14 190.565C563.796 190.27 563.565 189.814 563.565 189.036H561.565ZM562.856 192.098C563.713 192.799 564.772 193.116 565.953 193.116V191.116C565.14 191.116 564.556 190.905 564.122 190.55L562.856 192.098ZM565.953 193.116C567.188 193.116 568.278 192.737 569.044 191.843L567.526 190.541C567.236 190.879 566.771 191.116 565.953 191.116V193.116ZM569.042 191.846C569.799 190.969 570.121 189.832 570.121 188.552H568.121C568.121 189.502 567.886 190.124 567.528 190.538L569.042 191.846ZM569.121 189.552H577.173V187.552H569.121V189.552ZM576.173 188.552C576.173 190.038 575.785 191.357 575.016 192.538L576.691 193.63C577.681 192.112 578.173 190.41 578.173 188.552H576.173ZM575.007 192.551C574.273 193.715 573.169 194.668 571.641 195.392L572.497 197.2C574.313 196.34 575.732 195.152 576.699 193.617L575.007 192.551ZM571.648 195.389C570.166 196.077 568.365 196.44 566.217 196.44V198.44C568.586 198.44 570.687 198.04 572.49 197.203L571.648 195.389ZM566.217 196.44H565.557V198.44H566.217V196.44ZM565.557 196.44C563.333 196.44 561.365 196.037 559.634 195.253L558.808 197.075C560.832 197.992 563.088 198.44 565.557 198.44V196.44ZM559.651 195.261C557.961 194.456 556.636 193.313 555.655 191.829L553.987 192.931C555.177 194.732 556.786 196.112 558.791 197.067L559.651 195.261ZM555.667 191.846C554.727 190.358 554.237 188.569 554.237 186.44H552.237C552.237 188.887 552.804 191.058 553.976 192.914L555.667 191.846ZM554.237 186.44V185.076H552.237V186.44H554.237ZM554.237 185.076C554.237 182.936 554.702 181.158 555.588 179.699L553.878 178.661C552.769 180.488 552.237 182.64 552.237 185.076H554.237ZM555.585 179.703C556.507 178.202 557.779 177.072 559.425 176.302L558.577 174.49C556.586 175.422 555.012 176.814 553.881 178.657L555.585 179.703ZM559.437 176.296C561.099 175.492 563.029 175.076 565.249 175.076V173.076C562.776 173.076 560.54 173.54 558.566 174.496L559.437 176.296ZM565.249 175.076H566.349V173.076H565.249V175.076ZM565.601 178.4C564.477 178.4 563.496 178.82 562.721 179.634L564.169 181.014C564.567 180.596 565.024 180.4 565.601 180.4V178.4ZM562.738 179.617C561.959 180.396 561.565 181.372 561.565 182.48H563.565C563.565 181.887 563.758 181.425 564.152 181.031L562.738 179.617ZM561.565 182.48V183.096H563.565V182.48H561.565ZM562.565 184.096H568.637V182.096H562.565V184.096ZM569.637 183.096V182.48H567.637V183.096H569.637ZM569.637 182.48C569.637 181.372 569.244 180.396 568.464 179.617L567.05 181.031C567.444 181.425 567.637 181.887 567.637 182.48H569.637ZM568.481 179.634C567.706 178.82 566.725 178.4 565.601 178.4V180.4C566.178 180.4 566.635 180.596 567.033 181.014L568.481 179.634ZM604.76 166.508H605.76V165.625L604.884 165.516L604.76 166.508ZM604.76 173.108L604.478 174.067L605.76 174.444V173.108H604.76ZM601.196 173.636L600.567 172.859L600.567 172.859L601.196 173.636ZM600.976 177.596L600.18 178.202L600.188 178.211L600.195 178.221L600.976 177.596ZM608.412 178.476V179.476H609.056L609.322 178.889L608.412 178.476ZM610.788 173.24V172.24H610.143L609.877 172.827L610.788 173.24ZM616.816 173.24H617.816V172.24H616.816V173.24ZM616.816 178.476H615.816V179.476H616.816V178.476ZM620.336 178.476H621.336V177.476H620.336V178.476ZM620.336 184.724V185.724H621.336V184.724H620.336ZM616.816 184.724V183.724H615.816V184.724H616.816ZM616.816 197V198H617.816V197H616.816ZM594.156 195.02L593.646 195.88L594.156 195.02ZM596.224 181.248L596.512 182.206L599.667 181.256L596.516 180.292L596.224 181.248ZM592.88 178.828L592.041 179.373L592.046 179.38L592.051 179.387L592.88 178.828ZM593.276 170.16L592.509 169.518L592.5 169.529L593.276 170.16ZM597.324 167.344L597.675 168.28L597.682 168.278L597.689 168.275L597.324 167.344ZM600.404 185.736L601.161 186.39L601.168 186.381L601.175 186.373L600.404 185.736ZM600.624 190.136L600.003 190.92L600.021 190.934L600.039 190.948L600.624 190.136ZM608.104 190.928V191.928H609.104V190.928H608.104ZM608.104 184.724H609.104V183.724H608.104V184.724ZM602.56 167.376C603.284 167.376 603.976 167.418 604.636 167.5L604.884 165.516C604.136 165.422 603.361 165.376 602.56 165.376V167.376ZM603.76 166.508V173.108H605.76V166.508H603.76ZM605.042 172.149C604.491 171.987 603.965 171.888 603.484 171.888V173.888C603.707 173.888 604.031 173.936 604.478 174.067L605.042 172.149ZM603.484 171.888C602.381 171.888 601.386 172.195 600.567 172.859L601.825 174.413C602.237 174.08 602.768 173.888 603.484 173.888V171.888ZM600.567 172.859C599.688 173.57 599.272 174.56 599.272 175.704H601.272C601.272 175.088 601.471 174.699 601.825 174.413L600.567 172.859ZM599.272 175.704C599.272 176.61 599.606 177.448 600.18 178.202L601.771 176.99C601.407 176.512 601.272 176.089 601.272 175.704H599.272ZM600.195 178.221C600.9 179.103 601.928 179.476 603.088 179.476V177.476C602.37 177.476 601.99 177.263 601.757 176.971L600.195 178.221ZM603.088 179.476H608.412V177.476H603.088V179.476ZM609.322 178.889L611.698 173.653L609.877 172.827L607.501 178.063L609.322 178.889ZM610.788 174.24H616.816V172.24H610.788V174.24ZM615.816 173.24V178.476H617.816V173.24H615.816ZM616.816 179.476H620.336V177.476H616.816V179.476ZM619.336 178.476V184.724H621.336V178.476H619.336ZM620.336 183.724H616.816V185.724H620.336V183.724ZM615.816 184.724V197H617.816V184.724H615.816ZM616.816 196H602.78V198H616.816V196ZM602.78 196C599.377 196 596.695 195.361 594.665 194.16L593.646 195.88C596.076 197.319 599.142 198 602.78 198V196ZM594.665 194.16C592.808 193.06 591.812 191.205 591.812 188.332H589.812C589.812 191.736 591.044 194.34 593.646 195.88L594.665 194.16ZM591.812 188.332C591.812 186.682 592.218 185.41 592.959 184.44C593.703 183.467 594.855 182.704 596.512 182.206L595.936 180.29C593.984 180.877 592.43 181.838 591.37 183.226C590.307 184.617 589.812 186.344 589.812 188.332H591.812ZM596.516 180.292C595.283 179.914 594.364 179.24 593.709 178.269L592.051 179.387C592.979 180.763 594.289 181.702 595.931 182.204L596.516 180.292ZM593.718 178.283C593.072 177.29 592.736 176.119 592.736 174.736H590.736C590.736 176.462 591.162 178.02 592.041 179.373L593.718 178.283ZM592.736 174.736C592.736 173.152 593.185 171.856 594.051 170.791L592.5 169.529C591.314 170.987 590.736 172.741 590.736 174.736H592.736ZM594.043 170.802C594.98 169.682 596.183 168.84 597.675 168.28L596.973 166.408C595.179 167.08 593.683 168.116 592.509 169.518L594.043 170.802ZM597.689 168.275C599.21 167.677 600.831 167.376 602.56 167.376V165.376C600.593 165.376 598.723 165.72 596.958 166.413L597.689 168.275ZM603.088 183.724C601.685 183.724 600.448 184.112 599.633 185.099L601.175 186.373C601.474 186.011 602.027 185.724 603.088 185.724V183.724ZM599.647 185.082C598.967 185.869 598.568 186.768 598.568 187.76H600.568C600.568 187.344 600.726 186.893 601.161 186.39L599.647 185.082ZM598.568 187.76C598.568 189.043 599.023 190.144 600.003 190.92L601.244 189.352C600.816 189.013 600.568 188.531 600.568 187.76H598.568ZM600.039 190.948C600.97 191.618 602.079 191.928 603.308 191.928V189.928C602.425 189.928 601.744 189.71 601.208 189.324L600.039 190.948ZM603.308 191.928H608.104V189.928H603.308V191.928ZM609.104 190.928V184.724H607.104V190.928H609.104ZM608.104 183.724H603.088V185.724H608.104V183.724ZM644.575 189.608H643.575V190.608H644.575V189.608ZM655.531 189.608L656.524 189.49L656.419 188.608H655.531V189.608ZM656.411 197V198H657.537L657.404 196.882L656.411 197ZM635.247 197H634.247V198H635.247V197ZM635.247 166.816V165.816H634.247V166.816H635.247ZM644.575 166.816H645.575V165.816H644.575V166.816ZM644.575 190.608H655.531V188.608H644.575V190.608ZM654.538 189.726L655.418 197.118L657.404 196.882L656.524 189.49L654.538 189.726ZM656.411 196H635.247V198H656.411V196ZM636.247 197V166.816H634.247V197H636.247ZM635.247 167.816H644.575V165.816H635.247V167.816ZM643.575 166.816V189.608H645.575V166.816H643.575ZM681.181 168.048L680.677 168.912L680.685 168.916L681.181 168.048ZM684.569 171.436L683.701 171.932L683.705 171.94L684.569 171.436ZM684.569 181.688L685.433 182.192L685.437 182.184L684.569 181.688ZM681.181 185.032L680.685 184.164L680.677 184.168L681.181 185.032ZM669.741 186.264V185.264H668.741V186.264H669.741ZM669.741 197V198H670.741V197H669.741ZM660.501 197H659.501V198H660.501V197ZM660.501 166.816V165.816H659.501V166.816H660.501ZM669.741 179.532H668.741V180.532H669.741V179.532ZM675.725 178.74L676.472 179.404L676.481 179.394L676.49 179.384L675.725 178.74ZM675.725 174.56L674.94 175.18L674.958 175.203L674.977 175.224L675.725 174.56ZM669.741 173.724V172.724H668.741V173.724H669.741ZM676.561 167.816C678.061 167.816 679.426 168.182 680.677 168.912L681.685 167.184C680.12 166.271 678.405 165.816 676.561 165.816V167.816ZM680.685 168.916C681.967 169.649 682.968 170.65 683.701 171.932L685.437 170.94C684.527 169.347 683.269 168.09 681.677 167.18L680.685 168.916ZM683.705 171.94C684.435 173.191 684.801 174.556 684.801 176.056H686.801C686.801 174.212 686.346 172.497 685.433 170.932L683.705 171.94ZM684.801 176.056V177.024H686.801V176.056H684.801ZM684.801 177.024C684.801 178.524 684.435 179.907 683.701 181.192L685.437 182.184C686.346 180.594 686.801 178.868 686.801 177.024H684.801ZM683.705 181.184C682.974 182.438 681.972 183.428 680.685 184.164L681.677 185.9C683.264 184.993 684.521 183.754 685.433 182.192L683.705 181.184ZM680.677 184.168C679.426 184.898 678.061 185.264 676.561 185.264V187.264C678.405 187.264 680.12 186.809 681.685 185.896L680.677 184.168ZM676.561 185.264H669.741V187.264H676.561V185.264ZM668.741 186.264V197H670.741V186.264H668.741ZM669.741 196H660.501V198H669.741V196ZM661.501 197V166.816H659.501V197H661.501ZM660.501 167.816H676.561V165.816H660.501V167.816ZM669.741 180.532H673.789V178.532H669.741V180.532ZM673.789 180.532C674.845 180.532 675.782 180.181 676.472 179.404L674.977 178.076C674.729 178.355 674.376 178.532 673.789 178.532V180.532ZM676.49 179.384C677.098 178.662 677.429 177.822 677.429 176.892H675.429C675.429 177.311 675.291 177.703 674.96 178.096L676.49 179.384ZM677.429 176.892V176.364H675.429V176.892H677.429ZM677.429 176.364C677.429 175.432 677.096 174.597 676.472 173.896L674.977 175.224C675.292 175.579 675.429 175.947 675.429 176.364H677.429ZM676.51 173.94C675.842 173.094 674.878 172.724 673.789 172.724V174.724C674.401 174.724 674.728 174.911 674.94 175.18L676.51 173.94ZM673.789 172.724H669.741V174.724H673.789V172.724ZM668.741 173.724V179.532H670.741V173.724H668.741ZM717.345 167.652L716.879 168.537L716.888 168.542L716.898 168.546L717.345 167.652ZM721.129 171.084L720.272 171.598L720.275 171.605L720.279 171.611L721.129 171.084ZM720.865 181.6L721.675 182.187L721.68 182.18L720.865 181.6ZM715.761 186.264L715.19 185.443L715.189 185.444L715.761 186.264ZM710.965 189.608L710.393 188.788L707.782 190.608H710.965V189.608ZM722.537 189.608H723.537V188.608H722.537V189.608ZM722.537 197V198H723.537V197H722.537ZM698.997 197H697.997V198H698.997V197ZM699.789 191.104L700.701 191.514L700.701 191.514L699.789 191.104ZM702.517 187.804L701.898 187.018L701.895 187.021L702.517 187.804ZM711.229 180.94L711.848 181.726L711.852 181.722L711.229 180.94ZM712.681 174.164L711.957 174.854L711.974 174.871L711.991 174.888L712.681 174.164ZM707.753 174.12L707.063 173.396L707.055 173.404L707.046 173.413L707.753 174.12ZM706.873 177.552V178.552H707.873V177.552H706.873ZM699.129 177.552H698.129V178.552H699.129V177.552ZM700.449 171.48L701.319 171.973L701.323 171.966L700.449 171.48ZM704.321 167.74L703.85 166.858L703.85 166.858L704.321 167.74ZM711.713 167.376C713.72 167.376 715.432 167.774 716.879 168.537L717.812 166.767C716.031 165.829 713.989 165.376 711.713 165.376V167.376ZM716.898 168.546C718.384 169.289 719.497 170.307 720.272 171.598L721.987 170.57C721.002 168.928 719.592 167.657 717.792 166.758L716.898 168.546ZM720.279 171.611C721.08 172.903 721.493 174.403 721.493 176.144H723.493C723.493 174.071 722.997 172.198 721.979 170.557L720.279 171.611ZM721.493 176.144C721.493 178.076 721 179.686 720.05 181.02L721.68 182.18C722.901 180.464 723.493 178.436 723.493 176.144H721.493ZM720.056 181.013C719.061 182.384 717.458 183.864 715.19 185.443L716.332 187.085C718.698 185.438 720.498 183.808 721.675 182.187L720.056 181.013ZM715.189 185.444L710.393 188.788L711.537 190.428L716.333 187.084L715.189 185.444ZM710.965 190.608H722.537V188.608H710.965V190.608ZM721.537 189.608V197H723.537V189.608H721.537ZM722.537 196H698.997V198H722.537V196ZM699.997 197V195.416H697.997V197H699.997ZM699.997 195.416C699.997 193.813 700.247 192.524 700.701 191.514L698.877 190.694C698.276 192.03 697.997 193.617 697.997 195.416H699.997ZM700.701 191.514C701.148 190.522 701.94 189.541 703.14 188.587L701.895 187.021C700.513 188.12 699.486 189.34 698.877 190.694L700.701 191.514ZM703.136 188.589L711.848 181.725L710.61 180.155L701.898 187.019L703.136 188.589ZM711.852 181.722C713.644 180.296 714.605 178.48 714.605 176.32H712.605C712.605 177.797 711.983 179.062 710.606 180.158L711.852 181.722ZM714.605 176.32C714.605 175.196 714.185 174.215 713.371 173.44L711.991 174.888C712.409 175.286 712.605 175.743 712.605 176.32H714.605ZM713.405 173.474C712.63 172.66 711.649 172.24 710.525 172.24V174.24C711.102 174.24 711.559 174.436 711.957 174.854L713.405 173.474ZM710.525 172.24H709.953V174.24H710.525V172.24ZM709.953 172.24C708.846 172.24 707.865 172.632 707.063 173.396L708.443 174.844C708.873 174.435 709.359 174.24 709.953 174.24V172.24ZM707.046 173.413C706.26 174.199 705.873 175.193 705.873 176.32H707.873C707.873 175.687 708.073 175.214 708.46 174.827L707.046 173.413ZM705.873 176.32V177.552H707.873V176.32H705.873ZM706.873 176.552H699.129V178.552H706.873V176.552ZM700.129 177.552V176.716H698.129V177.552H700.129ZM700.129 176.716C700.129 174.938 700.531 173.365 701.319 171.973L699.579 170.987C698.607 172.705 698.129 174.622 698.129 176.716H700.129ZM701.323 171.966C702.104 170.561 703.249 169.447 704.793 168.622L703.85 166.858C701.99 167.852 700.554 169.231 699.575 170.994L701.323 171.966ZM704.793 168.622C706.322 167.804 708.163 167.376 710.349 167.376V165.376C707.9 165.376 705.723 165.857 703.85 166.858L704.793 168.622ZM710.349 167.376H711.713V165.376H710.349V167.376ZM745.867 167.872L745.355 168.731L745.364 168.736L745.373 168.741L745.867 167.872ZM749.871 171.876L749.002 172.371L749.007 172.379L749.013 172.388L749.871 171.876ZM749.871 191.984L749.009 191.478L749.006 191.483L749.871 191.984ZM745.867 195.988L746.368 196.853L746.373 196.851L745.867 195.988ZM732.843 195.988L732.331 196.847L732.34 196.852L732.349 196.857L732.843 195.988ZM728.839 191.984L727.97 192.479L727.975 192.487L727.981 192.496L728.839 191.984ZM728.839 171.876L727.977 171.37L727.974 171.375L728.839 171.876ZM732.843 167.872L733.344 168.737L733.349 168.735L732.843 167.872ZM737.023 173.768L736.286 173.092L736.285 173.094L737.023 173.768ZM737.023 190.048L736.271 190.707L736.285 190.723L736.301 190.739L737.023 190.048ZM741.687 190.048L740.95 189.372L740.949 189.374L741.687 190.048ZM741.687 173.768L740.935 174.427L740.949 174.443L740.965 174.459L741.687 173.768ZM740.367 167.376C742.186 167.376 743.842 167.828 745.355 168.731L746.38 167.013C744.549 165.921 742.538 165.376 740.367 165.376V167.376ZM745.373 168.741C746.918 169.62 748.123 170.825 749.002 172.371L750.741 171.381C749.684 169.524 748.22 168.06 746.362 167.003L745.373 168.741ZM749.013 172.388C749.915 173.901 750.367 175.557 750.367 177.376H752.367C752.367 175.206 751.822 173.195 750.73 171.364L749.013 172.388ZM750.367 177.376V186.44H752.367V177.376H750.367ZM750.367 186.44C750.367 188.259 749.915 189.932 749.009 191.478L750.734 192.49C751.822 190.633 752.367 188.61 752.367 186.44H750.367ZM749.006 191.483C748.126 193.002 746.917 194.214 745.362 195.125L746.373 196.851C748.22 195.768 749.68 194.31 750.737 192.485L749.006 191.483ZM745.366 195.123C743.852 195.999 742.192 196.44 740.367 196.44V198.44C742.532 198.44 744.539 197.913 746.368 196.853L745.366 195.123ZM740.367 196.44H738.387V198.44H740.367V196.44ZM738.387 196.44C736.563 196.44 734.886 195.999 733.338 195.119L732.349 196.857C734.204 197.913 736.223 198.44 738.387 198.44V196.44ZM733.356 195.129C731.826 194.217 730.611 193.001 729.698 191.472L727.981 192.496C729.063 194.311 730.517 195.765 732.331 196.847L733.356 195.129ZM729.709 191.489C728.828 189.942 728.387 188.265 728.387 186.44H726.387C726.387 188.605 726.915 190.624 727.97 192.479L729.709 191.489ZM728.387 186.44V177.376H726.387V186.44H728.387ZM728.387 177.376C728.387 175.551 728.828 173.892 729.705 172.377L727.974 171.375C726.915 173.204 726.387 175.211 726.387 177.376H728.387ZM729.702 172.382C730.614 170.826 731.825 169.617 733.344 168.737L732.342 167.007C730.518 168.063 729.06 169.523 727.977 171.37L729.702 172.382ZM733.349 168.735C734.895 167.828 736.568 167.376 738.387 167.376V165.376C736.217 165.376 734.194 165.921 732.338 167.009L733.349 168.735ZM738.387 167.376H740.367V165.376H738.387V167.376ZM739.399 171.712C738.175 171.712 737.117 172.186 736.286 173.092L737.761 174.444C738.22 173.942 738.747 173.712 739.399 173.712V171.712ZM736.285 173.094C735.49 173.964 735.099 175.031 735.099 176.232H737.099C737.099 175.497 737.325 174.921 737.762 174.442L736.285 173.094ZM735.099 176.232V187.54H737.099V176.232H735.099ZM735.099 187.54C735.099 188.741 735.489 189.813 736.271 190.707L737.776 189.389C737.325 188.875 737.099 188.275 737.099 187.54H735.099ZM736.301 190.739C737.129 191.605 738.165 192.06 739.355 192.06V190.06C738.727 190.06 738.208 189.84 737.746 189.357L736.301 190.739ZM739.355 192.06C740.566 192.06 741.615 191.611 742.426 190.722L740.949 189.374C740.528 189.835 740.022 190.06 739.355 190.06V192.06ZM742.425 190.724C743.241 189.833 743.655 188.754 743.655 187.54H741.655C741.655 188.262 741.424 188.855 740.95 189.372L742.425 190.724ZM743.655 187.54V176.232H741.655V187.54H743.655ZM743.655 176.232C743.655 175.017 743.241 173.945 742.41 173.077L740.965 174.459C741.425 174.94 741.655 175.511 741.655 176.232H743.655ZM742.44 173.109C741.64 172.196 740.606 171.712 739.399 171.712V173.712C740.011 173.712 740.502 173.932 740.935 174.427L742.44 173.109ZM781.166 166.816L782.02 167.335L782.944 165.816H781.166V166.816ZM762.818 197V198H763.38L763.672 197.519L762.818 197ZM758.638 197L757.784 196.479L756.855 198H758.638V197ZM777.074 166.816V165.816H776.513L776.22 166.295L777.074 166.816ZM765.634 168.444L764.927 169.151L764.936 169.161L765.634 168.444ZM765.634 180.588L764.936 179.871L764.927 179.881L765.634 180.588ZM757.01 180.588L757.717 179.881L757.717 179.881L757.01 180.588ZM757.01 168.444L756.303 167.737L756.303 167.737L757.01 168.444ZM760.178 170.468L759.471 169.761L759.471 169.761L760.178 170.468ZM760.178 178.52L759.471 179.227L759.471 179.227L760.178 178.52ZM762.466 178.52L761.759 177.813L761.742 177.83L761.726 177.847L762.466 178.52ZM762.466 170.468L761.726 171.141L761.742 171.158L761.759 171.175L762.466 170.468ZM782.794 183.272L782.087 183.979L782.096 183.989L782.794 183.272ZM783.674 194.316L784.529 194.835L784.533 194.828L784.536 194.822L783.674 194.316ZM781.65 196.296L781.144 195.433L781.137 195.437L781.131 195.441L781.65 196.296ZM774.17 195.46L773.453 196.157L773.463 196.167L774.17 195.46ZM774.17 183.272L774.877 183.979L774.17 183.272ZM777.338 185.34L778.045 186.047L778.06 186.032L778.075 186.016L777.338 185.34ZM777.338 193.392L776.601 194.068L776.615 194.084L776.631 194.099L777.338 193.392ZM779.626 193.392L778.889 192.716L778.886 192.719L779.626 193.392ZM779.626 185.34L778.858 185.98L778.887 186.015L778.919 186.047L779.626 185.34ZM780.311 166.297L761.963 196.481L763.672 197.519L782.02 167.335L780.311 166.297ZM762.818 196H758.638V198H762.818V196ZM759.491 197.521L777.927 167.337L776.22 166.295L757.784 196.479L759.491 197.521ZM777.074 167.816H781.166V165.816H777.074V167.816ZM761.806 167.86C763.037 167.86 764.059 168.283 764.927 169.151L766.341 167.737C765.097 166.493 763.566 165.86 761.806 165.86V167.86ZM764.936 169.161C765.831 170.031 766.262 171.05 766.262 172.272H768.262C768.262 170.502 767.607 168.969 766.331 167.727L764.936 169.161ZM766.262 172.272V176.76H768.262V172.272H766.262ZM766.262 176.76C766.262 177.982 765.831 179.001 764.936 179.871L766.331 181.305C767.607 180.063 768.262 178.53 768.262 176.76H766.262ZM764.927 179.881C764.059 180.749 763.037 181.172 761.806 181.172V183.172C763.566 183.172 765.097 182.539 766.341 181.295L764.927 179.881ZM761.806 181.172H760.838V183.172H761.806V181.172ZM760.838 181.172C759.606 181.172 758.585 180.749 757.717 179.881L756.303 181.295C757.547 182.539 759.077 183.172 760.838 183.172V181.172ZM757.717 179.881C756.849 179.013 756.426 177.991 756.426 176.76H754.426C754.426 178.521 755.059 180.051 756.303 181.295L757.717 179.881ZM756.426 176.76V172.272H754.426V176.76H756.426ZM756.426 172.272C756.426 171.041 756.849 170.019 757.717 169.151L756.303 167.737C755.059 168.981 754.426 170.511 754.426 172.272H756.426ZM757.717 169.151C758.585 168.283 759.606 167.86 760.838 167.86V165.86C759.077 165.86 757.547 166.493 756.303 167.737L757.717 169.151ZM760.838 167.86H761.806V165.86H760.838V167.86ZM761.322 168.984C760.606 168.984 759.973 169.258 759.471 169.761L760.885 171.175C761.028 171.032 761.158 170.984 761.322 170.984V168.984ZM759.471 169.761C758.942 170.289 758.694 170.963 758.694 171.7H760.694C760.694 171.439 760.768 171.292 760.885 171.175L759.471 169.761ZM758.694 171.7V177.288H760.694V171.7H758.694ZM758.694 177.288C758.694 178.025 758.942 178.699 759.471 179.227L760.885 177.813C760.768 177.696 760.694 177.549 760.694 177.288H758.694ZM759.471 179.227C759.973 179.73 760.606 180.004 761.322 180.004V178.004C761.158 178.004 761.028 177.956 760.885 177.813L759.471 179.227ZM761.322 180.004C762.049 180.004 762.707 179.741 763.206 179.193L761.726 177.847C761.638 177.944 761.533 178.004 761.322 178.004V180.004ZM763.173 179.227C763.701 178.699 763.95 178.025 763.95 177.288H761.95C761.95 177.549 761.875 177.696 761.759 177.813L763.173 179.227ZM763.95 177.288V171.7H761.95V177.288H763.95ZM763.95 171.7C763.95 170.963 763.701 170.289 763.173 169.761L761.759 171.175C761.875 171.292 761.95 171.439 761.95 171.7H763.95ZM763.206 169.795C762.707 169.247 762.049 168.984 761.322 168.984V170.984C761.533 170.984 761.638 171.044 761.726 171.141L763.206 169.795ZM778.966 182.688C780.197 182.688 781.219 183.111 782.087 183.979L783.501 182.565C782.257 181.321 780.726 180.688 778.966 180.688V182.688ZM782.096 183.989C782.991 184.859 783.422 185.878 783.422 187.1H785.422C785.422 185.33 784.767 183.797 783.491 182.555L782.096 183.989ZM783.422 187.1V191.588H785.422V187.1H783.422ZM783.422 191.588C783.422 192.375 783.222 193.11 782.811 193.81L784.536 194.822C785.123 193.821 785.422 192.737 785.422 191.588H783.422ZM782.819 193.797C782.409 194.473 781.856 195.016 781.144 195.433L782.155 197.159C783.145 196.578 783.941 195.802 784.529 194.835L782.819 193.797ZM781.131 195.441C780.467 195.844 779.752 196.044 778.966 196.044V198.044C780.115 198.044 781.19 197.745 782.169 197.151L781.131 195.441ZM778.966 196.044H777.998V198.044H778.966V196.044ZM777.998 196.044C776.766 196.044 775.745 195.621 774.877 194.753L773.463 196.167C774.707 197.411 776.237 198.044 777.998 198.044V196.044ZM774.886 194.763C774.01 193.861 773.586 192.82 773.586 191.588H771.586C771.586 193.348 772.218 194.888 773.453 196.157L774.886 194.763ZM773.586 191.588V187.1H771.586V191.588H773.586ZM773.586 187.1C773.586 185.869 774.009 184.847 774.877 183.979L773.463 182.565C772.219 183.809 771.586 185.339 771.586 187.1H773.586ZM774.877 183.979C775.745 183.111 776.766 182.688 777.998 182.688V180.688C776.237 180.688 774.707 181.321 773.463 182.565L774.877 183.979ZM777.998 182.688H778.966V180.688H777.998V182.688ZM778.482 183.812C777.736 183.812 777.095 184.125 776.601 184.664L778.075 186.016C778.226 185.851 778.348 185.812 778.482 185.812V183.812ZM776.631 184.633C776.102 185.161 775.854 185.835 775.854 186.572H777.854C777.854 186.311 777.928 186.164 778.045 186.047L776.631 184.633ZM775.854 186.572V192.16H777.854V186.572H775.854ZM775.854 192.16C775.854 192.884 776.112 193.535 776.601 194.068L778.075 192.716C777.918 192.545 777.854 192.374 777.854 192.16H775.854ZM776.631 194.099C777.133 194.602 777.766 194.876 778.482 194.876V192.876C778.318 192.876 778.188 192.828 778.045 192.685L776.631 194.099ZM778.482 194.876C779.209 194.876 779.867 194.613 780.366 194.065L778.886 192.719C778.798 192.816 778.693 192.876 778.482 192.876V194.876ZM780.363 194.068C780.851 193.535 781.11 192.884 781.11 192.16H779.11C779.11 192.374 779.045 192.545 778.889 192.716L780.363 194.068ZM781.11 192.16V186.572H779.11V192.16H781.11ZM781.11 186.572C781.11 185.835 780.861 185.161 780.333 184.633L778.919 186.047C779.035 186.164 779.11 186.311 779.11 186.572H781.11ZM780.394 184.7C779.905 184.114 779.24 183.812 778.482 183.812V185.812C778.663 185.812 778.759 185.862 778.858 185.98L780.394 184.7Z" fill="black" mask="url(#path-8-outside-2_661_101)"/>
<path d="M164.667 680C164.667 687.364 170.636 693.333 178 693.333C185.364 693.333 191.333 687.364 191.333 680C191.333 672.636 185.364 666.667 178 666.667C170.636 666.667 164.667 672.636 164.667 680ZM400.38 232V229.5H398.83L398.141 230.888L400.38 232ZM788 234.5C789.381 234.5 790.5 233.381 790.5 232C790.5 230.619 789.381 229.5 788 229.5V234.5ZM180.239 681.112L402.62 233.112L398.141 230.888L175.761 678.888L180.239 681.112ZM400.38 234.5H788V229.5H400.38V234.5Z" fill="white"/>
</svg>
