<svg width="1360" height="1360" viewBox="0 0 1360 1360" fill="none" xmlns="http://www.w3.org/2000/svg">
<path d="M680 0C752.809 8.68234e-07 825.145 11.6931 894.245 34.6326L808.547 292.78C767.087 279.016 723.685 272 680 272V0Z" fill="#5F52F1"/>
<path d="M552.582 12.0444C594.582 4.03259 637.244 -8.20618e-05 680.001 1.2524e-09L680.001 272C654.346 272 628.749 274.42 603.549 279.227L552.582 12.0444Z" fill="#01D3EC"/>
<path d="M129.868 280.306C231.53 140.382 382.689 44.4531 552.581 12.0446L603.549 279.227C501.613 298.672 410.918 356.229 349.921 440.184L129.868 280.306Z" fill="#8CC0B9"/>
<path d="M893.729 34.4616C1030.05 79.5968 1148.59 166.731 1232.35 283.375C1316.11 400.02 1360.79 540.187 1359.99 683.786L1087.99 682.272C1088.47 596.112 1061.66 512.012 1011.41 442.025C961.154 372.039 890.032 319.758 808.238 292.677L893.729 34.4616Z" fill="#FFE657"/>
<path d="M1360 680C1360 823.602 1314.54 963.518 1230.13 1079.69L1010.08 919.816C1060.72 850.111 1088 766.161 1088 680H1360Z" fill="#525775"/>
<mask id="path-6-inside-1_661_102" fill="white">
<path d="M1230.13 1079.69C1167.06 1166.51 1084.33 1237.17 988.714 1285.88C893.099 1334.6 787.311 1360 680 1360C572.689 1360 466.901 1334.6 371.286 1285.88C275.671 1237.17 192.944 1166.51 129.868 1079.69L349.921 919.816C387.766 971.906 437.403 1014.3 494.772 1043.53C552.141 1072.76 615.613 1088 680 1088C744.387 1088 807.859 1072.76 865.228 1043.53C922.597 1014.3 972.233 971.906 1010.08 919.816L1230.13 1079.69Z"/>
</mask>
<path d="M1230.13 1079.69C1167.06 1166.51 1084.33 1237.17 988.714 1285.88C893.099 1334.6 787.311 1360 680 1360C572.689 1360 466.901 1334.6 371.286 1285.88C275.671 1237.17 192.944 1166.51 129.868 1079.69L349.921 919.816C387.766 971.906 437.403 1014.3 494.772 1043.53C552.141 1072.76 615.613 1088 680 1088C744.387 1088 807.859 1072.76 865.228 1043.53C922.597 1014.3 972.233 971.906 1010.08 919.816L1230.13 1079.69Z" fill="#9F8CC0" stroke="#30324F" stroke-width="28" mask="url(#path-6-inside-1_661_102)"/>
<path d="M129.868 1079.69C45.4613 963.518 -2.96727e-05 823.602 0 680C2.96728e-05 536.398 45.4614 396.482 129.869 280.306L349.921 440.183C299.277 509.889 272 593.839 272 680C272 766.161 299.277 850.111 349.921 919.816L129.868 1079.69Z" fill="#FF4059"/>
<mask id="path-8-outside-2_661_102" maskUnits="userSpaceOnUse" x="22" y="991" width="471" height="44" fill="black">
<rect fill="white" x="22" y="991" width="471" height="44"/>
<path d="M44.3487 1025H33.0987L23.8737 994.13H33.6837L39.0837 1013.3H39.2637L44.6187 994.13H53.7087L44.3487 1025ZM69.5149 1001.55C71.8249 1001.55 73.8049 1002 75.4549 1002.9C77.1349 1003.77 78.4099 1004.99 79.2799 1006.55C80.1799 1008.11 80.6299 1009.89 80.6299 1011.9V1014.69H65.6449V1016.85C65.6449 1017.87 65.9599 1018.65 66.5899 1019.19C67.2499 1019.73 68.0899 1020 69.1099 1020C70.1599 1020 70.9549 1019.69 71.4949 1019.06C72.0649 1018.4 72.3499 1017.5 72.3499 1016.36H80.5849C80.5849 1018.07 80.1349 1019.61 79.2349 1020.99C78.3649 1022.37 77.0749 1023.47 75.3649 1024.28C73.6849 1025.06 71.6899 1025.45 69.3799 1025.45H68.7049C66.3049 1025.45 64.1449 1025.02 62.2249 1024.14C60.3349 1023.24 58.8349 1021.95 57.7249 1020.27C56.6449 1018.56 56.1049 1016.54 56.1049 1014.2V1012.8C56.1049 1010.46 56.6149 1008.45 57.6349 1006.77C58.6849 1005.06 60.1399 1003.77 61.9999 1002.9C63.8599 1002 65.9899 1001.55 68.3899 1001.55H69.5149ZM68.7499 1007C67.8799 1007 67.1449 1007.31 66.5449 1007.94C65.9449 1008.54 65.6449 1009.28 65.6449 1010.15V1010.78H71.8549V1010.15C71.8549 1009.28 71.5549 1008.54 70.9549 1007.94C70.3549 1007.31 69.6199 1007 68.7499 1007ZM101.356 1001.55C102.586 1001.55 103.711 1001.85 104.731 1002.45C105.781 1003.05 106.606 1003.88 107.206 1004.93C107.806 1005.95 108.106 1007.07 108.106 1008.3V1025H99.1963V1010.6C99.1963 1009.85 98.9563 1009.22 98.4763 1008.71C98.0263 1008.17 97.4713 1007.9 96.8113 1007.9C96.1513 1007.9 95.5813 1008.17 95.1013 1008.71C94.6513 1009.22 94.4263 1009.85 94.4263 1010.6V1025H85.5163V1002H92.2213L93.1213 1005.33C94.7713 1002.81 97.0963 1001.55 100.096 1001.55H101.356ZM124.02 1002H129.42V1008.39H124.02V1016.9C124.02 1018.1 124.245 1018.92 124.695 1019.38C125.175 1019.79 125.805 1020 126.585 1020C126.945 1020 127.41 1019.96 127.98 1019.87C128.58 1019.75 129.045 1019.61 129.375 1019.46V1024.5C128.685 1024.8 127.725 1025.05 126.495 1025.23C125.265 1025.41 124.215 1025.5 123.345 1025.5C120.705 1025.5 118.665 1025.02 117.225 1024.05C115.815 1023.09 115.11 1021.46 115.11 1019.15V1008.39H112.59V1002H115.47L118.575 994.67H124.02V1002ZM156.417 1018.34C156.417 1018.91 156.552 1019.33 156.822 1019.6C157.092 1019.87 157.422 1020 157.812 1020C158.382 1020 158.907 1019.87 159.387 1019.6V1024.41C158.427 1025.11 156.912 1025.45 154.842 1025.45C152.922 1025.45 151.452 1025.15 150.432 1024.55C149.412 1023.92 148.677 1023 148.227 1021.8C147.717 1022.58 146.877 1023.39 145.707 1024.23C144.537 1025.05 143.247 1025.45 141.837 1025.45H140.577C139.347 1025.45 138.207 1025.15 137.157 1024.55C136.137 1023.95 135.327 1023.14 134.727 1022.12C134.127 1021.07 133.827 1019.93 133.827 1018.7V1002H142.737V1016.4C142.737 1017.15 142.962 1017.8 143.412 1018.34C143.892 1018.85 144.462 1019.1 145.122 1019.1C145.782 1019.1 146.337 1018.85 146.787 1018.34C147.267 1017.8 147.507 1017.15 147.507 1016.4V1002H156.417V1018.34ZM177.339 1001.55C179.319 1001.55 180.849 1002.11 181.929 1003.22C183.039 1004.3 183.594 1005.8 183.594 1007.72V1008.48L183.504 1010.19L183.414 1011.32H176.124V1010.24C176.124 1009.61 175.929 1009.08 175.539 1008.66C175.179 1008.21 174.744 1007.99 174.234 1007.99C173.694 1007.99 173.229 1008.21 172.839 1008.66C172.479 1009.08 172.299 1009.61 172.299 1010.24V1025H163.614V1002H170.274L171.264 1005.33C171.444 1004.97 171.789 1004.49 172.299 1003.89C172.809 1003.29 173.499 1002.75 174.369 1002.28C175.239 1001.79 176.229 1001.55 177.339 1001.55ZM200.103 1001.55C202.413 1001.55 204.393 1002 206.043 1002.9C207.723 1003.77 208.998 1004.99 209.868 1006.55C210.768 1008.11 211.218 1009.89 211.218 1011.9V1014.69H196.233V1016.85C196.233 1017.87 196.548 1018.65 197.178 1019.19C197.838 1019.73 198.678 1020 199.698 1020C200.748 1020 201.543 1019.69 202.083 1019.06C202.653 1018.4 202.938 1017.5 202.938 1016.36H211.173C211.173 1018.07 210.723 1019.61 209.823 1020.99C208.953 1022.37 207.663 1023.47 205.953 1024.28C204.273 1025.06 202.278 1025.45 199.968 1025.45H199.293C196.893 1025.45 194.733 1025.02 192.813 1024.14C190.923 1023.24 189.423 1021.95 188.313 1020.27C187.233 1018.56 186.693 1016.54 186.693 1014.2V1012.8C186.693 1010.46 187.203 1008.45 188.223 1006.77C189.273 1005.06 190.728 1003.77 192.588 1002.9C194.448 1002 196.578 1001.55 198.978 1001.55H200.103ZM199.338 1007C198.468 1007 197.733 1007.31 197.133 1007.94C196.533 1008.54 196.233 1009.28 196.233 1010.15V1010.78H202.443V1010.15C202.443 1009.28 202.143 1008.54 201.543 1007.94C200.943 1007.31 200.208 1007 199.338 1007ZM240.466 993.68C242.956 993.68 245.176 994.175 247.126 995.165C249.106 996.125 250.666 997.595 251.806 999.575C252.946 1001.53 253.516 1003.92 253.516 1006.77H244.651V1005.2C244.651 1003.82 244.216 1002.72 243.346 1001.91C242.506 1001.1 241.441 1000.7 240.151 1000.7H239.926C238.666 1000.7 237.601 1001.13 236.731 1002C235.861 1002.87 235.426 1003.94 235.426 1005.2V1013.88C235.426 1015.14 235.861 1016.21 236.731 1017.08C237.601 1017.95 238.666 1018.39 239.926 1018.39H240.556C241.846 1018.39 242.911 1017.99 243.751 1017.21C244.621 1016.4 245.056 1015.29 245.056 1013.88V1012.4H253.516C253.516 1015.04 252.961 1017.35 251.851 1019.33C250.771 1021.31 249.271 1022.82 247.351 1023.87C245.431 1024.93 243.256 1025.45 240.826 1025.45H239.566C236.896 1025.45 234.466 1024.91 232.276 1023.83C230.116 1022.75 228.406 1021.19 227.146 1019.15C225.886 1017.11 225.256 1014.71 225.256 1011.95V1007.18C225.256 1004.57 225.886 1002.24 227.146 1000.21C228.436 998.135 230.146 996.53 232.276 995.39C234.406 994.25 236.716 993.68 239.206 993.68H240.466ZM269.969 1001.55C273.449 1001.55 276.104 1002.23 277.934 1003.58C279.794 1004.93 280.724 1006.68 280.724 1008.84V1018.34C280.724 1018.91 280.859 1019.33 281.129 1019.6C281.399 1019.87 281.729 1020 282.119 1020C282.689 1020 283.214 1019.87 283.694 1019.6V1024.41C282.734 1025.11 281.219 1025.45 279.149 1025.45C277.229 1025.45 275.714 1025.14 274.604 1024.5C273.494 1023.84 272.804 1022.94 272.534 1021.8C271.574 1022.91 270.509 1023.8 269.339 1024.46C268.199 1025.12 266.789 1025.45 265.109 1025.45C262.709 1025.45 260.759 1024.98 259.259 1024.05C257.759 1023.12 257.009 1021.29 257.009 1018.56C257.009 1016.49 257.594 1014.9 258.764 1013.79C259.934 1012.65 261.599 1011.87 263.759 1011.45C265.949 1011 268.724 1010.78 272.084 1010.78V1009.47C272.084 1008.63 271.799 1007.97 271.229 1007.49C270.689 1007.01 269.999 1006.77 269.159 1006.77C268.469 1006.77 267.809 1006.98 267.179 1007.4C266.579 1007.79 266.279 1008.29 266.279 1008.89V1009.07H257.729C257.699 1008.98 257.684 1008.77 257.684 1008.44C257.684 1007.15 258.119 1005.99 258.989 1004.97C259.889 1003.92 261.149 1003.1 262.769 1002.5C264.419 1001.87 266.324 1001.55 268.484 1001.55H269.969ZM272.084 1014.87C270.104 1014.87 268.649 1015.14 267.719 1015.68C266.789 1016.19 266.324 1016.91 266.324 1017.84C266.324 1019.28 267.224 1020 269.024 1020C269.864 1020 270.584 1019.72 271.184 1019.15C271.784 1018.55 272.084 1017.78 272.084 1016.85V1014.87ZM301.335 1001.55C303.195 1001.55 304.86 1001.99 306.33 1002.86C307.83 1003.73 309 1005.05 309.84 1006.82C310.71 1008.56 311.145 1010.7 311.145 1013.25V1013.75C311.145 1016.3 310.755 1018.46 309.975 1020.23C309.225 1021.97 308.19 1023.27 306.87 1024.14C305.58 1025.02 304.11 1025.45 302.46 1025.45C299.64 1025.45 297.66 1024.5 296.52 1022.61V1033.15H287.61V1002H294.72L295.53 1004.66C297.12 1002.59 299.055 1001.55 301.335 1001.55ZM299.31 1007C298.53 1007 297.87 1007.31 297.33 1007.94C296.79 1008.54 296.52 1009.28 296.52 1010.15V1016.67C296.52 1017.54 296.79 1018.29 297.33 1018.92C297.87 1019.52 298.53 1019.82 299.31 1019.82C300.09 1019.82 300.75 1019.52 301.29 1018.92C301.83 1018.29 302.1 1017.54 302.1 1016.67V1010.15C302.1 1009.28 301.83 1008.54 301.29 1007.94C300.75 1007.31 300.09 1007 299.31 1007ZM324.852 999.035H315.987V992.6H324.852V999.035ZM324.852 1025H315.987V1002.05H324.852V1025ZM340.911 1002H346.311V1008.39H340.911V1016.9C340.911 1018.1 341.136 1018.92 341.586 1019.38C342.066 1019.79 342.696 1020 343.476 1020C343.836 1020 344.301 1019.96 344.871 1019.87C345.471 1019.75 345.936 1019.61 346.266 1019.46V1024.5C345.576 1024.8 344.616 1025.05 343.386 1025.23C342.156 1025.41 341.106 1025.5 340.236 1025.5C337.596 1025.5 335.556 1025.02 334.116 1024.05C332.706 1023.09 332.001 1021.46 332.001 1019.15V1008.39H329.481V1002H332.361L335.466 994.67H340.911V1002ZM362.689 1001.55C366.169 1001.55 368.824 1002.23 370.654 1003.58C372.514 1004.93 373.444 1006.68 373.444 1008.84V1018.34C373.444 1018.91 373.579 1019.33 373.849 1019.6C374.119 1019.87 374.449 1020 374.839 1020C375.409 1020 375.934 1019.87 376.414 1019.6V1024.41C375.454 1025.11 373.939 1025.45 371.869 1025.45C369.949 1025.45 368.434 1025.14 367.324 1024.5C366.214 1023.84 365.524 1022.94 365.254 1021.8C364.294 1022.91 363.229 1023.8 362.059 1024.46C360.919 1025.12 359.509 1025.45 357.829 1025.45C355.429 1025.45 353.479 1024.98 351.979 1024.05C350.479 1023.12 349.729 1021.29 349.729 1018.56C349.729 1016.49 350.314 1014.9 351.484 1013.79C352.654 1012.65 354.319 1011.87 356.479 1011.45C358.669 1011 361.444 1010.78 364.804 1010.78V1009.47C364.804 1008.63 364.519 1007.97 363.949 1007.49C363.409 1007.01 362.719 1006.77 361.879 1006.77C361.189 1006.77 360.529 1006.98 359.899 1007.4C359.299 1007.79 358.999 1008.29 358.999 1008.89V1009.07H350.449C350.419 1008.98 350.404 1008.77 350.404 1008.44C350.404 1007.15 350.839 1005.99 351.709 1004.97C352.609 1003.92 353.869 1003.1 355.489 1002.5C357.139 1001.87 359.044 1001.55 361.204 1001.55H362.689ZM364.804 1014.87C362.824 1014.87 361.369 1015.14 360.439 1015.68C359.509 1016.19 359.044 1016.91 359.044 1017.84C359.044 1019.28 359.944 1020 361.744 1020C362.584 1020 363.304 1019.72 363.904 1019.15C364.504 1018.55 364.804 1017.78 364.804 1016.85V1014.87ZM389.24 992.6V1025H380.33V992.6H389.24ZM417.42 993.68C419.52 993.68 421.38 994.055 423 994.805C424.65 995.555 425.925 996.575 426.825 997.865C427.755 999.125 428.22 1000.52 428.22 1002.05C428.22 1003.61 427.83 1005 427.05 1006.23C426.3 1007.43 425.265 1008.3 423.945 1008.84C425.595 1009.41 426.87 1010.36 427.77 1011.68C428.67 1013 429.12 1014.6 429.12 1016.49C429.12 1018.17 428.655 1019.69 427.725 1021.04C426.825 1022.39 425.49 1023.47 423.72 1024.28C421.95 1025.06 419.85 1025.45 417.42 1025.45H415.53C413.1 1025.45 411 1025.06 409.23 1024.28C407.46 1023.47 406.11 1022.39 405.18 1021.04C404.28 1019.69 403.83 1018.19 403.83 1016.54V1015.59H411.75C411.75 1016.52 412.05 1017.29 412.65 1017.89C413.25 1018.46 414.15 1018.74 415.35 1018.74H416.565C417.735 1018.74 418.62 1018.43 419.22 1017.8C419.85 1017.17 420.165 1016.31 420.165 1015.23C420.165 1014.18 419.865 1013.39 419.265 1012.85C418.695 1012.28 417.945 1011.99 417.015 1011.99H412.335V1006.46H416.295C417.225 1006.46 417.975 1006.19 418.545 1005.65C419.145 1005.08 419.445 1004.27 419.445 1003.22C419.445 1002.44 419.13 1001.78 418.5 1001.24C417.9 1000.67 417.165 1000.38 416.295 1000.38H415.485C414.615 1000.38 413.865 1000.67 413.235 1001.24C412.635 1001.78 412.335 1002.44 412.335 1003.22H404.82V1002.09C404.82 1000.53 405.285 999.125 406.215 997.865C407.145 996.575 408.465 995.555 410.175 994.805C411.885 994.055 413.85 993.68 416.07 993.68H417.42ZM446.726 993.68C448.766 993.68 450.641 994.19 452.351 995.21C454.091 996.2 455.456 997.565 456.446 999.305C457.466 1001.01 457.976 1002.89 457.976 1004.93V1014.2C457.976 1016.24 457.466 1018.13 456.446 1019.87C455.456 1021.58 454.091 1022.94 452.351 1023.96C450.641 1024.95 448.766 1025.45 446.726 1025.45H444.701C442.661 1025.45 440.771 1024.95 439.031 1023.96C437.321 1022.94 435.956 1021.58 434.936 1019.87C433.946 1018.13 433.451 1016.24 433.451 1014.2V1004.93C433.451 1002.89 433.946 1001.01 434.936 999.305C435.956 997.565 437.321 996.2 439.031 995.21C440.771 994.19 442.661 993.68 444.701 993.68H446.726ZM445.736 1000.16C444.776 1000.16 443.966 1000.52 443.306 1001.24C442.676 1001.93 442.361 1002.77 442.361 1003.76V1015.32C442.361 1016.31 442.676 1017.17 443.306 1017.89C443.966 1018.58 444.761 1018.92 445.691 1018.92C446.651 1018.92 447.446 1018.58 448.076 1017.89C448.736 1017.17 449.066 1016.31 449.066 1015.32V1003.76C449.066 1002.77 448.736 1001.93 448.076 1001.24C447.446 1000.52 446.666 1000.16 445.736 1000.16ZM488.451 994.13L469.686 1025H465.411L484.266 994.13H488.451ZM468.651 994.175C470.181 994.175 471.486 994.715 472.566 995.795C473.676 996.875 474.231 998.18 474.231 999.71V1004.3C474.231 1005.83 473.676 1007.13 472.566 1008.21C471.486 1009.29 470.181 1009.83 468.651 1009.83H467.661C466.131 1009.83 464.826 1009.29 463.746 1008.21C462.666 1007.13 462.126 1005.83 462.126 1004.3V999.71C462.126 998.18 462.666 996.875 463.746 995.795C464.826 994.715 466.131 994.175 467.661 994.175H468.651ZM468.156 997.37C467.706 997.37 467.316 997.535 466.986 997.865C466.656 998.195 466.491 998.615 466.491 999.125V1004.84C466.491 1005.35 466.656 1005.77 466.986 1006.1C467.316 1006.43 467.706 1006.59 468.156 1006.59C468.636 1006.59 469.026 1006.43 469.326 1006.1C469.656 1005.77 469.821 1005.35 469.821 1004.84V999.125C469.821 998.615 469.656 998.195 469.326 997.865C469.026 997.535 468.636 997.37 468.156 997.37ZM486.201 1009.34C487.731 1009.34 489.036 1009.88 490.116 1010.96C491.226 1012.04 491.781 1013.34 491.781 1014.87V1019.46C491.781 1020.45 491.526 1021.38 491.016 1022.25C490.506 1023.09 489.816 1023.77 488.946 1024.28C488.106 1024.79 487.191 1025.05 486.201 1025.05H485.211C483.681 1025.05 482.376 1024.5 481.296 1023.42C480.216 1022.31 479.676 1020.99 479.676 1019.46V1014.87C479.676 1013.34 480.216 1012.04 481.296 1010.96C482.376 1009.88 483.681 1009.34 485.211 1009.34H486.201ZM485.706 1012.53C485.256 1012.53 484.866 1012.71 484.536 1013.07C484.206 1013.4 484.041 1013.82 484.041 1014.33V1020.05C484.041 1020.53 484.206 1020.95 484.536 1021.31C484.866 1021.64 485.256 1021.8 485.706 1021.8C486.186 1021.8 486.576 1021.64 486.876 1021.31C487.206 1020.95 487.371 1020.53 487.371 1020.05V1014.33C487.371 1013.82 487.206 1013.4 486.876 1013.07C486.576 1012.71 486.186 1012.53 485.706 1012.53Z"/>
</mask>
<path d="M44.3487 1025H33.0987L23.8737 994.13H33.6837L39.0837 1013.3H39.2637L44.6187 994.13H53.7087L44.3487 1025ZM69.5149 1001.55C71.8249 1001.55 73.8049 1002 75.4549 1002.9C77.1349 1003.77 78.4099 1004.99 79.2799 1006.55C80.1799 1008.11 80.6299 1009.89 80.6299 1011.9V1014.69H65.6449V1016.85C65.6449 1017.87 65.9599 1018.65 66.5899 1019.19C67.2499 1019.73 68.0899 1020 69.1099 1020C70.1599 1020 70.9549 1019.69 71.4949 1019.06C72.0649 1018.4 72.3499 1017.5 72.3499 1016.36H80.5849C80.5849 1018.07 80.1349 1019.61 79.2349 1020.99C78.3649 1022.37 77.0749 1023.47 75.3649 1024.28C73.6849 1025.06 71.6899 1025.45 69.3799 1025.45H68.7049C66.3049 1025.45 64.1449 1025.02 62.2249 1024.14C60.3349 1023.24 58.8349 1021.95 57.7249 1020.27C56.6449 1018.56 56.1049 1016.54 56.1049 1014.2V1012.8C56.1049 1010.46 56.6149 1008.45 57.6349 1006.77C58.6849 1005.06 60.1399 1003.77 61.9999 1002.9C63.8599 1002 65.9899 1001.55 68.3899 1001.55H69.5149ZM68.7499 1007C67.8799 1007 67.1449 1007.31 66.5449 1007.94C65.9449 1008.54 65.6449 1009.28 65.6449 1010.15V1010.78H71.8549V1010.15C71.8549 1009.28 71.5549 1008.54 70.9549 1007.94C70.3549 1007.31 69.6199 1007 68.7499 1007ZM101.356 1001.55C102.586 1001.55 103.711 1001.85 104.731 1002.45C105.781 1003.05 106.606 1003.88 107.206 1004.93C107.806 1005.95 108.106 1007.07 108.106 1008.3V1025H99.1963V1010.6C99.1963 1009.85 98.9563 1009.22 98.4763 1008.71C98.0263 1008.17 97.4713 1007.9 96.8113 1007.9C96.1513 1007.9 95.5813 1008.17 95.1013 1008.71C94.6513 1009.22 94.4263 1009.85 94.4263 1010.6V1025H85.5163V1002H92.2213L93.1213 1005.33C94.7713 1002.81 97.0963 1001.55 100.096 1001.55H101.356ZM124.02 1002H129.42V1008.39H124.02V1016.9C124.02 1018.1 124.245 1018.92 124.695 1019.38C125.175 1019.79 125.805 1020 126.585 1020C126.945 1020 127.41 1019.96 127.98 1019.87C128.58 1019.75 129.045 1019.61 129.375 1019.46V1024.5C128.685 1024.8 127.725 1025.05 126.495 1025.23C125.265 1025.41 124.215 1025.5 123.345 1025.5C120.705 1025.5 118.665 1025.02 117.225 1024.05C115.815 1023.09 115.11 1021.46 115.11 1019.15V1008.39H112.59V1002H115.47L118.575 994.67H124.02V1002ZM156.417 1018.34C156.417 1018.91 156.552 1019.33 156.822 1019.6C157.092 1019.87 157.422 1020 157.812 1020C158.382 1020 158.907 1019.87 159.387 1019.6V1024.41C158.427 1025.11 156.912 1025.45 154.842 1025.45C152.922 1025.45 151.452 1025.15 150.432 1024.55C149.412 1023.92 148.677 1023 148.227 1021.8C147.717 1022.58 146.877 1023.39 145.707 1024.23C144.537 1025.05 143.247 1025.45 141.837 1025.45H140.577C139.347 1025.45 138.207 1025.15 137.157 1024.55C136.137 1023.95 135.327 1023.14 134.727 1022.12C134.127 1021.07 133.827 1019.93 133.827 1018.7V1002H142.737V1016.4C142.737 1017.15 142.962 1017.8 143.412 1018.34C143.892 1018.85 144.462 1019.1 145.122 1019.1C145.782 1019.1 146.337 1018.85 146.787 1018.34C147.267 1017.8 147.507 1017.15 147.507 1016.4V1002H156.417V1018.34ZM177.339 1001.55C179.319 1001.55 180.849 1002.11 181.929 1003.22C183.039 1004.3 183.594 1005.8 183.594 1007.72V1008.48L183.504 1010.19L183.414 1011.32H176.124V1010.24C176.124 1009.61 175.929 1009.08 175.539 1008.66C175.179 1008.21 174.744 1007.99 174.234 1007.99C173.694 1007.99 173.229 1008.21 172.839 1008.66C172.479 1009.08 172.299 1009.61 172.299 1010.24V1025H163.614V1002H170.274L171.264 1005.33C171.444 1004.97 171.789 1004.49 172.299 1003.89C172.809 1003.29 173.499 1002.75 174.369 1002.28C175.239 1001.79 176.229 1001.55 177.339 1001.55ZM200.103 1001.55C202.413 1001.55 204.393 1002 206.043 1002.9C207.723 1003.77 208.998 1004.99 209.868 1006.55C210.768 1008.11 211.218 1009.89 211.218 1011.9V1014.69H196.233V1016.85C196.233 1017.87 196.548 1018.65 197.178 1019.19C197.838 1019.73 198.678 1020 199.698 1020C200.748 1020 201.543 1019.69 202.083 1019.06C202.653 1018.4 202.938 1017.5 202.938 1016.36H211.173C211.173 1018.07 210.723 1019.61 209.823 1020.99C208.953 1022.37 207.663 1023.47 205.953 1024.28C204.273 1025.06 202.278 1025.45 199.968 1025.45H199.293C196.893 1025.45 194.733 1025.02 192.813 1024.14C190.923 1023.24 189.423 1021.95 188.313 1020.27C187.233 1018.56 186.693 1016.54 186.693 1014.2V1012.8C186.693 1010.46 187.203 1008.45 188.223 1006.77C189.273 1005.06 190.728 1003.77 192.588 1002.9C194.448 1002 196.578 1001.55 198.978 1001.55H200.103ZM199.338 1007C198.468 1007 197.733 1007.31 197.133 1007.94C196.533 1008.54 196.233 1009.28 196.233 1010.15V1010.78H202.443V1010.15C202.443 1009.28 202.143 1008.54 201.543 1007.94C200.943 1007.31 200.208 1007 199.338 1007ZM240.466 993.68C242.956 993.68 245.176 994.175 247.126 995.165C249.106 996.125 250.666 997.595 251.806 999.575C252.946 1001.53 253.516 1003.92 253.516 1006.77H244.651V1005.2C244.651 1003.82 244.216 1002.72 243.346 1001.91C242.506 1001.1 241.441 1000.7 240.151 1000.7H239.926C238.666 1000.7 237.601 1001.13 236.731 1002C235.861 1002.87 235.426 1003.94 235.426 1005.2V1013.88C235.426 1015.14 235.861 1016.21 236.731 1017.08C237.601 1017.95 238.666 1018.39 239.926 1018.39H240.556C241.846 1018.39 242.911 1017.99 243.751 1017.21C244.621 1016.4 245.056 1015.29 245.056 1013.88V1012.4H253.516C253.516 1015.04 252.961 1017.35 251.851 1019.33C250.771 1021.31 249.271 1022.82 247.351 1023.87C245.431 1024.93 243.256 1025.45 240.826 1025.45H239.566C236.896 1025.45 234.466 1024.91 232.276 1023.83C230.116 1022.75 228.406 1021.19 227.146 1019.15C225.886 1017.11 225.256 1014.71 225.256 1011.95V1007.18C225.256 1004.57 225.886 1002.24 227.146 1000.21C228.436 998.135 230.146 996.53 232.276 995.39C234.406 994.25 236.716 993.68 239.206 993.68H240.466ZM269.969 1001.55C273.449 1001.55 276.104 1002.23 277.934 1003.58C279.794 1004.93 280.724 1006.68 280.724 1008.84V1018.34C280.724 1018.91 280.859 1019.33 281.129 1019.6C281.399 1019.87 281.729 1020 282.119 1020C282.689 1020 283.214 1019.87 283.694 1019.6V1024.41C282.734 1025.11 281.219 1025.45 279.149 1025.45C277.229 1025.45 275.714 1025.14 274.604 1024.5C273.494 1023.84 272.804 1022.94 272.534 1021.8C271.574 1022.91 270.509 1023.8 269.339 1024.46C268.199 1025.12 266.789 1025.45 265.109 1025.45C262.709 1025.45 260.759 1024.98 259.259 1024.05C257.759 1023.12 257.009 1021.29 257.009 1018.56C257.009 1016.49 257.594 1014.9 258.764 1013.79C259.934 1012.65 261.599 1011.87 263.759 1011.45C265.949 1011 268.724 1010.78 272.084 1010.78V1009.47C272.084 1008.63 271.799 1007.97 271.229 1007.49C270.689 1007.01 269.999 1006.77 269.159 1006.77C268.469 1006.77 267.809 1006.98 267.179 1007.4C266.579 1007.79 266.279 1008.29 266.279 1008.89V1009.07H257.729C257.699 1008.98 257.684 1008.77 257.684 1008.44C257.684 1007.15 258.119 1005.99 258.989 1004.97C259.889 1003.92 261.149 1003.1 262.769 1002.5C264.419 1001.87 266.324 1001.55 268.484 1001.55H269.969ZM272.084 1014.87C270.104 1014.87 268.649 1015.14 267.719 1015.68C266.789 1016.19 266.324 1016.91 266.324 1017.84C266.324 1019.28 267.224 1020 269.024 1020C269.864 1020 270.584 1019.72 271.184 1019.15C271.784 1018.55 272.084 1017.78 272.084 1016.85V1014.87ZM301.335 1001.55C303.195 1001.55 304.86 1001.99 306.33 1002.86C307.83 1003.73 309 1005.05 309.84 1006.82C310.71 1008.56 311.145 1010.7 311.145 1013.25V1013.75C311.145 1016.3 310.755 1018.46 309.975 1020.23C309.225 1021.97 308.19 1023.27 306.87 1024.14C305.58 1025.02 304.11 1025.45 302.46 1025.45C299.64 1025.45 297.66 1024.5 296.52 1022.61V1033.15H287.61V1002H294.72L295.53 1004.66C297.12 1002.59 299.055 1001.55 301.335 1001.55ZM299.31 1007C298.53 1007 297.87 1007.31 297.33 1007.94C296.79 1008.54 296.52 1009.28 296.52 1010.15V1016.67C296.52 1017.54 296.79 1018.29 297.33 1018.92C297.87 1019.52 298.53 1019.82 299.31 1019.82C300.09 1019.82 300.75 1019.52 301.29 1018.92C301.83 1018.29 302.1 1017.54 302.1 1016.67V1010.15C302.1 1009.28 301.83 1008.54 301.29 1007.94C300.75 1007.31 300.09 1007 299.31 1007ZM324.852 999.035H315.987V992.6H324.852V999.035ZM324.852 1025H315.987V1002.05H324.852V1025ZM340.911 1002H346.311V1008.39H340.911V1016.9C340.911 1018.1 341.136 1018.92 341.586 1019.38C342.066 1019.79 342.696 1020 343.476 1020C343.836 1020 344.301 1019.96 344.871 1019.87C345.471 1019.75 345.936 1019.61 346.266 1019.46V1024.5C345.576 1024.8 344.616 1025.05 343.386 1025.23C342.156 1025.41 341.106 1025.5 340.236 1025.5C337.596 1025.5 335.556 1025.02 334.116 1024.05C332.706 1023.09 332.001 1021.46 332.001 1019.15V1008.39H329.481V1002H332.361L335.466 994.67H340.911V1002ZM362.689 1001.55C366.169 1001.55 368.824 1002.23 370.654 1003.58C372.514 1004.93 373.444 1006.68 373.444 1008.84V1018.34C373.444 1018.91 373.579 1019.33 373.849 1019.6C374.119 1019.87 374.449 1020 374.839 1020C375.409 1020 375.934 1019.87 376.414 1019.6V1024.41C375.454 1025.11 373.939 1025.45 371.869 1025.45C369.949 1025.45 368.434 1025.14 367.324 1024.5C366.214 1023.84 365.524 1022.94 365.254 1021.8C364.294 1022.91 363.229 1023.8 362.059 1024.46C360.919 1025.12 359.509 1025.45 357.829 1025.45C355.429 1025.45 353.479 1024.98 351.979 1024.05C350.479 1023.12 349.729 1021.29 349.729 1018.56C349.729 1016.49 350.314 1014.9 351.484 1013.79C352.654 1012.65 354.319 1011.87 356.479 1011.45C358.669 1011 361.444 1010.78 364.804 1010.78V1009.47C364.804 1008.63 364.519 1007.97 363.949 1007.49C363.409 1007.01 362.719 1006.77 361.879 1006.77C361.189 1006.77 360.529 1006.98 359.899 1007.4C359.299 1007.79 358.999 1008.29 358.999 1008.89V1009.07H350.449C350.419 1008.98 350.404 1008.77 350.404 1008.44C350.404 1007.15 350.839 1005.99 351.709 1004.97C352.609 1003.92 353.869 1003.1 355.489 1002.5C357.139 1001.87 359.044 1001.55 361.204 1001.55H362.689ZM364.804 1014.87C362.824 1014.87 361.369 1015.14 360.439 1015.68C359.509 1016.19 359.044 1016.91 359.044 1017.84C359.044 1019.28 359.944 1020 361.744 1020C362.584 1020 363.304 1019.72 363.904 1019.15C364.504 1018.55 364.804 1017.78 364.804 1016.85V1014.87ZM389.24 992.6V1025H380.33V992.6H389.24ZM417.42 993.68C419.52 993.68 421.38 994.055 423 994.805C424.65 995.555 425.925 996.575 426.825 997.865C427.755 999.125 428.22 1000.52 428.22 1002.05C428.22 1003.61 427.83 1005 427.05 1006.23C426.3 1007.43 425.265 1008.3 423.945 1008.84C425.595 1009.41 426.87 1010.36 427.77 1011.68C428.67 1013 429.12 1014.6 429.12 1016.49C429.12 1018.17 428.655 1019.69 427.725 1021.04C426.825 1022.39 425.49 1023.47 423.72 1024.28C421.95 1025.06 419.85 1025.45 417.42 1025.45H415.53C413.1 1025.45 411 1025.06 409.23 1024.28C407.46 1023.47 406.11 1022.39 405.18 1021.04C404.28 1019.69 403.83 1018.19 403.83 1016.54V1015.59H411.75C411.75 1016.52 412.05 1017.29 412.65 1017.89C413.25 1018.46 414.15 1018.74 415.35 1018.74H416.565C417.735 1018.74 418.62 1018.43 419.22 1017.8C419.85 1017.17 420.165 1016.31 420.165 1015.23C420.165 1014.18 419.865 1013.39 419.265 1012.85C418.695 1012.28 417.945 1011.99 417.015 1011.99H412.335V1006.46H416.295C417.225 1006.46 417.975 1006.19 418.545 1005.65C419.145 1005.08 419.445 1004.27 419.445 1003.22C419.445 1002.44 419.13 1001.78 418.5 1001.24C417.9 1000.67 417.165 1000.38 416.295 1000.38H415.485C414.615 1000.38 413.865 1000.67 413.235 1001.24C412.635 1001.78 412.335 1002.44 412.335 1003.22H404.82V1002.09C404.82 1000.53 405.285 999.125 406.215 997.865C407.145 996.575 408.465 995.555 410.175 994.805C411.885 994.055 413.85 993.68 416.07 993.68H417.42ZM446.726 993.68C448.766 993.68 450.641 994.19 452.351 995.21C454.091 996.2 455.456 997.565 456.446 999.305C457.466 1001.01 457.976 1002.89 457.976 1004.93V1014.2C457.976 1016.24 457.466 1018.13 456.446 1019.87C455.456 1021.58 454.091 1022.94 452.351 1023.96C450.641 1024.95 448.766 1025.45 446.726 1025.45H444.701C442.661 1025.45 440.771 1024.95 439.031 1023.96C437.321 1022.94 435.956 1021.58 434.936 1019.87C433.946 1018.13 433.451 1016.24 433.451 1014.2V1004.93C433.451 1002.89 433.946 1001.01 434.936 999.305C435.956 997.565 437.321 996.2 439.031 995.21C440.771 994.19 442.661 993.68 444.701 993.68H446.726ZM445.736 1000.16C444.776 1000.16 443.966 1000.52 443.306 1001.24C442.676 1001.93 442.361 1002.77 442.361 1003.76V1015.32C442.361 1016.31 442.676 1017.17 443.306 1017.89C443.966 1018.58 444.761 1018.92 445.691 1018.92C446.651 1018.92 447.446 1018.58 448.076 1017.89C448.736 1017.17 449.066 1016.31 449.066 1015.32V1003.76C449.066 1002.77 448.736 1001.93 448.076 1001.24C447.446 1000.52 446.666 1000.16 445.736 1000.16ZM488.451 994.13L469.686 1025H465.411L484.266 994.13H488.451ZM468.651 994.175C470.181 994.175 471.486 994.715 472.566 995.795C473.676 996.875 474.231 998.18 474.231 999.71V1004.3C474.231 1005.83 473.676 1007.13 472.566 1008.21C471.486 1009.29 470.181 1009.83 468.651 1009.83H467.661C466.131 1009.83 464.826 1009.29 463.746 1008.21C462.666 1007.13 462.126 1005.83 462.126 1004.3V999.71C462.126 998.18 462.666 996.875 463.746 995.795C464.826 994.715 466.131 994.175 467.661 994.175H468.651ZM468.156 997.37C467.706 997.37 467.316 997.535 466.986 997.865C466.656 998.195 466.491 998.615 466.491 999.125V1004.84C466.491 1005.35 466.656 1005.77 466.986 1006.1C467.316 1006.43 467.706 1006.59 468.156 1006.59C468.636 1006.59 469.026 1006.43 469.326 1006.1C469.656 1005.77 469.821 1005.35 469.821 1004.84V999.125C469.821 998.615 469.656 998.195 469.326 997.865C469.026 997.535 468.636 997.37 468.156 997.37ZM486.201 1009.34C487.731 1009.34 489.036 1009.88 490.116 1010.96C491.226 1012.04 491.781 1013.34 491.781 1014.87V1019.46C491.781 1020.45 491.526 1021.38 491.016 1022.25C490.506 1023.09 489.816 1023.77 488.946 1024.28C488.106 1024.79 487.191 1025.05 486.201 1025.05H485.211C483.681 1025.05 482.376 1024.5 481.296 1023.42C480.216 1022.31 479.676 1020.99 479.676 1019.46V1014.87C479.676 1013.34 480.216 1012.04 481.296 1010.96C482.376 1009.88 483.681 1009.34 485.211 1009.34H486.201ZM485.706 1012.53C485.256 1012.53 484.866 1012.71 484.536 1013.07C484.206 1013.4 484.041 1013.82 484.041 1014.33V1020.05C484.041 1020.53 484.206 1020.95 484.536 1021.31C484.866 1021.64 485.256 1021.8 485.706 1021.8C486.186 1021.8 486.576 1021.64 486.876 1021.31C487.206 1020.95 487.371 1020.53 487.371 1020.05V1014.33C487.371 1013.82 487.206 1013.4 486.876 1013.07C486.576 1012.71 486.186 1012.53 485.706 1012.53Z" fill="white"/>
<path d="M44.3487 1025V1026H45.0904L45.3057 1025.29L44.3487 1025ZM33.0987 1025L32.1406 1025.29L32.3538 1026H33.0987V1025ZM23.8737 994.13V993.13H22.5312L22.9156 994.416L23.8737 994.13ZM33.6837 994.13L34.6462 993.859L34.4409 993.13H33.6837V994.13ZM39.0837 1013.3L38.1212 1013.57L38.3265 1014.3H39.0837V1013.3ZM39.2637 1013.3V1014.3H40.0226L40.2268 1013.57L39.2637 1013.3ZM44.6187 994.13V993.13H43.8598L43.6556 993.861L44.6187 994.13ZM53.7087 994.13L54.6657 994.42L55.0569 993.13H53.7087V994.13ZM44.3487 1024H33.0987V1026H44.3487V1024ZM34.0568 1024.71L24.8318 993.844L22.9156 994.416L32.1406 1025.29L34.0568 1024.71ZM23.8737 995.13H33.6837V993.13H23.8737V995.13ZM32.7212 994.401L38.1212 1013.57L40.0462 1013.03L34.6462 993.859L32.7212 994.401ZM39.0837 1014.3H39.2637V1012.3H39.0837V1014.3ZM40.2268 1013.57L45.5818 994.399L43.6556 993.861L38.3006 1013.03L40.2268 1013.57ZM44.6187 995.13H53.7087V993.13H44.6187V995.13ZM52.7517 993.84L43.3917 1024.71L45.3057 1025.29L54.6657 994.42L52.7517 993.84ZM75.4549 1002.9L74.9761 1003.78L74.9855 1003.79L74.9951 1003.79L75.4549 1002.9ZM79.2799 1006.55L78.4066 1007.04L78.4101 1007.04L78.4138 1007.05L79.2799 1006.55ZM80.6299 1014.69V1015.69H81.6299V1014.69H80.6299ZM65.6449 1014.69V1013.69H64.6449V1014.69H65.6449ZM66.5899 1019.19L65.9392 1019.95L65.9478 1019.96L65.9567 1019.97L66.5899 1019.19ZM71.4949 1019.06L70.7381 1018.41L70.7357 1018.41L71.4949 1019.06ZM72.3499 1016.36V1015.36H71.3499V1016.36H72.3499ZM80.5849 1016.36H81.5849V1015.36H80.5849V1016.36ZM79.2349 1020.99L78.3973 1020.45L78.3931 1020.46L78.389 1020.46L79.2349 1020.99ZM75.3649 1024.28L75.7861 1025.19L75.793 1025.18L75.3649 1024.28ZM62.2249 1024.14L61.795 1025.05L61.8036 1025.05L61.8122 1025.06L62.2249 1024.14ZM57.7249 1020.27L56.8795 1020.81L56.8849 1020.82L56.8906 1020.83L57.7249 1020.27ZM57.6349 1006.77L56.7828 1006.25L56.7802 1006.26L57.6349 1006.77ZM61.9999 1002.9L62.4237 1003.81L62.4355 1003.81L61.9999 1002.9ZM66.5449 1007.94L67.2521 1008.65L67.2607 1008.64L67.2691 1008.63L66.5449 1007.94ZM65.6449 1010.78H64.6449V1011.78H65.6449V1010.78ZM71.8549 1010.78V1011.78H72.8549V1010.78H71.8549ZM70.9549 1007.94L70.2308 1008.63L70.2392 1008.64L70.2478 1008.65L70.9549 1007.94ZM69.5149 1002.55C71.6955 1002.55 73.503 1002.98 74.9761 1003.78L75.9338 1002.03C74.1069 1001.03 71.9544 1000.55 69.5149 1000.55V1002.55ZM74.9951 1003.79C76.5118 1004.58 77.6379 1005.66 78.4066 1007.04L80.1533 1006.06C79.182 1004.32 77.7581 1002.97 75.9148 1002.02L74.9951 1003.79ZM78.4138 1007.05C79.2162 1008.44 79.6299 1010.05 79.6299 1011.9H81.6299C81.6299 1009.74 81.1436 1007.78 80.1461 1006.05L78.4138 1007.05ZM79.6299 1011.9V1014.69H81.6299V1011.9H79.6299ZM80.6299 1013.69H65.6449V1015.69H80.6299V1013.69ZM64.6449 1014.69V1016.85H66.6449V1014.69H64.6449ZM64.6449 1016.85C64.6449 1018.09 65.0376 1019.18 65.9392 1019.95L67.2407 1018.44C66.8823 1018.13 66.6449 1017.66 66.6449 1016.85H64.6449ZM65.9567 1019.97C66.8287 1020.68 67.9062 1021 69.1099 1021V1019C68.2737 1019 67.6712 1018.79 67.2232 1018.42L65.9567 1019.97ZM69.1099 1021C70.3683 1021 71.4758 1020.62 72.2542 1019.71L70.7357 1018.41C70.4341 1018.76 69.9516 1019 69.1099 1019V1021ZM72.2518 1019.71C73.0216 1018.82 73.3499 1017.66 73.3499 1016.36H71.3499C71.3499 1017.34 71.1083 1017.98 70.7381 1018.41L72.2518 1019.71ZM72.3499 1017.36H80.5849V1015.36H72.3499V1017.36ZM79.5849 1016.36C79.5849 1017.88 79.1872 1019.24 78.3973 1020.45L80.0726 1021.54C81.0827 1019.99 81.5849 1018.26 81.5849 1016.36H79.5849ZM78.389 1020.46C77.6356 1021.66 76.5032 1022.63 74.9369 1023.38L75.793 1025.18C77.6467 1024.31 79.0942 1023.09 80.0809 1021.53L78.389 1020.46ZM74.9438 1023.37C73.4242 1024.08 71.5795 1024.45 69.3799 1024.45V1026.45C71.8004 1026.45 73.9457 1026.04 75.7861 1025.19L74.9438 1023.37ZM69.3799 1024.45H68.7049V1026.45H69.3799V1024.45ZM68.7049 1024.45C66.4276 1024.45 64.4112 1024.04 62.6377 1023.23L61.8122 1025.06C63.8787 1025.99 66.1823 1026.45 68.7049 1026.45V1024.45ZM62.6549 1023.24C60.9223 1022.42 59.5649 1021.25 58.5593 1019.72L56.8906 1020.83C58.105 1022.66 59.7475 1024.07 61.795 1025.05L62.6549 1023.24ZM58.5704 1019.74C57.6064 1018.21 57.1049 1016.38 57.1049 1014.2H55.1049C55.1049 1016.7 55.6835 1018.92 56.8795 1020.81L58.5704 1019.74ZM57.1049 1014.2V1012.8H55.1049V1014.2H57.1049ZM57.1049 1012.8C57.1049 1010.61 57.5814 1008.79 58.4897 1007.29L56.7802 1006.26C55.6484 1008.12 55.1049 1010.32 55.1049 1012.8H57.1049ZM58.4871 1007.3C59.4323 1005.76 60.7364 1004.6 62.4236 1003.81L61.5763 1002C59.5435 1002.95 57.9376 1004.37 56.7828 1006.25L58.4871 1007.3ZM62.4355 1003.81C64.1394 1002.98 66.1165 1002.55 68.3899 1002.55V1000.55C65.8634 1000.55 63.5805 1001.03 61.5644 1002L62.4355 1003.81ZM68.3899 1002.55H69.5149V1000.55H68.3899V1002.55ZM68.7499 1006C67.6063 1006 66.6096 1006.43 65.8208 1007.26L67.2691 1008.63C67.6803 1008.2 68.1536 1008 68.7499 1008V1006ZM65.8378 1007.24C65.0451 1008.03 64.6449 1009.02 64.6449 1010.15H66.6449C66.6449 1009.54 66.8448 1009.06 67.2521 1008.65L65.8378 1007.24ZM64.6449 1010.15V1010.78H66.6449V1010.15H64.6449ZM65.6449 1011.78H71.8549V1009.78H65.6449V1011.78ZM72.8549 1010.78V1010.15H70.8549V1010.78H72.8549ZM72.8549 1010.15C72.8549 1009.02 72.4548 1008.03 71.6621 1007.24L70.2478 1008.65C70.6551 1009.06 70.8549 1009.54 70.8549 1010.15H72.8549ZM71.6791 1007.26C70.8903 1006.43 69.8936 1006 68.7499 1006V1008C69.3463 1008 69.8196 1008.2 70.2308 1008.63L71.6791 1007.26ZM104.731 1002.45L104.224 1003.32L104.235 1003.32L104.731 1002.45ZM107.206 1004.93L106.338 1005.43L106.344 1005.44L107.206 1004.93ZM108.106 1025V1026H109.106V1025H108.106ZM99.1963 1025H98.1963V1026H99.1963V1025ZM98.4763 1008.71L97.7081 1009.35L97.7274 1009.37L97.7481 1009.4L98.4763 1008.71ZM95.1013 1008.71L94.3539 1008.05L94.3515 1008.05L95.1013 1008.71ZM94.4263 1025V1026H95.4263V1025H94.4263ZM85.5163 1025H84.5163V1026H85.5163V1025ZM85.5163 1002V1001H84.5163V1002H85.5163ZM92.2213 1002L93.1867 1001.74L92.9869 1001H92.2213V1002ZM93.1213 1005.33L92.1559 1005.6L92.7373 1007.75L93.9579 1005.88L93.1213 1005.33ZM101.356 1002.55C102.415 1002.55 103.364 1002.81 104.224 1003.32L105.238 1001.59C104.058 1000.9 102.757 1000.55 101.356 1000.55V1002.55ZM104.235 1003.32C105.13 1003.83 105.827 1004.53 106.338 1005.43L108.075 1004.43C107.386 1003.23 106.432 1002.28 105.227 1001.59L104.235 1003.32ZM106.344 1005.44C106.85 1006.3 107.106 1007.25 107.106 1008.3H109.106C109.106 1006.9 108.762 1005.6 108.068 1004.42L106.344 1005.44ZM107.106 1008.3V1025H109.106V1008.3H107.106ZM108.106 1024H99.1963V1026H108.106V1024ZM100.196 1025V1010.6H98.1963V1025H100.196ZM100.196 1010.6C100.196 1009.62 99.8722 1008.73 99.2045 1008.02L97.7481 1009.4C98.0404 1009.71 98.1963 1010.08 98.1963 1010.6H100.196ZM99.2445 1008.07C98.6187 1007.32 97.7895 1006.9 96.8113 1006.9V1008.9C97.1532 1008.9 97.434 1009.02 97.7081 1009.35L99.2445 1008.07ZM96.8113 1006.9C95.8367 1006.9 95.0035 1007.31 94.3539 1008.05L95.8487 1009.37C96.1591 1009.03 96.4659 1008.9 96.8113 1008.9V1006.9ZM94.3515 1008.05C93.7233 1008.76 93.4263 1009.63 93.4263 1010.6H95.4263C95.4263 1010.07 95.5793 1009.68 95.8511 1009.37L94.3515 1008.05ZM93.4263 1010.6V1025H95.4263V1010.6H93.4263ZM94.4263 1024H85.5163V1026H94.4263V1024ZM86.5163 1025V1002H84.5163V1025H86.5163ZM85.5163 1003H92.2213V1001H85.5163V1003ZM91.2559 1002.27L92.1559 1005.6L94.0867 1005.07L93.1867 1001.74L91.2559 1002.27ZM93.9579 1005.88C95.4241 1003.64 97.4353 1002.55 100.096 1002.55V1000.55C96.7574 1000.55 94.1186 1001.99 92.2847 1004.79L93.9579 1005.88ZM100.096 1002.55H101.356V1000.55H100.096V1002.55ZM124.02 1002H123.02V1003H124.02V1002ZM129.42 1002H130.42V1001H129.42V1002ZM129.42 1008.39V1009.39H130.42V1008.39H129.42ZM124.02 1008.39V1007.39H123.02V1008.39H124.02ZM124.695 1019.38L123.988 1020.08L124.011 1020.11L124.036 1020.13L124.695 1019.38ZM127.98 1019.87L128.136 1020.86L128.156 1020.85L128.176 1020.85L127.98 1019.87ZM129.375 1019.46H130.375V1017.91L128.961 1018.55L129.375 1019.46ZM129.375 1024.5L129.774 1025.42L130.375 1025.16V1024.5H129.375ZM126.495 1025.23L126.35 1024.24L126.495 1025.23ZM117.225 1024.05L116.662 1024.88L116.67 1024.89L117.225 1024.05ZM115.11 1008.39H116.11V1007.39H115.11V1008.39ZM112.59 1008.39H111.59V1009.39H112.59V1008.39ZM112.59 1002V1001H111.59V1002H112.59ZM115.47 1002V1003H116.132L116.391 1002.39L115.47 1002ZM118.575 994.67V993.67H117.912L117.654 994.28L118.575 994.67ZM124.02 994.67H125.02V993.67H124.02V994.67ZM124.02 1003H129.42V1001H124.02V1003ZM128.42 1002V1008.39H130.42V1002H128.42ZM129.42 1007.39H124.02V1009.39H129.42V1007.39ZM123.02 1008.39V1016.9H125.02V1008.39H123.02ZM123.02 1016.9C123.02 1018.16 123.241 1019.34 123.988 1020.08L125.402 1018.67C125.248 1018.51 125.02 1018.04 125.02 1016.9H123.02ZM124.036 1020.13C124.737 1020.74 125.619 1021 126.585 1021V1019C125.991 1019 125.613 1018.85 125.353 1018.62L124.036 1020.13ZM126.585 1021C127.019 1021 127.541 1020.95 128.136 1020.86L127.824 1018.88C127.279 1018.97 126.871 1019 126.585 1019V1021ZM128.176 1020.85C128.807 1020.72 129.358 1020.57 129.789 1020.38L128.961 1018.55C128.732 1018.66 128.352 1018.78 127.784 1018.89L128.176 1020.85ZM128.375 1019.46V1024.5H130.375V1019.46H128.375ZM128.976 1023.59C128.403 1023.84 127.541 1024.06 126.35 1024.24L126.64 1026.21C127.908 1026.03 128.967 1025.77 129.774 1025.42L128.976 1023.59ZM126.35 1024.24C125.149 1024.41 124.151 1024.5 123.345 1024.5V1026.5C124.279 1026.5 125.38 1026.4 126.64 1026.21L126.35 1024.24ZM123.345 1024.5C120.806 1024.5 118.99 1024.03 117.779 1023.22L116.67 1024.89C118.34 1026 120.604 1026.5 123.345 1026.5V1024.5ZM117.788 1023.23C116.743 1022.52 116.11 1021.26 116.11 1019.15H114.11C114.11 1021.66 114.887 1023.67 116.662 1024.88L117.788 1023.23ZM116.11 1019.15V1008.39H114.11V1019.15H116.11ZM115.11 1007.39H112.59V1009.39H115.11V1007.39ZM113.59 1008.39V1002H111.59V1008.39H113.59ZM112.59 1003H115.47V1001H112.59V1003ZM116.391 1002.39L119.496 995.06L117.654 994.28L114.549 1001.62L116.391 1002.39ZM118.575 995.67H124.02V993.67H118.575V995.67ZM123.02 994.67V1002H125.02V994.67H123.02ZM156.822 1019.6L156.115 1020.31L156.115 1020.31L156.822 1019.6ZM159.387 1019.6H160.387V1017.89L158.897 1018.73L159.387 1019.6ZM159.387 1024.41L159.971 1025.23L160.387 1024.93V1024.41H159.387ZM150.432 1024.55L149.907 1025.4L149.916 1025.41L149.925 1025.41L150.432 1024.55ZM148.227 1021.8L149.164 1021.45L148.471 1019.61L147.39 1021.26L148.227 1021.8ZM145.707 1024.23L146.277 1025.06L146.284 1025.05L146.291 1025.05L145.707 1024.23ZM137.157 1024.55L136.65 1025.41L136.661 1025.42L137.157 1024.55ZM134.727 1022.12L133.859 1022.62L133.865 1022.63L134.727 1022.12ZM133.827 1002V1001H132.827V1002H133.827ZM142.737 1002H143.737V1001H142.737V1002ZM143.412 1018.34L142.644 1018.98L142.663 1019L142.684 1019.03L143.412 1018.34ZM146.787 1018.34L146.04 1017.68L146.037 1017.68L146.787 1018.34ZM147.507 1002V1001H146.507V1002H147.507ZM156.417 1002H157.417V1001H156.417V1002ZM155.417 1018.34C155.417 1019.05 155.583 1019.77 156.115 1020.31L157.529 1018.89C157.522 1018.89 157.417 1018.77 157.417 1018.34H155.417ZM156.115 1020.31C156.577 1020.77 157.163 1021 157.812 1021V1019C157.681 1019 157.607 1018.97 157.529 1018.89L156.115 1020.31ZM157.812 1021C158.548 1021 159.243 1020.83 159.878 1020.47L158.897 1018.73C158.572 1018.91 158.217 1019 157.812 1019V1021ZM158.387 1019.6V1024.41H160.387V1019.6H158.387ZM158.804 1023.6C158.1 1024.11 156.842 1024.45 154.842 1024.45V1026.45C156.982 1026.45 158.755 1026.1 159.971 1025.23L158.804 1023.6ZM154.842 1024.45C153.001 1024.45 151.738 1024.16 150.939 1023.69L149.925 1025.41C151.167 1026.14 152.844 1026.45 154.842 1026.45V1024.45ZM150.958 1023.7C150.14 1023.19 149.542 1022.46 149.164 1021.45L147.291 1022.16C147.813 1023.55 148.685 1024.65 149.907 1025.4L150.958 1023.7ZM147.39 1021.26C146.974 1021.89 146.243 1022.62 145.124 1023.42L146.291 1025.05C147.512 1024.17 148.46 1023.28 149.064 1022.35L147.39 1021.26ZM145.138 1023.41C144.134 1024.11 143.042 1024.45 141.837 1024.45V1026.45C143.453 1026.45 144.941 1025.98 146.277 1025.06L145.138 1023.41ZM141.837 1024.45H140.577V1026.45H141.837V1024.45ZM140.577 1024.45C139.518 1024.45 138.55 1024.19 137.653 1023.68L136.661 1025.42C137.865 1026.11 139.176 1026.45 140.577 1026.45V1024.45ZM137.664 1023.69C136.791 1023.17 136.103 1022.49 135.589 1021.61L133.865 1022.63C134.552 1023.79 135.484 1024.73 136.65 1025.41L137.664 1023.69ZM135.596 1021.62C135.083 1020.73 134.827 1019.76 134.827 1018.7H132.827C132.827 1020.1 133.171 1021.41 133.859 1022.62L135.596 1021.62ZM134.827 1018.7V1002H132.827V1018.7H134.827ZM133.827 1003H142.737V1001H133.827V1003ZM141.737 1002V1016.4H143.737V1002H141.737ZM141.737 1016.4C141.737 1017.37 142.034 1018.25 142.644 1018.98L144.181 1017.7C143.891 1017.35 143.737 1016.94 143.737 1016.4H141.737ZM142.684 1019.03C143.34 1019.72 144.168 1020.1 145.122 1020.1V1018.1C144.756 1018.1 144.444 1017.98 144.141 1017.65L142.684 1019.03ZM145.122 1020.1C146.079 1020.1 146.904 1019.72 147.537 1019L146.037 1017.68C145.771 1017.98 145.486 1018.1 145.122 1018.1V1020.1ZM147.535 1019C148.184 1018.27 148.507 1017.39 148.507 1016.4H146.507C146.507 1016.92 146.351 1017.33 146.04 1017.68L147.535 1019ZM148.507 1016.4V1002H146.507V1016.4H148.507ZM147.507 1003H156.417V1001H147.507V1003ZM155.417 1002V1018.34H157.417V1002H155.417ZM181.929 1003.22L181.212 1003.92L181.222 1003.93L181.232 1003.94L181.929 1003.22ZM183.594 1008.48L184.593 1008.54L184.594 1008.51V1008.48H183.594ZM183.504 1010.19L184.501 1010.27L184.502 1010.26L184.503 1010.25L183.504 1010.19ZM183.414 1011.32V1012.32H184.337L184.411 1011.4L183.414 1011.32ZM176.124 1011.32H175.124V1012.32H176.124V1011.32ZM175.539 1008.66L174.758 1009.29L174.781 1009.32L174.806 1009.35L175.539 1008.66ZM172.839 1008.66L172.083 1008.01L172.08 1008.01L172.839 1008.66ZM172.299 1025V1026H173.299V1025H172.299ZM163.614 1025H162.614V1026H163.614V1025ZM163.614 1002V1001H162.614V1002H163.614ZM170.274 1002L171.233 1001.72L171.02 1001H170.274V1002ZM171.264 1005.33L170.306 1005.62L171.027 1008.05L172.159 1005.78L171.264 1005.33ZM172.299 1003.89L173.061 1004.54L173.061 1004.54L172.299 1003.89ZM174.369 1002.28L174.852 1003.15L174.852 1003.15L174.369 1002.28ZM177.339 1002.55C179.128 1002.55 180.37 1003.05 181.212 1003.92L182.646 1002.52C181.329 1001.17 179.51 1000.55 177.339 1000.55V1002.55ZM181.232 1003.94C182.104 1004.79 182.594 1006 182.594 1007.72H184.594C184.594 1005.6 183.974 1003.81 182.627 1002.5L181.232 1003.94ZM182.594 1007.72V1008.48H184.594V1007.72H182.594ZM182.596 1008.43L182.506 1010.14L184.503 1010.25L184.593 1008.54L182.596 1008.43ZM182.507 1010.12L182.417 1011.24L184.411 1011.4L184.501 1010.27L182.507 1010.12ZM183.414 1010.32H176.124V1012.32H183.414V1010.32ZM177.124 1011.32V1010.24H175.124V1011.32H177.124ZM177.124 1010.24C177.124 1009.38 176.851 1008.61 176.272 1007.98L174.806 1009.35C175.007 1009.56 175.124 1009.84 175.124 1010.24H177.124ZM176.32 1008.04C175.798 1007.39 175.09 1006.99 174.234 1006.99V1008.99C174.398 1008.99 174.56 1009.04 174.758 1009.29L176.32 1008.04ZM174.234 1006.99C173.372 1006.99 172.641 1007.37 172.083 1008.01L173.595 1009.32C173.817 1009.06 174.016 1008.99 174.234 1008.99V1006.99ZM172.08 1008.01C171.543 1008.64 171.299 1009.41 171.299 1010.24H173.299C173.299 1009.81 173.415 1009.53 173.598 1009.32L172.08 1008.01ZM171.299 1010.24V1025H173.299V1010.24H171.299ZM172.299 1024H163.614V1026H172.299V1024ZM164.614 1025V1002H162.614V1025H164.614ZM163.614 1003H170.274V1001H163.614V1003ZM169.316 1002.29L170.306 1005.62L172.223 1005.05L171.233 1001.72L169.316 1002.29ZM172.159 1005.78C172.283 1005.53 172.564 1005.13 173.061 1004.54L171.537 1003.25C171.015 1003.86 170.605 1004.42 170.37 1004.89L172.159 1005.78ZM173.061 1004.54C173.475 1004.06 174.062 1003.59 174.852 1003.15L173.886 1001.4C172.937 1001.92 172.143 1002.53 171.537 1003.25L173.061 1004.54ZM174.852 1003.15C175.558 1002.76 176.378 1002.55 177.339 1002.55V1000.55C176.08 1000.55 174.921 1000.83 173.886 1001.4L174.852 1003.15ZM206.043 1002.9L205.564 1003.78L205.573 1003.79L205.583 1003.79L206.043 1002.9ZM209.868 1006.55L208.994 1007.04L208.998 1007.04L209.002 1007.05L209.868 1006.55ZM211.218 1014.69V1015.69H212.218V1014.69H211.218ZM196.233 1014.69V1013.69H195.233V1014.69H196.233ZM197.178 1019.19L196.527 1019.95L196.536 1019.96L196.545 1019.97L197.178 1019.19ZM202.083 1019.06L201.326 1018.41L201.324 1018.41L202.083 1019.06ZM202.938 1016.36V1015.36H201.938V1016.36H202.938ZM211.173 1016.36H212.173V1015.36H211.173V1016.36ZM209.823 1020.99L208.985 1020.45L208.981 1020.46L208.977 1020.46L209.823 1020.99ZM205.953 1024.28L206.374 1025.19L206.381 1025.18L205.953 1024.28ZM192.813 1024.14L192.383 1025.05L192.391 1025.05L192.4 1025.06L192.813 1024.14ZM188.313 1020.27L187.467 1020.81L187.473 1020.82L187.479 1020.83L188.313 1020.27ZM188.223 1006.77L187.371 1006.25L187.368 1006.26L188.223 1006.77ZM192.588 1002.9L193.012 1003.81L193.023 1003.81L192.588 1002.9ZM197.133 1007.94L197.84 1008.65L197.849 1008.64L197.857 1008.63L197.133 1007.94ZM196.233 1010.78H195.233V1011.78H196.233V1010.78ZM202.443 1010.78V1011.78H203.443V1010.78H202.443ZM201.543 1007.94L200.819 1008.63L200.827 1008.64L200.836 1008.65L201.543 1007.94ZM200.103 1002.55C202.283 1002.55 204.091 1002.98 205.564 1003.78L206.522 1002.03C204.695 1001.03 202.542 1000.55 200.103 1000.55V1002.55ZM205.583 1003.79C207.1 1004.58 208.226 1005.66 208.994 1007.04L210.741 1006.06C209.77 1004.32 208.346 1002.97 206.503 1002.02L205.583 1003.79ZM209.002 1007.05C209.804 1008.44 210.218 1010.05 210.218 1011.9H212.218C212.218 1009.74 211.732 1007.78 210.734 1006.05L209.002 1007.05ZM210.218 1011.9V1014.69H212.218V1011.9H210.218ZM211.218 1013.69H196.233V1015.69H211.218V1013.69ZM195.233 1014.69V1016.85H197.233V1014.69H195.233ZM195.233 1016.85C195.233 1018.09 195.625 1019.18 196.527 1019.95L197.829 1018.44C197.47 1018.13 197.233 1017.66 197.233 1016.85H195.233ZM196.545 1019.97C197.417 1020.68 198.494 1021 199.698 1021V1019C198.862 1019 198.259 1018.79 197.811 1018.42L196.545 1019.97ZM199.698 1021C200.956 1021 202.064 1020.62 202.842 1019.71L201.324 1018.41C201.022 1018.76 200.54 1019 199.698 1019V1021ZM202.84 1019.71C203.609 1018.82 203.938 1017.66 203.938 1016.36H201.938C201.938 1017.34 201.696 1017.98 201.326 1018.41L202.84 1019.71ZM202.938 1017.36H211.173V1015.36H202.938V1017.36ZM210.173 1016.36C210.173 1017.88 209.775 1019.24 208.985 1020.45L210.66 1021.54C211.671 1019.99 212.173 1018.26 212.173 1016.36H210.173ZM208.977 1020.46C208.224 1021.66 207.091 1022.63 205.525 1023.38L206.381 1025.18C208.235 1024.31 209.682 1023.09 210.669 1021.53L208.977 1020.46ZM205.532 1023.37C204.012 1024.08 202.167 1024.45 199.968 1024.45V1026.45C202.388 1026.45 204.534 1026.04 206.374 1025.19L205.532 1023.37ZM199.968 1024.45H199.293V1026.45H199.968V1024.45ZM199.293 1024.45C197.015 1024.45 194.999 1024.04 193.226 1023.23L192.4 1025.06C194.467 1025.99 196.77 1026.45 199.293 1026.45V1024.45ZM193.243 1023.24C191.51 1022.42 190.153 1021.25 189.147 1019.72L187.479 1020.83C188.693 1022.66 190.335 1024.07 192.383 1025.05L193.243 1023.24ZM189.158 1019.74C188.194 1018.21 187.693 1016.38 187.693 1014.2H185.693C185.693 1016.7 186.271 1018.92 187.467 1020.81L189.158 1019.74ZM187.693 1014.2V1012.8H185.693V1014.2H187.693ZM187.693 1012.8C187.693 1010.61 188.169 1008.79 189.078 1007.29L187.368 1006.26C186.236 1008.12 185.693 1010.32 185.693 1012.8H187.693ZM189.075 1007.3C190.02 1005.76 191.324 1004.6 193.012 1003.81L192.164 1002C190.131 1002.95 188.526 1004.37 187.371 1006.25L189.075 1007.3ZM193.023 1003.81C194.727 1002.98 196.704 1002.55 198.978 1002.55V1000.55C196.451 1000.55 194.168 1001.03 192.152 1002L193.023 1003.81ZM198.978 1002.55H200.103V1000.55H198.978V1002.55ZM199.338 1006C198.194 1006 197.197 1006.43 196.409 1007.26L197.857 1008.63C198.268 1008.2 198.742 1008 199.338 1008V1006ZM196.426 1007.24C195.633 1008.03 195.233 1009.02 195.233 1010.15H197.233C197.233 1009.54 197.433 1009.06 197.84 1008.65L196.426 1007.24ZM195.233 1010.15V1010.78H197.233V1010.15H195.233ZM196.233 1011.78H202.443V1009.78H196.233V1011.78ZM203.443 1010.78V1010.15H201.443V1010.78H203.443ZM203.443 1010.15C203.443 1009.02 203.043 1008.03 202.25 1007.24L200.836 1008.65C201.243 1009.06 201.443 1009.54 201.443 1010.15H203.443ZM202.267 1007.26C201.478 1006.43 200.482 1006 199.338 1006V1008C199.934 1008 200.407 1008.2 200.819 1008.63L202.267 1007.26ZM247.126 995.165L246.674 996.057L246.682 996.061L246.69 996.065L247.126 995.165ZM251.806 999.575L250.94 1000.07L250.943 1000.08L251.806 999.575ZM253.516 1006.77V1007.77H254.516V1006.77H253.516ZM244.651 1006.77H243.651V1007.77H244.651V1006.77ZM243.346 1001.91L242.652 1002.63L242.659 1002.64L242.665 1002.65L243.346 1001.91ZM236.731 1002L236.024 1001.3L236.024 1001.3L236.731 1002ZM236.731 1017.08L237.439 1016.37L237.439 1016.37L236.731 1017.08ZM243.751 1017.21L244.432 1017.95L244.433 1017.95L243.751 1017.21ZM245.056 1012.4V1011.4H244.056V1012.4H245.056ZM253.516 1012.4H254.516V1011.4H253.516V1012.4ZM251.851 1019.33L250.979 1018.84L250.974 1018.85L251.851 1019.33ZM247.351 1023.87L246.872 1023L246.872 1023L247.351 1023.87ZM232.276 1023.83L231.829 1024.72L231.834 1024.73L232.276 1023.83ZM227.146 1019.15L227.997 1018.62L227.997 1018.62L227.146 1019.15ZM227.146 1000.21L226.298 999.676L226.296 999.68L227.146 1000.21ZM232.276 995.39L231.805 994.508L231.805 994.508L232.276 995.39ZM240.466 994.68C242.821 994.68 244.882 995.147 246.674 996.057L247.579 994.273C245.471 993.203 243.092 992.68 240.466 992.68V994.68ZM246.69 996.065C248.483 996.934 249.896 998.261 250.94 1000.07L252.673 999.076C251.437 996.929 249.73 995.316 247.563 994.265L246.69 996.065ZM250.943 1000.08C251.973 1001.84 252.516 1004.06 252.516 1006.77H254.516C254.516 1003.79 253.92 1001.21 252.67 999.07L250.943 1000.08ZM253.516 1005.77H244.651V1007.77H253.516V1005.77ZM245.651 1006.77V1005.2H243.651V1006.77H245.651ZM245.651 1005.2C245.651 1003.59 245.134 1002.21 244.028 1001.18L242.665 1002.65C243.299 1003.24 243.651 1004.05 243.651 1005.2H245.651ZM244.041 1001.2C242.994 1000.19 241.671 999.7 240.151 999.7V1001.7C241.212 1001.7 242.019 1002.02 242.652 1002.63L244.041 1001.2ZM240.151 999.7H239.926V1001.7H240.151V999.7ZM239.926 999.7C238.408 999.7 237.087 1000.24 236.024 1001.3L237.439 1002.71C238.116 1002.03 238.924 1001.7 239.926 1001.7V999.7ZM236.024 1001.3C234.962 1002.36 234.426 1003.68 234.426 1005.2H236.426C236.426 1004.2 236.761 1003.39 237.439 1002.71L236.024 1001.3ZM234.426 1005.2V1013.88H236.426V1005.2H234.426ZM234.426 1013.88C234.426 1015.4 234.962 1016.72 236.024 1017.79L237.439 1016.37C236.761 1015.7 236.426 1014.89 236.426 1013.88H234.426ZM236.024 1017.79C237.087 1018.85 238.408 1019.39 239.926 1019.39V1017.39C238.924 1017.39 238.116 1017.05 237.439 1016.37L236.024 1017.79ZM239.926 1019.39H240.556V1017.39H239.926V1019.39ZM240.556 1019.39C242.065 1019.39 243.383 1018.92 244.432 1017.95L243.071 1016.48C242.44 1017.07 241.628 1017.39 240.556 1017.39V1019.39ZM244.433 1017.95C245.544 1016.91 246.056 1015.52 246.056 1013.88H244.056C244.056 1015.07 243.699 1015.9 243.07 1016.48L244.433 1017.95ZM246.056 1013.88V1012.4H244.056V1013.88H246.056ZM245.056 1013.4H253.516V1011.4H245.056V1013.4ZM252.516 1012.4C252.516 1014.9 251.993 1017.03 250.979 1018.84L252.724 1019.82C253.93 1017.67 254.516 1015.18 254.516 1012.4H252.516ZM250.974 1018.85C249.982 1020.67 248.618 1022.04 246.872 1023L247.831 1024.75C249.925 1023.61 251.561 1021.95 252.729 1019.81L250.974 1018.85ZM246.872 1023C245.114 1023.96 243.108 1024.45 240.826 1024.45V1026.45C243.405 1026.45 245.748 1025.89 247.831 1024.75L246.872 1023ZM240.826 1024.45H239.566V1026.45H240.826V1024.45ZM239.566 1024.45C237.035 1024.45 234.759 1023.94 232.719 1022.93L231.834 1024.73C234.174 1025.88 236.758 1026.45 239.566 1026.45V1024.45ZM232.724 1022.94C230.729 1021.94 229.159 1020.51 227.997 1018.62L226.296 1019.68C227.654 1021.87 229.504 1023.56 231.829 1024.72L232.724 1022.94ZM227.997 1018.62C226.849 1016.77 226.256 1014.55 226.256 1011.95H224.256C224.256 1014.87 224.924 1017.45 226.296 1019.68L227.997 1018.62ZM226.256 1011.95V1007.18H224.256V1011.95H226.256ZM226.256 1007.18C226.256 1004.74 226.843 1002.6 227.997 1000.73L226.296 999.68C224.93 1001.89 224.256 1004.4 224.256 1007.18H226.256ZM227.995 1000.73C229.193 998.811 230.774 997.328 232.748 996.272L231.805 994.508C229.519 995.732 227.679 997.459 226.298 999.676L227.995 1000.73ZM232.748 996.272C234.729 995.212 236.876 994.68 239.206 994.68V992.68C236.557 992.68 234.084 993.288 231.805 994.508L232.748 996.272ZM239.206 994.68H240.466V992.68H239.206V994.68ZM277.934 1003.58L277.341 1004.38L277.347 1004.39L277.934 1003.58ZM281.129 1019.6L280.422 1020.31L280.422 1020.31L281.129 1019.6ZM283.694 1019.6H284.694V1017.89L283.204 1018.73L283.694 1019.6ZM283.694 1024.41L284.278 1025.23L284.694 1024.93V1024.41H283.694ZM274.604 1024.5L274.093 1025.36L274.102 1025.37L274.111 1025.37L274.604 1024.5ZM272.534 1021.8L273.507 1021.57L273.057 1019.67L271.778 1021.15L272.534 1021.8ZM269.339 1024.46L268.848 1023.59L268.838 1023.59L269.339 1024.46ZM259.259 1024.05L259.786 1023.21L259.259 1024.05ZM258.764 1013.79L259.453 1014.52L259.462 1014.51L258.764 1013.79ZM263.759 1011.45L263.95 1012.44L263.96 1012.43L263.759 1011.45ZM272.084 1010.78V1011.78H273.084V1010.78H272.084ZM271.229 1007.49L270.565 1008.24L270.575 1008.25L270.585 1008.26L271.229 1007.49ZM267.179 1007.4L267.724 1008.24L267.734 1008.24L267.179 1007.4ZM266.279 1009.07V1010.07H267.279V1009.07H266.279ZM257.729 1009.07L256.781 1009.39L257.008 1010.07H257.729V1009.07ZM258.989 1004.97L258.23 1004.32L258.228 1004.33L258.989 1004.97ZM262.769 1002.5L263.117 1003.44L263.126 1003.43L262.769 1002.5ZM272.084 1014.87H273.084V1013.87H272.084V1014.87ZM267.719 1015.68L268.2 1016.56L268.211 1016.56L268.221 1016.55L267.719 1015.68ZM271.184 1019.15L271.873 1019.87L271.882 1019.87L271.891 1019.86L271.184 1019.15ZM269.969 1002.55C273.342 1002.55 275.752 1003.21 277.341 1004.38L278.528 1002.78C276.456 1001.25 273.556 1000.55 269.969 1000.55V1002.55ZM277.347 1004.39C278.967 1005.57 279.724 1007.03 279.724 1008.84H281.724C281.724 1006.34 280.621 1004.29 278.522 1002.77L277.347 1004.39ZM279.724 1008.84V1018.34H281.724V1008.84H279.724ZM279.724 1018.34C279.724 1019.05 279.889 1019.77 280.422 1020.31L281.836 1018.89C281.829 1018.89 281.724 1018.77 281.724 1018.34H279.724ZM280.422 1020.31C280.884 1020.77 281.47 1021 282.119 1021V1019C281.988 1019 281.914 1018.97 281.836 1018.89L280.422 1020.31ZM282.119 1021C282.855 1021 283.549 1020.83 284.184 1020.47L283.204 1018.73C282.879 1018.91 282.524 1019 282.119 1019V1021ZM282.694 1019.6V1024.41H284.694V1019.6H282.694ZM283.111 1023.6C282.407 1024.11 281.149 1024.45 279.149 1024.45V1026.45C281.289 1026.45 283.062 1026.1 284.278 1025.23L283.111 1023.6ZM279.149 1024.45C277.322 1024.45 276 1024.15 275.098 1023.64L274.111 1025.37C275.428 1026.12 277.137 1026.45 279.149 1026.45V1024.45ZM275.115 1023.65C274.212 1023.11 273.708 1022.42 273.507 1021.57L271.561 1022.04C271.9 1023.47 272.777 1024.58 274.093 1025.36L275.115 1023.65ZM271.778 1021.15C270.886 1022.18 269.909 1022.99 268.848 1023.59L269.831 1025.33C271.11 1024.61 272.262 1023.65 273.291 1022.46L271.778 1021.15ZM268.838 1023.59C267.887 1024.15 266.661 1024.45 265.109 1024.45V1026.45C266.918 1026.45 268.512 1026.09 269.84 1025.33L268.838 1023.59ZM265.109 1024.45C262.831 1024.45 261.081 1024.01 259.786 1023.21L258.732 1024.9C260.438 1025.96 262.588 1026.45 265.109 1026.45V1024.45ZM259.786 1023.21C258.718 1022.54 258.009 1021.15 258.009 1018.56H256.009C256.009 1021.44 256.801 1023.71 258.732 1024.9L259.786 1023.21ZM258.009 1018.56C258.009 1016.69 258.534 1015.39 259.452 1014.52L258.076 1013.07C256.654 1014.42 256.009 1016.3 256.009 1018.56H258.009ZM259.462 1014.51C260.452 1013.55 261.917 1012.83 263.95 1012.44L263.568 1010.47C261.282 1010.92 259.417 1011.76 258.066 1013.08L259.462 1014.51ZM263.96 1012.43C266.06 1012 268.762 1011.78 272.084 1011.78V1009.78C268.687 1009.78 265.838 1010.01 263.558 1010.48L263.96 1012.43ZM273.084 1010.78V1009.47H271.084V1010.78H273.084ZM273.084 1009.47C273.084 1008.38 272.699 1007.43 271.873 1006.73L270.585 1008.26C270.899 1008.52 271.084 1008.89 271.084 1009.47H273.084ZM271.894 1006.75C271.141 1006.08 270.202 1005.77 269.159 1005.77V1007.77C269.797 1007.77 270.237 1007.95 270.565 1008.24L271.894 1006.75ZM269.159 1005.77C268.253 1005.77 267.402 1006.05 266.624 1006.57L267.734 1008.24C268.216 1007.92 268.686 1007.77 269.159 1007.77V1005.77ZM266.634 1006.57C265.814 1007.1 265.279 1007.88 265.279 1008.89H267.279C267.279 1008.7 267.345 1008.49 267.724 1008.24L266.634 1006.57ZM265.279 1008.89V1009.07H267.279V1008.89H265.279ZM266.279 1008.07H257.729V1010.07H266.279V1008.07ZM258.678 1008.75C258.696 1008.81 258.7 1008.84 258.698 1008.83C258.698 1008.83 258.695 1008.81 258.693 1008.77C258.688 1008.7 258.684 1008.59 258.684 1008.44H256.684C256.684 1008.62 256.688 1008.78 256.698 1008.92C256.706 1009.03 256.723 1009.21 256.781 1009.39L258.678 1008.75ZM258.684 1008.44C258.684 1007.4 259.028 1006.47 259.75 1005.62L258.228 1004.33C257.211 1005.52 256.684 1006.9 256.684 1008.44H258.684ZM259.748 1005.63C260.513 1004.73 261.617 1003.99 263.117 1003.44L262.422 1001.56C260.682 1002.21 259.265 1003.12 258.23 1004.32L259.748 1005.63ZM263.126 1003.43C264.64 1002.86 266.42 1002.55 268.484 1002.55V1000.55C266.229 1000.55 264.199 1000.88 262.412 1001.57L263.126 1003.43ZM268.484 1002.55H269.969V1000.55H268.484V1002.55ZM272.084 1013.87C270.054 1013.87 268.38 1014.14 267.217 1014.82L268.221 1016.55C268.918 1016.15 270.155 1015.87 272.084 1015.87V1013.87ZM267.238 1014.81C266.043 1015.46 265.324 1016.49 265.324 1017.84H267.324C267.324 1017.34 267.536 1016.93 268.2 1016.56L267.238 1014.81ZM265.324 1017.84C265.324 1018.79 265.629 1019.65 266.375 1020.25C267.077 1020.81 268.017 1021 269.024 1021V1019C268.231 1019 267.821 1018.84 267.624 1018.68C267.469 1018.56 267.324 1018.34 267.324 1017.84H265.324ZM269.024 1021C270.116 1021 271.084 1020.62 271.873 1019.87L270.495 1018.42C270.084 1018.82 269.612 1019 269.024 1019V1021ZM271.891 1019.86C272.698 1019.05 273.084 1018.02 273.084 1016.85H271.084C271.084 1017.55 270.871 1018.05 270.477 1018.44L271.891 1019.86ZM273.084 1016.85V1014.87H271.084V1016.85H273.084ZM306.33 1002.86L305.821 1003.72L305.829 1003.73L306.33 1002.86ZM309.84 1006.82L308.937 1007.25L308.941 1007.26L308.946 1007.27L309.84 1006.82ZM309.975 1020.23L309.06 1019.83L309.057 1019.83L309.975 1020.23ZM306.87 1024.14L306.32 1023.31L306.311 1023.32L306.87 1024.14ZM296.52 1022.61L297.377 1022.1L295.52 1019.02V1022.61H296.52ZM296.52 1033.15V1034.15H297.52V1033.15H296.52ZM287.61 1033.15H286.61V1034.15H287.61V1033.15ZM287.61 1002V1001H286.61V1002H287.61ZM294.72 1002L295.677 1001.71L295.461 1001H294.72V1002ZM295.53 1004.66L294.574 1004.95L295.14 1006.81L296.323 1005.27L295.53 1004.66ZM297.33 1007.94L298.074 1008.61L298.082 1008.6L298.09 1008.6L297.33 1007.94ZM297.33 1018.92L296.571 1019.58L296.579 1019.58L296.587 1019.59L297.33 1018.92ZM301.29 1018.92L302.034 1019.59L302.042 1019.58L302.05 1019.58L301.29 1018.92ZM301.29 1007.94L300.531 1008.6L300.539 1008.6L300.547 1008.61L301.29 1007.94ZM301.335 1002.55C303.033 1002.55 304.519 1002.95 305.821 1003.72L306.84 1002C305.202 1001.03 303.358 1000.55 301.335 1000.55V1002.55ZM305.829 1003.73C307.131 1004.48 308.172 1005.64 308.937 1007.25L310.744 1006.39C309.829 1004.46 308.529 1002.98 306.832 1001.99L305.829 1003.73ZM308.946 1007.27C309.728 1008.83 310.145 1010.81 310.145 1013.25H312.145C312.145 1010.6 311.692 1008.29 310.735 1006.37L308.946 1007.27ZM310.145 1013.25V1013.75H312.145V1013.25H310.145ZM310.145 1013.75C310.145 1016.2 309.769 1018.22 309.06 1019.83L310.89 1020.63C311.741 1018.7 312.145 1016.4 312.145 1013.75H310.145ZM309.057 1019.83C308.369 1021.43 307.447 1022.57 306.32 1023.31L307.421 1024.98C308.933 1023.98 310.082 1022.51 310.894 1020.63L309.057 1019.83ZM306.311 1023.32C305.197 1024.07 303.924 1024.45 302.46 1024.45V1026.45C304.297 1026.45 305.964 1025.96 307.429 1024.97L306.311 1023.32ZM302.46 1024.45C299.879 1024.45 298.285 1023.6 297.377 1022.1L295.664 1023.13C297.036 1025.41 299.401 1026.45 302.46 1026.45V1024.45ZM295.52 1022.61V1033.15H297.52V1022.61H295.52ZM296.52 1032.15H287.61V1034.15H296.52V1032.15ZM288.61 1033.15V1002H286.61V1033.15H288.61ZM287.61 1003H294.72V1001H287.61V1003ZM293.764 1002.3L294.574 1004.95L296.487 1004.37L295.677 1001.71L293.764 1002.3ZM296.323 1005.27C297.755 1003.41 299.414 1002.55 301.335 1002.55V1000.55C298.697 1000.55 296.485 1001.77 294.737 1004.05L296.323 1005.27ZM299.31 1006C298.218 1006 297.287 1006.46 296.571 1007.29L298.09 1008.6C298.453 1008.17 298.843 1008 299.31 1008V1006ZM296.587 1007.28C295.868 1008.07 295.52 1009.05 295.52 1010.15H297.52C297.52 1009.51 297.712 1009.02 298.074 1008.61L296.587 1007.28ZM295.52 1010.15V1016.67H297.52V1010.15H295.52ZM295.52 1016.67C295.52 1017.77 295.868 1018.76 296.571 1019.58L298.09 1018.27C297.713 1017.83 297.52 1017.32 297.52 1016.67H295.52ZM296.587 1019.59C297.309 1020.4 298.236 1020.82 299.31 1020.82V1018.82C298.825 1018.82 298.431 1018.65 298.074 1018.26L296.587 1019.59ZM299.31 1020.82C300.385 1020.82 301.311 1020.4 302.034 1019.59L300.547 1018.26C300.189 1018.65 299.796 1018.82 299.31 1018.82V1020.82ZM302.05 1019.58C302.753 1018.76 303.1 1017.77 303.1 1016.67H301.1C301.1 1017.32 300.908 1017.83 300.531 1018.27L302.05 1019.58ZM303.1 1016.67V1010.15H301.1V1016.67H303.1ZM303.1 1010.15C303.1 1009.05 302.752 1008.07 302.034 1007.28L300.547 1008.61C300.908 1009.02 301.1 1009.51 301.1 1010.15H303.1ZM302.05 1007.29C301.333 1006.46 300.403 1006 299.31 1006V1008C299.778 1008 300.167 1008.17 300.531 1008.6L302.05 1007.29ZM324.852 999.035V1000.03H325.852V999.035H324.852ZM315.987 999.035H314.987V1000.03H315.987V999.035ZM315.987 992.6V991.6H314.987V992.6H315.987ZM324.852 992.6H325.852V991.6H324.852V992.6ZM324.852 1025V1026H325.852V1025H324.852ZM315.987 1025H314.987V1026H315.987V1025ZM315.987 1002.05V1001.05H314.987V1002.05H315.987ZM324.852 1002.05H325.852V1001.05H324.852V1002.05ZM324.852 998.035H315.987V1000.03H324.852V998.035ZM316.987 999.035V992.6H314.987V999.035H316.987ZM315.987 993.6H324.852V991.6H315.987V993.6ZM323.852 992.6V999.035H325.852V992.6H323.852ZM324.852 1024H315.987V1026H324.852V1024ZM316.987 1025V1002.05H314.987V1025H316.987ZM315.987 1003.05H324.852V1001.05H315.987V1003.05ZM323.852 1002.05V1025H325.852V1002.05H323.852ZM340.911 1002H339.911V1003H340.911V1002ZM346.311 1002H347.311V1001H346.311V1002ZM346.311 1008.39V1009.39H347.311V1008.39H346.311ZM340.911 1008.39V1007.39H339.911V1008.39H340.911ZM341.586 1019.38L340.879 1020.08L340.902 1020.11L340.928 1020.13L341.586 1019.38ZM344.871 1019.87L345.027 1020.86L345.047 1020.85L345.067 1020.85L344.871 1019.87ZM346.266 1019.46H347.266V1017.91L345.852 1018.55L346.266 1019.46ZM346.266 1024.5L346.665 1025.42L347.266 1025.16V1024.5H346.266ZM343.386 1025.23L343.241 1024.24L343.386 1025.23ZM334.116 1024.05L333.553 1024.88L333.561 1024.89L334.116 1024.05ZM332.001 1008.39H333.001V1007.39H332.001V1008.39ZM329.481 1008.39H328.481V1009.39H329.481V1008.39ZM329.481 1002V1001H328.481V1002H329.481ZM332.361 1002V1003H333.024L333.282 1002.39L332.361 1002ZM335.466 994.67V993.67H334.803L334.545 994.28L335.466 994.67ZM340.911 994.67H341.911V993.67H340.911V994.67ZM340.911 1003H346.311V1001H340.911V1003ZM345.311 1002V1008.39H347.311V1002H345.311ZM346.311 1007.39H340.911V1009.39H346.311V1007.39ZM339.911 1008.39V1016.9H341.911V1008.39H339.911ZM339.911 1016.9C339.911 1018.16 340.132 1019.34 340.879 1020.08L342.293 1018.67C342.14 1018.51 341.911 1018.04 341.911 1016.9H339.911ZM340.928 1020.13C341.628 1020.74 342.51 1021 343.476 1021V1019C342.882 1019 342.504 1018.85 342.245 1018.62L340.928 1020.13ZM343.476 1021C343.91 1021 344.432 1020.95 345.027 1020.86L344.715 1018.88C344.17 1018.97 343.762 1019 343.476 1019V1021ZM345.067 1020.85C345.698 1020.72 346.249 1020.57 346.68 1020.38L345.852 1018.55C345.623 1018.66 345.244 1018.78 344.675 1018.89L345.067 1020.85ZM345.266 1019.46V1024.5H347.266V1019.46H345.266ZM345.867 1023.59C345.294 1023.84 344.433 1024.06 343.241 1024.24L343.531 1026.21C344.799 1026.03 345.858 1025.77 346.665 1025.42L345.867 1023.59ZM343.241 1024.24C342.041 1024.41 341.042 1024.5 340.236 1024.5V1026.5C341.17 1026.5 342.271 1026.4 343.531 1026.21L343.241 1024.24ZM340.236 1024.5C337.697 1024.5 335.881 1024.03 334.671 1023.22L333.561 1024.89C335.231 1026 337.495 1026.5 340.236 1026.5V1024.5ZM334.679 1023.23C333.634 1022.52 333.001 1021.26 333.001 1019.15H331.001C331.001 1021.66 331.778 1023.67 333.553 1024.88L334.679 1023.23ZM333.001 1019.15V1008.39H331.001V1019.15H333.001ZM332.001 1007.39H329.481V1009.39H332.001V1007.39ZM330.481 1008.39V1002H328.481V1008.39H330.481ZM329.481 1003H332.361V1001H329.481V1003ZM333.282 1002.39L336.387 995.06L334.545 994.28L331.44 1001.62L333.282 1002.39ZM335.466 995.67H340.911V993.67H335.466V995.67ZM339.911 994.67V1002H341.911V994.67H339.911ZM370.654 1003.58L370.06 1004.38L370.066 1004.39L370.654 1003.58ZM373.849 1019.6L373.141 1020.31L373.141 1020.31L373.849 1019.6ZM376.414 1019.6H377.414V1017.89L375.923 1018.73L376.414 1019.6ZM376.414 1024.41L376.997 1025.23L377.414 1024.93V1024.41H376.414ZM367.324 1024.5L366.812 1025.36L366.821 1025.37L366.83 1025.37L367.324 1024.5ZM365.254 1021.8L366.227 1021.57L365.776 1019.67L364.497 1021.15L365.254 1021.8ZM362.059 1024.46L361.567 1023.59L361.557 1023.59L362.059 1024.46ZM351.979 1024.05L352.505 1023.21L351.979 1024.05ZM351.484 1013.79L352.172 1014.52L352.181 1014.51L351.484 1013.79ZM356.479 1011.45L356.669 1012.44L356.68 1012.43L356.479 1011.45ZM364.804 1010.78V1011.78H365.804V1010.78H364.804ZM363.949 1007.49L363.284 1008.24L363.294 1008.25L363.304 1008.26L363.949 1007.49ZM359.899 1007.4L360.444 1008.24L360.453 1008.24L359.899 1007.4ZM358.999 1009.07V1010.07H359.999V1009.07H358.999ZM350.449 1009.07L349.5 1009.39L349.728 1010.07H350.449V1009.07ZM351.709 1004.97L350.949 1004.32L350.948 1004.33L351.709 1004.97ZM355.489 1002.5L355.836 1003.44L355.845 1003.43L355.489 1002.5ZM364.804 1014.87H365.804V1013.87H364.804V1014.87ZM360.439 1015.68L360.919 1016.56L360.93 1016.56L360.941 1016.55L360.439 1015.68ZM363.904 1019.15L364.592 1019.87L364.602 1019.87L364.611 1019.86L363.904 1019.15ZM362.689 1002.55C366.062 1002.55 368.471 1003.21 370.06 1004.38L371.247 1002.78C369.176 1001.25 366.276 1000.55 362.689 1000.55V1002.55ZM370.066 1004.39C371.686 1005.57 372.444 1007.03 372.444 1008.84H374.444C374.444 1006.34 373.341 1004.29 371.241 1002.77L370.066 1004.39ZM372.444 1008.84V1018.34H374.444V1008.84H372.444ZM372.444 1018.34C372.444 1019.05 372.609 1019.77 373.141 1020.31L374.556 1018.89C374.548 1018.89 374.444 1018.77 374.444 1018.34H372.444ZM373.141 1020.31C373.603 1020.77 374.19 1021 374.839 1021V1019C374.707 1019 374.634 1018.97 374.556 1018.89L373.141 1020.31ZM374.839 1021C375.574 1021 376.269 1020.83 376.904 1020.47L375.923 1018.73C375.598 1018.91 375.243 1019 374.839 1019V1021ZM375.414 1019.6V1024.41H377.414V1019.6H375.414ZM375.83 1023.6C375.126 1024.11 373.868 1024.45 371.869 1024.45V1026.45C374.009 1026.45 375.781 1026.1 376.997 1025.23L375.83 1023.6ZM371.869 1024.45C370.041 1024.45 368.719 1024.15 367.817 1023.64L366.83 1025.37C368.148 1026.12 369.856 1026.45 371.869 1026.45V1024.45ZM367.835 1023.65C366.931 1023.11 366.427 1022.42 366.227 1021.57L364.28 1022.04C364.62 1023.47 365.496 1024.58 366.812 1025.36L367.835 1023.65ZM364.497 1021.15C363.605 1022.18 362.628 1022.99 361.567 1023.59L362.55 1025.33C363.829 1024.61 364.982 1023.65 366.01 1022.46L364.497 1021.15ZM361.557 1023.59C360.606 1024.15 359.38 1024.45 357.829 1024.45V1026.45C359.637 1026.45 361.231 1026.09 362.56 1025.33L361.557 1023.59ZM357.829 1024.45C355.55 1024.45 353.8 1024.01 352.505 1023.21L351.452 1024.9C353.157 1025.96 355.307 1026.45 357.829 1026.45V1024.45ZM352.505 1023.21C351.437 1022.54 350.729 1021.15 350.729 1018.56H348.729C348.729 1021.44 349.52 1023.71 351.452 1024.9L352.505 1023.21ZM350.729 1018.56C350.729 1016.69 351.253 1015.39 352.172 1014.52L350.795 1013.07C349.374 1014.42 348.729 1016.3 348.729 1018.56H350.729ZM352.181 1014.51C353.171 1013.55 354.636 1012.83 356.669 1012.44L356.288 1010.47C354.001 1010.92 352.136 1011.76 350.786 1013.08L352.181 1014.51ZM356.68 1012.43C358.779 1012 361.481 1011.78 364.804 1011.78V1009.78C361.406 1009.78 358.558 1010.01 356.277 1010.48L356.68 1012.43ZM365.804 1010.78V1009.47H363.804V1010.78H365.804ZM365.804 1009.47C365.804 1008.38 365.419 1007.43 364.593 1006.73L363.304 1008.26C363.618 1008.52 363.804 1008.89 363.804 1009.47H365.804ZM364.613 1006.75C363.861 1006.08 362.921 1005.77 361.879 1005.77V1007.77C362.516 1007.77 362.957 1007.95 363.284 1008.24L364.613 1006.75ZM361.879 1005.77C360.972 1005.77 360.121 1006.05 359.344 1006.57L360.453 1008.24C360.936 1007.92 361.405 1007.77 361.879 1007.77V1005.77ZM359.354 1006.57C358.533 1007.1 357.999 1007.88 357.999 1008.89H359.999C359.999 1008.7 360.064 1008.49 360.444 1008.24L359.354 1006.57ZM357.999 1008.89V1009.07H359.999V1008.89H357.999ZM358.999 1008.07H350.449V1010.07H358.999V1008.07ZM351.397 1008.75C351.415 1008.81 351.419 1008.84 351.418 1008.83C351.417 1008.83 351.415 1008.81 351.412 1008.77C351.407 1008.7 351.404 1008.59 351.404 1008.44H349.404C349.404 1008.62 349.407 1008.78 349.417 1008.92C349.425 1009.03 349.442 1009.21 349.5 1009.39L351.397 1008.75ZM351.404 1008.44C351.404 1007.4 351.747 1006.47 352.469 1005.62L350.948 1004.33C349.93 1005.52 349.404 1006.9 349.404 1008.44H351.404ZM352.468 1005.63C353.233 1004.73 354.336 1003.99 355.836 1003.44L355.141 1001.56C353.401 1002.21 351.984 1003.12 350.949 1004.32L352.468 1005.63ZM355.845 1003.43C357.359 1002.86 359.139 1002.55 361.204 1002.55V1000.55C358.948 1000.55 356.918 1000.88 355.132 1001.57L355.845 1003.43ZM361.204 1002.55H362.689V1000.55H361.204V1002.55ZM364.804 1013.87C362.773 1013.87 361.1 1014.14 359.936 1014.82L360.941 1016.55C361.637 1016.15 362.874 1015.87 364.804 1015.87V1013.87ZM359.958 1014.81C358.762 1015.46 358.044 1016.49 358.044 1017.84H360.044C360.044 1017.34 360.255 1016.93 360.919 1016.56L359.958 1014.81ZM358.044 1017.84C358.044 1018.79 358.349 1019.65 359.094 1020.25C359.797 1020.81 360.737 1021 361.744 1021V1019C360.95 1019 360.541 1018.84 360.343 1018.68C360.189 1018.56 360.044 1018.34 360.044 1017.84H358.044ZM361.744 1021C362.836 1021 363.803 1020.62 364.592 1019.87L363.215 1018.42C362.804 1018.82 362.331 1019 361.744 1019V1021ZM364.611 1019.86C365.417 1019.05 365.804 1018.02 365.804 1016.85H363.804C363.804 1017.55 363.59 1018.05 363.196 1018.44L364.611 1019.86ZM365.804 1016.85V1014.87H363.804V1016.85H365.804ZM389.24 992.6H390.24V991.6H389.24V992.6ZM389.24 1025V1026H390.24V1025H389.24ZM380.33 1025H379.33V1026H380.33V1025ZM380.33 992.6V991.6H379.33V992.6H380.33ZM388.24 992.6V1025H390.24V992.6H388.24ZM389.24 1024H380.33V1026H389.24V1024ZM381.33 1025V992.6H379.33V1025H381.33ZM380.33 993.6H389.24V991.6H380.33V993.6ZM423 994.805L422.58 995.712L422.586 995.715L423 994.805ZM426.825 997.865L426.005 998.437L426.013 998.448L426.021 998.459L426.825 997.865ZM427.05 1006.23L426.206 1005.7L426.202 1005.7L427.05 1006.23ZM423.945 1008.84L423.567 1007.92L421.111 1008.92L423.619 1009.79L423.945 1008.84ZM427.77 1011.68L426.944 1012.24L426.944 1012.24L427.77 1011.68ZM427.725 1021.04L426.902 1020.47L426.897 1020.48L426.893 1020.49L427.725 1021.04ZM423.72 1024.28L424.123 1025.2L424.136 1025.19L423.72 1024.28ZM409.23 1024.28L408.814 1025.19L408.827 1025.2L409.23 1024.28ZM405.18 1021.04L404.348 1021.59L404.352 1021.6L404.357 1021.61L405.18 1021.04ZM403.83 1015.59V1014.59H402.83V1015.59H403.83ZM411.75 1015.59H412.75V1014.59H411.75V1015.59ZM412.65 1017.89L411.943 1018.6L411.952 1018.61L411.961 1018.61L412.65 1017.89ZM419.22 1017.8L418.513 1017.09L418.504 1017.1L418.496 1017.11L419.22 1017.8ZM419.265 1012.85L418.558 1013.56L418.577 1013.58L418.596 1013.59L419.265 1012.85ZM412.335 1011.99H411.335V1012.99H412.335V1011.99ZM412.335 1006.46V1005.46H411.335V1006.46H412.335ZM418.545 1005.65L419.233 1006.38L419.234 1006.37L418.545 1005.65ZM418.5 1001.24L417.811 1001.96L417.83 1001.98L417.849 1002L418.5 1001.24ZM413.235 1001.24L413.904 1001.98L413.906 1001.98L413.235 1001.24ZM412.335 1003.22V1004.22H413.335V1003.22H412.335ZM404.82 1003.22H403.82V1004.22H404.82V1003.22ZM406.215 997.865L407.02 998.459L407.026 998.45L406.215 997.865ZM410.175 994.805L410.577 995.721L410.577 995.721L410.175 994.805ZM417.42 994.68C419.4 994.68 421.113 995.033 422.58 995.712L423.42 993.898C421.647 993.077 419.64 992.68 417.42 992.68V994.68ZM422.586 995.715C424.098 996.403 425.222 997.316 426.005 998.437L427.645 997.293C426.628 995.834 425.202 994.707 423.414 993.895L422.586 995.715ZM426.021 998.459C426.827 999.551 427.22 1000.74 427.22 1002.05H429.22C429.22 1000.3 428.683 998.699 427.63 997.271L426.021 998.459ZM427.22 1002.05C427.22 1003.43 426.877 1004.64 426.206 1005.7L427.895 1006.77C428.784 1005.37 429.22 1003.79 429.22 1002.05H427.22ZM426.202 1005.7C425.564 1006.73 424.694 1007.46 423.567 1007.92L424.324 1009.77C425.836 1009.15 427.036 1008.14 427.898 1006.76L426.202 1005.7ZM423.619 1009.79C425.085 1010.3 426.176 1011.12 426.944 1012.24L428.596 1011.12C427.564 1009.6 426.105 1008.53 424.272 1007.9L423.619 1009.79ZM426.944 1012.24C427.711 1013.37 428.12 1014.77 428.12 1016.49H430.12C430.12 1014.44 429.629 1012.63 428.596 1011.12L426.944 1012.24ZM428.12 1016.49C428.12 1017.98 427.714 1019.29 426.902 1020.47L428.549 1021.61C429.597 1020.09 430.12 1018.37 430.12 1016.49H428.12ZM426.893 1020.49C426.115 1021.65 424.939 1022.62 423.304 1023.37L424.136 1025.19C426.041 1024.32 427.535 1023.13 428.557 1021.59L426.893 1020.49ZM423.317 1023.36C421.702 1024.08 419.746 1024.45 417.42 1024.45V1026.45C419.955 1026.45 422.198 1026.04 424.123 1025.2L423.317 1023.36ZM417.42 1024.45H415.53V1026.45H417.42V1024.45ZM415.53 1024.45C413.205 1024.45 411.248 1024.08 409.633 1023.36L408.827 1025.2C410.752 1026.04 412.996 1026.45 415.53 1026.45V1024.45ZM409.646 1023.37C408.009 1022.62 406.813 1021.65 406.004 1020.47L404.357 1021.61C405.407 1023.13 406.911 1024.32 408.814 1025.19L409.646 1023.37ZM406.012 1020.49C405.224 1019.3 404.83 1018 404.83 1016.54H402.83C402.83 1018.38 403.337 1020.08 404.348 1021.59L406.012 1020.49ZM404.83 1016.54V1015.59H402.83V1016.54H404.83ZM403.83 1016.59H411.75V1014.59H403.83V1016.59ZM410.75 1015.59C410.75 1016.76 411.137 1017.79 411.943 1018.6L413.357 1017.18C412.964 1016.79 412.75 1016.29 412.75 1015.59H410.75ZM411.961 1018.61C412.816 1019.43 414.008 1019.74 415.35 1019.74V1017.74C414.292 1017.74 413.684 1017.49 413.339 1017.17L411.961 1018.61ZM415.35 1019.74H416.565V1017.74H415.35V1019.74ZM416.565 1019.74C417.911 1019.74 419.097 1019.38 419.944 1018.49L418.496 1017.11C418.143 1017.48 417.559 1017.74 416.565 1017.74V1019.74ZM419.927 1018.51C420.783 1017.65 421.165 1016.52 421.165 1015.23H419.165C419.165 1016.11 418.917 1016.69 418.513 1017.09L419.927 1018.51ZM421.165 1015.23C421.165 1013.99 420.804 1012.89 419.934 1012.11L418.596 1013.59C418.927 1013.89 419.165 1014.38 419.165 1015.23H421.165ZM419.972 1012.14C419.186 1011.36 418.166 1010.99 417.015 1010.99V1012.99C417.724 1012.99 418.205 1013.2 418.558 1013.56L419.972 1012.14ZM417.015 1010.99H412.335V1012.99H417.015V1010.99ZM413.335 1011.99V1006.46H411.335V1011.99H413.335ZM412.335 1007.46H416.295V1005.46H412.335V1007.46ZM416.295 1007.46C417.431 1007.46 418.444 1007.12 419.233 1006.38L417.857 1004.92C417.507 1005.26 417.02 1005.46 416.295 1005.46V1007.46ZM419.234 1006.37C420.083 1005.57 420.445 1004.47 420.445 1003.22H418.445C418.445 1004.07 418.207 1004.59 417.856 1004.93L419.234 1006.37ZM420.445 1003.22C420.445 1002.13 419.987 1001.2 419.151 1000.48L417.849 1002C418.274 1002.36 418.445 1002.75 418.445 1003.22H420.445ZM419.189 1000.52C418.393 999.759 417.407 999.385 416.295 999.385V1001.38C416.923 1001.38 417.408 1001.58 417.811 1001.96L419.189 1000.52ZM416.295 999.385H415.485V1001.38H416.295V999.385ZM415.485 999.385C414.374 999.385 413.383 999.758 412.564 1000.5L413.906 1001.98C414.347 1001.58 414.857 1001.38 415.485 1001.38V999.385ZM412.566 1000.5C411.764 1001.22 411.335 1002.15 411.335 1003.22H413.335C413.335 1002.73 413.506 1002.34 413.904 1001.98L412.566 1000.5ZM412.335 1002.22H404.82V1004.22H412.335V1002.22ZM405.82 1003.22V1002.09H403.82V1003.22H405.82ZM405.82 1002.09C405.82 1000.75 406.216 999.548 407.02 998.459L405.411 997.271C404.354 998.702 403.82 1000.32 403.82 1002.09H405.82ZM407.026 998.45C407.835 997.328 409.002 996.412 410.577 995.721L409.773 993.889C407.929 994.698 406.455 995.822 405.404 997.28L407.026 998.45ZM410.577 995.721C412.139 995.036 413.963 994.68 416.07 994.68V992.68C413.738 992.68 411.632 993.074 409.773 993.889L410.577 995.721ZM416.07 994.68H417.42V992.68H416.07V994.68ZM452.351 995.21L451.838 996.069L451.847 996.074L451.856 996.079L452.351 995.21ZM456.446 999.305L455.577 999.8L455.582 999.808L455.587 999.817L456.446 999.305ZM456.446 1019.87L455.583 1019.36L455.58 1019.37L456.446 1019.87ZM452.351 1023.96L452.852 1024.83L452.856 1024.83L452.351 1023.96ZM439.031 1023.96L438.518 1024.82L438.527 1024.83L438.536 1024.83L439.031 1023.96ZM434.936 1019.87L434.067 1020.36L434.072 1020.37L434.077 1020.38L434.936 1019.87ZM434.936 999.305L434.073 998.799L434.07 998.804L434.936 999.305ZM439.031 995.21L439.532 996.075L439.536 996.073L439.031 995.21ZM443.306 1001.24L442.569 1000.56L442.567 1000.57L443.306 1001.24ZM443.306 1017.89L442.553 1018.55L442.568 1018.57L442.583 1018.58L443.306 1017.89ZM448.076 1017.89L447.339 1017.21L447.337 1017.22L448.076 1017.89ZM448.076 1001.24L447.323 1001.9L447.338 1001.92L447.353 1001.93L448.076 1001.24ZM446.726 994.68C448.59 994.68 450.287 995.144 451.838 996.069L452.863 994.351C450.994 993.236 448.941 992.68 446.726 992.68V994.68ZM451.856 996.079C453.44 996.98 454.675 998.216 455.577 999.8L457.315 998.81C456.236 996.914 454.742 995.42 452.845 994.341L451.856 996.079ZM455.587 999.817C456.512 1001.37 456.976 1003.07 456.976 1004.93H458.976C458.976 1002.71 458.419 1000.66 457.305 998.793L455.587 999.817ZM456.976 1004.93V1014.2H458.976V1004.93H456.976ZM456.976 1014.2C456.976 1016.06 456.512 1017.78 455.583 1019.36L457.308 1020.38C458.419 1018.48 458.976 1016.42 458.976 1014.2H456.976ZM455.58 1019.37C454.679 1020.93 453.439 1022.17 451.845 1023.1L452.856 1024.83C454.742 1023.72 456.233 1022.23 457.311 1020.37L455.58 1019.37ZM451.85 1023.1C450.297 1024 448.596 1024.45 446.726 1024.45V1026.45C448.936 1026.45 450.984 1025.91 452.852 1024.83L451.85 1023.1ZM446.726 1024.45H444.701V1026.45H446.726V1024.45ZM444.701 1024.45C442.831 1024.45 441.112 1024 439.525 1023.1L438.536 1024.83C440.43 1025.91 442.491 1026.45 444.701 1026.45V1024.45ZM439.543 1023.11C437.975 1022.17 436.73 1020.93 435.795 1019.36L434.077 1020.38C435.182 1022.23 436.666 1023.72 438.518 1024.82L439.543 1023.11ZM435.805 1019.38C434.902 1017.79 434.451 1016.07 434.451 1014.2H432.451C432.451 1016.41 432.989 1018.47 434.067 1020.36L435.805 1019.38ZM434.451 1014.2V1004.93H432.451V1014.2H434.451ZM434.451 1004.93C434.451 1003.06 434.902 1001.36 435.801 999.806L434.07 998.804C432.989 1000.67 432.451 1002.72 432.451 1004.93H434.451ZM435.798 999.811C436.733 998.217 437.975 996.977 439.532 996.075L438.53 994.345C436.667 995.423 435.179 996.913 434.073 998.799L435.798 999.811ZM439.536 996.073C441.121 995.144 442.836 994.68 444.701 994.68V992.68C442.485 992.68 440.42 993.236 438.525 994.347L439.536 996.073ZM444.701 994.68H446.726V992.68H444.701V994.68ZM445.736 999.16C444.49 999.16 443.414 999.642 442.569 1000.56L444.043 1001.92C444.517 1001.4 445.062 1001.16 445.736 1001.16V999.16ZM442.567 1000.57C441.758 1001.45 441.361 1002.54 441.361 1003.76H443.361C443.361 1003 443.593 1002.41 444.044 1001.91L442.567 1000.57ZM441.361 1003.76V1015.32H443.361V1003.76H441.361ZM441.361 1015.32C441.361 1016.55 441.758 1017.64 442.553 1018.55L444.058 1017.23C443.594 1016.7 443.361 1016.08 443.361 1015.32H441.361ZM442.583 1018.58C443.426 1019.46 444.48 1019.92 445.691 1019.92V1017.92C445.042 1017.92 444.505 1017.7 444.028 1017.2L442.583 1018.58ZM445.691 1019.92C446.923 1019.92 447.989 1019.47 448.814 1018.56L447.337 1017.22C446.903 1017.69 446.378 1017.92 445.691 1017.92V1019.92ZM448.813 1018.57C449.644 1017.66 450.066 1016.56 450.066 1015.32H448.066C448.066 1016.07 447.827 1016.68 447.339 1017.21L448.813 1018.57ZM450.066 1015.32V1003.76H448.066V1015.32H450.066ZM450.066 1003.76C450.066 1002.52 449.643 1001.43 448.798 1000.55L447.353 1001.93C447.828 1002.43 448.066 1003.02 448.066 1003.76H450.066ZM448.828 1000.58C448.015 999.652 446.963 999.16 445.736 999.16V1001.16C446.368 1001.16 446.877 1001.39 447.323 1001.9L448.828 1000.58ZM488.451 994.13L489.306 994.649L490.229 993.13H488.451V994.13ZM469.686 1025V1026H470.249L470.541 1025.52L469.686 1025ZM465.411 1025L464.558 1024.48L463.629 1026H465.411V1025ZM484.266 994.13V993.13H483.705L483.413 993.609L484.266 994.13ZM472.566 995.795L471.859 996.502L471.869 996.512L472.566 995.795ZM472.566 1008.21L471.869 1007.5L471.859 1007.51L472.566 1008.21ZM463.746 1008.21L464.453 1007.51L464.453 1007.51L463.746 1008.21ZM463.746 995.795L463.039 995.088L463.039 995.088L463.746 995.795ZM466.986 997.865L466.279 997.158L466.279 997.158L466.986 997.865ZM466.986 1006.1L466.279 1006.81L466.279 1006.81L466.986 1006.1ZM469.326 1006.1L468.619 1005.39L468.602 1005.41L468.586 1005.43L469.326 1006.1ZM469.326 997.865L468.586 998.538L468.602 998.555L468.619 998.572L469.326 997.865ZM490.116 1010.96L489.409 1011.67L489.419 1011.68L490.116 1010.96ZM491.016 1022.25L491.871 1022.77L491.875 1022.77L491.879 1022.76L491.016 1022.25ZM488.946 1024.28L488.441 1023.42L488.434 1023.42L488.427 1023.43L488.946 1024.28ZM481.296 1023.42L480.579 1024.12L480.589 1024.13L481.296 1023.42ZM484.536 1013.07L485.243 1013.78L485.259 1013.77L485.273 1013.75L484.536 1013.07ZM484.536 1021.31L483.799 1021.99L483.814 1022L483.829 1022.02L484.536 1021.31ZM486.876 1021.31L486.139 1020.63L486.136 1020.64L486.876 1021.31ZM486.876 1013.07L486.108 1013.72L486.137 1013.75L486.169 1013.78L486.876 1013.07ZM487.597 993.611L468.832 1024.48L470.541 1025.52L489.306 994.649L487.597 993.611ZM469.686 1024H465.411V1026H469.686V1024ZM466.265 1025.52L485.12 994.651L483.413 993.609L464.558 1024.48L466.265 1025.52ZM484.266 995.13H488.451V993.13H484.266V995.13ZM468.651 995.175C469.917 995.175 470.967 995.61 471.859 996.502L473.273 995.088C472.005 993.82 470.446 993.175 468.651 993.175V995.175ZM471.869 996.512C472.788 997.406 473.231 998.454 473.231 999.71H475.231C475.231 997.906 474.564 996.344 473.264 995.078L471.869 996.512ZM473.231 999.71V1004.3H475.231V999.71H473.231ZM473.231 1004.3C473.231 1005.56 472.788 1006.6 471.869 1007.5L473.264 1008.93C474.564 1007.67 475.231 1006.1 475.231 1004.3H473.231ZM471.859 1007.51C470.967 1008.4 469.917 1008.83 468.651 1008.83V1010.83C470.446 1010.83 472.005 1010.19 473.273 1008.92L471.859 1007.51ZM468.651 1008.83H467.661V1010.83H468.651V1008.83ZM467.661 1008.83C466.396 1008.83 465.345 1008.4 464.453 1007.51L463.039 1008.92C464.307 1010.19 465.867 1010.83 467.661 1010.83V1008.83ZM464.453 1007.51C463.561 1006.62 463.126 1005.57 463.126 1004.3H461.126C461.126 1006.09 461.771 1007.65 463.039 1008.92L464.453 1007.51ZM463.126 1004.3V999.71H461.126V1004.3H463.126ZM463.126 999.71C463.126 998.445 463.561 997.394 464.453 996.502L463.039 995.088C461.771 996.356 461.126 997.915 461.126 999.71H463.126ZM464.453 996.502C465.345 995.61 466.396 995.175 467.661 995.175V993.175C465.867 993.175 464.307 993.82 463.039 995.088L464.453 996.502ZM467.661 995.175H468.651V993.175H467.661V995.175ZM468.156 996.37C467.43 996.37 466.789 996.648 466.279 997.158L467.693 998.572C467.844 998.422 467.982 998.37 468.156 998.37V996.37ZM466.279 997.158C465.743 997.694 465.491 998.377 465.491 999.125H467.491C467.491 998.853 467.569 998.696 467.693 998.572L466.279 997.158ZM465.491 999.125V1004.84H467.491V999.125H465.491ZM465.491 1004.84C465.491 1005.59 465.743 1006.27 466.279 1006.81L467.693 1005.39C467.569 1005.27 467.491 1005.11 467.491 1004.84H465.491ZM466.279 1006.81C466.789 1007.32 467.43 1007.59 468.156 1007.59V1005.59C467.982 1005.59 467.844 1005.54 467.693 1005.39L466.279 1006.81ZM468.156 1007.59C468.894 1007.59 469.561 1007.33 470.066 1006.77L468.586 1005.43C468.491 1005.53 468.379 1005.59 468.156 1005.59V1007.59ZM470.033 1006.81C470.569 1006.27 470.821 1005.59 470.821 1004.84H468.821C468.821 1005.11 468.743 1005.27 468.619 1005.39L470.033 1006.81ZM470.821 1004.84V999.125H468.821V1004.84H470.821ZM470.821 999.125C470.821 998.377 470.569 997.694 470.033 997.158L468.619 998.572C468.743 998.696 468.821 998.853 468.821 999.125H470.821ZM470.066 997.192C469.561 996.637 468.894 996.37 468.156 996.37V998.37C468.379 998.37 468.491 998.433 468.586 998.538L470.066 997.192ZM486.201 1010.34C487.467 1010.34 488.517 1010.78 489.409 1011.67L490.823 1010.25C489.555 1008.98 487.996 1008.34 486.201 1008.34V1010.34ZM489.419 1011.68C490.338 1012.57 490.781 1013.62 490.781 1014.87H492.781C492.781 1013.07 492.114 1011.51 490.814 1010.24L489.419 1011.68ZM490.781 1014.87V1019.46H492.781V1014.87H490.781ZM490.781 1019.46C490.781 1020.27 490.575 1021.03 490.154 1021.75L491.879 1022.76C492.477 1021.74 492.781 1020.64 492.781 1019.46H490.781ZM490.161 1021.74C489.74 1022.43 489.171 1022.99 488.441 1023.42L489.452 1025.14C490.461 1024.55 491.273 1023.76 491.871 1022.77L490.161 1021.74ZM488.427 1023.43C487.745 1023.84 487.01 1024.05 486.201 1024.05V1026.05C487.373 1026.05 488.468 1025.74 489.465 1025.13L488.427 1023.43ZM486.201 1024.05H485.211V1026.05H486.201V1024.05ZM485.211 1024.05C483.946 1024.05 482.895 1023.61 482.003 1022.72L480.589 1024.13C481.857 1025.4 483.417 1026.05 485.211 1026.05V1024.05ZM482.013 1022.73C481.112 1021.8 480.676 1020.73 480.676 1019.46H478.676C478.676 1021.26 479.32 1022.83 480.579 1024.12L482.013 1022.73ZM480.676 1019.46V1014.87H478.676V1019.46H480.676ZM480.676 1014.87C480.676 1013.61 481.111 1012.56 482.003 1011.67L480.589 1010.25C479.321 1011.52 478.676 1013.08 478.676 1014.87H480.676ZM482.003 1011.67C482.895 1010.78 483.946 1010.34 485.211 1010.34V1008.34C483.417 1008.34 481.857 1008.98 480.589 1010.25L482.003 1011.67ZM485.211 1010.34H486.201V1008.34H485.211V1010.34ZM485.706 1011.53C484.95 1011.53 484.3 1011.85 483.799 1012.4L485.273 1013.75C485.432 1013.58 485.562 1013.53 485.706 1013.53V1011.53ZM483.829 1012.37C483.293 1012.9 483.041 1013.59 483.041 1014.33H485.041C485.041 1014.06 485.119 1013.91 485.243 1013.78L483.829 1012.37ZM483.041 1014.33V1020.05H485.041V1014.33H483.041ZM483.041 1020.05C483.041 1020.78 483.303 1021.44 483.799 1021.99L485.273 1020.63C485.109 1020.46 485.041 1020.28 485.041 1020.05H483.041ZM483.829 1022.02C484.339 1022.53 484.98 1022.8 485.706 1022.8V1020.8C485.532 1020.8 485.394 1020.75 485.243 1020.6L483.829 1022.02ZM485.706 1022.8C486.444 1022.8 487.111 1022.54 487.616 1021.98L486.136 1020.64C486.041 1020.74 485.929 1020.8 485.706 1020.8V1022.8ZM487.613 1021.99C488.109 1021.44 488.371 1020.78 488.371 1020.05H486.371C486.371 1020.28 486.303 1020.46 486.139 1020.63L487.613 1021.99ZM488.371 1020.05V1014.33H486.371V1020.05H488.371ZM488.371 1014.33C488.371 1013.59 488.119 1012.9 487.583 1012.37L486.169 1013.78C486.293 1013.91 486.371 1014.06 486.371 1014.33H488.371ZM487.644 1012.43C487.149 1011.84 486.475 1011.53 485.706 1011.53V1013.53C485.898 1013.53 486.003 1013.59 486.108 1013.72L487.644 1012.43Z" fill="black" mask="url(#path-8-outside-2_661_102)"/>
<path d="M735.333 1273C735.333 1280.36 729.364 1286.33 722 1286.33C714.636 1286.33 708.667 1280.36 708.667 1273C708.667 1265.64 714.636 1259.67 722 1259.67C729.364 1259.67 735.333 1265.64 735.333 1273ZM473.371 1044.73V1042.23H474.345L475.062 1042.88L473.371 1044.73ZM40 1047.23C38.6193 1047.23 37.5 1046.11 37.5 1044.73C37.5 1043.34 38.6193 1042.23 40 1042.23V1047.23ZM720.309 1274.84L471.681 1046.57L475.062 1042.88L723.691 1271.16L720.309 1274.84ZM473.371 1047.23H40V1042.23H473.371V1047.23Z" fill="white"/>
</svg>
