<svg width="1360" height="1360" viewBox="0 0 1360 1360" fill="none" xmlns="http://www.w3.org/2000/svg">
<path d="M680 0C752.809 8.68234e-07 825.145 11.6931 894.245 34.6327L808.547 292.78C767.087 279.016 723.685 272 680 272L680 0Z" fill="#5F52F1"/>
<path d="M552.582 12.0444C594.582 4.03259 637.244 -8.20618e-05 680.001 1.2524e-09L680.001 272C654.346 272 628.749 274.42 603.549 279.227L552.582 12.0444Z" fill="#01D3EC"/>
<path d="M129.868 280.306C231.53 140.382 382.689 44.4531 552.581 12.0446L603.549 279.227C501.613 298.672 410.918 356.229 349.921 440.184L129.868 280.306Z" fill="#8CC0B9"/>
<path d="M893.729 34.4616C1030.05 79.5968 1148.59 166.731 1232.35 283.375C1316.11 400.02 1360.79 540.187 1359.99 683.786L1087.99 682.272C1088.47 596.112 1061.66 512.012 1011.41 442.025C961.154 372.039 890.032 319.758 808.238 292.677L893.729 34.4616Z" fill="#FFE657"/>
<path d="M1360 680C1360 823.602 1314.54 963.518 1230.13 1079.69L1010.08 919.816C1060.72 850.111 1088 766.161 1088 680H1360Z" fill="#525775"/>
<mask id="path-6-inside-1_661_102" fill="white">
<path d="M1230.13 1079.69C1167.06 1166.51 1084.33 1237.17 988.713 1285.88C893.099 1334.6 787.311 1360 680 1360C572.689 1360 466.901 1334.6 371.286 1285.88C275.671 1237.17 192.944 1166.51 129.868 1079.69L349.921 919.816C387.766 971.906 437.403 1014.3 494.772 1043.53C552.141 1072.76 615.613 1088 680 1088C744.387 1088 807.859 1072.76 865.228 1043.53C922.597 1014.3 972.233 971.906 1010.08 919.816L1230.13 1079.69Z"/>
</mask>
<path d="M1230.13 1079.69C1167.06 1166.51 1084.33 1237.17 988.713 1285.88C893.099 1334.6 787.311 1360 680 1360C572.689 1360 466.901 1334.6 371.286 1285.88C275.671 1237.17 192.944 1166.51 129.868 1079.69L349.921 919.816C387.766 971.906 437.403 1014.3 494.772 1043.53C552.141 1072.76 615.613 1088 680 1088C744.387 1088 807.859 1072.76 865.228 1043.53C922.597 1014.3 972.233 971.906 1010.08 919.816L1230.13 1079.69Z" fill="#9F8CC0" stroke="#30324F" stroke-width="28" mask="url(#path-6-inside-1_661_102)"/>
<path d="M129.868 1079.69C45.4613 963.518 -2.96727e-05 823.602 0 680C2.96728e-05 536.398 45.4614 396.482 129.869 280.306L349.921 440.183C299.277 509.889 272 593.839 272 680C272 766.161 299.277 850.111 349.921 919.816L129.868 1079.69Z" fill="#FF4059"/>
<mask id="path-8-outside-2_661_102" maskUnits="userSpaceOnUse" x="53" y="990" width="401" height="39" fill="black">
<rect fill="white" x="53" y="990" width="401" height="39"/>
<path d="M79.0262 992.56L69.2662 1020H65.0662L55.3062 992.56H59.5062L67.2262 1014.68H67.4662L75.2262 992.56H79.0262ZM90.5997 999.16C92.2797 999.16 93.7597 999.52 95.0397 1000.24C96.3464 1000.93 97.3597 1001.93 98.0797 1003.24C98.7997 1004.55 99.1597 1006.07 99.1597 1007.8V1010.64H84.8797C84.933 1012.8 85.4397 1014.47 86.3997 1015.64C87.3597 1016.81 88.7864 1017.4 90.6797 1017.4C92.3597 1017.4 93.5997 1016.91 94.3997 1015.92C95.1997 1014.93 95.5997 1013.76 95.5997 1012.4H99.1597C99.1597 1014 98.7864 1015.4 98.0397 1016.6C97.3197 1017.8 96.3064 1018.73 94.9997 1019.4C93.7197 1020.07 92.253 1020.4 90.5997 1020.4H90.4397C87.5597 1020.4 85.2797 1019.48 83.5997 1017.64C81.9464 1015.77 81.1197 1013.29 81.1197 1010.2V1009.4C81.1197 1007.37 81.493 1005.59 82.2397 1004.04C82.9864 1002.49 84.053 1001.29 85.4397 1000.44C86.8264 999.587 88.453 999.16 90.3197 999.16H90.5997ZM90.3997 1002.16C88.8797 1002.16 87.6397 1002.63 86.6797 1003.56C85.7464 1004.49 85.173 1005.88 84.9597 1007.72H95.4397V1007.24C95.4397 1005.72 94.973 1004.49 94.0397 1003.56C93.133 1002.63 91.9197 1002.16 90.3997 1002.16ZM115.906 999.16C118.146 999.16 119.906 999.76 121.186 1000.96C122.466 1002.16 123.106 1003.92 123.106 1006.24V1020H119.346V1006.92C119.346 1003.75 117.906 1002.16 115.026 1002.16C114.066 1002.16 113.173 1002.41 112.346 1002.92C111.52 1003.43 110.853 1004.12 110.346 1005C109.84 1005.85 109.586 1006.8 109.586 1007.84V1020H105.826V999.56H108.546L109.066 1002.56C110.773 1000.29 113.053 999.16 115.906 999.16ZM134.942 999.56H139.702V1002.56H134.942V1014.76C134.942 1015.72 135.129 1016.41 135.502 1016.84C135.875 1017.27 136.449 1017.48 137.222 1017.48C137.915 1017.48 138.742 1017.28 139.702 1016.88V1019.68C138.742 1020.16 137.502 1020.4 135.982 1020.4C134.409 1020.4 133.209 1019.93 132.382 1019C131.582 1018.07 131.182 1016.59 131.182 1014.56V1002.56H128.942V999.56H131.302L132.582 993.04H134.942V999.56ZM162.65 1016C162.65 1016.48 162.757 1016.84 162.97 1017.08C163.183 1017.29 163.45 1017.4 163.77 1017.4C164.357 1017.4 164.957 1017.21 165.57 1016.84V1019.6C164.743 1020.13 163.903 1020.4 163.05 1020.4C161.61 1020.4 160.597 1020.11 160.01 1019.52C159.45 1018.93 159.143 1018.11 159.09 1017.04C158.37 1018.11 157.437 1018.93 156.29 1019.52C155.17 1020.11 153.877 1020.4 152.41 1020.4C150.357 1020.4 148.663 1019.8 147.33 1018.6C146.023 1017.37 145.37 1015.61 145.37 1013.32V999.56H149.13V1012.64C149.13 1015.81 150.57 1017.4 153.45 1017.4C154.383 1017.4 155.263 1017.15 156.09 1016.64C156.943 1016.13 157.623 1015.45 158.13 1014.6C158.637 1013.72 158.89 1012.76 158.89 1011.72V999.56H162.65V1016ZM180.697 999.16C182.59 999.16 184.07 999.773 185.137 1001C186.203 1002.2 186.737 1003.72 186.737 1005.56L186.617 1007.08H183.297V1006.2C183.297 1005.4 183.097 1004.69 182.697 1004.08C182.297 1003.47 181.79 1003 181.177 1002.68C180.563 1002.33 179.95 1002.16 179.337 1002.16C178.057 1002.16 177.057 1002.67 176.337 1003.68C175.617 1004.69 175.257 1006.07 175.257 1007.8V1020H171.497V999.56H174.177L174.737 1002.6C174.897 1002.07 175.257 1001.53 175.817 1001C176.377 1000.47 177.07 1000.03 177.897 999.68C178.75 999.333 179.683 999.16 180.697 999.16ZM200.506 999.16C202.186 999.16 203.666 999.52 204.946 1000.24C206.253 1000.93 207.266 1001.93 207.986 1003.24C208.706 1004.55 209.066 1006.07 209.066 1007.8V1010.64H194.786C194.839 1012.8 195.346 1014.47 196.306 1015.64C197.266 1016.81 198.693 1017.4 200.586 1017.4C202.266 1017.4 203.506 1016.91 204.306 1015.92C205.106 1014.93 205.506 1013.76 205.506 1012.4H209.066C209.066 1014 208.693 1015.4 207.946 1016.6C207.226 1017.8 206.213 1018.73 204.906 1019.4C203.626 1020.07 202.159 1020.4 200.506 1020.4H200.346C197.466 1020.4 195.186 1019.48 193.506 1017.64C191.853 1015.77 191.026 1013.29 191.026 1010.2V1009.4C191.026 1007.37 191.399 1005.59 192.146 1004.04C192.893 1002.49 193.959 1001.29 195.346 1000.44C196.733 999.587 198.359 999.16 200.226 999.16H200.506ZM200.306 1002.16C198.786 1002.16 197.546 1002.63 196.586 1003.56C195.653 1004.49 195.079 1005.88 194.866 1007.72H205.346V1007.24C205.346 1005.72 204.879 1004.49 203.946 1003.56C203.039 1002.63 201.826 1002.16 200.306 1002.16ZM237.138 992.16C239.271 992.16 241.138 992.6 242.738 993.48C244.338 994.36 245.565 995.627 246.418 997.28C247.298 998.907 247.738 1000.84 247.738 1003.08H243.818C243.818 1000.76 243.245 998.96 242.098 997.68C240.951 996.373 239.298 995.72 237.138 995.72C234.738 995.72 232.911 996.467 231.658 997.96C230.405 999.427 229.778 1001.6 229.778 1004.48V1008.08C229.778 1010.93 230.391 1013.11 231.618 1014.6C232.845 1016.09 234.658 1016.84 237.058 1016.84C239.298 1016.84 241.005 1016.2 242.178 1014.92C243.378 1013.64 243.978 1011.85 243.978 1009.56H247.738C247.738 1011.77 247.298 1013.69 246.418 1015.32C245.565 1016.95 244.338 1018.2 242.738 1019.08C241.138 1019.96 239.271 1020.4 237.138 1020.4C233.591 1020.4 230.818 1019.32 228.818 1017.16C226.845 1014.97 225.858 1011.95 225.858 1008.08V1004.48C225.858 1000.64 226.845 997.627 228.818 995.44C230.818 993.253 233.591 992.16 237.138 992.16ZM262.462 999.16C265.155 999.16 267.155 999.693 268.462 1000.76C269.795 1001.83 270.462 1003.37 270.462 1005.4V1016C270.462 1016.48 270.568 1016.84 270.782 1017.08C270.995 1017.29 271.262 1017.4 271.582 1017.4C272.195 1017.4 272.808 1017.21 273.422 1016.84V1019.6C272.515 1020.13 271.488 1020.4 270.342 1020.4C269.195 1020.4 268.342 1020.08 267.782 1019.44C267.222 1018.77 266.915 1017.87 266.862 1016.72C265.208 1019.17 262.822 1020.4 259.702 1020.4C257.462 1020.4 255.782 1019.92 254.662 1018.96C253.568 1017.97 253.022 1016.43 253.022 1014.32C253.022 1012.67 253.448 1011.37 254.302 1010.44C255.155 1009.48 256.568 1008.79 258.542 1008.36C260.515 1007.93 263.235 1007.72 266.702 1007.72V1005.84C266.702 1004.48 266.302 1003.53 265.502 1003C264.702 1002.44 263.542 1002.16 262.022 1002.16C260.582 1002.16 259.462 1002.44 258.662 1003C257.862 1003.56 257.462 1004.35 257.462 1005.36V1005.84H253.782C253.728 1005.47 253.702 1005.03 253.702 1004.52C253.702 1003.59 254.075 1002.71 254.822 1001.88C255.568 1001.05 256.582 1000.4 257.862 999.92C259.142 999.413 260.555 999.16 262.102 999.16H262.462ZM266.702 1010.64C263.902 1010.64 261.782 1010.79 260.342 1011.08C258.928 1011.35 257.982 1011.76 257.502 1012.32C257.022 1012.88 256.782 1013.65 256.782 1014.64C256.782 1016.48 258.182 1017.4 260.982 1017.4C261.968 1017.4 262.902 1017.16 263.782 1016.68C264.662 1016.17 265.368 1015.47 265.902 1014.56C266.435 1013.65 266.702 1012.61 266.702 1011.44V1010.64ZM288.66 999.16C291.247 999.16 293.273 1000.11 294.74 1002C296.207 1003.89 296.94 1006.49 296.94 1009.8V1010.24C296.94 1013.39 296.207 1015.87 294.74 1017.68C293.3 1019.49 291.273 1020.4 288.66 1020.4C286.153 1020.4 284.193 1019.4 282.78 1017.4V1027.24H279.02V999.56H281.82C282.007 1000.41 282.18 1001.35 282.34 1002.36C283.86 1000.23 285.967 999.16 288.66 999.16ZM287.98 1002.16C286.167 1002.16 284.833 1002.79 283.98 1004.04C283.153 1005.29 282.74 1007.2 282.74 1009.76C282.74 1012.37 283.167 1014.31 284.02 1015.56C284.9 1016.79 286.22 1017.4 287.98 1017.4C289.74 1017.4 291.047 1016.77 291.9 1015.52C292.753 1014.27 293.18 1012.35 293.18 1009.76C293.18 1007.15 292.74 1005.23 291.86 1004C291.007 1002.77 289.713 1002.16 287.98 1002.16ZM307.38 991.2V994.68H303.46V991.2H307.38ZM307.3 999.56V1020H303.54V999.56H307.3ZM319.531 999.56H324.291V1002.56H319.531V1014.76C319.531 1015.72 319.718 1016.41 320.091 1016.84C320.464 1017.27 321.038 1017.48 321.811 1017.48C322.504 1017.48 323.331 1017.28 324.291 1016.88V1019.68C323.331 1020.16 322.091 1020.4 320.571 1020.4C318.998 1020.4 317.798 1019.93 316.971 1019C316.171 1018.07 315.771 1016.59 315.771 1014.56V1002.56H313.531V999.56H315.891L317.171 993.04H319.531V999.56ZM338.199 999.16C340.892 999.16 342.892 999.693 344.199 1000.76C345.532 1001.83 346.199 1003.37 346.199 1005.4V1016C346.199 1016.48 346.306 1016.84 346.519 1017.08C346.732 1017.29 346.999 1017.4 347.319 1017.4C347.932 1017.4 348.546 1017.21 349.159 1016.84V1019.6C348.252 1020.13 347.226 1020.4 346.079 1020.4C344.932 1020.4 344.079 1020.08 343.519 1019.44C342.959 1018.77 342.652 1017.87 342.599 1016.72C340.946 1019.17 338.559 1020.4 335.439 1020.4C333.199 1020.4 331.519 1019.92 330.399 1018.96C329.306 1017.97 328.759 1016.43 328.759 1014.32C328.759 1012.67 329.186 1011.37 330.039 1010.44C330.892 1009.48 332.306 1008.79 334.279 1008.36C336.252 1007.93 338.972 1007.72 342.439 1007.72V1005.84C342.439 1004.48 342.039 1003.53 341.239 1003C340.439 1002.44 339.279 1002.16 337.759 1002.16C336.319 1002.16 335.199 1002.44 334.399 1003C333.599 1003.56 333.199 1004.35 333.199 1005.36V1005.84H329.519C329.466 1005.47 329.439 1005.03 329.439 1004.52C329.439 1003.59 329.812 1002.71 330.559 1001.88C331.306 1001.05 332.319 1000.4 333.599 999.92C334.879 999.413 336.292 999.16 337.839 999.16H338.199ZM342.439 1010.64C339.639 1010.64 337.519 1010.79 336.079 1011.08C334.666 1011.35 333.719 1011.76 333.239 1012.32C332.759 1012.88 332.519 1013.65 332.519 1014.64C332.519 1016.48 333.919 1017.4 336.719 1017.4C337.706 1017.4 338.639 1017.16 339.519 1016.68C340.399 1016.17 341.106 1015.47 341.639 1014.56C342.172 1013.65 342.439 1012.61 342.439 1011.44V1010.64ZM358.678 991.2V1020H354.918V991.2H358.678ZM386.626 992.16C388.36 992.16 389.906 992.48 391.266 993.12C392.626 993.76 393.68 994.653 394.426 995.8C395.173 996.92 395.546 998.187 395.546 999.6C395.546 1001.12 395.16 1002.37 394.386 1003.36C393.64 1004.32 392.573 1005.12 391.186 1005.76L391.226 1005.88C392.746 1006.36 393.946 1007.17 394.826 1008.32C395.733 1009.44 396.186 1010.88 396.186 1012.64C396.186 1014.13 395.773 1015.47 394.946 1016.64C394.12 1017.81 392.973 1018.73 391.506 1019.4C390.04 1020.07 388.413 1020.4 386.626 1020.4H386.146C383.24 1020.4 380.92 1019.68 379.186 1018.24C377.48 1016.77 376.626 1014.77 376.626 1012.24V1011.92H380.546V1012.36C380.546 1013.83 381.04 1014.95 382.026 1015.72C383.013 1016.47 384.426 1016.84 386.266 1016.84C388.16 1016.84 389.626 1016.47 390.666 1015.72C391.733 1014.95 392.266 1013.79 392.266 1012.24C392.266 1009.31 390.213 1007.84 386.106 1007.84H383.106V1004.24H386.186C387.813 1004.24 389.12 1003.87 390.106 1003.12C391.12 1002.37 391.626 1001.31 391.626 999.92C391.626 998.56 391.133 997.52 390.146 996.8C389.186 996.08 387.893 995.72 386.266 995.72C384.746 995.72 383.52 996.093 382.586 996.84C381.653 997.587 381.186 998.627 381.186 999.96V1000.32H377.266V999.6C377.266 998.133 377.653 996.84 378.426 995.72C379.226 994.573 380.306 993.693 381.666 993.08C383.053 992.467 384.586 992.16 386.266 992.16H386.626ZM412.636 992.16C414.316 992.16 415.849 992.56 417.236 993.36C418.649 994.16 419.769 995.267 420.596 996.68C421.422 998.093 421.836 999.68 421.836 1001.44V1011.16C421.836 1012.89 421.436 1014.47 420.636 1015.88C419.836 1017.27 418.729 1018.37 417.316 1019.2C415.929 1020 414.369 1020.4 412.636 1020.4H412.116C410.356 1020.4 408.769 1020 407.356 1019.2C405.969 1018.37 404.889 1017.25 404.116 1015.84C403.342 1014.43 402.956 1012.87 402.956 1011.16V1001.44C402.956 999.653 403.356 998.053 404.156 996.64C404.982 995.227 406.089 994.133 407.476 993.36C408.862 992.56 410.409 992.16 412.116 992.16H412.636ZM412.396 995.72C410.849 995.72 409.542 996.24 408.476 997.28C407.409 998.293 406.876 999.573 406.876 1001.12V1011.44C406.876 1012.99 407.409 1014.28 408.476 1015.32C409.542 1016.33 410.849 1016.84 412.396 1016.84C413.996 1016.84 415.316 1016.32 416.356 1015.28C417.396 1014.24 417.916 1012.96 417.916 1011.44V1001.12C417.916 999.6 417.396 998.32 416.356 997.28C415.316 996.24 413.996 995.72 412.396 995.72ZM449.645 992.56L433.005 1020H430.205L446.925 992.56H449.645ZM432.245 992.6C433.658 992.6 434.818 993.067 435.725 994C436.632 994.907 437.085 996.053 437.085 997.44V1001.72C437.085 1003.11 436.618 1004.27 435.685 1005.2C434.778 1006.11 433.632 1006.56 432.245 1006.56H431.965C430.578 1006.56 429.418 1006.11 428.485 1005.2C427.578 1004.27 427.125 1003.11 427.125 1001.72V997.44C427.125 996.053 427.578 994.907 428.485 994C429.392 993.067 430.552 992.6 431.965 992.6H432.245ZM432.125 994.8C431.378 994.8 430.778 995.027 430.325 995.48C429.898 995.907 429.685 996.467 429.685 997.16V1002C429.685 1002.69 429.898 1003.27 430.325 1003.72C430.778 1004.15 431.378 1004.36 432.125 1004.36C432.872 1004.36 433.458 1004.15 433.885 1003.72C434.312 1003.27 434.525 1002.69 434.525 1002V997.16C434.525 996.467 434.312 995.907 433.885 995.48C433.458 995.027 432.872 994.8 432.125 994.8ZM447.845 1006.08C449.232 1006.08 450.378 1006.55 451.285 1007.48C452.218 1008.39 452.685 1009.53 452.685 1010.92V1015.2C452.685 1016.59 452.232 1017.75 451.325 1018.68C450.418 1019.59 449.258 1020.04 447.845 1020.04H447.565C446.152 1020.04 444.992 1019.59 444.085 1018.68C443.178 1017.75 442.725 1016.59 442.725 1015.2V1010.92C442.725 1009.53 443.178 1008.39 444.085 1007.48C445.018 1006.55 446.178 1006.08 447.565 1006.08H447.845ZM447.725 1008.28C446.978 1008.28 446.378 1008.51 445.925 1008.96C445.498 1009.39 445.285 1009.95 445.285 1010.64V1015.48C445.285 1016.17 445.498 1016.75 445.925 1017.2C446.378 1017.63 446.978 1017.84 447.725 1017.84C448.472 1017.84 449.058 1017.63 449.485 1017.2C449.912 1016.75 450.125 1016.17 450.125 1015.48V1010.64C450.125 1009.95 449.912 1009.39 449.485 1008.96C449.058 1008.51 448.472 1008.28 447.725 1008.28Z"/>
</mask>
<path d="M79.0262 992.56L69.2662 1020H65.0662L55.3062 992.56H59.5062L67.2262 1014.68H67.4662L75.2262 992.56H79.0262ZM90.5997 999.16C92.2797 999.16 93.7597 999.52 95.0397 1000.24C96.3464 1000.93 97.3597 1001.93 98.0797 1003.24C98.7997 1004.55 99.1597 1006.07 99.1597 1007.8V1010.64H84.8797C84.933 1012.8 85.4397 1014.47 86.3997 1015.64C87.3597 1016.81 88.7864 1017.4 90.6797 1017.4C92.3597 1017.4 93.5997 1016.91 94.3997 1015.92C95.1997 1014.93 95.5997 1013.76 95.5997 1012.4H99.1597C99.1597 1014 98.7864 1015.4 98.0397 1016.6C97.3197 1017.8 96.3064 1018.73 94.9997 1019.4C93.7197 1020.07 92.253 1020.4 90.5997 1020.4H90.4397C87.5597 1020.4 85.2797 1019.48 83.5997 1017.64C81.9464 1015.77 81.1197 1013.29 81.1197 1010.2V1009.4C81.1197 1007.37 81.493 1005.59 82.2397 1004.04C82.9864 1002.49 84.053 1001.29 85.4397 1000.44C86.8264 999.587 88.453 999.16 90.3197 999.16H90.5997ZM90.3997 1002.16C88.8797 1002.16 87.6397 1002.63 86.6797 1003.56C85.7464 1004.49 85.173 1005.88 84.9597 1007.72H95.4397V1007.24C95.4397 1005.72 94.973 1004.49 94.0397 1003.56C93.133 1002.63 91.9197 1002.16 90.3997 1002.16ZM115.906 999.16C118.146 999.16 119.906 999.76 121.186 1000.96C122.466 1002.16 123.106 1003.92 123.106 1006.24V1020H119.346V1006.92C119.346 1003.75 117.906 1002.16 115.026 1002.16C114.066 1002.16 113.173 1002.41 112.346 1002.92C111.52 1003.43 110.853 1004.12 110.346 1005C109.84 1005.85 109.586 1006.8 109.586 1007.84V1020H105.826V999.56H108.546L109.066 1002.56C110.773 1000.29 113.053 999.16 115.906 999.16ZM134.942 999.56H139.702V1002.56H134.942V1014.76C134.942 1015.72 135.129 1016.41 135.502 1016.84C135.875 1017.27 136.449 1017.48 137.222 1017.48C137.915 1017.48 138.742 1017.28 139.702 1016.88V1019.68C138.742 1020.16 137.502 1020.4 135.982 1020.4C134.409 1020.4 133.209 1019.93 132.382 1019C131.582 1018.07 131.182 1016.59 131.182 1014.56V1002.56H128.942V999.56H131.302L132.582 993.04H134.942V999.56ZM162.65 1016C162.65 1016.48 162.757 1016.84 162.97 1017.08C163.183 1017.29 163.45 1017.4 163.77 1017.4C164.357 1017.4 164.957 1017.21 165.57 1016.84V1019.6C164.743 1020.13 163.903 1020.4 163.05 1020.4C161.61 1020.4 160.597 1020.11 160.01 1019.52C159.45 1018.93 159.143 1018.11 159.09 1017.04C158.37 1018.11 157.437 1018.93 156.29 1019.52C155.17 1020.11 153.877 1020.4 152.41 1020.4C150.357 1020.4 148.663 1019.8 147.33 1018.6C146.023 1017.37 145.37 1015.61 145.37 1013.32V999.56H149.13V1012.64C149.13 1015.81 150.57 1017.4 153.45 1017.4C154.383 1017.4 155.263 1017.15 156.09 1016.64C156.943 1016.13 157.623 1015.45 158.13 1014.6C158.637 1013.72 158.89 1012.76 158.89 1011.72V999.56H162.65V1016ZM180.697 999.16C182.59 999.16 184.07 999.773 185.137 1001C186.203 1002.2 186.737 1003.72 186.737 1005.56L186.617 1007.08H183.297V1006.2C183.297 1005.4 183.097 1004.69 182.697 1004.08C182.297 1003.47 181.79 1003 181.177 1002.68C180.563 1002.33 179.95 1002.16 179.337 1002.16C178.057 1002.16 177.057 1002.67 176.337 1003.68C175.617 1004.69 175.257 1006.07 175.257 1007.8V1020H171.497V999.56H174.177L174.737 1002.6C174.897 1002.07 175.257 1001.53 175.817 1001C176.377 1000.47 177.07 1000.03 177.897 999.68C178.75 999.333 179.683 999.16 180.697 999.16ZM200.506 999.16C202.186 999.16 203.666 999.52 204.946 1000.24C206.253 1000.93 207.266 1001.93 207.986 1003.24C208.706 1004.55 209.066 1006.07 209.066 1007.8V1010.64H194.786C194.839 1012.8 195.346 1014.47 196.306 1015.64C197.266 1016.81 198.693 1017.4 200.586 1017.4C202.266 1017.4 203.506 1016.91 204.306 1015.92C205.106 1014.93 205.506 1013.76 205.506 1012.4H209.066C209.066 1014 208.693 1015.4 207.946 1016.6C207.226 1017.8 206.213 1018.73 204.906 1019.4C203.626 1020.07 202.159 1020.4 200.506 1020.4H200.346C197.466 1020.4 195.186 1019.48 193.506 1017.64C191.853 1015.77 191.026 1013.29 191.026 1010.2V1009.4C191.026 1007.37 191.399 1005.59 192.146 1004.04C192.893 1002.49 193.959 1001.29 195.346 1000.44C196.733 999.587 198.359 999.16 200.226 999.16H200.506ZM200.306 1002.16C198.786 1002.16 197.546 1002.63 196.586 1003.56C195.653 1004.49 195.079 1005.88 194.866 1007.72H205.346V1007.24C205.346 1005.72 204.879 1004.49 203.946 1003.56C203.039 1002.63 201.826 1002.16 200.306 1002.16ZM237.138 992.16C239.271 992.16 241.138 992.6 242.738 993.48C244.338 994.36 245.565 995.627 246.418 997.28C247.298 998.907 247.738 1000.84 247.738 1003.08H243.818C243.818 1000.76 243.245 998.96 242.098 997.68C240.951 996.373 239.298 995.72 237.138 995.72C234.738 995.72 232.911 996.467 231.658 997.96C230.405 999.427 229.778 1001.6 229.778 1004.48V1008.08C229.778 1010.93 230.391 1013.11 231.618 1014.6C232.845 1016.09 234.658 1016.84 237.058 1016.84C239.298 1016.84 241.005 1016.2 242.178 1014.92C243.378 1013.64 243.978 1011.85 243.978 1009.56H247.738C247.738 1011.77 247.298 1013.69 246.418 1015.32C245.565 1016.95 244.338 1018.2 242.738 1019.08C241.138 1019.96 239.271 1020.4 237.138 1020.4C233.591 1020.4 230.818 1019.32 228.818 1017.16C226.845 1014.97 225.858 1011.95 225.858 1008.08V1004.48C225.858 1000.64 226.845 997.627 228.818 995.44C230.818 993.253 233.591 992.16 237.138 992.16ZM262.462 999.16C265.155 999.16 267.155 999.693 268.462 1000.76C269.795 1001.83 270.462 1003.37 270.462 1005.4V1016C270.462 1016.48 270.568 1016.84 270.782 1017.08C270.995 1017.29 271.262 1017.4 271.582 1017.4C272.195 1017.4 272.808 1017.21 273.422 1016.84V1019.6C272.515 1020.13 271.488 1020.4 270.342 1020.4C269.195 1020.4 268.342 1020.08 267.782 1019.44C267.222 1018.77 266.915 1017.87 266.862 1016.72C265.208 1019.17 262.822 1020.4 259.702 1020.4C257.462 1020.4 255.782 1019.92 254.662 1018.96C253.568 1017.97 253.022 1016.43 253.022 1014.32C253.022 1012.67 253.448 1011.37 254.302 1010.44C255.155 1009.48 256.568 1008.79 258.542 1008.36C260.515 1007.93 263.235 1007.72 266.702 1007.72V1005.84C266.702 1004.48 266.302 1003.53 265.502 1003C264.702 1002.44 263.542 1002.16 262.022 1002.16C260.582 1002.16 259.462 1002.44 258.662 1003C257.862 1003.56 257.462 1004.35 257.462 1005.36V1005.84H253.782C253.728 1005.47 253.702 1005.03 253.702 1004.52C253.702 1003.59 254.075 1002.71 254.822 1001.88C255.568 1001.05 256.582 1000.4 257.862 999.92C259.142 999.413 260.555 999.16 262.102 999.16H262.462ZM266.702 1010.64C263.902 1010.64 261.782 1010.79 260.342 1011.08C258.928 1011.35 257.982 1011.76 257.502 1012.32C257.022 1012.88 256.782 1013.65 256.782 1014.64C256.782 1016.48 258.182 1017.4 260.982 1017.4C261.968 1017.4 262.902 1017.16 263.782 1016.68C264.662 1016.17 265.368 1015.47 265.902 1014.56C266.435 1013.65 266.702 1012.61 266.702 1011.44V1010.64ZM288.66 999.16C291.247 999.16 293.273 1000.11 294.74 1002C296.207 1003.89 296.94 1006.49 296.94 1009.8V1010.24C296.94 1013.39 296.207 1015.87 294.74 1017.68C293.3 1019.49 291.273 1020.4 288.66 1020.4C286.153 1020.4 284.193 1019.4 282.78 1017.4V1027.24H279.02V999.56H281.82C282.007 1000.41 282.18 1001.35 282.34 1002.36C283.86 1000.23 285.967 999.16 288.66 999.16ZM287.98 1002.16C286.167 1002.16 284.833 1002.79 283.98 1004.04C283.153 1005.29 282.74 1007.2 282.74 1009.76C282.74 1012.37 283.167 1014.31 284.02 1015.56C284.9 1016.79 286.22 1017.4 287.98 1017.4C289.74 1017.4 291.047 1016.77 291.9 1015.52C292.753 1014.27 293.18 1012.35 293.18 1009.76C293.18 1007.15 292.74 1005.23 291.86 1004C291.007 1002.77 289.713 1002.16 287.98 1002.16ZM307.38 991.2V994.68H303.46V991.2H307.38ZM307.3 999.56V1020H303.54V999.56H307.3ZM319.531 999.56H324.291V1002.56H319.531V1014.76C319.531 1015.72 319.718 1016.41 320.091 1016.84C320.464 1017.27 321.038 1017.48 321.811 1017.48C322.504 1017.48 323.331 1017.28 324.291 1016.88V1019.68C323.331 1020.16 322.091 1020.4 320.571 1020.4C318.998 1020.4 317.798 1019.93 316.971 1019C316.171 1018.07 315.771 1016.59 315.771 1014.56V1002.56H313.531V999.56H315.891L317.171 993.04H319.531V999.56ZM338.199 999.16C340.892 999.16 342.892 999.693 344.199 1000.76C345.532 1001.83 346.199 1003.37 346.199 1005.4V1016C346.199 1016.48 346.306 1016.84 346.519 1017.08C346.732 1017.29 346.999 1017.4 347.319 1017.4C347.932 1017.4 348.546 1017.21 349.159 1016.84V1019.6C348.252 1020.13 347.226 1020.4 346.079 1020.4C344.932 1020.4 344.079 1020.08 343.519 1019.44C342.959 1018.77 342.652 1017.87 342.599 1016.72C340.946 1019.17 338.559 1020.4 335.439 1020.4C333.199 1020.4 331.519 1019.92 330.399 1018.96C329.306 1017.97 328.759 1016.43 328.759 1014.32C328.759 1012.67 329.186 1011.37 330.039 1010.44C330.892 1009.48 332.306 1008.79 334.279 1008.36C336.252 1007.93 338.972 1007.72 342.439 1007.72V1005.84C342.439 1004.48 342.039 1003.53 341.239 1003C340.439 1002.44 339.279 1002.16 337.759 1002.16C336.319 1002.16 335.199 1002.44 334.399 1003C333.599 1003.56 333.199 1004.35 333.199 1005.36V1005.84H329.519C329.466 1005.47 329.439 1005.03 329.439 1004.52C329.439 1003.59 329.812 1002.71 330.559 1001.88C331.306 1001.05 332.319 1000.4 333.599 999.92C334.879 999.413 336.292 999.16 337.839 999.16H338.199ZM342.439 1010.64C339.639 1010.64 337.519 1010.79 336.079 1011.08C334.666 1011.35 333.719 1011.76 333.239 1012.32C332.759 1012.88 332.519 1013.65 332.519 1014.64C332.519 1016.48 333.919 1017.4 336.719 1017.4C337.706 1017.4 338.639 1017.16 339.519 1016.68C340.399 1016.17 341.106 1015.47 341.639 1014.56C342.172 1013.65 342.439 1012.61 342.439 1011.44V1010.64ZM358.678 991.2V1020H354.918V991.2H358.678ZM386.626 992.16C388.36 992.16 389.906 992.48 391.266 993.12C392.626 993.76 393.68 994.653 394.426 995.8C395.173 996.92 395.546 998.187 395.546 999.6C395.546 1001.12 395.16 1002.37 394.386 1003.36C393.64 1004.32 392.573 1005.12 391.186 1005.76L391.226 1005.88C392.746 1006.36 393.946 1007.17 394.826 1008.32C395.733 1009.44 396.186 1010.88 396.186 1012.64C396.186 1014.13 395.773 1015.47 394.946 1016.64C394.12 1017.81 392.973 1018.73 391.506 1019.4C390.04 1020.07 388.413 1020.4 386.626 1020.4H386.146C383.24 1020.4 380.92 1019.68 379.186 1018.24C377.48 1016.77 376.626 1014.77 376.626 1012.24V1011.92H380.546V1012.36C380.546 1013.83 381.04 1014.95 382.026 1015.72C383.013 1016.47 384.426 1016.84 386.266 1016.84C388.16 1016.84 389.626 1016.47 390.666 1015.72C391.733 1014.95 392.266 1013.79 392.266 1012.24C392.266 1009.31 390.213 1007.84 386.106 1007.84H383.106V1004.24H386.186C387.813 1004.24 389.12 1003.87 390.106 1003.12C391.12 1002.37 391.626 1001.31 391.626 999.92C391.626 998.56 391.133 997.52 390.146 996.8C389.186 996.08 387.893 995.72 386.266 995.72C384.746 995.72 383.52 996.093 382.586 996.84C381.653 997.587 381.186 998.627 381.186 999.96V1000.32H377.266V999.6C377.266 998.133 377.653 996.84 378.426 995.72C379.226 994.573 380.306 993.693 381.666 993.08C383.053 992.467 384.586 992.16 386.266 992.16H386.626ZM412.636 992.16C414.316 992.16 415.849 992.56 417.236 993.36C418.649 994.16 419.769 995.267 420.596 996.68C421.422 998.093 421.836 999.68 421.836 1001.44V1011.16C421.836 1012.89 421.436 1014.47 420.636 1015.88C419.836 1017.27 418.729 1018.37 417.316 1019.2C415.929 1020 414.369 1020.4 412.636 1020.4H412.116C410.356 1020.4 408.769 1020 407.356 1019.2C405.969 1018.37 404.889 1017.25 404.116 1015.84C403.342 1014.43 402.956 1012.87 402.956 1011.16V1001.44C402.956 999.653 403.356 998.053 404.156 996.64C404.982 995.227 406.089 994.133 407.476 993.36C408.862 992.56 410.409 992.16 412.116 992.16H412.636ZM412.396 995.72C410.849 995.72 409.542 996.24 408.476 997.28C407.409 998.293 406.876 999.573 406.876 1001.12V1011.44C406.876 1012.99 407.409 1014.28 408.476 1015.32C409.542 1016.33 410.849 1016.84 412.396 1016.84C413.996 1016.84 415.316 1016.32 416.356 1015.28C417.396 1014.24 417.916 1012.96 417.916 1011.44V1001.12C417.916 999.6 417.396 998.32 416.356 997.28C415.316 996.24 413.996 995.72 412.396 995.72ZM449.645 992.56L433.005 1020H430.205L446.925 992.56H449.645ZM432.245 992.6C433.658 992.6 434.818 993.067 435.725 994C436.632 994.907 437.085 996.053 437.085 997.44V1001.72C437.085 1003.11 436.618 1004.27 435.685 1005.2C434.778 1006.11 433.632 1006.56 432.245 1006.56H431.965C430.578 1006.56 429.418 1006.11 428.485 1005.2C427.578 1004.27 427.125 1003.11 427.125 1001.72V997.44C427.125 996.053 427.578 994.907 428.485 994C429.392 993.067 430.552 992.6 431.965 992.6H432.245ZM432.125 994.8C431.378 994.8 430.778 995.027 430.325 995.48C429.898 995.907 429.685 996.467 429.685 997.16V1002C429.685 1002.69 429.898 1003.27 430.325 1003.72C430.778 1004.15 431.378 1004.36 432.125 1004.36C432.872 1004.36 433.458 1004.15 433.885 1003.72C434.312 1003.27 434.525 1002.69 434.525 1002V997.16C434.525 996.467 434.312 995.907 433.885 995.48C433.458 995.027 432.872 994.8 432.125 994.8ZM447.845 1006.08C449.232 1006.08 450.378 1006.55 451.285 1007.48C452.218 1008.39 452.685 1009.53 452.685 1010.92V1015.2C452.685 1016.59 452.232 1017.75 451.325 1018.68C450.418 1019.59 449.258 1020.04 447.845 1020.04H447.565C446.152 1020.04 444.992 1019.59 444.085 1018.68C443.178 1017.75 442.725 1016.59 442.725 1015.2V1010.92C442.725 1009.53 443.178 1008.39 444.085 1007.48C445.018 1006.55 446.178 1006.08 447.565 1006.08H447.845ZM447.725 1008.28C446.978 1008.28 446.378 1008.51 445.925 1008.96C445.498 1009.39 445.285 1009.95 445.285 1010.64V1015.48C445.285 1016.17 445.498 1016.75 445.925 1017.2C446.378 1017.63 446.978 1017.84 447.725 1017.84C448.472 1017.84 449.058 1017.63 449.485 1017.2C449.912 1016.75 450.125 1016.17 450.125 1015.48V1010.64C450.125 1009.95 449.912 1009.39 449.485 1008.96C449.058 1008.51 448.472 1008.28 447.725 1008.28Z" fill="white"/>
<path d="M79.0262 992.56L79.9684 992.895L80.4433 991.56H79.0262V992.56ZM69.2662 1020V1021H69.9719L70.2084 1020.34L69.2662 1020ZM65.0662 1020L64.1241 1020.34L64.3606 1021H65.0662V1020ZM55.3062 992.56V991.56H53.8892L54.3641 992.895L55.3062 992.56ZM59.5062 992.56L60.4504 992.23L60.2164 991.56H59.5062V992.56ZM67.2262 1014.68L66.2821 1015.01L66.5161 1015.68H67.2262V1014.68ZM67.4662 1014.68V1015.68H68.1752L68.4099 1015.01L67.4662 1014.68ZM75.2262 992.56V991.56H74.5173L74.2826 992.229L75.2262 992.56ZM78.0841 992.225L68.3241 1019.66L70.2084 1020.34L79.9684 992.895L78.0841 992.225ZM69.2662 1019H65.0662V1021H69.2662V1019ZM66.0084 1019.66L56.2484 992.225L54.3641 992.895L64.1241 1020.34L66.0084 1019.66ZM55.3062 993.56H59.5062V991.56H55.3062V993.56ZM58.5621 992.89L66.2821 1015.01L68.1704 1014.35L60.4504 992.23L58.5621 992.89ZM67.2262 1015.68H67.4662V1013.68H67.2262V1015.68ZM68.4099 1015.01L76.1699 992.891L74.2826 992.229L66.5226 1014.35L68.4099 1015.01ZM75.2262 993.56H79.0262V991.56H75.2262V993.56ZM95.0397 1000.24L94.5494 1001.11L94.5601 1001.12L94.571 1001.12L95.0397 1000.24ZM98.0797 1003.24L98.9555 1002.76L98.9555 1002.76L98.0797 1003.24ZM99.1597 1010.64V1011.64H100.16V1010.64H99.1597ZM84.8797 1010.64V1009.64H83.8547L83.88 1010.66L84.8797 1010.64ZM86.3997 1015.64L87.1736 1015.01L87.1736 1015.01L86.3997 1015.64ZM94.3997 1015.92L95.1764 1016.55L95.1764 1016.55L94.3997 1015.92ZM95.5997 1012.4V1011.4H94.5997V1012.4H95.5997ZM99.1597 1012.4H100.16V1011.4H99.1597V1012.4ZM98.0397 1016.6L97.1906 1016.07L97.1864 1016.08L97.1822 1016.09L98.0397 1016.6ZM94.9997 1019.4L94.5452 1018.51L94.5378 1018.51L94.9997 1019.4ZM83.5997 1017.64L82.8511 1018.3L82.8561 1018.31L82.8612 1018.31L83.5997 1017.64ZM82.2397 1004.04L81.3391 1003.61L81.3391 1003.61L82.2397 1004.04ZM86.6797 1003.56L85.9825 1002.84L85.9726 1002.85L86.6797 1003.56ZM84.9597 1007.72L83.9663 1007.6L83.837 1008.72H84.9597V1007.72ZM95.4397 1007.72V1008.72H96.4397V1007.72H95.4397ZM94.0397 1003.56L93.3224 1004.26L93.3275 1004.26L93.3326 1004.27L94.0397 1003.56ZM90.5997 1000.16C92.133 1000.16 93.4395 1000.49 94.5494 1001.11L95.5299 999.368C94.0799 998.553 92.4264 998.16 90.5997 998.16V1000.16ZM94.571 1001.12C95.7043 1001.72 96.5768 1002.58 97.2038 1003.72L98.9555 1002.76C98.1425 1001.28 96.9884 1000.14 95.5084 999.357L94.571 1001.12ZM97.2038 1003.72C97.8301 1004.86 98.1597 1006.21 98.1597 1007.8H100.16C100.16 1005.93 99.7693 1004.23 98.9555 1002.76L97.2038 1003.72ZM98.1597 1007.8V1010.64H100.16V1007.8H98.1597ZM99.1597 1009.64H84.8797V1011.64H99.1597V1009.64ZM83.88 1010.66C83.9365 1012.95 84.476 1014.87 85.6257 1016.27L87.1736 1015.01C86.4034 1014.07 85.9295 1012.65 85.8794 1010.62L83.88 1010.66ZM85.6257 1016.27C86.8219 1017.74 88.568 1018.4 90.6797 1018.4V1016.4C89.0047 1016.4 87.8975 1015.89 87.1736 1015.01L85.6257 1016.27ZM90.6797 1018.4C92.5568 1018.4 94.1294 1017.84 95.1764 1016.55L93.6229 1015.29C93.07 1015.97 92.1625 1016.4 90.6797 1016.4V1018.4ZM95.1764 1016.55C96.1315 1015.37 96.5997 1013.97 96.5997 1012.4H94.5997C94.5997 1013.55 94.2679 1014.49 93.6229 1015.29L95.1764 1016.55ZM95.5997 1013.4H99.1597V1011.4H95.5997V1013.4ZM98.1597 1012.4C98.1597 1013.84 97.8261 1015.05 97.1906 1016.07L98.8887 1017.13C99.7466 1015.75 100.16 1014.16 100.16 1012.4H98.1597ZM97.1822 1016.09C96.5634 1017.12 95.6934 1017.92 94.5452 1018.51L95.4542 1020.29C96.9193 1019.54 98.076 1018.48 98.8972 1017.11L97.1822 1016.09ZM94.5378 1018.51C93.4199 1019.1 92.1158 1019.4 90.5997 1019.4V1021.4C92.3903 1021.4 94.0194 1021.04 95.4616 1020.29L94.5378 1018.51ZM90.5997 1019.4H90.4397V1021.4H90.5997V1019.4ZM90.4397 1019.4C87.7925 1019.4 85.7985 1018.57 84.3382 1016.97L82.8612 1018.31C84.7609 1020.39 87.3268 1021.4 90.4397 1021.4V1019.4ZM84.3483 1016.98C82.8933 1015.33 82.1197 1013.11 82.1197 1010.2H80.1197C80.1197 1013.48 80.9994 1016.21 82.8511 1018.3L84.3483 1016.98ZM82.1197 1010.2V1009.4H80.1197V1010.2H82.1197ZM82.1197 1009.4C82.1197 1007.5 82.4698 1005.86 83.1402 1004.47L81.3391 1003.61C80.5162 1005.31 80.1197 1007.25 80.1197 1009.4H82.1197ZM83.1402 1004.47C83.8086 1003.09 84.749 1002.04 85.9638 1001.29L84.9156 999.588C83.3571 1000.55 82.1641 1001.9 81.3391 1003.61L83.1402 1004.47ZM85.9638 1001.29C87.1708 1000.55 88.6104 1000.16 90.3197 1000.16V998.16C88.2956 998.16 86.4819 998.624 84.9156 999.588L85.9638 1001.29ZM90.3197 1000.16H90.5997V998.16H90.3197V1000.16ZM90.3997 1001.16C88.6575 1001.16 87.155 1001.7 85.9826 1002.84L87.3768 1004.28C88.1244 1003.55 89.1019 1003.16 90.3997 1003.16V1001.16ZM85.9726 1002.85C84.8265 1004 84.1954 1005.63 83.9663 1007.6L85.953 1007.84C86.1507 1006.13 86.6662 1004.99 87.3868 1004.27L85.9726 1002.85ZM84.9597 1008.72H95.4397V1006.72H84.9597V1008.72ZM96.4397 1007.72V1007.24H94.4397V1007.72H96.4397ZM96.4397 1007.24C96.4397 1005.5 95.8964 1004 94.7468 1002.85L93.3326 1004.27C94.0497 1004.98 94.4397 1005.94 94.4397 1007.24H96.4397ZM94.757 1002.86C93.6302 1001.7 92.1407 1001.16 90.3997 1001.16V1003.16C91.6987 1003.16 92.6358 1003.55 93.3224 1004.26L94.757 1002.86ZM121.186 1000.96L120.502 1001.69L120.502 1001.69L121.186 1000.96ZM123.106 1020V1021H124.106V1020H123.106ZM119.346 1020H118.346V1021H119.346V1020ZM112.346 1002.92L111.824 1002.07L112.346 1002.92ZM110.346 1005L111.206 1005.51L111.213 1005.5L110.346 1005ZM109.586 1020V1021H110.586V1020H109.586ZM105.826 1020H104.826V1021H105.826V1020ZM105.826 999.56V998.56H104.826V999.56H105.826ZM108.546 999.56L109.532 999.389L109.388 998.56H108.546V999.56ZM109.066 1002.56L108.081 1002.73L108.475 1005.01L109.865 1003.16L109.066 1002.56ZM115.906 1000.16C117.965 1000.16 119.455 1000.71 120.502 1001.69L121.87 1000.23C120.358 998.812 118.327 998.16 115.906 998.16V1000.16ZM120.502 1001.69C121.521 1002.64 122.106 1004.1 122.106 1006.24H124.106C124.106 1003.74 123.411 1001.68 121.87 1000.23L120.502 1001.69ZM122.106 1006.24V1020H124.106V1006.24H122.106ZM123.106 1019H119.346V1021H123.106V1019ZM120.346 1020V1006.92H118.346V1020H120.346ZM120.346 1006.92C120.346 1005.2 119.959 1003.73 119.007 1002.68C118.038 1001.61 116.647 1001.16 115.026 1001.16V1003.16C116.286 1003.16 117.054 1003.5 117.526 1004.02C118.014 1004.56 118.346 1005.46 118.346 1006.92H120.346ZM115.026 1001.16C113.88 1001.16 112.806 1001.47 111.824 1002.07L112.869 1003.77C113.54 1003.36 114.253 1003.16 115.026 1003.16V1001.16ZM111.824 1002.07C110.848 1002.67 110.066 1003.48 109.48 1004.5L111.213 1005.5C111.64 1004.76 112.191 1004.19 112.869 1003.77L111.824 1002.07ZM109.486 1004.49C108.884 1005.5 108.586 1006.63 108.586 1007.84H110.586C110.586 1006.97 110.796 1006.2 111.206 1005.51L109.486 1004.49ZM108.586 1007.84V1020H110.586V1007.84H108.586ZM109.586 1019H105.826V1021H109.586V1019ZM106.826 1020V999.56H104.826V1020H106.826ZM105.826 1000.56H108.546V998.56H105.826V1000.56ZM107.561 999.731L108.081 1002.73L110.052 1002.39L109.532 999.389L107.561 999.731ZM109.865 1003.16C111.382 1001.15 113.365 1000.16 115.906 1000.16V998.16C112.741 998.16 110.164 999.439 108.267 1001.96L109.865 1003.16ZM134.942 999.56H133.942V1000.56H134.942V999.56ZM139.702 999.56H140.702V998.56H139.702V999.56ZM139.702 1002.56V1003.56H140.702V1002.56H139.702ZM134.942 1002.56V1001.56H133.942V1002.56H134.942ZM135.502 1016.84L136.254 1016.18L136.254 1016.18L135.502 1016.84ZM139.702 1016.88H140.702V1015.38L139.317 1015.96L139.702 1016.88ZM139.702 1019.68L140.149 1020.57L140.702 1020.3V1019.68H139.702ZM132.382 1019L131.623 1019.65L131.628 1019.66L131.633 1019.66L132.382 1019ZM131.182 1002.56H132.182V1001.56H131.182V1002.56ZM128.942 1002.56H127.942V1003.56H128.942V1002.56ZM128.942 999.56V998.56H127.942V999.56H128.942ZM131.302 999.56V1000.56H132.125L132.283 999.753L131.302 999.56ZM132.582 993.04V992.04H131.759L131.601 992.847L132.582 993.04ZM134.942 993.04H135.942V992.04H134.942V993.04ZM134.942 1000.56H139.702V998.56H134.942V1000.56ZM138.702 999.56V1002.56H140.702V999.56H138.702ZM139.702 1001.56H134.942V1003.56H139.702V1001.56ZM133.942 1002.56V1014.76H135.942V1002.56H133.942ZM133.942 1014.76C133.942 1015.81 134.138 1016.8 134.749 1017.5L136.254 1016.18C136.119 1016.03 135.942 1015.63 135.942 1014.76H133.942ZM134.749 1017.5C135.375 1018.21 136.27 1018.48 137.222 1018.48V1016.48C136.627 1016.48 136.376 1016.32 136.254 1016.18L134.749 1017.5ZM137.222 1018.48C138.096 1018.48 139.06 1018.23 140.086 1017.8L139.317 1015.96C138.424 1016.33 137.734 1016.48 137.222 1016.48V1018.48ZM138.702 1016.88V1019.68H140.702V1016.88H138.702ZM139.255 1018.79C138.479 1019.17 137.407 1019.4 135.982 1019.4V1021.4C137.597 1021.4 139.005 1021.15 140.149 1020.57L139.255 1018.79ZM135.982 1019.4C134.614 1019.4 133.72 1019 133.13 1018.34L131.633 1019.66C132.697 1020.86 134.203 1021.4 135.982 1021.4V1019.4ZM133.141 1018.35C132.57 1017.68 132.182 1016.49 132.182 1014.56H130.182C130.182 1016.68 130.594 1018.45 131.623 1019.65L133.141 1018.35ZM132.182 1014.56V1002.56H130.182V1014.56H132.182ZM131.182 1001.56H128.942V1003.56H131.182V1001.56ZM129.942 1002.56V999.56H127.942V1002.56H129.942ZM128.942 1000.56H131.302V998.56H128.942V1000.56ZM132.283 999.753L133.563 993.233L131.601 992.847L130.321 999.367L132.283 999.753ZM132.582 994.04H134.942V992.04H132.582V994.04ZM133.942 993.04V999.56H135.942V993.04H133.942ZM162.97 1017.08L162.223 1017.74L162.242 1017.77L162.263 1017.79L162.97 1017.08ZM165.57 1016.84H166.57V1015.06L165.05 1015.99L165.57 1016.84ZM165.57 1019.6L166.112 1020.44L166.57 1020.14V1019.6H165.57ZM160.01 1019.52L159.287 1020.21L159.295 1020.22L159.303 1020.23L160.01 1019.52ZM159.09 1017.04L160.089 1016.99L159.939 1013.99L158.261 1016.48L159.09 1017.04ZM156.29 1019.52L155.835 1018.63L155.826 1018.63L156.29 1019.52ZM147.33 1018.6L146.646 1019.33L146.653 1019.34L146.661 1019.34L147.33 1018.6ZM145.37 999.56V998.56H144.37V999.56H145.37ZM149.13 999.56H150.13V998.56H149.13V999.56ZM156.09 1016.64L155.579 1015.78L155.567 1015.79L156.09 1016.64ZM158.13 1014.6L158.99 1015.11L158.997 1015.1L158.13 1014.6ZM158.89 999.56V998.56H157.89V999.56H158.89ZM162.65 999.56H163.65V998.56H162.65V999.56ZM161.65 1016C161.65 1016.61 161.782 1017.25 162.223 1017.74L163.717 1016.42C163.731 1016.43 163.65 1016.35 163.65 1016H161.65ZM162.263 1017.79C162.676 1018.2 163.203 1018.4 163.77 1018.4V1016.4C163.723 1016.4 163.704 1016.39 163.701 1016.39C163.699 1016.39 163.697 1016.39 163.695 1016.39C163.692 1016.39 163.686 1016.38 163.677 1016.37L162.263 1017.79ZM163.77 1018.4C164.577 1018.4 165.355 1018.14 166.09 1017.69L165.05 1015.99C164.558 1016.29 164.136 1016.4 163.77 1016.4V1018.4ZM164.57 1016.84V1019.6H166.57V1016.84H164.57ZM165.028 1018.76C164.338 1019.21 163.683 1019.4 163.05 1019.4V1021.4C164.124 1021.4 165.149 1021.06 166.112 1020.44L165.028 1018.76ZM163.05 1019.4C161.694 1019.4 161.018 1019.11 160.717 1018.81L159.303 1020.23C160.175 1021.1 161.526 1021.4 163.05 1021.4V1019.4ZM160.733 1018.83C160.386 1018.47 160.134 1017.89 160.089 1016.99L158.091 1017.09C158.153 1018.32 158.514 1019.4 159.287 1020.21L160.733 1018.83ZM158.261 1016.48C157.636 1017.41 156.831 1018.12 155.835 1018.63L156.745 1020.41C158.042 1019.75 159.104 1018.81 159.919 1017.6L158.261 1016.48ZM155.826 1018.63C154.871 1019.13 153.741 1019.4 152.41 1019.4V1021.4C154.012 1021.4 155.469 1021.08 156.754 1020.41L155.826 1018.63ZM152.41 1019.4C150.566 1019.4 149.122 1018.87 147.999 1017.86L146.661 1019.34C148.205 1020.73 150.148 1021.4 152.41 1021.4V1019.4ZM148.014 1017.87C146.962 1016.88 146.37 1015.42 146.37 1013.32H144.37C144.37 1015.81 145.085 1017.86 146.646 1019.33L148.014 1017.87ZM146.37 1013.32V999.56H144.37V1013.32H146.37ZM145.37 1000.56H149.13V998.56H145.37V1000.56ZM148.13 999.56V1012.64H150.13V999.56H148.13ZM148.13 1012.64C148.13 1014.36 148.518 1015.83 149.469 1016.88C150.438 1017.95 151.83 1018.4 153.45 1018.4V1016.4C152.19 1016.4 151.422 1016.06 150.951 1015.54C150.462 1015 150.13 1014.1 150.13 1012.64H148.13ZM153.45 1018.4C154.575 1018.4 155.635 1018.09 156.613 1017.49L155.567 1015.79C154.892 1016.2 154.192 1016.4 153.45 1016.4V1018.4ZM156.601 1017.5C157.598 1016.91 158.398 1016.11 158.99 1015.11L157.27 1014.09C156.849 1014.8 156.289 1015.36 155.579 1015.78L156.601 1017.5ZM158.997 1015.1C159.593 1014.06 159.89 1012.93 159.89 1011.72H157.89C157.89 1012.59 157.68 1013.38 157.263 1014.1L158.997 1015.1ZM159.89 1011.72V999.56H157.89V1011.72H159.89ZM158.89 1000.56H162.65V998.56H158.89V1000.56ZM161.65 999.56V1016H163.65V999.56H161.65ZM185.137 1001L184.382 1001.66L184.389 1001.66L185.137 1001ZM186.737 1005.56L187.733 1005.64L187.737 1005.6V1005.56H186.737ZM186.617 1007.08V1008.08H187.541L187.613 1007.16L186.617 1007.08ZM183.297 1007.08H182.297V1008.08H183.297V1007.08ZM182.697 1004.08L181.859 1004.63L181.859 1004.63L182.697 1004.08ZM181.177 1002.68L180.685 1003.55L180.699 1003.56L180.714 1003.57L181.177 1002.68ZM176.337 1003.68L175.521 1003.1L175.521 1003.1L176.337 1003.68ZM175.257 1020V1021H176.257V1020H175.257ZM171.497 1020H170.497V1021H171.497V1020ZM171.497 999.56V998.56H170.497V999.56H171.497ZM174.177 999.56L175.16 999.379L175.009 998.56H174.177V999.56ZM174.737 1002.6L173.753 1002.78L175.694 1002.89L174.737 1002.6ZM175.817 1001L176.506 1001.72L176.506 1001.72L175.817 1001ZM177.897 999.68L177.52 998.753L177.51 998.758L177.897 999.68ZM180.697 1000.16C182.353 1000.16 183.537 1000.68 184.382 1001.66L185.891 1000.34C184.603 998.862 182.827 998.16 180.697 998.16V1000.16ZM184.389 1001.66C185.269 1002.65 185.737 1003.93 185.737 1005.56H187.737C187.737 1003.51 187.137 1001.75 185.884 1000.34L184.389 1001.66ZM185.74 1005.48L185.62 1007L187.613 1007.16L187.733 1005.64L185.74 1005.48ZM186.617 1006.08H183.297V1008.08H186.617V1006.08ZM184.297 1007.08V1006.2H182.297V1007.08H184.297ZM184.297 1006.2C184.297 1005.22 184.05 1004.32 183.534 1003.53L181.859 1004.63C182.143 1005.06 182.297 1005.58 182.297 1006.2H184.297ZM183.534 1003.53C183.046 1002.79 182.414 1002.2 181.639 1001.79L180.714 1003.57C181.166 1003.8 181.547 1004.15 181.859 1004.63L183.534 1003.53ZM181.669 1001.81C180.928 1001.39 180.147 1001.16 179.337 1001.16V1003.16C179.753 1003.16 180.199 1003.28 180.685 1003.55L181.669 1001.81ZM179.337 1001.16C177.744 1001.16 176.435 1001.81 175.521 1003.1L177.152 1004.26C177.678 1003.52 178.369 1003.16 179.337 1003.16V1001.16ZM175.521 1003.1C174.642 1004.34 174.257 1005.94 174.257 1007.8H176.257C176.257 1006.19 176.591 1005.05 177.152 1004.26L175.521 1003.1ZM174.257 1007.8V1020H176.257V1007.8H174.257ZM175.257 1019H171.497V1021H175.257V1019ZM172.497 1020V999.56H170.497V1020H172.497ZM171.497 1000.56H174.177V998.56H171.497V1000.56ZM173.193 999.741L173.753 1002.78L175.72 1002.42L175.16 999.379L173.193 999.741ZM175.694 1002.89C175.789 1002.57 176.025 1002.18 176.506 1001.72L175.127 1000.28C174.488 1000.88 174.004 1001.56 173.779 1002.31L175.694 1002.89ZM176.506 1001.72C176.965 1001.29 177.551 1000.91 178.283 1000.6L177.51 998.758C176.589 999.144 175.788 999.646 175.127 1000.28L176.506 1001.72ZM178.273 1000.61C178.995 1000.31 179.799 1000.16 180.697 1000.16V998.16C179.567 998.16 178.505 998.354 177.52 998.754L178.273 1000.61ZM204.946 1000.24L204.456 1001.11L204.466 1001.12L204.477 1001.12L204.946 1000.24ZM207.986 1003.24L208.862 1002.76L208.862 1002.76L207.986 1003.24ZM209.066 1010.64V1011.64H210.066V1010.64H209.066ZM194.786 1010.64V1009.64H193.761L193.786 1010.66L194.786 1010.64ZM196.306 1015.64L197.08 1015.01L197.08 1015.01L196.306 1015.64ZM204.306 1015.92L205.083 1016.55L205.083 1016.55L204.306 1015.92ZM205.506 1012.4V1011.4H204.506V1012.4H205.506ZM209.066 1012.4H210.066V1011.4H209.066V1012.4ZM207.946 1016.6L207.097 1016.07L207.093 1016.08L207.088 1016.09L207.946 1016.6ZM204.906 1019.4L204.451 1018.51L204.444 1018.51L204.906 1019.4ZM193.506 1017.64L192.757 1018.3L192.762 1018.31L192.767 1018.31L193.506 1017.64ZM192.146 1004.04L191.245 1003.61L191.245 1003.61L192.146 1004.04ZM196.586 1003.56L195.889 1002.84L195.879 1002.85L196.586 1003.56ZM194.866 1007.72L193.873 1007.6L193.743 1008.72H194.866V1007.72ZM205.346 1007.72V1008.72H206.346V1007.72H205.346ZM203.946 1003.56L203.229 1004.26L203.234 1004.26L203.239 1004.27L203.946 1003.56ZM200.506 1000.16C202.039 1000.16 203.346 1000.49 204.456 1001.11L205.436 999.368C203.986 998.553 202.333 998.16 200.506 998.16V1000.16ZM204.477 1001.12C205.611 1001.72 206.483 1002.58 207.11 1003.72L208.862 1002.76C208.049 1001.28 206.895 1000.14 205.415 999.357L204.477 1001.12ZM207.11 1003.72C207.736 1004.86 208.066 1006.21 208.066 1007.8H210.066C210.066 1005.93 209.676 1004.23 208.862 1002.76L207.11 1003.72ZM208.066 1007.8V1010.64H210.066V1007.8H208.066ZM209.066 1009.64H194.786V1011.64H209.066V1009.64ZM193.786 1010.66C193.843 1012.95 194.382 1014.87 195.532 1016.27L197.08 1015.01C196.31 1014.07 195.836 1012.65 195.786 1010.62L193.786 1010.66ZM195.532 1016.27C196.728 1017.74 198.474 1018.4 200.586 1018.4V1016.4C198.911 1016.4 197.804 1015.89 197.08 1015.01L195.532 1016.27ZM200.586 1018.4C202.463 1018.4 204.036 1017.84 205.083 1016.55L203.529 1015.29C202.976 1015.97 202.069 1016.4 200.586 1016.4V1018.4ZM205.083 1016.55C206.038 1015.37 206.506 1013.97 206.506 1012.4H204.506C204.506 1013.55 204.174 1014.49 203.529 1015.29L205.083 1016.55ZM205.506 1013.4H209.066V1011.4H205.506V1013.4ZM208.066 1012.4C208.066 1013.84 207.732 1015.05 207.097 1016.07L208.795 1017.13C209.653 1015.75 210.066 1014.16 210.066 1012.4H208.066ZM207.088 1016.09C206.47 1017.12 205.6 1017.92 204.451 1018.51L205.36 1020.29C206.826 1019.54 207.982 1018.48 208.803 1017.11L207.088 1016.09ZM204.444 1018.51C203.326 1019.1 202.022 1019.4 200.506 1019.4V1021.4C202.297 1021.4 203.926 1021.04 205.368 1020.29L204.444 1018.51ZM200.506 1019.4H200.346V1021.4H200.506V1019.4ZM200.346 1019.4C197.699 1019.4 195.705 1018.57 194.244 1016.97L192.767 1018.31C194.667 1020.39 197.233 1021.4 200.346 1021.4V1019.4ZM194.255 1016.98C192.8 1015.33 192.026 1013.11 192.026 1010.2H190.026C190.026 1013.48 190.906 1016.21 192.757 1018.3L194.255 1016.98ZM192.026 1010.2V1009.4H190.026V1010.2H192.026ZM192.026 1009.4C192.026 1007.5 192.376 1005.86 193.046 1004.47L191.245 1003.61C190.422 1005.31 190.026 1007.25 190.026 1009.4H192.026ZM193.046 1004.47C193.715 1003.09 194.655 1002.04 195.87 1001.29L194.822 999.588C193.263 1000.55 192.07 1001.9 191.245 1003.61L193.046 1004.47ZM195.87 1001.29C197.077 1000.55 198.517 1000.16 200.226 1000.16V998.16C198.202 998.16 196.388 998.624 194.822 999.588L195.87 1001.29ZM200.226 1000.16H200.506V998.16H200.226V1000.16ZM200.306 1001.16C198.564 1001.16 197.061 1001.7 195.889 1002.84L197.283 1004.28C198.031 1003.55 199.008 1003.16 200.306 1003.16V1001.16ZM195.879 1002.85C194.733 1004 194.102 1005.63 193.873 1007.6L195.859 1007.84C196.057 1006.13 196.572 1004.99 197.293 1004.27L195.879 1002.85ZM194.866 1008.72H205.346V1006.72H194.866V1008.72ZM206.346 1007.72V1007.24H204.346V1007.72H206.346ZM206.346 1007.24C206.346 1005.5 205.803 1004 204.653 1002.85L203.239 1004.27C203.956 1004.98 204.346 1005.94 204.346 1007.24H206.346ZM204.663 1002.86C203.536 1001.7 202.047 1001.16 200.306 1001.16V1003.16C201.605 1003.16 202.542 1003.55 203.229 1004.26L204.663 1002.86ZM242.738 993.48L243.22 992.604L242.738 993.48ZM246.418 997.28L245.53 997.739L245.534 997.747L245.539 997.756L246.418 997.28ZM247.738 1003.08V1004.08H248.738V1003.08H247.738ZM243.818 1003.08H242.818V1004.08H243.818V1003.08ZM242.098 997.68L241.346 998.34L241.353 998.347L242.098 997.68ZM231.658 997.96L232.418 998.61L232.424 998.603L231.658 997.96ZM231.618 1014.6L232.391 1013.97L232.391 1013.97L231.618 1014.6ZM242.178 1014.92L241.449 1014.24L241.441 1014.24L242.178 1014.92ZM243.978 1009.56V1008.56H242.978V1009.56H243.978ZM247.738 1009.56H248.738V1008.56H247.738V1009.56ZM246.418 1015.32L245.539 1014.84L245.533 1014.86L246.418 1015.32ZM242.738 1019.08L242.256 1018.2L242.256 1018.2L242.738 1019.08ZM228.818 1017.16L228.076 1017.83L228.084 1017.84L228.818 1017.16ZM228.818 995.44L228.08 994.765L228.076 994.77L228.818 995.44ZM237.138 993.16C239.131 993.16 240.827 993.57 242.256 994.356L243.22 992.604C241.449 991.63 239.411 991.16 237.138 991.16V993.16ZM242.256 994.356C243.679 995.139 244.765 996.258 245.53 997.739L247.307 996.821C246.364 994.995 244.998 993.581 243.22 992.604L242.256 994.356ZM245.539 997.756C246.324 999.209 246.738 1000.97 246.738 1003.08H248.738C248.738 1000.71 248.272 998.605 247.298 996.804L245.539 997.756ZM247.738 1002.08H243.818V1004.08H247.738V1002.08ZM244.818 1003.08C244.818 1000.6 244.204 998.532 242.843 997.013L241.353 998.347C242.286 999.388 242.818 1000.92 242.818 1003.08H244.818ZM242.85 997.02C241.469 995.446 239.511 994.72 237.138 994.72V996.72C239.086 996.72 240.434 997.3 241.347 998.34L242.85 997.02ZM237.138 994.72C234.517 994.72 232.379 995.546 230.892 997.317L232.424 998.603C233.444 997.387 234.959 996.72 237.138 996.72V994.72ZM230.898 997.31C229.429 999.029 228.778 1001.48 228.778 1004.48H230.778C230.778 1001.72 231.38 999.824 232.418 998.61L230.898 997.31ZM228.778 1004.48V1008.08H230.778V1004.48H228.778ZM228.778 1008.08C228.778 1011.06 229.416 1013.49 230.845 1015.23L232.391 1013.97C231.367 1012.72 230.778 1010.81 230.778 1008.08H228.778ZM230.845 1015.23C232.307 1017.01 234.438 1017.84 237.058 1017.84V1015.84C234.878 1015.84 233.382 1015.17 232.391 1013.97L230.845 1015.23ZM237.058 1017.84C239.492 1017.84 241.501 1017.14 242.915 1015.6L241.441 1014.24C240.508 1015.26 239.104 1015.84 237.058 1015.84V1017.84ZM242.908 1015.6C244.33 1014.09 244.978 1012.03 244.978 1009.56H242.978C242.978 1011.68 242.427 1013.19 241.449 1014.24L242.908 1015.6ZM243.978 1010.56H247.738V1008.56H243.978V1010.56ZM246.738 1009.56C246.738 1011.64 246.325 1013.39 245.539 1014.84L247.298 1015.8C248.271 1014 248.738 1011.91 248.738 1009.56H246.738ZM245.533 1014.86C244.77 1016.31 243.683 1017.42 242.256 1018.2L243.22 1019.96C244.993 1018.98 246.36 1017.58 247.304 1015.78L245.533 1014.86ZM242.256 1018.2C240.827 1018.99 239.131 1019.4 237.138 1019.4V1021.4C239.411 1021.4 241.449 1020.93 243.22 1019.96L242.256 1018.2ZM237.138 1019.4C233.808 1019.4 231.324 1018.39 229.552 1016.48L228.084 1017.84C230.312 1020.25 233.375 1021.4 237.138 1021.4V1019.4ZM229.561 1016.49C227.799 1014.54 226.858 1011.78 226.858 1008.08H224.858C224.858 1012.11 225.89 1015.41 228.076 1017.83L229.561 1016.49ZM226.858 1008.08V1004.48H224.858V1008.08H226.858ZM226.858 1004.48C226.858 1000.81 227.798 998.063 229.561 996.11L228.076 994.77C225.891 997.191 224.858 1000.47 224.858 1004.48H226.858ZM229.556 996.115C231.33 994.176 233.812 993.16 237.138 993.16V991.16C233.371 991.16 230.307 992.331 228.08 994.765L229.556 996.115ZM268.462 1000.76L267.829 1001.53L267.837 1001.54L268.462 1000.76ZM270.782 1017.08L270.034 1017.74L270.054 1017.77L270.074 1017.79L270.782 1017.08ZM273.422 1016.84H274.422V1015.06L272.902 1015.99L273.422 1016.84ZM273.422 1019.6L273.929 1020.46L274.422 1020.17V1019.6H273.422ZM267.782 1019.44L267.016 1020.08L267.022 1020.09L267.029 1020.1L267.782 1019.44ZM266.862 1016.72L267.86 1016.67L267.72 1013.66L266.032 1016.16L266.862 1016.72ZM254.662 1018.96L253.992 1019.7L254.001 1019.71L254.011 1019.72L254.662 1018.96ZM254.302 1010.44L255.04 1011.11L255.049 1011.1L254.302 1010.44ZM258.542 1008.36L258.33 1007.38L258.33 1007.38L258.542 1008.36ZM266.702 1007.72V1008.72H267.702V1007.72H266.702ZM265.502 1003L264.928 1003.82L264.937 1003.83L264.947 1003.83L265.502 1003ZM257.462 1005.84V1006.84H258.462V1005.84H257.462ZM253.782 1005.84L252.792 1005.98L252.914 1006.84H253.782V1005.84ZM254.822 1001.88L255.564 1002.55L255.564 1002.55L254.822 1001.88ZM257.862 999.92L258.213 1000.86L258.221 1000.85L258.23 1000.85L257.862 999.92ZM266.702 1010.64H267.702V1009.64H266.702V1010.64ZM260.342 1011.08L260.527 1012.06L260.534 1012.06L260.541 1012.06L260.342 1011.08ZM257.502 1012.32L258.261 1012.97L258.261 1012.97L257.502 1012.32ZM263.782 1016.68L264.26 1017.56L264.271 1017.55L264.281 1017.55L263.782 1016.68ZM265.902 1014.56L265.04 1014.05L265.04 1014.05L265.902 1014.56ZM262.462 1000.16C265.053 1000.16 266.78 1000.68 267.829 1001.53L269.094 999.985C267.53 998.708 265.257 998.16 262.462 998.16V1000.16ZM267.837 1001.54C268.888 1002.38 269.462 1003.61 269.462 1005.4H271.462C271.462 1003.13 270.702 1001.27 269.086 999.979L267.837 1001.54ZM269.462 1005.4V1016H271.462V1005.4H269.462ZM269.462 1016C269.462 1016.61 269.594 1017.25 270.034 1017.74L271.529 1016.42C271.543 1016.43 271.462 1016.35 271.462 1016H269.462ZM270.074 1017.79C270.488 1018.2 271.014 1018.4 271.582 1018.4V1016.4C271.534 1016.4 271.515 1016.39 271.513 1016.39C271.511 1016.39 271.509 1016.39 271.506 1016.39C271.504 1016.39 271.498 1016.38 271.489 1016.37L270.074 1017.79ZM271.582 1018.4C272.408 1018.4 273.199 1018.15 273.942 1017.69L272.902 1015.99C272.418 1016.28 271.982 1016.4 271.582 1016.4V1018.4ZM272.422 1016.84V1019.6H274.422V1016.84H272.422ZM272.915 1018.74C272.175 1019.17 271.327 1019.4 270.342 1019.4V1021.4C271.65 1021.4 272.855 1021.09 273.929 1020.46L272.915 1018.74ZM270.342 1019.4C269.378 1019.4 268.844 1019.14 268.534 1018.78L267.029 1020.1C267.839 1021.02 269.012 1021.4 270.342 1021.4V1019.4ZM268.547 1018.8C268.167 1018.34 267.907 1017.67 267.86 1016.67L265.863 1016.77C265.923 1018.06 266.276 1019.2 267.016 1020.08L268.547 1018.8ZM266.032 1016.16C264.577 1018.32 262.511 1019.4 259.702 1019.4V1021.4C263.133 1021.4 265.84 1020.03 267.691 1017.28L266.032 1016.16ZM259.702 1019.4C257.581 1019.4 256.178 1018.94 255.312 1018.2L254.011 1019.72C255.386 1020.9 257.342 1021.4 259.702 1021.4V1019.4ZM255.332 1018.22C254.526 1017.49 254.022 1016.27 254.022 1014.32H252.022C252.022 1016.59 252.611 1018.46 253.992 1019.7L255.332 1018.22ZM254.022 1014.32C254.022 1012.84 254.401 1011.81 255.04 1011.11L253.564 1009.77C252.495 1010.93 252.022 1012.5 252.022 1014.32H254.022ZM255.049 1011.1C255.701 1010.37 256.877 1009.74 258.753 1009.34L258.33 1007.38C256.26 1007.83 254.608 1008.59 253.554 1009.78L255.049 1011.1ZM258.753 1009.34C260.625 1008.93 263.263 1008.72 266.702 1008.72V1006.72C263.207 1006.72 260.405 1006.93 258.33 1007.38L258.753 1009.34ZM267.702 1007.72V1005.84H265.702V1007.72H267.702ZM267.702 1005.84C267.702 1004.3 267.24 1002.96 266.056 1002.17L264.947 1003.83C265.363 1004.11 265.702 1004.66 265.702 1005.84H267.702ZM266.075 1002.18C265.037 1001.45 263.641 1001.16 262.022 1001.16V1003.16C263.443 1003.16 264.366 1003.43 264.928 1003.82L266.075 1002.18ZM262.022 1001.16C260.469 1001.16 259.119 1001.46 258.088 1002.18L259.235 1003.82C259.804 1003.42 260.694 1003.16 262.022 1003.16V1001.16ZM258.088 1002.18C257.009 1002.94 256.462 1004.03 256.462 1005.36H258.462C258.462 1004.66 258.714 1004.18 259.235 1003.82L258.088 1002.18ZM256.462 1005.36V1005.84H258.462V1005.36H256.462ZM257.462 1004.84H253.782V1006.84H257.462V1004.84ZM254.772 1005.7C254.727 1005.38 254.702 1004.99 254.702 1004.52H252.702C252.702 1005.06 252.73 1005.55 252.792 1005.98L254.772 1005.7ZM254.702 1004.52C254.702 1003.88 254.949 1003.23 255.564 1002.55L254.079 1001.21C253.201 1002.18 252.702 1003.29 252.702 1004.52H254.702ZM255.564 1002.55C256.181 1001.87 257.049 1001.29 258.213 1000.86L257.51 998.984C256.114 999.507 254.955 1000.24 254.079 1001.21L255.564 1002.55ZM258.23 1000.85C259.379 1000.39 260.665 1000.16 262.102 1000.16V998.16C260.444 998.16 258.904 998.432 257.494 998.99L258.23 1000.85ZM262.102 1000.16H262.462V998.16H262.102V1000.16ZM266.702 1009.64C263.883 1009.64 261.682 1009.79 260.142 1010.1L260.541 1012.06C261.881 1011.79 263.92 1011.64 266.702 1011.64V1009.64ZM260.156 1010.1C258.701 1010.37 257.457 1010.84 256.742 1011.67L258.261 1012.97C258.506 1012.68 259.156 1012.32 260.527 1012.06L260.156 1010.1ZM256.742 1011.67C256.061 1012.46 255.782 1013.5 255.782 1014.64H257.782C257.782 1013.81 257.982 1013.3 258.261 1012.97L256.742 1011.67ZM255.782 1014.64C255.782 1015.86 256.27 1016.88 257.282 1017.55C258.222 1018.16 259.504 1018.4 260.982 1018.4V1016.4C259.659 1016.4 258.841 1016.18 258.381 1015.87C257.993 1015.62 257.782 1015.26 257.782 1014.64H255.782ZM260.982 1018.4C262.138 1018.4 263.236 1018.12 264.26 1017.56L263.303 1015.8C262.567 1016.2 261.798 1016.4 260.982 1016.4V1018.4ZM264.281 1017.55C265.316 1016.95 266.146 1016.12 266.763 1015.07L265.04 1014.05C264.591 1014.82 264.007 1015.4 263.283 1015.81L264.281 1017.55ZM266.763 1015.07C267.397 1013.99 267.702 1012.77 267.702 1011.44H265.702C265.702 1012.46 265.472 1013.32 265.04 1014.05L266.763 1015.07ZM267.702 1011.44V1010.64H265.702V1011.44H267.702ZM294.74 1002L293.949 1002.61L293.949 1002.61L294.74 1002ZM294.74 1017.68L293.962 1017.05L293.957 1017.06L294.74 1017.68ZM282.78 1017.4L283.597 1016.82L281.78 1014.25V1017.4H282.78ZM282.78 1027.24V1028.24H283.78V1027.24H282.78ZM279.02 1027.24H278.02V1028.24H279.02V1027.24ZM279.02 999.56V998.56H278.02V999.56H279.02ZM281.82 999.56L282.797 999.346L282.625 998.56H281.82V999.56ZM282.34 1002.36L281.352 1002.52L281.734 1004.93L283.154 1002.94L282.34 1002.36ZM283.98 1004.04L283.153 1003.48L283.149 1003.48L283.145 1003.49L283.98 1004.04ZM284.02 1015.56L283.193 1016.12L283.2 1016.13L283.207 1016.14L284.02 1015.56ZM291.9 1015.52L292.727 1016.08L292.727 1016.08L291.9 1015.52ZM291.86 1004L291.039 1004.57L291.043 1004.58L291.047 1004.58L291.86 1004ZM288.66 1000.16C290.966 1000.16 292.689 1000.99 293.949 1002.61L295.531 1001.39C293.858 999.228 291.527 998.16 288.66 998.16V1000.16ZM293.949 1002.61C295.237 1004.27 295.94 1006.63 295.94 1009.8H297.94C297.94 1006.35 297.176 1003.51 295.531 1001.39L293.949 1002.61ZM295.94 1009.8V1010.24H297.94V1009.8H295.94ZM295.94 1010.24C295.94 1013.24 295.242 1015.47 293.962 1017.05L295.518 1018.31C297.171 1016.26 297.94 1013.54 297.94 1010.24H295.94ZM293.957 1017.06C292.733 1018.6 291.013 1019.4 288.66 1019.4V1021.4C291.534 1021.4 293.867 1020.39 295.523 1018.3L293.957 1017.06ZM288.66 1019.4C286.469 1019.4 284.817 1018.55 283.597 1016.82L281.963 1017.98C283.569 1020.25 285.838 1021.4 288.66 1021.4V1019.4ZM281.78 1017.4V1027.24H283.78V1017.4H281.78ZM282.78 1026.24H279.02V1028.24H282.78V1026.24ZM280.02 1027.24V999.56H278.02V1027.24H280.02ZM279.02 1000.56H281.82V998.56H279.02V1000.56ZM280.843 999.774C281.025 1000.6 281.195 1001.52 281.352 1002.52L283.328 1002.2C283.165 1001.17 282.988 1000.22 282.797 999.346L280.843 999.774ZM283.154 1002.94C284.481 1001.08 286.279 1000.16 288.66 1000.16V998.16C285.654 998.16 283.239 999.374 281.526 1001.78L283.154 1002.94ZM287.98 1001.16C285.91 1001.16 284.231 1001.89 283.153 1003.48L284.807 1004.6C285.435 1003.68 286.423 1003.16 287.98 1003.16V1001.16ZM283.145 1003.49C282.159 1004.98 281.74 1007.13 281.74 1009.76H283.74C283.74 1007.27 284.148 1005.6 284.815 1004.59L283.145 1003.49ZM281.74 1009.76C281.74 1012.45 282.172 1014.62 283.193 1016.12L284.847 1015C284.162 1013.99 283.74 1012.3 283.74 1009.76H281.74ZM283.207 1016.14C284.308 1017.68 285.959 1018.4 287.98 1018.4V1016.4C286.481 1016.4 285.492 1015.9 284.833 1014.98L283.207 1016.14ZM287.98 1018.4C290.009 1018.4 291.655 1017.66 292.727 1016.08L291.073 1014.96C290.438 1015.89 289.471 1016.4 287.98 1016.4V1018.4ZM292.727 1016.08C293.748 1014.58 294.18 1012.42 294.18 1009.76H292.18C292.18 1012.27 291.759 1013.95 291.073 1014.96L292.727 1016.08ZM294.18 1009.76C294.18 1007.07 293.735 1004.9 292.673 1003.42L291.047 1004.58C291.745 1005.56 292.18 1007.22 292.18 1009.76H294.18ZM292.681 1003.43C291.609 1001.89 289.98 1001.16 287.98 1001.16V1003.16C289.446 1003.16 290.405 1003.66 291.039 1004.57L292.681 1003.43ZM307.38 991.2H308.38V990.2H307.38V991.2ZM307.38 994.68V995.68H308.38V994.68H307.38ZM303.46 994.68H302.46V995.68H303.46V994.68ZM303.46 991.2V990.2H302.46V991.2H303.46ZM307.3 999.56H308.3V998.56H307.3V999.56ZM307.3 1020V1021H308.3V1020H307.3ZM303.54 1020H302.54V1021H303.54V1020ZM303.54 999.56V998.56H302.54V999.56H303.54ZM306.38 991.2V994.68H308.38V991.2H306.38ZM307.38 993.68H303.46V995.68H307.38V993.68ZM304.46 994.68V991.2H302.46V994.68H304.46ZM303.46 992.2H307.38V990.2H303.46V992.2ZM306.3 999.56V1020H308.3V999.56H306.3ZM307.3 1019H303.54V1021H307.3V1019ZM304.54 1020V999.56H302.54V1020H304.54ZM303.54 1000.56H307.3V998.56H303.54V1000.56ZM319.531 999.56H318.531V1000.56H319.531V999.56ZM324.291 999.56H325.291V998.56H324.291V999.56ZM324.291 1002.56V1003.56H325.291V1002.56H324.291ZM319.531 1002.56V1001.56H318.531V1002.56H319.531ZM320.091 1016.84L320.843 1016.18L320.843 1016.18L320.091 1016.84ZM324.291 1016.88H325.291V1015.38L323.906 1015.96L324.291 1016.88ZM324.291 1019.68L324.738 1020.57L325.291 1020.3V1019.68H324.291ZM316.971 1019L316.212 1019.65L316.217 1019.66L316.222 1019.66L316.971 1019ZM315.771 1002.56H316.771V1001.56H315.771V1002.56ZM313.531 1002.56H312.531V1003.56H313.531V1002.56ZM313.531 999.56V998.56H312.531V999.56H313.531ZM315.891 999.56V1000.56H316.714L316.872 999.753L315.891 999.56ZM317.171 993.04V992.04H316.348L316.19 992.847L317.171 993.04ZM319.531 993.04H320.531V992.04H319.531V993.04ZM319.531 1000.56H324.291V998.56H319.531V1000.56ZM323.291 999.56V1002.56H325.291V999.56H323.291ZM324.291 1001.56H319.531V1003.56H324.291V1001.56ZM318.531 1002.56V1014.76H320.531V1002.56H318.531ZM318.531 1014.76C318.531 1015.81 318.727 1016.8 319.338 1017.5L320.843 1016.18C320.708 1016.03 320.531 1015.63 320.531 1014.76H318.531ZM319.338 1017.5C319.964 1018.21 320.859 1018.48 321.811 1018.48V1016.48C321.216 1016.48 320.965 1016.32 320.843 1016.18L319.338 1017.5ZM321.811 1018.48C322.685 1018.48 323.649 1018.23 324.676 1017.8L323.906 1015.96C323.013 1016.33 322.323 1016.48 321.811 1016.48V1018.48ZM323.291 1016.88V1019.68H325.291V1016.88H323.291ZM323.844 1018.79C323.068 1019.17 321.996 1019.4 320.571 1019.4V1021.4C322.186 1021.4 323.594 1021.15 324.738 1020.57L323.844 1018.79ZM320.571 1019.4C319.203 1019.4 318.309 1019 317.72 1018.34L316.222 1019.66C317.286 1020.86 318.792 1021.4 320.571 1021.4V1019.4ZM317.73 1018.35C317.159 1017.68 316.771 1016.49 316.771 1014.56H314.771C314.771 1016.68 315.183 1018.45 316.212 1019.65L317.73 1018.35ZM316.771 1014.56V1002.56H314.771V1014.56H316.771ZM315.771 1001.56H313.531V1003.56H315.771V1001.56ZM314.531 1002.56V999.56H312.531V1002.56H314.531ZM313.531 1000.56H315.891V998.56H313.531V1000.56ZM316.872 999.753L318.152 993.233L316.19 992.847L314.91 999.367L316.872 999.753ZM317.171 994.04H319.531V992.04H317.171V994.04ZM318.531 993.04V999.56H320.531V993.04H318.531ZM344.199 1000.76L343.567 1001.53L343.574 1001.54L344.199 1000.76ZM346.519 1017.08L345.772 1017.74L345.791 1017.77L345.812 1017.79L346.519 1017.08ZM349.159 1016.84H350.159V1015.06L348.639 1015.99L349.159 1016.84ZM349.159 1019.6L349.666 1020.46L350.159 1020.17V1019.6H349.159ZM343.519 1019.44L342.753 1020.08L342.76 1020.09L342.766 1020.1L343.519 1019.44ZM342.599 1016.72L343.598 1016.67L343.458 1013.66L341.77 1016.16L342.599 1016.72ZM330.399 1018.96L329.729 1019.7L329.739 1019.71L329.748 1019.72L330.399 1018.96ZM330.039 1010.44L330.777 1011.11L330.786 1011.1L330.039 1010.44ZM334.279 1008.36L334.068 1007.38L334.068 1007.38L334.279 1008.36ZM342.439 1007.72V1008.72H343.439V1007.72H342.439ZM341.239 1003L340.666 1003.82L340.675 1003.83L340.684 1003.83L341.239 1003ZM333.199 1005.84V1006.84H334.199V1005.84H333.199ZM329.519 1005.84L328.529 1005.98L328.652 1006.84H329.519V1005.84ZM330.559 1001.88L331.301 1002.55L331.301 1002.55L330.559 1001.88ZM333.599 999.92L333.95 1000.86L333.959 1000.85L333.967 1000.85L333.599 999.92ZM342.439 1010.64H343.439V1009.64H342.439V1010.64ZM336.079 1011.08L336.264 1012.06L336.272 1012.06L336.279 1012.06L336.079 1011.08ZM333.239 1012.32L333.998 1012.97L333.998 1012.97L333.239 1012.32ZM339.519 1016.68L339.998 1017.56L340.008 1017.55L340.018 1017.55L339.519 1016.68ZM341.639 1014.56L340.777 1014.05L340.777 1014.05L341.639 1014.56ZM338.199 1000.16C340.791 1000.16 342.518 1000.68 343.567 1001.53L344.831 999.985C343.267 998.708 340.994 998.16 338.199 998.16V1000.16ZM343.574 1001.54C344.625 1002.38 345.199 1003.61 345.199 1005.4H347.199C347.199 1003.13 346.44 1001.27 344.824 999.979L343.574 1001.54ZM345.199 1005.4V1016H347.199V1005.4H345.199ZM345.199 1016C345.199 1016.61 345.331 1017.25 345.772 1017.74L347.266 1016.42C347.28 1016.43 347.199 1016.35 347.199 1016H345.199ZM345.812 1017.79C346.225 1018.2 346.752 1018.4 347.319 1018.4V1016.4C347.272 1016.4 347.253 1016.39 347.25 1016.39C347.248 1016.39 347.246 1016.39 347.244 1016.39C347.241 1016.39 347.235 1016.38 347.226 1016.37L345.812 1017.79ZM347.319 1018.4C348.145 1018.4 348.936 1018.15 349.679 1017.69L348.639 1015.99C348.155 1016.28 347.72 1016.4 347.319 1016.4V1018.4ZM348.159 1016.84V1019.6H350.159V1016.84H348.159ZM348.652 1018.74C347.913 1019.17 347.064 1019.4 346.079 1019.4V1021.4C347.387 1021.4 348.592 1021.09 349.666 1020.46L348.652 1018.74ZM346.079 1019.4C345.115 1019.4 344.582 1019.14 344.272 1018.78L342.766 1020.1C343.576 1021.02 344.75 1021.4 346.079 1021.4V1019.4ZM344.285 1018.8C343.905 1018.34 343.644 1017.67 343.598 1016.67L341.6 1016.77C341.66 1018.06 342.013 1019.2 342.753 1020.08L344.285 1018.8ZM341.77 1016.16C340.314 1018.32 338.248 1019.4 335.439 1019.4V1021.4C338.87 1021.4 341.577 1020.03 343.428 1017.28L341.77 1016.16ZM335.439 1019.4C333.319 1019.4 331.915 1018.94 331.05 1018.2L329.748 1019.72C331.123 1020.9 333.079 1021.4 335.439 1021.4V1019.4ZM331.069 1018.22C330.263 1017.49 329.759 1016.27 329.759 1014.32H327.759C327.759 1016.59 328.348 1018.46 329.729 1019.7L331.069 1018.22ZM329.759 1014.32C329.759 1012.84 330.139 1011.81 330.777 1011.11L329.301 1009.77C328.233 1010.93 327.759 1012.5 327.759 1014.32H329.759ZM330.786 1011.1C331.439 1010.37 332.614 1009.74 334.49 1009.34L334.068 1007.38C331.997 1007.83 330.346 1008.59 329.292 1009.78L330.786 1011.1ZM334.49 1009.34C336.362 1008.93 339.001 1008.72 342.439 1008.72V1006.72C338.944 1006.72 336.143 1006.93 334.068 1007.38L334.49 1009.34ZM343.439 1007.72V1005.84H341.439V1007.72H343.439ZM343.439 1005.84C343.439 1004.3 342.977 1002.96 341.794 1002.17L340.684 1003.83C341.101 1004.11 341.439 1004.66 341.439 1005.84H343.439ZM341.813 1002.18C340.775 1001.45 339.378 1001.16 337.759 1001.16V1003.16C339.18 1003.16 340.104 1003.43 340.666 1003.82L341.813 1002.18ZM337.759 1001.16C336.206 1001.16 334.856 1001.46 333.826 1002.18L334.973 1003.82C335.542 1003.42 336.432 1003.16 337.759 1003.16V1001.16ZM333.826 1002.18C332.747 1002.94 332.199 1004.03 332.199 1005.36H334.199C334.199 1004.66 334.452 1004.18 334.973 1003.82L333.826 1002.18ZM332.199 1005.36V1005.84H334.199V1005.36H332.199ZM333.199 1004.84H329.519V1006.84H333.199V1004.84ZM330.509 1005.7C330.464 1005.38 330.439 1004.99 330.439 1004.52H328.439C328.439 1005.06 328.467 1005.55 328.529 1005.98L330.509 1005.7ZM330.439 1004.52C330.439 1003.88 330.687 1003.23 331.301 1002.55L329.817 1001.21C328.938 1002.18 328.439 1003.29 328.439 1004.52H330.439ZM331.301 1002.55C331.919 1001.87 332.786 1001.29 333.95 1000.86L333.248 998.984C331.852 999.507 330.692 1000.24 329.817 1001.21L331.301 1002.55ZM333.967 1000.85C335.116 1000.39 336.403 1000.16 337.839 1000.16V998.16C336.182 998.16 334.642 998.432 333.231 998.99L333.967 1000.85ZM337.839 1000.16H338.199V998.16H337.839V1000.16ZM342.439 1009.64C339.621 1009.64 337.42 1009.79 335.879 1010.1L336.279 1012.06C337.618 1011.79 339.657 1011.64 342.439 1011.64V1009.64ZM335.894 1010.1C334.438 1010.37 333.195 1010.84 332.48 1011.67L333.998 1012.97C334.244 1012.68 334.893 1012.32 336.264 1012.06L335.894 1010.1ZM332.48 1011.67C331.799 1012.46 331.519 1013.5 331.519 1014.64H333.519C333.519 1013.81 333.719 1013.3 333.998 1012.97L332.48 1011.67ZM331.519 1014.64C331.519 1015.86 332.007 1016.88 333.02 1017.55C333.959 1018.16 335.241 1018.4 336.719 1018.4V1016.4C335.397 1016.4 334.579 1016.18 334.118 1015.87C333.731 1015.62 333.519 1015.26 333.519 1014.64H331.519ZM336.719 1018.4C337.876 1018.4 338.973 1018.12 339.998 1017.56L339.04 1015.8C338.305 1016.2 337.536 1016.4 336.719 1016.4V1018.4ZM340.018 1017.55C341.054 1016.95 341.883 1016.12 342.501 1015.07L340.777 1014.05C340.328 1014.82 339.744 1015.4 339.02 1015.81L340.018 1017.55ZM342.501 1015.07C343.135 1013.99 343.439 1012.77 343.439 1011.44H341.439C341.439 1012.46 341.21 1013.32 340.777 1014.05L342.501 1015.07ZM343.439 1011.44V1010.64H341.439V1011.44H343.439ZM358.678 991.2H359.678V990.2H358.678V991.2ZM358.678 1020V1021H359.678V1020H358.678ZM354.918 1020H353.918V1021H354.918V1020ZM354.918 991.2V990.2H353.918V991.2H354.918ZM357.678 991.2V1020H359.678V991.2H357.678ZM358.678 1019H354.918V1021H358.678V1019ZM355.918 1020V991.2H353.918V1020H355.918ZM354.918 992.2H358.678V990.2H354.918V992.2ZM391.266 993.12L391.692 992.215L391.692 992.215L391.266 993.12ZM394.426 995.8L393.588 996.346L393.594 996.355L394.426 995.8ZM394.386 1003.36L393.599 1002.74L393.597 1002.75L394.386 1003.36ZM391.186 1005.76L390.767 1004.85L389.955 1005.23L390.238 1006.08L391.186 1005.76ZM391.226 1005.88L390.278 1006.2L390.439 1006.68L390.925 1006.83L391.226 1005.88ZM394.826 1008.32L394.033 1008.93L394.041 1008.94L394.049 1008.95L394.826 1008.32ZM394.946 1016.64L394.129 1016.06L394.129 1016.06L394.946 1016.64ZM391.506 1019.4L391.092 1018.49L391.092 1018.49L391.506 1019.4ZM379.186 1018.24L378.535 1019L378.541 1019L378.547 1019.01L379.186 1018.24ZM376.626 1011.92V1010.92H375.626V1011.92H376.626ZM380.546 1011.92H381.546V1010.92H380.546V1011.92ZM382.026 1015.72L381.409 1016.51L381.416 1016.51L381.423 1016.52L382.026 1015.72ZM390.666 1015.72L391.249 1016.53L391.253 1016.53L390.666 1015.72ZM383.106 1007.84H382.106V1008.84H383.106V1007.84ZM383.106 1004.24V1003.24H382.106V1004.24H383.106ZM390.106 1003.12L389.513 1002.31L389.503 1002.32L390.106 1003.12ZM390.146 996.8L389.546 997.6L389.557 997.608L390.146 996.8ZM382.586 996.84L381.962 996.059L381.962 996.059L382.586 996.84ZM381.186 1000.32V1001.32H382.186V1000.32H381.186ZM377.266 1000.32H376.266V1001.32H377.266V1000.32ZM378.426 995.72L377.606 995.148L377.603 995.152L378.426 995.72ZM381.666 993.08L381.262 992.165L381.255 992.168L381.666 993.08ZM386.626 993.16C388.235 993.16 389.633 993.456 390.84 994.025L391.692 992.215C390.18 991.504 388.484 991.16 386.626 991.16V993.16ZM390.84 994.025C392.049 994.594 392.953 995.37 393.588 996.346L395.264 995.254C394.406 993.937 393.203 992.926 391.692 992.215L390.84 994.025ZM393.594 996.355C394.226 997.302 394.546 998.374 394.546 999.6H396.546C396.546 998 396.12 996.538 395.258 995.245L393.594 996.355ZM394.546 999.6C394.546 1000.95 394.207 1001.97 393.599 1002.74L395.173 1003.98C396.112 1002.78 396.546 1001.29 396.546 999.6H394.546ZM393.597 1002.75C392.97 1003.55 392.045 1004.26 390.767 1004.85L391.605 1006.67C393.101 1005.98 394.309 1005.09 395.176 1003.97L393.597 1002.75ZM390.238 1006.08L390.278 1006.2L392.175 1005.56L392.135 1005.44L390.238 1006.08ZM390.925 1006.83C392.271 1007.26 393.291 1007.96 394.033 1008.93L395.62 1007.71C394.602 1006.39 393.222 1005.46 391.527 1004.93L390.925 1006.83ZM394.049 1008.95C394.782 1009.85 395.186 1011.06 395.186 1012.64H397.186C397.186 1010.7 396.684 1009.03 395.604 1007.69L394.049 1008.95ZM395.186 1012.64C395.186 1013.94 394.832 1015.07 394.129 1016.06L395.764 1017.22C396.714 1015.87 397.186 1014.33 397.186 1012.64H395.186ZM394.129 1016.06C393.417 1017.07 392.418 1017.89 391.092 1018.49L391.92 1020.31C393.528 1019.58 394.823 1018.55 395.764 1017.22L394.129 1016.06ZM391.092 1018.49C389.769 1019.09 388.286 1019.4 386.626 1019.4V1021.4C388.54 1021.4 390.31 1021.04 391.92 1020.31L391.092 1018.49ZM386.626 1019.4H386.146V1021.4H386.626V1019.4ZM386.146 1019.4C383.404 1019.4 381.332 1018.72 379.825 1017.47L378.547 1019.01C380.507 1020.64 383.075 1021.4 386.146 1021.4V1019.4ZM379.838 1017.48C378.382 1016.23 377.626 1014.52 377.626 1012.24H375.626C375.626 1015.02 376.577 1017.32 378.535 1019L379.838 1017.48ZM377.626 1012.24V1011.92H375.626V1012.24H377.626ZM376.626 1012.92H380.546V1010.92H376.626V1012.92ZM379.546 1011.92V1012.36H381.546V1011.92H379.546ZM379.546 1012.36C379.546 1014.08 380.138 1015.51 381.409 1016.51L382.643 1014.93C381.941 1014.38 381.546 1013.58 381.546 1012.36H379.546ZM381.423 1016.52C382.65 1017.45 384.31 1017.84 386.266 1017.84V1015.84C384.543 1015.84 383.376 1015.49 382.63 1014.92L381.423 1016.52ZM386.266 1017.84C388.274 1017.84 389.976 1017.45 391.249 1016.53L390.083 1014.91C389.277 1015.49 388.046 1015.84 386.266 1015.84V1017.84ZM391.253 1016.53C392.627 1015.53 393.266 1014.04 393.266 1012.24H391.266C391.266 1013.53 390.839 1014.36 390.079 1014.91L391.253 1016.53ZM393.266 1012.24C393.266 1010.51 392.642 1009.08 391.308 1008.13C390.035 1007.22 388.248 1006.84 386.106 1006.84V1008.84C388.071 1008.84 389.365 1009.2 390.145 1009.75C390.864 1010.27 391.266 1011.04 391.266 1012.24H393.266ZM386.106 1006.84H383.106V1008.84H386.106V1006.84ZM384.106 1007.84V1004.24H382.106V1007.84H384.106ZM383.106 1005.24H386.186V1003.24H383.106V1005.24ZM386.186 1005.24C387.962 1005.24 389.502 1004.83 390.71 1003.92L389.503 1002.32C388.738 1002.9 387.664 1003.24 386.186 1003.24V1005.24ZM390.699 1003.93C391.997 1002.97 392.626 1001.59 392.626 999.92H390.626C390.626 1001.03 390.242 1001.78 389.513 1002.31L390.699 1003.93ZM392.626 999.92C392.626 998.283 392.012 996.924 390.736 995.992L389.557 997.608C390.253 998.116 390.626 998.837 390.626 999.92H392.626ZM390.746 996C389.561 995.111 388.033 994.72 386.266 994.72V996.72C387.753 996.72 388.812 997.049 389.546 997.6L390.746 996ZM386.266 994.72C384.582 994.72 383.116 995.136 381.962 996.059L383.211 997.621C383.924 997.051 384.911 996.72 386.266 996.72V994.72ZM381.962 996.059C380.762 997.019 380.186 998.363 380.186 999.96H382.186C382.186 998.891 382.544 998.154 383.211 997.621L381.962 996.059ZM380.186 999.96V1000.32H382.186V999.96H380.186ZM381.186 999.32H377.266V1001.32H381.186V999.32ZM378.266 1000.32V999.6H376.266V1000.32H378.266ZM378.266 999.6C378.266 998.32 378.6 997.228 379.249 996.288L377.603 995.152C376.706 996.452 376.266 997.947 376.266 999.6H378.266ZM379.246 996.292C379.936 995.303 380.87 994.536 382.077 993.992L381.255 992.168C379.742 992.851 378.516 993.843 377.606 995.148L379.246 996.292ZM382.071 993.995C383.317 993.443 384.71 993.16 386.266 993.16V991.16C384.462 991.16 382.789 991.49 381.262 992.165L382.071 993.995ZM386.266 993.16H386.626V991.16H386.266V993.16ZM417.236 993.36L416.736 994.226L416.743 994.23L417.236 993.36ZM420.596 996.68L419.732 997.185L419.732 997.185L420.596 996.68ZM420.636 1015.88L421.502 1016.38L421.506 1016.37L420.636 1015.88ZM417.316 1019.2L417.815 1020.07L417.82 1020.06L417.316 1019.2ZM407.356 1019.2L406.844 1020.06L406.853 1020.06L406.863 1020.07L407.356 1019.2ZM404.116 1015.84L403.238 1016.32L403.238 1016.32L404.116 1015.84ZM404.156 996.64L403.292 996.135L403.289 996.141L403.285 996.147L404.156 996.64ZM407.476 993.36L407.963 994.233L407.969 994.23L407.975 994.226L407.476 993.36ZM408.476 997.28L409.164 998.005L409.174 997.996L408.476 997.28ZM408.476 1015.32L407.777 1016.04L407.787 1016.04L408.476 1015.32ZM416.356 1015.28L415.648 1014.57L415.648 1014.57L416.356 1015.28ZM416.356 997.28L415.648 997.987L415.648 997.987L416.356 997.28ZM412.636 993.16C414.149 993.16 415.509 993.518 416.736 994.226L417.735 992.494C416.189 991.602 414.482 991.16 412.636 991.16V993.16ZM416.743 994.23C418.001 994.943 418.994 995.923 419.732 997.185L421.459 996.175C420.544 994.611 419.296 993.377 417.728 992.49L416.743 994.23ZM419.732 997.185C420.463 998.434 420.836 999.844 420.836 1001.44H422.836C422.836 999.516 422.382 997.753 421.459 996.175L419.732 997.185ZM420.836 1001.44V1011.16H422.836V1001.44H420.836ZM420.836 1011.16C420.836 1012.73 420.475 1014.13 419.765 1015.39L421.506 1016.37C422.397 1014.8 422.836 1013.05 422.836 1011.16H420.836ZM419.769 1015.38C419.058 1016.61 418.078 1017.6 416.811 1018.34L417.82 1020.06C419.38 1019.15 420.613 1017.92 421.502 1016.38L419.769 1015.38ZM416.816 1018.33C415.594 1019.04 414.208 1019.4 412.636 1019.4V1021.4C414.529 1021.4 416.264 1020.96 417.815 1020.07L416.816 1018.33ZM412.636 1019.4H412.116V1021.4H412.636V1019.4ZM412.116 1019.4C410.513 1019.4 409.099 1019.04 407.848 1018.33L406.863 1020.07C408.439 1020.96 410.198 1021.4 412.116 1021.4V1019.4ZM407.868 1018.34C406.634 1017.61 405.68 1016.62 404.993 1015.36L403.238 1016.32C404.098 1017.89 405.304 1019.14 406.844 1020.06L407.868 1018.34ZM404.993 1015.36C404.305 1014.1 403.956 1012.71 403.956 1011.16H401.956C401.956 1013.02 402.38 1014.75 403.238 1016.32L404.993 1015.36ZM403.956 1011.16V1001.44H401.956V1011.16H403.956ZM403.956 1001.44C403.956 999.808 404.319 998.381 405.026 997.133L403.285 996.147C402.392 997.726 401.956 999.498 401.956 1001.44H403.956ZM405.019 997.145C405.758 995.881 406.737 994.917 407.963 994.233L406.989 992.487C405.441 993.35 404.206 994.573 403.292 996.135L405.019 997.145ZM407.975 994.226C409.2 993.52 410.572 993.16 412.116 993.16V991.16C410.246 991.16 408.525 991.6 406.976 992.494L407.975 994.226ZM412.116 993.16H412.636V991.16H412.116V993.16ZM412.396 994.72C410.599 994.72 409.039 995.334 407.778 996.564L409.174 997.996C410.046 997.146 411.099 996.72 412.396 996.72V994.72ZM407.787 996.555C406.51 997.768 405.876 999.315 405.876 1001.12H407.876C407.876 999.832 408.308 998.819 409.164 998.005L407.787 996.555ZM405.876 1001.12V1011.44H407.876V1001.12H405.876ZM405.876 1011.44C405.876 1013.24 406.51 1014.8 407.778 1016.04L409.174 1014.6C408.308 1013.76 407.876 1012.73 407.876 1011.44H405.876ZM407.787 1016.04C409.05 1017.24 410.607 1017.84 412.396 1017.84V1015.84C411.091 1015.84 410.035 1015.42 409.164 1014.6L407.787 1016.04ZM412.396 1017.84C414.235 1017.84 415.818 1017.23 417.063 1015.99L415.648 1014.57C414.813 1015.41 413.756 1015.84 412.396 1015.84V1017.84ZM417.063 1015.99C418.297 1014.75 418.916 1013.22 418.916 1011.44H416.916C416.916 1012.7 416.494 1013.73 415.648 1014.57L417.063 1015.99ZM418.916 1011.44V1001.12H416.916V1011.44H418.916ZM418.916 1001.12C418.916 999.345 418.297 997.807 417.063 996.573L415.648 997.987C416.494 998.833 416.916 999.855 416.916 1001.12H418.916ZM417.063 996.573C415.818 995.328 414.235 994.72 412.396 994.72V996.72C413.756 996.72 414.813 997.152 415.648 997.987L417.063 996.573ZM449.645 992.56L450.5 993.079L451.421 991.56H449.645V992.56ZM433.005 1020V1021H433.568L433.86 1020.52L433.005 1020ZM430.205 1020L429.351 1019.48L428.425 1021H430.205V1020ZM446.925 992.56V991.56H446.363L446.071 992.04L446.925 992.56ZM435.725 994L435.008 994.697L435.013 994.702L435.018 994.707L435.725 994ZM435.685 1005.2L436.392 1005.91L436.392 1005.91L435.685 1005.2ZM428.485 1005.2L427.768 1005.9L427.778 1005.91L427.788 1005.92L428.485 1005.2ZM428.485 994L429.192 994.707L429.197 994.702L429.202 994.697L428.485 994ZM430.325 995.48L429.618 994.773L429.618 994.773L430.325 995.48ZM430.325 1003.72L429.597 1004.41L429.618 1004.43L429.64 1004.45L430.325 1003.72ZM433.885 1003.72L434.592 1004.43L434.603 1004.42L434.613 1004.41L433.885 1003.72ZM433.885 995.48L433.157 996.165L433.167 996.176L433.178 996.187L433.885 995.48ZM451.285 1007.48L450.568 1008.18L450.578 1008.19L450.588 1008.2L451.285 1007.48ZM451.325 1018.68L452.032 1019.39L452.037 1019.38L452.042 1019.38L451.325 1018.68ZM444.085 1018.68L443.368 1019.38L443.373 1019.38L443.378 1019.39L444.085 1018.68ZM445.925 1008.96L445.218 1008.25L445.218 1008.25L445.925 1008.96ZM445.925 1017.2L445.197 1017.89L445.218 1017.91L445.24 1017.93L445.925 1017.2ZM449.485 1017.2L450.192 1017.91L450.203 1017.9L450.213 1017.89L449.485 1017.2ZM449.485 1008.96L448.757 1009.65L448.767 1009.66L448.778 1009.67L449.485 1008.96ZM448.79 992.041L432.15 1019.48L433.86 1020.52L450.5 993.079L448.79 992.041ZM433.005 1019H430.205V1021H433.005V1019ZM431.059 1020.52L447.779 993.08L446.071 992.04L429.351 1019.48L431.059 1020.52ZM446.925 993.56H449.645V991.56H446.925V993.56ZM432.245 993.6C433.414 993.6 434.307 993.975 435.008 994.697L436.442 993.303C435.33 992.158 433.903 991.6 432.245 991.6V993.6ZM435.018 994.707C435.721 995.41 436.085 996.295 436.085 997.44H438.085C438.085 995.812 437.543 994.403 436.432 993.293L435.018 994.707ZM436.085 997.44V1001.72H438.085V997.44H436.085ZM436.085 1001.72C436.085 1002.86 435.713 1003.76 434.978 1004.49L436.392 1005.91C437.523 1004.78 438.085 1003.36 438.085 1001.72H436.085ZM434.978 1004.49C434.275 1005.2 433.39 1005.56 432.245 1005.56V1007.56C433.873 1007.56 435.282 1007.02 436.392 1005.91L434.978 1004.49ZM432.245 1005.56H431.965V1007.56H432.245V1005.56ZM431.965 1005.56C430.82 1005.56 429.915 1005.2 429.182 1004.48L427.788 1005.92C428.921 1007.02 430.337 1007.56 431.965 1007.56V1005.56ZM429.202 1004.5C428.49 1003.77 428.125 1002.87 428.125 1001.72H426.125C426.125 1003.35 426.667 1004.76 427.768 1005.9L429.202 1004.5ZM428.125 1001.72V997.44H426.125V1001.72H428.125ZM428.125 997.44C428.125 996.295 428.489 995.41 429.192 994.707L427.778 993.293C426.667 994.403 426.125 995.812 426.125 997.44H428.125ZM429.202 994.697C429.903 993.975 430.796 993.6 431.965 993.6V991.6C430.307 991.6 428.88 992.158 427.768 993.303L429.202 994.697ZM431.965 993.6H432.245V991.6H431.965V993.6ZM432.125 993.8C431.16 993.8 430.29 994.101 429.618 994.773L431.032 996.187C431.267 995.952 431.596 995.8 432.125 995.8V993.8ZM429.618 994.773C428.975 995.415 428.685 996.244 428.685 997.16H430.685C430.685 996.689 430.821 996.398 431.032 996.187L429.618 994.773ZM428.685 997.16V1002H430.685V997.16H428.685ZM428.685 1002C428.685 1002.92 428.975 1003.74 429.597 1004.41L431.053 1003.03C430.822 1002.79 430.685 1002.47 430.685 1002H428.685ZM429.64 1004.45C430.314 1005.08 431.177 1005.36 432.125 1005.36V1003.36C431.579 1003.36 431.242 1003.21 431.01 1002.99L429.64 1004.45ZM432.125 1005.36C433.07 1005.36 433.935 1005.08 434.592 1004.43L433.178 1003.01C432.981 1003.21 432.673 1003.36 432.125 1003.36V1005.36ZM434.613 1004.41C435.235 1003.74 435.525 1002.92 435.525 1002H433.525C433.525 1002.47 433.388 1002.79 433.157 1003.03L434.613 1004.41ZM435.525 1002V997.16H433.525V1002H435.525ZM435.525 997.16C435.525 996.244 435.235 995.415 434.592 994.773L433.178 996.187C433.389 996.398 433.525 996.689 433.525 997.16H435.525ZM434.613 994.795C433.96 994.101 433.088 993.8 432.125 993.8V995.8C432.655 995.8 432.956 995.952 433.157 996.165L434.613 994.795ZM447.845 1007.08C448.981 1007.08 449.863 1007.45 450.568 1008.18L452.002 1006.78C450.894 1005.64 449.482 1005.08 447.845 1005.08V1007.08ZM450.588 1008.2C451.314 1008.9 451.685 1009.78 451.685 1010.92H453.685C453.685 1009.28 453.123 1007.87 451.982 1006.76L450.588 1008.2ZM451.685 1010.92V1015.2H453.685V1010.92H451.685ZM451.685 1015.2C451.685 1016.35 451.32 1017.25 450.608 1017.98L452.042 1019.38C453.143 1018.24 453.685 1016.83 453.685 1015.2H451.685ZM450.618 1017.97C449.919 1018.67 449.023 1019.04 447.845 1019.04V1021.04C449.494 1021.04 450.918 1020.5 452.032 1019.39L450.618 1017.97ZM447.845 1019.04H447.565V1021.04H447.845V1019.04ZM447.565 1019.04C446.387 1019.04 445.491 1018.67 444.792 1017.97L443.378 1019.39C444.492 1020.5 445.916 1021.04 447.565 1021.04V1019.04ZM444.802 1017.98C444.09 1017.25 443.725 1016.35 443.725 1015.2H441.725C441.725 1016.83 442.267 1018.24 443.368 1019.38L444.802 1017.98ZM443.725 1015.2V1010.92H441.725V1015.2H443.725ZM443.725 1010.92C443.725 1009.77 444.089 1008.89 444.792 1008.19L443.378 1006.77C442.267 1007.88 441.725 1009.29 441.725 1010.92H443.725ZM444.792 1008.19C445.528 1007.45 446.429 1007.08 447.565 1007.08V1005.08C445.928 1005.08 444.509 1005.64 443.378 1006.77L444.792 1008.19ZM447.565 1007.08H447.845V1005.08H447.565V1007.08ZM447.725 1007.28C446.76 1007.28 445.89 1007.58 445.218 1008.25L446.632 1009.67C446.867 1009.43 447.196 1009.28 447.725 1009.28V1007.28ZM445.218 1008.25C444.575 1008.9 444.285 1009.72 444.285 1010.64H446.285C446.285 1010.17 446.421 1009.88 446.632 1009.67L445.218 1008.25ZM444.285 1010.64V1015.48H446.285V1010.64H444.285ZM444.285 1015.48C444.285 1016.4 444.575 1017.22 445.197 1017.89L446.653 1016.51C446.422 1016.27 446.285 1015.95 446.285 1015.48H444.285ZM445.24 1017.93C445.914 1018.56 446.777 1018.84 447.725 1018.84V1016.84C447.179 1016.84 446.842 1016.69 446.61 1016.47L445.24 1017.93ZM447.725 1018.84C448.67 1018.84 449.535 1018.56 450.192 1017.91L448.778 1016.49C448.581 1016.69 448.273 1016.84 447.725 1016.84V1018.84ZM450.213 1017.89C450.835 1017.22 451.125 1016.4 451.125 1015.48H449.125C449.125 1015.95 448.988 1016.27 448.757 1016.51L450.213 1017.89ZM451.125 1015.48V1010.64H449.125V1015.48H451.125ZM451.125 1010.64C451.125 1009.72 450.835 1008.9 450.192 1008.25L448.778 1009.67C448.989 1009.88 449.125 1010.17 449.125 1010.64H451.125ZM450.213 1008.27C449.56 1007.58 448.688 1007.28 447.725 1007.28V1009.28C448.255 1009.28 448.556 1009.43 448.757 1009.65L450.213 1008.27Z" fill="black" mask="url(#path-8-outside-2_661_102)"/>
<path d="M735.333 1273C735.333 1280.36 729.364 1286.33 722 1286.33C714.636 1286.33 708.667 1280.36 708.667 1273C708.667 1265.64 714.636 1259.67 722 1259.67C729.364 1259.67 735.333 1265.64 735.333 1273ZM473.371 1044.73V1042.23H474.345L475.062 1042.88L473.371 1044.73ZM40 1047.23C38.6193 1047.23 37.5 1046.11 37.5 1044.73C37.5 1043.34 38.6193 1042.23 40 1042.23V1047.23ZM720.309 1274.84L471.681 1046.57L475.062 1042.88L723.691 1271.16L720.309 1274.84ZM473.371 1047.23L40 1047.23V1042.23L473.371 1042.23V1047.23Z" fill="white"/>
</svg>
