<svg width="1360" height="1360" viewBox="0 0 1360 1360" fill="none" xmlns="http://www.w3.org/2000/svg">
<path d="M680 0C752.809 8.68234e-07 825.145 11.6931 894.245 34.6326L808.547 292.78C767.087 279.016 723.685 272 680 272V0Z" fill="#5F52F1"/>
<path d="M552.582 12.0444C594.582 4.03259 637.244 -8.20618e-05 680.001 1.2524e-09L680.001 272C654.346 272 628.749 274.42 603.549 279.227L552.582 12.0444Z" fill="#01D3EC"/>
<path d="M129.868 280.306C231.53 140.382 382.689 44.4531 552.581 12.0446L603.549 279.227C501.613 298.672 410.918 356.229 349.921 440.184L129.868 280.306Z" fill="#8CC0B9"/>
<path d="M893.729 34.4616C1030.05 79.5968 1148.59 166.731 1232.35 283.375C1316.11 400.02 1360.79 540.187 1359.99 683.786L1087.99 682.272C1088.47 596.112 1061.66 512.012 1011.41 442.025C961.154 372.039 890.032 319.758 808.238 292.677L893.729 34.4616Z" fill="#FFE657"/>
<path d="M1360 680C1360 823.602 1314.54 963.518 1230.13 1079.69L1010.08 919.816C1060.72 850.111 1088 766.161 1088 680H1360Z" fill="#525775"/>
<mask id="path-6-inside-1_661_102" fill="white">
<path d="M1230.13 1079.69C1167.06 1166.51 1084.33 1237.17 988.714 1285.88C893.099 1334.6 787.311 1360 680 1360C572.689 1360 466.901 1334.6 371.286 1285.88C275.671 1237.17 192.944 1166.51 129.868 1079.69L349.921 919.816C387.766 971.906 437.403 1014.3 494.772 1043.53C552.141 1072.76 615.613 1088 680 1088C744.387 1088 807.859 1072.76 865.228 1043.53C922.597 1014.3 972.233 971.906 1010.08 919.816L1230.13 1079.69Z"/>
</mask>
<path d="M1230.13 1079.69C1167.06 1166.51 1084.33 1237.17 988.714 1285.88C893.099 1334.6 787.311 1360 680 1360C572.689 1360 466.901 1334.6 371.286 1285.88C275.671 1237.17 192.944 1166.51 129.868 1079.69L349.921 919.816C387.766 971.906 437.403 1014.3 494.772 1043.53C552.141 1072.76 615.613 1088 680 1088C744.387 1088 807.859 1072.76 865.228 1043.53C922.597 1014.3 972.233 971.906 1010.08 919.816L1230.13 1079.69Z" fill="#9F8CC0" stroke="#30324F" stroke-width="28" mask="url(#path-6-inside-1_661_102)"/>
<path d="M129.868 1079.69C45.4613 963.518 -2.96727e-05 823.602 0 680C2.96728e-05 536.398 45.4614 396.482 129.869 280.306L349.921 440.183C299.277 509.889 272 593.839 272 680C272 766.161 299.277 850.111 349.921 919.816L129.868 1079.69Z" fill="#FF4059"/>
<mask id="path-8-outside-2_661_102" maskUnits="userSpaceOnUse" x="44" y="990" width="419" height="39" fill="black">
<rect fill="white" x="44" y="990" width="419" height="39"/>
<path d="M64.1433 1020H54.1433L45.9433 992.56H54.6633L59.4633 1009.6H59.6233L64.3833 992.56H72.4633L64.1433 1020ZM86.5133 999.16C88.5666 999.16 90.3266 999.56 91.7933 1000.36C93.2866 1001.13 94.4199 1002.21 95.1933 1003.6C95.9933 1004.99 96.3933 1006.57 96.3933 1008.36V1010.84H83.0733V1012.76C83.0733 1013.67 83.3533 1014.36 83.9133 1014.84C84.4999 1015.32 85.2466 1015.56 86.1533 1015.56C87.0866 1015.56 87.7933 1015.28 88.2733 1014.72C88.7799 1014.13 89.0333 1013.33 89.0333 1012.32H96.3533C96.3533 1013.84 95.9533 1015.21 95.1533 1016.44C94.3799 1017.67 93.2333 1018.64 91.7133 1019.36C90.2199 1020.05 88.4466 1020.4 86.3933 1020.4H85.7933C83.6599 1020.4 81.7399 1020.01 80.0333 1019.24C78.3533 1018.44 77.0199 1017.29 76.0333 1015.8C75.0733 1014.28 74.5933 1012.48 74.5933 1010.4V1009.16C74.5933 1007.08 75.0466 1005.29 75.9533 1003.8C76.8866 1002.28 78.1799 1001.13 79.8333 1000.36C81.4866 999.56 83.3799 999.16 85.5133 999.16H86.5133ZM85.8333 1004C85.0599 1004 84.4066 1004.28 83.8733 1004.84C83.3399 1005.37 83.0733 1006.03 83.0733 1006.8V1007.36H88.5933V1006.8C88.5933 1006.03 88.3266 1005.37 87.7933 1004.84C87.2599 1004.28 86.6066 1004 85.8333 1004ZM114.817 999.16C115.91 999.16 116.91 999.427 117.817 999.96C118.75 1000.49 119.483 1001.23 120.017 1002.16C120.55 1003.07 120.817 1004.07 120.817 1005.16V1020H112.897V1007.2C112.897 1006.53 112.683 1005.97 112.257 1005.52C111.857 1005.04 111.363 1004.8 110.777 1004.8C110.19 1004.8 109.683 1005.04 109.257 1005.52C108.857 1005.97 108.657 1006.53 108.657 1007.2V1020H100.737V999.56H106.697L107.497 1002.52C108.963 1000.28 111.03 999.16 113.697 999.16H114.817ZM134.962 999.56H139.762V1005.24H134.962V1012.8C134.962 1013.87 135.162 1014.6 135.562 1015C135.989 1015.37 136.549 1015.56 137.242 1015.56C137.562 1015.56 137.975 1015.52 138.482 1015.44C139.015 1015.33 139.429 1015.21 139.722 1015.08V1019.56C139.109 1019.83 138.255 1020.04 137.162 1020.2C136.069 1020.36 135.135 1020.44 134.362 1020.44C132.015 1020.44 130.202 1020.01 128.922 1019.16C127.669 1018.31 127.042 1016.85 127.042 1014.8V1005.24H124.802V999.56H127.362L130.122 993.04H134.962V999.56ZM163.76 1014.08C163.76 1014.59 163.88 1014.96 164.12 1015.2C164.36 1015.44 164.653 1015.56 165 1015.56C165.507 1015.56 165.973 1015.44 166.4 1015.2V1019.48C165.547 1020.09 164.2 1020.4 162.36 1020.4C160.653 1020.4 159.347 1020.13 158.44 1019.6C157.533 1019.04 156.88 1018.23 156.48 1017.16C156.027 1017.85 155.28 1018.57 154.24 1019.32C153.2 1020.04 152.053 1020.4 150.8 1020.4H149.68C148.587 1020.4 147.573 1020.13 146.64 1019.6C145.733 1019.07 145.013 1018.35 144.48 1017.44C143.947 1016.51 143.68 1015.49 143.68 1014.4V999.56H151.6V1012.36C151.6 1013.03 151.8 1013.6 152.2 1014.08C152.627 1014.53 153.133 1014.76 153.72 1014.76C154.307 1014.76 154.8 1014.53 155.2 1014.08C155.627 1013.6 155.84 1013.03 155.84 1012.36V999.56H163.76V1014.08ZM182.357 999.16C184.117 999.16 185.477 999.653 186.437 1000.64C187.424 1001.6 187.917 1002.93 187.917 1004.64V1005.32L187.837 1006.84L187.757 1007.84H181.277V1006.88C181.277 1006.32 181.104 1005.85 180.757 1005.48C180.437 1005.08 180.05 1004.88 179.597 1004.88C179.117 1004.88 178.704 1005.08 178.357 1005.48C178.037 1005.85 177.877 1006.32 177.877 1006.88V1020H170.157V999.56H176.077L176.957 1002.52C177.117 1002.2 177.424 1001.77 177.877 1001.24C178.33 1000.71 178.944 1000.23 179.717 999.8C180.49 999.373 181.37 999.16 182.357 999.16ZM202.591 999.16C204.645 999.16 206.405 999.56 207.871 1000.36C209.365 1001.13 210.498 1002.21 211.271 1003.6C212.071 1004.99 212.471 1006.57 212.471 1008.36V1010.84H199.151V1012.76C199.151 1013.67 199.431 1014.36 199.991 1014.84C200.578 1015.32 201.325 1015.56 202.231 1015.56C203.165 1015.56 203.871 1015.28 204.351 1014.72C204.858 1014.13 205.111 1013.33 205.111 1012.32H212.431C212.431 1013.84 212.031 1015.21 211.231 1016.44C210.458 1017.67 209.311 1018.64 207.791 1019.36C206.298 1020.05 204.525 1020.4 202.471 1020.4H201.871C199.738 1020.4 197.818 1020.01 196.111 1019.24C194.431 1018.44 193.098 1017.29 192.111 1015.8C191.151 1014.28 190.671 1012.48 190.671 1010.4V1009.16C190.671 1007.08 191.125 1005.29 192.031 1003.8C192.965 1002.28 194.258 1001.13 195.911 1000.36C197.565 999.56 199.458 999.16 201.591 999.16H202.591ZM201.911 1004C201.138 1004 200.485 1004.28 199.951 1004.84C199.418 1005.37 199.151 1006.03 199.151 1006.8V1007.36H204.671V1006.8C204.671 1006.03 204.405 1005.37 203.871 1004.84C203.338 1004.28 202.685 1004 201.911 1004ZM238.47 992.16C240.683 992.16 242.657 992.6 244.39 993.48C246.15 994.333 247.537 995.64 248.55 997.4C249.563 999.133 250.07 1001.27 250.07 1003.8H242.19V1002.4C242.19 1001.17 241.803 1000.2 241.03 999.48C240.283 998.76 239.337 998.4 238.19 998.4H237.99C236.87 998.4 235.923 998.787 235.15 999.56C234.377 1000.33 233.99 1001.28 233.99 1002.4V1010.12C233.99 1011.24 234.377 1012.19 235.15 1012.96C235.923 1013.73 236.87 1014.12 237.99 1014.12H238.55C239.697 1014.12 240.643 1013.77 241.39 1013.08C242.163 1012.36 242.55 1011.37 242.55 1010.12V1008.8H250.07C250.07 1011.15 249.577 1013.2 248.59 1014.96C247.63 1016.72 246.297 1018.07 244.59 1019C242.883 1019.93 240.95 1020.4 238.79 1020.4H237.67C235.297 1020.4 233.137 1019.92 231.19 1018.96C229.27 1018 227.75 1016.61 226.63 1014.8C225.51 1012.99 224.95 1010.85 224.95 1008.4V1004.16C224.95 1001.84 225.51 999.773 226.63 997.96C227.777 996.12 229.297 994.693 231.19 993.68C233.083 992.667 235.137 992.16 237.35 992.16H238.47ZM264.695 999.16C267.788 999.16 270.148 999.76 271.775 1000.96C273.428 1002.16 274.255 1003.72 274.255 1005.64V1014.08C274.255 1014.59 274.375 1014.96 274.615 1015.2C274.855 1015.44 275.148 1015.56 275.495 1015.56C276.002 1015.56 276.468 1015.44 276.895 1015.2V1019.48C276.042 1020.09 274.695 1020.4 272.855 1020.4C271.148 1020.4 269.802 1020.12 268.815 1019.56C267.828 1018.97 267.215 1018.17 266.975 1017.16C266.122 1018.15 265.175 1018.93 264.135 1019.52C263.122 1020.11 261.868 1020.4 260.375 1020.4C258.242 1020.4 256.508 1019.99 255.175 1019.16C253.842 1018.33 253.175 1016.71 253.175 1014.28C253.175 1012.44 253.695 1011.03 254.735 1010.04C255.775 1009.03 257.255 1008.33 259.175 1007.96C261.122 1007.56 263.588 1007.36 266.575 1007.36V1006.2C266.575 1005.45 266.322 1004.87 265.815 1004.44C265.335 1004.01 264.722 1003.8 263.975 1003.8C263.362 1003.8 262.775 1003.99 262.215 1004.36C261.682 1004.71 261.415 1005.15 261.415 1005.68V1005.84H253.815C253.788 1005.76 253.775 1005.57 253.775 1005.28C253.775 1004.13 254.162 1003.11 254.935 1002.2C255.735 1001.27 256.855 1000.53 258.295 1000C259.762 999.44 261.455 999.16 263.375 999.16H264.695ZM266.575 1011C264.815 1011 263.522 1011.24 262.695 1011.72C261.868 1012.17 261.455 1012.81 261.455 1013.64C261.455 1014.92 262.255 1015.56 263.855 1015.56C264.602 1015.56 265.242 1015.31 265.775 1014.8C266.308 1014.27 266.575 1013.59 266.575 1012.76V1011ZM292.576 999.16C294.229 999.16 295.709 999.547 297.016 1000.32C298.349 1001.09 299.389 1002.27 300.136 1003.84C300.909 1005.39 301.296 1007.29 301.296 1009.56V1010C301.296 1012.27 300.949 1014.19 300.256 1015.76C299.589 1017.31 298.669 1018.47 297.496 1019.24C296.349 1020.01 295.042 1020.4 293.576 1020.4C291.069 1020.4 289.309 1019.56 288.296 1017.88V1027.24H280.376V999.56H286.696L287.416 1001.92C288.829 1000.08 290.549 999.16 292.576 999.16ZM290.776 1004C290.082 1004 289.496 1004.28 289.016 1004.84C288.536 1005.37 288.296 1006.03 288.296 1006.8V1012.6C288.296 1013.37 288.536 1014.04 289.016 1014.6C289.496 1015.13 290.082 1015.4 290.776 1015.4C291.469 1015.4 292.056 1015.13 292.536 1014.6C293.016 1014.04 293.256 1013.37 293.256 1012.6V1006.8C293.256 1006.03 293.016 1005.37 292.536 1004.84C292.056 1004.28 291.469 1004 290.776 1004ZM313.479 996.92H305.599V991.2H313.479V996.92ZM313.479 1020H305.599V999.6H313.479V1020ZM327.754 999.56H332.554V1005.24H327.754V1012.8C327.754 1013.87 327.954 1014.6 328.354 1015C328.781 1015.37 329.341 1015.56 330.034 1015.56C330.354 1015.56 330.768 1015.52 331.274 1015.44C331.808 1015.33 332.221 1015.21 332.514 1015.08V1019.56C331.901 1019.83 331.048 1020.04 329.954 1020.2C328.861 1020.36 327.928 1020.44 327.154 1020.44C324.808 1020.44 322.994 1020.01 321.714 1019.16C320.461 1018.31 319.834 1016.85 319.834 1014.8V1005.24H317.594V999.56H320.154L322.914 993.04H327.754V999.56ZM347.112 999.16C350.205 999.16 352.565 999.76 354.192 1000.96C355.845 1002.16 356.672 1003.72 356.672 1005.64V1014.08C356.672 1014.59 356.792 1014.96 357.032 1015.2C357.272 1015.44 357.565 1015.56 357.912 1015.56C358.419 1015.56 358.885 1015.44 359.312 1015.2V1019.48C358.459 1020.09 357.112 1020.4 355.272 1020.4C353.565 1020.4 352.219 1020.12 351.232 1019.56C350.245 1018.97 349.632 1018.17 349.392 1017.16C348.539 1018.15 347.592 1018.93 346.552 1019.52C345.539 1020.11 344.285 1020.4 342.792 1020.4C340.659 1020.4 338.925 1019.99 337.592 1019.16C336.259 1018.33 335.592 1016.71 335.592 1014.28C335.592 1012.44 336.112 1011.03 337.152 1010.04C338.192 1009.03 339.672 1008.33 341.592 1007.96C343.539 1007.56 346.005 1007.36 348.992 1007.36V1006.2C348.992 1005.45 348.739 1004.87 348.232 1004.44C347.752 1004.01 347.139 1003.8 346.392 1003.8C345.779 1003.8 345.192 1003.99 344.632 1004.36C344.099 1004.71 343.832 1005.15 343.832 1005.68V1005.84H336.232C336.205 1005.76 336.192 1005.57 336.192 1005.28C336.192 1004.13 336.579 1003.11 337.352 1002.2C338.152 1001.27 339.272 1000.53 340.712 1000C342.179 999.44 343.872 999.16 345.792 999.16H347.112ZM348.992 1011C347.232 1011 345.939 1011.24 345.112 1011.72C344.285 1012.17 343.872 1012.81 343.872 1013.64C343.872 1014.92 344.672 1015.56 346.272 1015.56C347.019 1015.56 347.659 1015.31 348.192 1014.8C348.725 1014.27 348.992 1013.59 348.992 1012.76V1011ZM370.713 991.2V1020H362.793V991.2H370.713ZM395.762 992.16C397.629 992.16 399.282 992.493 400.722 993.16C402.189 993.827 403.322 994.733 404.122 995.88C404.949 997 405.362 998.24 405.362 999.6C405.362 1000.99 405.016 1002.23 404.322 1003.32C403.656 1004.39 402.736 1005.16 401.562 1005.64C403.029 1006.15 404.162 1006.99 404.962 1008.16C405.762 1009.33 406.162 1010.76 406.162 1012.44C406.162 1013.93 405.749 1015.28 404.922 1016.48C404.122 1017.68 402.936 1018.64 401.362 1019.36C399.789 1020.05 397.922 1020.4 395.762 1020.4H394.082C391.922 1020.4 390.056 1020.05 388.482 1019.36C386.909 1018.64 385.709 1017.68 384.882 1016.48C384.082 1015.28 383.682 1013.95 383.682 1012.48V1011.64H390.722C390.722 1012.47 390.989 1013.15 391.522 1013.68C392.056 1014.19 392.856 1014.44 393.922 1014.44H395.002C396.042 1014.44 396.829 1014.16 397.362 1013.6C397.922 1013.04 398.202 1012.28 398.202 1011.32C398.202 1010.39 397.936 1009.68 397.402 1009.2C396.896 1008.69 396.229 1008.44 395.402 1008.44H391.242V1003.52H394.762C395.589 1003.52 396.256 1003.28 396.762 1002.8C397.296 1002.29 397.562 1001.57 397.562 1000.64C397.562 999.947 397.282 999.36 396.722 998.88C396.189 998.373 395.536 998.12 394.762 998.12H394.042C393.269 998.12 392.602 998.373 392.042 998.88C391.509 999.36 391.242 999.947 391.242 1000.64H384.562V999.64C384.562 998.253 384.976 997 385.802 995.88C386.629 994.733 387.802 993.827 389.322 993.16C390.842 992.493 392.589 992.16 394.562 992.16H395.762ZM421.812 992.16C423.625 992.16 425.292 992.613 426.812 993.52C428.358 994.4 429.572 995.613 430.452 997.16C431.358 998.68 431.812 1000.35 431.812 1002.16V1010.4C431.812 1012.21 431.358 1013.89 430.452 1015.44C429.572 1016.96 428.358 1018.17 426.812 1019.08C425.292 1019.96 423.625 1020.4 421.812 1020.4H420.012C418.198 1020.4 416.518 1019.96 414.972 1019.08C413.452 1018.17 412.238 1016.96 411.332 1015.44C410.452 1013.89 410.012 1012.21 410.012 1010.4V1002.16C410.012 1000.35 410.452 998.68 411.332 997.16C412.238 995.613 413.452 994.4 414.972 993.52C416.518 992.613 418.198 992.16 420.012 992.16H421.812ZM420.932 997.92C420.078 997.92 419.358 998.24 418.772 998.88C418.212 999.493 417.932 1000.24 417.932 1001.12V1011.4C417.932 1012.28 418.212 1013.04 418.772 1013.68C419.358 1014.29 420.065 1014.6 420.892 1014.6C421.745 1014.6 422.452 1014.29 423.012 1013.68C423.598 1013.04 423.892 1012.28 423.892 1011.4V1001.12C423.892 1000.24 423.598 999.493 423.012 998.88C422.452 998.24 421.758 997.92 420.932 997.92ZM458.901 992.56L442.221 1020H438.421L455.181 992.56H458.901ZM441.301 992.6C442.661 992.6 443.821 993.08 444.781 994.04C445.768 995 446.261 996.16 446.261 997.52V1001.6C446.261 1002.96 445.768 1004.12 444.781 1005.08C443.821 1006.04 442.661 1006.52 441.301 1006.52H440.421C439.061 1006.52 437.901 1006.04 436.941 1005.08C435.981 1004.12 435.501 1002.96 435.501 1001.6V997.52C435.501 996.16 435.981 995 436.941 994.04C437.901 993.08 439.061 992.6 440.421 992.6H441.301ZM440.861 995.44C440.461 995.44 440.114 995.587 439.821 995.88C439.528 996.173 439.381 996.547 439.381 997V1002.08C439.381 1002.53 439.528 1002.91 439.821 1003.2C440.114 1003.49 440.461 1003.64 440.861 1003.64C441.288 1003.64 441.634 1003.49 441.901 1003.2C442.194 1002.91 442.341 1002.53 442.341 1002.08V997C442.341 996.547 442.194 996.173 441.901 995.88C441.634 995.587 441.288 995.44 440.861 995.44ZM456.901 1006.08C458.261 1006.08 459.421 1006.56 460.381 1007.52C461.368 1008.48 461.861 1009.64 461.861 1011V1015.08C461.861 1015.96 461.634 1016.79 461.181 1017.56C460.728 1018.31 460.114 1018.91 459.341 1019.36C458.594 1019.81 457.781 1020.04 456.901 1020.04H456.021C454.661 1020.04 453.501 1019.56 452.541 1018.6C451.581 1017.61 451.101 1016.44 451.101 1015.08V1011C451.101 1009.64 451.581 1008.48 452.541 1007.52C453.501 1006.56 454.661 1006.08 456.021 1006.08H456.901ZM456.461 1008.92C456.061 1008.92 455.714 1009.08 455.421 1009.4C455.128 1009.69 454.981 1010.07 454.981 1010.52V1015.6C454.981 1016.03 455.128 1016.4 455.421 1016.72C455.714 1017.01 456.061 1017.16 456.461 1017.16C456.888 1017.16 457.234 1017.01 457.501 1016.72C457.794 1016.4 457.941 1016.03 457.941 1015.6V1010.52C457.941 1010.07 457.794 1009.69 457.501 1009.4C457.234 1009.08 456.888 1008.92 456.461 1008.92Z"/>
</mask>
<path d="M64.1433 1020H54.1433L45.9433 992.56H54.6633L59.4633 1009.6H59.6233L64.3833 992.56H72.4633L64.1433 1020ZM86.5133 999.16C88.5666 999.16 90.3266 999.56 91.7933 1000.36C93.2866 1001.13 94.4199 1002.21 95.1933 1003.6C95.9933 1004.99 96.3933 1006.57 96.3933 1008.36V1010.84H83.0733V1012.76C83.0733 1013.67 83.3533 1014.36 83.9133 1014.84C84.4999 1015.32 85.2466 1015.56 86.1533 1015.56C87.0866 1015.56 87.7933 1015.28 88.2733 1014.72C88.7799 1014.13 89.0333 1013.33 89.0333 1012.32H96.3533C96.3533 1013.84 95.9533 1015.21 95.1533 1016.44C94.3799 1017.67 93.2333 1018.64 91.7133 1019.36C90.2199 1020.05 88.4466 1020.4 86.3933 1020.4H85.7933C83.6599 1020.4 81.7399 1020.01 80.0333 1019.24C78.3533 1018.44 77.0199 1017.29 76.0333 1015.8C75.0733 1014.28 74.5933 1012.48 74.5933 1010.4V1009.16C74.5933 1007.08 75.0466 1005.29 75.9533 1003.8C76.8866 1002.28 78.1799 1001.13 79.8333 1000.36C81.4866 999.56 83.3799 999.16 85.5133 999.16H86.5133ZM85.8333 1004C85.0599 1004 84.4066 1004.28 83.8733 1004.84C83.3399 1005.37 83.0733 1006.03 83.0733 1006.8V1007.36H88.5933V1006.8C88.5933 1006.03 88.3266 1005.37 87.7933 1004.84C87.2599 1004.28 86.6066 1004 85.8333 1004ZM114.817 999.16C115.91 999.16 116.91 999.427 117.817 999.96C118.75 1000.49 119.483 1001.23 120.017 1002.16C120.55 1003.07 120.817 1004.07 120.817 1005.16V1020H112.897V1007.2C112.897 1006.53 112.683 1005.97 112.257 1005.52C111.857 1005.04 111.363 1004.8 110.777 1004.8C110.19 1004.8 109.683 1005.04 109.257 1005.52C108.857 1005.97 108.657 1006.53 108.657 1007.2V1020H100.737V999.56H106.697L107.497 1002.52C108.963 1000.28 111.03 999.16 113.697 999.16H114.817ZM134.962 999.56H139.762V1005.24H134.962V1012.8C134.962 1013.87 135.162 1014.6 135.562 1015C135.989 1015.37 136.549 1015.56 137.242 1015.56C137.562 1015.56 137.975 1015.52 138.482 1015.44C139.015 1015.33 139.429 1015.21 139.722 1015.08V1019.56C139.109 1019.83 138.255 1020.04 137.162 1020.2C136.069 1020.36 135.135 1020.44 134.362 1020.44C132.015 1020.44 130.202 1020.01 128.922 1019.16C127.669 1018.31 127.042 1016.85 127.042 1014.8V1005.24H124.802V999.56H127.362L130.122 993.04H134.962V999.56ZM163.76 1014.08C163.76 1014.59 163.88 1014.96 164.12 1015.2C164.36 1015.44 164.653 1015.56 165 1015.56C165.507 1015.56 165.973 1015.44 166.4 1015.2V1019.48C165.547 1020.09 164.2 1020.4 162.36 1020.4C160.653 1020.4 159.347 1020.13 158.44 1019.6C157.533 1019.04 156.88 1018.23 156.48 1017.16C156.027 1017.85 155.28 1018.57 154.24 1019.32C153.2 1020.04 152.053 1020.4 150.8 1020.4H149.68C148.587 1020.4 147.573 1020.13 146.64 1019.6C145.733 1019.07 145.013 1018.35 144.48 1017.44C143.947 1016.51 143.68 1015.49 143.68 1014.4V999.56H151.6V1012.36C151.6 1013.03 151.8 1013.6 152.2 1014.08C152.627 1014.53 153.133 1014.76 153.72 1014.76C154.307 1014.76 154.8 1014.53 155.2 1014.08C155.627 1013.6 155.84 1013.03 155.84 1012.36V999.56H163.76V1014.08ZM182.357 999.16C184.117 999.16 185.477 999.653 186.437 1000.64C187.424 1001.6 187.917 1002.93 187.917 1004.64V1005.32L187.837 1006.84L187.757 1007.84H181.277V1006.88C181.277 1006.32 181.104 1005.85 180.757 1005.48C180.437 1005.08 180.05 1004.88 179.597 1004.88C179.117 1004.88 178.704 1005.08 178.357 1005.48C178.037 1005.85 177.877 1006.32 177.877 1006.88V1020H170.157V999.56H176.077L176.957 1002.52C177.117 1002.2 177.424 1001.77 177.877 1001.24C178.33 1000.71 178.944 1000.23 179.717 999.8C180.49 999.373 181.37 999.16 182.357 999.16ZM202.591 999.16C204.645 999.16 206.405 999.56 207.871 1000.36C209.365 1001.13 210.498 1002.21 211.271 1003.6C212.071 1004.99 212.471 1006.57 212.471 1008.36V1010.84H199.151V1012.76C199.151 1013.67 199.431 1014.36 199.991 1014.84C200.578 1015.32 201.325 1015.56 202.231 1015.56C203.165 1015.56 203.871 1015.28 204.351 1014.72C204.858 1014.13 205.111 1013.33 205.111 1012.32H212.431C212.431 1013.84 212.031 1015.21 211.231 1016.44C210.458 1017.67 209.311 1018.64 207.791 1019.36C206.298 1020.05 204.525 1020.4 202.471 1020.4H201.871C199.738 1020.4 197.818 1020.01 196.111 1019.24C194.431 1018.44 193.098 1017.29 192.111 1015.8C191.151 1014.28 190.671 1012.48 190.671 1010.4V1009.16C190.671 1007.08 191.125 1005.29 192.031 1003.8C192.965 1002.28 194.258 1001.13 195.911 1000.36C197.565 999.56 199.458 999.16 201.591 999.16H202.591ZM201.911 1004C201.138 1004 200.485 1004.28 199.951 1004.84C199.418 1005.37 199.151 1006.03 199.151 1006.8V1007.36H204.671V1006.8C204.671 1006.03 204.405 1005.37 203.871 1004.84C203.338 1004.28 202.685 1004 201.911 1004ZM238.47 992.16C240.683 992.16 242.657 992.6 244.39 993.48C246.15 994.333 247.537 995.64 248.55 997.4C249.563 999.133 250.07 1001.27 250.07 1003.8H242.19V1002.4C242.19 1001.17 241.803 1000.2 241.03 999.48C240.283 998.76 239.337 998.4 238.19 998.4H237.99C236.87 998.4 235.923 998.787 235.15 999.56C234.377 1000.33 233.99 1001.28 233.99 1002.4V1010.12C233.99 1011.24 234.377 1012.19 235.15 1012.96C235.923 1013.73 236.87 1014.12 237.99 1014.12H238.55C239.697 1014.12 240.643 1013.77 241.39 1013.08C242.163 1012.36 242.55 1011.37 242.55 1010.12V1008.8H250.07C250.07 1011.15 249.577 1013.2 248.59 1014.96C247.63 1016.72 246.297 1018.07 244.59 1019C242.883 1019.93 240.95 1020.4 238.79 1020.4H237.67C235.297 1020.4 233.137 1019.92 231.19 1018.96C229.27 1018 227.75 1016.61 226.63 1014.8C225.51 1012.99 224.95 1010.85 224.95 1008.4V1004.16C224.95 1001.84 225.51 999.773 226.63 997.96C227.777 996.12 229.297 994.693 231.19 993.68C233.083 992.667 235.137 992.16 237.35 992.16H238.47ZM264.695 999.16C267.788 999.16 270.148 999.76 271.775 1000.96C273.428 1002.16 274.255 1003.72 274.255 1005.64V1014.08C274.255 1014.59 274.375 1014.96 274.615 1015.2C274.855 1015.44 275.148 1015.56 275.495 1015.56C276.002 1015.56 276.468 1015.44 276.895 1015.2V1019.48C276.042 1020.09 274.695 1020.4 272.855 1020.4C271.148 1020.4 269.802 1020.12 268.815 1019.56C267.828 1018.97 267.215 1018.17 266.975 1017.16C266.122 1018.15 265.175 1018.93 264.135 1019.52C263.122 1020.11 261.868 1020.4 260.375 1020.4C258.242 1020.4 256.508 1019.99 255.175 1019.16C253.842 1018.33 253.175 1016.71 253.175 1014.28C253.175 1012.44 253.695 1011.03 254.735 1010.04C255.775 1009.03 257.255 1008.33 259.175 1007.96C261.122 1007.56 263.588 1007.36 266.575 1007.36V1006.2C266.575 1005.45 266.322 1004.87 265.815 1004.44C265.335 1004.01 264.722 1003.8 263.975 1003.8C263.362 1003.8 262.775 1003.99 262.215 1004.36C261.682 1004.71 261.415 1005.15 261.415 1005.68V1005.84H253.815C253.788 1005.76 253.775 1005.57 253.775 1005.28C253.775 1004.13 254.162 1003.11 254.935 1002.2C255.735 1001.27 256.855 1000.53 258.295 1000C259.762 999.44 261.455 999.16 263.375 999.16H264.695ZM266.575 1011C264.815 1011 263.522 1011.24 262.695 1011.72C261.868 1012.17 261.455 1012.81 261.455 1013.64C261.455 1014.92 262.255 1015.56 263.855 1015.56C264.602 1015.56 265.242 1015.31 265.775 1014.8C266.308 1014.27 266.575 1013.59 266.575 1012.76V1011ZM292.576 999.16C294.229 999.16 295.709 999.547 297.016 1000.32C298.349 1001.09 299.389 1002.27 300.136 1003.84C300.909 1005.39 301.296 1007.29 301.296 1009.56V1010C301.296 1012.27 300.949 1014.19 300.256 1015.76C299.589 1017.31 298.669 1018.47 297.496 1019.24C296.349 1020.01 295.042 1020.4 293.576 1020.4C291.069 1020.4 289.309 1019.56 288.296 1017.88V1027.24H280.376V999.56H286.696L287.416 1001.92C288.829 1000.08 290.549 999.16 292.576 999.16ZM290.776 1004C290.082 1004 289.496 1004.28 289.016 1004.84C288.536 1005.37 288.296 1006.03 288.296 1006.8V1012.6C288.296 1013.37 288.536 1014.04 289.016 1014.6C289.496 1015.13 290.082 1015.4 290.776 1015.4C291.469 1015.4 292.056 1015.13 292.536 1014.6C293.016 1014.04 293.256 1013.37 293.256 1012.6V1006.8C293.256 1006.03 293.016 1005.37 292.536 1004.84C292.056 1004.28 291.469 1004 290.776 1004ZM313.479 996.92H305.599V991.2H313.479V996.92ZM313.479 1020H305.599V999.6H313.479V1020ZM327.754 999.56H332.554V1005.24H327.754V1012.8C327.754 1013.87 327.954 1014.6 328.354 1015C328.781 1015.37 329.341 1015.56 330.034 1015.56C330.354 1015.56 330.768 1015.52 331.274 1015.44C331.808 1015.33 332.221 1015.21 332.514 1015.08V1019.56C331.901 1019.83 331.048 1020.04 329.954 1020.2C328.861 1020.36 327.928 1020.44 327.154 1020.44C324.808 1020.44 322.994 1020.01 321.714 1019.16C320.461 1018.31 319.834 1016.85 319.834 1014.8V1005.24H317.594V999.56H320.154L322.914 993.04H327.754V999.56ZM347.112 999.16C350.205 999.16 352.565 999.76 354.192 1000.96C355.845 1002.16 356.672 1003.72 356.672 1005.64V1014.08C356.672 1014.59 356.792 1014.96 357.032 1015.2C357.272 1015.44 357.565 1015.56 357.912 1015.56C358.419 1015.56 358.885 1015.44 359.312 1015.2V1019.48C358.459 1020.09 357.112 1020.4 355.272 1020.4C353.565 1020.4 352.219 1020.12 351.232 1019.56C350.245 1018.97 349.632 1018.17 349.392 1017.16C348.539 1018.15 347.592 1018.93 346.552 1019.52C345.539 1020.11 344.285 1020.4 342.792 1020.4C340.659 1020.4 338.925 1019.99 337.592 1019.16C336.259 1018.33 335.592 1016.71 335.592 1014.28C335.592 1012.44 336.112 1011.03 337.152 1010.04C338.192 1009.03 339.672 1008.33 341.592 1007.96C343.539 1007.56 346.005 1007.36 348.992 1007.36V1006.2C348.992 1005.45 348.739 1004.87 348.232 1004.44C347.752 1004.01 347.139 1003.8 346.392 1003.8C345.779 1003.8 345.192 1003.99 344.632 1004.36C344.099 1004.71 343.832 1005.15 343.832 1005.68V1005.84H336.232C336.205 1005.76 336.192 1005.57 336.192 1005.28C336.192 1004.13 336.579 1003.11 337.352 1002.2C338.152 1001.27 339.272 1000.53 340.712 1000C342.179 999.44 343.872 999.16 345.792 999.16H347.112ZM348.992 1011C347.232 1011 345.939 1011.24 345.112 1011.72C344.285 1012.17 343.872 1012.81 343.872 1013.64C343.872 1014.92 344.672 1015.56 346.272 1015.56C347.019 1015.56 347.659 1015.31 348.192 1014.8C348.725 1014.27 348.992 1013.59 348.992 1012.76V1011ZM370.713 991.2V1020H362.793V991.2H370.713ZM395.762 992.16C397.629 992.16 399.282 992.493 400.722 993.16C402.189 993.827 403.322 994.733 404.122 995.88C404.949 997 405.362 998.24 405.362 999.6C405.362 1000.99 405.016 1002.23 404.322 1003.32C403.656 1004.39 402.736 1005.16 401.562 1005.64C403.029 1006.15 404.162 1006.99 404.962 1008.16C405.762 1009.33 406.162 1010.76 406.162 1012.44C406.162 1013.93 405.749 1015.28 404.922 1016.48C404.122 1017.68 402.936 1018.64 401.362 1019.36C399.789 1020.05 397.922 1020.4 395.762 1020.4H394.082C391.922 1020.4 390.056 1020.05 388.482 1019.36C386.909 1018.64 385.709 1017.68 384.882 1016.48C384.082 1015.28 383.682 1013.95 383.682 1012.48V1011.64H390.722C390.722 1012.47 390.989 1013.15 391.522 1013.68C392.056 1014.19 392.856 1014.44 393.922 1014.44H395.002C396.042 1014.44 396.829 1014.16 397.362 1013.6C397.922 1013.04 398.202 1012.28 398.202 1011.32C398.202 1010.39 397.936 1009.68 397.402 1009.2C396.896 1008.69 396.229 1008.44 395.402 1008.44H391.242V1003.52H394.762C395.589 1003.52 396.256 1003.28 396.762 1002.8C397.296 1002.29 397.562 1001.57 397.562 1000.64C397.562 999.947 397.282 999.36 396.722 998.88C396.189 998.373 395.536 998.12 394.762 998.12H394.042C393.269 998.12 392.602 998.373 392.042 998.88C391.509 999.36 391.242 999.947 391.242 1000.64H384.562V999.64C384.562 998.253 384.976 997 385.802 995.88C386.629 994.733 387.802 993.827 389.322 993.16C390.842 992.493 392.589 992.16 394.562 992.16H395.762ZM421.812 992.16C423.625 992.16 425.292 992.613 426.812 993.52C428.358 994.4 429.572 995.613 430.452 997.16C431.358 998.68 431.812 1000.35 431.812 1002.16V1010.4C431.812 1012.21 431.358 1013.89 430.452 1015.44C429.572 1016.96 428.358 1018.17 426.812 1019.08C425.292 1019.96 423.625 1020.4 421.812 1020.4H420.012C418.198 1020.4 416.518 1019.96 414.972 1019.08C413.452 1018.17 412.238 1016.96 411.332 1015.44C410.452 1013.89 410.012 1012.21 410.012 1010.4V1002.16C410.012 1000.35 410.452 998.68 411.332 997.16C412.238 995.613 413.452 994.4 414.972 993.52C416.518 992.613 418.198 992.16 420.012 992.16H421.812ZM420.932 997.92C420.078 997.92 419.358 998.24 418.772 998.88C418.212 999.493 417.932 1000.24 417.932 1001.12V1011.4C417.932 1012.28 418.212 1013.04 418.772 1013.68C419.358 1014.29 420.065 1014.6 420.892 1014.6C421.745 1014.6 422.452 1014.29 423.012 1013.68C423.598 1013.04 423.892 1012.28 423.892 1011.4V1001.12C423.892 1000.24 423.598 999.493 423.012 998.88C422.452 998.24 421.758 997.92 420.932 997.92ZM458.901 992.56L442.221 1020H438.421L455.181 992.56H458.901ZM441.301 992.6C442.661 992.6 443.821 993.08 444.781 994.04C445.768 995 446.261 996.16 446.261 997.52V1001.6C446.261 1002.96 445.768 1004.12 444.781 1005.08C443.821 1006.04 442.661 1006.52 441.301 1006.52H440.421C439.061 1006.52 437.901 1006.04 436.941 1005.08C435.981 1004.12 435.501 1002.96 435.501 1001.6V997.52C435.501 996.16 435.981 995 436.941 994.04C437.901 993.08 439.061 992.6 440.421 992.6H441.301ZM440.861 995.44C440.461 995.44 440.114 995.587 439.821 995.88C439.528 996.173 439.381 996.547 439.381 997V1002.08C439.381 1002.53 439.528 1002.91 439.821 1003.2C440.114 1003.49 440.461 1003.64 440.861 1003.64C441.288 1003.64 441.634 1003.49 441.901 1003.2C442.194 1002.91 442.341 1002.53 442.341 1002.08V997C442.341 996.547 442.194 996.173 441.901 995.88C441.634 995.587 441.288 995.44 440.861 995.44ZM456.901 1006.08C458.261 1006.08 459.421 1006.56 460.381 1007.52C461.368 1008.48 461.861 1009.64 461.861 1011V1015.08C461.861 1015.96 461.634 1016.79 461.181 1017.56C460.728 1018.31 460.114 1018.91 459.341 1019.36C458.594 1019.81 457.781 1020.04 456.901 1020.04H456.021C454.661 1020.04 453.501 1019.56 452.541 1018.6C451.581 1017.61 451.101 1016.44 451.101 1015.08V1011C451.101 1009.64 451.581 1008.48 452.541 1007.52C453.501 1006.56 454.661 1006.08 456.021 1006.08H456.901ZM456.461 1008.92C456.061 1008.92 455.714 1009.08 455.421 1009.4C455.128 1009.69 454.981 1010.07 454.981 1010.52V1015.6C454.981 1016.03 455.128 1016.4 455.421 1016.72C455.714 1017.01 456.061 1017.16 456.461 1017.16C456.888 1017.16 457.234 1017.01 457.501 1016.72C457.794 1016.4 457.941 1016.03 457.941 1015.6V1010.52C457.941 1010.07 457.794 1009.69 457.501 1009.4C457.234 1009.08 456.888 1008.92 456.461 1008.92Z" fill="white"/>
<path d="M64.1433 1020V1021H64.885L65.1003 1020.29L64.1433 1020ZM54.1433 1020L53.1851 1020.29L53.3984 1021H54.1433V1020ZM45.9433 992.56V991.56H44.6007L44.9851 992.846L45.9433 992.56ZM54.6633 992.56L55.6258 992.289L55.4205 991.56H54.6633V992.56ZM59.4633 1009.6L58.5007 1009.87L58.7061 1010.6H59.4633V1009.6ZM59.6233 1009.6V1010.6H60.3822L60.5864 1009.87L59.6233 1009.6ZM64.3833 992.56V991.56H63.6243L63.4202 992.291L64.3833 992.56ZM72.4633 992.56L73.4203 992.85L73.8114 991.56H72.4633V992.56ZM64.1433 1019H54.1433V1021H64.1433V1019ZM55.1014 1019.71L46.9014 992.274L44.9851 992.846L53.1851 1020.29L55.1014 1019.71ZM45.9433 993.56H54.6633V991.56H45.9433V993.56ZM53.7007 992.831L58.5007 1009.87L60.4258 1009.33L55.6258 992.289L53.7007 992.831ZM59.4633 1010.6H59.6233V1008.6H59.4633V1010.6ZM60.5864 1009.87L65.3464 992.829L63.4202 992.291L58.6602 1009.33L60.5864 1009.87ZM64.3833 993.56H72.4633V991.56H64.3833V993.56ZM71.5063 992.27L63.1863 1019.71L65.1003 1020.29L73.4203 992.85L71.5063 992.27ZM91.7933 1000.36L91.3144 1001.24L91.3239 1001.24L91.3334 1001.25L91.7933 1000.36ZM95.1933 1003.6L94.3199 1004.09L94.3235 1004.09L94.3271 1004.1L95.1933 1003.6ZM96.3933 1010.84V1011.84H97.3933V1010.84H96.3933ZM83.0733 1010.84V1009.84H82.0733V1010.84H83.0733ZM83.9133 1014.84L83.2625 1015.6L83.2712 1015.61L83.28 1015.61L83.9133 1014.84ZM88.2733 1014.72L87.5165 1014.07L87.514 1014.07L88.2733 1014.72ZM89.0333 1012.32V1011.32H88.0333V1012.32H89.0333ZM96.3533 1012.32H97.3533V1011.32H96.3533V1012.32ZM95.1533 1016.44L94.3157 1015.89L94.3115 1015.9L94.3074 1015.91L95.1533 1016.44ZM91.7133 1019.36L92.1344 1020.27L92.1414 1020.26L91.7133 1019.36ZM80.0333 1019.24L79.6033 1020.14L79.6119 1020.15L79.6205 1020.15L80.0333 1019.24ZM76.0333 1015.8L75.1878 1016.33L75.1933 1016.34L75.1989 1016.35L76.0333 1015.8ZM75.9533 1003.8L75.1011 1003.28L75.0985 1003.28L75.9533 1003.8ZM79.8333 1000.36L80.257 1001.27L80.2688 1001.26L79.8333 1000.36ZM83.8733 1004.84L84.5804 1005.55L84.589 1005.54L84.5974 1005.53L83.8733 1004.84ZM83.0733 1007.36H82.0733V1008.36H83.0733V1007.36ZM88.5933 1007.36V1008.36H89.5933V1007.36H88.5933ZM87.7933 1004.84L87.0691 1005.53L87.0776 1005.54L87.0862 1005.55L87.7933 1004.84ZM86.5133 1000.16C88.4372 1000.16 90.0247 1000.53 91.3144 1001.24L92.2721 999.482C90.6286 998.586 88.696 998.16 86.5133 998.16V1000.16ZM91.3334 1001.25C92.6634 1001.94 93.6479 1002.88 94.3199 1004.09L96.0666 1003.11C95.192 1001.54 93.9098 1000.33 92.2531 999.472L91.3334 1001.25ZM94.3271 1004.1C95.0296 1005.32 95.3933 1006.73 95.3933 1008.36H97.3933C97.3933 1006.42 96.957 1004.66 96.0595 1003.1L94.3271 1004.1ZM95.3933 1008.36V1010.84H97.3933V1008.36H95.3933ZM96.3933 1009.84H83.0733V1011.84H96.3933V1009.84ZM82.0733 1010.84V1012.76H84.0733V1010.84H82.0733ZM82.0733 1012.76C82.0733 1013.89 82.4309 1014.89 83.2625 1015.6L84.5641 1014.08C84.2757 1013.83 84.0733 1013.45 84.0733 1012.76H82.0733ZM83.28 1015.61C84.0787 1016.27 85.0629 1016.56 86.1533 1016.56V1014.56C85.4303 1014.56 84.9212 1014.37 84.5465 1014.07L83.28 1015.61ZM86.1533 1016.56C87.2949 1016.56 88.3142 1016.21 89.0325 1015.37L87.514 1014.07C87.2724 1014.35 86.8783 1014.56 86.1533 1014.56V1016.56ZM89.0301 1015.37C89.7366 1014.56 90.0333 1013.5 90.0333 1012.32H88.0333C88.0333 1013.17 87.8233 1013.71 87.5165 1014.07L89.0301 1015.37ZM89.0333 1013.32H96.3533V1011.32H89.0333V1013.32ZM95.3533 1012.32C95.3533 1013.65 95.0055 1014.84 94.3157 1015.89L95.9909 1016.99C96.901 1015.59 97.3533 1014.03 97.3533 1012.32H95.3533ZM94.3074 1015.91C93.6506 1016.95 92.6616 1017.8 91.2852 1018.46L92.1414 1020.26C93.805 1019.48 95.1092 1018.38 95.9992 1016.97L94.3074 1015.91ZM91.2922 1018.45C89.9592 1019.07 88.3361 1019.4 86.3933 1019.4V1021.4C88.5571 1021.4 90.4807 1021.03 92.1344 1020.27L91.2922 1018.45ZM86.3933 1019.4H85.7933V1021.4H86.3933V1019.4ZM85.7933 1019.4C83.7826 1019.4 82.0062 1019.04 80.446 1018.33L79.6205 1020.15C81.4737 1020.99 83.5373 1021.4 85.7933 1021.4V1019.4ZM80.4632 1018.34C78.9407 1017.61 77.7499 1016.58 76.8676 1015.25L75.1989 1016.35C76.29 1018 77.7659 1019.27 79.6033 1020.14L80.4632 1018.34ZM76.8788 1015.27C76.0347 1013.93 75.5933 1012.32 75.5933 1010.4H73.5933C73.5933 1012.64 74.1118 1014.63 75.1878 1016.33L76.8788 1015.27ZM75.5933 1010.4V1009.16H73.5933V1010.4H75.5933ZM75.5933 1009.16C75.5933 1007.23 76.0131 1005.63 76.8081 1004.32L75.0985 1003.28C74.0801 1004.96 73.5933 1006.93 73.5933 1009.16H75.5933ZM76.8055 1004.32C77.6339 1002.97 78.7764 1001.96 80.257 1001.27L79.4096 999.454C77.5835 1000.31 76.1393 1001.59 75.1011 1003.28L76.8055 1004.32ZM80.2688 1001.26C81.7661 1000.54 83.5065 1000.16 85.5133 1000.16V998.16C83.2534 998.16 81.2071 998.584 79.3977 999.46L80.2688 1001.26ZM85.5133 1000.16H86.5133V998.16H85.5133V1000.16ZM85.8333 1003C84.7863 1003 83.8712 1003.39 83.1491 1004.15L84.5974 1005.53C84.942 1005.17 85.3336 1005 85.8333 1005V1003ZM83.1662 1004.13C82.4401 1004.86 82.0733 1005.77 82.0733 1006.8H84.0733C84.0733 1006.28 84.2398 1005.89 84.5804 1005.55L83.1662 1004.13ZM82.0733 1006.8V1007.36H84.0733V1006.8H82.0733ZM83.0733 1008.36H88.5933V1006.36H83.0733V1008.36ZM89.5933 1007.36V1006.8H87.5933V1007.36H89.5933ZM89.5933 1006.8C89.5933 1005.77 89.2265 1004.86 88.5004 1004.13L87.0862 1005.55C87.4267 1005.89 87.5933 1006.28 87.5933 1006.8H89.5933ZM88.5174 1004.15C87.7953 1003.39 86.8803 1003 85.8333 1003V1005C86.3329 1005 86.7246 1005.17 87.0691 1005.53L88.5174 1004.15ZM117.817 999.96L117.31 1000.82L117.321 1000.83L117.817 999.96ZM120.017 1002.16L119.148 1002.66L119.155 1002.67L120.017 1002.16ZM120.817 1020V1021H121.817V1020H120.817ZM112.897 1020H111.897V1021H112.897V1020ZM112.257 1005.52L111.488 1006.16L111.508 1006.18L111.529 1006.21L112.257 1005.52ZM109.257 1005.52L108.509 1004.86L108.507 1004.86L109.257 1005.52ZM108.657 1020V1021H109.657V1020H108.657ZM100.737 1020H99.7367V1021H100.737V1020ZM100.737 999.56V998.56H99.7367V999.56H100.737ZM106.697 999.56L107.662 999.299L107.462 998.56H106.697V999.56ZM107.497 1002.52L106.531 1002.78L107.113 1004.93L108.333 1003.07L107.497 1002.52ZM114.817 1000.16C115.739 1000.16 116.563 1000.38 117.31 1000.82L118.324 999.098C117.257 998.471 116.081 998.16 114.817 998.16V1000.16ZM117.321 1000.83C118.099 1001.27 118.704 1001.88 119.148 1002.66L120.885 1001.66C120.263 1000.58 119.401 999.714 118.313 999.092L117.321 1000.83ZM119.155 1002.67C119.594 1003.41 119.817 1004.24 119.817 1005.16H121.817C121.817 1003.9 121.506 1002.72 120.879 1001.65L119.155 1002.67ZM119.817 1005.16V1020H121.817V1005.16H119.817ZM120.817 1019H112.897V1021H120.817V1019ZM113.897 1020V1007.2H111.897V1020H113.897ZM113.897 1007.2C113.897 1006.3 113.599 1005.49 112.985 1004.83L111.529 1006.21C111.767 1006.46 111.897 1006.77 111.897 1007.2H113.897ZM113.025 1004.88C112.449 1004.19 111.682 1003.8 110.777 1003.8V1005.8C111.045 1005.8 111.264 1005.89 111.488 1006.16L113.025 1004.88ZM110.777 1003.8C109.875 1003.8 109.106 1004.18 108.509 1004.86L110.004 1006.18C110.261 1005.9 110.505 1005.8 110.777 1005.8V1003.8ZM108.507 1004.86C107.929 1005.51 107.657 1006.32 107.657 1007.2H109.657C109.657 1006.75 109.785 1006.43 110.007 1006.18L108.507 1004.86ZM107.657 1007.2V1020H109.657V1007.2H107.657ZM108.657 1019H100.737V1021H108.657V1019ZM101.737 1020V999.56H99.7367V1020H101.737ZM100.737 1000.56H106.697V998.56H100.737V1000.56ZM105.731 999.821L106.531 1002.78L108.462 1002.26L107.662 999.299L105.731 999.821ZM108.333 1003.07C109.616 1001.11 111.369 1000.16 113.697 1000.16V998.16C110.691 998.16 108.311 999.451 106.66 1001.97L108.333 1003.07ZM113.697 1000.16H114.817V998.16H113.697V1000.16ZM134.962 999.56H133.962V1000.56H134.962V999.56ZM139.762 999.56H140.762V998.56H139.762V999.56ZM139.762 1005.24V1006.24H140.762V1005.24H139.762ZM134.962 1005.24V1004.24H133.962V1005.24H134.962ZM135.562 1015L134.855 1015.71L134.878 1015.73L134.904 1015.75L135.562 1015ZM138.482 1015.44L138.638 1016.43L138.658 1016.42L138.678 1016.42L138.482 1015.44ZM139.722 1015.08H140.722V1013.53L139.308 1014.17L139.722 1015.08ZM139.722 1019.56L140.121 1020.48L140.722 1020.22V1019.56H139.722ZM137.162 1020.2L137.017 1019.21L137.162 1020.2ZM128.922 1019.16L128.359 1019.99L128.367 1019.99L128.922 1019.16ZM127.042 1005.24H128.042V1004.24H127.042V1005.24ZM124.802 1005.24H123.802V1006.24H124.802V1005.24ZM124.802 999.56V998.56H123.802V999.56H124.802ZM127.362 999.56V1000.56H128.025L128.283 999.95L127.362 999.56ZM130.122 993.04V992.04H129.459L129.201 992.65L130.122 993.04ZM134.962 993.04H135.962V992.04H134.962V993.04ZM134.962 1000.56H139.762V998.56H134.962V1000.56ZM138.762 999.56V1005.24H140.762V999.56H138.762ZM139.762 1004.24H134.962V1006.24H139.762V1004.24ZM133.962 1005.24V1012.8H135.962V1005.24H133.962ZM133.962 1012.8C133.962 1013.92 134.158 1015.01 134.855 1015.71L136.269 1014.29C136.166 1014.19 135.962 1013.81 135.962 1012.8H133.962ZM134.904 1015.75C135.551 1016.32 136.363 1016.56 137.242 1016.56V1014.56C136.735 1014.56 136.427 1014.43 136.221 1014.25L134.904 1015.75ZM137.242 1016.56C137.636 1016.56 138.107 1016.51 138.638 1016.43L138.326 1014.45C137.844 1014.53 137.488 1014.56 137.242 1014.56V1016.56ZM138.678 1016.42C139.243 1016.31 139.741 1016.17 140.136 1015.99L139.308 1014.17C139.116 1014.26 138.788 1014.36 138.286 1014.46L138.678 1016.42ZM138.722 1015.08V1019.56H140.722V1015.08H138.722ZM139.323 1018.64C138.826 1018.86 138.072 1019.06 137.017 1019.21L137.307 1021.19C138.439 1021.02 139.391 1020.79 140.121 1020.48L139.323 1018.64ZM137.017 1019.21C135.953 1019.37 135.071 1019.44 134.362 1019.44V1021.44C135.199 1021.44 136.184 1021.35 137.307 1021.19L137.017 1019.21ZM134.362 1019.44C132.116 1019.44 130.527 1019.03 129.477 1018.33L128.367 1019.99C129.877 1021 131.915 1021.44 134.362 1021.44V1019.44ZM129.485 1018.33C128.596 1017.73 128.042 1016.65 128.042 1014.8H126.042C126.042 1017.06 126.741 1018.88 128.359 1019.99L129.485 1018.33ZM128.042 1014.8V1005.24H126.042V1014.8H128.042ZM127.042 1004.24H124.802V1006.24H127.042V1004.24ZM125.802 1005.24V999.56H123.802V1005.24H125.802ZM124.802 1000.56H127.362V998.56H124.802V1000.56ZM128.283 999.95L131.043 993.43L129.201 992.65L126.441 999.17L128.283 999.95ZM130.122 994.04H134.962V992.04H130.122V994.04ZM133.962 993.04V999.56H135.962V993.04H133.962ZM164.12 1015.2L163.413 1015.91L163.413 1015.91L164.12 1015.2ZM166.4 1015.2H167.4V1013.49L165.91 1014.33L166.4 1015.2ZM166.4 1019.48L166.983 1020.29L167.4 1019.99V1019.48H166.4ZM158.44 1019.6L157.914 1020.45L157.924 1020.46L157.933 1020.46L158.44 1019.6ZM156.48 1017.16L157.416 1016.81L156.723 1014.96L155.643 1016.61L156.48 1017.16ZM154.24 1019.32L154.809 1020.14L154.816 1020.14L154.823 1020.13L154.24 1019.32ZM146.64 1019.6L146.133 1020.46L146.144 1020.47L146.64 1019.6ZM144.48 1017.44L143.612 1017.94L143.618 1017.95L144.48 1017.44ZM143.68 999.56V998.56H142.68V999.56H143.68ZM151.6 999.56H152.6V998.56H151.6V999.56ZM152.2 1014.08L151.432 1014.72L151.451 1014.74L151.472 1014.77L152.2 1014.08ZM155.2 1014.08L154.452 1013.42L154.45 1013.42L155.2 1014.08ZM155.84 999.56V998.56H154.84V999.56H155.84ZM163.76 999.56H164.76V998.56H163.76V999.56ZM162.76 1014.08C162.76 1014.72 162.91 1015.4 163.413 1015.91L164.827 1014.49C164.85 1014.52 164.76 1014.45 164.76 1014.08H162.76ZM163.413 1015.91C163.845 1016.34 164.394 1016.56 165 1016.56V1014.56C164.912 1014.56 164.875 1014.54 164.827 1014.49L163.413 1015.91ZM165 1016.56C165.672 1016.56 166.308 1016.4 166.89 1016.07L165.91 1014.33C165.638 1014.48 165.341 1014.56 165 1014.56V1016.56ZM165.4 1015.2V1019.48H167.4V1015.2H165.4ZM165.816 1018.67C165.219 1019.1 164.13 1019.4 162.36 1019.4V1021.4C164.27 1021.4 165.874 1021.09 166.983 1020.29L165.816 1018.67ZM162.36 1019.4C160.732 1019.4 159.632 1019.14 158.947 1018.74L157.933 1020.46C159.061 1021.13 160.575 1021.4 162.36 1021.4V1019.4ZM158.965 1018.75C158.261 1018.31 157.744 1017.68 157.416 1016.81L155.544 1017.51C156.016 1018.77 156.806 1019.77 157.914 1020.45L158.965 1018.75ZM155.643 1016.61C155.284 1017.16 154.645 1017.8 153.657 1018.51L154.823 1020.13C155.915 1019.35 156.769 1018.54 157.317 1017.71L155.643 1016.61ZM153.671 1018.5C152.796 1019.1 151.848 1019.4 150.8 1019.4V1021.4C152.259 1021.4 153.603 1020.98 154.809 1020.14L153.671 1018.5ZM150.8 1019.4H149.68V1021.4H150.8V1019.4ZM149.68 1019.4C148.757 1019.4 147.916 1019.18 147.136 1018.73L146.144 1020.47C147.231 1021.09 148.416 1021.4 149.68 1021.4V1019.4ZM147.147 1018.74C146.387 1018.29 145.789 1017.69 145.342 1016.93L143.618 1017.95C144.237 1019 145.08 1019.84 146.133 1020.46L147.147 1018.74ZM145.348 1016.94C144.903 1016.16 144.68 1015.32 144.68 1014.4H142.68C142.68 1015.66 142.99 1016.85 143.612 1017.94L145.348 1016.94ZM144.68 1014.4V999.56H142.68V1014.4H144.68ZM143.68 1000.56H151.6V998.56H143.68V1000.56ZM150.6 999.56V1012.36H152.6V999.56H150.6ZM150.6 1012.36C150.6 1013.24 150.871 1014.05 151.432 1014.72L152.968 1013.44C152.728 1013.15 152.6 1012.81 152.6 1012.36H150.6ZM151.472 1014.77C152.074 1015.41 152.839 1015.76 153.72 1015.76V1013.76C153.427 1013.76 153.179 1013.66 152.928 1013.39L151.472 1014.77ZM153.72 1015.76C154.603 1015.76 155.366 1015.4 155.95 1014.74L154.45 1013.42C154.233 1013.66 154.01 1013.76 153.72 1013.76V1015.76ZM155.947 1014.74C156.543 1014.07 156.84 1013.26 156.84 1012.36H154.84C154.84 1012.79 154.71 1013.13 154.452 1013.42L155.947 1014.74ZM156.84 1012.36V999.56H154.84V1012.36H156.84ZM155.84 1000.56H163.76V998.56H155.84V1000.56ZM162.76 999.56V1014.08H164.76V999.56H162.76ZM186.437 1000.64L185.72 1001.34L185.73 1001.35L185.74 1001.36L186.437 1000.64ZM187.917 1005.32L188.916 1005.37L188.917 1005.35V1005.32H187.917ZM187.837 1006.84L188.834 1006.92L188.835 1006.91L188.836 1006.89L187.837 1006.84ZM187.757 1007.84V1008.84H188.68L188.754 1007.92L187.757 1007.84ZM181.277 1007.84H180.277V1008.84H181.277V1007.84ZM180.757 1005.48L179.976 1006.1L179.999 1006.13L180.024 1006.16L180.757 1005.48ZM178.357 1005.48L177.601 1004.83L177.598 1004.83L178.357 1005.48ZM177.877 1020V1021H178.877V1020H177.877ZM170.157 1020H169.157V1021H170.157V1020ZM170.157 999.56V998.56H169.157V999.56H170.157ZM176.077 999.56L177.036 999.275L176.823 998.56H176.077V999.56ZM176.957 1002.52L175.998 1002.8L176.72 1005.23L177.851 1002.97L176.957 1002.52ZM177.877 1001.24L178.639 1001.89L178.639 1001.89L177.877 1001.24ZM179.717 999.8L180.2 1000.68L180.2 1000.68L179.717 999.8ZM182.357 1000.16C183.926 1000.16 184.997 1000.59 185.72 1001.34L187.154 999.943C185.957 998.712 184.308 998.16 182.357 998.16V1000.16ZM185.74 1001.36C186.489 1002.09 186.917 1003.13 186.917 1004.64H188.917C188.917 1002.73 188.359 1001.11 187.134 999.923L185.74 1001.36ZM186.917 1004.64V1005.32H188.917V1004.64H186.917ZM186.918 1005.27L186.838 1006.79L188.836 1006.89L188.916 1005.37L186.918 1005.27ZM186.84 1006.76L186.76 1007.76L188.754 1007.92L188.834 1006.92L186.84 1006.76ZM187.757 1006.84H181.277V1008.84H187.757V1006.84ZM182.277 1007.84V1006.88H180.277V1007.84H182.277ZM182.277 1006.88C182.277 1006.09 182.026 1005.38 181.49 1004.8L180.024 1006.16C180.181 1006.33 180.277 1006.55 180.277 1006.88H182.277ZM181.538 1004.86C181.056 1004.25 180.396 1003.88 179.597 1003.88V1005.88C179.705 1005.88 179.818 1005.91 179.976 1006.1L181.538 1004.86ZM179.597 1003.88C178.795 1003.88 178.116 1004.23 177.601 1004.83L179.113 1006.13C179.291 1005.93 179.439 1005.88 179.597 1005.88V1003.88ZM177.598 1004.83C177.101 1005.41 176.877 1006.12 176.877 1006.88H178.877C178.877 1006.52 178.973 1006.3 179.116 1006.13L177.598 1004.83ZM176.877 1006.88V1020H178.877V1006.88H176.877ZM177.877 1019H170.157V1021H177.877V1019ZM171.157 1020V999.56H169.157V1020H171.157ZM170.157 1000.56H176.077V998.56H170.157V1000.56ZM175.118 999.845L175.998 1002.8L177.916 1002.24L177.036 999.275L175.118 999.845ZM177.851 1002.97C177.956 1002.76 178.198 1002.41 178.639 1001.89L177.115 1000.59C176.649 1001.14 176.278 1001.64 176.063 1002.07L177.851 1002.97ZM178.639 1001.89C178.996 1001.47 179.506 1001.06 180.2 1000.68L179.234 998.924C178.381 999.395 177.664 999.946 177.115 1000.59L178.639 1001.89ZM180.2 1000.68C180.809 1000.34 181.519 1000.16 182.357 1000.16V998.16C181.222 998.16 180.172 998.407 179.234 998.924L180.2 1000.68ZM207.871 1000.36L207.393 1001.24L207.402 1001.24L207.412 1001.25L207.871 1000.36ZM211.271 1003.6L210.398 1004.09L210.402 1004.09L210.405 1004.1L211.271 1003.6ZM212.471 1010.84V1011.84H213.471V1010.84H212.471ZM199.151 1010.84V1009.84H198.151V1010.84H199.151ZM199.991 1014.84L199.341 1015.6L199.349 1015.61L199.358 1015.61L199.991 1014.84ZM204.351 1014.72L203.595 1014.07L203.592 1014.07L204.351 1014.72ZM205.111 1012.32V1011.32H204.111V1012.32H205.111ZM212.431 1012.32H213.431V1011.32H212.431V1012.32ZM211.231 1016.44L210.394 1015.89L210.39 1015.9L210.385 1015.91L211.231 1016.44ZM207.791 1019.36L208.213 1020.27L208.219 1020.26L207.791 1019.36ZM196.111 1019.24L195.681 1020.14L195.69 1020.15L195.699 1020.15L196.111 1019.24ZM192.111 1015.8L191.266 1016.33L191.271 1016.34L191.277 1016.35L192.111 1015.8ZM192.031 1003.8L191.179 1003.28L191.177 1003.28L192.031 1003.8ZM195.911 1000.36L196.335 1001.27L196.347 1001.26L195.911 1000.36ZM199.951 1004.84L200.659 1005.55L200.667 1005.54L200.676 1005.53L199.951 1004.84ZM199.151 1007.36H198.151V1008.36H199.151V1007.36ZM204.671 1007.36V1008.36H205.671V1007.36H204.671ZM203.871 1004.84L203.147 1005.53L203.156 1005.54L203.164 1005.55L203.871 1004.84ZM202.591 1000.16C204.515 1000.16 206.103 1000.53 207.393 1001.24L208.35 999.482C206.707 998.586 204.774 998.16 202.591 998.16V1000.16ZM207.412 1001.25C208.742 1001.94 209.726 1002.88 210.398 1004.09L212.145 1003.11C211.27 1001.54 209.988 1000.33 208.331 999.472L207.412 1001.25ZM210.405 1004.1C211.108 1005.32 211.471 1006.73 211.471 1008.36H213.471C213.471 1006.42 213.035 1004.66 212.138 1003.1L210.405 1004.1ZM211.471 1008.36V1010.84H213.471V1008.36H211.471ZM212.471 1009.84H199.151V1011.84H212.471V1009.84ZM198.151 1010.84V1012.76H200.151V1010.84H198.151ZM198.151 1012.76C198.151 1013.89 198.509 1014.89 199.341 1015.6L200.642 1014.08C200.354 1013.83 200.151 1013.45 200.151 1012.76H198.151ZM199.358 1015.61C200.157 1016.27 201.141 1016.56 202.231 1016.56V1014.56C201.508 1014.56 200.999 1014.37 200.625 1014.07L199.358 1015.61ZM202.231 1016.56C203.373 1016.56 204.392 1016.21 205.111 1015.37L203.592 1014.07C203.351 1014.35 202.956 1014.56 202.231 1014.56V1016.56ZM205.108 1015.37C205.815 1014.56 206.111 1013.5 206.111 1012.32H204.111C204.111 1013.17 203.901 1013.71 203.595 1014.07L205.108 1015.37ZM205.111 1013.32H212.431V1011.32H205.111V1013.32ZM211.431 1012.32C211.431 1013.65 211.084 1014.84 210.394 1015.89L212.069 1016.99C212.979 1015.59 213.431 1014.03 213.431 1012.32H211.431ZM210.385 1015.91C209.729 1016.95 208.74 1017.8 207.363 1018.46L208.219 1020.26C209.883 1019.48 211.187 1018.38 212.077 1016.97L210.385 1015.91ZM207.37 1018.45C206.037 1019.07 204.414 1019.4 202.471 1019.4V1021.4C204.635 1021.4 206.559 1021.03 208.213 1020.27L207.37 1018.45ZM202.471 1019.4H201.871V1021.4H202.471V1019.4ZM201.871 1019.4C199.861 1019.4 198.084 1019.04 196.524 1018.33L195.699 1020.15C197.552 1020.99 199.615 1021.4 201.871 1021.4V1019.4ZM196.541 1018.34C195.019 1017.61 193.828 1016.58 192.946 1015.25L191.277 1016.35C192.368 1018 193.844 1019.27 195.681 1020.14L196.541 1018.34ZM192.957 1015.27C192.113 1013.93 191.671 1012.32 191.671 1010.4H189.671C189.671 1012.64 190.19 1014.63 191.266 1016.33L192.957 1015.27ZM191.671 1010.4V1009.16H189.671V1010.4H191.671ZM191.671 1009.16C191.671 1007.23 192.091 1005.63 192.886 1004.32L191.177 1003.28C190.158 1004.96 189.671 1006.93 189.671 1009.16H191.671ZM192.884 1004.32C193.712 1002.97 194.855 1001.96 196.335 1001.27L195.488 999.454C193.662 1000.31 192.217 1001.59 191.179 1003.28L192.884 1004.32ZM196.347 1001.26C197.844 1000.54 199.585 1000.16 201.591 1000.16V998.16C199.332 998.16 197.285 998.584 195.476 999.46L196.347 1001.26ZM201.591 1000.16H202.591V998.16H201.591V1000.16ZM201.911 1003C200.864 1003 199.949 1003.39 199.227 1004.15L200.676 1005.53C201.02 1005.17 201.412 1005 201.911 1005V1003ZM199.244 1004.13C198.518 1004.86 198.151 1005.77 198.151 1006.8H200.151C200.151 1006.28 200.318 1005.89 200.659 1005.55L199.244 1004.13ZM198.151 1006.8V1007.36H200.151V1006.8H198.151ZM199.151 1008.36H204.671V1006.36H199.151V1008.36ZM205.671 1007.36V1006.8H203.671V1007.36H205.671ZM205.671 1006.8C205.671 1005.77 205.305 1004.86 204.579 1004.13L203.164 1005.55C203.505 1005.89 203.671 1006.28 203.671 1006.8H205.671ZM204.596 1004.15C203.873 1003.39 202.958 1003 201.911 1003V1005C202.411 1005 202.803 1005.17 203.147 1005.53L204.596 1004.15ZM244.39 993.48L243.937 994.372L243.946 994.376L243.954 994.38L244.39 993.48ZM248.55 997.4L247.684 997.899L247.687 997.905L248.55 997.4ZM250.07 1003.8V1004.8H251.07V1003.8H250.07ZM242.19 1003.8H241.19V1004.8H242.19V1003.8ZM241.03 999.48L240.336 1000.2L240.342 1000.21L240.349 1000.21L241.03 999.48ZM235.15 999.56L234.443 998.853L234.443 998.853L235.15 999.56ZM235.15 1012.96L235.857 1012.25L235.857 1012.25L235.15 1012.96ZM241.39 1013.08L242.071 1013.81L242.072 1013.81L241.39 1013.08ZM242.55 1008.8V1007.8H241.55V1008.8H242.55ZM250.07 1008.8H251.07V1007.8H250.07V1008.8ZM248.59 1014.96L247.718 1014.47L247.712 1014.48L248.59 1014.96ZM244.59 1019L244.11 1018.12L244.11 1018.12L244.59 1019ZM231.19 1018.96L230.743 1019.85L230.748 1019.86L231.19 1018.96ZM226.63 1014.8L227.481 1014.27L227.481 1014.27L226.63 1014.8ZM226.63 997.96L225.781 997.431L225.779 997.435L226.63 997.96ZM231.19 993.68L230.718 992.798L230.718 992.798L231.19 993.68ZM238.47 993.16C240.548 993.16 242.363 993.572 243.937 994.372L244.843 992.588C242.951 991.628 240.819 991.16 238.47 991.16V993.16ZM243.954 994.38C245.526 995.142 246.766 996.306 247.684 997.899L249.417 996.901C248.307 994.974 246.774 993.524 244.826 992.58L243.954 994.38ZM247.687 997.905C248.59 999.45 249.07 1001.4 249.07 1003.8H251.07C251.07 1001.14 250.537 998.817 249.413 996.895L247.687 997.905ZM250.07 1002.8H242.19V1004.8H250.07V1002.8ZM243.19 1003.8V1002.4H241.19V1003.8H243.19ZM243.19 1002.4C243.19 1000.94 242.721 999.688 241.712 998.748L240.349 1000.21C240.886 1000.71 241.19 1001.4 241.19 1002.4H243.19ZM241.724 998.76C240.771 997.841 239.566 997.4 238.19 997.4V999.4C239.108 999.4 239.796 999.679 240.336 1000.2L241.724 998.76ZM238.19 997.4H237.99V999.4H238.19V997.4ZM237.99 997.4C236.612 997.4 235.409 997.887 234.443 998.853L235.857 1000.27C236.438 999.686 237.128 999.4 237.99 999.4V997.4ZM234.443 998.853C233.477 999.819 232.99 1001.02 232.99 1002.4H234.99C234.99 1001.54 235.276 1000.85 235.857 1000.27L234.443 998.853ZM232.99 1002.4V1010.12H234.99V1002.4H232.99ZM232.99 1010.12C232.99 1011.5 233.477 1012.7 234.443 1013.67L235.857 1012.25C235.276 1011.67 234.99 1010.98 234.99 1010.12H232.99ZM234.443 1013.67C235.409 1014.63 236.612 1015.12 237.99 1015.12V1013.12C237.128 1013.12 236.438 1012.83 235.857 1012.25L234.443 1013.67ZM237.99 1015.12H238.55V1013.12H237.99V1015.12ZM238.55 1015.12C239.915 1015.12 241.115 1014.7 242.071 1013.81L240.71 1012.35C240.172 1012.85 239.479 1013.12 238.55 1013.12V1015.12ZM242.072 1013.81C243.086 1012.87 243.55 1011.59 243.55 1010.12H241.55C241.55 1011.15 241.241 1011.85 240.709 1012.35L242.072 1013.81ZM243.55 1010.12V1008.8H241.55V1010.12H243.55ZM242.55 1009.8H250.07V1007.8H242.55V1009.8ZM249.07 1008.8C249.07 1011 248.608 1012.88 247.718 1014.47L249.462 1015.45C250.546 1013.52 251.07 1011.29 251.07 1008.8H249.07ZM247.712 1014.48C246.841 1016.08 245.644 1017.28 244.11 1018.12L245.07 1019.88C246.95 1018.85 248.419 1017.36 249.468 1015.44L247.712 1014.48ZM244.11 1018.12C242.567 1018.97 240.801 1019.4 238.79 1019.4V1021.4C241.099 1021.4 243.2 1020.9 245.07 1019.88L244.11 1018.12ZM238.79 1019.4H237.67V1021.4H238.79V1019.4ZM237.67 1019.4C235.436 1019.4 233.429 1018.95 231.632 1018.06L230.748 1019.86C232.845 1020.89 235.158 1021.4 237.67 1021.4V1019.4ZM231.637 1018.07C229.882 1017.19 228.503 1015.93 227.481 1014.27L225.779 1015.33C226.998 1017.3 228.658 1018.81 230.743 1019.85L231.637 1018.07ZM227.481 1014.27C226.473 1012.64 225.95 1010.7 225.95 1008.4H223.95C223.95 1011.01 224.548 1013.33 225.779 1015.33L227.481 1014.27ZM225.95 1008.4V1004.16H223.95V1008.4H225.95ZM225.95 1004.16C225.95 1002.01 226.467 1000.13 227.481 998.485L225.779 997.435C224.553 999.42 223.95 1001.67 223.95 1004.16H225.95ZM227.479 998.489C228.534 996.796 229.925 995.492 231.662 994.562L230.718 992.798C228.669 993.895 227.02 995.444 225.781 997.431L227.479 998.489ZM231.662 994.562C233.406 993.628 235.296 993.16 237.35 993.16V991.16C234.977 991.16 232.761 991.705 230.718 992.798L231.662 994.562ZM237.35 993.16H238.47V991.16H237.35V993.16ZM271.775 1000.96L271.181 1001.76L271.187 1001.77L271.775 1000.96ZM274.615 1015.2L273.908 1015.91L273.908 1015.91L274.615 1015.2ZM276.895 1015.2H277.895V1013.49L276.405 1014.33L276.895 1015.2ZM276.895 1019.48L277.478 1020.29L277.895 1019.99V1019.48H276.895ZM268.815 1019.56L268.304 1020.42L268.312 1020.42L268.321 1020.43L268.815 1019.56ZM266.975 1017.16L267.948 1016.93L267.497 1015.03L266.218 1016.51L266.975 1017.16ZM264.135 1019.52L263.643 1018.65L263.634 1018.65L264.135 1019.52ZM255.175 1019.16L255.702 1018.31L255.175 1019.16ZM254.735 1010.04L255.423 1010.77L255.433 1010.76L254.735 1010.04ZM259.175 1007.96L259.366 1008.94L259.376 1008.94L259.175 1007.96ZM266.575 1007.36V1008.36H267.575V1007.36H266.575ZM265.815 1004.44L265.15 1005.19L265.16 1005.2L265.171 1005.2L265.815 1004.44ZM262.215 1004.36L262.76 1005.2L262.77 1005.19L262.215 1004.36ZM261.415 1005.84V1006.84H262.415V1005.84H261.415ZM253.815 1005.84L252.866 1006.16L253.094 1006.84H253.815V1005.84ZM254.935 1002.2L254.176 1001.55L254.174 1001.55L254.935 1002.2ZM258.295 1000L258.642 1000.94L258.652 1000.93L258.295 1000ZM266.575 1011H267.575V1010H266.575V1011ZM262.695 1011.72L263.176 1012.6L263.186 1012.59L263.197 1012.58L262.695 1011.72ZM265.775 1014.8L266.464 1015.52L266.473 1015.52L266.482 1015.51L265.775 1014.8ZM264.695 1000.16C267.681 1000.16 269.796 1000.74 271.181 1001.76L272.368 1000.16C270.5 998.777 267.895 998.16 264.695 998.16V1000.16ZM271.187 1001.77C272.601 1002.8 273.255 1004.06 273.255 1005.64H275.255C275.255 1003.38 274.255 1001.52 272.362 1000.15L271.187 1001.77ZM273.255 1005.64V1014.08H275.255V1005.64H273.255ZM273.255 1014.08C273.255 1014.72 273.405 1015.4 273.908 1015.91L275.322 1014.49C275.345 1014.52 275.255 1014.45 275.255 1014.08H273.255ZM273.908 1015.91C274.34 1016.34 274.889 1016.56 275.495 1016.56V1014.56C275.407 1014.56 275.37 1014.54 275.322 1014.49L273.908 1015.91ZM275.495 1016.56C276.167 1016.56 276.803 1016.4 277.385 1016.07L276.405 1014.33C276.133 1014.48 275.836 1014.56 275.495 1014.56V1016.56ZM275.895 1015.2V1019.48H277.895V1015.2H275.895ZM276.311 1018.67C275.714 1019.1 274.625 1019.4 272.855 1019.4V1021.4C274.765 1021.4 276.369 1021.09 277.478 1020.29L276.311 1018.67ZM272.855 1019.4C271.241 1019.4 270.087 1019.13 269.308 1018.69L268.321 1020.43C269.516 1021.11 271.056 1021.4 272.855 1021.4V1019.4ZM269.326 1018.7C268.546 1018.24 268.119 1017.65 267.948 1016.93L266.002 1017.39C266.311 1018.7 267.111 1019.71 268.304 1020.42L269.326 1018.7ZM266.218 1016.51C265.433 1017.41 264.575 1018.12 263.644 1018.65L264.626 1020.39C265.775 1019.74 266.81 1018.88 267.731 1017.81L266.218 1016.51ZM263.634 1018.65C262.809 1019.13 261.74 1019.4 260.375 1019.4V1021.4C261.997 1021.4 263.434 1021.08 264.636 1020.39L263.634 1018.65ZM260.375 1019.4C258.363 1019.4 256.83 1019.01 255.702 1018.31L254.648 1020.01C256.187 1020.96 258.12 1021.4 260.375 1021.4V1019.4ZM255.702 1018.31C254.8 1017.75 254.175 1016.56 254.175 1014.28H252.175C252.175 1016.85 252.883 1018.92 254.648 1020.01L255.702 1018.31ZM254.175 1014.28C254.175 1012.63 254.635 1011.51 255.423 1010.77L254.047 1009.31C252.755 1010.54 252.175 1012.25 252.175 1014.28H254.175ZM255.433 1010.76C256.292 1009.92 257.572 1009.29 259.366 1008.94L258.984 1006.98C256.937 1007.38 255.257 1008.13 254.037 1009.32L255.433 1010.76ZM259.376 1008.94C261.232 1008.56 263.626 1008.36 266.575 1008.36V1006.36C263.551 1006.36 261.011 1006.56 258.974 1006.98L259.376 1008.94ZM267.575 1007.36V1006.2H265.575V1007.36H267.575ZM267.575 1006.2C267.575 1005.2 267.222 1004.32 266.459 1003.68L265.171 1005.2C265.421 1005.42 265.575 1005.71 265.575 1006.2H267.575ZM266.479 1003.69C265.787 1003.08 264.924 1002.8 263.975 1002.8V1004.8C264.519 1004.8 264.883 1004.95 265.15 1005.19L266.479 1003.69ZM263.975 1002.8C263.145 1002.8 262.368 1003.06 261.66 1003.53L262.77 1005.19C263.182 1004.92 263.578 1004.8 263.975 1004.8V1002.8ZM261.67 1003.52C260.916 1004.01 260.415 1004.74 260.415 1005.68H262.415C262.415 1005.55 262.447 1005.4 262.76 1005.2L261.67 1003.52ZM260.415 1005.68V1005.84H262.415V1005.68H260.415ZM261.415 1004.84H253.815V1006.84H261.415V1004.84ZM254.764 1005.52C254.774 1005.56 254.78 1005.58 254.782 1005.59C254.785 1005.6 254.786 1005.61 254.786 1005.61C254.786 1005.61 254.786 1005.61 254.785 1005.6C254.784 1005.59 254.783 1005.58 254.782 1005.57C254.778 1005.51 254.775 1005.41 254.775 1005.28H252.775C252.775 1005.44 252.778 1005.58 252.787 1005.71C252.795 1005.81 252.81 1005.99 252.866 1006.16L254.764 1005.52ZM254.775 1005.28C254.775 1004.38 255.07 1003.58 255.696 1002.85L254.174 1001.55C253.253 1002.63 252.775 1003.89 252.775 1005.28H254.775ZM255.694 1002.85C256.359 1002.07 257.322 1001.43 258.642 1000.94L257.948 999.062C256.387 999.64 255.111 1000.46 254.176 1001.55L255.694 1002.85ZM258.652 1000.93C259.982 1000.43 261.55 1000.16 263.375 1000.16V998.16C261.359 998.16 259.541 998.454 257.938 999.066L258.652 1000.93ZM263.375 1000.16H264.695V998.16H263.375V1000.16ZM266.575 1010C264.764 1010 263.253 1010.24 262.193 1010.86L263.197 1012.58C263.79 1012.24 264.865 1012 266.575 1012V1010ZM262.214 1010.84C261.122 1011.44 260.455 1012.39 260.455 1013.64H262.455C262.455 1013.24 262.615 1012.9 263.176 1012.6L262.214 1010.84ZM260.455 1013.64C260.455 1014.5 260.735 1015.3 261.43 1015.86C262.083 1016.38 262.948 1016.56 263.855 1016.56V1014.56C263.162 1014.56 262.827 1014.42 262.68 1014.3C262.575 1014.22 262.455 1014.06 262.455 1013.64H260.455ZM263.855 1016.56C264.854 1016.56 265.741 1016.21 266.464 1015.52L265.086 1014.07C264.742 1014.4 264.349 1014.56 263.855 1014.56V1016.56ZM266.482 1015.51C267.222 1014.77 267.575 1013.82 267.575 1012.76H265.575C265.575 1013.35 265.395 1013.77 265.068 1014.09L266.482 1015.51ZM267.575 1012.76V1011H265.575V1012.76H267.575ZM297.016 1000.32L296.506 1001.18L296.514 1001.19L297.016 1000.32ZM300.136 1003.84L299.232 1004.27L299.237 1004.28L299.241 1004.29L300.136 1003.84ZM300.256 1015.76L299.341 1015.36L299.337 1015.36L300.256 1015.76ZM297.496 1019.24L296.945 1018.4L296.937 1018.41L297.496 1019.24ZM288.296 1017.88L289.152 1017.36L287.296 1014.29V1017.88H288.296ZM288.296 1027.24V1028.24H289.296V1027.24H288.296ZM280.376 1027.24H279.376V1028.24H280.376V1027.24ZM280.376 999.56V998.56H279.376V999.56H280.376ZM286.696 999.56L287.652 999.268L287.436 998.56H286.696V999.56ZM287.416 1001.92L286.459 1002.21L287.026 1004.07L288.209 1002.53L287.416 1001.92ZM289.016 1004.84L289.759 1005.51L289.767 1005.5L289.775 1005.49L289.016 1004.84ZM289.016 1014.6L288.257 1015.25L288.264 1015.26L288.272 1015.27L289.016 1014.6ZM292.536 1014.6L293.279 1015.27L293.287 1015.26L293.295 1015.25L292.536 1014.6ZM292.536 1004.84L291.777 1005.49L291.784 1005.5L291.792 1005.51L292.536 1004.84ZM292.576 1000.16C294.066 1000.16 295.368 1000.51 296.506 1001.18L297.525 999.459C296.051 998.587 294.392 998.16 292.576 998.16V1000.16ZM296.514 1001.19C297.65 1001.84 298.561 1002.85 299.232 1004.27L301.039 1003.41C300.218 1001.68 299.048 1000.34 297.517 999.455L296.514 1001.19ZM299.241 1004.29C299.927 1005.66 300.296 1007.4 300.296 1009.56H302.296C302.296 1007.18 301.891 1005.11 301.03 1003.39L299.241 1004.29ZM300.296 1009.56V1010H302.296V1009.56H300.296ZM300.296 1010C300.296 1012.17 299.963 1013.94 299.341 1015.36L301.171 1016.16C301.935 1014.43 302.296 1012.36 302.296 1010H300.296ZM299.337 1015.36C298.732 1016.77 297.926 1017.76 296.945 1018.41L298.046 1020.07C299.412 1019.17 300.446 1017.85 301.174 1016.16L299.337 1015.36ZM296.937 1018.41C295.965 1019.07 294.856 1019.4 293.576 1019.4V1021.4C295.229 1021.4 296.733 1020.96 298.055 1020.07L296.937 1018.41ZM293.576 1019.4C291.308 1019.4 289.933 1018.66 289.152 1017.36L287.439 1018.4C288.685 1020.46 290.83 1021.4 293.576 1021.4V1019.4ZM287.296 1017.88V1027.24H289.296V1017.88H287.296ZM288.296 1026.24H280.376V1028.24H288.296V1026.24ZM281.376 1027.24V999.56H279.376V1027.24H281.376ZM280.376 1000.56H286.696V998.56H280.376V1000.56ZM285.739 999.852L286.459 1002.21L288.372 1001.63L287.652 999.268L285.739 999.852ZM288.209 1002.53C289.464 1000.9 290.908 1000.16 292.576 1000.16V998.16C290.191 998.16 288.194 999.265 286.623 1001.31L288.209 1002.53ZM290.776 1003C289.77 1003 288.913 1003.42 288.257 1004.19L289.775 1005.49C290.079 1005.14 290.395 1005 290.776 1005V1003ZM288.272 1004.17C287.614 1004.9 287.296 1005.8 287.296 1006.8H289.296C289.296 1006.25 289.458 1005.84 289.759 1005.51L288.272 1004.17ZM287.296 1006.8V1012.6H289.296V1006.8H287.296ZM287.296 1012.6C287.296 1013.6 287.613 1014.5 288.257 1015.25L289.775 1013.95C289.458 1013.58 289.296 1013.15 289.296 1012.6H287.296ZM288.272 1015.27C288.935 1016 289.788 1016.4 290.776 1016.4V1014.4C290.377 1014.4 290.057 1014.26 289.759 1013.93L288.272 1015.27ZM290.776 1016.4C291.764 1016.4 292.617 1016 293.279 1015.27L291.792 1013.93C291.495 1014.26 291.175 1014.4 290.776 1014.4V1016.4ZM293.295 1015.25C293.938 1014.5 294.256 1013.6 294.256 1012.6H292.256C292.256 1013.15 292.093 1013.58 291.777 1013.95L293.295 1015.25ZM294.256 1012.6V1006.8H292.256V1012.6H294.256ZM294.256 1006.8C294.256 1005.8 293.938 1004.9 293.279 1004.17L291.792 1005.51C292.094 1005.84 292.256 1006.25 292.256 1006.8H294.256ZM293.295 1004.19C292.639 1003.42 291.782 1003 290.776 1003V1005C291.157 1005 291.473 1005.14 291.777 1005.49L293.295 1004.19ZM313.479 996.92V997.92H314.479V996.92H313.479ZM305.599 996.92H304.599V997.92H305.599V996.92ZM305.599 991.2V990.2H304.599V991.2H305.599ZM313.479 991.2H314.479V990.2H313.479V991.2ZM313.479 1020V1021H314.479V1020H313.479ZM305.599 1020H304.599V1021H305.599V1020ZM305.599 999.6V998.6H304.599V999.6H305.599ZM313.479 999.6H314.479V998.6H313.479V999.6ZM313.479 995.92H305.599V997.92H313.479V995.92ZM306.599 996.92V991.2H304.599V996.92H306.599ZM305.599 992.2H313.479V990.2H305.599V992.2ZM312.479 991.2V996.92H314.479V991.2H312.479ZM313.479 1019H305.599V1021H313.479V1019ZM306.599 1020V999.6H304.599V1020H306.599ZM305.599 1000.6H313.479V998.6H305.599V1000.6ZM312.479 999.6V1020H314.479V999.6H312.479ZM327.754 999.56H326.754V1000.56H327.754V999.56ZM332.554 999.56H333.554V998.56H332.554V999.56ZM332.554 1005.24V1006.24H333.554V1005.24H332.554ZM327.754 1005.24V1004.24H326.754V1005.24H327.754ZM328.354 1015L327.647 1015.71L327.671 1015.73L327.696 1015.75L328.354 1015ZM331.274 1015.44L331.43 1016.43L331.45 1016.42L331.47 1016.42L331.274 1015.44ZM332.514 1015.08H333.514V1013.53L332.1 1014.17L332.514 1015.08ZM332.514 1019.56L332.913 1020.48L333.514 1020.22V1019.56H332.514ZM329.954 1020.2L329.809 1019.21L329.954 1020.2ZM321.714 1019.16L321.151 1019.99L321.159 1019.99L321.714 1019.16ZM319.834 1005.24H320.834V1004.24H319.834V1005.24ZM317.594 1005.24H316.594V1006.24H317.594V1005.24ZM317.594 999.56V998.56H316.594V999.56H317.594ZM320.154 999.56V1000.56H320.817L321.075 999.95L320.154 999.56ZM322.914 993.04V992.04H322.252L321.993 992.65L322.914 993.04ZM327.754 993.04H328.754V992.04H327.754V993.04ZM327.754 1000.56H332.554V998.56H327.754V1000.56ZM331.554 999.56V1005.24H333.554V999.56H331.554ZM332.554 1004.24H327.754V1006.24H332.554V1004.24ZM326.754 1005.24V1012.8H328.754V1005.24H326.754ZM326.754 1012.8C326.754 1013.92 326.951 1015.01 327.647 1015.71L329.061 1014.29C328.958 1014.19 328.754 1013.81 328.754 1012.8H326.754ZM327.696 1015.75C328.343 1016.32 329.155 1016.56 330.034 1016.56V1014.56C329.527 1014.56 329.219 1014.43 329.013 1014.25L327.696 1015.75ZM330.034 1016.56C330.428 1016.56 330.899 1016.51 331.43 1016.43L331.118 1014.45C330.636 1014.53 330.28 1014.56 330.034 1014.56V1016.56ZM331.47 1016.42C332.035 1016.31 332.534 1016.17 332.928 1015.99L332.1 1014.17C331.908 1014.26 331.58 1014.36 331.078 1014.46L331.47 1016.42ZM331.514 1015.08V1019.56H333.514V1015.08H331.514ZM332.115 1018.64C331.619 1018.86 330.864 1019.06 329.809 1019.21L330.099 1021.19C331.231 1021.02 332.183 1020.79 332.913 1020.48L332.115 1018.64ZM329.809 1019.21C328.746 1019.37 327.863 1019.44 327.154 1019.44V1021.44C327.992 1021.44 328.976 1021.35 330.099 1021.19L329.809 1019.21ZM327.154 1019.44C324.908 1019.44 323.319 1019.03 322.269 1018.33L321.159 1019.99C322.669 1021 324.707 1021.44 327.154 1021.44V1019.44ZM322.277 1018.33C321.389 1017.73 320.834 1016.65 320.834 1014.8H318.834C318.834 1017.06 319.533 1018.88 321.151 1019.99L322.277 1018.33ZM320.834 1014.8V1005.24H318.834V1014.8H320.834ZM319.834 1004.24H317.594V1006.24H319.834V1004.24ZM318.594 1005.24V999.56H316.594V1005.24H318.594ZM317.594 1000.56H320.154V998.56H317.594V1000.56ZM321.075 999.95L323.835 993.43L321.993 992.65L319.233 999.17L321.075 999.95ZM322.914 994.04H327.754V992.04H322.914V994.04ZM326.754 993.04V999.56H328.754V993.04H326.754ZM354.192 1000.96L353.598 1001.76L353.605 1001.77L354.192 1000.96ZM357.032 1015.2L356.325 1015.91L356.325 1015.91L357.032 1015.2ZM359.312 1015.2H360.312V1013.49L358.822 1014.33L359.312 1015.2ZM359.312 1019.48L359.896 1020.29L360.312 1019.99V1019.48H359.312ZM351.232 1019.56L350.721 1020.42L350.73 1020.42L350.738 1020.43L351.232 1019.56ZM349.392 1017.16L350.365 1016.93L349.915 1015.03L348.636 1016.51L349.392 1017.16ZM346.552 1019.52L346.061 1018.65L346.051 1018.65L346.552 1019.52ZM337.592 1019.16L338.119 1018.31L337.592 1019.16ZM337.152 1010.04L337.84 1010.77L337.85 1010.76L337.152 1010.04ZM341.592 1007.96L341.783 1008.94L341.793 1008.94L341.592 1007.96ZM348.992 1007.36V1008.36H349.992V1007.36H348.992ZM348.232 1004.44L347.568 1005.19L347.578 1005.2L347.588 1005.2L348.232 1004.44ZM344.632 1004.36L345.177 1005.2L345.187 1005.19L344.632 1004.36ZM343.832 1005.84V1006.84H344.832V1005.84H343.832ZM336.232 1005.84L335.283 1006.16L335.511 1006.84H336.232V1005.84ZM337.352 1002.2L336.593 1001.55L336.591 1001.55L337.352 1002.2ZM340.712 1000L341.059 1000.94L341.069 1000.93L340.712 1000ZM348.992 1011H349.992V1010H348.992V1011ZM345.112 1011.72L345.593 1012.6L345.604 1012.59L345.614 1012.58L345.112 1011.72ZM348.192 1014.8L348.881 1015.52L348.89 1015.52L348.899 1015.51L348.192 1014.8ZM347.112 1000.16C350.098 1000.16 352.213 1000.74 353.598 1001.76L354.786 1000.16C352.918 998.777 350.312 998.16 347.112 998.16V1000.16ZM353.605 1001.77C355.018 1002.8 355.672 1004.06 355.672 1005.64H357.672C357.672 1003.38 356.672 1001.52 354.779 1000.15L353.605 1001.77ZM355.672 1005.64V1014.08H357.672V1005.64H355.672ZM355.672 1014.08C355.672 1014.72 355.822 1015.4 356.325 1015.91L357.739 1014.49C357.762 1014.52 357.672 1014.45 357.672 1014.08H355.672ZM356.325 1015.91C356.757 1016.34 357.306 1016.56 357.912 1016.56V1014.56C357.824 1014.56 357.787 1014.54 357.739 1014.49L356.325 1015.91ZM357.912 1016.56C358.584 1016.56 359.221 1016.4 359.802 1016.07L358.822 1014.33C358.55 1014.48 358.253 1014.56 357.912 1014.56V1016.56ZM358.312 1015.2V1019.48H360.312V1015.2H358.312ZM358.728 1018.67C358.131 1019.1 357.042 1019.4 355.272 1019.4V1021.4C357.182 1021.4 358.786 1021.09 359.896 1020.29L358.728 1018.67ZM355.272 1019.4C353.658 1019.4 352.505 1019.13 351.726 1018.69L350.738 1020.43C351.933 1021.11 353.473 1021.4 355.272 1021.4V1019.4ZM351.743 1018.7C350.963 1018.24 350.536 1017.65 350.365 1016.93L348.419 1017.39C348.728 1018.7 349.528 1019.71 350.721 1020.42L351.743 1018.7ZM348.636 1016.51C347.851 1017.41 346.992 1018.12 346.061 1018.65L347.043 1020.39C348.192 1019.74 349.227 1018.88 350.148 1017.81L348.636 1016.51ZM346.051 1018.65C345.226 1019.13 344.157 1019.4 342.792 1019.4V1021.4C344.414 1021.4 345.851 1021.08 347.053 1020.39L346.051 1018.65ZM342.792 1019.4C340.78 1019.4 339.247 1019.01 338.119 1018.31L337.065 1020.01C338.604 1020.96 340.537 1021.4 342.792 1021.4V1019.4ZM338.119 1018.31C337.217 1017.75 336.592 1016.56 336.592 1014.28H334.592C334.592 1016.85 335.3 1018.92 337.065 1020.01L338.119 1018.31ZM336.592 1014.28C336.592 1012.63 337.052 1011.51 337.84 1010.77L336.464 1009.31C335.172 1010.54 334.592 1012.25 334.592 1014.28H336.592ZM337.85 1010.76C338.71 1009.92 339.989 1009.29 341.783 1008.94L341.401 1006.98C339.355 1007.38 337.674 1008.13 336.454 1009.32L337.85 1010.76ZM341.793 1008.94C343.65 1008.56 346.043 1008.36 348.992 1008.36V1006.36C345.968 1006.36 343.428 1006.56 341.391 1006.98L341.793 1008.94ZM349.992 1007.36V1006.2H347.992V1007.36H349.992ZM349.992 1006.2C349.992 1005.2 349.639 1004.32 348.876 1003.68L347.588 1005.2C347.839 1005.42 347.992 1005.71 347.992 1006.2H349.992ZM348.896 1003.69C348.204 1003.08 347.341 1002.8 346.392 1002.8V1004.8C346.936 1004.8 347.3 1004.95 347.568 1005.19L348.896 1003.69ZM346.392 1002.8C345.562 1002.8 344.785 1003.06 344.077 1003.53L345.187 1005.19C345.599 1004.92 345.995 1004.8 346.392 1004.8V1002.8ZM344.087 1003.52C343.333 1004.01 342.832 1004.74 342.832 1005.68H344.832C344.832 1005.55 344.864 1005.4 345.177 1005.2L344.087 1003.52ZM342.832 1005.68V1005.84H344.832V1005.68H342.832ZM343.832 1004.84H336.232V1006.84H343.832V1004.84ZM337.181 1005.52C337.191 1005.56 337.197 1005.58 337.2 1005.59C337.202 1005.6 337.203 1005.61 337.203 1005.61C337.204 1005.61 337.203 1005.61 337.202 1005.6C337.201 1005.59 337.2 1005.58 337.199 1005.57C337.195 1005.51 337.192 1005.41 337.192 1005.28H335.192C335.192 1005.44 335.196 1005.58 335.205 1005.71C335.212 1005.81 335.227 1005.99 335.283 1006.16L337.181 1005.52ZM337.192 1005.28C337.192 1004.38 337.487 1003.58 338.113 1002.85L336.591 1001.55C335.67 1002.63 335.192 1003.89 335.192 1005.28H337.192ZM338.111 1002.85C338.776 1002.07 339.74 1001.43 341.059 1000.94L340.365 999.062C338.804 999.64 337.528 1000.46 336.593 1001.55L338.111 1002.85ZM341.069 1000.93C342.399 1000.43 343.968 1000.16 345.792 1000.16V998.16C343.776 998.16 341.958 998.454 340.355 999.066L341.069 1000.93ZM345.792 1000.16H347.112V998.16H345.792V1000.16ZM348.992 1010C347.182 1010 345.67 1010.24 344.61 1010.86L345.614 1012.58C346.207 1012.24 347.282 1012 348.992 1012V1010ZM344.631 1010.84C343.539 1011.44 342.872 1012.39 342.872 1013.64H344.872C344.872 1013.24 345.032 1012.9 345.593 1012.6L344.631 1010.84ZM342.872 1013.64C342.872 1014.5 343.152 1015.3 343.847 1015.86C344.5 1016.38 345.365 1016.56 346.272 1016.56V1014.56C345.579 1014.56 345.244 1014.42 345.097 1014.3C344.992 1014.22 344.872 1014.06 344.872 1013.64H342.872ZM346.272 1016.56C347.271 1016.56 348.159 1016.21 348.881 1015.52L347.503 1014.07C347.159 1014.4 346.767 1014.56 346.272 1014.56V1016.56ZM348.899 1015.51C349.639 1014.77 349.992 1013.82 349.992 1012.76H347.992C347.992 1013.35 347.812 1013.77 347.485 1014.09L348.899 1015.51ZM349.992 1012.76V1011H347.992V1012.76H349.992ZM370.713 991.2H371.713V990.2H370.713V991.2ZM370.713 1020V1021H371.713V1020H370.713ZM362.793 1020H361.793V1021H362.793V1020ZM362.793 991.2V990.2H361.793V991.2H362.793ZM369.713 991.2V1020H371.713V991.2H369.713ZM370.713 1019H362.793V1021H370.713V1019ZM363.793 1020V991.2H361.793V1020H363.793ZM362.793 992.2H370.713V990.2H362.793V992.2ZM400.722 993.16L400.302 994.067L400.309 994.07L400.722 993.16ZM404.122 995.88L403.302 996.452L403.31 996.463L403.318 996.474L404.122 995.88ZM404.322 1003.32L403.478 1002.78L403.474 1002.79L404.322 1003.32ZM401.562 1005.64L401.184 1004.71L398.728 1005.72L401.236 1006.59L401.562 1005.64ZM404.962 1008.16L404.136 1008.72L404.136 1008.72L404.962 1008.16ZM404.922 1016.48L404.099 1015.91L404.095 1015.92L404.09 1015.93L404.922 1016.48ZM401.362 1019.36L401.766 1020.28L401.778 1020.27L401.362 1019.36ZM388.482 1019.36L388.066 1020.27L388.079 1020.28L388.482 1019.36ZM384.882 1016.48L384.05 1017.03L384.055 1017.04L384.059 1017.05L384.882 1016.48ZM383.682 1011.64V1010.64H382.682V1011.64H383.682ZM390.722 1011.64H391.722V1010.64H390.722V1011.64ZM391.522 1013.68L390.815 1014.39L390.824 1014.4L390.834 1014.4L391.522 1013.68ZM397.362 1013.6L396.655 1012.89L396.647 1012.9L396.638 1012.91L397.362 1013.6ZM397.402 1009.2L396.695 1009.91L396.714 1009.93L396.733 1009.94L397.402 1009.2ZM391.242 1008.44H390.242V1009.44H391.242V1008.44ZM391.242 1003.52V1002.52H390.242V1003.52H391.242ZM396.762 1002.8L397.45 1003.53L397.451 1003.52L396.762 1002.8ZM396.722 998.88L396.034 999.605L396.052 999.623L396.072 999.639L396.722 998.88ZM392.042 998.88L392.711 999.623L392.713 999.622L392.042 998.88ZM391.242 1000.64V1001.64H392.242V1000.64H391.242ZM384.562 1000.64H383.562V1001.64H384.562V1000.64ZM385.802 995.88L386.607 996.474L386.614 996.465L385.802 995.88ZM389.322 993.16L389.724 994.076L389.724 994.076L389.322 993.16ZM395.762 993.16C397.509 993.16 399.015 993.472 400.302 994.067L401.142 992.253C399.55 991.515 397.749 991.16 395.762 991.16V993.16ZM400.309 994.07C401.637 994.674 402.62 995.474 403.302 996.452L404.942 995.308C404.025 993.993 402.741 992.979 401.136 992.25L400.309 994.07ZM403.318 996.474C404.021 997.426 404.362 998.459 404.362 999.6H406.362C406.362 998.021 405.877 996.574 404.927 995.286L403.318 996.474ZM404.362 999.6C404.362 1000.81 404.062 1001.86 403.478 1002.78L405.167 1003.86C405.969 1002.59 406.362 1001.16 406.362 999.6H404.362ZM403.474 1002.79C402.92 1003.68 402.165 1004.31 401.184 1004.71L401.941 1006.57C403.307 1006.01 404.392 1005.1 405.17 1003.85L403.474 1002.79ZM401.236 1006.59C402.519 1007.03 403.469 1007.74 404.136 1008.72L405.789 1007.6C404.856 1006.23 403.539 1005.26 401.889 1004.69L401.236 1006.59ZM404.136 1008.72C404.803 1009.7 405.162 1010.92 405.162 1012.44H407.162C407.162 1010.6 406.721 1008.96 405.789 1007.6L404.136 1008.72ZM405.162 1012.44C405.162 1013.74 404.808 1014.88 404.099 1015.91L405.746 1017.05C406.69 1015.68 407.162 1014.13 407.162 1012.44H405.162ZM404.09 1015.93C403.412 1016.94 402.385 1017.79 400.946 1018.45L401.778 1020.27C403.487 1019.49 404.832 1018.42 405.754 1017.03L404.09 1015.93ZM400.959 1018.44C399.541 1019.07 397.818 1019.4 395.762 1019.4V1021.4C398.027 1021.4 400.037 1021.04 401.766 1020.28L400.959 1018.44ZM395.762 1019.4H394.082V1021.4H395.762V1019.4ZM394.082 1019.4C392.027 1019.4 390.304 1019.07 388.886 1018.44L388.079 1020.28C389.808 1021.04 391.818 1021.4 394.082 1021.4V1019.4ZM388.898 1018.45C387.458 1017.79 386.412 1016.94 385.706 1015.91L384.059 1017.05C385.006 1018.42 386.36 1019.49 388.066 1020.27L388.898 1018.45ZM385.714 1015.93C385.026 1014.89 384.682 1013.75 384.682 1012.48H382.682C382.682 1014.14 383.139 1015.67 384.05 1017.03L385.714 1015.93ZM384.682 1012.48V1011.64H382.682V1012.48H384.682ZM383.682 1012.64H390.722V1010.64H383.682V1012.64ZM389.722 1011.64C389.722 1012.7 390.075 1013.65 390.815 1014.39L392.229 1012.97C391.903 1012.65 391.722 1012.23 391.722 1011.64H389.722ZM390.834 1014.4C391.622 1015.15 392.714 1015.44 393.922 1015.44V1013.44C392.997 1013.44 392.489 1013.22 392.211 1012.96L390.834 1014.4ZM393.922 1015.44H395.002V1013.44H393.922V1015.44ZM395.002 1015.44C396.218 1015.44 397.306 1015.11 398.087 1014.29L396.638 1012.91C396.352 1013.21 395.867 1013.44 395.002 1013.44V1015.44ZM398.069 1014.31C398.856 1013.52 399.202 1012.49 399.202 1011.32H397.202C397.202 1012.07 396.989 1012.56 396.655 1012.89L398.069 1014.31ZM399.202 1011.32C399.202 1010.19 398.874 1009.18 398.071 1008.46L396.733 1009.94C396.997 1010.18 397.202 1010.58 397.202 1011.32H399.202ZM398.109 1008.49C397.386 1007.77 396.45 1007.44 395.402 1007.44V1009.44C396.008 1009.44 396.405 1009.62 396.695 1009.91L398.109 1008.49ZM395.402 1007.44H391.242V1009.44H395.402V1007.44ZM392.242 1008.44V1003.52H390.242V1008.44H392.242ZM391.242 1004.52H394.762V1002.52H391.242V1004.52ZM394.762 1004.52C395.795 1004.52 396.724 1004.21 397.45 1003.53L396.075 1002.07C395.787 1002.35 395.383 1002.52 394.762 1002.52V1004.52ZM397.451 1003.52C398.233 1002.78 398.562 1001.77 398.562 1000.64H396.562C396.562 1001.38 396.358 1001.8 396.074 1002.08L397.451 1003.52ZM398.562 1000.64C398.562 999.634 398.139 998.777 397.373 998.121L396.072 999.639C396.426 999.943 396.562 1000.26 396.562 1000.64H398.562ZM397.411 998.155C396.682 997.462 395.778 997.12 394.762 997.12V999.12C395.294 999.12 395.696 999.285 396.034 999.605L397.411 998.155ZM394.762 997.12H394.042V999.12H394.762V997.12ZM394.042 997.12C393.028 997.12 392.12 997.461 391.371 998.138L392.713 999.622C393.085 999.286 393.51 999.12 394.042 999.12V997.12ZM391.373 998.137C390.638 998.799 390.242 999.652 390.242 1000.64H392.242C392.242 1000.24 392.38 999.921 392.711 999.623L391.373 998.137ZM391.242 999.64H384.562V1001.64H391.242V999.64ZM385.562 1000.64V999.64H383.562V1000.64H385.562ZM385.562 999.64C385.562 998.468 385.907 997.423 386.607 996.474L384.998 995.286C384.045 996.577 383.562 998.039 383.562 999.64H385.562ZM386.614 996.465C387.319 995.487 388.339 994.683 389.724 994.076L388.921 992.244C387.266 992.97 385.939 993.98 384.991 995.295L386.614 996.465ZM389.724 994.076C391.096 993.474 392.702 993.16 394.562 993.16V991.16C392.476 991.16 390.589 991.513 388.921 992.244L389.724 994.076ZM394.562 993.16H395.762V991.16H394.562V993.16ZM426.812 993.52L426.299 994.379L426.308 994.384L426.317 994.389L426.812 993.52ZM430.452 997.16L429.583 997.655L429.588 997.663L429.593 997.672L430.452 997.16ZM430.452 1015.44L429.589 1014.93L429.586 1014.94L430.452 1015.44ZM426.812 1019.08L427.313 1019.95L427.317 1019.94L426.812 1019.08ZM414.972 1019.08L414.459 1019.94L414.468 1019.94L414.477 1019.95L414.972 1019.08ZM411.332 1015.44L410.463 1015.93L410.468 1015.94L410.473 1015.95L411.332 1015.44ZM411.332 997.16L410.469 996.654L410.466 996.659L411.332 997.16ZM414.972 993.52L415.473 994.385L415.477 994.383L414.972 993.52ZM418.772 998.88L418.035 998.204L418.033 998.206L418.772 998.88ZM418.772 1013.68L418.019 1014.34L418.034 1014.36L418.049 1014.37L418.772 1013.68ZM423.012 1013.68L422.275 1013L422.273 1013.01L423.012 1013.68ZM423.012 998.88L422.259 999.539L422.274 999.555L422.289 999.571L423.012 998.88ZM421.812 993.16C423.449 993.16 424.938 993.567 426.299 994.379L427.324 992.661C425.645 991.66 423.801 991.16 421.812 991.16V993.16ZM426.317 994.389C427.708 995.18 428.791 996.264 429.583 997.655L431.321 996.665C430.352 994.963 429.009 993.62 427.306 992.651L426.317 994.389ZM429.593 997.672C430.405 999.033 430.812 1000.52 430.812 1002.16H432.812C432.812 1000.17 432.312 998.327 431.311 996.648L429.593 997.672ZM430.812 1002.16V1010.4H432.812V1002.16H430.812ZM430.812 1010.4C430.812 1012.04 430.405 1013.54 429.589 1014.93L431.314 1015.95C432.312 1014.24 432.812 1012.39 432.812 1010.4H430.812ZM429.586 1014.94C428.795 1016.31 427.707 1017.4 426.306 1018.22L427.317 1019.94C429.01 1018.95 430.349 1017.61 431.317 1015.94L429.586 1014.94ZM426.311 1018.21C424.948 1019 423.455 1019.4 421.812 1019.4V1021.4C423.795 1021.4 425.635 1020.92 427.313 1019.95L426.311 1018.21ZM421.812 1019.4H420.012V1021.4H421.812V1019.4ZM420.012 1019.4C418.368 1019.4 416.859 1019 415.466 1018.21L414.477 1019.95C416.178 1020.92 418.028 1021.4 420.012 1021.4V1019.4ZM415.484 1018.22C414.106 1017.4 413.012 1016.31 412.191 1014.93L410.473 1015.95C411.465 1017.61 412.797 1018.95 414.459 1019.94L415.484 1018.22ZM412.201 1014.95C411.408 1013.55 411.012 1012.04 411.012 1010.4H409.012C409.012 1012.38 409.495 1014.23 410.463 1015.93L412.201 1014.95ZM411.012 1010.4V1002.16H409.012V1010.4H411.012ZM411.012 1002.16C411.012 1000.52 411.408 999.024 412.197 997.661L410.466 996.659C409.495 998.336 409.012 1000.18 409.012 1002.16H411.012ZM412.194 997.666C413.016 996.265 414.106 995.177 415.473 994.385L414.471 992.655C412.798 993.623 411.461 994.962 410.469 996.654L412.194 997.666ZM415.477 994.383C416.869 993.567 418.374 993.16 420.012 993.16V991.16C418.023 991.16 416.168 991.66 414.466 992.657L415.477 994.383ZM420.012 993.16H421.812V991.16H420.012V993.16ZM420.932 996.92C419.793 996.92 418.807 997.362 418.035 998.204L419.509 999.556C419.91 999.118 420.364 998.92 420.932 998.92V996.92ZM418.033 998.206C417.294 999.015 416.932 1000.01 416.932 1001.12H418.932C418.932 1000.47 419.129 999.972 419.51 999.554L418.033 998.206ZM416.932 1001.12V1011.4H418.932V1001.12H416.932ZM416.932 1011.4C416.932 1012.51 417.294 1013.51 418.019 1014.34L419.524 1013.02C419.13 1012.57 418.932 1012.05 418.932 1011.4H416.932ZM418.049 1014.37C418.819 1015.18 419.784 1015.6 420.892 1015.6V1013.6C420.346 1013.6 419.898 1013.41 419.494 1012.99L418.049 1014.37ZM420.892 1015.6C422.017 1015.6 422.995 1015.18 423.75 1014.35L422.273 1013.01C421.909 1013.41 421.473 1013.6 420.892 1013.6V1015.6ZM423.749 1014.36C424.507 1013.53 424.892 1012.53 424.892 1011.4H422.892C422.892 1012.03 422.69 1012.55 422.275 1013L423.749 1014.36ZM424.892 1011.4V1001.12H422.892V1011.4H424.892ZM424.892 1001.12C424.892 999.993 424.506 998.996 423.734 998.189L422.289 999.571C422.691 999.991 422.892 1000.49 422.892 1001.12H424.892ZM423.764 998.221C423.021 997.372 422.056 996.92 420.932 996.92V998.92C421.461 998.92 421.883 999.108 422.259 999.539L423.764 998.221ZM458.901 992.56L459.756 993.079L460.679 991.56H458.901V992.56ZM442.221 1020V1021H442.783L443.076 1020.52L442.221 1020ZM438.421 1020L437.568 1019.48L436.639 1021H438.421V1020ZM455.181 992.56V991.56H454.62L454.328 992.039L455.181 992.56ZM444.781 994.04L444.074 994.747L444.084 994.757L444.781 994.04ZM444.781 1005.08L444.084 1004.36L444.074 1004.37L444.781 1005.08ZM436.941 1005.08L437.648 1004.37L437.648 1004.37L436.941 1005.08ZM436.941 994.04L436.234 993.333L436.234 993.333L436.941 994.04ZM439.821 995.88L439.114 995.173L439.114 995.173L439.821 995.88ZM439.821 1003.2L439.114 1003.91L439.114 1003.91L439.821 1003.2ZM441.901 1003.2L441.194 1002.49L441.177 1002.51L441.161 1002.53L441.901 1003.2ZM441.901 995.88L441.161 996.553L441.177 996.57L441.194 996.587L441.901 995.88ZM460.381 1007.52L459.674 1008.23L459.684 1008.24L460.381 1007.52ZM461.181 1017.56L462.036 1018.08L462.04 1018.07L462.044 1018.07L461.181 1017.56ZM459.341 1019.36L458.835 1018.5L458.829 1018.5L458.822 1018.51L459.341 1019.36ZM452.541 1018.6L451.824 1019.3L451.834 1019.31L452.541 1018.6ZM455.421 1009.4L456.128 1010.11L456.144 1010.09L456.158 1010.08L455.421 1009.4ZM455.421 1016.72L454.684 1017.4L454.699 1017.41L454.714 1017.43L455.421 1016.72ZM457.501 1016.72L456.764 1016.04L456.761 1016.05L457.501 1016.72ZM457.501 1009.4L456.733 1010.04L456.762 1010.08L456.794 1010.11L457.501 1009.4ZM458.047 992.041L441.367 1019.48L443.076 1020.52L459.756 993.079L458.047 992.041ZM442.221 1019H438.421V1021H442.221V1019ZM439.274 1020.52L456.034 993.081L454.328 992.039L437.568 1019.48L439.274 1020.52ZM455.181 993.56H458.901V991.56H455.181V993.56ZM441.301 993.6C442.396 993.6 443.302 993.975 444.074 994.747L445.488 993.333C444.34 992.185 442.926 991.6 441.301 991.6V993.6ZM444.084 994.757C444.88 995.531 445.261 996.434 445.261 997.52H447.261C447.261 995.886 446.656 994.469 445.478 993.323L444.084 994.757ZM445.261 997.52V1001.6H447.261V997.52H445.261ZM445.261 1001.6C445.261 1002.69 444.88 1003.59 444.084 1004.36L445.478 1005.8C446.656 1004.65 447.261 1003.23 447.261 1001.6H445.261ZM444.074 1004.37C443.302 1005.14 442.396 1005.52 441.301 1005.52V1007.52C442.926 1007.52 444.34 1006.94 445.488 1005.79L444.074 1004.37ZM441.301 1005.52H440.421V1007.52H441.301V1005.52ZM440.421 1005.52C439.326 1005.52 438.42 1005.14 437.648 1004.37L436.234 1005.79C437.382 1006.94 438.796 1007.52 440.421 1007.52V1005.52ZM437.648 1004.37C436.876 1003.6 436.501 1002.7 436.501 1001.6H434.501C434.501 1003.22 435.086 1004.64 436.234 1005.79L437.648 1004.37ZM436.501 1001.6V997.52H434.501V1001.6H436.501ZM436.501 997.52C436.501 996.425 436.876 995.519 437.648 994.747L436.234 993.333C435.086 994.481 434.501 995.895 434.501 997.52H436.501ZM437.648 994.747C438.42 993.975 439.326 993.6 440.421 993.6V991.6C438.796 991.6 437.382 992.185 436.234 993.333L437.648 994.747ZM440.421 993.6H441.301V991.6H440.421V993.6ZM440.861 994.44C440.185 994.44 439.587 994.7 439.114 995.173L440.528 996.587C440.642 996.474 440.737 996.44 440.861 996.44V994.44ZM439.114 995.173C438.615 995.672 438.381 996.309 438.381 997H440.381C440.381 996.785 440.441 996.675 440.528 996.587L439.114 995.173ZM438.381 997V1002.08H440.381V997H438.381ZM438.381 1002.08C438.381 1002.77 438.615 1003.41 439.114 1003.91L440.528 1002.49C440.441 1002.41 440.381 1002.3 440.381 1002.08H438.381ZM439.114 1003.91C439.587 1004.38 440.185 1004.64 440.861 1004.64V1002.64C440.737 1002.64 440.642 1002.61 440.528 1002.49L439.114 1003.91ZM440.861 1004.64C441.545 1004.64 442.169 1004.39 442.641 1003.87L441.161 1002.53C441.1 1002.59 441.03 1002.64 440.861 1002.64V1004.64ZM442.608 1003.91C443.107 1003.41 443.341 1002.77 443.341 1002.08H441.341C441.341 1002.3 441.281 1002.41 441.194 1002.49L442.608 1003.91ZM443.341 1002.08V997H441.341V1002.08H443.341ZM443.341 997C443.341 996.309 443.107 995.672 442.608 995.173L441.194 996.587C441.281 996.675 441.341 996.785 441.341 997H443.341ZM442.641 995.207C442.169 994.688 441.545 994.44 440.861 994.44V996.44C441.03 996.44 441.1 996.485 441.161 996.553L442.641 995.207ZM456.901 1007.08C457.996 1007.08 458.902 1007.46 459.674 1008.23L461.088 1006.81C459.94 1005.66 458.526 1005.08 456.901 1005.08V1007.08ZM459.684 1008.24C460.48 1009.01 460.861 1009.91 460.861 1011H462.861C462.861 1009.37 462.256 1007.95 461.078 1006.8L459.684 1008.24ZM460.861 1011V1015.08H462.861V1011H460.861ZM460.861 1015.08C460.861 1015.78 460.684 1016.43 460.318 1017.05L462.044 1018.07C462.585 1017.14 462.861 1016.14 462.861 1015.08H460.861ZM460.326 1017.04C459.961 1017.64 459.47 1018.13 458.835 1018.5L459.847 1020.22C460.759 1019.69 461.494 1018.97 462.036 1018.08L460.326 1017.04ZM458.822 1018.51C458.233 1018.86 457.599 1019.04 456.901 1019.04V1021.04C457.963 1021.04 458.956 1020.76 459.86 1020.21L458.822 1018.51ZM456.901 1019.04H456.021V1021.04H456.901V1019.04ZM456.021 1019.04C454.926 1019.04 454.02 1018.66 453.248 1017.89L451.834 1019.31C452.982 1020.46 454.396 1021.04 456.021 1021.04V1019.04ZM453.258 1017.9C452.477 1017.1 452.101 1016.18 452.101 1015.08H450.101C450.101 1016.7 450.685 1018.13 451.824 1019.3L453.258 1017.9ZM452.101 1015.08V1011H450.101V1015.08H452.101ZM452.101 1011C452.101 1009.9 452.476 1009 453.248 1008.23L451.834 1006.81C450.686 1007.96 450.101 1009.38 450.101 1011H452.101ZM453.248 1008.23C454.02 1007.46 454.926 1007.08 456.021 1007.08V1005.08C454.396 1005.08 452.982 1005.66 451.834 1006.81L453.248 1008.23ZM456.021 1007.08H456.901V1005.08H456.021V1007.08ZM456.461 1007.92C455.755 1007.92 455.149 1008.22 454.684 1008.72L456.158 1010.08C456.28 1009.94 456.367 1009.92 456.461 1009.92V1007.92ZM454.714 1008.69C454.215 1009.19 453.981 1009.83 453.981 1010.52H455.981C455.981 1010.3 456.041 1010.19 456.128 1010.11L454.714 1008.69ZM453.981 1010.52V1015.6H455.981V1010.52H453.981ZM453.981 1015.6C453.981 1016.28 454.225 1016.89 454.684 1017.4L456.158 1016.04C456.031 1015.91 455.981 1015.77 455.981 1015.6H453.981ZM454.714 1017.43C455.187 1017.9 455.785 1018.16 456.461 1018.16V1016.16C456.337 1016.16 456.242 1016.13 456.128 1016.01L454.714 1017.43ZM456.461 1018.16C457.145 1018.16 457.769 1017.91 458.241 1017.39L456.761 1016.05C456.7 1016.11 456.63 1016.16 456.461 1016.16V1018.16ZM458.238 1017.4C458.697 1016.89 458.941 1016.28 458.941 1015.6H456.941C456.941 1015.77 456.891 1015.91 456.764 1016.04L458.238 1017.4ZM458.941 1015.6V1010.52H456.941V1015.6H458.941ZM458.941 1010.52C458.941 1009.83 458.707 1009.19 458.208 1008.69L456.794 1010.11C456.881 1010.19 456.941 1010.3 456.941 1010.52H458.941ZM458.269 1008.76C457.807 1008.21 457.176 1007.92 456.461 1007.92V1009.92C456.599 1009.92 456.661 1009.95 456.733 1010.04L458.269 1008.76Z" fill="black" mask="url(#path-8-outside-2_661_102)"/>
<path d="M735.333 1273C735.333 1280.36 729.364 1286.33 722 1286.33C714.636 1286.33 708.667 1280.36 708.667 1273C708.667 1265.64 714.636 1259.67 722 1259.67C729.364 1259.67 735.333 1265.64 735.333 1273ZM473.371 1044.73V1042.23H474.345L475.062 1042.88L473.371 1044.73ZM40 1047.23C38.6193 1047.23 37.5 1046.11 37.5 1044.73C37.5 1043.34 38.6193 1042.23 40 1042.23V1047.23ZM720.309 1274.84L471.681 1046.57L475.062 1042.88L723.691 1271.16L720.309 1274.84ZM473.371 1047.23H40V1042.23H473.371V1047.23Z" fill="white"/>
</svg>
