<svg width="1360" height="1360" viewBox="0 0 1360 1360" fill="none" xmlns="http://www.w3.org/2000/svg">
<mask id="path-1-inside-1_683_2" fill="white">
<path d="M680 0C752.809 8.68234e-07 825.145 11.6931 894.245 34.6326L808.547 292.78C767.087 279.016 723.685 272 680 272V0Z"/>
</mask>
<path d="M680 0C752.809 8.68234e-07 825.145 11.6931 894.245 34.6326L808.547 292.78C767.087 279.016 723.685 272 680 272V0Z" fill="#5F52F1" stroke="#30324F" stroke-width="28" mask="url(#path-1-inside-1_683_2)"/>
<path d="M552.582 12.0444C594.582 4.03259 637.244 -8.20618e-05 680.001 1.2524e-09L680.001 272C654.346 272 628.749 274.42 603.549 279.227L552.582 12.0444Z" fill="#01D3EC"/>
<path d="M129.868 280.306C231.53 140.382 382.689 44.4531 552.581 12.0446L603.549 279.227C501.613 298.672 410.918 356.229 349.921 440.184L129.868 280.306Z" fill="#8CC0B9"/>
<path d="M893.729 34.4616C1030.05 79.5968 1148.59 166.731 1232.35 283.375C1316.11 400.02 1360.79 540.187 1359.99 683.786L1087.99 682.272C1088.47 596.112 1061.66 512.012 1011.41 442.025C961.154 372.039 890.032 319.758 808.238 292.677L893.729 34.4616Z" fill="#FFE657"/>
<path d="M1360 680C1360 823.602 1314.54 963.518 1230.13 1079.69L1010.08 919.816C1060.72 850.111 1088 766.161 1088 680H1360Z" fill="#525775"/>
<path d="M1230.13 1079.69C1167.06 1166.51 1084.33 1237.17 988.714 1285.88C893.099 1334.6 787.311 1360 680 1360C572.689 1360 466.901 1334.6 371.286 1285.88C275.671 1237.17 192.944 1166.51 129.868 1079.69L349.921 919.816C387.766 971.906 437.403 1014.3 494.772 1043.53C552.141 1072.76 615.613 1088 680 1088C744.387 1088 807.859 1072.76 865.228 1043.53C922.597 1014.3 972.233 971.906 1010.08 919.816L1230.13 1079.69Z" fill="#9F8CC0"/>
<path d="M129.868 1079.69C45.4613 963.518 -2.96727e-05 823.602 0 680C2.96728e-05 536.398 45.4614 396.482 129.869 280.306L349.921 440.183C299.277 509.889 272 593.839 272 680C272 766.161 299.277 850.111 349.921 919.816L129.868 1079.69Z" fill="#FF4059"/>
<mask id="path-8-outside-2_683_2" maskUnits="userSpaceOnUse" x="150" y="1094" width="424" height="58" fill="black">
<rect fill="white" x="150" y="1094" width="424" height="58"/>
<path d="M205.068 1139H192.468V1112.6H192.228L185.028 1139H170.568L163.428 1112.6H163.128V1139H151.668V1097.84H172.308L178.248 1119.8H178.488L184.308 1097.84H205.068V1139ZM229.003 1107.74C233.643 1107.74 237.183 1108.64 239.623 1110.44C242.103 1112.24 243.343 1114.58 243.343 1117.46V1130.12C243.343 1130.88 243.523 1131.44 243.883 1131.8C244.243 1132.16 244.683 1132.34 245.203 1132.34C245.963 1132.34 246.663 1132.16 247.303 1131.8V1138.22C246.023 1139.14 244.003 1139.6 241.243 1139.6C238.683 1139.6 236.663 1139.18 235.183 1138.34C233.703 1137.46 232.783 1136.26 232.423 1134.74C231.143 1136.22 229.723 1137.4 228.163 1138.28C226.643 1139.16 224.763 1139.6 222.523 1139.6C219.323 1139.6 216.723 1138.98 214.723 1137.74C212.723 1136.5 211.723 1134.06 211.723 1130.42C211.723 1127.66 212.503 1125.54 214.063 1124.06C215.623 1122.54 217.843 1121.5 220.723 1120.94C223.643 1120.34 227.343 1120.04 231.823 1120.04V1118.3C231.823 1117.18 231.443 1116.3 230.683 1115.66C229.963 1115.02 229.043 1114.7 227.923 1114.7C227.003 1114.7 226.123 1114.98 225.283 1115.54C224.483 1116.06 224.083 1116.72 224.083 1117.52V1117.76H212.683C212.643 1117.64 212.623 1117.36 212.623 1116.92C212.623 1115.2 213.203 1113.66 214.363 1112.3C215.563 1110.9 217.243 1109.8 219.403 1109C221.603 1108.16 224.143 1107.74 227.023 1107.74H229.003ZM231.823 1125.5C229.183 1125.5 227.243 1125.86 226.003 1126.58C224.763 1127.26 224.143 1128.22 224.143 1129.46C224.143 1131.38 225.343 1132.34 227.743 1132.34C228.863 1132.34 229.823 1131.96 230.623 1131.2C231.423 1130.4 231.823 1129.38 231.823 1128.14V1125.5ZM270.824 1107.74C273.464 1107.74 275.504 1108.48 276.944 1109.96C278.424 1111.4 279.164 1113.4 279.164 1115.96V1116.98L279.044 1119.26L278.924 1120.76H269.204V1119.32C269.204 1118.48 268.944 1117.78 268.424 1117.22C267.944 1116.62 267.364 1116.32 266.684 1116.32C265.964 1116.32 265.344 1116.62 264.824 1117.22C264.344 1117.78 264.104 1118.48 264.104 1119.32V1139H252.524V1108.34H261.404L262.724 1112.78C262.964 1112.3 263.424 1111.66 264.104 1110.86C264.784 1110.06 265.704 1109.34 266.864 1108.7C268.024 1108.06 269.344 1107.74 270.824 1107.74ZM296.556 1095.8V1119.74L304.356 1108.34H317.916L307.176 1122.2L318.096 1139H304.116L298.716 1130.3L296.556 1132.16V1139H284.676V1095.8H296.556ZM339.128 1107.74C342.208 1107.74 344.848 1108.34 347.048 1109.54C349.288 1110.7 350.988 1112.32 352.148 1114.4C353.348 1116.48 353.948 1118.86 353.948 1121.54V1125.26H333.968V1128.14C333.968 1129.5 334.388 1130.54 335.228 1131.26C336.108 1131.98 337.228 1132.34 338.588 1132.34C339.988 1132.34 341.048 1131.92 341.768 1131.08C342.528 1130.2 342.908 1129 342.908 1127.48H353.888C353.888 1129.76 353.288 1131.82 352.088 1133.66C350.928 1135.5 349.208 1136.96 346.928 1138.04C344.688 1139.08 342.028 1139.6 338.948 1139.6H338.048C334.848 1139.6 331.968 1139.02 329.408 1137.86C326.888 1136.66 324.888 1134.94 323.408 1132.7C321.968 1130.42 321.248 1127.72 321.248 1124.6V1122.74C321.248 1119.62 321.928 1116.94 323.288 1114.7C324.688 1112.42 326.628 1110.7 329.108 1109.54C331.588 1108.34 334.428 1107.74 337.628 1107.74H339.128ZM338.108 1115C336.948 1115 335.968 1115.42 335.168 1116.26C334.368 1117.06 333.968 1118.04 333.968 1119.2V1120.04H342.248V1119.2C342.248 1118.04 341.848 1117.06 341.048 1116.26C340.248 1115.42 339.268 1115 338.108 1115ZM374.083 1108.34H381.283V1116.86H374.083V1128.2C374.083 1129.8 374.383 1130.9 374.983 1131.5C375.623 1132.06 376.463 1132.34 377.503 1132.34C377.983 1132.34 378.603 1132.28 379.363 1132.16C380.163 1132 380.783 1131.82 381.223 1131.62V1138.34C380.303 1138.74 379.023 1139.06 377.383 1139.3C375.743 1139.54 374.343 1139.66 373.183 1139.66C369.663 1139.66 366.943 1139.02 365.023 1137.74C363.143 1136.46 362.203 1134.28 362.203 1131.2V1116.86H358.843V1108.34H362.683L366.823 1098.56H374.083V1108.34ZM399.22 1104.38H387.4V1095.8H399.22V1104.38ZM399.22 1139H387.4V1108.4H399.22V1139ZM428.133 1107.74C429.773 1107.74 431.273 1108.14 432.633 1108.94C434.033 1109.74 435.133 1110.84 435.933 1112.24C436.733 1113.6 437.133 1115.1 437.133 1116.74V1139H425.253V1119.8C425.253 1118.8 424.933 1117.96 424.293 1117.28C423.693 1116.56 422.953 1116.2 422.073 1116.2C421.193 1116.2 420.433 1116.56 419.793 1117.28C419.193 1117.96 418.893 1118.8 418.893 1119.8V1139H407.013V1108.34H415.953L417.153 1112.78C419.353 1109.42 422.453 1107.74 426.453 1107.74H428.133ZM477.07 1102.82C477.07 1105.14 476.51 1106.92 475.39 1108.16C474.31 1109.4 472.67 1110.32 470.47 1110.92C471.55 1111.76 472.37 1112.74 472.93 1113.86C473.53 1114.98 473.83 1116.14 473.83 1117.34C473.83 1119.1 473.29 1120.72 472.21 1122.2C471.13 1123.68 469.67 1124.86 467.83 1125.74C465.99 1126.58 463.99 1127 461.83 1127H457.69C456.53 1127 455.67 1127.18 455.11 1127.54C454.55 1127.86 454.27 1128.28 454.27 1128.8C454.27 1129.4 454.51 1129.86 454.99 1130.18C455.47 1130.5 456.37 1130.66 457.69 1130.66H467.47C470.67 1130.66 473.07 1131.52 474.67 1133.24C476.27 1134.92 477.07 1137.18 477.07 1140.02C477.07 1141.82 476.51 1143.5 475.39 1145.06C474.31 1146.66 472.85 1147.92 471.01 1148.84C469.17 1149.8 467.19 1150.28 465.07 1150.28H449.17C447.21 1150.28 445.51 1149.58 444.07 1148.18C442.67 1146.78 441.97 1145.08 441.97 1143.08V1142.78C441.97 1141.38 442.41 1140.1 443.29 1138.94C444.17 1137.74 445.25 1136.84 446.53 1136.24C445.65 1135.64 444.95 1134.88 444.43 1133.96C443.91 1133.04 443.65 1132.06 443.65 1131.02C443.65 1129.54 444.17 1128.2 445.21 1127C446.29 1125.8 447.61 1125 449.17 1124.6C447.77 1123.68 446.65 1122.6 445.81 1121.36C444.97 1120.12 444.55 1118.8 444.55 1117.4C444.55 1114.56 445.73 1112.24 448.09 1110.44C450.45 1108.64 453.87 1107.74 458.35 1107.74H460.03C461.47 1107.74 462.79 1107.86 463.99 1108.1C465.51 1107.1 466.59 1106.14 467.23 1105.22C467.87 1104.26 468.19 1103.46 468.19 1102.82H477.07ZM459.43 1113.62C458.39 1113.62 457.51 1114 456.79 1114.76C456.11 1115.48 455.77 1116.36 455.77 1117.4C455.77 1118.44 456.11 1119.34 456.79 1120.1C457.51 1120.82 458.39 1121.18 459.43 1121.18C460.47 1121.18 461.33 1120.82 462.01 1120.1C462.73 1119.34 463.09 1118.44 463.09 1117.4C463.09 1116.36 462.73 1115.48 462.01 1114.76C461.33 1114 460.47 1113.62 459.43 1113.62ZM454.81 1139C453.97 1139 453.25 1139.24 452.65 1139.72C452.09 1140.2 451.81 1140.78 451.81 1141.46C451.81 1142.14 452.09 1142.72 452.65 1143.2C453.25 1143.72 453.97 1143.98 454.81 1143.98H463.39C464.23 1143.98 464.93 1143.74 465.49 1143.26C466.09 1142.78 466.39 1142.2 466.39 1141.52C466.39 1140.84 466.09 1140.24 465.49 1139.72C464.93 1139.24 464.23 1139 463.39 1139H454.81ZM524.004 1108.04H506.544L506.064 1114.16C506.864 1113.44 507.904 1112.82 509.184 1112.3C510.464 1111.74 511.964 1111.46 513.684 1111.46C517.724 1111.46 520.964 1112.72 523.404 1115.24C525.844 1117.72 527.064 1121.14 527.064 1125.5C527.064 1128.1 526.404 1130.48 525.084 1132.64C523.764 1134.8 521.904 1136.5 519.504 1137.74C517.144 1138.98 514.464 1139.6 511.464 1139.6H509.664C506.504 1139.6 503.744 1138.98 501.384 1137.74C499.024 1136.5 497.204 1134.82 495.924 1132.7C494.684 1130.54 494.064 1128.16 494.064 1125.56H504.624C504.624 1126.88 505.084 1128.02 506.004 1128.98C506.964 1129.9 508.104 1130.36 509.424 1130.36H510.444C511.764 1130.36 512.884 1129.9 513.804 1128.98C514.764 1128.02 515.244 1126.88 515.244 1125.56V1124.9C515.244 1123.58 514.764 1122.46 513.804 1121.54C512.884 1120.58 511.764 1120.1 510.444 1120.1H509.604C508.684 1120.1 507.944 1120.26 507.384 1120.58C506.864 1120.86 506.424 1121.16 506.064 1121.48C505.744 1121.8 505.504 1122.02 505.344 1122.14L495.864 1120.82L497.604 1097.84H524.004V1108.04ZM567.698 1097.84L542.678 1139H536.978L562.118 1097.84H567.698ZM541.298 1097.9C543.338 1097.9 545.078 1098.62 546.518 1100.06C547.998 1101.5 548.738 1103.24 548.738 1105.28V1111.4C548.738 1113.44 547.998 1115.18 546.518 1116.62C545.078 1118.06 543.338 1118.78 541.298 1118.78H539.978C537.938 1118.78 536.198 1118.06 534.758 1116.62C533.318 1115.18 532.598 1113.44 532.598 1111.4V1105.28C532.598 1103.24 533.318 1101.5 534.758 1100.06C536.198 1098.62 537.938 1097.9 539.978 1097.9H541.298ZM540.638 1102.16C540.038 1102.16 539.518 1102.38 539.078 1102.82C538.638 1103.26 538.418 1103.82 538.418 1104.5V1112.12C538.418 1112.8 538.638 1113.36 539.078 1113.8C539.518 1114.24 540.038 1114.46 540.638 1114.46C541.278 1114.46 541.798 1114.24 542.198 1113.8C542.638 1113.36 542.858 1112.8 542.858 1112.12V1104.5C542.858 1103.82 542.638 1103.26 542.198 1102.82C541.798 1102.38 541.278 1102.16 540.638 1102.16ZM564.698 1118.12C566.738 1118.12 568.478 1118.84 569.918 1120.28C571.398 1121.72 572.138 1123.46 572.138 1125.5V1131.62C572.138 1132.94 571.798 1134.18 571.118 1135.34C570.438 1136.46 569.518 1137.36 568.358 1138.04C567.238 1138.72 566.018 1139.06 564.698 1139.06H563.378C561.338 1139.06 559.598 1138.34 558.158 1136.9C556.718 1135.42 555.998 1133.66 555.998 1131.62V1125.5C555.998 1123.46 556.718 1121.72 558.158 1120.28C559.598 1118.84 561.338 1118.12 563.378 1118.12H564.698ZM564.038 1122.38C563.438 1122.38 562.918 1122.62 562.478 1123.1C562.038 1123.54 561.818 1124.1 561.818 1124.78V1132.4C561.818 1133.04 562.038 1133.6 562.478 1134.08C562.918 1134.52 563.438 1134.74 564.038 1134.74C564.678 1134.74 565.198 1134.52 565.598 1134.08C566.038 1133.6 566.258 1133.04 566.258 1132.4V1124.78C566.258 1124.1 566.038 1123.54 565.598 1123.1C565.198 1122.62 564.678 1122.38 564.038 1122.38Z"/>
</mask>
<path d="M205.068 1139H192.468V1112.6H192.228L185.028 1139H170.568L163.428 1112.6H163.128V1139H151.668V1097.84H172.308L178.248 1119.8H178.488L184.308 1097.84H205.068V1139ZM229.003 1107.74C233.643 1107.74 237.183 1108.64 239.623 1110.44C242.103 1112.24 243.343 1114.58 243.343 1117.46V1130.12C243.343 1130.88 243.523 1131.44 243.883 1131.8C244.243 1132.16 244.683 1132.34 245.203 1132.34C245.963 1132.34 246.663 1132.16 247.303 1131.8V1138.22C246.023 1139.14 244.003 1139.6 241.243 1139.6C238.683 1139.6 236.663 1139.18 235.183 1138.34C233.703 1137.46 232.783 1136.26 232.423 1134.74C231.143 1136.22 229.723 1137.4 228.163 1138.28C226.643 1139.16 224.763 1139.6 222.523 1139.6C219.323 1139.6 216.723 1138.98 214.723 1137.74C212.723 1136.5 211.723 1134.06 211.723 1130.42C211.723 1127.66 212.503 1125.54 214.063 1124.06C215.623 1122.54 217.843 1121.5 220.723 1120.94C223.643 1120.34 227.343 1120.04 231.823 1120.04V1118.3C231.823 1117.18 231.443 1116.3 230.683 1115.66C229.963 1115.02 229.043 1114.7 227.923 1114.7C227.003 1114.7 226.123 1114.98 225.283 1115.54C224.483 1116.06 224.083 1116.72 224.083 1117.52V1117.76H212.683C212.643 1117.64 212.623 1117.36 212.623 1116.92C212.623 1115.2 213.203 1113.66 214.363 1112.3C215.563 1110.9 217.243 1109.8 219.403 1109C221.603 1108.16 224.143 1107.74 227.023 1107.74H229.003ZM231.823 1125.5C229.183 1125.5 227.243 1125.86 226.003 1126.58C224.763 1127.26 224.143 1128.22 224.143 1129.46C224.143 1131.38 225.343 1132.34 227.743 1132.34C228.863 1132.34 229.823 1131.96 230.623 1131.2C231.423 1130.4 231.823 1129.38 231.823 1128.14V1125.5ZM270.824 1107.74C273.464 1107.74 275.504 1108.48 276.944 1109.96C278.424 1111.4 279.164 1113.4 279.164 1115.96V1116.98L279.044 1119.26L278.924 1120.76H269.204V1119.32C269.204 1118.48 268.944 1117.78 268.424 1117.22C267.944 1116.62 267.364 1116.32 266.684 1116.32C265.964 1116.32 265.344 1116.62 264.824 1117.22C264.344 1117.78 264.104 1118.48 264.104 1119.32V1139H252.524V1108.34H261.404L262.724 1112.78C262.964 1112.3 263.424 1111.66 264.104 1110.86C264.784 1110.06 265.704 1109.34 266.864 1108.7C268.024 1108.06 269.344 1107.74 270.824 1107.74ZM296.556 1095.8V1119.74L304.356 1108.34H317.916L307.176 1122.2L318.096 1139H304.116L298.716 1130.3L296.556 1132.16V1139H284.676V1095.8H296.556ZM339.128 1107.74C342.208 1107.74 344.848 1108.34 347.048 1109.54C349.288 1110.7 350.988 1112.32 352.148 1114.4C353.348 1116.48 353.948 1118.86 353.948 1121.54V1125.26H333.968V1128.14C333.968 1129.5 334.388 1130.54 335.228 1131.26C336.108 1131.98 337.228 1132.34 338.588 1132.34C339.988 1132.34 341.048 1131.92 341.768 1131.08C342.528 1130.2 342.908 1129 342.908 1127.48H353.888C353.888 1129.76 353.288 1131.82 352.088 1133.66C350.928 1135.5 349.208 1136.96 346.928 1138.04C344.688 1139.08 342.028 1139.6 338.948 1139.6H338.048C334.848 1139.6 331.968 1139.02 329.408 1137.86C326.888 1136.66 324.888 1134.94 323.408 1132.7C321.968 1130.42 321.248 1127.72 321.248 1124.6V1122.74C321.248 1119.62 321.928 1116.94 323.288 1114.7C324.688 1112.42 326.628 1110.7 329.108 1109.54C331.588 1108.34 334.428 1107.74 337.628 1107.74H339.128ZM338.108 1115C336.948 1115 335.968 1115.42 335.168 1116.26C334.368 1117.06 333.968 1118.04 333.968 1119.2V1120.04H342.248V1119.2C342.248 1118.04 341.848 1117.06 341.048 1116.26C340.248 1115.42 339.268 1115 338.108 1115ZM374.083 1108.34H381.283V1116.86H374.083V1128.2C374.083 1129.8 374.383 1130.9 374.983 1131.5C375.623 1132.06 376.463 1132.34 377.503 1132.34C377.983 1132.34 378.603 1132.28 379.363 1132.16C380.163 1132 380.783 1131.82 381.223 1131.62V1138.34C380.303 1138.74 379.023 1139.06 377.383 1139.3C375.743 1139.54 374.343 1139.66 373.183 1139.66C369.663 1139.66 366.943 1139.02 365.023 1137.74C363.143 1136.46 362.203 1134.28 362.203 1131.2V1116.86H358.843V1108.34H362.683L366.823 1098.56H374.083V1108.34ZM399.22 1104.38H387.4V1095.8H399.22V1104.38ZM399.22 1139H387.4V1108.4H399.22V1139ZM428.133 1107.74C429.773 1107.74 431.273 1108.14 432.633 1108.94C434.033 1109.74 435.133 1110.84 435.933 1112.24C436.733 1113.6 437.133 1115.1 437.133 1116.74V1139H425.253V1119.8C425.253 1118.8 424.933 1117.96 424.293 1117.28C423.693 1116.56 422.953 1116.2 422.073 1116.2C421.193 1116.2 420.433 1116.56 419.793 1117.28C419.193 1117.96 418.893 1118.8 418.893 1119.8V1139H407.013V1108.34H415.953L417.153 1112.78C419.353 1109.42 422.453 1107.74 426.453 1107.74H428.133ZM477.07 1102.82C477.07 1105.14 476.51 1106.92 475.39 1108.16C474.31 1109.4 472.67 1110.32 470.47 1110.92C471.55 1111.76 472.37 1112.74 472.93 1113.86C473.53 1114.98 473.83 1116.14 473.83 1117.34C473.83 1119.1 473.29 1120.72 472.21 1122.2C471.13 1123.68 469.67 1124.86 467.83 1125.74C465.99 1126.58 463.99 1127 461.83 1127H457.69C456.53 1127 455.67 1127.18 455.11 1127.54C454.55 1127.86 454.27 1128.28 454.27 1128.8C454.27 1129.4 454.51 1129.86 454.99 1130.18C455.47 1130.5 456.37 1130.66 457.69 1130.66H467.47C470.67 1130.66 473.07 1131.52 474.67 1133.24C476.27 1134.92 477.07 1137.18 477.07 1140.02C477.07 1141.82 476.51 1143.5 475.39 1145.06C474.31 1146.66 472.85 1147.92 471.01 1148.84C469.17 1149.8 467.19 1150.28 465.07 1150.28H449.17C447.21 1150.28 445.51 1149.58 444.07 1148.18C442.67 1146.78 441.97 1145.08 441.97 1143.08V1142.78C441.97 1141.38 442.41 1140.1 443.29 1138.94C444.17 1137.74 445.25 1136.84 446.53 1136.24C445.65 1135.64 444.95 1134.88 444.43 1133.96C443.91 1133.04 443.65 1132.06 443.65 1131.02C443.65 1129.54 444.17 1128.2 445.21 1127C446.29 1125.8 447.61 1125 449.17 1124.6C447.77 1123.68 446.65 1122.6 445.81 1121.36C444.97 1120.12 444.55 1118.8 444.55 1117.4C444.55 1114.56 445.73 1112.24 448.09 1110.44C450.45 1108.64 453.87 1107.74 458.35 1107.74H460.03C461.47 1107.74 462.79 1107.86 463.99 1108.1C465.51 1107.1 466.59 1106.14 467.23 1105.22C467.87 1104.26 468.19 1103.46 468.19 1102.82H477.07ZM459.43 1113.62C458.39 1113.62 457.51 1114 456.79 1114.76C456.11 1115.48 455.77 1116.36 455.77 1117.4C455.77 1118.44 456.11 1119.34 456.79 1120.1C457.51 1120.82 458.39 1121.18 459.43 1121.18C460.47 1121.18 461.33 1120.82 462.01 1120.1C462.73 1119.34 463.09 1118.44 463.09 1117.4C463.09 1116.36 462.73 1115.48 462.01 1114.76C461.33 1114 460.47 1113.62 459.43 1113.62ZM454.81 1139C453.97 1139 453.25 1139.24 452.65 1139.72C452.09 1140.2 451.81 1140.78 451.81 1141.46C451.81 1142.14 452.09 1142.72 452.65 1143.2C453.25 1143.72 453.97 1143.98 454.81 1143.98H463.39C464.23 1143.98 464.93 1143.74 465.49 1143.26C466.09 1142.78 466.39 1142.2 466.39 1141.52C466.39 1140.84 466.09 1140.24 465.49 1139.72C464.93 1139.24 464.23 1139 463.39 1139H454.81ZM524.004 1108.04H506.544L506.064 1114.16C506.864 1113.44 507.904 1112.82 509.184 1112.3C510.464 1111.74 511.964 1111.46 513.684 1111.46C517.724 1111.46 520.964 1112.72 523.404 1115.24C525.844 1117.72 527.064 1121.14 527.064 1125.5C527.064 1128.1 526.404 1130.48 525.084 1132.64C523.764 1134.8 521.904 1136.5 519.504 1137.74C517.144 1138.98 514.464 1139.6 511.464 1139.6H509.664C506.504 1139.6 503.744 1138.98 501.384 1137.74C499.024 1136.5 497.204 1134.82 495.924 1132.7C494.684 1130.54 494.064 1128.16 494.064 1125.56H504.624C504.624 1126.88 505.084 1128.02 506.004 1128.98C506.964 1129.9 508.104 1130.36 509.424 1130.36H510.444C511.764 1130.36 512.884 1129.9 513.804 1128.98C514.764 1128.02 515.244 1126.88 515.244 1125.56V1124.9C515.244 1123.58 514.764 1122.46 513.804 1121.54C512.884 1120.58 511.764 1120.1 510.444 1120.1H509.604C508.684 1120.1 507.944 1120.26 507.384 1120.58C506.864 1120.86 506.424 1121.16 506.064 1121.48C505.744 1121.8 505.504 1122.02 505.344 1122.14L495.864 1120.82L497.604 1097.84H524.004V1108.04ZM567.698 1097.84L542.678 1139H536.978L562.118 1097.84H567.698ZM541.298 1097.9C543.338 1097.9 545.078 1098.62 546.518 1100.06C547.998 1101.5 548.738 1103.24 548.738 1105.28V1111.4C548.738 1113.44 547.998 1115.18 546.518 1116.62C545.078 1118.06 543.338 1118.78 541.298 1118.78H539.978C537.938 1118.78 536.198 1118.06 534.758 1116.62C533.318 1115.18 532.598 1113.44 532.598 1111.4V1105.28C532.598 1103.24 533.318 1101.5 534.758 1100.06C536.198 1098.62 537.938 1097.9 539.978 1097.9H541.298ZM540.638 1102.16C540.038 1102.16 539.518 1102.38 539.078 1102.82C538.638 1103.26 538.418 1103.82 538.418 1104.5V1112.12C538.418 1112.8 538.638 1113.36 539.078 1113.8C539.518 1114.24 540.038 1114.46 540.638 1114.46C541.278 1114.46 541.798 1114.24 542.198 1113.8C542.638 1113.36 542.858 1112.8 542.858 1112.12V1104.5C542.858 1103.82 542.638 1103.26 542.198 1102.82C541.798 1102.38 541.278 1102.16 540.638 1102.16ZM564.698 1118.12C566.738 1118.12 568.478 1118.84 569.918 1120.28C571.398 1121.72 572.138 1123.46 572.138 1125.5V1131.62C572.138 1132.94 571.798 1134.18 571.118 1135.34C570.438 1136.46 569.518 1137.36 568.358 1138.04C567.238 1138.72 566.018 1139.06 564.698 1139.06H563.378C561.338 1139.06 559.598 1138.34 558.158 1136.9C556.718 1135.42 555.998 1133.66 555.998 1131.62V1125.5C555.998 1123.46 556.718 1121.72 558.158 1120.28C559.598 1118.84 561.338 1118.12 563.378 1118.12H564.698ZM564.038 1122.38C563.438 1122.38 562.918 1122.62 562.478 1123.1C562.038 1123.54 561.818 1124.1 561.818 1124.78V1132.4C561.818 1133.04 562.038 1133.6 562.478 1134.08C562.918 1134.52 563.438 1134.74 564.038 1134.74C564.678 1134.74 565.198 1134.52 565.598 1134.08C566.038 1133.6 566.258 1133.04 566.258 1132.4V1124.78C566.258 1124.1 566.038 1123.54 565.598 1123.1C565.198 1122.62 564.678 1122.38 564.038 1122.38Z" fill="white"/>
<path d="M205.068 1139V1140H206.068V1139H205.068ZM192.468 1139H191.468V1140H192.468V1139ZM192.468 1112.6H193.468V1111.6H192.468V1112.6ZM192.228 1112.6V1111.6H191.465L191.264 1112.34L192.228 1112.6ZM185.028 1139V1140H185.792L185.993 1139.26L185.028 1139ZM170.568 1139L169.603 1139.26L169.803 1140H170.568V1139ZM163.428 1112.6L164.394 1112.34L164.194 1111.6H163.428V1112.6ZM163.128 1112.6V1111.6H162.128V1112.6H163.128ZM163.128 1139V1140H164.128V1139H163.128ZM151.668 1139H150.668V1140H151.668V1139ZM151.668 1097.84V1096.84H150.668V1097.84H151.668ZM172.308 1097.84L173.274 1097.58L173.074 1096.84H172.308V1097.84ZM178.248 1119.8L177.283 1120.06L177.483 1120.8H178.248V1119.8ZM178.488 1119.8V1120.8H179.258L179.455 1120.06L178.488 1119.8ZM184.308 1097.84V1096.84H183.539L183.342 1097.58L184.308 1097.84ZM205.068 1097.84H206.068V1096.84H205.068V1097.84ZM205.068 1138H192.468V1140H205.068V1138ZM193.468 1139V1112.6H191.468V1139H193.468ZM192.468 1111.6H192.228V1113.6H192.468V1111.6ZM191.264 1112.34L184.064 1138.74L185.993 1139.26L193.193 1112.86L191.264 1112.34ZM185.028 1138H170.568V1140H185.028V1138ZM171.534 1138.74L164.394 1112.34L162.463 1112.86L169.603 1139.26L171.534 1138.74ZM163.428 1111.6H163.128V1113.6H163.428V1111.6ZM162.128 1112.6V1139H164.128V1112.6H162.128ZM163.128 1138H151.668V1140H163.128V1138ZM152.668 1139V1097.84H150.668V1139H152.668ZM151.668 1098.84H172.308V1096.84H151.668V1098.84ZM171.343 1098.1L177.283 1120.06L179.214 1119.54L173.274 1097.58L171.343 1098.1ZM178.248 1120.8H178.488V1118.8H178.248V1120.8ZM179.455 1120.06L185.275 1098.1L183.342 1097.58L177.522 1119.54L179.455 1120.06ZM184.308 1098.84H205.068V1096.84H184.308V1098.84ZM204.068 1097.84V1139H206.068V1097.84H204.068ZM239.623 1110.44L239.029 1111.24L239.035 1111.25L239.623 1110.44ZM243.883 1131.8L243.176 1132.51L243.176 1132.51L243.883 1131.8ZM247.303 1131.8H248.303V1130.09L246.813 1130.93L247.303 1131.8ZM247.303 1138.22L247.886 1139.03L248.303 1138.73V1138.22H247.303ZM235.183 1138.34L234.672 1139.2L234.68 1139.2L234.689 1139.21L235.183 1138.34ZM232.423 1134.74L233.396 1134.51L232.945 1132.61L231.666 1134.09L232.423 1134.74ZM228.163 1138.28L227.671 1137.41L227.662 1137.41L228.163 1138.28ZM214.723 1137.74L215.25 1136.89L214.723 1137.74ZM214.063 1124.06L214.751 1124.79L214.761 1124.78L214.063 1124.06ZM220.723 1120.94L220.914 1121.92L220.924 1121.92L220.723 1120.94ZM231.823 1120.04V1121.04H232.823V1120.04H231.823ZM230.683 1115.66L230.018 1116.41L230.028 1116.42L230.039 1116.42L230.683 1115.66ZM225.283 1115.54L225.828 1116.38L225.838 1116.37L225.283 1115.54ZM224.083 1117.76V1118.76H225.083V1117.76H224.083ZM212.683 1117.76L211.734 1118.08L211.962 1118.76H212.683V1117.76ZM214.363 1112.3L213.604 1111.65L213.602 1111.65L214.363 1112.3ZM219.403 1109L219.75 1109.94L219.76 1109.93L219.403 1109ZM231.823 1125.5H232.823V1124.5H231.823V1125.5ZM226.003 1126.58L226.484 1127.46L226.494 1127.45L226.505 1127.44L226.003 1126.58ZM230.623 1131.2L231.312 1131.92L231.321 1131.92L231.33 1131.91L230.623 1131.2ZM229.003 1108.74C233.536 1108.74 236.831 1109.62 239.029 1111.24L240.216 1109.64C237.535 1107.66 233.75 1106.74 229.003 1106.74V1108.74ZM239.035 1111.25C241.276 1112.88 242.343 1114.92 242.343 1117.46H244.343C244.343 1114.24 242.93 1111.6 240.21 1109.63L239.035 1111.25ZM242.343 1117.46V1130.12H244.343V1117.46H242.343ZM242.343 1130.12C242.343 1131.02 242.553 1131.88 243.176 1132.51L244.59 1131.09C244.493 1131 244.343 1130.74 244.343 1130.12H242.343ZM243.176 1132.51C243.728 1133.06 244.424 1133.34 245.203 1133.34V1131.34C244.942 1131.34 244.758 1131.26 244.59 1131.09L243.176 1132.51ZM245.203 1133.34C246.128 1133.34 246.998 1133.12 247.793 1132.67L246.813 1130.93C246.328 1131.2 245.797 1131.34 245.203 1131.34V1133.34ZM246.303 1131.8V1138.22H248.303V1131.8H246.303ZM246.719 1137.41C245.695 1138.14 243.933 1138.6 241.243 1138.6V1140.6C244.073 1140.6 246.35 1140.14 247.886 1139.03L246.719 1137.41ZM241.243 1138.6C238.775 1138.6 236.949 1138.19 235.676 1137.47L234.689 1139.21C236.377 1140.17 238.59 1140.6 241.243 1140.6V1138.6ZM235.694 1137.48C234.42 1136.72 233.687 1135.74 233.396 1134.51L231.45 1134.97C231.879 1136.78 232.985 1138.2 234.672 1139.2L235.694 1137.48ZM231.666 1134.09C230.455 1135.49 229.122 1136.59 227.672 1137.41L228.654 1139.15C230.323 1138.21 231.831 1136.95 233.179 1135.39L231.666 1134.09ZM227.662 1137.41C226.331 1138.19 224.634 1138.6 222.523 1138.6V1140.6C224.891 1140.6 226.955 1140.13 228.664 1139.15L227.662 1137.41ZM222.523 1138.6C219.444 1138.6 217.044 1138 215.25 1136.89L214.196 1138.59C216.401 1139.96 219.201 1140.6 222.523 1140.6V1138.6ZM215.25 1136.89C213.681 1135.92 212.723 1133.91 212.723 1130.42H210.723C210.723 1134.21 211.764 1137.08 214.196 1138.59L215.25 1136.89ZM212.723 1130.42C212.723 1127.85 213.443 1126.03 214.751 1124.79L213.375 1123.33C211.563 1125.05 210.723 1127.47 210.723 1130.42H212.723ZM214.761 1124.78C216.14 1123.43 218.16 1122.46 220.914 1121.92L220.532 1119.96C217.525 1120.54 215.105 1121.65 213.365 1123.34L214.761 1124.78ZM220.924 1121.92C223.754 1121.34 227.38 1121.04 231.823 1121.04V1119.04C227.305 1119.04 223.532 1119.34 220.522 1119.96L220.924 1121.92ZM232.823 1120.04V1118.3H230.823V1120.04H232.823ZM232.823 1118.3C232.823 1116.93 232.343 1115.75 231.327 1114.9L230.039 1116.42C230.543 1116.85 230.823 1117.43 230.823 1118.3H232.823ZM231.347 1114.91C230.415 1114.08 229.245 1113.7 227.923 1113.7V1115.7C228.84 1115.7 229.511 1115.96 230.018 1116.41L231.347 1114.91ZM227.923 1113.7C226.786 1113.7 225.716 1114.05 224.728 1114.71L225.838 1116.37C226.53 1115.91 227.219 1115.7 227.923 1115.7V1113.7ZM224.738 1114.7C223.717 1115.36 223.083 1116.31 223.083 1117.52H225.083C225.083 1117.13 225.248 1116.76 225.828 1116.38L224.738 1114.7ZM223.083 1117.52V1117.76H225.083V1117.52H223.083ZM224.083 1116.76H212.683V1118.76H224.083V1116.76ZM213.632 1117.44C213.647 1117.49 213.649 1117.51 213.646 1117.49C213.643 1117.47 213.639 1117.44 213.635 1117.39C213.628 1117.28 213.623 1117.13 213.623 1116.92H211.623C211.623 1117.15 211.628 1117.36 211.64 1117.53C211.651 1117.68 211.671 1117.89 211.734 1118.08L213.632 1117.44ZM213.623 1116.92C213.623 1115.45 214.111 1114.14 215.124 1112.95L213.602 1111.65C212.294 1113.18 211.623 1114.95 211.623 1116.92H213.623ZM215.122 1112.95C216.187 1111.71 217.71 1110.69 219.75 1109.94L219.056 1108.06C216.775 1108.91 214.939 1110.09 213.604 1111.65L215.122 1112.95ZM219.76 1109.93C221.823 1109.15 224.238 1108.74 227.023 1108.74V1106.74C224.047 1106.74 221.382 1107.17 219.046 1108.07L219.76 1109.93ZM227.023 1108.74H229.003V1106.74H227.023V1108.74ZM231.823 1124.5C229.132 1124.5 226.974 1124.86 225.501 1125.72L226.505 1127.44C227.512 1126.86 229.233 1126.5 231.823 1126.5V1124.5ZM225.522 1125.7C224.016 1126.53 223.143 1127.8 223.143 1129.46H225.143C225.143 1128.64 225.509 1127.99 226.484 1127.46L225.522 1125.7ZM223.143 1129.46C223.143 1130.64 223.523 1131.68 224.418 1132.4C225.271 1133.08 226.436 1133.34 227.743 1133.34V1131.34C226.65 1131.34 226.015 1131.12 225.668 1130.84C225.363 1130.6 225.143 1130.2 225.143 1129.46H223.143ZM227.743 1133.34C229.115 1133.34 230.323 1132.86 231.312 1131.92L229.934 1130.47C229.323 1131.06 228.611 1131.34 227.743 1131.34V1133.34ZM231.33 1131.91C232.336 1130.9 232.823 1129.62 232.823 1128.14H230.823C230.823 1129.14 230.509 1129.9 229.916 1130.49L231.33 1131.91ZM232.823 1128.14V1125.5H230.823V1128.14H232.823ZM276.944 1109.96L276.227 1110.66L276.237 1110.67L276.247 1110.68L276.944 1109.96ZM279.164 1116.98L280.163 1117.03L280.164 1117.01V1116.98H279.164ZM279.044 1119.26L280.041 1119.34L280.042 1119.33L280.043 1119.31L279.044 1119.26ZM278.924 1120.76V1121.76H279.847L279.921 1120.84L278.924 1120.76ZM269.204 1120.76H268.204V1121.76H269.204V1120.76ZM268.424 1117.22L267.643 1117.84L267.666 1117.87L267.691 1117.9L268.424 1117.22ZM264.824 1117.22L264.069 1116.57L264.065 1116.57L264.824 1117.22ZM264.104 1139V1140H265.104V1139H264.104ZM252.524 1139H251.524V1140H252.524V1139ZM252.524 1108.34V1107.34H251.524V1108.34H252.524ZM261.404 1108.34L262.363 1108.06L262.15 1107.34H261.404V1108.34ZM262.724 1112.78L261.766 1113.06L262.487 1115.49L263.619 1113.23L262.724 1112.78ZM264.104 1110.86L264.866 1111.51L264.866 1111.51L264.104 1110.86ZM266.864 1108.7L267.347 1109.58L267.347 1109.58L266.864 1108.7ZM270.824 1108.74C273.273 1108.74 275.025 1109.42 276.227 1110.66L277.661 1109.26C275.984 1107.54 273.655 1106.74 270.824 1106.74V1108.74ZM276.247 1110.68C277.489 1111.89 278.164 1113.6 278.164 1115.96H280.164C280.164 1113.2 279.359 1110.91 277.642 1109.24L276.247 1110.68ZM278.164 1115.96V1116.98H280.164V1115.96H278.164ZM278.166 1116.93L278.046 1119.21L280.043 1119.31L280.163 1117.03L278.166 1116.93ZM278.047 1119.18L277.927 1120.68L279.921 1120.84L280.041 1119.34L278.047 1119.18ZM278.924 1119.76H269.204V1121.76H278.924V1119.76ZM270.204 1120.76V1119.32H268.204V1120.76H270.204ZM270.204 1119.32C270.204 1118.25 269.866 1117.3 269.157 1116.54L267.691 1117.9C268.022 1118.26 268.204 1118.71 268.204 1119.32H270.204ZM269.205 1116.6C268.563 1115.79 267.71 1115.32 266.684 1115.32V1117.32C267.018 1117.32 267.325 1117.45 267.643 1117.84L269.205 1116.6ZM266.684 1115.32C265.642 1115.32 264.757 1115.77 264.069 1116.57L265.58 1117.87C265.932 1117.47 266.286 1117.32 266.684 1117.32V1115.32ZM264.065 1116.57C263.408 1117.34 263.104 1118.28 263.104 1119.32H265.104C265.104 1118.68 265.28 1118.22 265.583 1117.87L264.065 1116.57ZM263.104 1119.32V1139H265.104V1119.32H263.104ZM264.104 1138H252.524V1140H264.104V1138ZM253.524 1139V1108.34H251.524V1139H253.524ZM252.524 1109.34H261.404V1107.34H252.524V1109.34ZM260.446 1108.62L261.766 1113.06L263.683 1112.5L262.363 1108.06L260.446 1108.62ZM263.619 1113.23C263.803 1112.86 264.199 1112.29 264.866 1111.51L263.342 1110.21C262.65 1111.03 262.125 1111.74 261.83 1112.33L263.619 1113.23ZM264.866 1111.51C265.45 1110.82 266.267 1110.17 267.347 1109.58L266.381 1107.82C265.142 1108.51 264.118 1109.3 263.342 1110.21L264.866 1111.51ZM267.347 1109.58C268.343 1109.03 269.493 1108.74 270.824 1108.74V1106.74C269.195 1106.74 267.706 1107.09 266.381 1107.82L267.347 1109.58ZM296.556 1095.8H297.556V1094.8H296.556V1095.8ZM296.556 1119.74H295.556V1122.97L297.381 1120.3L296.556 1119.74ZM304.356 1108.34V1107.34H303.828L303.53 1107.78L304.356 1108.34ZM317.916 1108.34L318.706 1108.95L319.956 1107.34H317.916V1108.34ZM307.176 1122.2L306.385 1121.59L305.95 1122.15L306.337 1122.74L307.176 1122.2ZM318.096 1139V1140H319.938L318.934 1138.46L318.096 1139ZM304.116 1139L303.266 1139.53L303.56 1140H304.116V1139ZM298.716 1130.3L299.565 1129.77L298.949 1128.78L298.063 1129.54L298.716 1130.3ZM296.556 1132.16L295.903 1131.4L295.556 1131.7V1132.16H296.556ZM296.556 1139V1140H297.556V1139H296.556ZM284.676 1139H283.676V1140H284.676V1139ZM284.676 1095.8V1094.8H283.676V1095.8H284.676ZM295.556 1095.8V1119.74H297.556V1095.8H295.556ZM297.381 1120.3L305.181 1108.9L303.53 1107.78L295.73 1119.18L297.381 1120.3ZM304.356 1109.34H317.916V1107.34H304.356V1109.34ZM317.125 1107.73L306.385 1121.59L307.966 1122.81L318.706 1108.95L317.125 1107.73ZM306.337 1122.74L317.257 1139.54L318.934 1138.46L308.014 1121.66L306.337 1122.74ZM318.096 1138H304.116V1140H318.096V1138ZM304.965 1138.47L299.565 1129.77L297.866 1130.83L303.266 1139.53L304.965 1138.47ZM298.063 1129.54L295.903 1131.4L297.208 1132.92L299.368 1131.06L298.063 1129.54ZM295.556 1132.16V1139H297.556V1132.16H295.556ZM296.556 1138H284.676V1140H296.556V1138ZM285.676 1139V1095.8H283.676V1139H285.676ZM284.676 1096.8H296.556V1094.8H284.676V1096.8ZM347.048 1109.54L346.569 1110.42L346.579 1110.42L346.588 1110.43L347.048 1109.54ZM352.148 1114.4L351.275 1114.89L351.278 1114.89L351.282 1114.9L352.148 1114.4ZM353.948 1125.26V1126.26H354.948V1125.26H353.948ZM333.968 1125.26V1124.26H332.968V1125.26H333.968ZM335.228 1131.26L334.577 1132.02L334.586 1132.03L334.595 1132.03L335.228 1131.26ZM341.768 1131.08L341.011 1130.43L341.009 1130.43L341.768 1131.08ZM342.908 1127.48V1126.48H341.908V1127.48H342.908ZM353.888 1127.48H354.888V1126.48H353.888V1127.48ZM352.088 1133.66L351.251 1133.11L351.246 1133.12L351.242 1133.13L352.088 1133.66ZM346.928 1138.04L347.349 1138.95L347.356 1138.94L346.928 1138.04ZM329.408 1137.86L328.978 1138.76L328.987 1138.77L328.995 1138.77L329.408 1137.86ZM323.408 1132.7L322.563 1133.23L322.568 1133.24L322.574 1133.25L323.408 1132.7ZM323.288 1114.7L322.436 1114.18L322.433 1114.18L323.288 1114.7ZM329.108 1109.54L329.532 1110.45L329.544 1110.44L329.108 1109.54ZM335.168 1116.26L335.875 1116.97L335.884 1116.96L335.892 1116.95L335.168 1116.26ZM333.968 1120.04H332.968V1121.04H333.968V1120.04ZM342.248 1120.04V1121.04H343.248V1120.04H342.248ZM341.048 1116.26L340.324 1116.95L340.332 1116.96L340.341 1116.97L341.048 1116.26ZM339.128 1108.74C342.079 1108.74 344.546 1109.31 346.569 1110.42L347.527 1108.66C345.15 1107.37 342.338 1106.74 339.128 1106.74V1108.74ZM346.588 1110.43C348.665 1111.5 350.216 1112.99 351.275 1114.89L353.021 1113.91C351.76 1111.65 349.911 1109.9 347.508 1108.65L346.588 1110.43ZM351.282 1114.9C352.384 1116.81 352.948 1119.01 352.948 1121.54H354.948C354.948 1118.71 354.312 1116.15 353.014 1113.9L351.282 1114.9ZM352.948 1121.54V1125.26H354.948V1121.54H352.948ZM353.948 1124.26H333.968V1126.26H353.948V1124.26ZM332.968 1125.26V1128.14H334.968V1125.26H332.968ZM332.968 1128.14C332.968 1129.72 333.466 1131.07 334.577 1132.02L335.879 1130.5C335.311 1130.01 334.968 1129.28 334.968 1128.14H332.968ZM334.595 1132.03C335.687 1132.93 337.044 1133.34 338.588 1133.34V1131.34C337.412 1131.34 336.529 1131.03 335.861 1130.49L334.595 1132.03ZM338.588 1133.34C340.196 1133.34 341.569 1132.85 342.527 1131.73L341.009 1130.43C340.527 1130.99 339.78 1131.34 338.588 1131.34V1133.34ZM342.525 1131.73C343.485 1130.62 343.908 1129.16 343.908 1127.48H341.908C341.908 1128.84 341.571 1129.78 341.011 1130.43L342.525 1131.73ZM342.908 1128.48H353.888V1126.48H342.908V1128.48ZM352.888 1127.48C352.888 1129.57 352.34 1131.44 351.251 1133.11L352.926 1134.21C354.236 1132.2 354.888 1129.95 354.888 1127.48H352.888ZM351.242 1133.13C350.199 1134.78 348.636 1136.12 346.5 1137.14L347.356 1138.94C349.78 1137.8 351.657 1136.22 352.934 1134.19L351.242 1133.13ZM346.507 1137.13C344.427 1138.1 341.918 1138.6 338.948 1138.6V1140.6C342.139 1140.6 344.949 1140.06 347.349 1138.95L346.507 1137.13ZM338.948 1138.6H338.048V1140.6H338.948V1138.6ZM338.048 1138.6C334.971 1138.6 332.234 1138.04 329.821 1136.95L328.995 1138.77C331.702 1140 334.725 1140.6 338.048 1140.6V1138.6ZM329.838 1136.96C327.476 1135.83 325.618 1134.23 324.242 1132.15L322.574 1133.25C324.158 1135.65 326.301 1137.49 328.978 1138.76L329.838 1136.96ZM324.254 1132.17C322.93 1130.07 322.248 1127.56 322.248 1124.6H320.248C320.248 1127.88 321.007 1130.77 322.563 1133.23L324.254 1132.17ZM322.248 1124.6V1122.74H320.248V1124.6H322.248ZM322.248 1122.74C322.248 1119.77 322.895 1117.27 324.143 1115.22L322.433 1114.18C320.962 1116.61 320.248 1119.47 320.248 1122.74H322.248ZM324.14 1115.22C325.435 1113.11 327.225 1111.52 329.532 1110.45L328.684 1108.63C326.032 1109.88 323.941 1111.73 322.436 1114.18L324.14 1115.22ZM329.544 1110.44C331.868 1109.32 334.555 1108.74 337.628 1108.74V1106.74C334.302 1106.74 331.309 1107.36 328.673 1108.64L329.544 1110.44ZM337.628 1108.74H339.128V1106.74H337.628V1108.74ZM338.108 1114C336.674 1114 335.433 1114.53 334.444 1115.57L335.892 1116.95C336.504 1116.31 337.222 1116 338.108 1116V1114ZM334.461 1115.55C333.468 1116.55 332.968 1117.78 332.968 1119.2H334.968C334.968 1118.3 335.268 1117.57 335.875 1116.97L334.461 1115.55ZM332.968 1119.2V1120.04H334.968V1119.2H332.968ZM333.968 1121.04H342.248V1119.04H333.968V1121.04ZM343.248 1120.04V1119.2H341.248V1120.04H343.248ZM343.248 1119.2C343.248 1117.78 342.748 1116.55 341.755 1115.55L340.341 1116.97C340.948 1117.57 341.248 1118.3 341.248 1119.2H343.248ZM341.772 1115.57C340.784 1114.53 339.542 1114 338.108 1114V1116C338.994 1116 339.713 1116.31 340.324 1116.95L341.772 1115.57ZM374.083 1108.34H373.083V1109.34H374.083V1108.34ZM381.283 1108.34H382.283V1107.34H381.283V1108.34ZM381.283 1116.86V1117.86H382.283V1116.86H381.283ZM374.083 1116.86V1115.86H373.083V1116.86H374.083ZM374.983 1131.5L374.276 1132.21L374.3 1132.23L374.325 1132.25L374.983 1131.5ZM379.363 1132.16L379.519 1133.15L379.539 1133.14L379.559 1133.14L379.363 1132.16ZM381.223 1131.62H382.223V1130.07L380.809 1130.71L381.223 1131.62ZM381.223 1138.34L381.622 1139.26L382.223 1139V1138.34H381.223ZM377.383 1139.3L377.238 1138.31L377.383 1139.3ZM365.023 1137.74L364.46 1138.57L364.469 1138.57L365.023 1137.74ZM362.203 1116.86H363.203V1115.86H362.203V1116.86ZM358.843 1116.86H357.843V1117.86H358.843V1116.86ZM358.843 1108.34V1107.34H357.843V1108.34H358.843ZM362.683 1108.34V1109.34H363.346L363.604 1108.73L362.683 1108.34ZM366.823 1098.56V1097.56H366.161L365.902 1098.17L366.823 1098.56ZM374.083 1098.56H375.083V1097.56H374.083V1098.56ZM374.083 1109.34H381.283V1107.34H374.083V1109.34ZM380.283 1108.34V1116.86H382.283V1108.34H380.283ZM381.283 1115.86H374.083V1117.86H381.283V1115.86ZM373.083 1116.86V1128.2H375.083V1116.86H373.083ZM373.083 1128.2C373.083 1129.86 373.38 1131.31 374.276 1132.21L375.69 1130.79C375.387 1130.49 375.083 1129.74 375.083 1128.2H373.083ZM374.325 1132.25C375.185 1133.01 376.277 1133.34 377.503 1133.34V1131.34C376.649 1131.34 376.061 1131.11 375.642 1130.75L374.325 1132.25ZM377.503 1133.34C378.057 1133.34 378.734 1133.27 379.519 1133.15L379.207 1131.17C378.472 1131.29 377.91 1131.34 377.503 1131.34V1133.34ZM379.559 1133.14C380.391 1132.97 381.096 1132.78 381.637 1132.53L380.809 1130.71C380.471 1130.86 379.936 1131.03 379.167 1131.18L379.559 1133.14ZM380.223 1131.62V1138.34H382.223V1131.62H380.223ZM380.825 1137.42C380.021 1137.77 378.84 1138.08 377.238 1138.31L377.528 1140.29C379.207 1140.04 380.586 1139.71 381.622 1139.26L380.825 1137.42ZM377.238 1138.31C375.628 1138.55 374.279 1138.66 373.183 1138.66V1140.66C374.407 1140.66 375.859 1140.53 377.528 1140.29L377.238 1138.31ZM373.183 1138.66C369.764 1138.66 367.268 1138.03 365.578 1136.91L364.469 1138.57C366.618 1140.01 369.563 1140.66 373.183 1140.66V1138.66ZM365.586 1136.91C364.071 1135.88 363.203 1134.08 363.203 1131.2H361.203C361.203 1134.48 362.215 1137.04 364.46 1138.57L365.586 1136.91ZM363.203 1131.2V1116.86H361.203V1131.2H363.203ZM362.203 1115.86H358.843V1117.86H362.203V1115.86ZM359.843 1116.86V1108.34H357.843V1116.86H359.843ZM358.843 1109.34H362.683V1107.34H358.843V1109.34ZM363.604 1108.73L367.744 1098.95L365.902 1098.17L361.762 1107.95L363.604 1108.73ZM366.823 1099.56H374.083V1097.56H366.823V1099.56ZM373.083 1098.56V1108.34H375.083V1098.56H373.083ZM399.22 1104.38V1105.38H400.22V1104.38H399.22ZM387.4 1104.38H386.4V1105.38H387.4V1104.38ZM387.4 1095.8V1094.8H386.4V1095.8H387.4ZM399.22 1095.8H400.22V1094.8H399.22V1095.8ZM399.22 1139V1140H400.22V1139H399.22ZM387.4 1139H386.4V1140H387.4V1139ZM387.4 1108.4V1107.4H386.4V1108.4H387.4ZM399.22 1108.4H400.22V1107.4H399.22V1108.4ZM399.22 1103.38H387.4V1105.38H399.22V1103.38ZM388.4 1104.38V1095.8H386.4V1104.38H388.4ZM387.4 1096.8H399.22V1094.8H387.4V1096.8ZM398.22 1095.8V1104.38H400.22V1095.8H398.22ZM399.22 1138H387.4V1140H399.22V1138ZM388.4 1139V1108.4H386.4V1139H388.4ZM387.4 1109.4H399.22V1107.4H387.4V1109.4ZM398.22 1108.4V1139H400.22V1108.4H398.22ZM432.633 1108.94L432.125 1109.8L432.136 1109.81L432.633 1108.94ZM435.933 1112.24L435.064 1112.74L435.071 1112.75L435.933 1112.24ZM437.133 1139V1140H438.133V1139H437.133ZM425.253 1139H424.253V1140H425.253V1139ZM424.293 1117.28L423.524 1117.92L423.544 1117.94L423.564 1117.97L424.293 1117.28ZM419.793 1117.28L419.045 1116.62L419.043 1116.62L419.793 1117.28ZM418.893 1139V1140H419.893V1139H418.893ZM407.013 1139H406.013V1140H407.013V1139ZM407.013 1108.34V1107.34H406.013V1108.34H407.013ZM415.953 1108.34L416.918 1108.08L416.718 1107.34H415.953V1108.34ZM417.153 1112.78L416.187 1113.04L416.769 1115.19L417.989 1113.33L417.153 1112.78ZM428.133 1108.74C429.602 1108.74 430.925 1109.1 432.125 1109.8L433.14 1108.08C431.62 1107.18 429.943 1106.74 428.133 1106.74V1108.74ZM432.136 1109.81C433.381 1110.52 434.353 1111.49 435.064 1112.74L436.801 1111.74C435.912 1110.19 434.684 1108.96 433.129 1108.07L432.136 1109.81ZM435.071 1112.75C435.777 1113.95 436.133 1115.27 436.133 1116.74H438.133C438.133 1114.93 437.688 1113.25 436.794 1111.73L435.071 1112.75ZM436.133 1116.74V1139H438.133V1116.74H436.133ZM437.133 1138H425.253V1140H437.133V1138ZM426.253 1139V1119.8H424.253V1139H426.253ZM426.253 1119.8C426.253 1118.57 425.848 1117.47 425.021 1116.59L423.564 1117.97C424.017 1118.45 424.253 1119.03 424.253 1119.8H426.253ZM425.061 1116.64C424.285 1115.71 423.271 1115.2 422.073 1115.2V1117.2C422.634 1117.2 423.1 1117.41 423.524 1117.92L425.061 1116.64ZM422.073 1115.2C420.878 1115.2 419.855 1115.7 419.045 1116.62L420.54 1117.94C421.01 1117.42 421.507 1117.2 422.073 1117.2V1115.2ZM419.043 1116.62C418.264 1117.5 417.893 1118.58 417.893 1119.8H419.893C419.893 1119.02 420.121 1118.42 420.542 1117.94L419.043 1116.62ZM417.893 1119.8V1139H419.893V1119.8H417.893ZM418.893 1138H407.013V1140H418.893V1138ZM408.013 1139V1108.34H406.013V1139H408.013ZM407.013 1109.34H415.953V1107.34H407.013V1109.34ZM414.987 1108.6L416.187 1113.04L418.118 1112.52L416.918 1108.08L414.987 1108.6ZM417.989 1113.33C420.005 1110.25 422.791 1108.74 426.453 1108.74V1106.74C422.114 1106.74 418.7 1108.59 416.316 1112.23L417.989 1113.33ZM426.453 1108.74H428.133V1106.74H426.453V1108.74ZM477.07 1102.82H478.07V1101.82H477.07V1102.82ZM475.39 1108.16L474.648 1107.49L474.642 1107.5L474.636 1107.5L475.39 1108.16ZM470.47 1110.92L470.207 1109.96L468.278 1110.48L469.857 1111.71L470.47 1110.92ZM472.93 1113.86L472.036 1114.31L472.042 1114.32L472.049 1114.33L472.93 1113.86ZM472.21 1122.2L471.403 1121.61L471.403 1121.61L472.21 1122.2ZM467.83 1125.74L468.246 1126.65L468.254 1126.65L468.262 1126.64L467.83 1125.74ZM455.11 1127.54L455.607 1128.41L455.629 1128.4L455.651 1128.38L455.11 1127.54ZM454.99 1130.18L454.436 1131.01L454.436 1131.01L454.99 1130.18ZM474.67 1133.24L473.938 1133.92L473.946 1133.93L474.67 1133.24ZM475.39 1145.06L474.578 1144.48L474.57 1144.49L474.562 1144.5L475.39 1145.06ZM471.01 1148.84L470.563 1147.95L470.556 1147.95L470.548 1147.95L471.01 1148.84ZM444.07 1148.18L443.363 1148.89L443.373 1148.9L444.07 1148.18ZM443.29 1138.94L444.087 1139.54L444.092 1139.54L444.097 1139.53L443.29 1138.94ZM446.53 1136.24L446.955 1137.15L448.542 1136.4L447.094 1135.41L446.53 1136.24ZM445.21 1127L444.467 1126.33L444.461 1126.34L444.455 1126.35L445.21 1127ZM449.17 1124.6L449.419 1125.57L451.61 1125.01L449.72 1123.76L449.17 1124.6ZM445.81 1121.36L444.983 1121.92L444.983 1121.92L445.81 1121.36ZM448.09 1110.44L448.697 1111.24L448.697 1111.24L448.09 1110.44ZM463.99 1108.1L463.794 1109.08L464.197 1109.16L464.54 1108.94L463.99 1108.1ZM467.23 1105.22L468.051 1105.79L468.057 1105.78L468.063 1105.77L467.23 1105.22ZM468.19 1102.82V1101.82H467.19V1102.82H468.19ZM456.79 1114.76L456.065 1114.07L456.063 1114.07L456.79 1114.76ZM456.79 1120.1L456.045 1120.77L456.064 1120.79L456.083 1120.81L456.79 1120.1ZM462.01 1120.1L461.285 1119.41L461.283 1119.41L462.01 1120.1ZM462.01 1114.76L461.265 1115.43L461.284 1115.45L461.303 1115.47L462.01 1114.76ZM452.65 1139.72L452.026 1138.94L452.013 1138.95L452 1138.96L452.65 1139.72ZM452.65 1143.2L453.305 1142.44L453.301 1142.44L452.65 1143.2ZM465.49 1143.26L464.866 1142.48L464.853 1142.49L464.84 1142.5L465.49 1143.26ZM465.49 1139.72L466.145 1138.96L466.141 1138.96L465.49 1139.72ZM476.07 1102.82C476.07 1104.99 475.547 1106.49 474.648 1107.49L476.133 1108.83C477.474 1107.35 478.07 1105.29 478.07 1102.82H476.07ZM474.636 1107.5C473.727 1108.55 472.288 1109.39 470.207 1109.96L470.734 1111.88C473.053 1111.25 474.894 1110.25 476.145 1108.82L474.636 1107.5ZM469.857 1111.71C470.83 1112.47 471.549 1113.33 472.036 1114.31L473.825 1113.41C473.192 1112.15 472.271 1111.05 471.084 1110.13L469.857 1111.71ZM472.049 1114.33C472.576 1115.32 472.83 1116.31 472.83 1117.34H474.83C474.83 1115.97 474.485 1114.64 473.812 1113.39L472.049 1114.33ZM472.83 1117.34C472.83 1118.88 472.363 1120.29 471.403 1121.61L473.018 1122.79C474.218 1121.15 474.83 1119.32 474.83 1117.34H472.83ZM471.403 1121.61C470.431 1122.94 469.107 1124.02 467.399 1124.84L468.262 1126.64C470.234 1125.7 471.83 1124.42 473.018 1122.79L471.403 1121.61ZM467.415 1124.83C465.714 1125.61 463.857 1126 461.83 1126V1128C464.124 1128 466.267 1127.55 468.246 1126.65L467.415 1124.83ZM461.83 1126H457.69V1128H461.83V1126ZM457.69 1126C456.464 1126 455.371 1126.18 454.57 1126.7L455.651 1128.38C455.97 1128.18 456.597 1128 457.69 1128V1126ZM454.614 1126.67C453.83 1127.12 453.27 1127.83 453.27 1128.8H455.27C455.27 1128.73 455.271 1128.6 455.607 1128.41L454.614 1126.67ZM453.27 1128.8C453.27 1129.72 453.664 1130.5 454.436 1131.01L455.545 1129.35C455.356 1129.22 455.27 1129.08 455.27 1128.8H453.27ZM454.436 1131.01C454.838 1131.28 455.335 1131.43 455.85 1131.52C456.377 1131.62 456.995 1131.66 457.69 1131.66V1129.66C457.066 1129.66 456.574 1129.62 456.201 1129.56C455.816 1129.49 455.623 1129.4 455.545 1129.35L454.436 1131.01ZM457.69 1131.66H467.47V1129.66H457.69V1131.66ZM467.47 1131.66C470.497 1131.66 472.588 1132.47 473.938 1133.92L475.403 1132.56C473.553 1130.57 470.844 1129.66 467.47 1129.66V1131.66ZM473.946 1133.93C475.331 1135.38 476.07 1137.38 476.07 1140.02H478.07C478.07 1136.98 477.21 1134.46 475.395 1132.55L473.946 1133.93ZM476.07 1140.02C476.07 1141.6 475.585 1143.07 474.578 1144.48L476.203 1145.64C477.436 1143.93 478.07 1142.04 478.07 1140.02H476.07ZM474.562 1144.5C473.584 1145.95 472.26 1147.1 470.563 1147.95L471.458 1149.73C473.441 1148.74 475.037 1147.37 476.219 1145.62L474.562 1144.5ZM470.548 1147.95C468.854 1148.84 467.033 1149.28 465.07 1149.28V1151.28C467.348 1151.28 469.487 1150.76 471.473 1149.73L470.548 1147.95ZM465.07 1149.28H449.17V1151.28H465.07V1149.28ZM449.17 1149.28C447.478 1149.28 446.026 1148.69 444.768 1147.46L443.373 1148.9C444.995 1150.47 446.943 1151.28 449.17 1151.28V1149.28ZM444.778 1147.47C443.567 1146.26 442.97 1144.82 442.97 1143.08H440.97C440.97 1145.34 441.774 1147.3 443.363 1148.89L444.778 1147.47ZM442.97 1143.08V1142.78H440.97V1143.08H442.97ZM442.97 1142.78C442.97 1141.61 443.333 1140.54 444.087 1139.54L442.494 1138.34C441.488 1139.66 440.97 1141.15 440.97 1142.78H442.97ZM444.097 1139.53C444.883 1138.46 445.835 1137.67 446.955 1137.15L446.106 1135.33C444.666 1136.01 443.458 1137.02 442.484 1138.35L444.097 1139.53ZM447.094 1135.41C446.339 1134.9 445.745 1134.25 445.301 1133.47L443.56 1134.45C444.156 1135.51 444.961 1136.38 445.967 1137.07L447.094 1135.41ZM445.301 1133.47C444.864 1132.7 444.65 1131.88 444.65 1131.02H442.65C442.65 1132.24 442.956 1133.38 443.56 1134.45L445.301 1133.47ZM444.65 1131.02C444.65 1129.8 445.071 1128.69 445.966 1127.65L444.455 1126.35C443.27 1127.71 442.65 1129.28 442.65 1131.02H444.65ZM445.954 1127.67C446.902 1126.62 448.05 1125.92 449.419 1125.57L448.922 1123.63C447.171 1124.08 445.679 1124.98 444.467 1126.33L445.954 1127.67ZM449.72 1123.76C448.417 1122.91 447.396 1121.92 446.638 1120.8L444.983 1121.92C445.905 1123.28 447.124 1124.45 448.621 1125.44L449.72 1123.76ZM446.638 1120.8C445.902 1119.71 445.55 1118.59 445.55 1117.4H443.55C443.55 1119.01 444.039 1120.53 444.983 1121.92L446.638 1120.8ZM445.55 1117.4C445.55 1114.89 446.572 1112.86 448.697 1111.24L447.484 1109.64C444.889 1111.62 443.55 1114.23 443.55 1117.4H445.55ZM448.697 1111.24C450.814 1109.62 453.984 1108.74 458.35 1108.74V1106.74C453.757 1106.74 450.087 1107.66 447.484 1109.64L448.697 1111.24ZM458.35 1108.74H460.03V1106.74H458.35V1108.74ZM460.03 1108.74C461.416 1108.74 462.669 1108.86 463.794 1109.08L464.187 1107.12C462.912 1106.86 461.525 1106.74 460.03 1106.74V1108.74ZM464.54 1108.94C466.108 1107.9 467.307 1106.86 468.051 1105.79L466.41 1104.65C465.874 1105.42 464.913 1106.3 463.441 1107.26L464.54 1108.94ZM468.063 1105.77C468.736 1104.76 469.19 1103.76 469.19 1102.82H467.19C467.19 1103.16 467.005 1103.76 466.398 1104.67L468.063 1105.77ZM468.19 1103.82H477.07V1101.82H468.19V1103.82ZM459.43 1112.62C458.114 1112.62 456.972 1113.11 456.065 1114.07L457.516 1115.45C458.049 1114.89 458.667 1114.62 459.43 1114.62V1112.62ZM456.063 1114.07C455.199 1114.99 454.77 1116.12 454.77 1117.4H456.77C456.77 1116.6 457.022 1115.97 457.517 1115.45L456.063 1114.07ZM454.77 1117.4C454.77 1118.68 455.198 1119.82 456.045 1120.77L457.536 1119.43C457.023 1118.86 456.77 1118.2 456.77 1117.4H454.77ZM456.083 1120.81C456.995 1121.72 458.132 1122.18 459.43 1122.18V1120.18C458.649 1120.18 458.026 1119.92 457.498 1119.39L456.083 1120.81ZM459.43 1122.18C460.73 1122.18 461.858 1121.72 462.737 1120.79L461.283 1119.41C460.803 1119.92 460.211 1120.18 459.43 1120.18V1122.18ZM462.736 1120.79C463.631 1119.84 464.09 1118.7 464.09 1117.4H462.09C462.09 1118.18 461.83 1118.84 461.285 1119.41L462.736 1120.79ZM464.09 1117.4C464.09 1116.1 463.63 1114.96 462.718 1114.05L461.303 1115.47C461.831 1116 462.09 1116.62 462.09 1117.4H464.09ZM462.756 1114.09C461.882 1113.12 460.749 1112.62 459.43 1112.62V1114.62C460.192 1114.62 460.779 1114.88 461.265 1115.43L462.756 1114.09ZM454.81 1138C453.766 1138 452.82 1138.3 452.026 1138.94L453.275 1140.5C453.681 1140.18 454.175 1140 454.81 1140V1138ZM452 1138.96C451.239 1139.61 450.81 1140.46 450.81 1141.46H452.81C452.81 1141.1 452.942 1140.79 453.301 1140.48L452 1138.96ZM450.81 1141.46C450.81 1142.46 451.239 1143.31 452 1143.96L453.301 1142.44C452.942 1142.13 452.81 1141.82 452.81 1141.46H450.81ZM451.996 1143.96C452.788 1144.64 453.745 1144.98 454.81 1144.98V1142.98C454.196 1142.98 453.712 1142.8 453.305 1142.44L451.996 1143.96ZM454.81 1144.98H463.39V1142.98H454.81V1144.98ZM463.39 1144.98C464.434 1144.98 465.375 1144.68 466.141 1144.02L464.84 1142.5C464.486 1142.8 464.027 1142.98 463.39 1142.98V1144.98ZM466.115 1144.04C466.917 1143.4 467.39 1142.55 467.39 1141.52H465.39C465.39 1141.85 465.263 1142.16 464.866 1142.48L466.115 1144.04ZM467.39 1141.52C467.39 1140.5 466.924 1139.64 466.145 1138.96L464.836 1140.48C465.257 1140.84 465.39 1141.18 465.39 1141.52H467.39ZM466.141 1138.96C465.375 1138.3 464.434 1138 463.39 1138V1140C464.027 1140 464.486 1140.18 464.84 1140.48L466.141 1138.96ZM463.39 1138H454.81V1140H463.39V1138ZM524.004 1108.04V1109.04H525.004V1108.04H524.004ZM506.544 1108.04V1107.04H505.619L505.547 1107.96L506.544 1108.04ZM506.064 1114.16L505.067 1114.08L504.871 1116.58L506.733 1114.9L506.064 1114.16ZM509.184 1112.3L509.56 1113.23L509.573 1113.22L509.585 1113.22L509.184 1112.3ZM523.404 1115.24L522.686 1115.94L522.691 1115.94L523.404 1115.24ZM525.084 1132.64L525.937 1133.16L525.937 1133.16L525.084 1132.64ZM519.504 1137.74L519.045 1136.85L519.039 1136.85L519.504 1137.74ZM501.384 1137.74L501.849 1136.85L501.849 1136.85L501.384 1137.74ZM495.924 1132.7L495.057 1133.2L495.062 1133.21L495.068 1133.22L495.924 1132.7ZM494.064 1125.56V1124.56H493.064V1125.56H494.064ZM504.624 1125.56H505.624V1124.56H504.624V1125.56ZM506.004 1128.98L505.282 1129.67L505.297 1129.69L505.312 1129.7L506.004 1128.98ZM513.804 1128.98L514.511 1129.69L514.511 1129.69L513.804 1128.98ZM513.804 1121.54L513.082 1122.23L513.097 1122.25L513.112 1122.26L513.804 1121.54ZM507.384 1120.58L507.858 1121.46L507.869 1121.45L507.88 1121.45L507.384 1120.58ZM506.064 1121.48L505.4 1120.73L505.378 1120.75L505.357 1120.77L506.064 1121.48ZM505.344 1122.14L505.206 1123.13L505.614 1123.19L505.944 1122.94L505.344 1122.14ZM495.864 1120.82L494.867 1120.74L494.796 1121.68L495.726 1121.81L495.864 1120.82ZM497.604 1097.84V1096.84H496.677L496.607 1097.76L497.604 1097.84ZM524.004 1097.84H525.004V1096.84H524.004V1097.84ZM524.004 1107.04H506.544V1109.04H524.004V1107.04ZM505.547 1107.96L505.067 1114.08L507.061 1114.24L507.541 1108.12L505.547 1107.96ZM506.733 1114.9C507.426 1114.28 508.359 1113.71 509.56 1113.23L508.808 1111.37C507.449 1111.93 506.302 1112.6 505.395 1113.42L506.733 1114.9ZM509.585 1113.22C510.713 1112.72 512.071 1112.46 513.684 1112.46V1110.46C511.857 1110.46 510.215 1110.76 508.783 1111.38L509.585 1113.22ZM513.684 1112.46C517.498 1112.46 520.463 1113.64 522.686 1115.94L524.122 1114.54C521.465 1111.8 517.95 1110.46 513.684 1110.46V1112.46ZM522.691 1115.94C524.903 1118.19 526.064 1121.33 526.064 1125.5H528.064C528.064 1120.95 526.785 1117.25 524.117 1114.54L522.691 1115.94ZM526.064 1125.5C526.064 1127.92 525.452 1130.12 524.231 1132.12L525.937 1133.16C527.356 1130.84 528.064 1128.28 528.064 1125.5H526.064ZM524.231 1132.12C523.013 1134.11 521.294 1135.69 519.045 1136.85L519.963 1138.63C522.514 1137.31 524.516 1135.49 525.937 1133.16L524.231 1132.12ZM519.039 1136.85C516.84 1138.01 514.323 1138.6 511.464 1138.6V1140.6C514.606 1140.6 517.449 1139.95 519.969 1138.63L519.039 1136.85ZM511.464 1138.6H509.664V1140.6H511.464V1138.6ZM509.664 1138.6C506.636 1138.6 504.041 1138.01 501.849 1136.85L500.919 1138.63C503.447 1139.95 506.372 1140.6 509.664 1140.6V1138.6ZM501.849 1136.85C499.638 1135.69 497.959 1134.14 496.78 1132.18L495.068 1133.22C496.449 1135.5 498.41 1137.31 500.919 1138.63L501.849 1136.85ZM496.791 1132.2C495.642 1130.2 495.064 1127.99 495.064 1125.56H493.064C493.064 1128.33 493.726 1130.88 495.057 1133.2L496.791 1132.2ZM494.064 1126.56H504.624V1124.56H494.064V1126.56ZM503.624 1125.56C503.624 1127.14 504.185 1128.53 505.282 1129.67L506.726 1128.29C505.983 1127.51 505.624 1126.62 505.624 1125.56H503.624ZM505.312 1129.7C506.457 1130.8 507.844 1131.36 509.424 1131.36V1129.36C508.364 1129.36 507.471 1129 506.696 1128.26L505.312 1129.7ZM509.424 1131.36H510.444V1129.36H509.424V1131.36ZM510.444 1131.36C512.025 1131.36 513.401 1130.8 514.511 1129.69L513.097 1128.27C512.368 1129 511.503 1129.36 510.444 1129.36V1131.36ZM514.511 1129.69C515.653 1128.55 516.244 1127.15 516.244 1125.56H514.244C514.244 1126.61 513.875 1127.49 513.097 1128.27L514.511 1129.69ZM516.244 1125.56V1124.9H514.244V1125.56H516.244ZM516.244 1124.9C516.244 1123.31 515.651 1121.93 514.496 1120.82L513.112 1122.26C513.877 1122.99 514.244 1123.85 514.244 1124.9H516.244ZM514.526 1120.85C513.419 1119.69 512.039 1119.1 510.444 1119.1V1121.1C511.489 1121.1 512.349 1121.47 513.082 1122.23L514.526 1120.85ZM510.444 1119.1H509.604V1121.1H510.444V1119.1ZM509.604 1119.1C508.58 1119.1 507.65 1119.28 506.888 1119.71L507.88 1121.45C508.238 1121.24 508.788 1121.1 509.604 1121.1V1119.1ZM506.91 1119.7C506.336 1120.01 505.829 1120.35 505.4 1120.73L506.728 1122.23C507.019 1121.97 507.392 1121.71 507.858 1121.46L506.91 1119.7ZM505.357 1120.77C505.039 1121.09 504.843 1121.27 504.744 1121.34L505.944 1122.94C506.166 1122.77 506.449 1122.51 506.771 1122.19L505.357 1120.77ZM505.482 1121.15L496.002 1119.83L495.726 1121.81L505.206 1123.13L505.482 1121.15ZM496.861 1120.9L498.601 1097.92L496.607 1097.76L494.867 1120.74L496.861 1120.9ZM497.604 1098.84H524.004V1096.84H497.604V1098.84ZM523.004 1097.84V1108.04H525.004V1097.84H523.004ZM567.698 1097.84L568.553 1098.36L569.476 1096.84H567.698V1097.84ZM542.678 1139V1140H543.241L543.533 1139.52L542.678 1139ZM536.978 1139L536.125 1138.48L535.196 1140H536.978V1139ZM562.118 1097.84V1096.84H561.557L561.265 1097.32L562.118 1097.84ZM546.518 1100.06L545.811 1100.77L545.821 1100.78L546.518 1100.06ZM546.518 1116.62L545.821 1115.9L545.811 1115.91L546.518 1116.62ZM534.758 1116.62L535.465 1115.91L535.465 1115.91L534.758 1116.62ZM534.758 1100.06L534.051 1099.35L534.051 1099.35L534.758 1100.06ZM539.078 1102.82L538.371 1102.11L538.371 1102.11L539.078 1102.82ZM539.078 1113.8L538.371 1114.51L538.371 1114.51L539.078 1113.8ZM542.198 1113.8L541.491 1113.09L541.474 1113.11L541.458 1113.13L542.198 1113.8ZM542.198 1102.82L541.458 1103.49L541.474 1103.51L541.491 1103.53L542.198 1102.82ZM569.918 1120.28L569.211 1120.99L569.221 1121L569.918 1120.28ZM571.118 1135.34L571.973 1135.86L571.977 1135.85L571.981 1135.85L571.118 1135.34ZM568.358 1138.04L567.852 1137.18L567.846 1137.18L567.839 1137.19L568.358 1138.04ZM558.158 1136.9L557.441 1137.6L557.451 1137.61L558.158 1136.9ZM562.478 1123.1L563.185 1123.81L563.201 1123.79L563.215 1123.78L562.478 1123.1ZM562.478 1134.08L561.741 1134.76L561.756 1134.77L561.771 1134.79L562.478 1134.08ZM565.598 1134.08L564.861 1133.4L564.858 1133.41L565.598 1134.08ZM565.598 1123.1L564.83 1123.74L564.859 1123.78L564.891 1123.81L565.598 1123.1ZM566.844 1097.32L541.824 1138.48L543.533 1139.52L568.553 1098.36L566.844 1097.32ZM542.678 1138H536.978V1140H542.678V1138ZM537.832 1139.52L562.972 1098.36L561.265 1097.32L536.125 1138.48L537.832 1139.52ZM562.118 1098.84H567.698V1096.84H562.118V1098.84ZM541.298 1098.9C543.073 1098.9 544.559 1099.52 545.811 1100.77L547.225 1099.35C545.597 1097.72 543.603 1096.9 541.298 1096.9V1098.9ZM545.821 1100.78C547.11 1102.03 547.738 1103.51 547.738 1105.28H549.738C549.738 1102.97 548.886 1100.97 547.215 1099.34L545.821 1100.78ZM547.738 1105.28V1111.4H549.738V1105.28H547.738ZM547.738 1111.4C547.738 1113.17 547.11 1114.65 545.821 1115.9L547.215 1117.34C548.886 1115.71 549.738 1113.71 549.738 1111.4H547.738ZM545.811 1115.91C544.559 1117.16 543.073 1117.78 541.298 1117.78V1119.78C543.603 1119.78 545.597 1118.96 547.225 1117.33L545.811 1115.91ZM541.298 1117.78H539.978V1119.78H541.298V1117.78ZM539.978 1117.78C538.203 1117.78 536.717 1117.16 535.465 1115.91L534.051 1117.33C535.679 1118.96 537.673 1119.78 539.978 1119.78V1117.78ZM535.465 1115.91C534.213 1114.66 533.598 1113.18 533.598 1111.4H531.598C531.598 1113.7 532.423 1115.7 534.051 1117.33L535.465 1115.91ZM533.598 1111.4V1105.28H531.598V1111.4H533.598ZM533.598 1105.28C533.598 1103.5 534.213 1102.02 535.465 1100.77L534.051 1099.35C532.423 1100.98 531.598 1102.98 531.598 1105.28H533.598ZM535.465 1100.77C536.717 1099.52 538.203 1098.9 539.978 1098.9V1096.9C537.673 1096.9 535.679 1097.72 534.051 1099.35L535.465 1100.77ZM539.978 1098.9H541.298V1096.9H539.978V1098.9ZM540.638 1101.16C539.762 1101.16 538.991 1101.49 538.371 1102.11L539.785 1103.53C540.045 1103.27 540.314 1103.16 540.638 1103.16V1101.16ZM538.371 1102.11C537.725 1102.76 537.418 1103.58 537.418 1104.5H539.418C539.418 1104.06 539.551 1103.76 539.785 1103.53L538.371 1102.11ZM537.418 1104.5V1112.12H539.418V1104.5H537.418ZM537.418 1112.12C537.418 1113.04 537.725 1113.86 538.371 1114.51L539.785 1113.09C539.551 1112.86 539.418 1112.56 539.418 1112.12H537.418ZM538.371 1114.51C538.991 1115.13 539.762 1115.46 540.638 1115.46V1113.46C540.314 1113.46 540.045 1113.35 539.785 1113.09L538.371 1114.51ZM540.638 1115.46C541.536 1115.46 542.333 1115.14 542.938 1114.47L541.458 1113.13C541.263 1113.34 541.02 1113.46 540.638 1113.46V1115.46ZM542.905 1114.51C543.551 1113.86 543.858 1113.04 543.858 1112.12H541.858C541.858 1112.56 541.725 1112.86 541.491 1113.09L542.905 1114.51ZM543.858 1112.12V1104.5H541.858V1112.12H543.858ZM543.858 1104.5C543.858 1103.58 543.551 1102.76 542.905 1102.11L541.491 1103.53C541.725 1103.76 541.858 1104.06 541.858 1104.5H543.858ZM542.938 1102.15C542.333 1101.48 541.536 1101.16 540.638 1101.16V1103.16C541.021 1103.16 541.263 1103.28 541.458 1103.49L542.938 1102.15ZM564.698 1119.12C566.473 1119.12 567.959 1119.74 569.211 1120.99L570.625 1119.57C568.997 1117.94 567.003 1117.12 564.698 1117.12V1119.12ZM569.221 1121C570.51 1122.25 571.138 1123.73 571.138 1125.5H573.138C573.138 1123.19 572.286 1121.19 570.615 1119.56L569.221 1121ZM571.138 1125.5V1131.62H573.138V1125.5H571.138ZM571.138 1131.62C571.138 1132.76 570.847 1133.82 570.255 1134.83L571.981 1135.85C572.749 1134.54 573.138 1133.12 573.138 1131.62H571.138ZM570.263 1134.82C569.672 1135.8 568.873 1136.58 567.852 1137.18L568.864 1138.9C570.163 1138.14 571.205 1137.12 571.973 1135.86L570.263 1134.82ZM567.839 1137.19C566.877 1137.77 565.837 1138.06 564.698 1138.06V1140.06C566.2 1140.06 567.599 1139.67 568.877 1138.89L567.839 1137.19ZM564.698 1138.06H563.378V1140.06H564.698V1138.06ZM563.378 1138.06C561.603 1138.06 560.117 1137.44 558.865 1136.19L557.451 1137.61C559.079 1139.24 561.073 1140.06 563.378 1140.06V1138.06ZM558.875 1136.2C557.614 1134.91 556.998 1133.4 556.998 1131.62H554.998C554.998 1133.92 555.822 1135.93 557.441 1137.6L558.875 1136.2ZM556.998 1131.62V1125.5H554.998V1131.62H556.998ZM556.998 1125.5C556.998 1123.72 557.613 1122.24 558.865 1120.99L557.451 1119.57C555.823 1121.2 554.998 1123.2 554.998 1125.5H556.998ZM558.865 1120.99C560.117 1119.74 561.603 1119.12 563.378 1119.12V1117.12C561.073 1117.12 559.079 1117.94 557.451 1119.57L558.865 1120.99ZM563.378 1119.12H564.698V1117.12H563.378V1119.12ZM564.038 1121.38C563.132 1121.38 562.352 1121.76 561.741 1122.42L563.215 1123.78C563.484 1123.48 563.744 1123.38 564.038 1123.38V1121.38ZM561.771 1122.39C561.125 1123.04 560.818 1123.86 560.818 1124.78H562.818C562.818 1124.34 562.951 1124.04 563.185 1123.81L561.771 1122.39ZM560.818 1124.78V1132.4H562.818V1124.78H560.818ZM560.818 1132.4C560.818 1133.29 561.135 1134.09 561.741 1134.76L563.215 1133.4C562.941 1133.11 562.818 1132.79 562.818 1132.4H560.818ZM561.771 1134.79C562.391 1135.41 563.162 1135.74 564.038 1135.74V1133.74C563.714 1133.74 563.445 1133.63 563.185 1133.37L561.771 1134.79ZM564.038 1135.74C564.936 1135.74 565.733 1135.42 566.338 1134.75L564.858 1133.41C564.663 1133.62 564.421 1133.74 564.038 1133.74V1135.74ZM566.335 1134.76C566.941 1134.09 567.258 1133.29 567.258 1132.4H565.258C565.258 1132.79 565.135 1133.11 564.861 1133.4L566.335 1134.76ZM567.258 1132.4V1124.78H565.258V1132.4H567.258ZM567.258 1124.78C567.258 1123.86 566.951 1123.04 566.305 1122.39L564.891 1123.81C565.125 1124.04 565.258 1124.34 565.258 1124.78H567.258ZM566.366 1122.46C565.771 1121.75 564.967 1121.38 564.038 1121.38V1123.38C564.39 1123.38 564.625 1123.49 564.83 1123.74L566.366 1122.46Z" fill="black" mask="url(#path-8-outside-2_683_2)"/>
<path d="M841.333 102C841.333 94.6362 835.364 88.6667 828 88.6667C820.636 88.6667 814.667 94.6362 814.667 102C814.667 109.364 820.636 115.333 828 115.333C835.364 115.333 841.333 109.364 841.333 102ZM578.642 1174V1176.5H580.627L581.077 1174.57L578.642 1174ZM144 1171.5C142.619 1171.5 141.5 1172.62 141.5 1174C141.5 1175.38 142.619 1176.5 144 1176.5V1171.5ZM825.565 101.434L576.207 1173.43L581.077 1174.57L830.435 102.566L825.565 101.434ZM578.642 1171.5L144 1171.5V1176.5L578.642 1176.5V1171.5Z" fill="white"/>
</svg>
