<svg width="1360" height="1360" viewBox="0 0 1360 1360" fill="none" xmlns="http://www.w3.org/2000/svg">
<path d="M680 0C752.809 8.68234e-07 825.145 11.6931 894.245 34.6326L808.547 292.78C767.087 279.016 723.685 272 680 272V0Z" fill="#5F52F1"/>
<path d="M552.582 12.0444C594.582 4.03259 637.244 -8.20618e-05 680.001 1.2524e-09L680.001 272C654.346 272 628.749 274.42 603.549 279.227L552.582 12.0444Z" fill="#01D3EC"/>
<path d="M129.868 280.306C231.53 140.382 382.689 44.4531 552.581 12.0446L603.549 279.227C501.613 298.672 410.918 356.229 349.921 440.184L129.868 280.306Z" fill="#8CC0B9"/>
<path d="M893.729 34.4616C1030.05 79.5968 1148.59 166.731 1232.35 283.375C1316.11 400.02 1360.79 540.187 1359.99 683.786L1087.99 682.272C1088.47 596.112 1061.66 512.012 1011.41 442.025C961.154 372.039 890.032 319.758 808.238 292.677L893.729 34.4616Z" fill="#FFE657"/>
<mask id="path-5-inside-1_669_134" fill="white">
<path d="M1360 680C1360 823.602 1314.54 963.518 1230.13 1079.69L1010.08 919.816C1060.72 850.111 1088 766.161 1088 680H1360Z"/>
</mask>
<path d="M1360 680C1360 823.602 1314.54 963.518 1230.13 1079.69L1010.08 919.816C1060.72 850.111 1088 766.161 1088 680H1360Z" fill="#525775" stroke="#30324F" stroke-width="28" mask="url(#path-5-inside-1_669_134)"/>
<path d="M1230.13 1079.69C1167.06 1166.51 1084.33 1237.17 988.714 1285.88C893.099 1334.6 787.311 1360 680 1360C572.689 1360 466.901 1334.6 371.286 1285.88C275.671 1237.17 192.944 1166.51 129.868 1079.69L349.921 919.816C387.766 971.906 437.403 1014.3 494.772 1043.53C552.141 1072.76 615.613 1088 680 1088C744.387 1088 807.859 1072.76 865.228 1043.53C922.597 1014.3 972.233 971.906 1010.08 919.816L1230.13 1079.69Z" fill="#9F8CC0"/>
<path d="M129.868 1079.69C45.4613 963.518 -2.96727e-05 823.602 0 680C2.96728e-05 536.398 45.4614 396.482 129.869 280.306L349.921 440.183C299.277 509.889 272 593.839 272 680C272 766.161 299.277 850.111 349.921 919.816L129.868 1079.69Z" fill="#FF4059"/>
<mask id="path-8-outside-2_669_134" maskUnits="userSpaceOnUse" x="569" y="1160" width="256" height="45" fill="black">
<rect fill="white" x="569" y="1160" width="256" height="45"/>
<path d="M590.489 1161.24C593.809 1161.24 596.769 1161.9 599.369 1163.22C602.009 1164.5 604.089 1166.46 605.609 1169.1C607.129 1171.7 607.889 1174.9 607.889 1178.7H596.069V1176.6C596.069 1174.76 595.489 1173.3 594.329 1172.22C593.209 1171.14 591.789 1170.6 590.069 1170.6H589.769C588.089 1170.6 586.669 1171.18 585.509 1172.34C584.349 1173.5 583.769 1174.92 583.769 1176.6V1188.18C583.769 1189.86 584.349 1191.28 585.509 1192.44C586.669 1193.6 588.089 1194.18 589.769 1194.18H590.609C592.329 1194.18 593.749 1193.66 594.869 1192.62C596.029 1191.54 596.609 1190.06 596.609 1188.18V1186.2H607.889C607.889 1189.72 607.149 1192.8 605.669 1195.44C604.229 1198.08 602.229 1200.1 599.669 1201.5C597.109 1202.9 594.209 1203.6 590.969 1203.6H589.289C585.729 1203.6 582.489 1202.88 579.569 1201.44C576.689 1200 574.409 1197.92 572.729 1195.2C571.049 1192.48 570.209 1189.28 570.209 1185.6V1179.24C570.209 1175.76 571.049 1172.66 572.729 1169.94C574.449 1167.18 576.729 1165.04 579.569 1163.52C582.409 1162 585.489 1161.24 588.809 1161.24H590.489ZM644.226 1171.32H626.886V1177.32H643.566V1186.5H626.886V1193.16H644.226L645.426 1203H614.526V1161.84H645.426L644.226 1171.32ZM677.383 1181.28L690.283 1203H675.643L668.683 1190.22H668.443L661.543 1203H647.983L660.883 1181.22L649.303 1161.84H663.883L669.583 1172.34H669.823L675.523 1161.84H689.023L677.383 1181.28ZM729.774 1193.82H738.534V1203H708.894V1193.82H718.014V1174.62H708.894V1167.72C711.414 1167.56 714.254 1166.86 717.414 1165.62C720.574 1164.34 723.354 1162.88 725.754 1161.24H729.774V1193.82ZM763.028 1161.24C765.748 1161.24 768.248 1161.92 770.528 1163.28C772.848 1164.6 774.668 1166.42 775.988 1168.74C777.348 1171.02 778.028 1173.52 778.028 1176.24V1188.6C778.028 1191.32 777.348 1193.84 775.988 1196.16C774.668 1198.44 772.848 1200.26 770.528 1201.62C768.248 1202.94 765.748 1203.6 763.028 1203.6H760.328C757.608 1203.6 755.088 1202.94 752.768 1201.62C750.488 1200.26 748.668 1198.44 747.308 1196.16C745.988 1193.84 745.328 1191.32 745.328 1188.6V1176.24C745.328 1173.52 745.988 1171.02 747.308 1168.74C748.668 1166.42 750.488 1164.6 752.768 1163.28C755.088 1161.92 757.608 1161.24 760.328 1161.24H763.028ZM761.708 1169.88C760.428 1169.88 759.348 1170.36 758.468 1171.32C757.628 1172.24 757.208 1173.36 757.208 1174.68V1190.1C757.208 1191.42 757.628 1192.56 758.468 1193.52C759.348 1194.44 760.408 1194.9 761.648 1194.9C762.928 1194.9 763.988 1194.44 764.828 1193.52C765.708 1192.56 766.148 1191.42 766.148 1190.1V1174.68C766.148 1173.36 765.708 1172.24 764.828 1171.32C763.988 1170.36 762.948 1169.88 761.708 1169.88ZM818.662 1161.84L793.642 1203H787.942L813.082 1161.84H818.662ZM792.262 1161.9C794.302 1161.9 796.042 1162.62 797.482 1164.06C798.962 1165.5 799.702 1167.24 799.702 1169.28V1175.4C799.702 1177.44 798.962 1179.18 797.482 1180.62C796.042 1182.06 794.302 1182.78 792.262 1182.78H790.942C788.902 1182.78 787.162 1182.06 785.722 1180.62C784.282 1179.18 783.562 1177.44 783.562 1175.4V1169.28C783.562 1167.24 784.282 1165.5 785.722 1164.06C787.162 1162.62 788.902 1161.9 790.942 1161.9H792.262ZM791.602 1166.16C791.002 1166.16 790.482 1166.38 790.042 1166.82C789.602 1167.26 789.382 1167.82 789.382 1168.5V1176.12C789.382 1176.8 789.602 1177.36 790.042 1177.8C790.482 1178.24 791.002 1178.46 791.602 1178.46C792.242 1178.46 792.762 1178.24 793.162 1177.8C793.602 1177.36 793.822 1176.8 793.822 1176.12V1168.5C793.822 1167.82 793.602 1167.26 793.162 1166.82C792.762 1166.38 792.242 1166.16 791.602 1166.16ZM815.662 1182.12C817.702 1182.12 819.442 1182.84 820.882 1184.28C822.362 1185.72 823.102 1187.46 823.102 1189.5V1195.62C823.102 1196.94 822.762 1198.18 822.082 1199.34C821.402 1200.46 820.482 1201.36 819.322 1202.04C818.202 1202.72 816.982 1203.06 815.662 1203.06H814.342C812.302 1203.06 810.562 1202.34 809.122 1200.9C807.682 1199.42 806.962 1197.66 806.962 1195.62V1189.5C806.962 1187.46 807.682 1185.72 809.122 1184.28C810.562 1182.84 812.302 1182.12 814.342 1182.12H815.662ZM815.002 1186.38C814.402 1186.38 813.882 1186.62 813.442 1187.1C813.002 1187.54 812.782 1188.1 812.782 1188.78V1196.4C812.782 1197.04 813.002 1197.6 813.442 1198.08C813.882 1198.52 814.402 1198.74 815.002 1198.74C815.642 1198.74 816.162 1198.52 816.562 1198.08C817.002 1197.6 817.222 1197.04 817.222 1196.4V1188.78C817.222 1188.1 817.002 1187.54 816.562 1187.1C816.162 1186.62 815.642 1186.38 815.002 1186.38Z"/>
</mask>
<path d="M590.489 1161.24C593.809 1161.24 596.769 1161.9 599.369 1163.22C602.009 1164.5 604.089 1166.46 605.609 1169.1C607.129 1171.7 607.889 1174.9 607.889 1178.7H596.069V1176.6C596.069 1174.76 595.489 1173.3 594.329 1172.22C593.209 1171.14 591.789 1170.6 590.069 1170.6H589.769C588.089 1170.6 586.669 1171.18 585.509 1172.34C584.349 1173.5 583.769 1174.92 583.769 1176.6V1188.18C583.769 1189.86 584.349 1191.28 585.509 1192.44C586.669 1193.6 588.089 1194.18 589.769 1194.18H590.609C592.329 1194.18 593.749 1193.66 594.869 1192.62C596.029 1191.54 596.609 1190.06 596.609 1188.18V1186.2H607.889C607.889 1189.72 607.149 1192.8 605.669 1195.44C604.229 1198.08 602.229 1200.1 599.669 1201.5C597.109 1202.9 594.209 1203.6 590.969 1203.6H589.289C585.729 1203.6 582.489 1202.88 579.569 1201.44C576.689 1200 574.409 1197.92 572.729 1195.2C571.049 1192.48 570.209 1189.28 570.209 1185.6V1179.24C570.209 1175.76 571.049 1172.66 572.729 1169.94C574.449 1167.18 576.729 1165.04 579.569 1163.52C582.409 1162 585.489 1161.24 588.809 1161.24H590.489ZM644.226 1171.32H626.886V1177.32H643.566V1186.5H626.886V1193.16H644.226L645.426 1203H614.526V1161.84H645.426L644.226 1171.32ZM677.383 1181.28L690.283 1203H675.643L668.683 1190.22H668.443L661.543 1203H647.983L660.883 1181.22L649.303 1161.84H663.883L669.583 1172.34H669.823L675.523 1161.84H689.023L677.383 1181.28ZM729.774 1193.82H738.534V1203H708.894V1193.82H718.014V1174.62H708.894V1167.72C711.414 1167.56 714.254 1166.86 717.414 1165.62C720.574 1164.34 723.354 1162.88 725.754 1161.24H729.774V1193.82ZM763.028 1161.24C765.748 1161.24 768.248 1161.92 770.528 1163.28C772.848 1164.6 774.668 1166.42 775.988 1168.74C777.348 1171.02 778.028 1173.52 778.028 1176.24V1188.6C778.028 1191.32 777.348 1193.84 775.988 1196.16C774.668 1198.44 772.848 1200.26 770.528 1201.62C768.248 1202.94 765.748 1203.6 763.028 1203.6H760.328C757.608 1203.6 755.088 1202.94 752.768 1201.62C750.488 1200.26 748.668 1198.44 747.308 1196.16C745.988 1193.84 745.328 1191.32 745.328 1188.6V1176.24C745.328 1173.52 745.988 1171.02 747.308 1168.74C748.668 1166.42 750.488 1164.6 752.768 1163.28C755.088 1161.92 757.608 1161.24 760.328 1161.24H763.028ZM761.708 1169.88C760.428 1169.88 759.348 1170.36 758.468 1171.32C757.628 1172.24 757.208 1173.36 757.208 1174.68V1190.1C757.208 1191.42 757.628 1192.56 758.468 1193.52C759.348 1194.44 760.408 1194.9 761.648 1194.9C762.928 1194.9 763.988 1194.44 764.828 1193.52C765.708 1192.56 766.148 1191.42 766.148 1190.1V1174.68C766.148 1173.36 765.708 1172.24 764.828 1171.32C763.988 1170.36 762.948 1169.88 761.708 1169.88ZM818.662 1161.84L793.642 1203H787.942L813.082 1161.84H818.662ZM792.262 1161.9C794.302 1161.9 796.042 1162.62 797.482 1164.06C798.962 1165.5 799.702 1167.24 799.702 1169.28V1175.4C799.702 1177.44 798.962 1179.18 797.482 1180.62C796.042 1182.06 794.302 1182.78 792.262 1182.78H790.942C788.902 1182.78 787.162 1182.06 785.722 1180.62C784.282 1179.18 783.562 1177.44 783.562 1175.4V1169.28C783.562 1167.24 784.282 1165.5 785.722 1164.06C787.162 1162.62 788.902 1161.9 790.942 1161.9H792.262ZM791.602 1166.16C791.002 1166.16 790.482 1166.38 790.042 1166.82C789.602 1167.26 789.382 1167.82 789.382 1168.5V1176.12C789.382 1176.8 789.602 1177.36 790.042 1177.8C790.482 1178.24 791.002 1178.46 791.602 1178.46C792.242 1178.46 792.762 1178.24 793.162 1177.8C793.602 1177.36 793.822 1176.8 793.822 1176.12V1168.5C793.822 1167.82 793.602 1167.26 793.162 1166.82C792.762 1166.38 792.242 1166.16 791.602 1166.16ZM815.662 1182.12C817.702 1182.12 819.442 1182.84 820.882 1184.28C822.362 1185.72 823.102 1187.46 823.102 1189.5V1195.62C823.102 1196.94 822.762 1198.18 822.082 1199.34C821.402 1200.46 820.482 1201.36 819.322 1202.04C818.202 1202.72 816.982 1203.06 815.662 1203.06H814.342C812.302 1203.06 810.562 1202.34 809.122 1200.9C807.682 1199.42 806.962 1197.66 806.962 1195.62V1189.5C806.962 1187.46 807.682 1185.72 809.122 1184.28C810.562 1182.84 812.302 1182.12 814.342 1182.12H815.662ZM815.002 1186.38C814.402 1186.38 813.882 1186.62 813.442 1187.1C813.002 1187.54 812.782 1188.1 812.782 1188.78V1196.4C812.782 1197.04 813.002 1197.6 813.442 1198.08C813.882 1198.52 814.402 1198.74 815.002 1198.74C815.642 1198.74 816.162 1198.52 816.562 1198.08C817.002 1197.6 817.222 1197.04 817.222 1196.4V1188.78C817.222 1188.1 817.002 1187.54 816.562 1187.1C816.162 1186.62 815.642 1186.38 815.002 1186.38Z" fill="white"/>
<path d="M599.369 1163.22L598.916 1164.11L598.925 1164.12L598.933 1164.12L599.369 1163.22ZM605.609 1169.1L604.742 1169.6L604.746 1169.6L605.609 1169.1ZM607.889 1178.7V1179.7H608.889V1178.7H607.889ZM596.069 1178.7H595.069V1179.7H596.069V1178.7ZM594.329 1172.22L593.635 1172.94L593.641 1172.95L593.648 1172.95L594.329 1172.22ZM585.509 1172.34L584.802 1171.63L584.802 1171.63L585.509 1172.34ZM585.509 1192.44L586.216 1191.73L586.216 1191.73L585.509 1192.44ZM594.869 1192.62L595.55 1193.35L595.55 1193.35L594.869 1192.62ZM596.609 1186.2V1185.2H595.609V1186.2H596.609ZM607.889 1186.2H608.889V1185.2H607.889V1186.2ZM605.669 1195.44L604.797 1194.95L604.791 1194.96L605.669 1195.44ZM599.669 1201.5L599.189 1200.62L599.189 1200.62L599.669 1201.5ZM579.569 1201.44L579.122 1202.33L579.127 1202.34L579.569 1201.44ZM572.729 1195.2L573.58 1194.67L573.58 1194.67L572.729 1195.2ZM572.729 1169.94L571.88 1169.41L571.878 1169.41L572.729 1169.94ZM579.569 1163.52L579.097 1162.64L579.097 1162.64L579.569 1163.52ZM590.489 1162.24C593.674 1162.24 596.475 1162.87 598.916 1164.11L599.822 1162.33C597.063 1160.93 593.944 1160.24 590.489 1160.24V1162.24ZM598.933 1164.12C601.385 1165.31 603.318 1167.13 604.742 1169.6L606.476 1168.6C604.86 1165.79 602.633 1163.69 599.805 1162.32L598.933 1164.12ZM604.746 1169.6C606.156 1172.02 606.889 1175.03 606.889 1178.7H608.889C608.889 1174.77 608.102 1171.38 606.472 1168.6L604.746 1169.6ZM607.889 1177.7H596.069V1179.7H607.889V1177.7ZM597.069 1178.7V1176.6H595.069V1178.7H597.069ZM597.069 1176.6C597.069 1174.53 596.407 1172.79 595.01 1171.49L593.648 1172.95C594.571 1173.81 595.069 1174.99 595.069 1176.6H597.069ZM595.023 1171.5C593.696 1170.22 592.018 1169.6 590.069 1169.6V1171.6C591.56 1171.6 592.722 1172.06 593.635 1172.94L595.023 1171.5ZM590.069 1169.6H589.769V1171.6H590.069V1169.6ZM589.769 1169.6C587.831 1169.6 586.154 1170.28 584.802 1171.63L586.216 1173.05C587.184 1172.08 588.347 1171.6 589.769 1171.6V1169.6ZM584.802 1171.63C583.449 1172.99 582.769 1174.66 582.769 1176.6H584.769C584.769 1175.18 585.249 1174.01 586.216 1173.05L584.802 1171.63ZM582.769 1176.6V1188.18H584.769V1176.6H582.769ZM582.769 1188.18C582.769 1190.12 583.449 1191.79 584.802 1193.15L586.216 1191.73C585.249 1190.77 584.769 1189.6 584.769 1188.18H582.769ZM584.802 1193.15C586.154 1194.5 587.831 1195.18 589.769 1195.18V1193.18C588.347 1193.18 587.184 1192.7 586.216 1191.73L584.802 1193.15ZM589.769 1195.18H590.609V1193.18H589.769V1195.18ZM590.609 1195.18C592.547 1195.18 594.221 1194.59 595.55 1193.35L594.189 1191.89C593.277 1192.73 592.111 1193.18 590.609 1193.18V1195.18ZM595.55 1193.35C596.951 1192.05 597.609 1190.28 597.609 1188.18H595.609C595.609 1189.84 595.107 1191.03 594.188 1191.89L595.55 1193.35ZM597.609 1188.18V1186.2H595.609V1188.18H597.609ZM596.609 1187.2H607.889V1185.2H596.609V1187.2ZM606.889 1186.2C606.889 1189.58 606.18 1192.48 604.797 1194.95L606.541 1195.93C608.118 1193.12 608.889 1189.86 608.889 1186.2H606.889ZM604.791 1194.96C603.44 1197.44 601.576 1199.32 599.189 1200.62L600.149 1202.38C602.882 1200.88 605.018 1198.72 606.547 1195.92L604.791 1194.96ZM599.189 1200.62C596.792 1201.93 594.06 1202.6 590.969 1202.6V1204.6C594.358 1204.6 597.426 1203.87 600.149 1202.38L599.189 1200.62ZM590.969 1202.6H589.289V1204.6H590.969V1202.6ZM589.289 1202.6C585.868 1202.6 582.781 1201.91 580.011 1200.54L579.127 1202.34C582.197 1203.85 585.59 1204.6 589.289 1204.6V1202.6ZM580.016 1200.55C577.301 1199.19 575.161 1197.24 573.58 1194.67L571.878 1195.73C573.657 1198.6 576.077 1200.81 579.122 1202.33L580.016 1200.55ZM573.58 1194.67C572.011 1192.14 571.209 1189.12 571.209 1185.6H569.209C569.209 1189.44 570.087 1192.82 571.878 1195.73L573.58 1194.67ZM571.209 1185.6V1179.24H569.209V1185.6H571.209ZM571.209 1179.24C571.209 1175.93 572.006 1173.01 573.58 1170.47L571.878 1169.41C570.092 1172.31 569.209 1175.59 569.209 1179.24H571.209ZM573.578 1170.47C575.206 1167.86 577.357 1165.84 580.041 1164.4L579.097 1162.64C576.101 1164.24 573.692 1166.5 571.88 1169.41L573.578 1170.47ZM580.041 1164.4C582.731 1162.96 585.648 1162.24 588.809 1162.24V1160.24C585.33 1160.24 582.087 1161.04 579.097 1162.64L580.041 1164.4ZM588.809 1162.24H590.489V1160.24H588.809V1162.24ZM644.226 1171.32V1172.32H645.107L645.218 1171.45L644.226 1171.32ZM626.886 1171.32V1170.32H625.886V1171.32H626.886ZM626.886 1177.32H625.886V1178.32H626.886V1177.32ZM643.566 1177.32H644.566V1176.32H643.566V1177.32ZM643.566 1186.5V1187.5H644.566V1186.5H643.566ZM626.886 1186.5V1185.5H625.886V1186.5H626.886ZM626.886 1193.16H625.886V1194.16H626.886V1193.16ZM644.226 1193.16L645.219 1193.04L645.112 1192.16H644.226V1193.16ZM645.426 1203V1204H646.555L646.419 1202.88L645.426 1203ZM614.526 1203H613.526V1204H614.526V1203ZM614.526 1161.84V1160.84H613.526V1161.84H614.526ZM645.426 1161.84L646.418 1161.97L646.561 1160.84H645.426V1161.84ZM644.226 1170.32H626.886V1172.32H644.226V1170.32ZM625.886 1171.32V1177.32H627.886V1171.32H625.886ZM626.886 1178.32H643.566V1176.32H626.886V1178.32ZM642.566 1177.32V1186.5H644.566V1177.32H642.566ZM643.566 1185.5H626.886V1187.5H643.566V1185.5ZM625.886 1186.5V1193.16H627.886V1186.5H625.886ZM626.886 1194.16H644.226V1192.16H626.886V1194.16ZM643.233 1193.28L644.433 1203.12L646.419 1202.88L645.219 1193.04L643.233 1193.28ZM645.426 1202H614.526V1204H645.426V1202ZM615.526 1203V1161.84H613.526V1203H615.526ZM614.526 1162.84H645.426V1160.84H614.526V1162.84ZM644.434 1161.71L643.234 1171.19L645.218 1171.45L646.418 1161.97L644.434 1161.71ZM677.383 1181.28L676.525 1180.77L676.218 1181.28L676.523 1181.79L677.383 1181.28ZM690.283 1203V1204H692.04L691.142 1202.49L690.283 1203ZM675.643 1203L674.764 1203.48L675.049 1204H675.643V1203ZM668.683 1190.22L669.561 1189.74L669.277 1189.22H668.683V1190.22ZM668.443 1190.22V1189.22H667.846L667.563 1189.74L668.443 1190.22ZM661.543 1203V1204H662.139L662.423 1203.48L661.543 1203ZM647.983 1203L647.122 1202.49L646.228 1204H647.983V1203ZM660.883 1181.22L661.743 1181.73L662.046 1181.22L661.741 1180.71L660.883 1181.22ZM649.303 1161.84V1160.84H647.54L648.444 1162.35L649.303 1161.84ZM663.883 1161.84L664.762 1161.36L664.478 1160.84H663.883V1161.84ZM669.583 1172.34L668.704 1172.82L668.988 1173.34H669.583V1172.34ZM669.823 1172.34V1173.34H670.418L670.702 1172.82L669.823 1172.34ZM675.523 1161.84V1160.84H674.928L674.644 1161.36L675.523 1161.84ZM689.023 1161.84L689.881 1162.35L690.787 1160.84H689.023V1161.84ZM676.523 1181.79L689.423 1203.51L691.142 1202.49L678.242 1180.77L676.523 1181.79ZM690.283 1202H675.643V1204H690.283V1202ZM676.521 1202.52L669.561 1189.74L667.804 1190.7L674.764 1203.48L676.521 1202.52ZM668.683 1189.22H668.443V1191.22H668.683V1189.22ZM667.563 1189.74L660.663 1202.52L662.423 1203.48L669.323 1190.7L667.563 1189.74ZM661.543 1202H647.983V1204H661.543V1202ZM648.843 1203.51L661.743 1181.73L660.022 1180.71L647.122 1202.49L648.843 1203.51ZM661.741 1180.71L650.161 1161.33L648.444 1162.35L660.024 1181.73L661.741 1180.71ZM649.303 1162.84H663.883V1160.84H649.303V1162.84ZM663.004 1162.32L668.704 1172.82L670.462 1171.86L664.762 1161.36L663.004 1162.32ZM669.583 1173.34H669.823V1171.34H669.583V1173.34ZM670.702 1172.82L676.402 1162.32L674.644 1161.36L668.944 1171.86L670.702 1172.82ZM675.523 1162.84H689.023V1160.84H675.523V1162.84ZM688.165 1161.33L676.525 1180.77L678.241 1181.79L689.881 1162.35L688.165 1161.33ZM729.774 1193.82H728.774V1194.82H729.774V1193.82ZM738.534 1193.82H739.534V1192.82H738.534V1193.82ZM738.534 1203V1204H739.534V1203H738.534ZM708.894 1203H707.894V1204H708.894V1203ZM708.894 1193.82V1192.82H707.894V1193.82H708.894ZM718.014 1193.82V1194.82H719.014V1193.82H718.014ZM718.014 1174.62H719.014V1173.62H718.014V1174.62ZM708.894 1174.62H707.894V1175.62H708.894V1174.62ZM708.894 1167.72L708.831 1166.72L707.894 1166.78V1167.72H708.894ZM717.414 1165.62L717.779 1166.55L717.789 1166.55L717.414 1165.62ZM725.754 1161.24V1160.24H725.445L725.19 1160.41L725.754 1161.24ZM729.774 1161.24H730.774V1160.24H729.774V1161.24ZM729.774 1194.82H738.534V1192.82H729.774V1194.82ZM737.534 1193.82V1203H739.534V1193.82H737.534ZM738.534 1202H708.894V1204H738.534V1202ZM709.894 1203V1193.82H707.894V1203H709.894ZM708.894 1194.82H718.014V1192.82H708.894V1194.82ZM719.014 1193.82V1174.62H717.014V1193.82H719.014ZM718.014 1173.62H708.894V1175.62H718.014V1173.62ZM709.894 1174.62V1167.72H707.894V1174.62H709.894ZM708.957 1168.72C711.609 1168.55 714.554 1167.82 717.779 1166.55L717.049 1164.69C713.954 1165.9 711.218 1166.57 708.831 1166.72L708.957 1168.72ZM717.789 1166.55C721.005 1165.24 723.85 1163.75 726.318 1162.07L725.19 1160.41C722.858 1162.01 720.143 1163.44 717.038 1164.69L717.789 1166.55ZM725.754 1162.24H729.774V1160.24H725.754V1162.24ZM728.774 1161.24V1193.82H730.774V1161.24H728.774ZM770.528 1163.28L770.016 1164.14L770.025 1164.14L770.033 1164.15L770.528 1163.28ZM775.988 1168.74L775.119 1169.23L775.124 1169.24L775.129 1169.25L775.988 1168.74ZM775.988 1196.16L775.125 1195.65L775.123 1195.66L775.988 1196.16ZM770.528 1201.62L771.029 1202.49L771.034 1202.48L770.528 1201.62ZM752.768 1201.62L752.256 1202.48L752.265 1202.48L752.273 1202.49L752.768 1201.62ZM747.308 1196.16L746.439 1196.65L746.444 1196.66L746.449 1196.67L747.308 1196.16ZM747.308 1168.74L746.445 1168.23L746.443 1168.24L747.308 1168.74ZM752.768 1163.28L753.269 1164.15L753.274 1164.14L752.768 1163.28ZM758.468 1171.32L757.731 1170.64L757.729 1170.65L758.468 1171.32ZM758.468 1193.52L757.715 1194.18L757.73 1194.2L757.745 1194.21L758.468 1193.52ZM764.828 1193.52L764.091 1192.84L764.089 1192.85L764.828 1193.52ZM764.828 1171.32L764.075 1171.98L764.09 1172L764.105 1172.01L764.828 1171.32ZM763.028 1162.24C765.572 1162.24 767.895 1162.87 770.016 1164.14L771.04 1162.42C768.601 1160.97 765.924 1160.24 763.028 1160.24V1162.24ZM770.033 1164.15C772.197 1165.38 773.888 1167.07 775.119 1169.23L776.857 1168.25C775.448 1165.77 773.499 1163.82 771.022 1162.41L770.033 1164.15ZM775.129 1169.25C776.394 1171.37 777.028 1173.7 777.028 1176.24H779.028C779.028 1173.34 778.302 1170.67 776.847 1168.23L775.129 1169.25ZM777.028 1176.24V1188.6H779.028V1176.24H777.028ZM777.028 1188.6C777.028 1191.14 776.394 1193.49 775.125 1195.65L776.851 1196.67C778.302 1194.19 779.028 1191.5 779.028 1188.6H777.028ZM775.123 1195.66C773.891 1197.79 772.196 1199.48 770.022 1200.76L771.034 1202.48C773.5 1201.04 775.445 1199.09 776.853 1196.66L775.123 1195.66ZM770.027 1200.75C767.904 1201.98 765.578 1202.6 763.028 1202.6V1204.6C765.918 1204.6 768.592 1203.9 771.029 1202.49L770.027 1200.75ZM763.028 1202.6H760.328V1204.6H763.028V1202.6ZM760.328 1202.6C757.778 1202.6 755.429 1201.98 753.262 1200.75L752.273 1202.49C754.747 1203.9 757.438 1204.6 760.328 1204.6V1202.6ZM753.28 1200.76C751.143 1199.49 749.442 1197.79 748.167 1195.65L746.449 1196.67C747.894 1199.09 749.833 1201.03 752.256 1202.48L753.28 1200.76ZM748.177 1195.67C746.945 1193.5 746.328 1191.15 746.328 1188.6H744.328C744.328 1191.49 745.031 1194.18 746.439 1196.65L748.177 1195.67ZM746.328 1188.6V1176.24H744.328V1188.6H746.328ZM746.328 1176.24C746.328 1173.69 746.944 1171.36 748.173 1169.24L746.443 1168.24C745.031 1170.68 744.328 1173.35 744.328 1176.24H746.328ZM748.171 1169.25C749.445 1167.07 751.142 1165.38 753.269 1164.15L752.267 1162.41C749.834 1163.82 747.891 1165.77 746.445 1168.23L748.171 1169.25ZM753.274 1164.14C755.438 1162.87 757.784 1162.24 760.328 1162.24V1160.24C757.432 1160.24 754.737 1160.97 752.262 1162.42L753.274 1164.14ZM760.328 1162.24H763.028V1160.24H760.328V1162.24ZM761.708 1168.88C760.142 1168.88 758.796 1169.48 757.731 1170.64L759.205 1172C759.899 1171.24 760.714 1170.88 761.708 1170.88V1168.88ZM757.729 1170.65C756.711 1171.76 756.208 1173.13 756.208 1174.68H758.208C758.208 1173.59 758.545 1172.72 759.206 1171.99L757.729 1170.65ZM756.208 1174.68V1190.1H758.208V1174.68H756.208ZM756.208 1190.1C756.208 1191.65 756.71 1193.03 757.715 1194.18L759.221 1192.86C758.546 1192.09 758.208 1191.19 758.208 1190.1H756.208ZM757.745 1194.21C758.808 1195.32 760.127 1195.9 761.648 1195.9V1193.9C760.689 1193.9 759.888 1193.56 759.191 1192.83L757.745 1194.21ZM761.648 1195.9C763.2 1195.9 764.531 1195.33 765.566 1194.19L764.089 1192.85C763.445 1193.55 762.656 1193.9 761.648 1193.9V1195.9ZM765.565 1194.2C766.617 1193.05 767.148 1191.67 767.148 1190.1H765.148C765.148 1191.17 764.799 1192.07 764.091 1192.84L765.565 1194.2ZM767.148 1190.1V1174.68H765.148V1190.1H767.148ZM767.148 1174.68C767.148 1173.11 766.616 1171.74 765.551 1170.63L764.105 1172.01C764.8 1172.74 765.148 1173.61 765.148 1174.68H767.148ZM765.581 1170.66C764.557 1169.49 763.246 1168.88 761.708 1168.88V1170.88C762.65 1170.88 763.419 1171.23 764.075 1171.98L765.581 1170.66ZM818.662 1161.84L819.517 1162.36L820.44 1160.84H818.662V1161.84ZM793.642 1203V1204H794.204L794.497 1203.52L793.642 1203ZM787.942 1203L787.089 1202.48L786.159 1204H787.942V1203ZM813.082 1161.84V1160.84H812.521L812.229 1161.32L813.082 1161.84ZM797.482 1164.06L796.775 1164.77L796.785 1164.78L797.482 1164.06ZM797.482 1180.62L796.785 1179.9L796.775 1179.91L797.482 1180.62ZM785.722 1180.62L786.429 1179.91L786.429 1179.91L785.722 1180.62ZM785.722 1164.06L785.015 1163.35L785.015 1163.35L785.722 1164.06ZM790.042 1166.82L789.335 1166.11L789.335 1166.11L790.042 1166.82ZM790.042 1177.8L789.335 1178.51L789.335 1178.51L790.042 1177.8ZM793.162 1177.8L792.455 1177.09L792.438 1177.11L792.422 1177.13L793.162 1177.8ZM793.162 1166.82L792.422 1167.49L792.438 1167.51L792.455 1167.53L793.162 1166.82ZM820.882 1184.28L820.175 1184.99L820.185 1185L820.882 1184.28ZM822.082 1199.34L822.937 1199.86L822.941 1199.85L822.945 1199.85L822.082 1199.34ZM819.322 1202.04L818.816 1201.18L818.81 1201.18L818.803 1201.19L819.322 1202.04ZM809.122 1200.9L808.405 1201.6L808.415 1201.61L809.122 1200.9ZM813.442 1187.1L814.149 1187.81L814.164 1187.79L814.179 1187.78L813.442 1187.1ZM813.442 1198.08L812.705 1198.76L812.72 1198.77L812.735 1198.79L813.442 1198.08ZM816.562 1198.08L815.825 1197.4L815.822 1197.41L816.562 1198.08ZM816.562 1187.1L815.794 1187.74L815.823 1187.78L815.855 1187.81L816.562 1187.1ZM817.808 1161.32L792.788 1202.48L794.497 1203.52L819.517 1162.36L817.808 1161.32ZM793.642 1202H787.942V1204H793.642V1202ZM788.795 1203.52L813.935 1162.36L812.229 1161.32L787.089 1202.48L788.795 1203.52ZM813.082 1162.84H818.662V1160.84H813.082V1162.84ZM792.262 1162.9C794.037 1162.9 795.523 1163.52 796.775 1164.77L798.189 1163.35C796.561 1161.72 794.567 1160.9 792.262 1160.9V1162.9ZM796.785 1164.78C798.074 1166.03 798.702 1167.51 798.702 1169.28H800.702C800.702 1166.97 799.85 1164.97 798.179 1163.34L796.785 1164.78ZM798.702 1169.28V1175.4H800.702V1169.28H798.702ZM798.702 1175.4C798.702 1177.17 798.074 1178.65 796.785 1179.9L798.179 1181.34C799.85 1179.71 800.702 1177.71 800.702 1175.4H798.702ZM796.775 1179.91C795.523 1181.16 794.037 1181.78 792.262 1181.78V1183.78C794.567 1183.78 796.561 1182.96 798.189 1181.33L796.775 1179.91ZM792.262 1181.78H790.942V1183.78H792.262V1181.78ZM790.942 1181.78C789.167 1181.78 787.681 1181.16 786.429 1179.91L785.015 1181.33C786.643 1182.96 788.637 1183.78 790.942 1183.78V1181.78ZM786.429 1179.91C785.177 1178.66 784.562 1177.18 784.562 1175.4H782.562C782.562 1177.7 783.387 1179.7 785.015 1181.33L786.429 1179.91ZM784.562 1175.4V1169.28H782.562V1175.4H784.562ZM784.562 1169.28C784.562 1167.5 785.177 1166.02 786.429 1164.77L785.015 1163.35C783.387 1164.98 782.562 1166.98 782.562 1169.28H784.562ZM786.429 1164.77C787.681 1163.52 789.167 1162.9 790.942 1162.9V1160.9C788.637 1160.9 786.643 1161.72 785.015 1163.35L786.429 1164.77ZM790.942 1162.9H792.262V1160.9H790.942V1162.9ZM791.602 1165.16C790.726 1165.16 789.955 1165.49 789.335 1166.11L790.749 1167.53C791.009 1167.27 791.278 1167.16 791.602 1167.16V1165.16ZM789.335 1166.11C788.689 1166.76 788.382 1167.58 788.382 1168.5H790.382C790.382 1168.06 790.515 1167.76 790.749 1167.53L789.335 1166.11ZM788.382 1168.5V1176.12H790.382V1168.5H788.382ZM788.382 1176.12C788.382 1177.04 788.689 1177.86 789.335 1178.51L790.749 1177.09C790.515 1176.86 790.382 1176.56 790.382 1176.12H788.382ZM789.335 1178.51C789.955 1179.13 790.726 1179.46 791.602 1179.46V1177.46C791.278 1177.46 791.009 1177.35 790.749 1177.09L789.335 1178.51ZM791.602 1179.46C792.5 1179.46 793.297 1179.14 793.902 1178.47L792.422 1177.13C792.227 1177.34 791.984 1177.46 791.602 1177.46V1179.46ZM793.869 1178.51C794.515 1177.86 794.822 1177.04 794.822 1176.12H792.822C792.822 1176.56 792.689 1176.86 792.455 1177.09L793.869 1178.51ZM794.822 1176.12V1168.5H792.822V1176.12H794.822ZM794.822 1168.5C794.822 1167.58 794.515 1166.76 793.869 1166.11L792.455 1167.53C792.689 1167.76 792.822 1168.06 792.822 1168.5H794.822ZM793.902 1166.15C793.297 1165.48 792.5 1165.16 791.602 1165.16V1167.16C791.984 1167.16 792.227 1167.28 792.422 1167.49L793.902 1166.15ZM815.662 1183.12C817.437 1183.12 818.923 1183.74 820.175 1184.99L821.589 1183.57C819.961 1181.94 817.967 1181.12 815.662 1181.12V1183.12ZM820.185 1185C821.474 1186.25 822.102 1187.73 822.102 1189.5H824.102C824.102 1187.19 823.25 1185.19 821.579 1183.56L820.185 1185ZM822.102 1189.5V1195.62H824.102V1189.5H822.102ZM822.102 1195.62C822.102 1196.76 821.811 1197.82 821.219 1198.83L822.945 1199.85C823.713 1198.54 824.102 1197.12 824.102 1195.62H822.102ZM821.227 1198.82C820.636 1199.8 819.837 1200.58 818.816 1201.18L819.828 1202.9C821.127 1202.14 822.168 1201.12 822.937 1199.86L821.227 1198.82ZM818.803 1201.19C817.841 1201.77 816.8 1202.06 815.662 1202.06V1204.06C817.164 1204.06 818.563 1203.67 819.841 1202.89L818.803 1201.19ZM815.662 1202.06H814.342V1204.06H815.662V1202.06ZM814.342 1202.06C812.567 1202.06 811.081 1201.44 809.829 1200.19L808.415 1201.61C810.043 1203.24 812.037 1204.06 814.342 1204.06V1202.06ZM809.839 1200.2C808.578 1198.91 807.962 1197.4 807.962 1195.62H805.962C805.962 1197.92 806.786 1199.93 808.405 1201.6L809.839 1200.2ZM807.962 1195.62V1189.5H805.962V1195.62H807.962ZM807.962 1189.5C807.962 1187.72 808.577 1186.24 809.829 1184.99L808.415 1183.57C806.787 1185.2 805.962 1187.2 805.962 1189.5H807.962ZM809.829 1184.99C811.081 1183.74 812.567 1183.12 814.342 1183.12V1181.12C812.037 1181.12 810.043 1181.94 808.415 1183.57L809.829 1184.99ZM814.342 1183.12H815.662V1181.12H814.342V1183.12ZM815.002 1185.38C814.096 1185.38 813.316 1185.76 812.705 1186.42L814.179 1187.78C814.448 1187.48 814.708 1187.38 815.002 1187.38V1185.38ZM812.735 1186.39C812.089 1187.04 811.782 1187.86 811.782 1188.78H813.782C813.782 1188.34 813.915 1188.04 814.149 1187.81L812.735 1186.39ZM811.782 1188.78V1196.4H813.782V1188.78H811.782ZM811.782 1196.4C811.782 1197.29 812.099 1198.09 812.705 1198.76L814.179 1197.4C813.905 1197.11 813.782 1196.79 813.782 1196.4H811.782ZM812.735 1198.79C813.355 1199.41 814.126 1199.74 815.002 1199.74V1197.74C814.678 1197.74 814.409 1197.63 814.149 1197.37L812.735 1198.79ZM815.002 1199.74C815.9 1199.74 816.697 1199.42 817.302 1198.75L815.822 1197.41C815.627 1197.62 815.384 1197.74 815.002 1197.74V1199.74ZM817.299 1198.76C817.905 1198.09 818.222 1197.29 818.222 1196.4H816.222C816.222 1196.79 816.099 1197.11 815.825 1197.4L817.299 1198.76ZM818.222 1196.4V1188.78H816.222V1196.4H818.222ZM818.222 1188.78C818.222 1187.86 817.915 1187.04 817.269 1186.39L815.855 1187.81C816.089 1188.04 816.222 1188.34 816.222 1188.78H818.222ZM817.33 1186.46C816.735 1185.75 815.93 1185.38 815.002 1185.38V1187.38C815.354 1187.38 815.589 1187.49 815.794 1187.74L817.33 1186.46Z" fill="black" mask="url(#path-8-outside-2_669_134)"/>
<path d="M1211.33 876C1211.33 868.636 1205.36 862.667 1198 862.667C1190.64 862.667 1184.67 868.636 1184.67 876C1184.67 883.364 1190.64 889.333 1198 889.333C1205.36 889.333 1211.33 883.364 1211.33 876ZM925.311 1259V1261.5H926.599L927.347 1260.45L925.311 1259ZM450 1256.5C448.619 1256.5 447.5 1257.62 447.5 1259C447.5 1260.38 448.619 1261.5 450 1261.5V1256.5ZM1195.96 874.55L923.274 1257.55L927.347 1260.45L1200.04 877.45L1195.96 874.55ZM925.311 1256.5H450V1261.5H925.311V1256.5Z" fill="white"/>
</svg>
