<svg width="1360" height="1360" viewBox="0 0 1360 1360" fill="none" xmlns="http://www.w3.org/2000/svg">
<path d="M680 0C752.809 8.68234e-07 825.145 11.6931 894.245 34.6326L808.547 292.78C767.087 279.016 723.685 272 680 272V0Z" fill="#5F52F1"/>
<path d="M552.582 12.0444C594.582 4.03259 637.244 -8.20618e-05 680.001 1.2524e-09L680.001 272C654.346 272 628.749 274.42 603.549 279.227L552.582 12.0444Z" fill="#01D3EC"/>
<mask id="path-3-inside-1_681_2" fill="white">
<path d="M129.868 280.306C231.53 140.382 382.689 44.4531 552.581 12.0446L603.549 279.227C501.613 298.672 410.918 356.229 349.921 440.184L129.868 280.306Z"/>
</mask>
<path d="M129.868 280.306C231.53 140.382 382.689 44.4531 552.581 12.0446L603.549 279.227C501.613 298.672 410.918 356.229 349.921 440.184L129.868 280.306Z" fill="#8CC0B9" stroke="#30324F" stroke-width="28" mask="url(#path-3-inside-1_681_2)"/>
<path d="M893.729 34.4616C1030.05 79.5968 1148.59 166.731 1232.35 283.375C1316.11 400.02 1360.79 540.187 1359.99 683.786L1087.99 682.272C1088.47 596.112 1061.66 512.012 1011.41 442.025C961.154 372.039 890.032 319.758 808.238 292.677L893.729 34.4616Z" fill="#FFE657"/>
<path d="M1360 680C1360 823.602 1314.54 963.518 1230.13 1079.69L1010.08 919.816C1060.72 850.111 1088 766.161 1088 680H1360Z" fill="#525775"/>
<path d="M1230.13 1079.69C1167.06 1166.51 1084.33 1237.17 988.714 1285.88C893.099 1334.6 787.311 1360 680 1360C572.689 1360 466.901 1334.6 371.286 1285.88C275.671 1237.17 192.944 1166.51 129.868 1079.69L349.921 919.816C387.766 971.906 437.403 1014.3 494.772 1043.53C552.141 1072.76 615.613 1088 680 1088C744.387 1088 807.859 1072.76 865.228 1043.53C922.597 1014.3 972.233 971.906 1010.08 919.816L1230.13 1079.69Z" fill="#9F8CC0"/>
<path d="M129.868 1079.69C45.4613 963.518 -2.96727e-05 823.602 0 680C2.96728e-05 536.398 45.4614 396.482 129.869 280.306L349.921 440.183C299.277 509.889 272 593.839 272 680C272 766.161 299.277 850.111 349.921 919.816L129.868 1079.69Z" fill="#FF4059"/>
<mask id="path-8-outside-2_681_2" maskUnits="userSpaceOnUse" x="664.07" y="1147.03" width="363" height="47" fill="black">
<rect fill="white" x="664.07" y="1147.03" width="363" height="47"/>
<path d="M685.943 1150.27C688.903 1150.27 691.663 1150.91 694.223 1152.19C696.783 1153.47 698.823 1155.25 700.343 1157.53C701.863 1159.81 702.623 1162.39 702.623 1165.27V1165.69H690.983C690.983 1163.65 690.423 1162.13 689.303 1161.13C688.183 1160.13 686.743 1159.63 684.983 1159.63H684.683C683.003 1159.63 681.583 1160.21 680.423 1161.37C679.263 1162.53 678.683 1163.95 678.683 1165.63V1177.21C678.683 1178.89 679.263 1180.31 680.423 1181.47C681.583 1182.63 683.003 1183.21 684.683 1183.21H685.763C687.443 1183.21 688.723 1182.69 689.603 1181.65C690.523 1180.57 690.983 1179.07 690.983 1177.15H684.023V1168.99H702.623V1183.39C702.623 1186.55 702.683 1188.63 702.803 1189.63L703.043 1192.03H696.323L694.643 1187.65C693.363 1189.09 691.623 1190.29 689.423 1191.25C687.263 1192.17 685.083 1192.63 682.883 1192.63H682.283C679.043 1192.63 676.103 1191.83 673.463 1190.23C670.863 1188.63 668.823 1186.45 667.343 1183.69C665.863 1180.93 665.123 1177.91 665.123 1174.63V1168.27C665.123 1164.95 665.923 1161.93 667.523 1159.21C669.163 1156.45 671.443 1154.27 674.363 1152.67C677.283 1151.07 680.583 1150.27 684.263 1150.27H685.943ZM725.736 1160.77C730.376 1160.77 733.916 1161.67 736.356 1163.47C738.836 1165.27 740.076 1167.61 740.076 1170.49V1183.15C740.076 1183.91 740.256 1184.47 740.616 1184.83C740.976 1185.19 741.416 1185.37 741.936 1185.37C742.696 1185.37 743.396 1185.19 744.036 1184.83V1191.25C742.756 1192.17 740.736 1192.63 737.976 1192.63C735.416 1192.63 733.396 1192.21 731.916 1191.37C730.436 1190.49 729.516 1189.29 729.156 1187.77C727.876 1189.25 726.456 1190.43 724.896 1191.31C723.376 1192.19 721.496 1192.63 719.256 1192.63C716.056 1192.63 713.456 1192.01 711.456 1190.77C709.456 1189.53 708.456 1187.09 708.456 1183.45C708.456 1180.69 709.236 1178.57 710.796 1177.09C712.356 1175.57 714.576 1174.53 717.456 1173.97C720.376 1173.37 724.076 1173.07 728.556 1173.07V1171.33C728.556 1170.21 728.176 1169.33 727.416 1168.69C726.696 1168.05 725.776 1167.73 724.656 1167.73C723.736 1167.73 722.856 1168.01 722.016 1168.57C721.216 1169.09 720.816 1169.75 720.816 1170.55V1170.79H709.416C709.376 1170.67 709.356 1170.39 709.356 1169.95C709.356 1168.23 709.936 1166.69 711.096 1165.33C712.296 1163.93 713.976 1162.83 716.136 1162.03C718.336 1161.19 720.876 1160.77 723.756 1160.77H725.736ZM728.556 1178.53C725.916 1178.53 723.976 1178.89 722.736 1179.61C721.496 1180.29 720.876 1181.25 720.876 1182.49C720.876 1184.41 722.076 1185.37 724.476 1185.37C725.596 1185.37 726.556 1184.99 727.356 1184.23C728.156 1183.43 728.556 1182.41 728.556 1181.17V1178.53ZM786.698 1160.77C788.338 1160.77 789.838 1161.17 791.198 1161.97C792.598 1162.77 793.698 1163.87 794.498 1165.27C795.298 1166.63 795.698 1168.13 795.698 1169.77V1192.03H784.058V1172.59C784.058 1171.63 783.778 1170.85 783.218 1170.25C782.698 1169.61 782.018 1169.29 781.178 1169.29C780.338 1169.29 779.638 1169.61 779.078 1170.25C778.558 1170.85 778.298 1171.63 778.298 1172.59V1192.03H766.658V1172.59C766.658 1171.63 766.378 1170.85 765.818 1170.25C765.298 1169.61 764.618 1169.29 763.778 1169.29C762.938 1169.29 762.238 1169.61 761.678 1170.25C761.158 1170.85 760.898 1171.63 760.898 1172.59V1192.03H749.258V1161.37H758.138L759.398 1165.81C761.998 1162.45 764.758 1160.77 767.678 1160.77H769.298C770.978 1160.77 772.518 1161.19 773.918 1162.03C775.318 1162.87 776.398 1164.01 777.158 1165.45C777.998 1164.01 779.098 1162.87 780.458 1162.03C781.858 1161.19 783.398 1160.77 785.078 1160.77H786.698ZM819.823 1160.77C822.903 1160.77 825.543 1161.37 827.743 1162.57C829.983 1163.73 831.683 1165.35 832.843 1167.43C834.043 1169.51 834.643 1171.89 834.643 1174.57V1178.29H814.663V1181.17C814.663 1182.53 815.083 1183.57 815.923 1184.29C816.803 1185.01 817.923 1185.37 819.283 1185.37C820.683 1185.37 821.743 1184.95 822.463 1184.11C823.223 1183.23 823.603 1182.03 823.603 1180.51H834.583C834.583 1182.79 833.983 1184.85 832.783 1186.69C831.623 1188.53 829.903 1189.99 827.623 1191.07C825.383 1192.11 822.723 1192.63 819.643 1192.63H818.743C815.543 1192.63 812.663 1192.05 810.103 1190.89C807.583 1189.69 805.583 1187.97 804.103 1185.73C802.663 1183.45 801.943 1180.75 801.943 1177.63V1175.77C801.943 1172.65 802.623 1169.97 803.983 1167.73C805.383 1165.45 807.323 1163.73 809.803 1162.57C812.283 1161.37 815.123 1160.77 818.323 1160.77H819.823ZM818.803 1168.03C817.643 1168.03 816.663 1168.45 815.863 1169.29C815.063 1170.09 814.663 1171.07 814.663 1172.23V1173.07H822.943V1172.23C822.943 1171.07 822.543 1170.09 821.743 1169.29C820.943 1168.45 819.963 1168.03 818.803 1168.03ZM870.138 1160.65H853.878V1167.37H868.998V1176.61H853.878V1192.03H841.578V1150.87H871.338L870.138 1160.65ZM888.47 1157.41H876.65V1148.83H888.47V1157.41ZM888.47 1192.03H876.65V1161.43H888.47V1192.03ZM931.865 1182.85H940.625V1192.03H910.985V1182.85H920.105V1163.65H910.985V1156.75C913.505 1156.59 916.345 1155.89 919.505 1154.65C922.665 1153.37 925.445 1151.91 927.845 1150.27H931.865V1182.85ZM964.759 1150.27C967.679 1150.27 970.239 1150.85 972.439 1152.01C974.679 1153.13 976.399 1154.69 977.599 1156.69C978.839 1158.69 979.459 1160.99 979.459 1163.59C979.459 1166.47 978.719 1168.95 977.239 1171.03C975.759 1173.07 973.439 1175.19 970.279 1177.39L963.739 1181.95H979.519V1192.03H947.419V1189.87C947.419 1187.55 947.779 1185.59 948.499 1183.99C949.219 1182.39 950.459 1180.89 952.219 1179.49L964.099 1170.13C966.259 1168.41 967.339 1166.31 967.339 1163.83C967.339 1162.67 966.919 1161.69 966.079 1160.89C965.279 1160.05 964.299 1159.63 963.139 1159.63H962.359C961.199 1159.63 960.199 1160.03 959.359 1160.83C958.559 1161.63 958.159 1162.63 958.159 1163.83V1165.51H947.599V1164.37C947.599 1161.73 948.199 1159.35 949.399 1157.23C950.599 1155.07 952.359 1153.37 954.679 1152.13C956.999 1150.89 959.739 1150.27 962.899 1150.27H964.759ZM1020.75 1150.87L995.733 1192.03H990.033L1015.17 1150.87H1020.75ZM994.353 1150.93C996.393 1150.93 998.133 1151.65 999.573 1153.09C1001.05 1154.53 1001.79 1156.27 1001.79 1158.31V1164.43C1001.79 1166.47 1001.05 1168.21 999.573 1169.65C998.133 1171.09 996.393 1171.81 994.353 1171.81H993.033C990.993 1171.81 989.253 1171.09 987.813 1169.65C986.373 1168.21 985.653 1166.47 985.653 1164.43V1158.31C985.653 1156.27 986.373 1154.53 987.813 1153.09C989.253 1151.65 990.993 1150.93 993.033 1150.93H994.353ZM993.693 1155.19C993.093 1155.19 992.573 1155.41 992.133 1155.85C991.693 1156.29 991.473 1156.85 991.473 1157.53V1165.15C991.473 1165.83 991.693 1166.39 992.133 1166.83C992.573 1167.27 993.093 1167.49 993.693 1167.49C994.333 1167.49 994.853 1167.27 995.253 1166.83C995.693 1166.39 995.913 1165.83 995.913 1165.15V1157.53C995.913 1156.85 995.693 1156.29 995.253 1155.85C994.853 1155.41 994.333 1155.19 993.693 1155.19ZM1017.75 1171.15C1019.79 1171.15 1021.53 1171.87 1022.97 1173.31C1024.45 1174.75 1025.19 1176.49 1025.19 1178.53V1184.65C1025.19 1185.97 1024.85 1187.21 1024.17 1188.37C1023.49 1189.49 1022.57 1190.39 1021.41 1191.07C1020.29 1191.75 1019.07 1192.09 1017.75 1192.09H1016.43C1014.39 1192.09 1012.65 1191.37 1011.21 1189.93C1009.77 1188.45 1009.05 1186.69 1009.05 1184.65V1178.53C1009.05 1176.49 1009.77 1174.75 1011.21 1173.31C1012.65 1171.87 1014.39 1171.15 1016.43 1171.15H1017.75ZM1017.09 1175.41C1016.49 1175.41 1015.97 1175.65 1015.53 1176.13C1015.09 1176.57 1014.87 1177.13 1014.87 1177.81V1185.43C1014.87 1186.07 1015.09 1186.63 1015.53 1187.11C1015.97 1187.55 1016.49 1187.77 1017.09 1187.77C1017.73 1187.77 1018.25 1187.55 1018.65 1187.11C1019.09 1186.63 1019.31 1186.07 1019.31 1185.43V1177.81C1019.31 1177.13 1019.09 1176.57 1018.65 1176.13C1018.25 1175.65 1017.73 1175.41 1017.09 1175.41Z"/>
</mask>
<path d="M685.943 1150.27C688.903 1150.27 691.663 1150.91 694.223 1152.19C696.783 1153.47 698.823 1155.25 700.343 1157.53C701.863 1159.81 702.623 1162.39 702.623 1165.27V1165.69H690.983C690.983 1163.65 690.423 1162.13 689.303 1161.13C688.183 1160.13 686.743 1159.63 684.983 1159.63H684.683C683.003 1159.63 681.583 1160.21 680.423 1161.37C679.263 1162.53 678.683 1163.95 678.683 1165.63V1177.21C678.683 1178.89 679.263 1180.31 680.423 1181.47C681.583 1182.63 683.003 1183.21 684.683 1183.21H685.763C687.443 1183.21 688.723 1182.69 689.603 1181.65C690.523 1180.57 690.983 1179.07 690.983 1177.15H684.023V1168.99H702.623V1183.39C702.623 1186.55 702.683 1188.63 702.803 1189.63L703.043 1192.03H696.323L694.643 1187.65C693.363 1189.09 691.623 1190.29 689.423 1191.25C687.263 1192.17 685.083 1192.63 682.883 1192.63H682.283C679.043 1192.63 676.103 1191.83 673.463 1190.23C670.863 1188.63 668.823 1186.45 667.343 1183.69C665.863 1180.93 665.123 1177.91 665.123 1174.63V1168.27C665.123 1164.95 665.923 1161.93 667.523 1159.21C669.163 1156.45 671.443 1154.27 674.363 1152.67C677.283 1151.07 680.583 1150.27 684.263 1150.27H685.943ZM725.736 1160.77C730.376 1160.77 733.916 1161.67 736.356 1163.47C738.836 1165.27 740.076 1167.61 740.076 1170.49V1183.15C740.076 1183.91 740.256 1184.47 740.616 1184.83C740.976 1185.19 741.416 1185.37 741.936 1185.37C742.696 1185.37 743.396 1185.19 744.036 1184.83V1191.25C742.756 1192.17 740.736 1192.63 737.976 1192.63C735.416 1192.63 733.396 1192.21 731.916 1191.37C730.436 1190.49 729.516 1189.29 729.156 1187.77C727.876 1189.25 726.456 1190.43 724.896 1191.31C723.376 1192.19 721.496 1192.63 719.256 1192.63C716.056 1192.63 713.456 1192.01 711.456 1190.77C709.456 1189.53 708.456 1187.09 708.456 1183.45C708.456 1180.69 709.236 1178.57 710.796 1177.09C712.356 1175.57 714.576 1174.53 717.456 1173.97C720.376 1173.37 724.076 1173.07 728.556 1173.07V1171.33C728.556 1170.21 728.176 1169.33 727.416 1168.69C726.696 1168.05 725.776 1167.73 724.656 1167.73C723.736 1167.73 722.856 1168.01 722.016 1168.57C721.216 1169.09 720.816 1169.75 720.816 1170.55V1170.79H709.416C709.376 1170.67 709.356 1170.39 709.356 1169.95C709.356 1168.23 709.936 1166.69 711.096 1165.33C712.296 1163.93 713.976 1162.83 716.136 1162.03C718.336 1161.19 720.876 1160.77 723.756 1160.77H725.736ZM728.556 1178.53C725.916 1178.53 723.976 1178.89 722.736 1179.61C721.496 1180.29 720.876 1181.25 720.876 1182.49C720.876 1184.41 722.076 1185.37 724.476 1185.37C725.596 1185.37 726.556 1184.99 727.356 1184.23C728.156 1183.43 728.556 1182.41 728.556 1181.17V1178.53ZM786.698 1160.77C788.338 1160.77 789.838 1161.17 791.198 1161.97C792.598 1162.77 793.698 1163.87 794.498 1165.27C795.298 1166.63 795.698 1168.13 795.698 1169.77V1192.03H784.058V1172.59C784.058 1171.63 783.778 1170.85 783.218 1170.25C782.698 1169.61 782.018 1169.29 781.178 1169.29C780.338 1169.29 779.638 1169.61 779.078 1170.25C778.558 1170.85 778.298 1171.63 778.298 1172.59V1192.03H766.658V1172.59C766.658 1171.63 766.378 1170.85 765.818 1170.25C765.298 1169.61 764.618 1169.29 763.778 1169.29C762.938 1169.29 762.238 1169.61 761.678 1170.25C761.158 1170.85 760.898 1171.63 760.898 1172.59V1192.03H749.258V1161.37H758.138L759.398 1165.81C761.998 1162.45 764.758 1160.77 767.678 1160.77H769.298C770.978 1160.77 772.518 1161.19 773.918 1162.03C775.318 1162.87 776.398 1164.01 777.158 1165.45C777.998 1164.01 779.098 1162.87 780.458 1162.03C781.858 1161.19 783.398 1160.77 785.078 1160.77H786.698ZM819.823 1160.77C822.903 1160.77 825.543 1161.37 827.743 1162.57C829.983 1163.73 831.683 1165.35 832.843 1167.43C834.043 1169.51 834.643 1171.89 834.643 1174.57V1178.29H814.663V1181.17C814.663 1182.53 815.083 1183.57 815.923 1184.29C816.803 1185.01 817.923 1185.37 819.283 1185.37C820.683 1185.37 821.743 1184.95 822.463 1184.11C823.223 1183.23 823.603 1182.03 823.603 1180.51H834.583C834.583 1182.79 833.983 1184.85 832.783 1186.69C831.623 1188.53 829.903 1189.99 827.623 1191.07C825.383 1192.11 822.723 1192.63 819.643 1192.63H818.743C815.543 1192.63 812.663 1192.05 810.103 1190.89C807.583 1189.69 805.583 1187.97 804.103 1185.73C802.663 1183.45 801.943 1180.75 801.943 1177.63V1175.77C801.943 1172.65 802.623 1169.97 803.983 1167.73C805.383 1165.45 807.323 1163.73 809.803 1162.57C812.283 1161.37 815.123 1160.77 818.323 1160.77H819.823ZM818.803 1168.03C817.643 1168.03 816.663 1168.45 815.863 1169.29C815.063 1170.09 814.663 1171.07 814.663 1172.23V1173.07H822.943V1172.23C822.943 1171.07 822.543 1170.09 821.743 1169.29C820.943 1168.45 819.963 1168.03 818.803 1168.03ZM870.138 1160.65H853.878V1167.37H868.998V1176.61H853.878V1192.03H841.578V1150.87H871.338L870.138 1160.65ZM888.47 1157.41H876.65V1148.83H888.47V1157.41ZM888.47 1192.03H876.65V1161.43H888.47V1192.03ZM931.865 1182.85H940.625V1192.03H910.985V1182.85H920.105V1163.65H910.985V1156.75C913.505 1156.59 916.345 1155.89 919.505 1154.65C922.665 1153.37 925.445 1151.91 927.845 1150.27H931.865V1182.85ZM964.759 1150.27C967.679 1150.27 970.239 1150.85 972.439 1152.01C974.679 1153.13 976.399 1154.69 977.599 1156.69C978.839 1158.69 979.459 1160.99 979.459 1163.59C979.459 1166.47 978.719 1168.95 977.239 1171.03C975.759 1173.07 973.439 1175.19 970.279 1177.39L963.739 1181.95H979.519V1192.03H947.419V1189.87C947.419 1187.55 947.779 1185.59 948.499 1183.99C949.219 1182.39 950.459 1180.89 952.219 1179.49L964.099 1170.13C966.259 1168.41 967.339 1166.31 967.339 1163.83C967.339 1162.67 966.919 1161.69 966.079 1160.89C965.279 1160.05 964.299 1159.63 963.139 1159.63H962.359C961.199 1159.63 960.199 1160.03 959.359 1160.83C958.559 1161.63 958.159 1162.63 958.159 1163.83V1165.51H947.599V1164.37C947.599 1161.73 948.199 1159.35 949.399 1157.23C950.599 1155.07 952.359 1153.37 954.679 1152.13C956.999 1150.89 959.739 1150.27 962.899 1150.27H964.759ZM1020.75 1150.87L995.733 1192.03H990.033L1015.17 1150.87H1020.75ZM994.353 1150.93C996.393 1150.93 998.133 1151.65 999.573 1153.09C1001.05 1154.53 1001.79 1156.27 1001.79 1158.31V1164.43C1001.79 1166.47 1001.05 1168.21 999.573 1169.65C998.133 1171.09 996.393 1171.81 994.353 1171.81H993.033C990.993 1171.81 989.253 1171.09 987.813 1169.65C986.373 1168.21 985.653 1166.47 985.653 1164.43V1158.31C985.653 1156.27 986.373 1154.53 987.813 1153.09C989.253 1151.65 990.993 1150.93 993.033 1150.93H994.353ZM993.693 1155.19C993.093 1155.19 992.573 1155.41 992.133 1155.85C991.693 1156.29 991.473 1156.85 991.473 1157.53V1165.15C991.473 1165.83 991.693 1166.39 992.133 1166.83C992.573 1167.27 993.093 1167.49 993.693 1167.49C994.333 1167.49 994.853 1167.27 995.253 1166.83C995.693 1166.39 995.913 1165.83 995.913 1165.15V1157.53C995.913 1156.85 995.693 1156.29 995.253 1155.85C994.853 1155.41 994.333 1155.19 993.693 1155.19ZM1017.75 1171.15C1019.79 1171.15 1021.53 1171.87 1022.97 1173.31C1024.45 1174.75 1025.19 1176.49 1025.19 1178.53V1184.65C1025.19 1185.97 1024.85 1187.21 1024.17 1188.37C1023.49 1189.49 1022.57 1190.39 1021.41 1191.07C1020.29 1191.75 1019.07 1192.09 1017.75 1192.09H1016.43C1014.39 1192.09 1012.65 1191.37 1011.21 1189.93C1009.77 1188.45 1009.05 1186.69 1009.05 1184.65V1178.53C1009.05 1176.49 1009.77 1174.75 1011.21 1173.31C1012.65 1171.87 1014.39 1171.15 1016.43 1171.15H1017.75ZM1017.09 1175.41C1016.49 1175.41 1015.97 1175.65 1015.53 1176.13C1015.09 1176.57 1014.87 1177.13 1014.87 1177.81V1185.43C1014.87 1186.07 1015.09 1186.63 1015.53 1187.11C1015.97 1187.55 1016.49 1187.77 1017.09 1187.77C1017.73 1187.77 1018.25 1187.55 1018.65 1187.11C1019.09 1186.63 1019.31 1186.07 1019.31 1185.43V1177.81C1019.31 1177.13 1019.09 1176.57 1018.65 1176.13C1018.25 1175.65 1017.73 1175.41 1017.09 1175.41Z" fill="white"/>
<path d="M700.343 1157.53L701.175 1156.97L701.175 1156.97L700.343 1157.53ZM702.623 1165.69V1166.69H703.623V1165.69H702.623ZM690.983 1165.69H689.983V1166.69H690.983V1165.69ZM689.303 1161.13L689.969 1160.38L689.969 1160.38L689.303 1161.13ZM680.423 1161.37L679.716 1160.66L679.716 1160.66L680.423 1161.37ZM680.423 1181.47L681.13 1180.76L681.13 1180.76L680.423 1181.47ZM689.603 1181.65L688.842 1181L688.84 1181L689.603 1181.65ZM690.983 1177.15H691.983V1176.15H690.983V1177.15ZM684.023 1177.15H683.023V1178.15H684.023V1177.15ZM684.023 1168.99V1167.99H683.023V1168.99H684.023ZM702.623 1168.99H703.623V1167.99H702.623V1168.99ZM702.803 1189.63L703.798 1189.53L703.797 1189.52L703.796 1189.51L702.803 1189.63ZM703.043 1192.03V1193.03H704.148L704.038 1191.93L703.043 1192.03ZM696.323 1192.03L695.389 1192.39L695.636 1193.03H696.323V1192.03ZM694.643 1187.65L695.577 1187.29L694.988 1185.76L693.896 1186.98L694.643 1187.65ZM689.423 1191.25L689.815 1192.17L689.823 1192.17L689.423 1191.25ZM673.463 1190.23L672.939 1191.08L672.945 1191.08L673.463 1190.23ZM667.343 1183.69L668.224 1183.22L668.224 1183.22L667.343 1183.69ZM667.523 1159.21L666.663 1158.7L666.661 1158.7L667.523 1159.21ZM674.363 1152.67L674.844 1153.55L674.844 1153.55L674.363 1152.67ZM685.943 1151.27C688.753 1151.27 691.36 1151.88 693.776 1153.08L694.67 1151.29C691.967 1149.94 689.053 1149.27 685.943 1149.27V1151.27ZM693.776 1153.08C696.187 1154.29 698.092 1155.95 699.511 1158.08L701.175 1156.97C699.554 1154.54 697.379 1152.65 694.67 1151.29L693.776 1153.08ZM699.511 1158.08C700.916 1160.19 701.623 1162.58 701.623 1165.27H703.623C703.623 1162.2 702.81 1159.43 701.175 1156.97L699.511 1158.08ZM701.623 1165.27V1165.69H703.623V1165.27H701.623ZM702.623 1164.69H690.983V1166.69H702.623V1164.69ZM691.983 1165.69C691.983 1163.47 691.37 1161.63 689.969 1160.38L688.637 1161.87C689.476 1162.62 689.983 1163.83 689.983 1165.69H691.983ZM689.969 1160.38C688.635 1159.19 686.944 1158.63 684.983 1158.63V1160.63C686.542 1160.63 687.731 1161.07 688.637 1161.87L689.969 1160.38ZM684.983 1158.63H684.683V1160.63H684.983V1158.63ZM684.683 1158.63C682.745 1158.63 681.068 1159.31 679.716 1160.66L681.13 1162.08C682.098 1161.11 683.261 1160.63 684.683 1160.63V1158.63ZM679.716 1160.66C678.363 1162.01 677.683 1163.69 677.683 1165.63H679.683C679.683 1164.21 680.163 1163.04 681.13 1162.08L679.716 1160.66ZM677.683 1165.63V1177.21H679.683V1165.63H677.683ZM677.683 1177.21C677.683 1179.15 678.363 1180.82 679.716 1182.18L681.13 1180.76C680.163 1179.79 679.683 1178.63 679.683 1177.21H677.683ZM679.716 1182.18C681.068 1183.53 682.745 1184.21 684.683 1184.21V1182.21C683.261 1182.21 682.098 1181.73 681.13 1180.76L679.716 1182.18ZM684.683 1184.21H685.763V1182.21H684.683V1184.21ZM685.763 1184.21C687.662 1184.21 689.253 1183.61 690.366 1182.29L688.84 1181C688.193 1181.77 687.224 1182.21 685.763 1182.21V1184.21ZM690.364 1182.3C691.485 1180.98 691.983 1179.22 691.983 1177.15H689.983C689.983 1178.92 689.561 1180.16 688.842 1181L690.364 1182.3ZM690.983 1176.15H684.023V1178.15H690.983V1176.15ZM685.023 1177.15V1168.99H683.023V1177.15H685.023ZM684.023 1169.99H702.623V1167.99H684.023V1169.99ZM701.623 1168.99V1183.39H703.623V1168.99H701.623ZM701.623 1183.39C701.623 1186.54 701.682 1188.68 701.81 1189.75L703.796 1189.51C703.684 1188.58 703.623 1186.56 703.623 1183.39H701.623ZM701.808 1189.73L702.048 1192.13L704.038 1191.93L703.798 1189.53L701.808 1189.73ZM703.043 1191.03H696.323V1193.03H703.043V1191.03ZM697.257 1191.67L695.577 1187.29L693.709 1188.01L695.389 1192.39L697.257 1191.67ZM693.896 1186.98C692.732 1188.29 691.122 1189.42 689.023 1190.33L689.823 1192.17C692.124 1191.16 693.994 1189.88 695.39 1188.31L693.896 1186.98ZM689.031 1190.33C686.987 1191.2 684.94 1191.63 682.883 1191.63V1193.63C685.227 1193.63 687.539 1193.14 689.815 1192.17L689.031 1190.33ZM682.883 1191.63H682.283V1193.63H682.883V1191.63ZM682.283 1191.63C679.216 1191.63 676.457 1190.87 673.981 1189.37L672.945 1191.08C675.749 1192.78 678.87 1193.63 682.283 1193.63V1191.63ZM673.987 1189.38C671.542 1187.87 669.623 1185.82 668.224 1183.22L666.462 1184.16C668.023 1187.07 670.184 1189.39 672.939 1191.08L673.987 1189.38ZM668.224 1183.22C666.826 1180.61 666.123 1177.75 666.123 1174.63H664.123C664.123 1178.07 664.9 1181.25 666.462 1184.16L668.224 1183.22ZM666.123 1174.63V1168.27H664.123V1174.63H666.123ZM666.123 1168.27C666.123 1165.12 666.88 1162.27 668.385 1159.72L666.661 1158.7C664.966 1161.58 664.123 1164.78 664.123 1168.27H666.123ZM668.383 1159.72C669.928 1157.12 672.074 1155.06 674.844 1153.55L673.883 1151.79C670.812 1153.47 668.398 1155.78 666.663 1158.7L668.383 1159.72ZM674.844 1153.55C677.601 1152.03 680.733 1151.27 684.263 1151.27V1149.27C680.433 1149.27 676.965 1150.1 673.883 1151.79L674.844 1153.55ZM684.263 1151.27H685.943V1149.27H684.263V1151.27ZM736.356 1163.47L735.763 1164.27L735.769 1164.28L736.356 1163.47ZM740.616 1184.83L739.909 1185.54L739.909 1185.54L740.616 1184.83ZM744.036 1184.83H745.036V1183.12L743.546 1183.96L744.036 1184.83ZM744.036 1191.25L744.62 1192.06L745.036 1191.76V1191.25H744.036ZM731.916 1191.37L731.405 1192.23L731.414 1192.23L731.423 1192.24L731.916 1191.37ZM729.156 1187.77L730.129 1187.54L729.679 1185.64L728.4 1187.11L729.156 1187.77ZM724.896 1191.31L724.405 1190.44L724.395 1190.44L724.896 1191.31ZM711.456 1190.77L711.983 1189.92L711.456 1190.77ZM710.796 1177.09L711.485 1177.81L711.494 1177.81L710.796 1177.09ZM717.456 1173.97L717.647 1174.95L717.657 1174.95L717.456 1173.97ZM728.556 1173.07V1174.07H729.556V1173.07H728.556ZM727.416 1168.69L726.752 1169.44L726.762 1169.45L726.772 1169.45L727.416 1168.69ZM722.016 1168.57L722.561 1169.41L722.571 1169.4L722.016 1168.57ZM720.816 1170.79V1171.79H721.816V1170.79H720.816ZM709.416 1170.79L708.468 1171.11L708.695 1171.79H709.416V1170.79ZM711.096 1165.33L710.337 1164.68L710.335 1164.68L711.096 1165.33ZM716.136 1162.03L716.484 1162.97L716.493 1162.96L716.136 1162.03ZM728.556 1178.53H729.556V1177.53H728.556V1178.53ZM722.736 1179.61L723.217 1180.49L723.228 1180.48L723.238 1180.47L722.736 1179.61ZM727.356 1184.23L728.045 1184.95L728.054 1184.94L728.063 1184.94L727.356 1184.23ZM725.736 1161.77C730.269 1161.77 733.564 1162.65 735.763 1164.27L736.95 1162.66C734.268 1160.69 730.483 1159.77 725.736 1159.77V1161.77ZM735.769 1164.28C738.009 1165.9 739.076 1167.95 739.076 1170.49H741.076C741.076 1167.27 739.663 1164.63 736.944 1162.66L735.769 1164.28ZM739.076 1170.49V1183.15H741.076V1170.49H739.076ZM739.076 1183.15C739.076 1184.04 739.286 1184.91 739.909 1185.54L741.323 1184.12C741.226 1184.02 741.076 1183.77 741.076 1183.15H739.076ZM739.909 1185.54C740.461 1186.09 741.157 1186.37 741.936 1186.37V1184.37C741.675 1184.37 741.491 1184.29 741.323 1184.12L739.909 1185.54ZM741.936 1186.37C742.862 1186.37 743.731 1186.15 744.526 1185.7L743.546 1183.96C743.061 1184.23 742.531 1184.37 741.936 1184.37V1186.37ZM743.036 1184.83V1191.25H745.036V1184.83H743.036ZM743.453 1190.44C742.429 1191.17 740.666 1191.63 737.976 1191.63V1193.63C740.806 1193.63 743.084 1193.16 744.62 1192.06L743.453 1190.44ZM737.976 1191.63C735.509 1191.63 733.682 1191.22 732.41 1190.5L731.423 1192.24C733.11 1193.2 735.324 1193.63 737.976 1193.63V1191.63ZM732.427 1190.51C731.154 1189.75 730.42 1188.77 730.129 1187.54L728.183 1188C728.612 1189.81 729.719 1191.23 731.405 1192.23L732.427 1190.51ZM728.4 1187.11C727.188 1188.52 725.856 1189.62 724.405 1190.44L725.388 1192.18C727.057 1191.24 728.564 1189.98 729.913 1188.42L728.4 1187.11ZM724.395 1190.44C723.064 1191.21 721.368 1191.63 719.256 1191.63V1193.63C721.625 1193.63 723.688 1193.16 725.397 1192.17L724.395 1190.44ZM719.256 1191.63C716.178 1191.63 713.778 1191.03 711.983 1189.92L710.929 1191.62C713.135 1192.99 715.935 1193.63 719.256 1193.63V1191.63ZM711.983 1189.92C710.415 1188.95 709.456 1186.94 709.456 1183.45H707.456C707.456 1187.23 708.498 1190.11 710.929 1191.62L711.983 1189.92ZM709.456 1183.45C709.456 1180.88 710.176 1179.06 711.484 1177.81L710.108 1176.36C708.296 1178.08 707.456 1180.5 707.456 1183.45H709.456ZM711.494 1177.81C712.874 1176.46 714.894 1175.49 717.647 1174.95L717.265 1172.99C714.259 1173.57 711.839 1174.68 710.098 1176.37L711.494 1177.81ZM717.657 1174.95C720.487 1174.37 724.114 1174.07 728.556 1174.07V1172.07C724.039 1172.07 720.265 1172.37 717.255 1172.99L717.657 1174.95ZM729.556 1173.07V1171.33H727.556V1173.07H729.556ZM729.556 1171.33C729.556 1169.96 729.076 1168.78 728.06 1167.92L726.772 1169.45C727.276 1169.88 727.556 1170.46 727.556 1171.33H729.556ZM728.081 1167.94C727.148 1167.11 725.979 1166.73 724.656 1166.73V1168.73C725.574 1168.73 726.244 1168.98 726.752 1169.44L728.081 1167.94ZM724.656 1166.73C723.52 1166.73 722.449 1167.08 721.461 1167.74L722.571 1169.4C723.263 1168.94 723.953 1168.73 724.656 1168.73V1166.73ZM721.471 1167.73C720.451 1168.39 719.816 1169.34 719.816 1170.55H721.816C721.816 1170.16 721.982 1169.78 722.561 1169.41L721.471 1167.73ZM719.816 1170.55V1170.79H721.816V1170.55H719.816ZM720.816 1169.79H709.416V1171.79H720.816V1169.79ZM710.365 1170.47C710.381 1170.52 710.382 1170.54 710.379 1170.52C710.376 1170.5 710.372 1170.47 710.369 1170.42C710.361 1170.31 710.356 1170.16 710.356 1169.95H708.356C708.356 1170.18 708.361 1170.39 708.374 1170.56C708.384 1170.71 708.405 1170.92 708.468 1171.11L710.365 1170.47ZM710.356 1169.95C710.356 1168.48 710.845 1167.16 711.857 1165.98L710.335 1164.68C709.028 1166.21 708.356 1167.98 708.356 1169.95H710.356ZM711.855 1165.98C712.92 1164.74 714.444 1163.72 716.484 1162.97L715.789 1161.09C713.509 1161.94 711.672 1163.12 710.337 1164.68L711.855 1165.98ZM716.493 1162.96C718.557 1162.18 720.972 1161.77 723.756 1161.77V1159.77C720.781 1159.77 718.116 1160.2 715.779 1161.09L716.493 1162.96ZM723.756 1161.77H725.736V1159.77H723.756V1161.77ZM728.556 1177.53C725.866 1177.53 723.707 1177.89 722.234 1178.74L723.238 1180.47C724.245 1179.89 725.967 1179.53 728.556 1179.53V1177.53ZM722.255 1178.73C720.75 1179.56 719.876 1180.83 719.876 1182.49H721.876C721.876 1181.67 722.243 1181.02 723.217 1180.49L722.255 1178.73ZM719.876 1182.49C719.876 1183.67 720.256 1184.71 721.151 1185.43C722.004 1186.11 723.169 1186.37 724.476 1186.37V1184.37C723.383 1184.37 722.748 1184.15 722.401 1183.87C722.096 1183.62 721.876 1183.23 721.876 1182.49H719.876ZM724.476 1186.37C725.848 1186.37 727.056 1185.89 728.045 1184.95L726.667 1183.5C726.056 1184.08 725.344 1184.37 724.476 1184.37V1186.37ZM728.063 1184.94C729.07 1183.93 729.556 1182.65 729.556 1181.17H727.556C727.556 1182.17 727.243 1182.93 726.649 1183.52L728.063 1184.94ZM729.556 1181.17V1178.53H727.556V1181.17H729.556ZM791.198 1161.97L790.691 1162.83L790.701 1162.84L791.198 1161.97ZM794.498 1165.27L793.629 1165.76L793.636 1165.78L794.498 1165.27ZM795.698 1192.03V1193.03H796.698V1192.03H795.698ZM784.058 1192.03H783.058V1193.03H784.058V1192.03ZM783.218 1170.25L782.441 1170.88L782.463 1170.91L782.487 1170.93L783.218 1170.25ZM779.078 1170.25L778.325 1169.59L778.322 1169.59L779.078 1170.25ZM778.298 1192.03V1193.03H779.298V1192.03H778.298ZM766.658 1192.03H765.658V1193.03H766.658V1192.03ZM765.818 1170.25L765.041 1170.88L765.063 1170.91L765.087 1170.93L765.818 1170.25ZM761.678 1170.25L760.925 1169.59L760.922 1169.59L761.678 1170.25ZM760.898 1192.03V1193.03H761.898V1192.03H760.898ZM749.258 1192.03H748.258V1193.03H749.258V1192.03ZM749.258 1161.37V1160.37H748.258V1161.37H749.258ZM758.138 1161.37L759.1 1161.1L758.893 1160.37H758.138V1161.37ZM759.398 1165.81L758.436 1166.08L758.976 1167.99L760.188 1166.42L759.398 1165.81ZM773.918 1162.03L773.403 1162.89L773.403 1162.89L773.918 1162.03ZM777.158 1165.45L776.273 1165.92L777.114 1167.51L778.021 1165.95L777.158 1165.45ZM780.458 1162.03L779.943 1161.17L779.932 1161.18L780.458 1162.03ZM786.698 1161.77C788.167 1161.77 789.49 1162.12 790.691 1162.83L791.705 1161.11C790.185 1160.21 788.509 1159.77 786.698 1159.77V1161.77ZM790.701 1162.84C791.946 1163.55 792.918 1164.52 793.629 1165.76L795.366 1164.77C794.477 1163.22 793.249 1161.99 791.694 1161.1L790.701 1162.84ZM793.636 1165.78C794.342 1166.98 794.698 1168.3 794.698 1169.77H796.698C796.698 1167.96 796.254 1166.28 795.36 1164.76L793.636 1165.78ZM794.698 1169.77V1192.03H796.698V1169.77H794.698ZM795.698 1191.03H784.058V1193.03H795.698V1191.03ZM785.058 1192.03V1172.59H783.058V1192.03H785.058ZM785.058 1172.59C785.058 1171.42 784.71 1170.38 783.949 1169.57L782.487 1170.93C782.845 1171.31 783.058 1171.84 783.058 1172.59H785.058ZM783.994 1169.62C783.28 1168.74 782.312 1168.29 781.178 1168.29V1170.29C781.723 1170.29 782.115 1170.48 782.441 1170.88L783.994 1169.62ZM781.178 1168.29C780.045 1168.29 779.072 1168.74 778.325 1169.59L779.83 1170.91C780.203 1170.48 780.63 1170.29 781.178 1170.29V1168.29ZM778.322 1169.59C777.613 1170.41 777.298 1171.44 777.298 1172.59H779.298C779.298 1171.82 779.502 1171.29 779.833 1170.9L778.322 1169.59ZM777.298 1172.59V1192.03H779.298V1172.59H777.298ZM778.298 1191.03H766.658V1193.03H778.298V1191.03ZM767.658 1192.03V1172.59H765.658V1192.03H767.658ZM767.658 1172.59C767.658 1171.42 767.31 1170.38 766.549 1169.57L765.087 1170.93C765.445 1171.31 765.658 1171.84 765.658 1172.59H767.658ZM766.594 1169.62C765.88 1168.74 764.912 1168.29 763.778 1168.29V1170.29C764.323 1170.29 764.715 1170.48 765.041 1170.88L766.594 1169.62ZM763.778 1168.29C762.645 1168.29 761.672 1168.74 760.925 1169.59L762.43 1170.91C762.803 1170.48 763.23 1170.29 763.778 1170.29V1168.29ZM760.922 1169.59C760.213 1170.41 759.898 1171.44 759.898 1172.59H761.898C761.898 1171.82 762.102 1171.29 762.433 1170.9L760.922 1169.59ZM759.898 1172.59V1192.03H761.898V1172.59H759.898ZM760.898 1191.03H749.258V1193.03H760.898V1191.03ZM750.258 1192.03V1161.37H748.258V1192.03H750.258ZM749.258 1162.37H758.138V1160.37H749.258V1162.37ZM757.176 1161.64L758.436 1166.08L760.36 1165.54L759.1 1161.1L757.176 1161.64ZM760.188 1166.42C762.689 1163.19 765.189 1161.77 767.678 1161.77V1159.77C764.326 1159.77 761.306 1161.71 758.607 1165.2L760.188 1166.42ZM767.678 1161.77H769.298V1159.77H767.678V1161.77ZM769.298 1161.77C770.802 1161.77 772.163 1162.14 773.403 1162.89L774.432 1161.17C772.872 1160.24 771.153 1159.77 769.298 1159.77V1161.77ZM773.403 1162.89C774.647 1163.63 775.599 1164.64 776.273 1165.92L778.042 1164.98C777.196 1163.38 775.988 1162.11 774.432 1161.17L773.403 1162.89ZM778.021 1165.95C778.782 1164.65 779.769 1163.63 780.983 1162.88L779.932 1161.18C778.427 1162.11 777.213 1163.37 776.294 1164.94L778.021 1165.95ZM780.972 1162.89C782.212 1162.14 783.573 1161.77 785.078 1161.77V1159.77C783.222 1159.77 781.503 1160.24 779.943 1161.17L780.972 1162.89ZM785.078 1161.77H786.698V1159.77H785.078V1161.77ZM827.743 1162.57L827.264 1163.45L827.274 1163.45L827.283 1163.46L827.743 1162.57ZM832.843 1167.43L831.97 1167.92L831.973 1167.92L831.977 1167.93L832.843 1167.43ZM834.643 1178.29V1179.29H835.643V1178.29H834.643ZM814.663 1178.29V1177.29H813.663V1178.29H814.663ZM815.923 1184.29L815.272 1185.05L815.281 1185.06L815.29 1185.06L815.923 1184.29ZM822.463 1184.11L821.706 1183.46L821.704 1183.46L822.463 1184.11ZM823.603 1180.51V1179.51H822.603V1180.51H823.603ZM834.583 1180.51H835.583V1179.51H834.583V1180.51ZM832.783 1186.69L831.946 1186.14L831.941 1186.15L831.937 1186.16L832.783 1186.69ZM827.623 1191.07L828.044 1191.98L828.051 1191.97L827.623 1191.07ZM810.103 1190.89L809.673 1191.79L809.682 1191.8L809.69 1191.8L810.103 1190.89ZM804.103 1185.73L803.258 1186.26L803.263 1186.27L803.269 1186.28L804.103 1185.73ZM803.983 1167.73L803.131 1167.21L803.128 1167.21L803.983 1167.73ZM809.803 1162.57L810.227 1163.47L810.239 1163.47L809.803 1162.57ZM815.863 1169.29L816.57 1170L816.579 1169.99L816.587 1169.98L815.863 1169.29ZM814.663 1173.07H813.663V1174.07H814.663V1173.07ZM822.943 1173.07V1174.07H823.943V1173.07H822.943ZM821.743 1169.29L821.019 1169.98L821.027 1169.99L821.036 1170L821.743 1169.29ZM819.823 1161.77C822.774 1161.77 825.241 1162.34 827.264 1163.45L828.222 1161.69C825.845 1160.39 823.033 1159.77 819.823 1159.77V1161.77ZM827.283 1163.46C829.36 1164.53 830.911 1166.02 831.97 1167.92L833.717 1166.94C832.455 1164.68 830.606 1162.93 828.203 1161.68L827.283 1163.46ZM831.977 1167.93C833.08 1169.84 833.643 1172.04 833.643 1174.57H835.643C835.643 1171.73 835.007 1169.18 833.709 1166.93L831.977 1167.93ZM833.643 1174.57V1178.29H835.643V1174.57H833.643ZM834.643 1177.29H814.663V1179.29H834.643V1177.29ZM813.663 1178.29V1181.17H815.663V1178.29H813.663ZM813.663 1181.17C813.663 1182.75 814.161 1184.1 815.272 1185.05L816.574 1183.53C816.006 1183.04 815.663 1182.31 815.663 1181.17H813.663ZM815.29 1185.06C816.382 1185.96 817.739 1186.37 819.283 1186.37V1184.37C818.107 1184.37 817.224 1184.06 816.556 1183.51L815.29 1185.06ZM819.283 1186.37C820.892 1186.37 822.264 1185.88 823.222 1184.76L821.704 1183.46C821.222 1184.02 820.475 1184.37 819.283 1184.37V1186.37ZM823.22 1184.76C824.18 1183.65 824.603 1182.19 824.603 1180.51H822.603C822.603 1181.86 822.267 1182.81 821.706 1183.46L823.22 1184.76ZM823.603 1181.51H834.583V1179.51H823.603V1181.51ZM833.583 1180.51C833.583 1182.6 833.035 1184.47 831.946 1186.14L833.621 1187.24C834.931 1185.23 835.583 1182.98 835.583 1180.51H833.583ZM831.937 1186.16C830.894 1187.81 829.331 1189.15 827.195 1190.17L828.051 1191.97C830.475 1190.82 832.353 1189.25 833.629 1187.22L831.937 1186.16ZM827.202 1190.16C825.122 1191.13 822.613 1191.63 819.643 1191.63V1193.63C822.834 1193.63 825.644 1193.09 828.044 1191.98L827.202 1190.16ZM819.643 1191.63H818.743V1193.63H819.643V1191.63ZM818.743 1191.63C815.666 1191.63 812.929 1191.07 810.516 1189.98L809.69 1191.8C812.397 1193.03 815.421 1193.63 818.743 1193.63V1191.63ZM810.533 1189.99C808.171 1188.86 806.313 1187.26 804.938 1185.18L803.269 1186.28C804.853 1188.68 806.996 1190.52 809.673 1191.79L810.533 1189.99ZM804.949 1185.19C803.625 1183.1 802.943 1180.59 802.943 1177.63H800.943C800.943 1180.91 801.702 1183.8 803.258 1186.26L804.949 1185.19ZM802.943 1177.63V1175.77H800.943V1177.63H802.943ZM802.943 1175.77C802.943 1172.8 803.59 1170.3 804.838 1168.25L803.128 1167.21C801.657 1169.63 800.943 1172.5 800.943 1175.77H802.943ZM804.835 1168.25C806.131 1166.14 807.92 1164.55 810.227 1163.47L809.38 1161.66C806.727 1162.9 804.636 1164.75 803.131 1167.21L804.835 1168.25ZM810.239 1163.47C812.563 1162.34 815.25 1161.77 818.323 1161.77V1159.77C814.997 1159.77 812.004 1160.39 809.368 1161.67L810.239 1163.47ZM818.323 1161.77H819.823V1159.77H818.323V1161.77ZM818.803 1167.03C817.37 1167.03 816.128 1167.56 815.139 1168.6L816.587 1169.98C817.199 1169.34 817.917 1169.03 818.803 1169.03V1167.03ZM815.156 1168.58C814.163 1169.57 813.663 1170.81 813.663 1172.23H815.663C815.663 1171.33 815.963 1170.6 816.57 1170L815.156 1168.58ZM813.663 1172.23V1173.07H815.663V1172.23H813.663ZM814.663 1174.07H822.943V1172.07H814.663V1174.07ZM823.943 1173.07V1172.23H821.943V1173.07H823.943ZM823.943 1172.23C823.943 1170.81 823.443 1169.57 822.45 1168.58L821.036 1170C821.643 1170.6 821.943 1171.33 821.943 1172.23H823.943ZM822.467 1168.6C821.479 1167.56 820.237 1167.03 818.803 1167.03V1169.03C819.69 1169.03 820.408 1169.34 821.019 1169.98L822.467 1168.6ZM870.138 1160.65V1161.65H871.023L871.131 1160.77L870.138 1160.65ZM853.878 1160.65V1159.65H852.878V1160.65H853.878ZM853.878 1167.37H852.878V1168.37H853.878V1167.37ZM868.998 1167.37H869.998V1166.37H868.998V1167.37ZM868.998 1176.61V1177.61H869.998V1176.61H868.998ZM853.878 1176.61V1175.61H852.878V1176.61H853.878ZM853.878 1192.03V1193.03H854.878V1192.03H853.878ZM841.578 1192.03H840.578V1193.03H841.578V1192.03ZM841.578 1150.87V1149.87H840.578V1150.87H841.578ZM871.338 1150.87L872.331 1150.99L872.469 1149.87H871.338V1150.87ZM870.138 1159.65H853.878V1161.65H870.138V1159.65ZM852.878 1160.65V1167.37H854.878V1160.65H852.878ZM853.878 1168.37H868.998V1166.37H853.878V1168.37ZM867.998 1167.37V1176.61H869.998V1167.37H867.998ZM868.998 1175.61H853.878V1177.61H868.998V1175.61ZM852.878 1176.61V1192.03H854.878V1176.61H852.878ZM853.878 1191.03H841.578V1193.03H853.878V1191.03ZM842.578 1192.03V1150.87H840.578V1192.03H842.578ZM841.578 1151.87H871.338V1149.87H841.578V1151.87ZM870.346 1150.75L869.146 1160.53L871.131 1160.77L872.331 1150.99L870.346 1150.75ZM888.47 1157.41V1158.41H889.47V1157.41H888.47ZM876.65 1157.41H875.65V1158.41H876.65V1157.41ZM876.65 1148.83V1147.83H875.65V1148.83H876.65ZM888.47 1148.83H889.47V1147.83H888.47V1148.83ZM888.47 1192.03V1193.03H889.47V1192.03H888.47ZM876.65 1192.03H875.65V1193.03H876.65V1192.03ZM876.65 1161.43V1160.43H875.65V1161.43H876.65ZM888.47 1161.43H889.47V1160.43H888.47V1161.43ZM888.47 1156.41H876.65V1158.41H888.47V1156.41ZM877.65 1157.41V1148.83H875.65V1157.41H877.65ZM876.65 1149.83H888.47V1147.83H876.65V1149.83ZM887.47 1148.83V1157.41H889.47V1148.83H887.47ZM888.47 1191.03H876.65V1193.03H888.47V1191.03ZM877.65 1192.03V1161.43H875.65V1192.03H877.65ZM876.65 1162.43H888.47V1160.43H876.65V1162.43ZM887.47 1161.43V1192.03H889.47V1161.43H887.47ZM931.865 1182.85H930.865V1183.85H931.865V1182.85ZM940.625 1182.85H941.625V1181.85H940.625V1182.85ZM940.625 1192.03V1193.03H941.625V1192.03H940.625ZM910.985 1192.03H909.985V1193.03H910.985V1192.03ZM910.985 1182.85V1181.85H909.985V1182.85H910.985ZM920.105 1182.85V1183.85H921.105V1182.85H920.105ZM920.105 1163.65H921.105V1162.65H920.105V1163.65ZM910.985 1163.65H909.985V1164.65H910.985V1163.65ZM910.985 1156.75L910.922 1155.75L909.985 1155.81V1156.75H910.985ZM919.505 1154.65L919.871 1155.58L919.881 1155.58L919.505 1154.65ZM927.845 1150.27V1149.27H927.536L927.281 1149.44L927.845 1150.27ZM931.865 1150.27H932.865V1149.27H931.865V1150.27ZM931.865 1183.85H940.625V1181.85H931.865V1183.85ZM939.625 1182.85V1192.03H941.625V1182.85H939.625ZM940.625 1191.03H910.985V1193.03H940.625V1191.03ZM911.985 1192.03V1182.85H909.985V1192.03H911.985ZM910.985 1183.85H920.105V1181.85H910.985V1183.85ZM921.105 1182.85V1163.65H919.105V1182.85H921.105ZM920.105 1162.65H910.985V1164.65H920.105V1162.65ZM911.985 1163.65V1156.75H909.985V1163.65H911.985ZM911.049 1157.75C913.701 1157.58 916.645 1156.85 919.871 1155.58L919.14 1153.72C916.046 1154.93 913.31 1155.6 910.922 1155.75L911.049 1157.75ZM919.881 1155.58C923.096 1154.27 925.941 1152.78 928.409 1151.09L927.281 1149.44C924.949 1151.04 922.235 1152.46 919.13 1153.72L919.881 1155.58ZM927.845 1151.27H931.865V1149.27H927.845V1151.27ZM930.865 1150.27V1182.85H932.865V1150.27H930.865ZM972.439 1152.01L971.973 1152.89L971.982 1152.9L971.992 1152.9L972.439 1152.01ZM977.599 1156.69L976.742 1157.2L976.746 1157.21L976.749 1157.22L977.599 1156.69ZM977.239 1171.03L978.049 1171.62L978.054 1171.61L977.239 1171.03ZM970.279 1177.39L969.708 1176.57L969.707 1176.57L970.279 1177.39ZM963.739 1181.95L963.167 1181.13L960.557 1182.95H963.739V1181.95ZM979.519 1181.95H980.519V1180.95H979.519V1181.95ZM979.519 1192.03V1193.03H980.519V1192.03H979.519ZM947.419 1192.03H946.419V1193.03H947.419V1192.03ZM948.499 1183.99L949.411 1184.4L949.411 1184.4L948.499 1183.99ZM952.219 1179.49L951.6 1178.7L951.597 1178.71L952.219 1179.49ZM964.099 1170.13L964.718 1170.91L964.722 1170.91L964.099 1170.13ZM966.079 1160.89L965.355 1161.58L965.372 1161.6L965.39 1161.61L966.079 1160.89ZM959.359 1160.83L958.67 1160.1L958.661 1160.11L958.652 1160.12L959.359 1160.83ZM958.159 1165.51V1166.51H959.159V1165.51H958.159ZM947.599 1165.51H946.599V1166.51H947.599V1165.51ZM949.399 1157.23L950.27 1157.72L950.273 1157.71L949.399 1157.23ZM954.679 1152.13L954.208 1151.25L954.208 1151.25L954.679 1152.13ZM964.759 1151.27C967.545 1151.27 969.94 1151.82 971.973 1152.89L972.906 1151.12C970.539 1149.88 967.814 1149.27 964.759 1149.27V1151.27ZM971.992 1152.9C974.075 1153.94 975.647 1155.38 976.742 1157.2L978.457 1156.17C977.152 1154 975.284 1152.31 972.887 1151.11L971.992 1152.9ZM976.749 1157.22C977.881 1159.04 978.459 1161.15 978.459 1163.59H980.459C980.459 1160.82 979.797 1158.34 978.449 1156.16L976.749 1157.22ZM978.459 1163.59C978.459 1166.29 977.769 1168.56 976.425 1170.45L978.054 1171.61C979.67 1169.34 980.459 1166.65 980.459 1163.59H978.459ZM976.43 1170.44C975.041 1172.36 972.819 1174.4 969.708 1176.57L970.851 1178.21C974.059 1175.98 976.478 1173.78 978.049 1171.62L976.43 1170.44ZM969.707 1176.57L963.167 1181.13L964.311 1182.77L970.851 1178.21L969.707 1176.57ZM963.739 1182.95H979.519V1180.95H963.739V1182.95ZM978.519 1181.95V1192.03H980.519V1181.95H978.519ZM979.519 1191.03H947.419V1193.03H979.519V1191.03ZM948.419 1192.03V1189.87H946.419V1192.03H948.419ZM948.419 1189.87C948.419 1187.65 948.765 1185.84 949.411 1184.4L947.587 1183.58C946.794 1185.34 946.419 1187.45 946.419 1189.87H948.419ZM949.411 1184.4C950.05 1182.98 951.172 1181.6 952.842 1180.27L951.597 1178.71C949.746 1180.18 948.389 1181.8 947.587 1183.58L949.411 1184.4ZM952.838 1180.27L964.718 1170.91L963.48 1169.34L951.6 1178.7L952.838 1180.27ZM964.722 1170.91C967.09 1169.03 968.339 1166.65 968.339 1163.83H966.339C966.339 1165.97 965.429 1167.79 963.476 1169.35L964.722 1170.91ZM968.339 1163.83C968.339 1162.4 967.807 1161.15 966.769 1160.16L965.39 1161.61C966.031 1162.22 966.339 1162.94 966.339 1163.83H968.339ZM966.803 1160.2C965.815 1159.16 964.573 1158.63 963.139 1158.63V1160.63C964.026 1160.63 964.744 1160.94 965.355 1161.58L966.803 1160.2ZM963.139 1158.63H962.359V1160.63H963.139V1158.63ZM962.359 1158.63C960.943 1158.63 959.696 1159.13 958.67 1160.1L960.049 1161.55C960.703 1160.93 961.456 1160.63 962.359 1160.63V1158.63ZM958.652 1160.12C957.652 1161.12 957.159 1162.38 957.159 1163.83H959.159C959.159 1162.88 959.466 1162.14 960.066 1161.54L958.652 1160.12ZM957.159 1163.83V1165.51H959.159V1163.83H957.159ZM958.159 1164.51H947.599V1166.51H958.159V1164.51ZM948.599 1165.51V1164.37H946.599V1165.51H948.599ZM948.599 1164.37C948.599 1161.89 949.162 1159.68 950.27 1157.72L948.529 1156.74C947.237 1159.02 946.599 1161.57 946.599 1164.37H948.599ZM950.273 1157.71C951.374 1155.73 952.989 1154.17 955.151 1153.01L954.208 1151.25C951.73 1152.57 949.825 1154.4 948.525 1156.74L950.273 1157.71ZM955.151 1153.01C957.299 1151.86 959.871 1151.27 962.899 1151.27V1149.27C959.608 1149.27 956.699 1149.92 954.208 1151.25L955.151 1153.01ZM962.899 1151.27H964.759V1149.27H962.899V1151.27ZM1020.75 1150.87L1021.61 1151.39L1022.53 1149.87H1020.75V1150.87ZM995.733 1192.03V1193.03H996.296L996.588 1192.55L995.733 1192.03ZM990.033 1192.03L989.18 1191.51L988.251 1193.03H990.033V1192.03ZM1015.17 1150.87V1149.87H1014.61L1014.32 1150.35L1015.17 1150.87ZM999.573 1153.09L998.866 1153.8L998.876 1153.81L999.573 1153.09ZM999.573 1169.65L998.876 1168.93L998.866 1168.94L999.573 1169.65ZM987.813 1169.65L988.52 1168.94L988.52 1168.94L987.813 1169.65ZM987.813 1153.09L987.106 1152.38L987.106 1152.38L987.813 1153.09ZM992.133 1155.85L991.426 1155.14L991.426 1155.14L992.133 1155.85ZM992.133 1166.83L991.426 1167.54L991.426 1167.54L992.133 1166.83ZM995.253 1166.83L994.546 1166.12L994.529 1166.14L994.513 1166.16L995.253 1166.83ZM995.253 1155.85L994.513 1156.52L994.529 1156.54L994.546 1156.56L995.253 1155.85ZM1022.97 1173.31L1022.27 1174.02L1022.28 1174.03L1022.97 1173.31ZM1024.17 1188.37L1025.03 1188.89L1025.03 1188.88L1025.04 1188.87L1024.17 1188.37ZM1021.41 1191.07L1020.91 1190.21L1020.9 1190.21L1020.89 1190.21L1021.41 1191.07ZM1011.21 1189.93L1010.5 1190.63L1010.51 1190.64L1011.21 1189.93ZM1015.53 1176.13L1016.24 1176.84L1016.26 1176.82L1016.27 1176.8L1015.53 1176.13ZM1015.53 1187.11L1014.8 1187.78L1014.81 1187.8L1014.83 1187.82L1015.53 1187.11ZM1018.65 1187.11L1017.92 1186.43L1017.91 1186.44L1018.65 1187.11ZM1018.65 1176.13L1017.89 1176.77L1017.91 1176.8L1017.95 1176.84L1018.65 1176.13ZM1019.9 1150.35L994.879 1191.51L996.588 1192.55L1021.61 1151.39L1019.9 1150.35ZM995.733 1191.03H990.033V1193.03H995.733V1191.03ZM990.887 1192.55L1016.03 1151.39L1014.32 1150.35L989.18 1191.51L990.887 1192.55ZM1015.17 1151.87H1020.75V1149.87H1015.17V1151.87ZM994.353 1151.93C996.129 1151.93 997.614 1152.54 998.866 1153.8L1000.28 1152.38C998.653 1150.75 996.658 1149.93 994.353 1149.93V1151.93ZM998.876 1153.81C1000.17 1155.06 1000.79 1156.54 1000.79 1158.31H1002.79C1002.79 1156 1001.94 1154 1000.27 1152.37L998.876 1153.81ZM1000.79 1158.31V1164.43H1002.79V1158.31H1000.79ZM1000.79 1164.43C1000.79 1166.2 1000.17 1167.68 998.876 1168.93L1000.27 1170.37C1001.94 1168.74 1002.79 1166.74 1002.79 1164.43H1000.79ZM998.866 1168.94C997.614 1170.19 996.129 1170.81 994.353 1170.81V1172.81C996.658 1172.81 998.653 1171.98 1000.28 1170.36L998.866 1168.94ZM994.353 1170.81H993.033V1172.81H994.353V1170.81ZM993.033 1170.81C991.258 1170.81 989.773 1170.19 988.52 1168.94L987.106 1170.36C988.734 1171.98 990.729 1172.81 993.033 1172.81V1170.81ZM988.52 1168.94C987.268 1167.69 986.653 1166.2 986.653 1164.43H984.653C984.653 1166.73 985.478 1168.73 987.106 1170.36L988.52 1168.94ZM986.653 1164.43V1158.31H984.653V1164.43H986.653ZM986.653 1158.31C986.653 1156.53 987.268 1155.05 988.52 1153.8L987.106 1152.38C985.478 1154.01 984.653 1156 984.653 1158.31H986.653ZM988.52 1153.8C989.773 1152.54 991.258 1151.93 993.033 1151.93V1149.93C990.729 1149.93 988.734 1150.75 987.106 1152.38L988.52 1153.8ZM993.033 1151.93H994.353V1149.93H993.033V1151.93ZM993.693 1154.19C992.817 1154.19 992.046 1154.52 991.426 1155.14L992.84 1156.56C993.101 1156.3 993.369 1156.19 993.693 1156.19V1154.19ZM991.426 1155.14C990.78 1155.79 990.473 1156.61 990.473 1157.53H992.473C992.473 1157.09 992.606 1156.79 992.84 1156.56L991.426 1155.14ZM990.473 1157.53V1165.15H992.473V1157.53H990.473ZM990.473 1165.15C990.473 1166.07 990.78 1166.89 991.426 1167.54L992.84 1166.12C992.606 1165.89 992.473 1165.59 992.473 1165.15H990.473ZM991.426 1167.54C992.046 1168.16 992.817 1168.49 993.693 1168.49V1166.49C993.369 1166.49 993.101 1166.38 992.84 1166.12L991.426 1167.54ZM993.693 1168.49C994.591 1168.49 995.388 1168.17 995.993 1167.5L994.513 1166.16C994.319 1166.37 994.076 1166.49 993.693 1166.49V1168.49ZM995.96 1167.54C996.606 1166.89 996.913 1166.07 996.913 1165.15H994.913C994.913 1165.59 994.78 1165.89 994.546 1166.12L995.96 1167.54ZM996.913 1165.15V1157.53H994.913V1165.15H996.913ZM996.913 1157.53C996.913 1156.61 996.606 1155.79 995.96 1155.14L994.546 1156.56C994.78 1156.79 994.913 1157.09 994.913 1157.53H996.913ZM995.993 1155.18C995.388 1154.51 994.591 1154.19 993.693 1154.19V1156.19C994.076 1156.19 994.319 1156.31 994.513 1156.52L995.993 1155.18ZM1017.75 1172.15C1019.53 1172.15 1021.01 1172.76 1022.27 1174.02L1023.68 1172.6C1022.05 1170.97 1020.06 1170.15 1017.75 1170.15V1172.15ZM1022.28 1174.03C1023.57 1175.28 1024.19 1176.76 1024.19 1178.53H1026.19C1026.19 1176.22 1025.34 1174.22 1023.67 1172.59L1022.28 1174.03ZM1024.19 1178.53V1184.65H1026.19V1178.53H1024.19ZM1024.19 1184.65C1024.19 1185.79 1023.9 1186.85 1023.31 1187.86L1025.04 1188.87C1025.8 1187.56 1026.19 1186.15 1026.19 1184.65H1024.19ZM1023.32 1187.85C1022.73 1188.82 1021.93 1189.61 1020.91 1190.21L1021.92 1191.93C1023.22 1191.17 1024.26 1190.15 1025.03 1188.89L1023.32 1187.85ZM1020.89 1190.21C1019.93 1190.8 1018.89 1191.09 1017.75 1191.09V1193.09C1019.25 1193.09 1020.65 1192.7 1021.93 1191.92L1020.89 1190.21ZM1017.75 1191.09H1016.43V1193.09H1017.75V1191.09ZM1016.43 1191.09C1014.66 1191.09 1013.17 1190.47 1011.92 1189.22L1010.51 1190.64C1012.13 1192.26 1014.13 1193.09 1016.43 1193.09V1191.09ZM1011.93 1189.23C1010.67 1187.94 1010.05 1186.42 1010.05 1184.65H1008.05C1008.05 1186.95 1008.88 1188.96 1010.5 1190.63L1011.93 1189.23ZM1010.05 1184.65V1178.53H1008.05V1184.65H1010.05ZM1010.05 1178.53C1010.05 1176.75 1010.67 1175.27 1011.92 1174.02L1010.51 1172.6C1008.88 1174.23 1008.05 1176.22 1008.05 1178.53H1010.05ZM1011.92 1174.02C1013.17 1172.76 1014.66 1172.15 1016.43 1172.15V1170.15C1014.13 1170.15 1012.13 1170.97 1010.51 1172.6L1011.92 1174.02ZM1016.43 1172.15H1017.75V1170.15H1016.43V1172.15ZM1017.09 1174.41C1016.19 1174.41 1015.41 1174.79 1014.8 1175.45L1016.27 1176.8C1016.54 1176.51 1016.8 1176.41 1017.09 1176.41V1174.41ZM1014.83 1175.42C1014.18 1176.07 1013.87 1176.89 1013.87 1177.81H1015.87C1015.87 1177.37 1016.01 1177.07 1016.24 1176.84L1014.83 1175.42ZM1013.87 1177.81V1185.43H1015.87V1177.81H1013.87ZM1013.87 1185.43C1013.87 1186.32 1014.19 1187.12 1014.8 1187.78L1016.27 1186.43C1016 1186.13 1015.87 1185.81 1015.87 1185.43H1013.87ZM1014.83 1187.82C1015.45 1188.44 1016.22 1188.77 1017.09 1188.77V1186.77C1016.77 1186.77 1016.5 1186.66 1016.24 1186.4L1014.83 1187.82ZM1017.09 1188.77C1017.99 1188.77 1018.79 1188.45 1019.39 1187.78L1017.91 1186.44C1017.72 1186.65 1017.48 1186.77 1017.09 1186.77V1188.77ZM1019.39 1187.78C1020 1187.12 1020.31 1186.32 1020.31 1185.43H1018.31C1018.31 1185.81 1018.19 1186.13 1017.92 1186.43L1019.39 1187.78ZM1020.31 1185.43V1177.81H1018.31V1185.43H1020.31ZM1020.31 1177.81C1020.31 1176.89 1020.01 1176.07 1019.36 1175.42L1017.95 1176.84C1018.18 1177.07 1018.31 1177.37 1018.31 1177.81H1020.31ZM1019.42 1175.49C1018.83 1174.77 1018.02 1174.41 1017.09 1174.41V1176.41C1017.44 1176.41 1017.68 1176.52 1017.89 1176.77L1019.42 1175.49Z" fill="black" mask="url(#path-8-outside-2_681_2)"/>
<path d="M364.667 242C364.667 234.637 370.636 228.667 378 228.667C385.364 228.667 391.333 234.637 391.333 242C391.333 249.364 385.364 255.334 378 255.334C370.636 255.334 364.667 249.364 364.667 242ZM621.406 1214.45V1216.95H619.455L618.981 1215.06L621.406 1214.45ZM1045.67 1211.95C1047.06 1211.95 1048.17 1213.07 1048.17 1214.45C1048.17 1215.83 1047.06 1216.95 1045.67 1216.95V1211.95ZM380.425 241.393L623.831 1213.85L618.981 1215.06L375.575 242.607L380.425 241.393ZM621.406 1211.95H1045.67V1216.95H621.406V1211.95Z" fill="white"/>
</svg>
