<svg width="31" height="29" viewBox="0 0 31 29" fill="none" xmlns="http://www.w3.org/2000/svg">
<path d="M28.7825 12.3549L27.435 18.1025C26.28 23.0662 23.9975 25.0737 19.7075 24.6612C19.02 24.6062 18.2775 24.4825 17.48 24.29L15.17 23.7399C9.43625 22.3787 7.6625 19.5462 9.01 13.7987L10.3575 8.03745C10.6325 6.8687 10.9625 5.8512 11.375 5.01245C12.9838 1.68495 15.72 0.7912 20.3125 1.87745L22.6088 2.4137C28.37 3.7612 30.13 6.60745 28.7825 12.3549Z" stroke="white" stroke-width="2.5" stroke-linecap="round" stroke-linejoin="round"/>
<path d="M19.7075 24.6612C18.855 25.2387 17.7825 25.7199 16.4762 26.1462L14.3037 26.8612C8.84498 28.6212 5.97123 27.15 4.19748 21.6912L2.43748 16.26C0.677481 10.8012 2.13498 7.9137 7.59373 6.1537L9.76623 5.4387C10.33 5.25995 10.8662 5.1087 11.375 5.01245C10.9625 5.8512 10.6325 6.8687 10.3575 8.03745L9.00998 13.7987C7.66248 19.5462 9.43623 22.3787 15.17 23.7399L17.48 24.29C18.2775 24.4825 19.02 24.6062 19.7075 24.6612Z" stroke="white" stroke-width="2.5" stroke-linecap="round" stroke-linejoin="round"/>
</svg>
